%TF.GenerationSoftware,KiCad,Pcbnew,8.0.3*%
%TF.CreationDate,2024-07-07T18:19:15-07:00*%
%TF.ProjectId,JPBms2,4a50426d-7332-42e6-9b69-6361645f7063,rev?*%
%TF.SameCoordinates,Original*%
%TF.FileFunction,Copper,L2,Inr*%
%TF.FilePolarity,Positive*%
%FSLAX46Y46*%
G04 Gerber Fmt 4.6, Leading zero omitted, Abs format (unit mm)*
G04 Created by KiCad (PCBNEW 8.0.3) date 2024-07-07 18:19:15*
%MOMM*%
%LPD*%
G01*
G04 APERTURE LIST*
G04 Aperture macros list*
%AMRoundRect*
0 Rectangle with rounded corners*
0 $1 Rounding radius*
0 $2 $3 $4 $5 $6 $7 $8 $9 X,Y pos of 4 corners*
0 Add a 4 corners polygon primitive as box body*
4,1,4,$2,$3,$4,$5,$6,$7,$8,$9,$2,$3,0*
0 Add four circle primitives for the rounded corners*
1,1,$1+$1,$2,$3*
1,1,$1+$1,$4,$5*
1,1,$1+$1,$6,$7*
1,1,$1+$1,$8,$9*
0 Add four rect primitives between the rounded corners*
20,1,$1+$1,$2,$3,$4,$5,0*
20,1,$1+$1,$4,$5,$6,$7,0*
20,1,$1+$1,$6,$7,$8,$9,0*
20,1,$1+$1,$8,$9,$2,$3,0*%
G04 Aperture macros list end*
%TA.AperFunction,ComponentPad*%
%ADD10C,1.400000*%
%TD*%
%TA.AperFunction,ComponentPad*%
%ADD11R,3.500000X3.500000*%
%TD*%
%TA.AperFunction,ComponentPad*%
%ADD12C,3.500000*%
%TD*%
%TA.AperFunction,ComponentPad*%
%ADD13RoundRect,0.250000X-0.725000X0.600000X-0.725000X-0.600000X0.725000X-0.600000X0.725000X0.600000X0*%
%TD*%
%TA.AperFunction,ComponentPad*%
%ADD14O,1.950000X1.700000*%
%TD*%
%TA.AperFunction,ComponentPad*%
%ADD15C,3.000000*%
%TD*%
%TA.AperFunction,ViaPad*%
%ADD16C,0.600000*%
%TD*%
G04 APERTURE END LIST*
D10*
%TO.N,*%
%TO.C,J1*%
X163200000Y-76600000D03*
X163200000Y-87600000D03*
D11*
%TO.N,GND*%
X153200000Y-84600000D03*
D12*
%TO.N,/Power/Vs+*%
X153200000Y-79600000D03*
%TD*%
D13*
%TO.N,Net-(BAL1-Pin_1)*%
%TO.C,BAL1*%
X99280000Y-77220000D03*
D14*
%TO.N,Net-(BAL1-Pin_2)*%
X99280000Y-79720000D03*
%TO.N,Net-(BAL1-Pin_3)*%
X99280000Y-82220000D03*
%TO.N,GND*%
X99280000Y-84720000D03*
%TD*%
D15*
%TO.N,+BATT*%
%TO.C,TP2*%
X103886000Y-73406000D03*
%TD*%
%TO.N,/BuckBoost/VS_B*%
%TO.C,TP6*%
X137160000Y-88063000D03*
%TD*%
%TO.N,GND*%
%TO.C,TP1*%
X104394000Y-86868000D03*
%TD*%
%TO.N,/BuckBoost/VS_A*%
%TO.C,TP5*%
X133096000Y-88063000D03*
%TD*%
D16*
%TO.N,GND*%
X110497345Y-91872239D03*
%TO.N,VDD*%
X133096000Y-64008000D03*
X157353001Y-63372999D03*
%TO.N,GND*%
X110354866Y-86466939D03*
X152908008Y-91935000D03*
X97409000Y-64643000D03*
X127127000Y-79756000D03*
X143002000Y-72517000D03*
X114910935Y-82811409D03*
X128270000Y-80772000D03*
X139827000Y-68199000D03*
X111506000Y-74295000D03*
X120904000Y-96393000D03*
X146050000Y-79121000D03*
X147828000Y-96266000D03*
X136906000Y-71120000D03*
X138430000Y-75438000D03*
X120777000Y-64516000D03*
X106172000Y-94996000D03*
X151892000Y-65278000D03*
X112776000Y-92075000D03*
X128778000Y-71882000D03*
X114808000Y-88773000D03*
X104013000Y-94615000D03*
X134588973Y-67300527D03*
X117348000Y-91567000D03*
X130683000Y-78105000D03*
X119968046Y-76112949D03*
X149352000Y-82550000D03*
X140716000Y-63325822D03*
X126238000Y-85598000D03*
X120269000Y-81153000D03*
X128143000Y-82550000D03*
X139246532Y-65489771D03*
X127889000Y-91567000D03*
X115189000Y-90551000D03*
X128865400Y-67343817D03*
X119368117Y-74766958D03*
X124462563Y-70427239D03*
X127343817Y-68770301D03*
X122555000Y-80137000D03*
X123395620Y-78407380D03*
X115592532Y-79575115D03*
X143256000Y-93853000D03*
X140335000Y-80391000D03*
X105664000Y-70485000D03*
X109951553Y-67607494D03*
X103378000Y-99441000D03*
X134493000Y-81026000D03*
X141287500Y-95440500D03*
X115443000Y-85725000D03*
X133731000Y-75057000D03*
X143383000Y-98298000D03*
X132969000Y-83185000D03*
X118338009Y-78109952D03*
X154686000Y-93599000D03*
X118872000Y-90043000D03*
X108966000Y-79883000D03*
X107950000Y-83185000D03*
X122936000Y-73406000D03*
X147320000Y-94234000D03*
X155956000Y-66167000D03*
X124018883Y-65927055D03*
X138430000Y-71247000D03*
X117906475Y-76504475D03*
X124310444Y-67055270D03*
X110236000Y-98806000D03*
X139192000Y-90424000D03*
X121856608Y-68152158D03*
X143637000Y-79121000D03*
X150368000Y-89154000D03*
X151400000Y-75800000D03*
X119507000Y-88265000D03*
X116336748Y-70616748D03*
X150600000Y-77800000D03*
X122936000Y-82550000D03*
X116713000Y-64262000D03*
X122428000Y-81026000D03*
X128143000Y-72898000D03*
X104737450Y-67437000D03*
X155956000Y-68199000D03*
X127127000Y-85598000D03*
X156014994Y-64404000D03*
X151638000Y-67183000D03*
X130192375Y-70268782D03*
X125984000Y-83566000D03*
X118237000Y-71247000D03*
X150495000Y-75057000D03*
X134239000Y-76073000D03*
X106045000Y-63754000D03*
X137287000Y-76327000D03*
X124206000Y-86741000D03*
X137541000Y-80137000D03*
X111252000Y-95758000D03*
X147955000Y-92329000D03*
X118745000Y-87757000D03*
X114278000Y-63866000D03*
X113411000Y-94107000D03*
X143129000Y-76200000D03*
X103675786Y-98057351D03*
X131191000Y-80518000D03*
X141478000Y-77597000D03*
X125984000Y-73152000D03*
X111252000Y-97409000D03*
X125476000Y-79248000D03*
X137414000Y-75311000D03*
X122700519Y-69064507D03*
X119126000Y-95885000D03*
X143002000Y-68453000D03*
X133858000Y-77724000D03*
X117856000Y-67183000D03*
X122428000Y-84074000D03*
X114554000Y-75819000D03*
X125984000Y-71628000D03*
%TO.N,VDD*%
X133858000Y-78867000D03*
X126325788Y-79267078D03*
X130810000Y-78994000D03*
X136271000Y-76581000D03*
%TO.N,/MCU/SWDIO*%
X123028803Y-65820000D03*
X104394000Y-65913000D03*
%TO.N,/MCU/SWCLK*%
X109093000Y-66929000D03*
X123317000Y-67183000D03*
%TO.N,/MCU/NRST*%
X125103281Y-71676500D03*
X125095000Y-73152000D03*
X125095000Y-74676000D03*
X115189000Y-68961000D03*
%TO.N,+BATT*%
X127600000Y-97400000D03*
X127600000Y-98800000D03*
X125200000Y-97400000D03*
X143764000Y-67564000D03*
X125200000Y-98800000D03*
X139558000Y-63316075D03*
X126400000Y-98200000D03*
X140399002Y-67499998D03*
%TO.N,CELL_4V*%
X144018000Y-75692000D03*
X112395000Y-93091000D03*
X114776875Y-83742264D03*
X110236000Y-97282000D03*
%TO.N,CELL_8V*%
X110490010Y-88138000D03*
X117645821Y-77313526D03*
X143891000Y-71501000D03*
X110236000Y-95758000D03*
%TO.N,VSOLAR*%
X143800000Y-91200000D03*
X142200000Y-90400000D03*
X143600000Y-89800000D03*
%TO.N,/MCU/LED_ACTIVE*%
X151003000Y-65278000D03*
X123452797Y-70318964D03*
%TO.N,/MCU/LED_ERROR*%
X150495000Y-67183000D03*
X122174000Y-70978000D03*
%TO.N,/BuckBoost/VS_A*%
X134000000Y-94000000D03*
X134000000Y-96000000D03*
X133000000Y-97000000D03*
X130000000Y-90000000D03*
X132000000Y-92000000D03*
X134000000Y-98000000D03*
X134000000Y-92000000D03*
X133000000Y-99000000D03*
X132000000Y-98000000D03*
%TO.N,/BuckBoost/VS_B*%
X139000000Y-97000000D03*
X136000000Y-96000000D03*
X140000000Y-98000000D03*
X137000000Y-97000000D03*
X139000000Y-99000000D03*
X136000000Y-92000000D03*
X136000000Y-94000000D03*
X138000000Y-98000000D03*
X139000000Y-92000000D03*
X136000000Y-98000000D03*
X137000000Y-99000000D03*
%TO.N,/BuckBoost/GATE_TOP_B*%
X140462000Y-91440000D03*
X141403000Y-93980000D03*
%TO.N,/BuckBoost/DRIVER_VCC*%
X120904000Y-97536000D03*
X153670000Y-93599000D03*
%TO.N,COMP2_INP*%
X121539000Y-81026000D03*
X120777000Y-77200000D03*
%TO.N,DD_TOP_A*%
X121539000Y-67120000D03*
X117983000Y-92202000D03*
%TO.N,DD_BOT_A*%
X121680158Y-69280675D03*
X118745000Y-91059000D03*
%TO.N,DD_BOT_B*%
X148082000Y-95123000D03*
X130082479Y-67191472D03*
%TO.N,DD_TOP_B*%
X148336000Y-93599000D03*
X127612863Y-67603353D03*
%TO.N,NBAL_3*%
X119380000Y-77978000D03*
X119165429Y-75876332D03*
%TO.N,NBAL_2*%
X118617999Y-81114710D03*
X120728838Y-75808633D03*
%TO.N,NBAL_1*%
X122936075Y-72405000D03*
X115189000Y-92456000D03*
X114554000Y-74930000D03*
X110998000Y-75057000D03*
%TO.N,Net-(D11-A)*%
X104140004Y-95758000D03*
X110109000Y-79883000D03*
%TO.N,Net-(D12-A)*%
X108966000Y-83566000D03*
X104267000Y-97282000D03*
%TO.N,Net-(D13-A)*%
X109586000Y-91440000D03*
X104267000Y-98806000D03*
%TO.N,Net-(U1-OUT)*%
X150600000Y-76708000D03*
X150749000Y-88138000D03*
X141351000Y-78486000D03*
X137541000Y-81026000D03*
%TO.N,/MCU/SWITCH*%
X150522946Y-74041000D03*
X126383318Y-69616681D03*
%TO.N,CELL8V_ADC_EN*%
X135255000Y-71374000D03*
X129782796Y-71483621D03*
%TO.N,CELL4V_ADC_EN*%
X136271000Y-75184000D03*
X129413000Y-72771000D03*
%TO.N,DRIVERS_EN*%
X128304316Y-69569132D03*
X121158000Y-84328000D03*
%TD*%
%TA.AperFunction,Conductor*%
%TO.N,GND*%
G36*
X164442539Y-62520185D02*
G01*
X164488294Y-62572989D01*
X164499500Y-62624500D01*
X164499500Y-100375500D01*
X164479815Y-100442539D01*
X164427011Y-100488294D01*
X164375500Y-100499500D01*
X96624500Y-100499500D01*
X96557461Y-100479815D01*
X96511706Y-100427011D01*
X96500500Y-100375500D01*
X96500500Y-96878711D01*
X98149500Y-96878711D01*
X98149500Y-97121288D01*
X98170657Y-97282000D01*
X98181162Y-97361789D01*
X98191400Y-97399999D01*
X98243947Y-97596104D01*
X98335996Y-97818328D01*
X98336776Y-97820212D01*
X98458064Y-98030289D01*
X98458066Y-98030292D01*
X98458067Y-98030293D01*
X98605733Y-98222736D01*
X98605739Y-98222743D01*
X98777256Y-98394260D01*
X98777263Y-98394266D01*
X98867714Y-98463671D01*
X98969711Y-98541936D01*
X99179788Y-98663224D01*
X99403900Y-98756054D01*
X99638211Y-98818838D01*
X99818586Y-98842584D01*
X99878711Y-98850500D01*
X99878712Y-98850500D01*
X100121289Y-98850500D01*
X100169388Y-98844167D01*
X100361789Y-98818838D01*
X100409701Y-98806000D01*
X103711750Y-98806000D01*
X103729880Y-98943712D01*
X103730670Y-98949708D01*
X103730671Y-98949712D01*
X103786137Y-99083622D01*
X103786138Y-99083624D01*
X103786139Y-99083625D01*
X103874379Y-99198621D01*
X103989375Y-99286861D01*
X104123291Y-99342330D01*
X104250280Y-99359048D01*
X104266999Y-99361250D01*
X104267000Y-99361250D01*
X104267001Y-99361250D01*
X104281977Y-99359278D01*
X104410709Y-99342330D01*
X104544625Y-99286861D01*
X104659621Y-99198621D01*
X104747861Y-99083625D01*
X104803330Y-98949709D01*
X104822250Y-98806000D01*
X104821460Y-98800000D01*
X124644750Y-98800000D01*
X124652160Y-98856287D01*
X124663670Y-98943708D01*
X124663671Y-98943712D01*
X124719137Y-99077622D01*
X124719138Y-99077624D01*
X124719139Y-99077625D01*
X124807379Y-99192621D01*
X124922375Y-99280861D01*
X125056291Y-99336330D01*
X125183280Y-99353048D01*
X125199999Y-99355250D01*
X125200000Y-99355250D01*
X125200001Y-99355250D01*
X125214977Y-99353278D01*
X125343709Y-99336330D01*
X125477625Y-99280861D01*
X125592621Y-99192621D01*
X125680861Y-99077625D01*
X125736330Y-98943709D01*
X125755250Y-98800000D01*
X127044750Y-98800000D01*
X127052160Y-98856287D01*
X127063670Y-98943708D01*
X127063671Y-98943712D01*
X127119137Y-99077622D01*
X127119138Y-99077624D01*
X127119139Y-99077625D01*
X127207379Y-99192621D01*
X127322375Y-99280861D01*
X127456291Y-99336330D01*
X127583280Y-99353048D01*
X127599999Y-99355250D01*
X127600000Y-99355250D01*
X127600001Y-99355250D01*
X127614977Y-99353278D01*
X127743709Y-99336330D01*
X127877625Y-99280861D01*
X127992621Y-99192621D01*
X128080861Y-99077625D01*
X128113014Y-98999999D01*
X132444750Y-98999999D01*
X132444750Y-99000000D01*
X132463670Y-99143708D01*
X132463671Y-99143712D01*
X132519137Y-99277622D01*
X132519138Y-99277624D01*
X132519139Y-99277625D01*
X132607379Y-99392621D01*
X132722375Y-99480861D01*
X132856291Y-99536330D01*
X132983280Y-99553048D01*
X132999999Y-99555250D01*
X133000000Y-99555250D01*
X133000001Y-99555250D01*
X133014977Y-99553278D01*
X133143709Y-99536330D01*
X133277625Y-99480861D01*
X133392621Y-99392621D01*
X133480861Y-99277625D01*
X133536330Y-99143709D01*
X133555250Y-99000000D01*
X133555250Y-98999999D01*
X136444750Y-98999999D01*
X136444750Y-99000000D01*
X136463670Y-99143708D01*
X136463671Y-99143712D01*
X136519137Y-99277622D01*
X136519138Y-99277624D01*
X136519139Y-99277625D01*
X136607379Y-99392621D01*
X136722375Y-99480861D01*
X136856291Y-99536330D01*
X136983280Y-99553048D01*
X136999999Y-99555250D01*
X137000000Y-99555250D01*
X137000001Y-99555250D01*
X137014977Y-99553278D01*
X137143709Y-99536330D01*
X137277625Y-99480861D01*
X137392621Y-99392621D01*
X137480861Y-99277625D01*
X137536330Y-99143709D01*
X137555250Y-99000000D01*
X137555250Y-98999999D01*
X138444750Y-98999999D01*
X138444750Y-99000000D01*
X138463670Y-99143708D01*
X138463671Y-99143712D01*
X138519137Y-99277622D01*
X138519138Y-99277624D01*
X138519139Y-99277625D01*
X138607379Y-99392621D01*
X138722375Y-99480861D01*
X138856291Y-99536330D01*
X138983280Y-99553048D01*
X138999999Y-99555250D01*
X139000000Y-99555250D01*
X139000001Y-99555250D01*
X139014977Y-99553278D01*
X139143709Y-99536330D01*
X139277625Y-99480861D01*
X139392621Y-99392621D01*
X139480861Y-99277625D01*
X139536330Y-99143709D01*
X139555250Y-99000000D01*
X139536330Y-98856291D01*
X139486641Y-98736329D01*
X139480862Y-98722377D01*
X139480861Y-98722376D01*
X139480861Y-98722375D01*
X139392621Y-98607379D01*
X139277625Y-98519139D01*
X139277624Y-98519138D01*
X139277622Y-98519137D01*
X139143712Y-98463671D01*
X139143710Y-98463670D01*
X139143709Y-98463670D01*
X139053929Y-98451850D01*
X139000001Y-98444750D01*
X138999999Y-98444750D01*
X138856291Y-98463670D01*
X138856287Y-98463671D01*
X138722377Y-98519137D01*
X138607379Y-98607379D01*
X138519137Y-98722377D01*
X138463671Y-98856287D01*
X138463670Y-98856291D01*
X138444750Y-98999999D01*
X137555250Y-98999999D01*
X137536330Y-98856291D01*
X137486641Y-98736329D01*
X137480862Y-98722377D01*
X137480861Y-98722376D01*
X137480861Y-98722375D01*
X137392621Y-98607379D01*
X137277625Y-98519139D01*
X137277624Y-98519138D01*
X137277622Y-98519137D01*
X137143712Y-98463671D01*
X137143710Y-98463670D01*
X137143709Y-98463670D01*
X137053929Y-98451850D01*
X137000001Y-98444750D01*
X136999999Y-98444750D01*
X136856291Y-98463670D01*
X136856287Y-98463671D01*
X136722377Y-98519137D01*
X136607379Y-98607379D01*
X136519137Y-98722377D01*
X136463671Y-98856287D01*
X136463670Y-98856291D01*
X136444750Y-98999999D01*
X133555250Y-98999999D01*
X133536330Y-98856291D01*
X133486641Y-98736329D01*
X133480862Y-98722377D01*
X133480861Y-98722376D01*
X133480861Y-98722375D01*
X133392621Y-98607379D01*
X133277625Y-98519139D01*
X133277624Y-98519138D01*
X133277622Y-98519137D01*
X133143712Y-98463671D01*
X133143710Y-98463670D01*
X133143709Y-98463670D01*
X133053929Y-98451850D01*
X133000001Y-98444750D01*
X132999999Y-98444750D01*
X132856291Y-98463670D01*
X132856287Y-98463671D01*
X132722377Y-98519137D01*
X132607379Y-98607379D01*
X132519137Y-98722377D01*
X132463671Y-98856287D01*
X132463670Y-98856291D01*
X132444750Y-98999999D01*
X128113014Y-98999999D01*
X128136330Y-98943709D01*
X128155250Y-98800000D01*
X128136330Y-98656291D01*
X128086641Y-98536329D01*
X128080862Y-98522377D01*
X128080861Y-98522376D01*
X128080861Y-98522375D01*
X127992621Y-98407379D01*
X127877625Y-98319139D01*
X127877624Y-98319138D01*
X127877622Y-98319137D01*
X127743712Y-98263671D01*
X127743710Y-98263670D01*
X127743709Y-98263670D01*
X127645574Y-98250750D01*
X127600001Y-98244750D01*
X127599999Y-98244750D01*
X127456291Y-98263670D01*
X127456287Y-98263671D01*
X127322377Y-98319137D01*
X127290356Y-98343708D01*
X127207379Y-98407379D01*
X127207378Y-98407380D01*
X127207377Y-98407381D01*
X127134447Y-98502424D01*
X127081608Y-98541006D01*
X127085398Y-98548147D01*
X127079585Y-98617775D01*
X127078489Y-98620512D01*
X127063671Y-98656287D01*
X127063670Y-98656291D01*
X127050642Y-98755250D01*
X127044750Y-98800000D01*
X125755250Y-98800000D01*
X125736330Y-98656291D01*
X125721511Y-98620514D01*
X125714042Y-98551045D01*
X125719205Y-98540730D01*
X125667374Y-98504742D01*
X125665591Y-98502475D01*
X125592621Y-98407379D01*
X125477625Y-98319139D01*
X125477624Y-98319138D01*
X125477622Y-98319137D01*
X125343712Y-98263671D01*
X125343710Y-98263670D01*
X125343709Y-98263670D01*
X125245574Y-98250750D01*
X125200001Y-98244750D01*
X125199999Y-98244750D01*
X125056291Y-98263670D01*
X125056287Y-98263671D01*
X124922377Y-98319137D01*
X124807379Y-98407379D01*
X124719137Y-98522377D01*
X124663671Y-98656287D01*
X124663670Y-98656291D01*
X124650642Y-98755250D01*
X124644750Y-98800000D01*
X104821460Y-98800000D01*
X104803330Y-98662291D01*
X104753478Y-98541936D01*
X104747862Y-98528377D01*
X104747861Y-98528376D01*
X104747861Y-98528375D01*
X104659621Y-98413379D01*
X104544625Y-98325139D01*
X104544624Y-98325138D01*
X104544622Y-98325137D01*
X104410712Y-98269671D01*
X104410710Y-98269670D01*
X104410709Y-98269670D01*
X104338854Y-98260210D01*
X104267001Y-98250750D01*
X104266999Y-98250750D01*
X104123291Y-98269670D01*
X104123287Y-98269671D01*
X103989377Y-98325137D01*
X103874379Y-98413379D01*
X103786137Y-98528377D01*
X103730671Y-98662287D01*
X103730670Y-98662291D01*
X103720923Y-98736329D01*
X103711750Y-98806000D01*
X100409701Y-98806000D01*
X100596100Y-98756054D01*
X100820212Y-98663224D01*
X101030289Y-98541936D01*
X101222738Y-98394265D01*
X101394265Y-98222738D01*
X101411712Y-98200000D01*
X125844750Y-98200000D01*
X125853132Y-98263670D01*
X125863670Y-98343708D01*
X125863670Y-98343709D01*
X125878489Y-98379486D01*
X125885956Y-98448956D01*
X125880793Y-98459269D01*
X125932624Y-98495256D01*
X125934447Y-98497575D01*
X125958081Y-98528375D01*
X126007379Y-98592621D01*
X126122375Y-98680861D01*
X126256291Y-98736330D01*
X126383280Y-98753048D01*
X126399999Y-98755250D01*
X126400000Y-98755250D01*
X126400001Y-98755250D01*
X126414977Y-98753278D01*
X126543709Y-98736330D01*
X126677625Y-98680861D01*
X126792621Y-98592621D01*
X126865553Y-98497574D01*
X126918390Y-98458993D01*
X126914600Y-98451850D01*
X126920415Y-98382223D01*
X126921490Y-98379535D01*
X126936330Y-98343709D01*
X126955250Y-98200000D01*
X126936330Y-98056291D01*
X126913014Y-98000000D01*
X131444750Y-98000000D01*
X131454272Y-98072329D01*
X131463670Y-98143708D01*
X131463671Y-98143712D01*
X131519137Y-98277622D01*
X131519138Y-98277624D01*
X131519139Y-98277625D01*
X131607379Y-98392621D01*
X131722375Y-98480861D01*
X131856291Y-98536330D01*
X131983280Y-98553048D01*
X131999999Y-98555250D01*
X132000000Y-98555250D01*
X132000001Y-98555250D01*
X132014977Y-98553278D01*
X132143709Y-98536330D01*
X132277625Y-98480861D01*
X132392621Y-98392621D01*
X132480861Y-98277625D01*
X132536330Y-98143709D01*
X132555250Y-98000000D01*
X133444750Y-98000000D01*
X133454272Y-98072329D01*
X133463670Y-98143708D01*
X133463671Y-98143712D01*
X133519137Y-98277622D01*
X133519138Y-98277624D01*
X133519139Y-98277625D01*
X133607379Y-98392621D01*
X133722375Y-98480861D01*
X133856291Y-98536330D01*
X133983280Y-98553048D01*
X133999999Y-98555250D01*
X134000000Y-98555250D01*
X134000001Y-98555250D01*
X134014977Y-98553278D01*
X134143709Y-98536330D01*
X134277625Y-98480861D01*
X134392621Y-98392621D01*
X134480861Y-98277625D01*
X134536330Y-98143709D01*
X134555250Y-98000000D01*
X135444750Y-98000000D01*
X135454272Y-98072329D01*
X135463670Y-98143708D01*
X135463671Y-98143712D01*
X135519137Y-98277622D01*
X135519138Y-98277624D01*
X135519139Y-98277625D01*
X135607379Y-98392621D01*
X135722375Y-98480861D01*
X135856291Y-98536330D01*
X135983280Y-98553048D01*
X135999999Y-98555250D01*
X136000000Y-98555250D01*
X136000001Y-98555250D01*
X136014977Y-98553278D01*
X136143709Y-98536330D01*
X136277625Y-98480861D01*
X136392621Y-98392621D01*
X136480861Y-98277625D01*
X136536330Y-98143709D01*
X136555250Y-98000000D01*
X137444750Y-98000000D01*
X137454272Y-98072329D01*
X137463670Y-98143708D01*
X137463671Y-98143712D01*
X137519137Y-98277622D01*
X137519138Y-98277624D01*
X137519139Y-98277625D01*
X137607379Y-98392621D01*
X137722375Y-98480861D01*
X137856291Y-98536330D01*
X137983280Y-98553048D01*
X137999999Y-98555250D01*
X138000000Y-98555250D01*
X138000001Y-98555250D01*
X138014977Y-98553278D01*
X138143709Y-98536330D01*
X138277625Y-98480861D01*
X138392621Y-98392621D01*
X138480861Y-98277625D01*
X138536330Y-98143709D01*
X138555250Y-98000000D01*
X139444750Y-98000000D01*
X139454272Y-98072329D01*
X139463670Y-98143708D01*
X139463671Y-98143712D01*
X139519137Y-98277622D01*
X139519138Y-98277624D01*
X139519139Y-98277625D01*
X139607379Y-98392621D01*
X139722375Y-98480861D01*
X139856291Y-98536330D01*
X139983280Y-98553048D01*
X139999999Y-98555250D01*
X140000000Y-98555250D01*
X140000001Y-98555250D01*
X140014977Y-98553278D01*
X140143709Y-98536330D01*
X140277625Y-98480861D01*
X140392621Y-98392621D01*
X140480861Y-98277625D01*
X140536330Y-98143709D01*
X140555250Y-98000000D01*
X140536330Y-97856291D01*
X140480861Y-97722375D01*
X140392621Y-97607379D01*
X140277625Y-97519139D01*
X140277624Y-97519138D01*
X140277622Y-97519137D01*
X140143712Y-97463671D01*
X140143710Y-97463670D01*
X140143709Y-97463670D01*
X140071854Y-97454210D01*
X140000001Y-97444750D01*
X139999999Y-97444750D01*
X139856291Y-97463670D01*
X139856287Y-97463671D01*
X139722377Y-97519137D01*
X139607379Y-97607379D01*
X139519137Y-97722377D01*
X139463671Y-97856287D01*
X139463670Y-97856291D01*
X139450642Y-97955250D01*
X139444750Y-98000000D01*
X138555250Y-98000000D01*
X138536330Y-97856291D01*
X138480861Y-97722375D01*
X138392621Y-97607379D01*
X138277625Y-97519139D01*
X138277624Y-97519138D01*
X138277622Y-97519137D01*
X138143712Y-97463671D01*
X138143710Y-97463670D01*
X138143709Y-97463670D01*
X138071854Y-97454210D01*
X138000001Y-97444750D01*
X137999999Y-97444750D01*
X137856291Y-97463670D01*
X137856287Y-97463671D01*
X137722377Y-97519137D01*
X137607379Y-97607379D01*
X137519137Y-97722377D01*
X137463671Y-97856287D01*
X137463670Y-97856291D01*
X137450642Y-97955250D01*
X137444750Y-98000000D01*
X136555250Y-98000000D01*
X136536330Y-97856291D01*
X136480861Y-97722375D01*
X136392621Y-97607379D01*
X136277625Y-97519139D01*
X136277624Y-97519138D01*
X136277622Y-97519137D01*
X136143712Y-97463671D01*
X136143710Y-97463670D01*
X136143709Y-97463670D01*
X136071854Y-97454210D01*
X136000001Y-97444750D01*
X135999999Y-97444750D01*
X135856291Y-97463670D01*
X135856287Y-97463671D01*
X135722377Y-97519137D01*
X135607379Y-97607379D01*
X135519137Y-97722377D01*
X135463671Y-97856287D01*
X135463670Y-97856291D01*
X135450642Y-97955250D01*
X135444750Y-98000000D01*
X134555250Y-98000000D01*
X134536330Y-97856291D01*
X134480861Y-97722375D01*
X134392621Y-97607379D01*
X134277625Y-97519139D01*
X134277624Y-97519138D01*
X134277622Y-97519137D01*
X134143712Y-97463671D01*
X134143710Y-97463670D01*
X134143709Y-97463670D01*
X134071854Y-97454210D01*
X134000001Y-97444750D01*
X133999999Y-97444750D01*
X133856291Y-97463670D01*
X133856287Y-97463671D01*
X133722377Y-97519137D01*
X133607379Y-97607379D01*
X133519137Y-97722377D01*
X133463671Y-97856287D01*
X133463670Y-97856291D01*
X133450642Y-97955250D01*
X133444750Y-98000000D01*
X132555250Y-98000000D01*
X132536330Y-97856291D01*
X132480861Y-97722375D01*
X132392621Y-97607379D01*
X132277625Y-97519139D01*
X132277624Y-97519138D01*
X132277622Y-97519137D01*
X132143712Y-97463671D01*
X132143710Y-97463670D01*
X132143709Y-97463670D01*
X132071854Y-97454210D01*
X132000001Y-97444750D01*
X131999999Y-97444750D01*
X131856291Y-97463670D01*
X131856287Y-97463671D01*
X131722377Y-97519137D01*
X131607379Y-97607379D01*
X131519137Y-97722377D01*
X131463671Y-97856287D01*
X131463670Y-97856291D01*
X131450642Y-97955250D01*
X131444750Y-98000000D01*
X126913014Y-98000000D01*
X126886641Y-97936329D01*
X126880862Y-97922377D01*
X126880861Y-97922376D01*
X126880861Y-97922375D01*
X126792621Y-97807379D01*
X126677625Y-97719139D01*
X126677624Y-97719138D01*
X126677622Y-97719137D01*
X126543712Y-97663671D01*
X126543710Y-97663670D01*
X126543709Y-97663670D01*
X126471854Y-97654210D01*
X126400001Y-97644750D01*
X126399999Y-97644750D01*
X126256291Y-97663670D01*
X126256287Y-97663671D01*
X126122377Y-97719137D01*
X126007379Y-97807379D01*
X125919137Y-97922377D01*
X125863671Y-98056287D01*
X125863670Y-98056291D01*
X125844750Y-98200000D01*
X101411712Y-98200000D01*
X101541936Y-98030289D01*
X101663224Y-97820212D01*
X101756054Y-97596100D01*
X101818838Y-97361789D01*
X101829342Y-97281999D01*
X103711750Y-97281999D01*
X103711750Y-97282000D01*
X103730670Y-97425708D01*
X103730671Y-97425712D01*
X103786137Y-97559622D01*
X103786138Y-97559624D01*
X103786139Y-97559625D01*
X103874379Y-97674621D01*
X103989375Y-97762861D01*
X104123291Y-97818330D01*
X104250280Y-97835048D01*
X104266999Y-97837250D01*
X104267000Y-97837250D01*
X104267001Y-97837250D01*
X104281977Y-97835278D01*
X104410709Y-97818330D01*
X104544625Y-97762861D01*
X104659621Y-97674621D01*
X104747861Y-97559625D01*
X104803330Y-97425709D01*
X104822250Y-97282000D01*
X104822250Y-97281999D01*
X109680750Y-97281999D01*
X109680750Y-97282000D01*
X109699670Y-97425708D01*
X109699671Y-97425712D01*
X109755137Y-97559622D01*
X109755138Y-97559624D01*
X109755139Y-97559625D01*
X109843379Y-97674621D01*
X109958375Y-97762861D01*
X110092291Y-97818330D01*
X110219280Y-97835048D01*
X110235999Y-97837250D01*
X110236000Y-97837250D01*
X110236001Y-97837250D01*
X110250977Y-97835278D01*
X110379709Y-97818330D01*
X110513625Y-97762861D01*
X110628621Y-97674621D01*
X110716861Y-97559625D01*
X110726647Y-97536000D01*
X120348750Y-97536000D01*
X120365558Y-97663670D01*
X120367670Y-97679708D01*
X120367671Y-97679712D01*
X120423137Y-97813622D01*
X120423138Y-97813624D01*
X120423139Y-97813625D01*
X120511379Y-97928621D01*
X120626375Y-98016861D01*
X120626376Y-98016861D01*
X120626377Y-98016862D01*
X120658803Y-98030293D01*
X120760291Y-98072330D01*
X120887280Y-98089048D01*
X120903999Y-98091250D01*
X120904000Y-98091250D01*
X120904001Y-98091250D01*
X120918977Y-98089278D01*
X121047709Y-98072330D01*
X121181625Y-98016861D01*
X121296621Y-97928621D01*
X121384861Y-97813625D01*
X121440330Y-97679709D01*
X121459250Y-97536000D01*
X121441345Y-97400000D01*
X124644750Y-97400000D01*
X124662698Y-97536329D01*
X124663670Y-97543708D01*
X124663671Y-97543712D01*
X124719137Y-97677622D01*
X124719138Y-97677624D01*
X124719139Y-97677625D01*
X124807379Y-97792621D01*
X124922375Y-97880861D01*
X125056291Y-97936330D01*
X125183280Y-97953048D01*
X125199999Y-97955250D01*
X125200000Y-97955250D01*
X125200001Y-97955250D01*
X125214977Y-97953278D01*
X125343709Y-97936330D01*
X125477625Y-97880861D01*
X125592621Y-97792621D01*
X125680861Y-97677625D01*
X125736330Y-97543709D01*
X125755250Y-97400000D01*
X127044750Y-97400000D01*
X127062698Y-97536329D01*
X127063670Y-97543708D01*
X127063671Y-97543712D01*
X127119137Y-97677622D01*
X127119138Y-97677624D01*
X127119139Y-97677625D01*
X127207379Y-97792621D01*
X127322375Y-97880861D01*
X127456291Y-97936330D01*
X127583280Y-97953048D01*
X127599999Y-97955250D01*
X127600000Y-97955250D01*
X127600001Y-97955250D01*
X127614977Y-97953278D01*
X127743709Y-97936330D01*
X127877625Y-97880861D01*
X127992621Y-97792621D01*
X128080861Y-97677625D01*
X128136330Y-97543709D01*
X128155250Y-97400000D01*
X128136330Y-97256291D01*
X128080861Y-97122375D01*
X127992621Y-97007379D01*
X127983003Y-96999999D01*
X132444750Y-96999999D01*
X132444750Y-97000000D01*
X132463670Y-97143708D01*
X132463671Y-97143712D01*
X132519137Y-97277622D01*
X132519138Y-97277624D01*
X132519139Y-97277625D01*
X132607379Y-97392621D01*
X132722375Y-97480861D01*
X132856291Y-97536330D01*
X132983280Y-97553048D01*
X132999999Y-97555250D01*
X133000000Y-97555250D01*
X133000001Y-97555250D01*
X133014977Y-97553278D01*
X133143709Y-97536330D01*
X133277625Y-97480861D01*
X133392621Y-97392621D01*
X133480861Y-97277625D01*
X133536330Y-97143709D01*
X133555250Y-97000000D01*
X133555250Y-96999999D01*
X136444750Y-96999999D01*
X136444750Y-97000000D01*
X136463670Y-97143708D01*
X136463671Y-97143712D01*
X136519137Y-97277622D01*
X136519138Y-97277624D01*
X136519139Y-97277625D01*
X136607379Y-97392621D01*
X136722375Y-97480861D01*
X136856291Y-97536330D01*
X136983280Y-97553048D01*
X136999999Y-97555250D01*
X137000000Y-97555250D01*
X137000001Y-97555250D01*
X137014977Y-97553278D01*
X137143709Y-97536330D01*
X137277625Y-97480861D01*
X137392621Y-97392621D01*
X137480861Y-97277625D01*
X137536330Y-97143709D01*
X137555250Y-97000000D01*
X137555250Y-96999999D01*
X138444750Y-96999999D01*
X138444750Y-97000000D01*
X138463670Y-97143708D01*
X138463671Y-97143712D01*
X138519137Y-97277622D01*
X138519138Y-97277624D01*
X138519139Y-97277625D01*
X138607379Y-97392621D01*
X138722375Y-97480861D01*
X138856291Y-97536330D01*
X138983280Y-97553048D01*
X138999999Y-97555250D01*
X139000000Y-97555250D01*
X139000001Y-97555250D01*
X139014977Y-97553278D01*
X139143709Y-97536330D01*
X139277625Y-97480861D01*
X139392621Y-97392621D01*
X139480861Y-97277625D01*
X139536330Y-97143709D01*
X139555250Y-97000000D01*
X139539282Y-96878711D01*
X159149500Y-96878711D01*
X159149500Y-97121288D01*
X159170657Y-97282000D01*
X159181162Y-97361789D01*
X159191400Y-97399999D01*
X159243947Y-97596104D01*
X159335996Y-97818328D01*
X159336776Y-97820212D01*
X159458064Y-98030289D01*
X159458066Y-98030292D01*
X159458067Y-98030293D01*
X159605733Y-98222736D01*
X159605739Y-98222743D01*
X159777256Y-98394260D01*
X159777263Y-98394266D01*
X159867714Y-98463671D01*
X159969711Y-98541936D01*
X160179788Y-98663224D01*
X160403900Y-98756054D01*
X160638211Y-98818838D01*
X160818586Y-98842584D01*
X160878711Y-98850500D01*
X160878712Y-98850500D01*
X161121289Y-98850500D01*
X161169388Y-98844167D01*
X161361789Y-98818838D01*
X161596100Y-98756054D01*
X161820212Y-98663224D01*
X162030289Y-98541936D01*
X162222738Y-98394265D01*
X162394265Y-98222738D01*
X162541936Y-98030289D01*
X162663224Y-97820212D01*
X162756054Y-97596100D01*
X162818838Y-97361789D01*
X162850500Y-97121288D01*
X162850500Y-96878712D01*
X162818838Y-96638211D01*
X162756054Y-96403900D01*
X162663224Y-96179788D01*
X162541936Y-95969711D01*
X162394265Y-95777262D01*
X162394260Y-95777256D01*
X162222743Y-95605739D01*
X162222736Y-95605733D01*
X162030293Y-95458067D01*
X162030292Y-95458066D01*
X162030289Y-95458064D01*
X161820212Y-95336776D01*
X161820205Y-95336773D01*
X161596104Y-95243947D01*
X161361785Y-95181161D01*
X161121289Y-95149500D01*
X161121288Y-95149500D01*
X160878712Y-95149500D01*
X160878711Y-95149500D01*
X160638214Y-95181161D01*
X160403895Y-95243947D01*
X160179794Y-95336773D01*
X160179785Y-95336777D01*
X159969706Y-95458067D01*
X159777263Y-95605733D01*
X159777256Y-95605739D01*
X159605739Y-95777256D01*
X159605733Y-95777263D01*
X159458067Y-95969706D01*
X159336777Y-96179785D01*
X159336773Y-96179794D01*
X159243947Y-96403895D01*
X159181161Y-96638214D01*
X159149500Y-96878711D01*
X139539282Y-96878711D01*
X139536330Y-96856291D01*
X139480861Y-96722375D01*
X139392621Y-96607379D01*
X139277625Y-96519139D01*
X139277624Y-96519138D01*
X139277622Y-96519137D01*
X139143712Y-96463671D01*
X139143710Y-96463670D01*
X139143709Y-96463670D01*
X139071854Y-96454210D01*
X139000001Y-96444750D01*
X138999999Y-96444750D01*
X138856291Y-96463670D01*
X138856287Y-96463671D01*
X138722377Y-96519137D01*
X138607379Y-96607379D01*
X138519137Y-96722377D01*
X138463671Y-96856287D01*
X138463670Y-96856291D01*
X138444750Y-96999999D01*
X137555250Y-96999999D01*
X137536330Y-96856291D01*
X137480861Y-96722375D01*
X137392621Y-96607379D01*
X137277625Y-96519139D01*
X137277624Y-96519138D01*
X137277622Y-96519137D01*
X137143712Y-96463671D01*
X137143710Y-96463670D01*
X137143709Y-96463670D01*
X137071854Y-96454210D01*
X137000001Y-96444750D01*
X136999999Y-96444750D01*
X136856291Y-96463670D01*
X136856287Y-96463671D01*
X136722377Y-96519137D01*
X136607379Y-96607379D01*
X136519137Y-96722377D01*
X136463671Y-96856287D01*
X136463670Y-96856291D01*
X136444750Y-96999999D01*
X133555250Y-96999999D01*
X133536330Y-96856291D01*
X133480861Y-96722375D01*
X133392621Y-96607379D01*
X133277625Y-96519139D01*
X133277624Y-96519138D01*
X133277622Y-96519137D01*
X133143712Y-96463671D01*
X133143710Y-96463670D01*
X133143709Y-96463670D01*
X133071854Y-96454210D01*
X133000001Y-96444750D01*
X132999999Y-96444750D01*
X132856291Y-96463670D01*
X132856287Y-96463671D01*
X132722377Y-96519137D01*
X132607379Y-96607379D01*
X132519137Y-96722377D01*
X132463671Y-96856287D01*
X132463670Y-96856291D01*
X132444750Y-96999999D01*
X127983003Y-96999999D01*
X127877625Y-96919139D01*
X127877624Y-96919138D01*
X127877622Y-96919137D01*
X127743712Y-96863671D01*
X127743710Y-96863670D01*
X127743709Y-96863670D01*
X127671854Y-96854210D01*
X127600001Y-96844750D01*
X127599999Y-96844750D01*
X127456291Y-96863670D01*
X127456287Y-96863671D01*
X127322377Y-96919137D01*
X127207379Y-97007379D01*
X127119137Y-97122377D01*
X127063671Y-97256287D01*
X127063670Y-97256291D01*
X127045722Y-97392620D01*
X127044750Y-97400000D01*
X125755250Y-97400000D01*
X125736330Y-97256291D01*
X125680861Y-97122375D01*
X125592621Y-97007379D01*
X125477625Y-96919139D01*
X125477624Y-96919138D01*
X125477622Y-96919137D01*
X125343712Y-96863671D01*
X125343710Y-96863670D01*
X125343709Y-96863670D01*
X125271854Y-96854210D01*
X125200001Y-96844750D01*
X125199999Y-96844750D01*
X125056291Y-96863670D01*
X125056287Y-96863671D01*
X124922377Y-96919137D01*
X124807379Y-97007379D01*
X124719137Y-97122377D01*
X124663671Y-97256287D01*
X124663670Y-97256291D01*
X124645722Y-97392620D01*
X124644750Y-97400000D01*
X121441345Y-97400000D01*
X121440330Y-97392291D01*
X121394646Y-97281999D01*
X121384862Y-97258377D01*
X121384861Y-97258376D01*
X121384861Y-97258375D01*
X121296621Y-97143379D01*
X121181625Y-97055139D01*
X121181624Y-97055138D01*
X121181622Y-97055137D01*
X121047712Y-96999671D01*
X121047710Y-96999670D01*
X121047709Y-96999670D01*
X120975854Y-96990210D01*
X120904001Y-96980750D01*
X120903999Y-96980750D01*
X120760291Y-96999670D01*
X120760287Y-96999671D01*
X120626377Y-97055137D01*
X120511379Y-97143379D01*
X120423137Y-97258377D01*
X120367671Y-97392287D01*
X120367670Y-97392291D01*
X120360764Y-97444750D01*
X120348750Y-97536000D01*
X110726647Y-97536000D01*
X110772330Y-97425709D01*
X110791250Y-97282000D01*
X110772330Y-97138291D01*
X110716861Y-97004375D01*
X110628621Y-96889379D01*
X110513625Y-96801139D01*
X110513624Y-96801138D01*
X110513622Y-96801137D01*
X110379712Y-96745671D01*
X110379710Y-96745670D01*
X110379709Y-96745670D01*
X110307854Y-96736210D01*
X110236001Y-96726750D01*
X110235999Y-96726750D01*
X110092291Y-96745670D01*
X110092287Y-96745671D01*
X109958377Y-96801137D01*
X109843379Y-96889379D01*
X109755137Y-97004377D01*
X109699671Y-97138287D01*
X109699670Y-97138291D01*
X109680750Y-97281999D01*
X104822250Y-97281999D01*
X104803330Y-97138291D01*
X104747861Y-97004375D01*
X104659621Y-96889379D01*
X104544625Y-96801139D01*
X104544624Y-96801138D01*
X104544622Y-96801137D01*
X104410712Y-96745671D01*
X104410710Y-96745670D01*
X104410709Y-96745670D01*
X104338854Y-96736210D01*
X104267001Y-96726750D01*
X104266999Y-96726750D01*
X104123291Y-96745670D01*
X104123287Y-96745671D01*
X103989377Y-96801137D01*
X103874379Y-96889379D01*
X103786137Y-97004377D01*
X103730671Y-97138287D01*
X103730670Y-97138291D01*
X103711750Y-97281999D01*
X101829342Y-97281999D01*
X101850500Y-97121288D01*
X101850500Y-96878712D01*
X101818838Y-96638211D01*
X101756054Y-96403900D01*
X101663224Y-96179788D01*
X101541936Y-95969711D01*
X101394265Y-95777262D01*
X101394260Y-95777256D01*
X101375004Y-95758000D01*
X103584754Y-95758000D01*
X103597694Y-95856291D01*
X103603674Y-95901708D01*
X103603675Y-95901712D01*
X103659141Y-96035622D01*
X103659142Y-96035624D01*
X103659143Y-96035625D01*
X103747383Y-96150621D01*
X103862379Y-96238861D01*
X103996295Y-96294330D01*
X104123284Y-96311048D01*
X104140003Y-96313250D01*
X104140004Y-96313250D01*
X104140005Y-96313250D01*
X104154981Y-96311278D01*
X104283713Y-96294330D01*
X104417629Y-96238861D01*
X104532625Y-96150621D01*
X104620865Y-96035625D01*
X104676334Y-95901709D01*
X104695254Y-95758000D01*
X109680750Y-95758000D01*
X109693690Y-95856291D01*
X109699670Y-95901708D01*
X109699671Y-95901712D01*
X109755137Y-96035622D01*
X109755138Y-96035624D01*
X109755139Y-96035625D01*
X109843379Y-96150621D01*
X109958375Y-96238861D01*
X110092291Y-96294330D01*
X110219280Y-96311048D01*
X110235999Y-96313250D01*
X110236000Y-96313250D01*
X110236001Y-96313250D01*
X110250977Y-96311278D01*
X110379709Y-96294330D01*
X110513625Y-96238861D01*
X110628621Y-96150621D01*
X110716861Y-96035625D01*
X110731618Y-95999999D01*
X133444750Y-95999999D01*
X133444750Y-96000000D01*
X133463670Y-96143708D01*
X133463671Y-96143712D01*
X133519137Y-96277622D01*
X133519138Y-96277624D01*
X133519139Y-96277625D01*
X133607379Y-96392621D01*
X133722375Y-96480861D01*
X133856291Y-96536330D01*
X133983280Y-96553048D01*
X133999999Y-96555250D01*
X134000000Y-96555250D01*
X134000001Y-96555250D01*
X134014977Y-96553278D01*
X134143709Y-96536330D01*
X134277625Y-96480861D01*
X134392621Y-96392621D01*
X134480861Y-96277625D01*
X134536330Y-96143709D01*
X134555250Y-96000000D01*
X134555250Y-95999999D01*
X135444750Y-95999999D01*
X135444750Y-96000000D01*
X135463670Y-96143708D01*
X135463671Y-96143712D01*
X135519137Y-96277622D01*
X135519138Y-96277624D01*
X135519139Y-96277625D01*
X135607379Y-96392621D01*
X135722375Y-96480861D01*
X135856291Y-96536330D01*
X135983280Y-96553048D01*
X135999999Y-96555250D01*
X136000000Y-96555250D01*
X136000001Y-96555250D01*
X136014977Y-96553278D01*
X136143709Y-96536330D01*
X136277625Y-96480861D01*
X136392621Y-96392621D01*
X136480861Y-96277625D01*
X136536330Y-96143709D01*
X136555250Y-96000000D01*
X136536330Y-95856291D01*
X136480861Y-95722375D01*
X136392621Y-95607379D01*
X136277625Y-95519139D01*
X136277624Y-95519138D01*
X136277622Y-95519137D01*
X136143712Y-95463671D01*
X136143710Y-95463670D01*
X136143709Y-95463670D01*
X136071854Y-95454210D01*
X136000001Y-95444750D01*
X135999999Y-95444750D01*
X135856291Y-95463670D01*
X135856287Y-95463671D01*
X135722377Y-95519137D01*
X135607379Y-95607379D01*
X135519137Y-95722377D01*
X135463671Y-95856287D01*
X135463670Y-95856291D01*
X135444750Y-95999999D01*
X134555250Y-95999999D01*
X134536330Y-95856291D01*
X134480861Y-95722375D01*
X134392621Y-95607379D01*
X134277625Y-95519139D01*
X134277624Y-95519138D01*
X134277622Y-95519137D01*
X134143712Y-95463671D01*
X134143710Y-95463670D01*
X134143709Y-95463670D01*
X134071854Y-95454210D01*
X134000001Y-95444750D01*
X133999999Y-95444750D01*
X133856291Y-95463670D01*
X133856287Y-95463671D01*
X133722377Y-95519137D01*
X133607379Y-95607379D01*
X133519137Y-95722377D01*
X133463671Y-95856287D01*
X133463670Y-95856291D01*
X133444750Y-95999999D01*
X110731618Y-95999999D01*
X110772330Y-95901709D01*
X110791250Y-95758000D01*
X110772330Y-95614291D01*
X110716861Y-95480375D01*
X110628621Y-95365379D01*
X110513625Y-95277139D01*
X110513624Y-95277138D01*
X110513622Y-95277137D01*
X110379712Y-95221671D01*
X110379710Y-95221670D01*
X110379709Y-95221670D01*
X110307854Y-95212210D01*
X110236001Y-95202750D01*
X110235999Y-95202750D01*
X110092291Y-95221670D01*
X110092287Y-95221671D01*
X109958377Y-95277137D01*
X109843379Y-95365379D01*
X109755137Y-95480377D01*
X109699671Y-95614287D01*
X109699670Y-95614291D01*
X109693741Y-95659329D01*
X109680750Y-95758000D01*
X104695254Y-95758000D01*
X104676334Y-95614291D01*
X104620865Y-95480375D01*
X104532625Y-95365379D01*
X104417629Y-95277139D01*
X104417628Y-95277138D01*
X104417626Y-95277137D01*
X104283716Y-95221671D01*
X104283714Y-95221670D01*
X104283713Y-95221670D01*
X104211858Y-95212210D01*
X104140005Y-95202750D01*
X104140003Y-95202750D01*
X103996295Y-95221670D01*
X103996291Y-95221671D01*
X103862381Y-95277137D01*
X103747383Y-95365379D01*
X103659141Y-95480377D01*
X103603675Y-95614287D01*
X103603674Y-95614291D01*
X103597745Y-95659329D01*
X103584754Y-95758000D01*
X101375004Y-95758000D01*
X101222743Y-95605739D01*
X101222736Y-95605733D01*
X101030293Y-95458067D01*
X101030292Y-95458066D01*
X101030289Y-95458064D01*
X100820212Y-95336776D01*
X100820205Y-95336773D01*
X100596104Y-95243947D01*
X100361785Y-95181161D01*
X100121289Y-95149500D01*
X100121288Y-95149500D01*
X99878712Y-95149500D01*
X99878711Y-95149500D01*
X99638214Y-95181161D01*
X99403895Y-95243947D01*
X99179794Y-95336773D01*
X99179785Y-95336777D01*
X98969706Y-95458067D01*
X98777263Y-95605733D01*
X98777256Y-95605739D01*
X98605739Y-95777256D01*
X98605733Y-95777263D01*
X98458067Y-95969706D01*
X98336777Y-96179785D01*
X98336773Y-96179794D01*
X98243947Y-96403895D01*
X98181161Y-96638214D01*
X98149500Y-96878711D01*
X96500500Y-96878711D01*
X96500500Y-95123000D01*
X147526750Y-95123000D01*
X147537249Y-95202750D01*
X147545670Y-95266708D01*
X147545671Y-95266712D01*
X147601137Y-95400622D01*
X147601138Y-95400624D01*
X147601139Y-95400625D01*
X147689379Y-95515621D01*
X147804375Y-95603861D01*
X147804376Y-95603861D01*
X147804377Y-95603862D01*
X147849013Y-95622350D01*
X147938291Y-95659330D01*
X148065280Y-95676048D01*
X148081999Y-95678250D01*
X148082000Y-95678250D01*
X148082001Y-95678250D01*
X148096977Y-95676278D01*
X148225709Y-95659330D01*
X148359625Y-95603861D01*
X148474621Y-95515621D01*
X148562861Y-95400625D01*
X148618330Y-95266709D01*
X148637250Y-95123000D01*
X148618330Y-94979291D01*
X148562861Y-94845375D01*
X148474621Y-94730379D01*
X148359625Y-94642139D01*
X148359624Y-94642138D01*
X148359622Y-94642137D01*
X148225712Y-94586671D01*
X148225710Y-94586670D01*
X148225709Y-94586670D01*
X148153854Y-94577210D01*
X148082001Y-94567750D01*
X148081999Y-94567750D01*
X147938291Y-94586670D01*
X147938287Y-94586671D01*
X147804377Y-94642137D01*
X147689379Y-94730379D01*
X147601137Y-94845377D01*
X147545671Y-94979287D01*
X147545670Y-94979291D01*
X147526750Y-95123000D01*
X96500500Y-95123000D01*
X96500500Y-93999999D01*
X133444750Y-93999999D01*
X133444750Y-94000000D01*
X133463670Y-94143708D01*
X133463671Y-94143712D01*
X133519137Y-94277622D01*
X133519138Y-94277624D01*
X133519139Y-94277625D01*
X133607379Y-94392621D01*
X133722375Y-94480861D01*
X133856291Y-94536330D01*
X133983280Y-94553048D01*
X133999999Y-94555250D01*
X134000000Y-94555250D01*
X134000001Y-94555250D01*
X134014977Y-94553278D01*
X134143709Y-94536330D01*
X134277625Y-94480861D01*
X134392621Y-94392621D01*
X134480861Y-94277625D01*
X134536330Y-94143709D01*
X134555250Y-94000000D01*
X134555250Y-93999999D01*
X135444750Y-93999999D01*
X135444750Y-94000000D01*
X135463670Y-94143708D01*
X135463671Y-94143712D01*
X135519137Y-94277622D01*
X135519138Y-94277624D01*
X135519139Y-94277625D01*
X135607379Y-94392621D01*
X135722375Y-94480861D01*
X135856291Y-94536330D01*
X135983280Y-94553048D01*
X135999999Y-94555250D01*
X136000000Y-94555250D01*
X136000001Y-94555250D01*
X136014977Y-94553278D01*
X136143709Y-94536330D01*
X136277625Y-94480861D01*
X136392621Y-94392621D01*
X136480861Y-94277625D01*
X136536330Y-94143709D01*
X136555250Y-94000000D01*
X136552617Y-93979999D01*
X140847750Y-93979999D01*
X140847750Y-93980000D01*
X140866670Y-94123708D01*
X140866671Y-94123712D01*
X140922137Y-94257622D01*
X140922138Y-94257624D01*
X140922139Y-94257625D01*
X141010379Y-94372621D01*
X141125375Y-94460861D01*
X141259291Y-94516330D01*
X141386280Y-94533048D01*
X141402999Y-94535250D01*
X141403000Y-94535250D01*
X141403001Y-94535250D01*
X141417977Y-94533278D01*
X141546709Y-94516330D01*
X141680625Y-94460861D01*
X141795621Y-94372621D01*
X141883861Y-94257625D01*
X141939330Y-94123709D01*
X141958250Y-93980000D01*
X141939330Y-93836291D01*
X141883861Y-93702375D01*
X141804537Y-93598999D01*
X147780750Y-93598999D01*
X147780750Y-93599000D01*
X147799670Y-93742708D01*
X147799671Y-93742712D01*
X147855137Y-93876622D01*
X147855138Y-93876624D01*
X147855139Y-93876625D01*
X147943379Y-93991621D01*
X148058375Y-94079861D01*
X148192291Y-94135330D01*
X148319280Y-94152048D01*
X148335999Y-94154250D01*
X148336000Y-94154250D01*
X148336001Y-94154250D01*
X148350977Y-94152278D01*
X148479709Y-94135330D01*
X148613625Y-94079861D01*
X148728621Y-93991621D01*
X148816861Y-93876625D01*
X148872330Y-93742709D01*
X148891250Y-93599000D01*
X148891250Y-93598999D01*
X153114750Y-93598999D01*
X153114750Y-93599000D01*
X153133670Y-93742708D01*
X153133671Y-93742712D01*
X153189137Y-93876622D01*
X153189138Y-93876624D01*
X153189139Y-93876625D01*
X153277379Y-93991621D01*
X153392375Y-94079861D01*
X153526291Y-94135330D01*
X153653280Y-94152048D01*
X153669999Y-94154250D01*
X153670000Y-94154250D01*
X153670001Y-94154250D01*
X153684977Y-94152278D01*
X153813709Y-94135330D01*
X153947625Y-94079861D01*
X154062621Y-93991621D01*
X154150861Y-93876625D01*
X154206330Y-93742709D01*
X154225250Y-93599000D01*
X154206330Y-93455291D01*
X154150861Y-93321375D01*
X154062621Y-93206379D01*
X153947625Y-93118139D01*
X153947624Y-93118138D01*
X153947622Y-93118137D01*
X153813712Y-93062671D01*
X153813710Y-93062670D01*
X153813709Y-93062670D01*
X153741854Y-93053210D01*
X153670001Y-93043750D01*
X153669999Y-93043750D01*
X153526291Y-93062670D01*
X153526287Y-93062671D01*
X153392377Y-93118137D01*
X153277379Y-93206379D01*
X153189137Y-93321377D01*
X153133671Y-93455287D01*
X153133670Y-93455291D01*
X153114750Y-93598999D01*
X148891250Y-93598999D01*
X148872330Y-93455291D01*
X148816861Y-93321375D01*
X148728621Y-93206379D01*
X148613625Y-93118139D01*
X148613624Y-93118138D01*
X148613622Y-93118137D01*
X148479712Y-93062671D01*
X148479710Y-93062670D01*
X148479709Y-93062670D01*
X148407854Y-93053210D01*
X148336001Y-93043750D01*
X148335999Y-93043750D01*
X148192291Y-93062670D01*
X148192287Y-93062671D01*
X148058377Y-93118137D01*
X147943379Y-93206379D01*
X147855137Y-93321377D01*
X147799671Y-93455287D01*
X147799670Y-93455291D01*
X147780750Y-93598999D01*
X141804537Y-93598999D01*
X141795621Y-93587379D01*
X141680625Y-93499139D01*
X141680624Y-93499138D01*
X141680622Y-93499137D01*
X141546712Y-93443671D01*
X141546710Y-93443670D01*
X141546709Y-93443670D01*
X141474854Y-93434210D01*
X141403001Y-93424750D01*
X141402999Y-93424750D01*
X141259291Y-93443670D01*
X141259287Y-93443671D01*
X141125377Y-93499137D01*
X141010379Y-93587379D01*
X140922137Y-93702377D01*
X140866671Y-93836287D01*
X140866670Y-93836291D01*
X140847750Y-93979999D01*
X136552617Y-93979999D01*
X136536330Y-93856291D01*
X136489285Y-93742712D01*
X136480862Y-93722377D01*
X136480861Y-93722376D01*
X136480861Y-93722375D01*
X136392621Y-93607379D01*
X136277625Y-93519139D01*
X136277624Y-93519138D01*
X136277622Y-93519137D01*
X136143712Y-93463671D01*
X136143710Y-93463670D01*
X136143709Y-93463670D01*
X136071854Y-93454210D01*
X136000001Y-93444750D01*
X135999999Y-93444750D01*
X135856291Y-93463670D01*
X135856287Y-93463671D01*
X135722377Y-93519137D01*
X135607379Y-93607379D01*
X135519137Y-93722377D01*
X135463671Y-93856287D01*
X135463670Y-93856291D01*
X135444750Y-93999999D01*
X134555250Y-93999999D01*
X134536330Y-93856291D01*
X134489285Y-93742712D01*
X134480862Y-93722377D01*
X134480861Y-93722376D01*
X134480861Y-93722375D01*
X134392621Y-93607379D01*
X134277625Y-93519139D01*
X134277624Y-93519138D01*
X134277622Y-93519137D01*
X134143712Y-93463671D01*
X134143710Y-93463670D01*
X134143709Y-93463670D01*
X134071854Y-93454210D01*
X134000001Y-93444750D01*
X133999999Y-93444750D01*
X133856291Y-93463670D01*
X133856287Y-93463671D01*
X133722377Y-93519137D01*
X133607379Y-93607379D01*
X133519137Y-93722377D01*
X133463671Y-93856287D01*
X133463670Y-93856291D01*
X133444750Y-93999999D01*
X96500500Y-93999999D01*
X96500500Y-93090999D01*
X111839750Y-93090999D01*
X111839750Y-93091000D01*
X111858670Y-93234708D01*
X111858671Y-93234712D01*
X111914137Y-93368622D01*
X111914138Y-93368624D01*
X111914139Y-93368625D01*
X112002379Y-93483621D01*
X112117375Y-93571861D01*
X112251291Y-93627330D01*
X112378280Y-93644048D01*
X112394999Y-93646250D01*
X112395000Y-93646250D01*
X112395001Y-93646250D01*
X112409977Y-93644278D01*
X112538709Y-93627330D01*
X112672625Y-93571861D01*
X112787621Y-93483621D01*
X112875861Y-93368625D01*
X112931330Y-93234709D01*
X112950250Y-93091000D01*
X112931330Y-92947291D01*
X112875861Y-92813375D01*
X112787621Y-92698379D01*
X112672625Y-92610139D01*
X112672624Y-92610138D01*
X112672622Y-92610137D01*
X112538712Y-92554671D01*
X112538710Y-92554670D01*
X112538709Y-92554670D01*
X112466854Y-92545210D01*
X112395001Y-92535750D01*
X112394999Y-92535750D01*
X112251291Y-92554670D01*
X112251287Y-92554671D01*
X112117377Y-92610137D01*
X112002379Y-92698379D01*
X111914137Y-92813377D01*
X111858671Y-92947287D01*
X111858670Y-92947291D01*
X111839750Y-93090999D01*
X96500500Y-93090999D01*
X96500500Y-92456000D01*
X114633750Y-92456000D01*
X114644249Y-92535750D01*
X114652670Y-92599708D01*
X114652671Y-92599712D01*
X114708137Y-92733622D01*
X114708138Y-92733624D01*
X114708139Y-92733625D01*
X114796379Y-92848621D01*
X114911375Y-92936861D01*
X114911376Y-92936861D01*
X114911377Y-92936862D01*
X114956013Y-92955350D01*
X115045291Y-92992330D01*
X115172280Y-93009048D01*
X115188999Y-93011250D01*
X115189000Y-93011250D01*
X115189001Y-93011250D01*
X115203977Y-93009278D01*
X115332709Y-92992330D01*
X115466625Y-92936861D01*
X115581621Y-92848621D01*
X115669861Y-92733625D01*
X115725330Y-92599709D01*
X115744250Y-92456000D01*
X115725330Y-92312291D01*
X115679646Y-92201999D01*
X117427750Y-92201999D01*
X117427750Y-92202000D01*
X117446670Y-92345708D01*
X117446671Y-92345712D01*
X117502137Y-92479622D01*
X117502138Y-92479624D01*
X117502139Y-92479625D01*
X117590379Y-92594621D01*
X117705375Y-92682861D01*
X117839291Y-92738330D01*
X117966280Y-92755048D01*
X117982999Y-92757250D01*
X117983000Y-92757250D01*
X117983001Y-92757250D01*
X117997977Y-92755278D01*
X118126709Y-92738330D01*
X118260625Y-92682861D01*
X118375621Y-92594621D01*
X118463861Y-92479625D01*
X118519330Y-92345709D01*
X118538250Y-92202000D01*
X118519330Y-92058291D01*
X118495185Y-91999999D01*
X131444750Y-91999999D01*
X131444750Y-92000000D01*
X131463670Y-92143708D01*
X131463671Y-92143712D01*
X131519137Y-92277622D01*
X131519138Y-92277624D01*
X131519139Y-92277625D01*
X131607379Y-92392621D01*
X131722375Y-92480861D01*
X131856291Y-92536330D01*
X131983280Y-92553048D01*
X131999999Y-92555250D01*
X132000000Y-92555250D01*
X132000001Y-92555250D01*
X132014977Y-92553278D01*
X132143709Y-92536330D01*
X132277625Y-92480861D01*
X132392621Y-92392621D01*
X132480861Y-92277625D01*
X132536330Y-92143709D01*
X132555250Y-92000000D01*
X132555250Y-91999999D01*
X133444750Y-91999999D01*
X133444750Y-92000000D01*
X133463670Y-92143708D01*
X133463671Y-92143712D01*
X133519137Y-92277622D01*
X133519138Y-92277624D01*
X133519139Y-92277625D01*
X133607379Y-92392621D01*
X133722375Y-92480861D01*
X133856291Y-92536330D01*
X133983280Y-92553048D01*
X133999999Y-92555250D01*
X134000000Y-92555250D01*
X134000001Y-92555250D01*
X134014977Y-92553278D01*
X134143709Y-92536330D01*
X134277625Y-92480861D01*
X134392621Y-92392621D01*
X134480861Y-92277625D01*
X134536330Y-92143709D01*
X134555250Y-92000000D01*
X134555250Y-91999999D01*
X135444750Y-91999999D01*
X135444750Y-92000000D01*
X135463670Y-92143708D01*
X135463671Y-92143712D01*
X135519137Y-92277622D01*
X135519138Y-92277624D01*
X135519139Y-92277625D01*
X135607379Y-92392621D01*
X135722375Y-92480861D01*
X135856291Y-92536330D01*
X135983280Y-92553048D01*
X135999999Y-92555250D01*
X136000000Y-92555250D01*
X136000001Y-92555250D01*
X136014977Y-92553278D01*
X136143709Y-92536330D01*
X136277625Y-92480861D01*
X136392621Y-92392621D01*
X136480861Y-92277625D01*
X136536330Y-92143709D01*
X136555250Y-92000000D01*
X136555250Y-91999999D01*
X138444750Y-91999999D01*
X138444750Y-92000000D01*
X138463670Y-92143708D01*
X138463671Y-92143712D01*
X138519137Y-92277622D01*
X138519138Y-92277624D01*
X138519139Y-92277625D01*
X138607379Y-92392621D01*
X138722375Y-92480861D01*
X138856291Y-92536330D01*
X138983280Y-92553048D01*
X138999999Y-92555250D01*
X139000000Y-92555250D01*
X139000001Y-92555250D01*
X139014977Y-92553278D01*
X139143709Y-92536330D01*
X139277625Y-92480861D01*
X139392621Y-92392621D01*
X139480861Y-92277625D01*
X139536330Y-92143709D01*
X139555250Y-92000000D01*
X139536330Y-91856291D01*
X139486641Y-91736329D01*
X139480862Y-91722377D01*
X139480861Y-91722376D01*
X139480861Y-91722375D01*
X139392621Y-91607379D01*
X139277625Y-91519139D01*
X139277624Y-91519138D01*
X139277622Y-91519137D01*
X139143712Y-91463671D01*
X139143710Y-91463670D01*
X139143709Y-91463670D01*
X139071854Y-91454210D01*
X139000001Y-91444750D01*
X138999999Y-91444750D01*
X138856291Y-91463670D01*
X138856287Y-91463671D01*
X138722377Y-91519137D01*
X138607379Y-91607379D01*
X138519137Y-91722377D01*
X138463671Y-91856287D01*
X138463670Y-91856291D01*
X138444750Y-91999999D01*
X136555250Y-91999999D01*
X136536330Y-91856291D01*
X136486641Y-91736329D01*
X136480862Y-91722377D01*
X136480861Y-91722376D01*
X136480861Y-91722375D01*
X136392621Y-91607379D01*
X136277625Y-91519139D01*
X136277624Y-91519138D01*
X136277622Y-91519137D01*
X136143712Y-91463671D01*
X136143710Y-91463670D01*
X136143709Y-91463670D01*
X136071854Y-91454210D01*
X136000001Y-91444750D01*
X135999999Y-91444750D01*
X135856291Y-91463670D01*
X135856287Y-91463671D01*
X135722377Y-91519137D01*
X135607379Y-91607379D01*
X135519137Y-91722377D01*
X135463671Y-91856287D01*
X135463670Y-91856291D01*
X135444750Y-91999999D01*
X134555250Y-91999999D01*
X134536330Y-91856291D01*
X134486641Y-91736329D01*
X134480862Y-91722377D01*
X134480861Y-91722376D01*
X134480861Y-91722375D01*
X134392621Y-91607379D01*
X134277625Y-91519139D01*
X134277624Y-91519138D01*
X134277622Y-91519137D01*
X134143712Y-91463671D01*
X134143710Y-91463670D01*
X134143709Y-91463670D01*
X134071854Y-91454210D01*
X134000001Y-91444750D01*
X133999999Y-91444750D01*
X133856291Y-91463670D01*
X133856287Y-91463671D01*
X133722377Y-91519137D01*
X133607379Y-91607379D01*
X133519137Y-91722377D01*
X133463671Y-91856287D01*
X133463670Y-91856291D01*
X133444750Y-91999999D01*
X132555250Y-91999999D01*
X132536330Y-91856291D01*
X132486641Y-91736329D01*
X132480862Y-91722377D01*
X132480861Y-91722376D01*
X132480861Y-91722375D01*
X132392621Y-91607379D01*
X132277625Y-91519139D01*
X132277624Y-91519138D01*
X132277622Y-91519137D01*
X132143712Y-91463671D01*
X132143710Y-91463670D01*
X132143709Y-91463670D01*
X132071854Y-91454210D01*
X132000001Y-91444750D01*
X131999999Y-91444750D01*
X131856291Y-91463670D01*
X131856287Y-91463671D01*
X131722377Y-91519137D01*
X131607379Y-91607379D01*
X131519137Y-91722377D01*
X131463671Y-91856287D01*
X131463670Y-91856291D01*
X131444750Y-91999999D01*
X118495185Y-91999999D01*
X118463861Y-91924375D01*
X118375621Y-91809379D01*
X118260625Y-91721139D01*
X118260624Y-91721138D01*
X118260622Y-91721137D01*
X118126712Y-91665671D01*
X118126710Y-91665670D01*
X118126709Y-91665670D01*
X118054854Y-91656210D01*
X117983001Y-91646750D01*
X117982999Y-91646750D01*
X117839291Y-91665670D01*
X117839287Y-91665671D01*
X117705377Y-91721137D01*
X117590379Y-91809379D01*
X117502137Y-91924377D01*
X117446671Y-92058287D01*
X117446670Y-92058291D01*
X117427750Y-92201999D01*
X115679646Y-92201999D01*
X115669861Y-92178375D01*
X115581621Y-92063379D01*
X115466625Y-91975139D01*
X115466624Y-91975138D01*
X115466622Y-91975137D01*
X115332712Y-91919671D01*
X115332710Y-91919670D01*
X115332709Y-91919670D01*
X115260854Y-91910210D01*
X115189001Y-91900750D01*
X115188999Y-91900750D01*
X115045291Y-91919670D01*
X115045287Y-91919671D01*
X114911377Y-91975137D01*
X114796379Y-92063379D01*
X114708137Y-92178377D01*
X114652671Y-92312287D01*
X114652670Y-92312291D01*
X114633750Y-92456000D01*
X96500500Y-92456000D01*
X96500500Y-91439999D01*
X109030750Y-91439999D01*
X109030750Y-91440000D01*
X109049670Y-91583708D01*
X109049671Y-91583712D01*
X109105137Y-91717622D01*
X109105138Y-91717624D01*
X109105139Y-91717625D01*
X109193379Y-91832621D01*
X109308375Y-91920861D01*
X109308376Y-91920861D01*
X109308377Y-91920862D01*
X109353013Y-91939350D01*
X109442291Y-91976330D01*
X109569280Y-91993048D01*
X109585999Y-91995250D01*
X109586000Y-91995250D01*
X109586001Y-91995250D01*
X109600977Y-91993278D01*
X109729709Y-91976330D01*
X109863625Y-91920861D01*
X109978621Y-91832621D01*
X110066861Y-91717625D01*
X110122330Y-91583709D01*
X110141250Y-91440000D01*
X110122330Y-91296291D01*
X110066861Y-91162375D01*
X109987537Y-91058999D01*
X118189750Y-91058999D01*
X118189750Y-91059000D01*
X118208670Y-91202708D01*
X118208671Y-91202712D01*
X118264137Y-91336622D01*
X118264138Y-91336624D01*
X118264139Y-91336625D01*
X118352379Y-91451621D01*
X118467375Y-91539861D01*
X118601291Y-91595330D01*
X118728280Y-91612048D01*
X118744999Y-91614250D01*
X118745000Y-91614250D01*
X118745001Y-91614250D01*
X118759977Y-91612278D01*
X118888709Y-91595330D01*
X119022625Y-91539861D01*
X119137621Y-91451621D01*
X119146539Y-91439999D01*
X139906750Y-91439999D01*
X139906750Y-91440000D01*
X139925670Y-91583708D01*
X139925671Y-91583712D01*
X139981137Y-91717622D01*
X139981138Y-91717624D01*
X139981139Y-91717625D01*
X140069379Y-91832621D01*
X140184375Y-91920861D01*
X140184376Y-91920861D01*
X140184377Y-91920862D01*
X140229013Y-91939350D01*
X140318291Y-91976330D01*
X140445280Y-91993048D01*
X140461999Y-91995250D01*
X140462000Y-91995250D01*
X140462001Y-91995250D01*
X140476977Y-91993278D01*
X140605709Y-91976330D01*
X140739625Y-91920861D01*
X140854621Y-91832621D01*
X140942861Y-91717625D01*
X140998330Y-91583709D01*
X141017250Y-91440000D01*
X140998330Y-91296291D01*
X140958445Y-91199999D01*
X143244750Y-91199999D01*
X143244750Y-91200000D01*
X143263670Y-91343708D01*
X143263671Y-91343712D01*
X143319137Y-91477622D01*
X143319138Y-91477624D01*
X143319139Y-91477625D01*
X143407379Y-91592621D01*
X143522375Y-91680861D01*
X143656291Y-91736330D01*
X143783280Y-91753048D01*
X143799999Y-91755250D01*
X143800000Y-91755250D01*
X143800001Y-91755250D01*
X143814977Y-91753278D01*
X143943709Y-91736330D01*
X144077625Y-91680861D01*
X144192621Y-91592621D01*
X144280861Y-91477625D01*
X144336330Y-91343709D01*
X144355250Y-91200000D01*
X144336330Y-91056291D01*
X144286641Y-90936329D01*
X144280862Y-90922377D01*
X144280861Y-90922376D01*
X144280861Y-90922375D01*
X144192621Y-90807379D01*
X144077625Y-90719139D01*
X144077624Y-90719138D01*
X144077622Y-90719137D01*
X143943712Y-90663671D01*
X143943710Y-90663670D01*
X143943709Y-90663670D01*
X143871854Y-90654210D01*
X143800001Y-90644750D01*
X143799999Y-90644750D01*
X143656291Y-90663670D01*
X143656287Y-90663671D01*
X143522377Y-90719137D01*
X143407379Y-90807379D01*
X143319137Y-90922377D01*
X143263671Y-91056287D01*
X143263670Y-91056291D01*
X143244750Y-91199999D01*
X140958445Y-91199999D01*
X140942861Y-91162375D01*
X140854621Y-91047379D01*
X140739625Y-90959139D01*
X140739624Y-90959138D01*
X140739622Y-90959137D01*
X140605712Y-90903671D01*
X140605710Y-90903670D01*
X140605709Y-90903670D01*
X140533854Y-90894210D01*
X140462001Y-90884750D01*
X140461999Y-90884750D01*
X140318291Y-90903670D01*
X140318287Y-90903671D01*
X140184377Y-90959137D01*
X140069379Y-91047379D01*
X139981137Y-91162377D01*
X139925671Y-91296287D01*
X139925670Y-91296291D01*
X139906750Y-91439999D01*
X119146539Y-91439999D01*
X119225861Y-91336625D01*
X119281330Y-91202709D01*
X119300250Y-91059000D01*
X119281330Y-90915291D01*
X119225861Y-90781375D01*
X119137621Y-90666379D01*
X119022625Y-90578139D01*
X119022624Y-90578138D01*
X119022622Y-90578137D01*
X118888712Y-90522671D01*
X118888710Y-90522670D01*
X118888709Y-90522670D01*
X118816854Y-90513210D01*
X118745001Y-90503750D01*
X118744999Y-90503750D01*
X118601291Y-90522670D01*
X118601287Y-90522671D01*
X118467377Y-90578137D01*
X118352379Y-90666379D01*
X118264137Y-90781377D01*
X118208671Y-90915287D01*
X118208670Y-90915291D01*
X118189750Y-91058999D01*
X109987537Y-91058999D01*
X109978621Y-91047379D01*
X109863625Y-90959139D01*
X109863624Y-90959138D01*
X109863622Y-90959137D01*
X109729712Y-90903671D01*
X109729710Y-90903670D01*
X109729709Y-90903670D01*
X109657854Y-90894210D01*
X109586001Y-90884750D01*
X109585999Y-90884750D01*
X109442291Y-90903670D01*
X109442287Y-90903671D01*
X109308377Y-90959137D01*
X109193379Y-91047379D01*
X109105137Y-91162377D01*
X109049671Y-91296287D01*
X109049670Y-91296291D01*
X109030750Y-91439999D01*
X96500500Y-91439999D01*
X96500500Y-89999999D01*
X129444750Y-89999999D01*
X129444750Y-90000000D01*
X129463670Y-90143708D01*
X129463671Y-90143712D01*
X129519137Y-90277622D01*
X129519138Y-90277624D01*
X129519139Y-90277625D01*
X129607379Y-90392621D01*
X129722375Y-90480861D01*
X129856291Y-90536330D01*
X129983280Y-90553048D01*
X129999999Y-90555250D01*
X130000000Y-90555250D01*
X130000001Y-90555250D01*
X130014977Y-90553278D01*
X130143709Y-90536330D01*
X130277625Y-90480861D01*
X130383005Y-90400000D01*
X141644750Y-90400000D01*
X141662698Y-90536329D01*
X141663670Y-90543708D01*
X141663671Y-90543712D01*
X141719137Y-90677622D01*
X141719138Y-90677624D01*
X141719139Y-90677625D01*
X141807379Y-90792621D01*
X141922375Y-90880861D01*
X142056291Y-90936330D01*
X142183280Y-90953048D01*
X142199999Y-90955250D01*
X142200000Y-90955250D01*
X142200001Y-90955250D01*
X142214977Y-90953278D01*
X142343709Y-90936330D01*
X142477625Y-90880861D01*
X142592621Y-90792621D01*
X142680861Y-90677625D01*
X142736330Y-90543709D01*
X142755250Y-90400000D01*
X142736330Y-90256291D01*
X142680861Y-90122375D01*
X142592621Y-90007379D01*
X142477625Y-89919139D01*
X142477624Y-89919138D01*
X142477622Y-89919137D01*
X142343712Y-89863671D01*
X142343710Y-89863670D01*
X142343709Y-89863670D01*
X142271854Y-89854210D01*
X142200001Y-89844750D01*
X142199999Y-89844750D01*
X142056291Y-89863670D01*
X142056287Y-89863671D01*
X141922377Y-89919137D01*
X141807379Y-90007379D01*
X141719137Y-90122377D01*
X141663671Y-90256287D01*
X141663670Y-90256291D01*
X141645722Y-90392620D01*
X141644750Y-90400000D01*
X130383005Y-90400000D01*
X130392621Y-90392621D01*
X130480861Y-90277625D01*
X130536330Y-90143709D01*
X130555250Y-90000000D01*
X130536330Y-89856291D01*
X130480861Y-89722375D01*
X130392621Y-89607379D01*
X130277625Y-89519139D01*
X130277624Y-89519138D01*
X130277622Y-89519137D01*
X130143712Y-89463671D01*
X130143710Y-89463670D01*
X130143709Y-89463670D01*
X130071854Y-89454210D01*
X130000001Y-89444750D01*
X129999999Y-89444750D01*
X129856291Y-89463670D01*
X129856287Y-89463671D01*
X129722377Y-89519137D01*
X129607379Y-89607379D01*
X129519137Y-89722377D01*
X129463671Y-89856287D01*
X129463670Y-89856291D01*
X129444750Y-89999999D01*
X96500500Y-89999999D01*
X96500500Y-86867998D01*
X102388891Y-86867998D01*
X102388891Y-86868001D01*
X102409300Y-87153362D01*
X102470109Y-87432895D01*
X102570091Y-87700958D01*
X102707191Y-87952038D01*
X102707196Y-87952046D01*
X102813882Y-88094561D01*
X102813883Y-88094562D01*
X103678152Y-87230292D01*
X103685049Y-87246942D01*
X103772599Y-87377970D01*
X103884030Y-87489401D01*
X104015058Y-87576951D01*
X104031705Y-87583846D01*
X103167436Y-88448115D01*
X103309960Y-88554807D01*
X103309961Y-88554808D01*
X103561042Y-88691908D01*
X103561041Y-88691908D01*
X103829104Y-88791890D01*
X104108637Y-88852699D01*
X104393999Y-88873109D01*
X104394001Y-88873109D01*
X104679362Y-88852699D01*
X104958895Y-88791890D01*
X105226958Y-88691908D01*
X105478047Y-88554803D01*
X105620561Y-88448116D01*
X105620562Y-88448115D01*
X105310446Y-88137999D01*
X109934760Y-88137999D01*
X109934760Y-88138000D01*
X109953680Y-88281708D01*
X109953681Y-88281712D01*
X110009147Y-88415622D01*
X110009148Y-88415624D01*
X110009149Y-88415625D01*
X110097389Y-88530621D01*
X110212385Y-88618861D01*
X110346301Y-88674330D01*
X110473290Y-88691048D01*
X110490009Y-88693250D01*
X110490010Y-88693250D01*
X110490011Y-88693250D01*
X110504987Y-88691278D01*
X110633719Y-88674330D01*
X110767635Y-88618861D01*
X110882631Y-88530621D01*
X110970871Y-88415625D01*
X111026340Y-88281709D01*
X111045260Y-88138000D01*
X111035385Y-88062995D01*
X131340592Y-88062995D01*
X131340592Y-88063004D01*
X131360196Y-88324620D01*
X131360197Y-88324625D01*
X131418576Y-88580402D01*
X131418578Y-88580411D01*
X131418580Y-88580416D01*
X131514432Y-88824643D01*
X131645614Y-89051857D01*
X131777736Y-89217533D01*
X131809198Y-89256985D01*
X131971286Y-89407379D01*
X132001521Y-89435433D01*
X132218296Y-89583228D01*
X132218301Y-89583230D01*
X132218302Y-89583231D01*
X132218303Y-89583232D01*
X132343843Y-89643688D01*
X132454673Y-89697061D01*
X132454674Y-89697061D01*
X132454677Y-89697063D01*
X132705385Y-89774396D01*
X132964818Y-89813500D01*
X133227182Y-89813500D01*
X133486615Y-89774396D01*
X133737323Y-89697063D01*
X133973704Y-89583228D01*
X134190479Y-89435433D01*
X134382805Y-89256981D01*
X134546386Y-89051857D01*
X134677568Y-88824643D01*
X134773420Y-88580416D01*
X134831802Y-88324630D01*
X134835018Y-88281712D01*
X134851408Y-88063004D01*
X134851408Y-88062995D01*
X135404592Y-88062995D01*
X135404592Y-88063004D01*
X135424196Y-88324620D01*
X135424197Y-88324625D01*
X135482576Y-88580402D01*
X135482578Y-88580411D01*
X135482580Y-88580416D01*
X135578432Y-88824643D01*
X135709614Y-89051857D01*
X135841736Y-89217533D01*
X135873198Y-89256985D01*
X136035286Y-89407379D01*
X136065521Y-89435433D01*
X136282296Y-89583228D01*
X136282301Y-89583230D01*
X136282302Y-89583231D01*
X136282303Y-89583232D01*
X136407843Y-89643688D01*
X136518673Y-89697061D01*
X136518674Y-89697061D01*
X136518677Y-89697063D01*
X136769385Y-89774396D01*
X137028818Y-89813500D01*
X137291182Y-89813500D01*
X137380747Y-89800000D01*
X143044750Y-89800000D01*
X143053132Y-89863670D01*
X143063670Y-89943708D01*
X143063671Y-89943712D01*
X143119137Y-90077622D01*
X143119138Y-90077624D01*
X143119139Y-90077625D01*
X143207379Y-90192621D01*
X143322375Y-90280861D01*
X143456291Y-90336330D01*
X143583280Y-90353048D01*
X143599999Y-90355250D01*
X143600000Y-90355250D01*
X143600001Y-90355250D01*
X143614977Y-90353278D01*
X143743709Y-90336330D01*
X143877625Y-90280861D01*
X143992621Y-90192621D01*
X144080861Y-90077625D01*
X144136330Y-89943709D01*
X144155250Y-89800000D01*
X144136330Y-89656291D01*
X144080861Y-89522375D01*
X143992621Y-89407379D01*
X143877625Y-89319139D01*
X143877624Y-89319138D01*
X143877622Y-89319137D01*
X143743712Y-89263671D01*
X143743710Y-89263670D01*
X143743709Y-89263670D01*
X143671854Y-89254210D01*
X143600001Y-89244750D01*
X143599999Y-89244750D01*
X143456291Y-89263670D01*
X143456287Y-89263671D01*
X143322377Y-89319137D01*
X143207379Y-89407379D01*
X143119137Y-89522377D01*
X143063671Y-89656287D01*
X143063670Y-89656291D01*
X143044750Y-89800000D01*
X137380747Y-89800000D01*
X137550615Y-89774396D01*
X137801323Y-89697063D01*
X138037704Y-89583228D01*
X138254479Y-89435433D01*
X138446805Y-89256981D01*
X138610386Y-89051857D01*
X138741568Y-88824643D01*
X138837420Y-88580416D01*
X138895802Y-88324630D01*
X138899018Y-88281712D01*
X138909788Y-88137999D01*
X150193750Y-88137999D01*
X150193750Y-88138000D01*
X150212670Y-88281708D01*
X150212671Y-88281712D01*
X150268137Y-88415622D01*
X150268138Y-88415624D01*
X150268139Y-88415625D01*
X150356379Y-88530621D01*
X150471375Y-88618861D01*
X150605291Y-88674330D01*
X150732280Y-88691048D01*
X150748999Y-88693250D01*
X150749000Y-88693250D01*
X150749001Y-88693250D01*
X150763977Y-88691278D01*
X150892709Y-88674330D01*
X151026625Y-88618861D01*
X151141621Y-88530621D01*
X151229861Y-88415625D01*
X151285330Y-88281709D01*
X151304250Y-88138000D01*
X151285330Y-87994291D01*
X151229861Y-87860375D01*
X151141621Y-87745379D01*
X151026625Y-87657139D01*
X151026624Y-87657138D01*
X151026622Y-87657137D01*
X150892712Y-87601671D01*
X150892710Y-87601670D01*
X150892709Y-87601670D01*
X150880024Y-87600000D01*
X162244901Y-87600000D01*
X162263252Y-87786331D01*
X162263253Y-87786333D01*
X162317604Y-87965502D01*
X162405862Y-88130623D01*
X162405864Y-88130626D01*
X162524642Y-88275357D01*
X162669373Y-88394135D01*
X162669376Y-88394137D01*
X162709578Y-88415625D01*
X162834499Y-88482396D01*
X163013666Y-88536746D01*
X163013668Y-88536747D01*
X163030374Y-88538392D01*
X163200000Y-88555099D01*
X163386331Y-88536747D01*
X163565501Y-88482396D01*
X163730625Y-88394136D01*
X163875357Y-88275357D01*
X163994136Y-88130625D01*
X164082396Y-87965501D01*
X164136747Y-87786331D01*
X164155099Y-87600000D01*
X164136747Y-87413669D01*
X164082396Y-87234499D01*
X164039028Y-87153362D01*
X163994137Y-87069376D01*
X163994135Y-87069373D01*
X163875357Y-86924642D01*
X163730626Y-86805864D01*
X163730623Y-86805862D01*
X163565502Y-86717604D01*
X163386333Y-86663253D01*
X163386331Y-86663252D01*
X163200000Y-86644901D01*
X163013668Y-86663252D01*
X163013666Y-86663253D01*
X162834497Y-86717604D01*
X162669376Y-86805862D01*
X162669373Y-86805864D01*
X162524642Y-86924642D01*
X162405864Y-87069373D01*
X162405862Y-87069376D01*
X162317604Y-87234497D01*
X162263253Y-87413666D01*
X162263252Y-87413668D01*
X162244901Y-87600000D01*
X150880024Y-87600000D01*
X150820854Y-87592210D01*
X150749001Y-87582750D01*
X150748999Y-87582750D01*
X150605291Y-87601670D01*
X150605287Y-87601671D01*
X150471377Y-87657137D01*
X150356379Y-87745379D01*
X150268137Y-87860377D01*
X150212671Y-87994287D01*
X150212670Y-87994291D01*
X150193750Y-88137999D01*
X138909788Y-88137999D01*
X138915408Y-88063004D01*
X138915408Y-88062995D01*
X138895803Y-87801379D01*
X138895802Y-87801374D01*
X138895802Y-87801370D01*
X138837420Y-87545584D01*
X138741568Y-87301357D01*
X138610386Y-87074143D01*
X138446805Y-86869019D01*
X138446804Y-86869018D01*
X138446801Y-86869014D01*
X138254479Y-86690567D01*
X138187499Y-86644901D01*
X138037704Y-86542772D01*
X138037700Y-86542770D01*
X138037697Y-86542768D01*
X138037696Y-86542767D01*
X137801325Y-86428938D01*
X137801327Y-86428938D01*
X137550623Y-86351606D01*
X137550619Y-86351605D01*
X137550615Y-86351604D01*
X137425823Y-86332794D01*
X137291187Y-86312500D01*
X137291182Y-86312500D01*
X137028818Y-86312500D01*
X137028812Y-86312500D01*
X136867247Y-86336853D01*
X136769385Y-86351604D01*
X136769382Y-86351605D01*
X136769376Y-86351606D01*
X136518673Y-86428938D01*
X136282303Y-86542767D01*
X136282302Y-86542768D01*
X136065520Y-86690567D01*
X135873198Y-86869014D01*
X135709614Y-87074143D01*
X135578432Y-87301356D01*
X135482582Y-87545578D01*
X135482576Y-87545597D01*
X135424197Y-87801374D01*
X135424196Y-87801379D01*
X135404592Y-88062995D01*
X134851408Y-88062995D01*
X134831803Y-87801379D01*
X134831802Y-87801374D01*
X134831802Y-87801370D01*
X134773420Y-87545584D01*
X134677568Y-87301357D01*
X134546386Y-87074143D01*
X134382805Y-86869019D01*
X134382804Y-86869018D01*
X134382801Y-86869014D01*
X134190479Y-86690567D01*
X134123499Y-86644901D01*
X133973704Y-86542772D01*
X133973700Y-86542770D01*
X133973697Y-86542768D01*
X133973696Y-86542767D01*
X133737325Y-86428938D01*
X133737327Y-86428938D01*
X133486623Y-86351606D01*
X133486619Y-86351605D01*
X133486615Y-86351604D01*
X133361823Y-86332794D01*
X133227187Y-86312500D01*
X133227182Y-86312500D01*
X132964818Y-86312500D01*
X132964812Y-86312500D01*
X132803247Y-86336853D01*
X132705385Y-86351604D01*
X132705382Y-86351605D01*
X132705376Y-86351606D01*
X132454673Y-86428938D01*
X132218303Y-86542767D01*
X132218302Y-86542768D01*
X132001520Y-86690567D01*
X131809198Y-86869014D01*
X131645614Y-87074143D01*
X131514432Y-87301356D01*
X131418582Y-87545578D01*
X131418576Y-87545597D01*
X131360197Y-87801374D01*
X131360196Y-87801379D01*
X131340592Y-88062995D01*
X111035385Y-88062995D01*
X111026340Y-87994291D01*
X110970871Y-87860375D01*
X110882631Y-87745379D01*
X110767635Y-87657139D01*
X110767634Y-87657138D01*
X110767632Y-87657137D01*
X110633722Y-87601671D01*
X110633720Y-87601670D01*
X110633719Y-87601670D01*
X110561864Y-87592210D01*
X110490011Y-87582750D01*
X110490009Y-87582750D01*
X110346301Y-87601670D01*
X110346297Y-87601671D01*
X110212387Y-87657137D01*
X110097389Y-87745379D01*
X110009147Y-87860377D01*
X109953681Y-87994287D01*
X109953680Y-87994291D01*
X109934760Y-88137999D01*
X105310446Y-88137999D01*
X104756294Y-87583846D01*
X104772942Y-87576951D01*
X104903970Y-87489401D01*
X105015401Y-87377970D01*
X105102951Y-87246942D01*
X105109846Y-87230293D01*
X105974115Y-88094562D01*
X105974116Y-88094561D01*
X106080803Y-87952047D01*
X106217908Y-87700958D01*
X106317890Y-87432895D01*
X106378699Y-87153362D01*
X106399109Y-86868001D01*
X106399109Y-86867998D01*
X106378699Y-86582637D01*
X106317890Y-86303104D01*
X106217908Y-86035041D01*
X106080808Y-85783961D01*
X106080807Y-85783960D01*
X105974115Y-85641436D01*
X105109846Y-86505705D01*
X105102951Y-86489058D01*
X105015401Y-86358030D01*
X104903970Y-86246599D01*
X104772942Y-86159049D01*
X104756293Y-86152152D01*
X105620562Y-85287883D01*
X105620561Y-85287882D01*
X105478046Y-85181196D01*
X105478038Y-85181191D01*
X105226957Y-85044091D01*
X105226958Y-85044091D01*
X104958895Y-84944109D01*
X104679362Y-84883300D01*
X104394001Y-84862891D01*
X104393999Y-84862891D01*
X104108637Y-84883300D01*
X103829104Y-84944109D01*
X103561041Y-85044091D01*
X103309961Y-85181191D01*
X103309953Y-85181196D01*
X103167437Y-85287882D01*
X103167436Y-85287883D01*
X104031706Y-86152152D01*
X104015058Y-86159049D01*
X103884030Y-86246599D01*
X103772599Y-86358030D01*
X103685049Y-86489058D01*
X103678153Y-86505706D01*
X102813883Y-85641436D01*
X102813882Y-85641437D01*
X102707196Y-85783953D01*
X102707191Y-85783961D01*
X102570091Y-86035041D01*
X102470109Y-86303104D01*
X102409300Y-86582637D01*
X102388891Y-86867998D01*
X96500500Y-86867998D01*
X96500500Y-84470000D01*
X97827769Y-84470000D01*
X98875854Y-84470000D01*
X98837370Y-84536657D01*
X98805000Y-84657465D01*
X98805000Y-84782535D01*
X98837370Y-84903343D01*
X98875854Y-84970000D01*
X97827769Y-84970000D01*
X97838242Y-85036126D01*
X97838242Y-85036129D01*
X97903904Y-85238217D01*
X98000379Y-85427557D01*
X98125272Y-85599459D01*
X98125276Y-85599464D01*
X98275535Y-85749723D01*
X98275540Y-85749727D01*
X98447442Y-85874620D01*
X98636782Y-85971095D01*
X98838872Y-86036757D01*
X99030000Y-86067029D01*
X99030000Y-85124145D01*
X99096657Y-85162630D01*
X99217465Y-85195000D01*
X99342535Y-85195000D01*
X99463343Y-85162630D01*
X99530000Y-85124145D01*
X99530000Y-86067028D01*
X99721127Y-86036757D01*
X99923217Y-85971095D01*
X100112557Y-85874620D01*
X100284459Y-85749727D01*
X100284464Y-85749723D01*
X100434723Y-85599464D01*
X100434727Y-85599459D01*
X100559620Y-85427557D01*
X100656095Y-85238217D01*
X100721757Y-85036129D01*
X100721757Y-85036126D01*
X100732231Y-84970000D01*
X99684146Y-84970000D01*
X99722630Y-84903343D01*
X99755000Y-84782535D01*
X99755000Y-84657465D01*
X99722630Y-84536657D01*
X99684146Y-84470000D01*
X100732231Y-84470000D01*
X100721757Y-84403873D01*
X100721757Y-84403870D01*
X100697105Y-84327999D01*
X120602750Y-84327999D01*
X120602750Y-84328000D01*
X120621670Y-84471708D01*
X120621671Y-84471712D01*
X120677137Y-84605622D01*
X120677138Y-84605624D01*
X120677139Y-84605625D01*
X120765379Y-84720621D01*
X120880375Y-84808861D01*
X121014291Y-84864330D01*
X121141280Y-84881048D01*
X121157999Y-84883250D01*
X121158000Y-84883250D01*
X121158001Y-84883250D01*
X121172977Y-84881278D01*
X121301709Y-84864330D01*
X121435625Y-84808861D01*
X121550621Y-84720621D01*
X121638861Y-84605625D01*
X121694330Y-84471709D01*
X121713250Y-84328000D01*
X121694330Y-84184291D01*
X121638861Y-84050375D01*
X121550621Y-83935379D01*
X121435625Y-83847139D01*
X121435624Y-83847138D01*
X121435622Y-83847137D01*
X121301712Y-83791671D01*
X121301710Y-83791670D01*
X121301709Y-83791670D01*
X121229854Y-83782210D01*
X121158001Y-83772750D01*
X121157999Y-83772750D01*
X121014291Y-83791670D01*
X121014287Y-83791671D01*
X120880377Y-83847137D01*
X120765379Y-83935379D01*
X120677137Y-84050377D01*
X120621671Y-84184287D01*
X120621670Y-84184291D01*
X120602750Y-84327999D01*
X100697105Y-84327999D01*
X100656095Y-84201782D01*
X100559620Y-84012442D01*
X100434727Y-83840540D01*
X100434723Y-83840535D01*
X100284464Y-83690276D01*
X100284459Y-83690272D01*
X100113412Y-83566000D01*
X108410750Y-83566000D01*
X108426615Y-83686508D01*
X108429670Y-83709708D01*
X108429671Y-83709712D01*
X108485137Y-83843622D01*
X108485138Y-83843624D01*
X108485139Y-83843625D01*
X108573379Y-83958621D01*
X108688375Y-84046861D01*
X108688376Y-84046861D01*
X108688377Y-84046862D01*
X108733013Y-84065350D01*
X108822291Y-84102330D01*
X108949280Y-84119048D01*
X108965999Y-84121250D01*
X108966000Y-84121250D01*
X108966001Y-84121250D01*
X108980977Y-84119278D01*
X109109709Y-84102330D01*
X109243625Y-84046861D01*
X109358621Y-83958621D01*
X109446861Y-83843625D01*
X109488846Y-83742263D01*
X114221625Y-83742263D01*
X114221625Y-83742264D01*
X114240545Y-83885972D01*
X114240546Y-83885976D01*
X114296012Y-84019886D01*
X114296013Y-84019888D01*
X114296014Y-84019889D01*
X114384254Y-84134885D01*
X114499250Y-84223125D01*
X114633166Y-84278594D01*
X114760155Y-84295312D01*
X114776874Y-84297514D01*
X114776875Y-84297514D01*
X114776876Y-84297514D01*
X114791852Y-84295542D01*
X114920584Y-84278594D01*
X115054500Y-84223125D01*
X115169496Y-84134885D01*
X115257736Y-84019889D01*
X115313205Y-83885973D01*
X115332125Y-83742264D01*
X115313205Y-83598555D01*
X115257736Y-83464639D01*
X115169496Y-83349643D01*
X115054500Y-83261403D01*
X115054499Y-83261402D01*
X115054497Y-83261401D01*
X114920587Y-83205935D01*
X114920585Y-83205934D01*
X114920584Y-83205934D01*
X114848729Y-83196474D01*
X114776876Y-83187014D01*
X114776874Y-83187014D01*
X114633166Y-83205934D01*
X114633162Y-83205935D01*
X114499252Y-83261401D01*
X114384254Y-83349643D01*
X114296012Y-83464641D01*
X114240546Y-83598551D01*
X114240545Y-83598555D01*
X114221625Y-83742263D01*
X109488846Y-83742263D01*
X109502330Y-83709709D01*
X109521250Y-83566000D01*
X109502330Y-83422291D01*
X109446861Y-83288375D01*
X109358621Y-83173379D01*
X109243625Y-83085139D01*
X109243624Y-83085138D01*
X109243622Y-83085137D01*
X109109712Y-83029671D01*
X109109710Y-83029670D01*
X109109709Y-83029670D01*
X109037854Y-83020210D01*
X108966001Y-83010750D01*
X108965999Y-83010750D01*
X108822291Y-83029670D01*
X108822287Y-83029671D01*
X108688377Y-83085137D01*
X108573379Y-83173379D01*
X108485137Y-83288377D01*
X108429671Y-83422287D01*
X108429670Y-83422291D01*
X108410750Y-83566000D01*
X100113412Y-83566000D01*
X100112557Y-83565379D01*
X99923217Y-83468904D01*
X99874976Y-83453230D01*
X99817301Y-83413793D01*
X99790102Y-83349434D01*
X99802016Y-83280588D01*
X99849261Y-83229112D01*
X99857000Y-83224814D01*
X99894053Y-83205935D01*
X99981788Y-83161232D01*
X100121928Y-83059414D01*
X100244414Y-82936928D01*
X100342333Y-82802155D01*
X150950000Y-82802155D01*
X150950000Y-84350000D01*
X152281116Y-84350000D01*
X152250000Y-84506433D01*
X152250000Y-84693567D01*
X152281116Y-84850000D01*
X150950000Y-84850000D01*
X150950000Y-86397844D01*
X150956401Y-86457372D01*
X150956403Y-86457379D01*
X151006645Y-86592086D01*
X151006649Y-86592093D01*
X151092809Y-86707187D01*
X151092812Y-86707190D01*
X151207906Y-86793350D01*
X151207913Y-86793354D01*
X151342620Y-86843596D01*
X151342627Y-86843598D01*
X151402155Y-86849999D01*
X151402172Y-86850000D01*
X152950000Y-86850000D01*
X152950000Y-85518883D01*
X153106433Y-85550000D01*
X153293567Y-85550000D01*
X153450000Y-85518883D01*
X153450000Y-86850000D01*
X154997828Y-86850000D01*
X154997844Y-86849999D01*
X155057372Y-86843598D01*
X155057379Y-86843596D01*
X155192086Y-86793354D01*
X155192093Y-86793350D01*
X155307187Y-86707190D01*
X155307190Y-86707187D01*
X155393350Y-86592093D01*
X155393354Y-86592086D01*
X155443596Y-86457379D01*
X155443598Y-86457372D01*
X155449999Y-86397844D01*
X155450000Y-86397827D01*
X155450000Y-84850000D01*
X154118884Y-84850000D01*
X154150000Y-84693567D01*
X154150000Y-84506433D01*
X154118884Y-84350000D01*
X155450000Y-84350000D01*
X155450000Y-82802172D01*
X155449999Y-82802155D01*
X155443598Y-82742627D01*
X155443596Y-82742620D01*
X155393354Y-82607913D01*
X155393350Y-82607906D01*
X155307190Y-82492812D01*
X155307187Y-82492809D01*
X155192093Y-82406649D01*
X155192086Y-82406645D01*
X155057379Y-82356403D01*
X155057372Y-82356401D01*
X154997844Y-82350000D01*
X153450000Y-82350000D01*
X153450000Y-83681116D01*
X153293567Y-83650000D01*
X153106433Y-83650000D01*
X152950000Y-83681116D01*
X152950000Y-82350000D01*
X151402155Y-82350000D01*
X151342627Y-82356401D01*
X151342620Y-82356403D01*
X151207913Y-82406645D01*
X151207906Y-82406649D01*
X151092812Y-82492809D01*
X151092809Y-82492812D01*
X151006649Y-82607906D01*
X151006645Y-82607913D01*
X150956403Y-82742620D01*
X150956401Y-82742627D01*
X150950000Y-82802155D01*
X100342333Y-82802155D01*
X100346232Y-82796788D01*
X100424873Y-82642445D01*
X100478402Y-82477701D01*
X100505500Y-82306611D01*
X100505500Y-82133389D01*
X100478402Y-81962299D01*
X100424873Y-81797555D01*
X100346232Y-81643212D01*
X100244414Y-81503072D01*
X100121928Y-81380586D01*
X99981788Y-81278768D01*
X99827445Y-81200127D01*
X99662701Y-81146598D01*
X99662699Y-81146597D01*
X99662698Y-81146597D01*
X99531271Y-81125781D01*
X99491611Y-81119500D01*
X99068389Y-81119500D01*
X99028728Y-81125781D01*
X98897302Y-81146597D01*
X98732552Y-81200128D01*
X98578211Y-81278768D01*
X98543999Y-81303625D01*
X98438072Y-81380586D01*
X98438070Y-81380588D01*
X98438069Y-81380588D01*
X98315588Y-81503069D01*
X98315588Y-81503070D01*
X98315586Y-81503072D01*
X98272534Y-81562328D01*
X98213768Y-81643211D01*
X98135128Y-81797552D01*
X98081597Y-81962302D01*
X98054500Y-82133389D01*
X98054500Y-82306611D01*
X98081598Y-82477701D01*
X98135127Y-82642445D01*
X98213768Y-82796788D01*
X98315586Y-82936928D01*
X98438072Y-83059414D01*
X98543177Y-83135777D01*
X98578213Y-83161233D01*
X98702999Y-83224814D01*
X98753796Y-83272788D01*
X98770591Y-83340609D01*
X98748054Y-83406744D01*
X98693339Y-83450196D01*
X98685024Y-83453230D01*
X98636781Y-83468905D01*
X98447442Y-83565379D01*
X98275540Y-83690272D01*
X98275535Y-83690276D01*
X98125276Y-83840535D01*
X98125272Y-83840540D01*
X98000379Y-84012442D01*
X97903904Y-84201782D01*
X97838242Y-84403870D01*
X97838242Y-84403873D01*
X97827769Y-84470000D01*
X96500500Y-84470000D01*
X96500500Y-81114709D01*
X118062749Y-81114709D01*
X118062749Y-81114710D01*
X118081669Y-81258418D01*
X118081670Y-81258422D01*
X118137136Y-81392332D01*
X118137137Y-81392334D01*
X118137138Y-81392335D01*
X118225378Y-81507331D01*
X118340374Y-81595571D01*
X118340375Y-81595571D01*
X118340376Y-81595572D01*
X118385012Y-81614060D01*
X118474290Y-81651040D01*
X118601279Y-81667758D01*
X118617998Y-81669960D01*
X118617999Y-81669960D01*
X118618000Y-81669960D01*
X118632976Y-81667988D01*
X118761708Y-81651040D01*
X118895624Y-81595571D01*
X119010620Y-81507331D01*
X119098860Y-81392335D01*
X119154329Y-81258419D01*
X119173249Y-81114710D01*
X119161570Y-81025999D01*
X120983750Y-81025999D01*
X120983750Y-81026000D01*
X121002670Y-81169708D01*
X121002671Y-81169712D01*
X121058137Y-81303622D01*
X121058138Y-81303624D01*
X121058139Y-81303625D01*
X121146379Y-81418621D01*
X121261375Y-81506861D01*
X121261376Y-81506861D01*
X121261377Y-81506862D01*
X121306013Y-81525350D01*
X121395291Y-81562330D01*
X121522280Y-81579048D01*
X121538999Y-81581250D01*
X121539000Y-81581250D01*
X121539001Y-81581250D01*
X121553977Y-81579278D01*
X121682709Y-81562330D01*
X121816625Y-81506861D01*
X121931621Y-81418621D01*
X122019861Y-81303625D01*
X122075330Y-81169709D01*
X122094250Y-81026000D01*
X122094250Y-81025999D01*
X136985750Y-81025999D01*
X136985750Y-81026000D01*
X137004670Y-81169708D01*
X137004671Y-81169712D01*
X137060137Y-81303622D01*
X137060138Y-81303624D01*
X137060139Y-81303625D01*
X137148379Y-81418621D01*
X137263375Y-81506861D01*
X137263376Y-81506861D01*
X137263377Y-81506862D01*
X137308013Y-81525350D01*
X137397291Y-81562330D01*
X137524280Y-81579048D01*
X137540999Y-81581250D01*
X137541000Y-81581250D01*
X137541001Y-81581250D01*
X137555977Y-81579278D01*
X137684709Y-81562330D01*
X137818625Y-81506861D01*
X137933621Y-81418621D01*
X138021861Y-81303625D01*
X138077330Y-81169709D01*
X138096250Y-81026000D01*
X138077330Y-80882291D01*
X138021861Y-80748375D01*
X137933621Y-80633379D01*
X137818625Y-80545139D01*
X137818624Y-80545138D01*
X137818622Y-80545137D01*
X137684712Y-80489671D01*
X137684710Y-80489670D01*
X137684709Y-80489670D01*
X137612854Y-80480210D01*
X137541001Y-80470750D01*
X137540999Y-80470750D01*
X137397291Y-80489670D01*
X137397287Y-80489671D01*
X137263377Y-80545137D01*
X137148379Y-80633379D01*
X137060137Y-80748377D01*
X137004671Y-80882287D01*
X137004670Y-80882291D01*
X136985750Y-81025999D01*
X122094250Y-81025999D01*
X122075330Y-80882291D01*
X122019861Y-80748375D01*
X121931621Y-80633379D01*
X121816625Y-80545139D01*
X121816624Y-80545138D01*
X121816622Y-80545137D01*
X121682712Y-80489671D01*
X121682710Y-80489670D01*
X121682709Y-80489670D01*
X121610854Y-80480210D01*
X121539001Y-80470750D01*
X121538999Y-80470750D01*
X121395291Y-80489670D01*
X121395287Y-80489671D01*
X121261377Y-80545137D01*
X121146379Y-80633379D01*
X121058137Y-80748377D01*
X121002671Y-80882287D01*
X121002670Y-80882291D01*
X120983750Y-81025999D01*
X119161570Y-81025999D01*
X119154329Y-80971001D01*
X119098860Y-80837085D01*
X119010620Y-80722089D01*
X118895624Y-80633849D01*
X118895623Y-80633848D01*
X118895621Y-80633847D01*
X118761711Y-80578381D01*
X118761709Y-80578380D01*
X118761708Y-80578380D01*
X118689853Y-80568920D01*
X118618000Y-80559460D01*
X118617998Y-80559460D01*
X118474290Y-80578380D01*
X118474286Y-80578381D01*
X118340376Y-80633847D01*
X118225378Y-80722089D01*
X118137136Y-80837087D01*
X118081670Y-80970997D01*
X118081669Y-80971001D01*
X118062749Y-81114709D01*
X96500500Y-81114709D01*
X96500500Y-79633389D01*
X98054500Y-79633389D01*
X98054500Y-79806611D01*
X98081598Y-79977701D01*
X98135127Y-80142445D01*
X98213768Y-80296788D01*
X98315586Y-80436928D01*
X98438072Y-80559414D01*
X98578212Y-80661232D01*
X98732555Y-80739873D01*
X98897299Y-80793402D01*
X99068389Y-80820500D01*
X99068390Y-80820500D01*
X99491610Y-80820500D01*
X99491611Y-80820500D01*
X99662701Y-80793402D01*
X99827445Y-80739873D01*
X99981788Y-80661232D01*
X100121928Y-80559414D01*
X100244414Y-80436928D01*
X100346232Y-80296788D01*
X100424873Y-80142445D01*
X100478402Y-79977701D01*
X100493401Y-79882999D01*
X109553750Y-79882999D01*
X109553750Y-79883000D01*
X109572670Y-80026708D01*
X109572671Y-80026712D01*
X109628137Y-80160622D01*
X109628138Y-80160624D01*
X109628139Y-80160625D01*
X109716379Y-80275621D01*
X109831375Y-80363861D01*
X109965291Y-80419330D01*
X110092280Y-80436048D01*
X110108999Y-80438250D01*
X110109000Y-80438250D01*
X110109001Y-80438250D01*
X110123977Y-80436278D01*
X110252709Y-80419330D01*
X110386625Y-80363861D01*
X110501621Y-80275621D01*
X110589861Y-80160625D01*
X110645330Y-80026709D01*
X110664250Y-79883000D01*
X110645330Y-79739291D01*
X110589861Y-79605375D01*
X110501621Y-79490379D01*
X110386625Y-79402139D01*
X110386624Y-79402138D01*
X110386622Y-79402137D01*
X110252712Y-79346671D01*
X110252710Y-79346670D01*
X110252709Y-79346670D01*
X110180854Y-79337210D01*
X110109001Y-79327750D01*
X110108999Y-79327750D01*
X109965291Y-79346670D01*
X109965287Y-79346671D01*
X109831377Y-79402137D01*
X109716379Y-79490379D01*
X109628137Y-79605377D01*
X109572671Y-79739287D01*
X109572670Y-79739291D01*
X109553750Y-79882999D01*
X100493401Y-79882999D01*
X100505500Y-79806611D01*
X100505500Y-79633389D01*
X100478402Y-79462299D01*
X100424873Y-79297555D01*
X100409344Y-79267078D01*
X125770538Y-79267078D01*
X125788319Y-79402139D01*
X125789458Y-79410786D01*
X125789459Y-79410790D01*
X125844925Y-79544700D01*
X125844926Y-79544702D01*
X125844927Y-79544703D01*
X125933167Y-79659699D01*
X126048163Y-79747939D01*
X126182079Y-79803408D01*
X126309068Y-79820126D01*
X126325787Y-79822328D01*
X126325788Y-79822328D01*
X126325789Y-79822328D01*
X126340765Y-79820356D01*
X126469497Y-79803408D01*
X126603413Y-79747939D01*
X126718409Y-79659699D01*
X126764219Y-79599998D01*
X151194390Y-79599998D01*
X151194390Y-79600001D01*
X151214804Y-79885433D01*
X151275628Y-80165037D01*
X151275630Y-80165043D01*
X151275631Y-80165046D01*
X151349786Y-80363862D01*
X151375635Y-80433166D01*
X151512770Y-80684309D01*
X151512775Y-80684317D01*
X151684254Y-80913387D01*
X151684270Y-80913405D01*
X151886594Y-81115729D01*
X151886612Y-81115745D01*
X152115682Y-81287224D01*
X152115690Y-81287229D01*
X152366833Y-81424364D01*
X152366832Y-81424364D01*
X152366836Y-81424365D01*
X152366839Y-81424367D01*
X152634954Y-81524369D01*
X152634960Y-81524370D01*
X152634962Y-81524371D01*
X152914566Y-81585195D01*
X152914568Y-81585195D01*
X152914572Y-81585196D01*
X153168220Y-81603337D01*
X153199999Y-81605610D01*
X153200000Y-81605610D01*
X153200001Y-81605610D01*
X153228595Y-81603564D01*
X153485428Y-81585196D01*
X153590547Y-81562329D01*
X153765037Y-81524371D01*
X153765037Y-81524370D01*
X153765046Y-81524369D01*
X154033161Y-81424367D01*
X154284315Y-81287226D01*
X154513395Y-81115739D01*
X154715739Y-80913395D01*
X154887226Y-80684315D01*
X155024367Y-80433161D01*
X155124369Y-80165046D01*
X155185196Y-79885428D01*
X155205610Y-79600000D01*
X155185196Y-79314572D01*
X155175853Y-79271625D01*
X155124371Y-79034962D01*
X155124370Y-79034960D01*
X155124369Y-79034954D01*
X155024367Y-78766839D01*
X155022610Y-78763622D01*
X154887229Y-78515690D01*
X154887224Y-78515682D01*
X154715745Y-78286612D01*
X154715729Y-78286594D01*
X154513405Y-78084270D01*
X154513387Y-78084254D01*
X154284317Y-77912775D01*
X154284309Y-77912770D01*
X154033166Y-77775635D01*
X154033167Y-77775635D01*
X153846862Y-77706147D01*
X153765046Y-77675631D01*
X153765043Y-77675630D01*
X153765037Y-77675628D01*
X153485433Y-77614804D01*
X153200001Y-77594390D01*
X153199999Y-77594390D01*
X152914566Y-77614804D01*
X152634962Y-77675628D01*
X152366833Y-77775635D01*
X152115690Y-77912770D01*
X152115682Y-77912775D01*
X151886612Y-78084254D01*
X151886594Y-78084270D01*
X151684270Y-78286594D01*
X151684254Y-78286612D01*
X151512775Y-78515682D01*
X151512770Y-78515690D01*
X151375635Y-78766833D01*
X151275628Y-79034962D01*
X151214804Y-79314566D01*
X151194390Y-79599998D01*
X126764219Y-79599998D01*
X126806649Y-79544703D01*
X126862118Y-79410787D01*
X126881038Y-79267078D01*
X126862118Y-79123369D01*
X126820267Y-79022330D01*
X126808532Y-78993999D01*
X130254750Y-78993999D01*
X130254750Y-78994000D01*
X130273670Y-79137708D01*
X130273671Y-79137712D01*
X130329137Y-79271622D01*
X130329138Y-79271624D01*
X130329139Y-79271625D01*
X130417379Y-79386621D01*
X130532375Y-79474861D01*
X130666291Y-79530330D01*
X130793280Y-79547048D01*
X130809999Y-79549250D01*
X130810000Y-79549250D01*
X130810001Y-79549250D01*
X130824977Y-79547278D01*
X130953709Y-79530330D01*
X131087625Y-79474861D01*
X131202621Y-79386621D01*
X131290861Y-79271625D01*
X131346330Y-79137709D01*
X131365250Y-78994000D01*
X131348530Y-78866999D01*
X133302750Y-78866999D01*
X133302750Y-78867000D01*
X133321670Y-79010708D01*
X133321671Y-79010712D01*
X133377137Y-79144622D01*
X133377138Y-79144624D01*
X133377139Y-79144625D01*
X133465379Y-79259621D01*
X133580375Y-79347861D01*
X133714291Y-79403330D01*
X133841280Y-79420048D01*
X133857999Y-79422250D01*
X133858000Y-79422250D01*
X133858001Y-79422250D01*
X133872977Y-79420278D01*
X134001709Y-79403330D01*
X134135625Y-79347861D01*
X134250621Y-79259621D01*
X134338861Y-79144625D01*
X134394330Y-79010709D01*
X134413250Y-78867000D01*
X134394330Y-78723291D01*
X134338861Y-78589375D01*
X134259537Y-78485999D01*
X140795750Y-78485999D01*
X140795750Y-78486000D01*
X140814670Y-78629708D01*
X140814671Y-78629712D01*
X140870137Y-78763622D01*
X140870138Y-78763624D01*
X140870139Y-78763625D01*
X140958379Y-78878621D01*
X141073375Y-78966861D01*
X141207291Y-79022330D01*
X141334280Y-79039048D01*
X141350999Y-79041250D01*
X141351000Y-79041250D01*
X141351001Y-79041250D01*
X141365977Y-79039278D01*
X141494709Y-79022330D01*
X141628625Y-78966861D01*
X141743621Y-78878621D01*
X141831861Y-78763625D01*
X141887330Y-78629709D01*
X141906250Y-78486000D01*
X141887330Y-78342291D01*
X141831861Y-78208375D01*
X141743621Y-78093379D01*
X141628625Y-78005139D01*
X141628624Y-78005138D01*
X141628622Y-78005137D01*
X141494712Y-77949671D01*
X141494710Y-77949670D01*
X141494709Y-77949670D01*
X141422854Y-77940210D01*
X141351001Y-77930750D01*
X141350999Y-77930750D01*
X141207291Y-77949670D01*
X141207287Y-77949671D01*
X141073377Y-78005137D01*
X140958379Y-78093379D01*
X140870137Y-78208377D01*
X140814671Y-78342287D01*
X140814670Y-78342291D01*
X140795750Y-78485999D01*
X134259537Y-78485999D01*
X134250621Y-78474379D01*
X134135625Y-78386139D01*
X134135624Y-78386138D01*
X134135622Y-78386137D01*
X134001712Y-78330671D01*
X134001710Y-78330670D01*
X134001709Y-78330670D01*
X133924446Y-78320498D01*
X133858001Y-78311750D01*
X133857999Y-78311750D01*
X133714291Y-78330670D01*
X133714287Y-78330671D01*
X133580377Y-78386137D01*
X133465379Y-78474379D01*
X133377137Y-78589377D01*
X133321671Y-78723287D01*
X133321670Y-78723291D01*
X133302750Y-78866999D01*
X131348530Y-78866999D01*
X131346330Y-78850291D01*
X131296815Y-78730749D01*
X131290862Y-78716377D01*
X131290861Y-78716376D01*
X131290861Y-78716375D01*
X131202621Y-78601379D01*
X131087625Y-78513139D01*
X131087624Y-78513138D01*
X131087622Y-78513137D01*
X130953712Y-78457671D01*
X130953710Y-78457670D01*
X130953709Y-78457670D01*
X130881854Y-78448210D01*
X130810001Y-78438750D01*
X130809999Y-78438750D01*
X130666291Y-78457670D01*
X130666287Y-78457671D01*
X130532377Y-78513137D01*
X130417379Y-78601379D01*
X130329137Y-78716377D01*
X130273671Y-78850287D01*
X130273670Y-78850291D01*
X130254750Y-78993999D01*
X126808532Y-78993999D01*
X126806650Y-78989455D01*
X126806649Y-78989454D01*
X126806649Y-78989453D01*
X126718409Y-78874457D01*
X126603413Y-78786217D01*
X126603412Y-78786216D01*
X126603410Y-78786215D01*
X126469500Y-78730749D01*
X126469498Y-78730748D01*
X126469497Y-78730748D01*
X126397642Y-78721288D01*
X126325789Y-78711828D01*
X126325787Y-78711828D01*
X126182079Y-78730748D01*
X126182075Y-78730749D01*
X126048165Y-78786215D01*
X125933167Y-78874457D01*
X125844925Y-78989455D01*
X125789459Y-79123365D01*
X125789458Y-79123369D01*
X125770538Y-79267078D01*
X100409344Y-79267078D01*
X100346232Y-79143212D01*
X100244414Y-79003072D01*
X100121928Y-78880586D01*
X99981788Y-78778768D01*
X99827445Y-78700127D01*
X99662701Y-78646598D01*
X99662699Y-78646597D01*
X99662698Y-78646597D01*
X99531271Y-78625781D01*
X99491611Y-78619500D01*
X99068389Y-78619500D01*
X99028728Y-78625781D01*
X98897302Y-78646597D01*
X98732552Y-78700128D01*
X98578211Y-78778768D01*
X98498256Y-78836859D01*
X98438072Y-78880586D01*
X98438070Y-78880588D01*
X98438069Y-78880588D01*
X98315588Y-79003069D01*
X98315588Y-79003070D01*
X98315586Y-79003072D01*
X98287848Y-79041250D01*
X98213768Y-79143211D01*
X98135128Y-79297552D01*
X98081597Y-79462302D01*
X98070823Y-79530328D01*
X98054500Y-79633389D01*
X96500500Y-79633389D01*
X96500500Y-76572135D01*
X98054500Y-76572135D01*
X98054500Y-77867870D01*
X98054501Y-77867876D01*
X98060908Y-77927483D01*
X98111202Y-78062328D01*
X98111206Y-78062335D01*
X98197452Y-78177544D01*
X98197455Y-78177547D01*
X98312664Y-78263793D01*
X98312671Y-78263797D01*
X98447517Y-78314091D01*
X98447516Y-78314091D01*
X98454444Y-78314835D01*
X98507127Y-78320500D01*
X100052872Y-78320499D01*
X100112483Y-78314091D01*
X100247331Y-78263796D01*
X100362546Y-78177546D01*
X100448796Y-78062331D01*
X100480250Y-77977999D01*
X118824750Y-77977999D01*
X118824750Y-77978000D01*
X118843670Y-78121708D01*
X118843671Y-78121712D01*
X118899137Y-78255622D01*
X118899138Y-78255624D01*
X118899139Y-78255625D01*
X118987379Y-78370621D01*
X119102375Y-78458861D01*
X119236291Y-78514330D01*
X119363280Y-78531048D01*
X119379999Y-78533250D01*
X119380000Y-78533250D01*
X119380001Y-78533250D01*
X119394977Y-78531278D01*
X119523709Y-78514330D01*
X119657625Y-78458861D01*
X119772621Y-78370621D01*
X119860861Y-78255625D01*
X119916330Y-78121709D01*
X119935250Y-77978000D01*
X119916330Y-77834291D01*
X119863252Y-77706147D01*
X119860862Y-77700377D01*
X119860861Y-77700376D01*
X119860861Y-77700375D01*
X119772621Y-77585379D01*
X119657625Y-77497139D01*
X119657624Y-77497138D01*
X119657622Y-77497137D01*
X119523712Y-77441671D01*
X119523710Y-77441670D01*
X119523709Y-77441670D01*
X119451854Y-77432210D01*
X119380001Y-77422750D01*
X119379999Y-77422750D01*
X119236291Y-77441670D01*
X119236287Y-77441671D01*
X119102377Y-77497137D01*
X118987379Y-77585379D01*
X118899137Y-77700377D01*
X118843671Y-77834287D01*
X118843670Y-77834291D01*
X118824750Y-77977999D01*
X100480250Y-77977999D01*
X100499091Y-77927483D01*
X100505500Y-77867873D01*
X100505500Y-77313525D01*
X117090571Y-77313525D01*
X117090571Y-77313526D01*
X117109491Y-77457234D01*
X117109492Y-77457238D01*
X117164958Y-77591148D01*
X117164959Y-77591150D01*
X117164960Y-77591151D01*
X117253200Y-77706147D01*
X117368196Y-77794387D01*
X117502112Y-77849856D01*
X117629101Y-77866574D01*
X117645820Y-77868776D01*
X117645821Y-77868776D01*
X117645822Y-77868776D01*
X117660798Y-77866804D01*
X117789530Y-77849856D01*
X117923446Y-77794387D01*
X118038442Y-77706147D01*
X118126682Y-77591151D01*
X118182151Y-77457235D01*
X118201071Y-77313526D01*
X118186125Y-77199999D01*
X120221750Y-77199999D01*
X120221750Y-77200000D01*
X120240670Y-77343708D01*
X120240671Y-77343712D01*
X120296137Y-77477622D01*
X120296138Y-77477624D01*
X120296139Y-77477625D01*
X120384379Y-77592621D01*
X120499375Y-77680861D01*
X120633291Y-77736330D01*
X120760280Y-77753048D01*
X120776999Y-77755250D01*
X120777000Y-77755250D01*
X120777001Y-77755250D01*
X120791977Y-77753278D01*
X120920709Y-77736330D01*
X121054625Y-77680861D01*
X121169621Y-77592621D01*
X121257861Y-77477625D01*
X121313330Y-77343709D01*
X121332250Y-77200000D01*
X121330783Y-77188861D01*
X121323857Y-77136250D01*
X121313330Y-77056291D01*
X121257861Y-76922375D01*
X121169621Y-76807379D01*
X121054625Y-76719139D01*
X121054624Y-76719138D01*
X121054622Y-76719137D01*
X120920712Y-76663671D01*
X120920710Y-76663670D01*
X120920709Y-76663670D01*
X120848854Y-76654210D01*
X120777001Y-76644750D01*
X120776999Y-76644750D01*
X120633291Y-76663670D01*
X120633287Y-76663671D01*
X120499377Y-76719137D01*
X120384379Y-76807379D01*
X120296137Y-76922377D01*
X120240671Y-77056287D01*
X120240670Y-77056291D01*
X120221750Y-77199999D01*
X118186125Y-77199999D01*
X118182151Y-77169817D01*
X118126682Y-77035901D01*
X118038442Y-76920905D01*
X117923446Y-76832665D01*
X117923445Y-76832664D01*
X117923443Y-76832663D01*
X117789533Y-76777197D01*
X117789531Y-76777196D01*
X117789530Y-76777196D01*
X117717675Y-76767736D01*
X117645822Y-76758276D01*
X117645820Y-76758276D01*
X117502112Y-76777196D01*
X117502108Y-76777197D01*
X117368198Y-76832663D01*
X117253200Y-76920905D01*
X117164958Y-77035903D01*
X117109492Y-77169813D01*
X117109491Y-77169817D01*
X117090571Y-77313525D01*
X100505500Y-77313525D01*
X100505499Y-76581000D01*
X135715750Y-76581000D01*
X135733936Y-76719137D01*
X135734670Y-76724708D01*
X135734671Y-76724712D01*
X135790137Y-76858622D01*
X135790138Y-76858624D01*
X135790139Y-76858625D01*
X135878379Y-76973621D01*
X135993375Y-77061861D01*
X136127291Y-77117330D01*
X136254280Y-77134048D01*
X136270999Y-77136250D01*
X136271000Y-77136250D01*
X136271001Y-77136250D01*
X136285977Y-77134278D01*
X136414709Y-77117330D01*
X136548625Y-77061861D01*
X136663621Y-76973621D01*
X136751861Y-76858625D01*
X136807330Y-76724709D01*
X136809530Y-76708000D01*
X150044750Y-76708000D01*
X150061162Y-76832663D01*
X150063670Y-76851708D01*
X150063671Y-76851712D01*
X150119137Y-76985622D01*
X150119138Y-76985624D01*
X150119139Y-76985625D01*
X150207379Y-77100621D01*
X150322375Y-77188861D01*
X150456291Y-77244330D01*
X150583280Y-77261048D01*
X150599999Y-77263250D01*
X150600000Y-77263250D01*
X150600001Y-77263250D01*
X150614977Y-77261278D01*
X150743709Y-77244330D01*
X150877625Y-77188861D01*
X150992621Y-77100621D01*
X151080861Y-76985625D01*
X151136330Y-76851709D01*
X151155250Y-76708000D01*
X151141031Y-76600000D01*
X162244901Y-76600000D01*
X162263252Y-76786331D01*
X162263253Y-76786333D01*
X162317604Y-76965502D01*
X162405862Y-77130623D01*
X162405864Y-77130626D01*
X162524642Y-77275357D01*
X162669373Y-77394135D01*
X162669376Y-77394137D01*
X162787431Y-77457238D01*
X162834499Y-77482396D01*
X163013666Y-77536746D01*
X163013668Y-77536747D01*
X163030374Y-77538392D01*
X163200000Y-77555099D01*
X163386331Y-77536747D01*
X163565501Y-77482396D01*
X163730625Y-77394136D01*
X163875357Y-77275357D01*
X163994136Y-77130625D01*
X164082396Y-76965501D01*
X164136747Y-76786331D01*
X164155099Y-76600000D01*
X164136747Y-76413669D01*
X164082396Y-76234499D01*
X164048814Y-76171671D01*
X163994137Y-76069376D01*
X163994135Y-76069373D01*
X163875357Y-75924642D01*
X163730626Y-75805864D01*
X163730623Y-75805862D01*
X163565502Y-75717604D01*
X163386333Y-75663253D01*
X163386331Y-75663252D01*
X163200000Y-75644901D01*
X163013668Y-75663252D01*
X163013666Y-75663253D01*
X162834497Y-75717604D01*
X162669376Y-75805862D01*
X162669373Y-75805864D01*
X162524642Y-75924642D01*
X162405864Y-76069373D01*
X162405862Y-76069376D01*
X162317604Y-76234497D01*
X162263253Y-76413666D01*
X162263252Y-76413668D01*
X162244901Y-76600000D01*
X151141031Y-76600000D01*
X151136330Y-76564291D01*
X151080861Y-76430375D01*
X150992621Y-76315379D01*
X150877625Y-76227139D01*
X150877624Y-76227138D01*
X150877622Y-76227137D01*
X150743712Y-76171671D01*
X150743710Y-76171670D01*
X150743709Y-76171670D01*
X150671854Y-76162210D01*
X150600001Y-76152750D01*
X150599999Y-76152750D01*
X150456291Y-76171670D01*
X150456287Y-76171671D01*
X150322377Y-76227137D01*
X150207379Y-76315379D01*
X150119137Y-76430377D01*
X150063671Y-76564287D01*
X150063670Y-76564291D01*
X150044750Y-76708000D01*
X136809530Y-76708000D01*
X136826250Y-76581000D01*
X136807330Y-76437291D01*
X136751861Y-76303375D01*
X136663621Y-76188379D01*
X136548625Y-76100139D01*
X136548624Y-76100138D01*
X136548622Y-76100137D01*
X136414712Y-76044671D01*
X136414710Y-76044670D01*
X136414709Y-76044670D01*
X136342854Y-76035210D01*
X136271001Y-76025750D01*
X136270999Y-76025750D01*
X136127291Y-76044670D01*
X136127287Y-76044671D01*
X135993377Y-76100137D01*
X135878379Y-76188379D01*
X135790137Y-76303377D01*
X135734671Y-76437287D01*
X135734670Y-76437291D01*
X135716920Y-76572116D01*
X135715750Y-76581000D01*
X100505499Y-76581000D01*
X100505499Y-76572128D01*
X100499091Y-76512517D01*
X100468904Y-76431582D01*
X100448797Y-76377671D01*
X100448793Y-76377664D01*
X100362547Y-76262455D01*
X100362544Y-76262452D01*
X100247335Y-76176206D01*
X100247328Y-76176202D01*
X100112482Y-76125908D01*
X100112483Y-76125908D01*
X100052883Y-76119501D01*
X100052881Y-76119500D01*
X100052873Y-76119500D01*
X100052864Y-76119500D01*
X98507129Y-76119500D01*
X98507123Y-76119501D01*
X98447516Y-76125908D01*
X98312671Y-76176202D01*
X98312664Y-76176206D01*
X98197455Y-76262452D01*
X98197452Y-76262455D01*
X98111206Y-76377664D01*
X98111202Y-76377671D01*
X98060908Y-76512517D01*
X98055343Y-76564287D01*
X98054501Y-76572123D01*
X98054500Y-76572135D01*
X96500500Y-76572135D01*
X96500500Y-75876332D01*
X118610179Y-75876332D01*
X118622461Y-75969625D01*
X118629099Y-76020040D01*
X118629100Y-76020044D01*
X118684566Y-76153954D01*
X118684567Y-76153956D01*
X118684568Y-76153957D01*
X118772808Y-76268953D01*
X118887804Y-76357193D01*
X119021720Y-76412662D01*
X119148709Y-76429380D01*
X119165428Y-76431582D01*
X119165429Y-76431582D01*
X119165430Y-76431582D01*
X119180406Y-76429610D01*
X119309138Y-76412662D01*
X119443054Y-76357193D01*
X119558050Y-76268953D01*
X119646290Y-76153957D01*
X119701759Y-76020041D01*
X119720679Y-75876332D01*
X119711766Y-75808632D01*
X120173588Y-75808632D01*
X120173588Y-75808633D01*
X120192508Y-75952341D01*
X120192509Y-75952345D01*
X120247975Y-76086255D01*
X120247976Y-76086257D01*
X120247977Y-76086258D01*
X120336217Y-76201254D01*
X120451213Y-76289494D01*
X120585129Y-76344963D01*
X120712118Y-76361681D01*
X120728837Y-76363883D01*
X120728838Y-76363883D01*
X120728839Y-76363883D01*
X120743815Y-76361911D01*
X120872547Y-76344963D01*
X121006463Y-76289494D01*
X121121459Y-76201254D01*
X121209699Y-76086258D01*
X121265168Y-75952342D01*
X121284088Y-75808633D01*
X121283723Y-75805864D01*
X121274953Y-75739250D01*
X121265168Y-75664924D01*
X121209699Y-75531008D01*
X121121459Y-75416012D01*
X121006463Y-75327772D01*
X121006462Y-75327771D01*
X121006460Y-75327770D01*
X120872550Y-75272304D01*
X120872548Y-75272303D01*
X120872547Y-75272303D01*
X120800692Y-75262843D01*
X120728839Y-75253383D01*
X120728837Y-75253383D01*
X120585129Y-75272303D01*
X120585125Y-75272304D01*
X120451215Y-75327770D01*
X120336217Y-75416012D01*
X120247975Y-75531010D01*
X120192509Y-75664920D01*
X120192508Y-75664924D01*
X120173588Y-75808632D01*
X119711766Y-75808632D01*
X119701759Y-75732623D01*
X119646290Y-75598707D01*
X119558050Y-75483711D01*
X119443054Y-75395471D01*
X119443053Y-75395470D01*
X119443051Y-75395469D01*
X119309141Y-75340003D01*
X119309139Y-75340002D01*
X119309138Y-75340002D01*
X119216244Y-75327772D01*
X119165430Y-75321082D01*
X119165428Y-75321082D01*
X119021720Y-75340002D01*
X119021716Y-75340003D01*
X118887806Y-75395469D01*
X118772808Y-75483711D01*
X118684566Y-75598709D01*
X118629100Y-75732619D01*
X118629099Y-75732623D01*
X118610179Y-75876332D01*
X96500500Y-75876332D01*
X96500500Y-73405995D01*
X102130592Y-73405995D01*
X102130592Y-73406004D01*
X102150196Y-73667620D01*
X102150197Y-73667625D01*
X102150197Y-73667629D01*
X102150198Y-73667630D01*
X102154923Y-73688330D01*
X102208576Y-73923402D01*
X102208578Y-73923411D01*
X102208580Y-73923416D01*
X102304432Y-74167643D01*
X102435614Y-74394857D01*
X102536897Y-74521862D01*
X102599198Y-74599985D01*
X102710373Y-74703139D01*
X102791521Y-74778433D01*
X103008296Y-74926228D01*
X103008301Y-74926230D01*
X103008302Y-74926231D01*
X103008303Y-74926232D01*
X103133843Y-74986688D01*
X103244673Y-75040061D01*
X103244674Y-75040061D01*
X103244677Y-75040063D01*
X103495385Y-75117396D01*
X103754818Y-75156500D01*
X104017182Y-75156500D01*
X104276615Y-75117396D01*
X104472414Y-75057000D01*
X110442750Y-75057000D01*
X110453249Y-75136750D01*
X110461670Y-75200708D01*
X110461671Y-75200712D01*
X110517137Y-75334622D01*
X110517138Y-75334624D01*
X110517139Y-75334625D01*
X110605379Y-75449621D01*
X110720375Y-75537861D01*
X110720376Y-75537861D01*
X110720377Y-75537862D01*
X110765013Y-75556350D01*
X110854291Y-75593330D01*
X110981280Y-75610048D01*
X110997999Y-75612250D01*
X110998000Y-75612250D01*
X110998001Y-75612250D01*
X111012977Y-75610278D01*
X111141709Y-75593330D01*
X111275625Y-75537861D01*
X111390621Y-75449621D01*
X111478861Y-75334625D01*
X111534330Y-75200709D01*
X111553250Y-75057000D01*
X111536530Y-74929999D01*
X113998750Y-74929999D01*
X113998750Y-74930000D01*
X114017670Y-75073708D01*
X114017671Y-75073712D01*
X114073137Y-75207622D01*
X114073138Y-75207624D01*
X114073139Y-75207625D01*
X114161379Y-75322621D01*
X114276375Y-75410861D01*
X114276376Y-75410861D01*
X114276377Y-75410862D01*
X114321013Y-75429350D01*
X114410291Y-75466330D01*
X114537280Y-75483048D01*
X114553999Y-75485250D01*
X114554000Y-75485250D01*
X114554001Y-75485250D01*
X114568977Y-75483278D01*
X114697709Y-75466330D01*
X114831625Y-75410861D01*
X114946621Y-75322621D01*
X115034861Y-75207625D01*
X115090330Y-75073709D01*
X115109250Y-74930000D01*
X115090330Y-74786291D01*
X115044646Y-74675999D01*
X124539750Y-74675999D01*
X124539750Y-74676000D01*
X124558670Y-74819708D01*
X124558671Y-74819712D01*
X124614137Y-74953622D01*
X124614138Y-74953624D01*
X124614139Y-74953625D01*
X124702379Y-75068621D01*
X124817375Y-75156861D01*
X124951291Y-75212330D01*
X125078280Y-75229048D01*
X125094999Y-75231250D01*
X125095000Y-75231250D01*
X125095001Y-75231250D01*
X125109977Y-75229278D01*
X125238709Y-75212330D01*
X125307107Y-75183999D01*
X135715750Y-75183999D01*
X135715750Y-75184000D01*
X135734670Y-75327708D01*
X135734671Y-75327712D01*
X135790137Y-75461622D01*
X135790138Y-75461624D01*
X135790139Y-75461625D01*
X135878379Y-75576621D01*
X135993375Y-75664861D01*
X136127291Y-75720330D01*
X136254280Y-75737048D01*
X136270999Y-75739250D01*
X136271000Y-75739250D01*
X136271001Y-75739250D01*
X136285977Y-75737278D01*
X136414709Y-75720330D01*
X136483105Y-75692000D01*
X143462750Y-75692000D01*
X143477740Y-75805862D01*
X143481670Y-75835708D01*
X143481671Y-75835712D01*
X143537137Y-75969622D01*
X143537138Y-75969624D01*
X143537139Y-75969625D01*
X143625379Y-76084621D01*
X143740375Y-76172861D01*
X143740376Y-76172861D01*
X143740377Y-76172862D01*
X143777839Y-76188379D01*
X143874291Y-76228330D01*
X144001280Y-76245048D01*
X144017999Y-76247250D01*
X144018000Y-76247250D01*
X144018001Y-76247250D01*
X144032977Y-76245278D01*
X144161709Y-76228330D01*
X144295625Y-76172861D01*
X144410621Y-76084621D01*
X144498861Y-75969625D01*
X144554330Y-75835709D01*
X144573250Y-75692000D01*
X144554330Y-75548291D01*
X144498861Y-75414375D01*
X144410621Y-75299379D01*
X144295625Y-75211139D01*
X144295624Y-75211138D01*
X144295622Y-75211137D01*
X144161712Y-75155671D01*
X144161710Y-75155670D01*
X144161709Y-75155670D01*
X144089854Y-75146210D01*
X144018001Y-75136750D01*
X144017999Y-75136750D01*
X143874291Y-75155670D01*
X143874287Y-75155671D01*
X143740377Y-75211137D01*
X143625379Y-75299379D01*
X143537137Y-75414377D01*
X143481671Y-75548287D01*
X143481670Y-75548291D01*
X143475741Y-75593329D01*
X143462750Y-75692000D01*
X136483105Y-75692000D01*
X136548625Y-75664861D01*
X136663621Y-75576621D01*
X136751861Y-75461625D01*
X136807330Y-75327709D01*
X136826250Y-75184000D01*
X136807330Y-75040291D01*
X136751861Y-74906375D01*
X136663621Y-74791379D01*
X136548625Y-74703139D01*
X136548624Y-74703138D01*
X136548622Y-74703137D01*
X136414712Y-74647671D01*
X136414710Y-74647670D01*
X136414709Y-74647670D01*
X136342854Y-74638210D01*
X136271001Y-74628750D01*
X136270999Y-74628750D01*
X136127291Y-74647670D01*
X136127287Y-74647671D01*
X135993377Y-74703137D01*
X135878379Y-74791379D01*
X135790137Y-74906377D01*
X135734671Y-75040287D01*
X135734670Y-75040291D01*
X135715750Y-75183999D01*
X125307107Y-75183999D01*
X125372625Y-75156861D01*
X125487621Y-75068621D01*
X125575861Y-74953625D01*
X125631330Y-74819709D01*
X125650250Y-74676000D01*
X125631330Y-74532291D01*
X125575861Y-74398375D01*
X125487621Y-74283379D01*
X125372625Y-74195139D01*
X125372624Y-74195138D01*
X125372622Y-74195137D01*
X125238712Y-74139671D01*
X125238710Y-74139670D01*
X125238709Y-74139670D01*
X125166854Y-74130210D01*
X125095001Y-74120750D01*
X125094999Y-74120750D01*
X124951291Y-74139670D01*
X124951287Y-74139671D01*
X124817377Y-74195137D01*
X124702379Y-74283379D01*
X124614137Y-74398377D01*
X124558671Y-74532287D01*
X124558670Y-74532291D01*
X124539750Y-74675999D01*
X115044646Y-74675999D01*
X115034861Y-74652375D01*
X114946621Y-74537379D01*
X114831625Y-74449139D01*
X114831624Y-74449138D01*
X114831622Y-74449137D01*
X114697712Y-74393671D01*
X114697710Y-74393670D01*
X114697709Y-74393670D01*
X114625854Y-74384210D01*
X114554001Y-74374750D01*
X114553999Y-74374750D01*
X114410291Y-74393670D01*
X114410287Y-74393671D01*
X114276377Y-74449137D01*
X114161379Y-74537379D01*
X114073137Y-74652377D01*
X114017671Y-74786287D01*
X114017670Y-74786291D01*
X113998750Y-74929999D01*
X111536530Y-74929999D01*
X111534330Y-74913291D01*
X111478861Y-74779375D01*
X111390621Y-74664379D01*
X111275625Y-74576139D01*
X111275624Y-74576138D01*
X111275622Y-74576137D01*
X111141712Y-74520671D01*
X111141710Y-74520670D01*
X111141709Y-74520670D01*
X111069854Y-74511210D01*
X110998001Y-74501750D01*
X110997999Y-74501750D01*
X110854291Y-74520670D01*
X110854287Y-74520671D01*
X110720377Y-74576137D01*
X110605379Y-74664379D01*
X110517137Y-74779377D01*
X110461671Y-74913287D01*
X110461670Y-74913291D01*
X110442750Y-75057000D01*
X104472414Y-75057000D01*
X104527323Y-75040063D01*
X104714111Y-74950110D01*
X104763696Y-74926232D01*
X104763696Y-74926231D01*
X104763704Y-74926228D01*
X104980479Y-74778433D01*
X105172805Y-74599981D01*
X105336386Y-74394857D01*
X105467568Y-74167643D01*
X105517272Y-74041000D01*
X149967696Y-74041000D01*
X149978195Y-74120750D01*
X149986616Y-74184708D01*
X149986617Y-74184712D01*
X150042083Y-74318622D01*
X150042084Y-74318624D01*
X150042085Y-74318625D01*
X150130325Y-74433621D01*
X150245321Y-74521861D01*
X150245322Y-74521861D01*
X150245323Y-74521862D01*
X150282785Y-74537379D01*
X150379237Y-74577330D01*
X150506226Y-74594048D01*
X150522945Y-74596250D01*
X150522946Y-74596250D01*
X150522947Y-74596250D01*
X150537923Y-74594278D01*
X150666655Y-74577330D01*
X150800571Y-74521861D01*
X150915567Y-74433621D01*
X151003807Y-74318625D01*
X151059276Y-74184709D01*
X151078196Y-74041000D01*
X151059276Y-73897291D01*
X151003807Y-73763375D01*
X150915567Y-73648379D01*
X150800571Y-73560139D01*
X150800570Y-73560138D01*
X150800568Y-73560137D01*
X150666658Y-73504671D01*
X150666656Y-73504670D01*
X150666655Y-73504670D01*
X150594800Y-73495210D01*
X150522947Y-73485750D01*
X150522945Y-73485750D01*
X150379237Y-73504670D01*
X150379233Y-73504671D01*
X150245323Y-73560137D01*
X150130325Y-73648379D01*
X150042083Y-73763377D01*
X149986617Y-73897287D01*
X149986616Y-73897291D01*
X149983177Y-73923416D01*
X149967696Y-74041000D01*
X105517272Y-74041000D01*
X105563420Y-73923416D01*
X105621802Y-73667630D01*
X105623245Y-73648379D01*
X105641408Y-73406004D01*
X105641408Y-73405995D01*
X105622374Y-73151999D01*
X124539750Y-73151999D01*
X124539750Y-73152000D01*
X124558670Y-73295708D01*
X124558671Y-73295712D01*
X124614137Y-73429622D01*
X124614138Y-73429624D01*
X124614139Y-73429625D01*
X124702379Y-73544621D01*
X124817375Y-73632861D01*
X124951291Y-73688330D01*
X125078280Y-73705048D01*
X125094999Y-73707250D01*
X125095000Y-73707250D01*
X125095001Y-73707250D01*
X125109977Y-73705278D01*
X125238709Y-73688330D01*
X125372625Y-73632861D01*
X125487621Y-73544621D01*
X125575861Y-73429625D01*
X125631330Y-73295709D01*
X125650250Y-73152000D01*
X125649245Y-73144370D01*
X125648048Y-73135280D01*
X125631330Y-73008291D01*
X125581752Y-72888597D01*
X125575862Y-72874377D01*
X125575861Y-72874376D01*
X125575861Y-72874375D01*
X125496537Y-72770999D01*
X128857750Y-72770999D01*
X128857750Y-72771000D01*
X128876670Y-72914708D01*
X128876671Y-72914712D01*
X128932137Y-73048622D01*
X128932138Y-73048624D01*
X128932139Y-73048625D01*
X129020379Y-73163621D01*
X129135375Y-73251861D01*
X129269291Y-73307330D01*
X129396280Y-73324048D01*
X129412999Y-73326250D01*
X129413000Y-73326250D01*
X129413001Y-73326250D01*
X129427977Y-73324278D01*
X129556709Y-73307330D01*
X129690625Y-73251861D01*
X129805621Y-73163621D01*
X129893861Y-73048625D01*
X129949330Y-72914709D01*
X129968250Y-72771000D01*
X129949330Y-72627291D01*
X129893861Y-72493375D01*
X129805621Y-72378379D01*
X129690625Y-72290139D01*
X129673047Y-72282858D01*
X129628602Y-72264448D01*
X129574199Y-72220607D01*
X129572691Y-72216077D01*
X129506485Y-72228023D01*
X129503563Y-72227673D01*
X129449892Y-72220607D01*
X129413001Y-72215750D01*
X129412999Y-72215750D01*
X129269291Y-72234670D01*
X129269287Y-72234671D01*
X129135377Y-72290137D01*
X129020379Y-72378379D01*
X128932137Y-72493377D01*
X128876671Y-72627287D01*
X128876670Y-72627291D01*
X128857750Y-72770999D01*
X125496537Y-72770999D01*
X125487621Y-72759379D01*
X125372625Y-72671139D01*
X125372624Y-72671138D01*
X125372622Y-72671137D01*
X125238712Y-72615671D01*
X125238710Y-72615670D01*
X125238709Y-72615670D01*
X125166854Y-72606210D01*
X125095001Y-72596750D01*
X125094999Y-72596750D01*
X124951291Y-72615670D01*
X124951287Y-72615671D01*
X124817377Y-72671137D01*
X124702379Y-72759379D01*
X124614137Y-72874377D01*
X124558671Y-73008287D01*
X124558670Y-73008291D01*
X124539750Y-73151999D01*
X105622374Y-73151999D01*
X105621803Y-73144379D01*
X105621802Y-73144374D01*
X105621802Y-73144370D01*
X105563420Y-72888584D01*
X105467568Y-72644357D01*
X105336386Y-72417143D01*
X105326701Y-72404999D01*
X122380825Y-72404999D01*
X122380825Y-72405000D01*
X122399745Y-72548708D01*
X122399746Y-72548712D01*
X122455212Y-72682622D01*
X122455213Y-72682624D01*
X122455214Y-72682625D01*
X122543454Y-72797621D01*
X122658450Y-72885861D01*
X122658451Y-72885861D01*
X122658452Y-72885862D01*
X122665024Y-72888584D01*
X122792366Y-72941330D01*
X122919355Y-72958048D01*
X122936074Y-72960250D01*
X122936075Y-72960250D01*
X122936076Y-72960250D01*
X122951052Y-72958278D01*
X123079784Y-72941330D01*
X123213700Y-72885861D01*
X123328696Y-72797621D01*
X123416936Y-72682625D01*
X123472405Y-72548709D01*
X123491325Y-72405000D01*
X123472405Y-72261291D01*
X123416936Y-72127375D01*
X123328696Y-72012379D01*
X123213700Y-71924139D01*
X123213699Y-71924138D01*
X123213697Y-71924137D01*
X123079787Y-71868671D01*
X123079785Y-71868670D01*
X123079784Y-71868670D01*
X122974904Y-71854862D01*
X122936076Y-71849750D01*
X122936074Y-71849750D01*
X122792366Y-71868670D01*
X122792362Y-71868671D01*
X122658452Y-71924137D01*
X122543454Y-72012379D01*
X122455212Y-72127377D01*
X122399746Y-72261287D01*
X122399745Y-72261291D01*
X122380825Y-72404999D01*
X105326701Y-72404999D01*
X105172805Y-72212019D01*
X105172804Y-72212018D01*
X105172801Y-72212014D01*
X104980479Y-72033567D01*
X104960508Y-72019951D01*
X104763704Y-71885772D01*
X104763700Y-71885770D01*
X104763697Y-71885768D01*
X104763696Y-71885767D01*
X104527325Y-71771938D01*
X104527327Y-71771938D01*
X104276623Y-71694606D01*
X104276619Y-71694605D01*
X104276615Y-71694604D01*
X104156500Y-71676499D01*
X124548031Y-71676499D01*
X124548031Y-71676500D01*
X124566951Y-71820208D01*
X124566952Y-71820212D01*
X124622418Y-71954122D01*
X124622419Y-71954124D01*
X124622420Y-71954125D01*
X124710660Y-72069121D01*
X124825656Y-72157361D01*
X124959572Y-72212830D01*
X125086561Y-72229548D01*
X125103280Y-72231750D01*
X125103281Y-72231750D01*
X125103282Y-72231750D01*
X125118258Y-72229778D01*
X125246990Y-72212830D01*
X125380906Y-72157361D01*
X125495902Y-72069121D01*
X125584142Y-71954125D01*
X125639611Y-71820209D01*
X125658531Y-71676500D01*
X125639611Y-71532791D01*
X125619244Y-71483621D01*
X129227546Y-71483621D01*
X129234019Y-71532791D01*
X129246466Y-71627329D01*
X129246467Y-71627333D01*
X129301933Y-71761243D01*
X129301934Y-71761245D01*
X129301935Y-71761246D01*
X129390175Y-71876242D01*
X129505171Y-71964482D01*
X129527152Y-71973586D01*
X129567192Y-71990172D01*
X129621596Y-72034013D01*
X129623103Y-72038542D01*
X129689310Y-72026598D01*
X129692150Y-72026937D01*
X129782796Y-72038871D01*
X129926505Y-72019951D01*
X130060421Y-71964482D01*
X130175417Y-71876242D01*
X130263657Y-71761246D01*
X130319126Y-71627330D01*
X130338046Y-71483621D01*
X130323614Y-71373999D01*
X134699750Y-71373999D01*
X134699750Y-71374000D01*
X134718670Y-71517708D01*
X134718671Y-71517712D01*
X134774137Y-71651622D01*
X134774138Y-71651624D01*
X134774139Y-71651625D01*
X134862379Y-71766621D01*
X134977375Y-71854861D01*
X135111291Y-71910330D01*
X135238280Y-71927048D01*
X135254999Y-71929250D01*
X135255000Y-71929250D01*
X135255001Y-71929250D01*
X135269977Y-71927278D01*
X135398709Y-71910330D01*
X135532625Y-71854861D01*
X135647621Y-71766621D01*
X135735861Y-71651625D01*
X135791330Y-71517709D01*
X135793530Y-71500999D01*
X143335750Y-71500999D01*
X143335750Y-71501000D01*
X143354670Y-71644708D01*
X143354671Y-71644712D01*
X143410137Y-71778622D01*
X143410138Y-71778624D01*
X143410139Y-71778625D01*
X143498379Y-71893621D01*
X143613375Y-71981861D01*
X143747291Y-72037330D01*
X143874280Y-72054048D01*
X143890999Y-72056250D01*
X143891000Y-72056250D01*
X143891001Y-72056250D01*
X143905977Y-72054278D01*
X144034709Y-72037330D01*
X144168625Y-71981861D01*
X144283621Y-71893621D01*
X144371861Y-71778625D01*
X144427330Y-71644709D01*
X144446250Y-71501000D01*
X144427330Y-71357291D01*
X144371861Y-71223375D01*
X144283621Y-71108379D01*
X144168625Y-71020139D01*
X144168624Y-71020138D01*
X144168622Y-71020137D01*
X144034712Y-70964671D01*
X144034710Y-70964670D01*
X144034709Y-70964670D01*
X143962854Y-70955210D01*
X143891001Y-70945750D01*
X143890999Y-70945750D01*
X143747291Y-70964670D01*
X143747287Y-70964671D01*
X143613377Y-71020137D01*
X143498379Y-71108379D01*
X143410137Y-71223377D01*
X143354671Y-71357287D01*
X143354670Y-71357291D01*
X143335750Y-71500999D01*
X135793530Y-71500999D01*
X135810250Y-71374000D01*
X135791330Y-71230291D01*
X135735861Y-71096375D01*
X135647621Y-70981379D01*
X135532625Y-70893139D01*
X135532624Y-70893138D01*
X135532622Y-70893137D01*
X135398712Y-70837671D01*
X135398710Y-70837670D01*
X135398709Y-70837670D01*
X135326854Y-70828210D01*
X135255001Y-70818750D01*
X135254999Y-70818750D01*
X135111291Y-70837670D01*
X135111287Y-70837671D01*
X134977377Y-70893137D01*
X134862379Y-70981379D01*
X134774137Y-71096377D01*
X134718671Y-71230287D01*
X134718670Y-71230291D01*
X134699750Y-71373999D01*
X130323614Y-71373999D01*
X130319126Y-71339912D01*
X130263657Y-71205996D01*
X130175417Y-71091000D01*
X130060421Y-71002760D01*
X130060420Y-71002759D01*
X130060418Y-71002758D01*
X129926508Y-70947292D01*
X129926506Y-70947291D01*
X129926505Y-70947291D01*
X129854650Y-70937831D01*
X129782797Y-70928371D01*
X129782795Y-70928371D01*
X129639087Y-70947291D01*
X129639083Y-70947292D01*
X129505173Y-71002758D01*
X129390175Y-71091000D01*
X129301933Y-71205998D01*
X129246467Y-71339908D01*
X129246466Y-71339912D01*
X129227546Y-71483621D01*
X125619244Y-71483621D01*
X125584142Y-71398875D01*
X125495902Y-71283879D01*
X125380906Y-71195639D01*
X125380905Y-71195638D01*
X125380903Y-71195637D01*
X125246993Y-71140171D01*
X125246991Y-71140170D01*
X125246990Y-71140170D01*
X125175135Y-71130710D01*
X125103282Y-71121250D01*
X125103280Y-71121250D01*
X124959572Y-71140170D01*
X124959568Y-71140171D01*
X124825658Y-71195637D01*
X124710660Y-71283879D01*
X124622418Y-71398877D01*
X124566952Y-71532787D01*
X124566951Y-71532791D01*
X124548031Y-71676499D01*
X104156500Y-71676499D01*
X104151823Y-71675794D01*
X104017187Y-71655500D01*
X104017182Y-71655500D01*
X103754818Y-71655500D01*
X103754812Y-71655500D01*
X103593247Y-71679853D01*
X103495385Y-71694604D01*
X103495382Y-71694605D01*
X103495376Y-71694606D01*
X103244673Y-71771938D01*
X103008303Y-71885767D01*
X103008302Y-71885768D01*
X102791520Y-72033567D01*
X102599198Y-72212014D01*
X102435614Y-72417143D01*
X102304432Y-72644356D01*
X102208582Y-72888578D01*
X102208576Y-72888597D01*
X102150197Y-73144374D01*
X102150196Y-73144379D01*
X102130592Y-73405995D01*
X96500500Y-73405995D01*
X96500500Y-69511831D01*
X97937050Y-69511831D01*
X97937050Y-69738169D01*
X97940570Y-69760390D01*
X97972458Y-69961722D01*
X97972458Y-69961725D01*
X98042398Y-70176978D01*
X98042400Y-70176981D01*
X98145155Y-70378650D01*
X98278193Y-70561761D01*
X98438239Y-70721807D01*
X98621350Y-70854845D01*
X98823019Y-70957600D01*
X98823021Y-70957601D01*
X99015489Y-71020137D01*
X99038279Y-71027542D01*
X99261831Y-71062950D01*
X99261832Y-71062950D01*
X99488168Y-71062950D01*
X99488169Y-71062950D01*
X99711721Y-71027542D01*
X99711724Y-71027541D01*
X99711725Y-71027541D01*
X99926978Y-70957601D01*
X99926978Y-70957600D01*
X99926981Y-70957600D01*
X100128650Y-70854845D01*
X100311761Y-70721807D01*
X100471807Y-70561761D01*
X100604845Y-70378650D01*
X100707600Y-70176981D01*
X100733411Y-70097542D01*
X100777541Y-69961725D01*
X100777541Y-69961724D01*
X100777542Y-69961721D01*
X100812950Y-69738169D01*
X100812950Y-69511831D01*
X101112050Y-69511831D01*
X101112050Y-69738169D01*
X101115570Y-69760390D01*
X101147458Y-69961722D01*
X101147458Y-69961725D01*
X101217398Y-70176978D01*
X101217400Y-70176981D01*
X101320155Y-70378650D01*
X101453193Y-70561761D01*
X101613239Y-70721807D01*
X101796350Y-70854845D01*
X101998019Y-70957600D01*
X101998021Y-70957601D01*
X102190489Y-71020137D01*
X102213279Y-71027542D01*
X102436831Y-71062950D01*
X102436832Y-71062950D01*
X102663168Y-71062950D01*
X102663169Y-71062950D01*
X102886721Y-71027542D01*
X102886724Y-71027541D01*
X102886725Y-71027541D01*
X103039199Y-70977999D01*
X121618750Y-70977999D01*
X121618750Y-70978000D01*
X121637670Y-71121708D01*
X121637671Y-71121712D01*
X121693137Y-71255622D01*
X121693138Y-71255624D01*
X121693139Y-71255625D01*
X121781379Y-71370621D01*
X121896375Y-71458861D01*
X122030291Y-71514330D01*
X122157280Y-71531048D01*
X122173999Y-71533250D01*
X122174000Y-71533250D01*
X122174001Y-71533250D01*
X122188977Y-71531278D01*
X122317709Y-71514330D01*
X122451625Y-71458861D01*
X122566621Y-71370621D01*
X122654861Y-71255625D01*
X122710330Y-71121709D01*
X122729250Y-70978000D01*
X122710330Y-70834291D01*
X122654861Y-70700375D01*
X122566621Y-70585379D01*
X122451625Y-70497139D01*
X122451624Y-70497138D01*
X122451622Y-70497137D01*
X122317712Y-70441671D01*
X122317710Y-70441670D01*
X122317709Y-70441670D01*
X122245854Y-70432210D01*
X122174001Y-70422750D01*
X122173999Y-70422750D01*
X122030291Y-70441670D01*
X122030287Y-70441671D01*
X121896377Y-70497137D01*
X121781379Y-70585379D01*
X121693137Y-70700377D01*
X121637671Y-70834287D01*
X121637670Y-70834291D01*
X121618750Y-70977999D01*
X103039199Y-70977999D01*
X103101978Y-70957601D01*
X103101978Y-70957600D01*
X103101981Y-70957600D01*
X103303650Y-70854845D01*
X103486761Y-70721807D01*
X103646807Y-70561761D01*
X103779845Y-70378650D01*
X103810257Y-70318963D01*
X122897547Y-70318963D01*
X122897547Y-70318964D01*
X122916467Y-70462672D01*
X122916468Y-70462676D01*
X122971934Y-70596586D01*
X122971935Y-70596588D01*
X122971936Y-70596589D01*
X123060176Y-70711585D01*
X123175172Y-70799825D01*
X123309088Y-70855294D01*
X123436077Y-70872012D01*
X123452796Y-70874214D01*
X123452797Y-70874214D01*
X123452798Y-70874214D01*
X123467774Y-70872242D01*
X123596506Y-70855294D01*
X123730422Y-70799825D01*
X123845418Y-70711585D01*
X123933658Y-70596589D01*
X123989127Y-70462673D01*
X124008047Y-70318964D01*
X123989127Y-70175255D01*
X123933658Y-70041339D01*
X123845418Y-69926343D01*
X123730422Y-69838103D01*
X123730421Y-69838102D01*
X123730419Y-69838101D01*
X123596509Y-69782635D01*
X123596507Y-69782634D01*
X123596506Y-69782634D01*
X123524651Y-69773174D01*
X123452798Y-69763714D01*
X123452796Y-69763714D01*
X123309088Y-69782634D01*
X123309084Y-69782635D01*
X123175174Y-69838101D01*
X123060176Y-69926343D01*
X122971934Y-70041341D01*
X122916468Y-70175251D01*
X122916467Y-70175255D01*
X122897547Y-70318963D01*
X103810257Y-70318963D01*
X103882600Y-70176981D01*
X103908411Y-70097542D01*
X103952541Y-69961725D01*
X103952541Y-69961724D01*
X103952542Y-69961721D01*
X103987950Y-69738169D01*
X103987950Y-69511831D01*
X103952542Y-69288279D01*
X103952541Y-69288275D01*
X103952541Y-69288274D01*
X103882601Y-69073021D01*
X103882599Y-69073018D01*
X103876696Y-69061431D01*
X103825523Y-68960999D01*
X114633750Y-68960999D01*
X114633750Y-68961000D01*
X114652670Y-69104708D01*
X114652671Y-69104712D01*
X114708137Y-69238622D01*
X114708138Y-69238624D01*
X114708139Y-69238625D01*
X114796379Y-69353621D01*
X114911375Y-69441861D01*
X115045291Y-69497330D01*
X115172280Y-69514048D01*
X115188999Y-69516250D01*
X115189000Y-69516250D01*
X115189001Y-69516250D01*
X115203977Y-69514278D01*
X115332709Y-69497330D01*
X115466625Y-69441861D01*
X115581621Y-69353621D01*
X115637595Y-69280674D01*
X121124908Y-69280674D01*
X121124908Y-69280675D01*
X121143828Y-69424383D01*
X121143829Y-69424387D01*
X121199295Y-69558297D01*
X121199296Y-69558299D01*
X121199297Y-69558300D01*
X121287537Y-69673296D01*
X121402533Y-69761536D01*
X121536449Y-69817005D01*
X121663438Y-69833723D01*
X121680157Y-69835925D01*
X121680158Y-69835925D01*
X121680159Y-69835925D01*
X121695135Y-69833953D01*
X121823867Y-69817005D01*
X121957783Y-69761536D01*
X122072779Y-69673296D01*
X122116221Y-69616681D01*
X125828068Y-69616681D01*
X125844062Y-69738169D01*
X125846988Y-69760389D01*
X125846989Y-69760393D01*
X125902455Y-69894303D01*
X125902456Y-69894305D01*
X125902457Y-69894306D01*
X125990697Y-70009302D01*
X126105693Y-70097542D01*
X126239609Y-70153011D01*
X126366598Y-70169729D01*
X126383317Y-70171931D01*
X126383318Y-70171931D01*
X126383319Y-70171931D01*
X126398295Y-70169959D01*
X126527027Y-70153011D01*
X126660943Y-70097542D01*
X126775939Y-70009302D01*
X126864179Y-69894306D01*
X126919648Y-69760390D01*
X126938568Y-69616681D01*
X126932308Y-69569131D01*
X127749066Y-69569131D01*
X127749066Y-69569132D01*
X127767986Y-69712840D01*
X127767987Y-69712844D01*
X127823453Y-69846754D01*
X127823454Y-69846756D01*
X127823455Y-69846757D01*
X127911695Y-69961753D01*
X128026691Y-70049993D01*
X128160607Y-70105462D01*
X128287596Y-70122180D01*
X128304315Y-70124382D01*
X128304316Y-70124382D01*
X128304317Y-70124382D01*
X128319293Y-70122410D01*
X128448025Y-70105462D01*
X128581941Y-70049993D01*
X128696937Y-69961753D01*
X128785177Y-69846757D01*
X128840646Y-69712841D01*
X128859566Y-69569132D01*
X128840646Y-69425423D01*
X128785177Y-69291507D01*
X128696937Y-69176511D01*
X128581941Y-69088271D01*
X128581940Y-69088270D01*
X128581938Y-69088269D01*
X128448028Y-69032803D01*
X128448026Y-69032802D01*
X128448025Y-69032802D01*
X128376170Y-69023342D01*
X128304317Y-69013882D01*
X128304315Y-69013882D01*
X128160607Y-69032802D01*
X128160603Y-69032803D01*
X128026693Y-69088269D01*
X127911695Y-69176511D01*
X127823453Y-69291509D01*
X127767987Y-69425419D01*
X127767986Y-69425423D01*
X127749066Y-69569131D01*
X126932308Y-69569131D01*
X126919648Y-69472972D01*
X126864179Y-69339056D01*
X126775939Y-69224060D01*
X126660943Y-69135820D01*
X126660942Y-69135819D01*
X126660940Y-69135818D01*
X126527030Y-69080352D01*
X126527028Y-69080351D01*
X126527027Y-69080351D01*
X126455172Y-69070891D01*
X126383319Y-69061431D01*
X126383317Y-69061431D01*
X126239609Y-69080351D01*
X126239605Y-69080352D01*
X126105695Y-69135818D01*
X125990697Y-69224060D01*
X125902455Y-69339058D01*
X125846989Y-69472968D01*
X125846988Y-69472972D01*
X125835755Y-69558297D01*
X125828068Y-69616681D01*
X122116221Y-69616681D01*
X122161019Y-69558300D01*
X122216488Y-69424384D01*
X122235408Y-69280675D01*
X122216488Y-69136966D01*
X122173343Y-69032803D01*
X122161020Y-69003052D01*
X122161019Y-69003051D01*
X122161019Y-69003050D01*
X122072779Y-68888054D01*
X121957783Y-68799814D01*
X121957782Y-68799813D01*
X121957780Y-68799812D01*
X121823870Y-68744346D01*
X121823868Y-68744345D01*
X121823867Y-68744345D01*
X121752012Y-68734885D01*
X121680159Y-68725425D01*
X121680157Y-68725425D01*
X121536449Y-68744345D01*
X121536445Y-68744346D01*
X121402535Y-68799812D01*
X121287537Y-68888054D01*
X121199295Y-69003052D01*
X121143829Y-69136962D01*
X121143828Y-69136966D01*
X121124908Y-69280674D01*
X115637595Y-69280674D01*
X115669861Y-69238625D01*
X115725330Y-69104709D01*
X115744250Y-68961000D01*
X115725330Y-68817291D01*
X115671875Y-68688237D01*
X115669862Y-68683377D01*
X115669861Y-68683376D01*
X115669861Y-68683375D01*
X115581621Y-68568379D01*
X115466625Y-68480139D01*
X115466624Y-68480138D01*
X115466622Y-68480137D01*
X115332712Y-68424671D01*
X115332710Y-68424670D01*
X115332709Y-68424670D01*
X115260854Y-68415210D01*
X115189001Y-68405750D01*
X115188999Y-68405750D01*
X115045291Y-68424670D01*
X115045287Y-68424671D01*
X114911377Y-68480137D01*
X114796379Y-68568379D01*
X114708137Y-68683377D01*
X114652671Y-68817287D01*
X114652670Y-68817291D01*
X114633750Y-68960999D01*
X103825523Y-68960999D01*
X103779845Y-68871350D01*
X103646807Y-68688239D01*
X103486761Y-68528193D01*
X103303650Y-68395155D01*
X103101981Y-68292400D01*
X103101978Y-68292398D01*
X102886723Y-68222458D01*
X102719928Y-68196040D01*
X102663169Y-68187050D01*
X102436831Y-68187050D01*
X102380072Y-68196040D01*
X102213277Y-68222458D01*
X102213274Y-68222458D01*
X101998021Y-68292398D01*
X101998018Y-68292400D01*
X101796349Y-68395155D01*
X101714978Y-68454275D01*
X101613239Y-68528193D01*
X101613237Y-68528195D01*
X101613236Y-68528195D01*
X101453195Y-68688236D01*
X101453195Y-68688237D01*
X101453193Y-68688239D01*
X101399661Y-68761920D01*
X101320155Y-68871349D01*
X101217400Y-69073018D01*
X101217398Y-69073021D01*
X101147458Y-69288274D01*
X101147458Y-69288277D01*
X101125900Y-69424387D01*
X101112050Y-69511831D01*
X100812950Y-69511831D01*
X100777542Y-69288279D01*
X100777541Y-69288275D01*
X100777541Y-69288274D01*
X100707601Y-69073021D01*
X100707599Y-69073018D01*
X100701696Y-69061431D01*
X100604845Y-68871350D01*
X100471807Y-68688239D01*
X100311761Y-68528193D01*
X100128650Y-68395155D01*
X99926981Y-68292400D01*
X99926978Y-68292398D01*
X99711723Y-68222458D01*
X99544928Y-68196040D01*
X99488169Y-68187050D01*
X99261831Y-68187050D01*
X99205072Y-68196040D01*
X99038277Y-68222458D01*
X99038274Y-68222458D01*
X98823021Y-68292398D01*
X98823018Y-68292400D01*
X98621349Y-68395155D01*
X98539978Y-68454275D01*
X98438239Y-68528193D01*
X98438237Y-68528195D01*
X98438236Y-68528195D01*
X98278195Y-68688236D01*
X98278195Y-68688237D01*
X98278193Y-68688239D01*
X98224661Y-68761920D01*
X98145155Y-68871349D01*
X98042400Y-69073018D01*
X98042398Y-69073021D01*
X97972458Y-69288274D01*
X97972458Y-69288277D01*
X97950900Y-69424387D01*
X97937050Y-69511831D01*
X96500500Y-69511831D01*
X96500500Y-68308834D01*
X96520185Y-68241795D01*
X96572989Y-68196040D01*
X96642147Y-68186096D01*
X96705703Y-68215121D01*
X96743477Y-68273899D01*
X96746113Y-68284626D01*
X96752860Y-68318542D01*
X96752861Y-68318544D01*
X96809078Y-68454266D01*
X96809083Y-68454275D01*
X96890698Y-68576419D01*
X96890701Y-68576423D01*
X96994576Y-68680298D01*
X96994580Y-68680301D01*
X97116724Y-68761916D01*
X97116730Y-68761919D01*
X97116731Y-68761920D01*
X97252458Y-68818140D01*
X97396540Y-68846799D01*
X97396544Y-68846800D01*
X97396545Y-68846800D01*
X97543456Y-68846800D01*
X97543457Y-68846799D01*
X97687542Y-68818140D01*
X97823269Y-68761920D01*
X97945420Y-68680301D01*
X98049301Y-68576420D01*
X98130920Y-68454269D01*
X98187140Y-68318542D01*
X98215800Y-68174455D01*
X98215800Y-68027545D01*
X98187140Y-67883458D01*
X98130920Y-67747731D01*
X98130919Y-67747730D01*
X98130916Y-67747724D01*
X98049301Y-67625580D01*
X98049298Y-67625576D01*
X97945423Y-67521701D01*
X97945419Y-67521698D01*
X97823275Y-67440083D01*
X97823266Y-67440078D01*
X97687544Y-67383861D01*
X97687545Y-67383861D01*
X97687542Y-67383860D01*
X97687538Y-67383859D01*
X97687534Y-67383858D01*
X97543459Y-67355200D01*
X97543455Y-67355200D01*
X97396545Y-67355200D01*
X97396540Y-67355200D01*
X97252465Y-67383858D01*
X97252455Y-67383861D01*
X97116733Y-67440078D01*
X97116724Y-67440083D01*
X96994580Y-67521698D01*
X96994576Y-67521701D01*
X96890701Y-67625576D01*
X96890698Y-67625580D01*
X96809083Y-67747724D01*
X96809078Y-67747733D01*
X96752861Y-67883455D01*
X96752858Y-67883465D01*
X96746117Y-67917356D01*
X96713732Y-67979267D01*
X96653017Y-68013841D01*
X96583247Y-68010102D01*
X96526575Y-67969235D01*
X96500994Y-67904217D01*
X96500500Y-67893165D01*
X96500500Y-67011540D01*
X101804200Y-67011540D01*
X101804200Y-67158459D01*
X101832858Y-67302534D01*
X101832861Y-67302544D01*
X101889078Y-67438266D01*
X101889083Y-67438275D01*
X101970698Y-67560419D01*
X101970701Y-67560423D01*
X102074576Y-67664298D01*
X102074580Y-67664301D01*
X102196724Y-67745916D01*
X102196733Y-67745921D01*
X102199488Y-67747062D01*
X102332458Y-67802140D01*
X102416407Y-67818838D01*
X102476540Y-67830799D01*
X102476544Y-67830800D01*
X102476545Y-67830800D01*
X102623456Y-67830800D01*
X102623457Y-67830799D01*
X102767542Y-67802140D01*
X102903269Y-67745920D01*
X103025420Y-67664301D01*
X103129301Y-67560420D01*
X103210920Y-67438269D01*
X103267140Y-67302542D01*
X103295800Y-67158455D01*
X103295800Y-67011545D01*
X103279381Y-66929000D01*
X108537750Y-66929000D01*
X108555921Y-67067023D01*
X108556670Y-67072708D01*
X108556671Y-67072712D01*
X108612137Y-67206622D01*
X108612138Y-67206624D01*
X108612139Y-67206625D01*
X108700379Y-67321621D01*
X108815375Y-67409861D01*
X108815376Y-67409861D01*
X108815377Y-67409862D01*
X108860013Y-67428350D01*
X108949291Y-67465330D01*
X109076280Y-67482048D01*
X109092999Y-67484250D01*
X109093000Y-67484250D01*
X109093001Y-67484250D01*
X109107977Y-67482278D01*
X109236709Y-67465330D01*
X109370625Y-67409861D01*
X109485621Y-67321621D01*
X109573861Y-67206625D01*
X109609742Y-67119999D01*
X120983750Y-67119999D01*
X120983750Y-67120000D01*
X121002670Y-67263708D01*
X121002671Y-67263712D01*
X121058137Y-67397622D01*
X121058138Y-67397624D01*
X121058139Y-67397625D01*
X121146379Y-67512621D01*
X121261375Y-67600861D01*
X121395291Y-67656330D01*
X121522280Y-67673048D01*
X121538999Y-67675250D01*
X121539000Y-67675250D01*
X121539001Y-67675250D01*
X121553977Y-67673278D01*
X121682709Y-67656330D01*
X121816625Y-67600861D01*
X121931621Y-67512621D01*
X122019861Y-67397625D01*
X122075330Y-67263709D01*
X122085956Y-67182999D01*
X122761750Y-67182999D01*
X122761750Y-67183000D01*
X122780670Y-67326708D01*
X122780671Y-67326712D01*
X122836137Y-67460622D01*
X122836138Y-67460624D01*
X122836139Y-67460625D01*
X122924379Y-67575621D01*
X123039375Y-67663861D01*
X123039376Y-67663861D01*
X123039377Y-67663862D01*
X123059831Y-67672334D01*
X123173291Y-67719330D01*
X123300280Y-67736048D01*
X123316999Y-67738250D01*
X123317000Y-67738250D01*
X123317001Y-67738250D01*
X123331977Y-67736278D01*
X123460709Y-67719330D01*
X123594625Y-67663861D01*
X123673481Y-67603352D01*
X127057613Y-67603352D01*
X127057613Y-67603353D01*
X127076533Y-67747061D01*
X127076534Y-67747065D01*
X127132000Y-67880975D01*
X127132001Y-67880977D01*
X127132002Y-67880978D01*
X127220242Y-67995974D01*
X127335238Y-68084214D01*
X127469154Y-68139683D01*
X127596143Y-68156401D01*
X127612862Y-68158603D01*
X127612863Y-68158603D01*
X127612864Y-68158603D01*
X127627840Y-68156631D01*
X127756572Y-68139683D01*
X127890488Y-68084214D01*
X128005484Y-67995974D01*
X128093724Y-67880978D01*
X128149193Y-67747062D01*
X128168113Y-67603353D01*
X128149193Y-67459644D01*
X128094132Y-67326712D01*
X128093725Y-67325730D01*
X128093724Y-67325729D01*
X128093724Y-67325728D01*
X128005484Y-67210732D01*
X127980384Y-67191472D01*
X129527229Y-67191472D01*
X129545033Y-67326708D01*
X129546149Y-67335180D01*
X129546150Y-67335184D01*
X129601616Y-67469094D01*
X129601617Y-67469096D01*
X129601618Y-67469097D01*
X129689858Y-67584093D01*
X129804854Y-67672333D01*
X129938770Y-67727802D01*
X130065759Y-67744520D01*
X130082478Y-67746722D01*
X130082479Y-67746722D01*
X130082480Y-67746722D01*
X130097456Y-67744750D01*
X130226188Y-67727802D01*
X130360104Y-67672333D01*
X130475100Y-67584093D01*
X130539629Y-67499998D01*
X139843752Y-67499998D01*
X139860285Y-67625580D01*
X139862672Y-67643706D01*
X139862673Y-67643710D01*
X139918139Y-67777620D01*
X139918140Y-67777622D01*
X139918141Y-67777623D01*
X140006381Y-67892619D01*
X140121377Y-67980859D01*
X140255293Y-68036328D01*
X140382282Y-68053046D01*
X140399001Y-68055248D01*
X140399002Y-68055248D01*
X140399003Y-68055248D01*
X140413979Y-68053276D01*
X140542711Y-68036328D01*
X140676627Y-67980859D01*
X140791623Y-67892619D01*
X140879863Y-67777623D01*
X140935332Y-67643707D01*
X140945826Y-67564000D01*
X143208750Y-67564000D01*
X143220905Y-67656328D01*
X143227670Y-67707708D01*
X143227671Y-67707712D01*
X143283137Y-67841622D01*
X143283138Y-67841624D01*
X143283139Y-67841625D01*
X143371379Y-67956621D01*
X143486375Y-68044861D01*
X143620291Y-68100330D01*
X143747280Y-68117048D01*
X143763999Y-68119250D01*
X143764000Y-68119250D01*
X143764001Y-68119250D01*
X143778977Y-68117278D01*
X143907709Y-68100330D01*
X144041625Y-68044861D01*
X144156621Y-67956621D01*
X144244861Y-67841625D01*
X144300330Y-67707709D01*
X144319250Y-67564000D01*
X144300330Y-67420291D01*
X144251558Y-67302544D01*
X144244862Y-67286377D01*
X144244861Y-67286376D01*
X144244861Y-67286375D01*
X144165537Y-67182999D01*
X149939750Y-67182999D01*
X149939750Y-67183000D01*
X149958670Y-67326708D01*
X149958671Y-67326712D01*
X150014137Y-67460622D01*
X150014138Y-67460624D01*
X150014139Y-67460625D01*
X150102379Y-67575621D01*
X150217375Y-67663861D01*
X150217376Y-67663861D01*
X150217377Y-67663862D01*
X150237831Y-67672334D01*
X150351291Y-67719330D01*
X150478280Y-67736048D01*
X150494999Y-67738250D01*
X150495000Y-67738250D01*
X150495001Y-67738250D01*
X150509977Y-67736278D01*
X150638709Y-67719330D01*
X150772625Y-67663861D01*
X150887621Y-67575621D01*
X150975861Y-67460625D01*
X151031330Y-67326709D01*
X151050250Y-67183000D01*
X151031330Y-67039291D01*
X150975861Y-66905375D01*
X150887621Y-66790379D01*
X150772625Y-66702139D01*
X150772624Y-66702138D01*
X150772622Y-66702137D01*
X150638712Y-66646671D01*
X150638710Y-66646670D01*
X150638709Y-66646670D01*
X150559350Y-66636222D01*
X150495001Y-66627750D01*
X150494999Y-66627750D01*
X150351291Y-66646670D01*
X150351287Y-66646671D01*
X150217377Y-66702137D01*
X150102379Y-66790379D01*
X150014137Y-66905377D01*
X149958671Y-67039287D01*
X149958670Y-67039291D01*
X149939750Y-67182999D01*
X144165537Y-67182999D01*
X144156621Y-67171379D01*
X144041625Y-67083139D01*
X144041624Y-67083138D01*
X144041622Y-67083137D01*
X143907712Y-67027671D01*
X143907710Y-67027670D01*
X143907709Y-67027670D01*
X143785230Y-67011545D01*
X143764001Y-67008750D01*
X143763999Y-67008750D01*
X143620291Y-67027670D01*
X143620287Y-67027671D01*
X143486377Y-67083137D01*
X143371379Y-67171379D01*
X143283137Y-67286377D01*
X143227671Y-67420287D01*
X143227670Y-67420291D01*
X143221741Y-67465329D01*
X143208750Y-67564000D01*
X140945826Y-67564000D01*
X140954252Y-67499998D01*
X140935332Y-67356289D01*
X140880014Y-67222738D01*
X140879864Y-67222375D01*
X140879863Y-67222374D01*
X140879863Y-67222373D01*
X140791623Y-67107377D01*
X140676627Y-67019137D01*
X140676626Y-67019136D01*
X140676624Y-67019135D01*
X140542714Y-66963669D01*
X140542712Y-66963668D01*
X140542711Y-66963668D01*
X140470856Y-66954208D01*
X140399003Y-66944748D01*
X140399001Y-66944748D01*
X140255293Y-66963668D01*
X140255289Y-66963669D01*
X140121379Y-67019135D01*
X140006381Y-67107377D01*
X139918139Y-67222375D01*
X139862673Y-67356285D01*
X139862672Y-67356289D01*
X139851641Y-67440080D01*
X139843752Y-67499998D01*
X130539629Y-67499998D01*
X130563340Y-67469097D01*
X130618809Y-67335181D01*
X130637729Y-67191472D01*
X130636613Y-67182999D01*
X130623466Y-67083139D01*
X130618809Y-67047763D01*
X130576139Y-66944748D01*
X130563341Y-66913849D01*
X130563340Y-66913848D01*
X130563340Y-66913847D01*
X130475100Y-66798851D01*
X130360104Y-66710611D01*
X130360103Y-66710610D01*
X130360101Y-66710609D01*
X130226191Y-66655143D01*
X130226189Y-66655142D01*
X130226188Y-66655142D01*
X130154333Y-66645682D01*
X130082480Y-66636222D01*
X130082478Y-66636222D01*
X129938770Y-66655142D01*
X129938766Y-66655143D01*
X129804856Y-66710609D01*
X129689858Y-66798851D01*
X129601616Y-66913849D01*
X129546150Y-67047759D01*
X129546149Y-67047763D01*
X129528345Y-67182999D01*
X129527229Y-67191472D01*
X127980384Y-67191472D01*
X127890488Y-67122492D01*
X127890487Y-67122491D01*
X127890485Y-67122490D01*
X127756575Y-67067024D01*
X127756573Y-67067023D01*
X127756572Y-67067023D01*
X127684717Y-67057563D01*
X127612864Y-67048103D01*
X127612862Y-67048103D01*
X127469154Y-67067023D01*
X127469150Y-67067024D01*
X127335240Y-67122490D01*
X127220242Y-67210732D01*
X127132000Y-67325730D01*
X127076534Y-67459640D01*
X127076533Y-67459644D01*
X127057613Y-67603352D01*
X123673481Y-67603352D01*
X123709621Y-67575621D01*
X123797861Y-67460625D01*
X123853330Y-67326709D01*
X123872250Y-67183000D01*
X123853330Y-67039291D01*
X123797861Y-66905375D01*
X123709621Y-66790379D01*
X123594625Y-66702139D01*
X123594624Y-66702138D01*
X123594622Y-66702137D01*
X123460712Y-66646671D01*
X123460710Y-66646670D01*
X123460709Y-66646670D01*
X123381350Y-66636222D01*
X123317001Y-66627750D01*
X123316999Y-66627750D01*
X123173291Y-66646670D01*
X123173287Y-66646671D01*
X123039377Y-66702137D01*
X122924379Y-66790379D01*
X122836137Y-66905377D01*
X122780671Y-67039287D01*
X122780670Y-67039291D01*
X122761750Y-67182999D01*
X122085956Y-67182999D01*
X122094250Y-67120000D01*
X122075330Y-66976291D01*
X122038350Y-66887013D01*
X122019862Y-66842377D01*
X122019861Y-66842376D01*
X122019861Y-66842375D01*
X121931621Y-66727379D01*
X121816625Y-66639139D01*
X121816624Y-66639138D01*
X121816622Y-66639137D01*
X121682712Y-66583671D01*
X121682710Y-66583670D01*
X121682709Y-66583670D01*
X121610854Y-66574210D01*
X121539001Y-66564750D01*
X121538999Y-66564750D01*
X121395291Y-66583670D01*
X121395287Y-66583671D01*
X121261377Y-66639137D01*
X121146379Y-66727379D01*
X121058137Y-66842377D01*
X121002671Y-66976287D01*
X121002670Y-66976291D01*
X120983750Y-67119999D01*
X109609742Y-67119999D01*
X109629330Y-67072709D01*
X109648250Y-66929000D01*
X109629330Y-66785291D01*
X109573861Y-66651375D01*
X109485621Y-66536379D01*
X109370625Y-66448139D01*
X109370624Y-66448138D01*
X109370622Y-66448137D01*
X109236712Y-66392671D01*
X109236710Y-66392670D01*
X109236709Y-66392670D01*
X109164854Y-66383210D01*
X109093001Y-66373750D01*
X109092999Y-66373750D01*
X108949291Y-66392670D01*
X108949287Y-66392671D01*
X108815377Y-66448137D01*
X108700379Y-66536379D01*
X108612137Y-66651377D01*
X108556671Y-66785287D01*
X108556670Y-66785291D01*
X108537750Y-66929000D01*
X103279381Y-66929000D01*
X103267140Y-66867458D01*
X103210920Y-66731731D01*
X103210919Y-66731730D01*
X103210916Y-66731724D01*
X103129301Y-66609580D01*
X103129298Y-66609576D01*
X103025423Y-66505701D01*
X103025419Y-66505698D01*
X102903275Y-66424083D01*
X102903266Y-66424078D01*
X102767544Y-66367861D01*
X102767545Y-66367861D01*
X102767542Y-66367860D01*
X102767538Y-66367859D01*
X102767534Y-66367858D01*
X102623459Y-66339200D01*
X102623455Y-66339200D01*
X102476545Y-66339200D01*
X102476540Y-66339200D01*
X102332465Y-66367858D01*
X102332455Y-66367861D01*
X102196733Y-66424078D01*
X102196724Y-66424083D01*
X102074580Y-66505698D01*
X102074576Y-66505701D01*
X101970701Y-66609576D01*
X101970698Y-66609580D01*
X101889083Y-66731724D01*
X101889078Y-66731733D01*
X101832861Y-66867455D01*
X101832858Y-66867465D01*
X101804200Y-67011540D01*
X96500500Y-67011540D01*
X96500500Y-66276834D01*
X96520185Y-66209795D01*
X96572989Y-66164040D01*
X96642147Y-66154096D01*
X96705703Y-66183121D01*
X96743477Y-66241899D01*
X96746113Y-66252626D01*
X96752860Y-66286542D01*
X96752861Y-66286544D01*
X96809078Y-66422266D01*
X96809083Y-66422275D01*
X96890698Y-66544419D01*
X96890701Y-66544423D01*
X96994576Y-66648298D01*
X96994580Y-66648301D01*
X97116724Y-66729916D01*
X97116730Y-66729919D01*
X97116731Y-66729920D01*
X97252458Y-66786140D01*
X97396540Y-66814799D01*
X97396544Y-66814800D01*
X97396545Y-66814800D01*
X97543456Y-66814800D01*
X97543457Y-66814799D01*
X97687542Y-66786140D01*
X97823269Y-66729920D01*
X97945420Y-66648301D01*
X98049301Y-66544420D01*
X98130920Y-66422269D01*
X98187140Y-66286542D01*
X98215800Y-66142455D01*
X98215800Y-65995545D01*
X98187140Y-65851458D01*
X98130920Y-65715731D01*
X98130919Y-65715730D01*
X98130916Y-65715724D01*
X98049301Y-65593580D01*
X98049298Y-65593576D01*
X97945423Y-65489701D01*
X97945419Y-65489698D01*
X97823275Y-65408083D01*
X97823266Y-65408078D01*
X97687544Y-65351861D01*
X97687545Y-65351861D01*
X97687542Y-65351860D01*
X97687538Y-65351859D01*
X97687534Y-65351858D01*
X97543459Y-65323200D01*
X97543455Y-65323200D01*
X97396545Y-65323200D01*
X97396540Y-65323200D01*
X97252465Y-65351858D01*
X97252455Y-65351861D01*
X97116733Y-65408078D01*
X97116724Y-65408083D01*
X96994580Y-65489698D01*
X96994576Y-65489701D01*
X96890701Y-65593576D01*
X96890698Y-65593580D01*
X96809083Y-65715724D01*
X96809078Y-65715733D01*
X96752861Y-65851455D01*
X96752858Y-65851465D01*
X96746117Y-65885356D01*
X96713732Y-65947267D01*
X96653017Y-65981841D01*
X96583247Y-65978102D01*
X96526575Y-65937235D01*
X96500994Y-65872217D01*
X96500500Y-65861165D01*
X96500500Y-64431831D01*
X97937050Y-64431831D01*
X97937050Y-64658168D01*
X97972458Y-64881722D01*
X97972458Y-64881725D01*
X98042398Y-65096978D01*
X98042400Y-65096981D01*
X98145155Y-65298650D01*
X98278193Y-65481761D01*
X98438239Y-65641807D01*
X98621350Y-65774845D01*
X98823019Y-65877600D01*
X98823021Y-65877601D01*
X98931966Y-65912999D01*
X99038279Y-65947542D01*
X99261831Y-65982950D01*
X99261832Y-65982950D01*
X99488168Y-65982950D01*
X99488169Y-65982950D01*
X99711721Y-65947542D01*
X99711724Y-65947541D01*
X99711725Y-65947541D01*
X99926978Y-65877601D01*
X99926978Y-65877600D01*
X99926981Y-65877600D01*
X100128650Y-65774845D01*
X100311761Y-65641807D01*
X100471807Y-65481761D01*
X100604845Y-65298650D01*
X100707600Y-65096981D01*
X100707601Y-65096978D01*
X100777541Y-64881725D01*
X100777541Y-64881724D01*
X100777542Y-64881721D01*
X100812950Y-64658169D01*
X100812950Y-64431831D01*
X101112050Y-64431831D01*
X101112050Y-64658168D01*
X101147458Y-64881722D01*
X101147458Y-64881725D01*
X101217398Y-65096978D01*
X101217400Y-65096981D01*
X101320155Y-65298650D01*
X101453193Y-65481761D01*
X101613239Y-65641807D01*
X101796350Y-65774845D01*
X101998019Y-65877600D01*
X101998021Y-65877601D01*
X102106966Y-65912999D01*
X102213279Y-65947542D01*
X102436831Y-65982950D01*
X102436832Y-65982950D01*
X102663168Y-65982950D01*
X102663169Y-65982950D01*
X102886721Y-65947542D01*
X102886724Y-65947541D01*
X102886725Y-65947541D01*
X102993031Y-65913000D01*
X103838750Y-65913000D01*
X103849617Y-65995545D01*
X103857670Y-66056708D01*
X103857671Y-66056712D01*
X103913137Y-66190622D01*
X103913138Y-66190624D01*
X103913139Y-66190625D01*
X104001379Y-66305621D01*
X104116375Y-66393861D01*
X104250291Y-66449330D01*
X104377280Y-66466048D01*
X104393999Y-66468250D01*
X104394000Y-66468250D01*
X104394001Y-66468250D01*
X104408977Y-66466278D01*
X104537709Y-66449330D01*
X104671625Y-66393861D01*
X104786621Y-66305621D01*
X104874861Y-66190625D01*
X104930330Y-66056709D01*
X104949250Y-65913000D01*
X104937006Y-65820000D01*
X122473553Y-65820000D01*
X122490344Y-65947541D01*
X122492473Y-65963708D01*
X122492474Y-65963712D01*
X122547940Y-66097622D01*
X122547941Y-66097624D01*
X122547942Y-66097625D01*
X122636182Y-66212621D01*
X122751178Y-66300861D01*
X122885094Y-66356330D01*
X123012083Y-66373048D01*
X123028802Y-66375250D01*
X123028803Y-66375250D01*
X123028804Y-66375250D01*
X123043780Y-66373278D01*
X123172512Y-66356330D01*
X123306428Y-66300861D01*
X123421424Y-66212621D01*
X123509664Y-66097625D01*
X123565133Y-65963709D01*
X123576323Y-65878711D01*
X159149500Y-65878711D01*
X159149500Y-66121288D01*
X159181161Y-66361785D01*
X159243947Y-66596104D01*
X159322311Y-66785291D01*
X159336776Y-66820212D01*
X159458064Y-67030289D01*
X159458066Y-67030292D01*
X159458067Y-67030293D01*
X159605733Y-67222736D01*
X159605739Y-67222743D01*
X159777256Y-67394260D01*
X159777263Y-67394266D01*
X159862466Y-67459644D01*
X159969711Y-67541936D01*
X160179788Y-67663224D01*
X160360917Y-67738250D01*
X160381370Y-67746722D01*
X160403900Y-67756054D01*
X160638211Y-67818838D01*
X160818586Y-67842584D01*
X160878711Y-67850500D01*
X160878712Y-67850500D01*
X161121289Y-67850500D01*
X161169388Y-67844167D01*
X161361789Y-67818838D01*
X161596100Y-67756054D01*
X161820212Y-67663224D01*
X162030289Y-67541936D01*
X162222738Y-67394265D01*
X162394265Y-67222738D01*
X162541936Y-67030289D01*
X162663224Y-66820212D01*
X162756054Y-66596100D01*
X162818838Y-66361789D01*
X162850500Y-66121288D01*
X162850500Y-65878712D01*
X162850353Y-65877599D01*
X162834722Y-65758862D01*
X162818838Y-65638211D01*
X162756054Y-65403900D01*
X162663224Y-65179788D01*
X162541936Y-64969711D01*
X162394265Y-64777262D01*
X162394260Y-64777256D01*
X162222743Y-64605739D01*
X162222736Y-64605733D01*
X162030293Y-64458067D01*
X162030292Y-64458066D01*
X162030289Y-64458064D01*
X161820212Y-64336776D01*
X161820205Y-64336773D01*
X161596104Y-64243947D01*
X161361785Y-64181161D01*
X161121289Y-64149500D01*
X161121288Y-64149500D01*
X160878712Y-64149500D01*
X160878711Y-64149500D01*
X160638214Y-64181161D01*
X160403895Y-64243947D01*
X160179794Y-64336773D01*
X160179785Y-64336777D01*
X159969706Y-64458067D01*
X159777263Y-64605733D01*
X159777256Y-64605739D01*
X159605739Y-64777256D01*
X159605733Y-64777263D01*
X159458067Y-64969706D01*
X159336777Y-65179785D01*
X159336773Y-65179794D01*
X159243947Y-65403895D01*
X159181161Y-65638214D01*
X159149500Y-65878711D01*
X123576323Y-65878711D01*
X123584053Y-65820000D01*
X123565133Y-65676291D01*
X123509664Y-65542375D01*
X123421424Y-65427379D01*
X123306428Y-65339139D01*
X123306427Y-65339138D01*
X123306425Y-65339137D01*
X123172515Y-65283671D01*
X123172513Y-65283670D01*
X123172512Y-65283670D01*
X123129445Y-65278000D01*
X150447750Y-65278000D01*
X150464875Y-65408078D01*
X150466670Y-65421708D01*
X150466671Y-65421712D01*
X150522137Y-65555622D01*
X150522138Y-65555624D01*
X150522139Y-65555625D01*
X150610379Y-65670621D01*
X150725375Y-65758861D01*
X150725376Y-65758861D01*
X150725377Y-65758862D01*
X150763962Y-65774844D01*
X150859291Y-65814330D01*
X150986280Y-65831048D01*
X151002999Y-65833250D01*
X151003000Y-65833250D01*
X151003001Y-65833250D01*
X151017977Y-65831278D01*
X151146709Y-65814330D01*
X151280625Y-65758861D01*
X151395621Y-65670621D01*
X151483861Y-65555625D01*
X151539330Y-65421709D01*
X151558250Y-65278000D01*
X151539330Y-65134291D01*
X151483861Y-65000375D01*
X151395621Y-64885379D01*
X151280625Y-64797139D01*
X151280624Y-64797138D01*
X151280622Y-64797137D01*
X151146712Y-64741671D01*
X151146710Y-64741670D01*
X151146709Y-64741670D01*
X151074854Y-64732210D01*
X151003001Y-64722750D01*
X151002999Y-64722750D01*
X150859291Y-64741670D01*
X150859287Y-64741671D01*
X150725377Y-64797137D01*
X150610379Y-64885379D01*
X150522137Y-65000377D01*
X150466671Y-65134287D01*
X150466670Y-65134291D01*
X150447750Y-65278000D01*
X123129445Y-65278000D01*
X123100657Y-65274210D01*
X123028804Y-65264750D01*
X123028802Y-65264750D01*
X122885094Y-65283670D01*
X122885090Y-65283671D01*
X122751180Y-65339137D01*
X122636182Y-65427379D01*
X122547940Y-65542377D01*
X122492474Y-65676287D01*
X122492473Y-65676291D01*
X122474300Y-65814329D01*
X122473553Y-65820000D01*
X104937006Y-65820000D01*
X104930330Y-65769291D01*
X104874861Y-65635375D01*
X104786621Y-65520379D01*
X104671625Y-65432139D01*
X104671624Y-65432138D01*
X104671622Y-65432137D01*
X104537712Y-65376671D01*
X104537710Y-65376670D01*
X104537709Y-65376670D01*
X104465854Y-65367210D01*
X104394001Y-65357750D01*
X104393999Y-65357750D01*
X104250291Y-65376670D01*
X104250287Y-65376671D01*
X104116377Y-65432137D01*
X104001379Y-65520379D01*
X103913137Y-65635377D01*
X103857671Y-65769287D01*
X103857670Y-65769291D01*
X103843411Y-65877600D01*
X103838750Y-65913000D01*
X102993031Y-65913000D01*
X103101978Y-65877601D01*
X103101978Y-65877600D01*
X103101981Y-65877600D01*
X103303650Y-65774845D01*
X103486761Y-65641807D01*
X103646807Y-65481761D01*
X103779845Y-65298650D01*
X103882600Y-65096981D01*
X103882601Y-65096978D01*
X103952541Y-64881725D01*
X103952541Y-64881724D01*
X103952542Y-64881721D01*
X103987950Y-64658169D01*
X103987950Y-64431831D01*
X103952542Y-64208279D01*
X103952541Y-64208275D01*
X103952541Y-64208274D01*
X103887468Y-64007999D01*
X132540750Y-64007999D01*
X132540750Y-64008000D01*
X132559670Y-64151708D01*
X132559671Y-64151712D01*
X132615137Y-64285622D01*
X132615138Y-64285624D01*
X132615139Y-64285625D01*
X132703379Y-64400621D01*
X132818375Y-64488861D01*
X132952291Y-64544330D01*
X133079280Y-64561048D01*
X133095999Y-64563250D01*
X133096000Y-64563250D01*
X133096001Y-64563250D01*
X133110977Y-64561278D01*
X133239709Y-64544330D01*
X133373625Y-64488861D01*
X133488621Y-64400621D01*
X133576861Y-64285625D01*
X133632330Y-64151709D01*
X133651250Y-64008000D01*
X133632330Y-63864291D01*
X133576861Y-63730375D01*
X133488621Y-63615379D01*
X133373625Y-63527139D01*
X133373624Y-63527138D01*
X133373622Y-63527137D01*
X133239712Y-63471671D01*
X133239710Y-63471670D01*
X133239709Y-63471670D01*
X133167854Y-63462210D01*
X133096001Y-63452750D01*
X133095999Y-63452750D01*
X132952291Y-63471670D01*
X132952287Y-63471671D01*
X132818377Y-63527137D01*
X132703379Y-63615379D01*
X132615137Y-63730377D01*
X132559671Y-63864287D01*
X132559670Y-63864291D01*
X132540750Y-64007999D01*
X103887468Y-64007999D01*
X103882601Y-63993021D01*
X103882599Y-63993018D01*
X103839958Y-63909328D01*
X103779845Y-63791350D01*
X103646807Y-63608239D01*
X103486761Y-63448193D01*
X103304915Y-63316074D01*
X139002750Y-63316074D01*
X139002750Y-63316075D01*
X139021670Y-63459783D01*
X139021671Y-63459787D01*
X139077137Y-63593697D01*
X139077138Y-63593699D01*
X139077139Y-63593700D01*
X139165379Y-63708696D01*
X139280375Y-63796936D01*
X139414291Y-63852405D01*
X139541280Y-63869123D01*
X139557999Y-63871325D01*
X139558000Y-63871325D01*
X139558001Y-63871325D01*
X139572977Y-63869353D01*
X139701709Y-63852405D01*
X139835625Y-63796936D01*
X139950621Y-63708696D01*
X140038861Y-63593700D01*
X140094330Y-63459784D01*
X140105756Y-63372998D01*
X156797751Y-63372998D01*
X156797751Y-63372999D01*
X156816671Y-63516707D01*
X156816672Y-63516711D01*
X156872138Y-63650621D01*
X156872139Y-63650623D01*
X156872140Y-63650624D01*
X156960380Y-63765620D01*
X157075376Y-63853860D01*
X157209292Y-63909329D01*
X157336281Y-63926047D01*
X157353000Y-63928249D01*
X157353001Y-63928249D01*
X157353002Y-63928249D01*
X157367978Y-63926277D01*
X157496710Y-63909329D01*
X157630626Y-63853860D01*
X157745622Y-63765620D01*
X157833862Y-63650624D01*
X157889331Y-63516708D01*
X157908251Y-63372999D01*
X157889331Y-63229290D01*
X157833862Y-63095374D01*
X157745622Y-62980378D01*
X157630626Y-62892138D01*
X157630625Y-62892137D01*
X157630623Y-62892136D01*
X157496713Y-62836670D01*
X157496711Y-62836669D01*
X157496710Y-62836669D01*
X157424855Y-62827209D01*
X157353002Y-62817749D01*
X157353000Y-62817749D01*
X157209292Y-62836669D01*
X157209288Y-62836670D01*
X157075378Y-62892136D01*
X156960380Y-62980378D01*
X156872138Y-63095376D01*
X156816672Y-63229286D01*
X156816671Y-63229290D01*
X156797751Y-63372998D01*
X140105756Y-63372998D01*
X140113250Y-63316075D01*
X140094330Y-63172366D01*
X140038861Y-63038450D01*
X139950621Y-62923454D01*
X139835625Y-62835214D01*
X139835624Y-62835213D01*
X139835622Y-62835212D01*
X139701712Y-62779746D01*
X139701710Y-62779745D01*
X139701709Y-62779745D01*
X139629854Y-62770285D01*
X139558001Y-62760825D01*
X139557999Y-62760825D01*
X139414291Y-62779745D01*
X139414287Y-62779746D01*
X139280377Y-62835212D01*
X139165379Y-62923454D01*
X139077137Y-63038452D01*
X139021671Y-63172362D01*
X139021670Y-63172366D01*
X139002750Y-63316074D01*
X103304915Y-63316074D01*
X103303650Y-63315155D01*
X103101981Y-63212400D01*
X103101978Y-63212398D01*
X102886723Y-63142458D01*
X102737686Y-63118852D01*
X102663169Y-63107050D01*
X102436831Y-63107050D01*
X102362313Y-63118852D01*
X102213277Y-63142458D01*
X102213274Y-63142458D01*
X101998021Y-63212398D01*
X101998018Y-63212400D01*
X101796349Y-63315155D01*
X101691878Y-63391058D01*
X101613239Y-63448193D01*
X101613237Y-63448195D01*
X101613236Y-63448195D01*
X101453195Y-63608236D01*
X101453195Y-63608237D01*
X101453193Y-63608239D01*
X101396058Y-63686878D01*
X101320155Y-63791349D01*
X101217400Y-63993018D01*
X101217398Y-63993021D01*
X101147458Y-64208274D01*
X101147458Y-64208277D01*
X101112050Y-64431831D01*
X100812950Y-64431831D01*
X100777542Y-64208279D01*
X100777541Y-64208275D01*
X100777541Y-64208274D01*
X100707601Y-63993021D01*
X100707599Y-63993018D01*
X100664958Y-63909328D01*
X100604845Y-63791350D01*
X100471807Y-63608239D01*
X100311761Y-63448193D01*
X100128650Y-63315155D01*
X99926981Y-63212400D01*
X99926978Y-63212398D01*
X99711723Y-63142458D01*
X99562686Y-63118852D01*
X99488169Y-63107050D01*
X99261831Y-63107050D01*
X99187313Y-63118852D01*
X99038277Y-63142458D01*
X99038274Y-63142458D01*
X98823021Y-63212398D01*
X98823018Y-63212400D01*
X98621349Y-63315155D01*
X98516878Y-63391058D01*
X98438239Y-63448193D01*
X98438237Y-63448195D01*
X98438236Y-63448195D01*
X98278195Y-63608236D01*
X98278195Y-63608237D01*
X98278193Y-63608239D01*
X98221058Y-63686878D01*
X98145155Y-63791349D01*
X98042400Y-63993018D01*
X98042398Y-63993021D01*
X97972458Y-64208274D01*
X97972458Y-64208277D01*
X97937050Y-64431831D01*
X96500500Y-64431831D01*
X96500500Y-62624500D01*
X96520185Y-62557461D01*
X96572989Y-62511706D01*
X96624500Y-62500500D01*
X164375500Y-62500500D01*
X164442539Y-62520185D01*
G37*
%TD.AperFunction*%
%TD*%
M02*
