%TF.GenerationSoftware,KiCad,Pcbnew,8.0.3*%
%TF.CreationDate,2024-07-07T18:19:15-07:00*%
%TF.ProjectId,JPBms2,4a50426d-7332-42e6-9b69-6361645f7063,rev?*%
%TF.SameCoordinates,Original*%
%TF.FileFunction,Copper,L1,Top*%
%TF.FilePolarity,Positive*%
%FSLAX46Y46*%
G04 Gerber Fmt 4.6, Leading zero omitted, Abs format (unit mm)*
G04 Created by KiCad (PCBNEW 8.0.3) date 2024-07-07 18:19:15*
%MOMM*%
%LPD*%
G01*
G04 APERTURE LIST*
G04 Aperture macros list*
%AMRoundRect*
0 Rectangle with rounded corners*
0 $1 Rounding radius*
0 $2 $3 $4 $5 $6 $7 $8 $9 X,Y pos of 4 corners*
0 Add a 4 corners polygon primitive as box body*
4,1,4,$2,$3,$4,$5,$6,$7,$8,$9,$2,$3,0*
0 Add four circle primitives for the rounded corners*
1,1,$1+$1,$2,$3*
1,1,$1+$1,$4,$5*
1,1,$1+$1,$6,$7*
1,1,$1+$1,$8,$9*
0 Add four rect primitives between the rounded corners*
20,1,$1+$1,$2,$3,$4,$5,0*
20,1,$1+$1,$4,$5,$6,$7,0*
20,1,$1+$1,$6,$7,$8,$9,0*
20,1,$1+$1,$8,$9,$2,$3,0*%
G04 Aperture macros list end*
%ADD10C,0.300000*%
%TA.AperFunction,NonConductor*%
%ADD11C,0.300000*%
%TD*%
%TA.AperFunction,SMDPad,CuDef*%
%ADD12RoundRect,0.250000X1.000000X0.650000X-1.000000X0.650000X-1.000000X-0.650000X1.000000X-0.650000X0*%
%TD*%
%TA.AperFunction,SMDPad,CuDef*%
%ADD13RoundRect,0.218750X0.218750X0.256250X-0.218750X0.256250X-0.218750X-0.256250X0.218750X-0.256250X0*%
%TD*%
%TA.AperFunction,SMDPad,CuDef*%
%ADD14RoundRect,0.150000X0.725000X0.150000X-0.725000X0.150000X-0.725000X-0.150000X0.725000X-0.150000X0*%
%TD*%
%TA.AperFunction,SMDPad,CuDef*%
%ADD15RoundRect,0.200000X-0.200000X-0.275000X0.200000X-0.275000X0.200000X0.275000X-0.200000X0.275000X0*%
%TD*%
%TA.AperFunction,SMDPad,CuDef*%
%ADD16RoundRect,0.225000X-0.250000X0.225000X-0.250000X-0.225000X0.250000X-0.225000X0.250000X0.225000X0*%
%TD*%
%TA.AperFunction,SMDPad,CuDef*%
%ADD17RoundRect,0.225000X0.225000X0.250000X-0.225000X0.250000X-0.225000X-0.250000X0.225000X-0.250000X0*%
%TD*%
%TA.AperFunction,SMDPad,CuDef*%
%ADD18RoundRect,0.112500X0.237500X-0.112500X0.237500X0.112500X-0.237500X0.112500X-0.237500X-0.112500X0*%
%TD*%
%TA.AperFunction,SMDPad,CuDef*%
%ADD19RoundRect,0.150000X-0.587500X-0.150000X0.587500X-0.150000X0.587500X0.150000X-0.587500X0.150000X0*%
%TD*%
%TA.AperFunction,SMDPad,CuDef*%
%ADD20R,2.350000X3.500000*%
%TD*%
%TA.AperFunction,SMDPad,CuDef*%
%ADD21RoundRect,0.225000X0.250000X-0.225000X0.250000X0.225000X-0.250000X0.225000X-0.250000X-0.225000X0*%
%TD*%
%TA.AperFunction,SMDPad,CuDef*%
%ADD22RoundRect,0.250000X-0.375000X-0.625000X0.375000X-0.625000X0.375000X0.625000X-0.375000X0.625000X0*%
%TD*%
%TA.AperFunction,SMDPad,CuDef*%
%ADD23RoundRect,0.200000X0.200000X0.275000X-0.200000X0.275000X-0.200000X-0.275000X0.200000X-0.275000X0*%
%TD*%
%TA.AperFunction,SMDPad,CuDef*%
%ADD24RoundRect,0.250000X0.650000X-0.325000X0.650000X0.325000X-0.650000X0.325000X-0.650000X-0.325000X0*%
%TD*%
%TA.AperFunction,ComponentPad*%
%ADD25C,1.400000*%
%TD*%
%TA.AperFunction,ComponentPad*%
%ADD26R,3.500000X3.500000*%
%TD*%
%TA.AperFunction,ComponentPad*%
%ADD27C,3.500000*%
%TD*%
%TA.AperFunction,SMDPad,CuDef*%
%ADD28RoundRect,0.135000X0.135000X0.185000X-0.135000X0.185000X-0.135000X-0.185000X0.135000X-0.185000X0*%
%TD*%
%TA.AperFunction,ConnectorPad*%
%ADD29C,0.787400*%
%TD*%
%TA.AperFunction,ComponentPad*%
%ADD30RoundRect,0.250000X-0.725000X0.600000X-0.725000X-0.600000X0.725000X-0.600000X0.725000X0.600000X0*%
%TD*%
%TA.AperFunction,ComponentPad*%
%ADD31O,1.950000X1.700000*%
%TD*%
%TA.AperFunction,SMDPad,CuDef*%
%ADD32RoundRect,0.250000X-0.312500X-0.625000X0.312500X-0.625000X0.312500X0.625000X-0.312500X0.625000X0*%
%TD*%
%TA.AperFunction,SMDPad,CuDef*%
%ADD33RoundRect,0.112500X-0.237500X0.112500X-0.237500X-0.112500X0.237500X-0.112500X0.237500X0.112500X0*%
%TD*%
%TA.AperFunction,SMDPad,CuDef*%
%ADD34RoundRect,0.200000X0.275000X-0.200000X0.275000X0.200000X-0.275000X0.200000X-0.275000X-0.200000X0*%
%TD*%
%TA.AperFunction,SMDPad,CuDef*%
%ADD35RoundRect,0.200000X-0.275000X0.200000X-0.275000X-0.200000X0.275000X-0.200000X0.275000X0.200000X0*%
%TD*%
%TA.AperFunction,SMDPad,CuDef*%
%ADD36RoundRect,0.135000X-0.135000X-0.185000X0.135000X-0.185000X0.135000X0.185000X-0.135000X0.185000X0*%
%TD*%
%TA.AperFunction,SMDPad,CuDef*%
%ADD37RoundRect,0.150000X-0.150000X0.512500X-0.150000X-0.512500X0.150000X-0.512500X0.150000X0.512500X0*%
%TD*%
%TA.AperFunction,ComponentPad*%
%ADD38C,3.000000*%
%TD*%
%TA.AperFunction,SMDPad,CuDef*%
%ADD39RoundRect,0.250000X-0.650000X0.325000X-0.650000X-0.325000X0.650000X-0.325000X0.650000X0.325000X0*%
%TD*%
%TA.AperFunction,SMDPad,CuDef*%
%ADD40RoundRect,0.112500X-0.112500X-0.237500X0.112500X-0.237500X0.112500X0.237500X-0.112500X0.237500X0*%
%TD*%
%TA.AperFunction,SMDPad,CuDef*%
%ADD41RoundRect,0.150000X0.587500X0.150000X-0.587500X0.150000X-0.587500X-0.150000X0.587500X-0.150000X0*%
%TD*%
%TA.AperFunction,SMDPad,CuDef*%
%ADD42RoundRect,0.200000X-0.200000X-0.450000X0.200000X-0.450000X0.200000X0.450000X-0.200000X0.450000X0*%
%TD*%
%TA.AperFunction,SMDPad,CuDef*%
%ADD43RoundRect,0.250001X-0.799999X-1.249999X0.799999X-1.249999X0.799999X1.249999X-0.799999X1.249999X0*%
%TD*%
%TA.AperFunction,SMDPad,CuDef*%
%ADD44RoundRect,0.135000X0.185000X-0.135000X0.185000X0.135000X-0.185000X0.135000X-0.185000X-0.135000X0*%
%TD*%
%TA.AperFunction,SMDPad,CuDef*%
%ADD45RoundRect,0.250000X0.650000X-1.000000X0.650000X1.000000X-0.650000X1.000000X-0.650000X-1.000000X0*%
%TD*%
%TA.AperFunction,SMDPad,CuDef*%
%ADD46RoundRect,0.225000X-0.225000X-0.250000X0.225000X-0.250000X0.225000X0.250000X-0.225000X0.250000X0*%
%TD*%
%TA.AperFunction,SMDPad,CuDef*%
%ADD47RoundRect,0.050000X-0.300000X0.150000X-0.300000X-0.150000X0.300000X-0.150000X0.300000X0.150000X0*%
%TD*%
%TA.AperFunction,SMDPad,CuDef*%
%ADD48RoundRect,0.150000X-0.725000X-0.150000X0.725000X-0.150000X0.725000X0.150000X-0.725000X0.150000X0*%
%TD*%
%TA.AperFunction,SMDPad,CuDef*%
%ADD49RoundRect,0.075000X0.075000X-0.700000X0.075000X0.700000X-0.075000X0.700000X-0.075000X-0.700000X0*%
%TD*%
%TA.AperFunction,SMDPad,CuDef*%
%ADD50RoundRect,0.075000X0.700000X-0.075000X0.700000X0.075000X-0.700000X0.075000X-0.700000X-0.075000X0*%
%TD*%
%TA.AperFunction,SMDPad,CuDef*%
%ADD51R,1.000000X0.750000*%
%TD*%
%TA.AperFunction,ViaPad*%
%ADD52C,0.600000*%
%TD*%
%TA.AperFunction,Conductor*%
%ADD53C,0.200000*%
%TD*%
%TA.AperFunction,Conductor*%
%ADD54C,1.000000*%
%TD*%
G04 APERTURE END LIST*
D10*
D11*
X182740225Y-49796416D02*
X183240225Y-51296416D01*
X183240225Y-51296416D02*
X183740225Y-49796416D01*
X185025939Y-51296416D02*
X184168796Y-51296416D01*
X184597367Y-51296416D02*
X184597367Y-49796416D01*
X184597367Y-49796416D02*
X184454510Y-50010702D01*
X184454510Y-50010702D02*
X184311653Y-50153559D01*
X184311653Y-50153559D02*
X184168796Y-50224988D01*
X185668795Y-51153559D02*
X185740224Y-51224988D01*
X185740224Y-51224988D02*
X185668795Y-51296416D01*
X185668795Y-51296416D02*
X185597367Y-51224988D01*
X185597367Y-51224988D02*
X185668795Y-51153559D01*
X185668795Y-51153559D02*
X185668795Y-51296416D01*
X186240224Y-49796416D02*
X187168796Y-49796416D01*
X187168796Y-49796416D02*
X186668796Y-50367845D01*
X186668796Y-50367845D02*
X186883081Y-50367845D01*
X186883081Y-50367845D02*
X187025939Y-50439273D01*
X187025939Y-50439273D02*
X187097367Y-50510702D01*
X187097367Y-50510702D02*
X187168796Y-50653559D01*
X187168796Y-50653559D02*
X187168796Y-51010702D01*
X187168796Y-51010702D02*
X187097367Y-51153559D01*
X187097367Y-51153559D02*
X187025939Y-51224988D01*
X187025939Y-51224988D02*
X186883081Y-51296416D01*
X186883081Y-51296416D02*
X186454510Y-51296416D01*
X186454510Y-51296416D02*
X186311653Y-51224988D01*
X186311653Y-51224988D02*
X186240224Y-51153559D01*
X183954510Y-52211332D02*
X184954510Y-53711332D01*
X184954510Y-52211332D02*
X183954510Y-53711332D01*
X187525938Y-53711332D02*
X187025938Y-52997046D01*
X186668795Y-53711332D02*
X186668795Y-52211332D01*
X186668795Y-52211332D02*
X187240224Y-52211332D01*
X187240224Y-52211332D02*
X187383081Y-52282761D01*
X187383081Y-52282761D02*
X187454510Y-52354189D01*
X187454510Y-52354189D02*
X187525938Y-52497046D01*
X187525938Y-52497046D02*
X187525938Y-52711332D01*
X187525938Y-52711332D02*
X187454510Y-52854189D01*
X187454510Y-52854189D02*
X187383081Y-52925618D01*
X187383081Y-52925618D02*
X187240224Y-52997046D01*
X187240224Y-52997046D02*
X186668795Y-52997046D01*
X188740224Y-53639904D02*
X188597367Y-53711332D01*
X188597367Y-53711332D02*
X188311653Y-53711332D01*
X188311653Y-53711332D02*
X188168795Y-53639904D01*
X188168795Y-53639904D02*
X188097367Y-53497046D01*
X188097367Y-53497046D02*
X188097367Y-52925618D01*
X188097367Y-52925618D02*
X188168795Y-52782761D01*
X188168795Y-52782761D02*
X188311653Y-52711332D01*
X188311653Y-52711332D02*
X188597367Y-52711332D01*
X188597367Y-52711332D02*
X188740224Y-52782761D01*
X188740224Y-52782761D02*
X188811653Y-52925618D01*
X188811653Y-52925618D02*
X188811653Y-53068475D01*
X188811653Y-53068475D02*
X188097367Y-53211332D01*
X190097367Y-53639904D02*
X189954509Y-53711332D01*
X189954509Y-53711332D02*
X189668795Y-53711332D01*
X189668795Y-53711332D02*
X189525938Y-53639904D01*
X189525938Y-53639904D02*
X189454509Y-53568475D01*
X189454509Y-53568475D02*
X189383081Y-53425618D01*
X189383081Y-53425618D02*
X189383081Y-52997046D01*
X189383081Y-52997046D02*
X189454509Y-52854189D01*
X189454509Y-52854189D02*
X189525938Y-52782761D01*
X189525938Y-52782761D02*
X189668795Y-52711332D01*
X189668795Y-52711332D02*
X189954509Y-52711332D01*
X189954509Y-52711332D02*
X190097367Y-52782761D01*
X191383081Y-53711332D02*
X191383081Y-52925618D01*
X191383081Y-52925618D02*
X191311652Y-52782761D01*
X191311652Y-52782761D02*
X191168795Y-52711332D01*
X191168795Y-52711332D02*
X190883081Y-52711332D01*
X190883081Y-52711332D02*
X190740223Y-52782761D01*
X191383081Y-53639904D02*
X191240223Y-53711332D01*
X191240223Y-53711332D02*
X190883081Y-53711332D01*
X190883081Y-53711332D02*
X190740223Y-53639904D01*
X190740223Y-53639904D02*
X190668795Y-53497046D01*
X190668795Y-53497046D02*
X190668795Y-53354189D01*
X190668795Y-53354189D02*
X190740223Y-53211332D01*
X190740223Y-53211332D02*
X190883081Y-53139904D01*
X190883081Y-53139904D02*
X191240223Y-53139904D01*
X191240223Y-53139904D02*
X191383081Y-53068475D01*
X192311652Y-53711332D02*
X192168795Y-53639904D01*
X192168795Y-53639904D02*
X192097366Y-53497046D01*
X192097366Y-53497046D02*
X192097366Y-52211332D01*
X193525938Y-53639904D02*
X193383080Y-53711332D01*
X193383080Y-53711332D02*
X193097366Y-53711332D01*
X193097366Y-53711332D02*
X192954509Y-53639904D01*
X192954509Y-53639904D02*
X192883080Y-53568475D01*
X192883080Y-53568475D02*
X192811652Y-53425618D01*
X192811652Y-53425618D02*
X192811652Y-52997046D01*
X192811652Y-52997046D02*
X192883080Y-52854189D01*
X192883080Y-52854189D02*
X192954509Y-52782761D01*
X192954509Y-52782761D02*
X193097366Y-52711332D01*
X193097366Y-52711332D02*
X193383080Y-52711332D01*
X193383080Y-52711332D02*
X193525938Y-52782761D01*
X194811652Y-52711332D02*
X194811652Y-53711332D01*
X194168794Y-52711332D02*
X194168794Y-53497046D01*
X194168794Y-53497046D02*
X194240223Y-53639904D01*
X194240223Y-53639904D02*
X194383080Y-53711332D01*
X194383080Y-53711332D02*
X194597366Y-53711332D01*
X194597366Y-53711332D02*
X194740223Y-53639904D01*
X194740223Y-53639904D02*
X194811652Y-53568475D01*
X195740223Y-53711332D02*
X195597366Y-53639904D01*
X195597366Y-53639904D02*
X195525937Y-53497046D01*
X195525937Y-53497046D02*
X195525937Y-52211332D01*
X196954509Y-53711332D02*
X196954509Y-52925618D01*
X196954509Y-52925618D02*
X196883080Y-52782761D01*
X196883080Y-52782761D02*
X196740223Y-52711332D01*
X196740223Y-52711332D02*
X196454509Y-52711332D01*
X196454509Y-52711332D02*
X196311651Y-52782761D01*
X196954509Y-53639904D02*
X196811651Y-53711332D01*
X196811651Y-53711332D02*
X196454509Y-53711332D01*
X196454509Y-53711332D02*
X196311651Y-53639904D01*
X196311651Y-53639904D02*
X196240223Y-53497046D01*
X196240223Y-53497046D02*
X196240223Y-53354189D01*
X196240223Y-53354189D02*
X196311651Y-53211332D01*
X196311651Y-53211332D02*
X196454509Y-53139904D01*
X196454509Y-53139904D02*
X196811651Y-53139904D01*
X196811651Y-53139904D02*
X196954509Y-53068475D01*
X197454509Y-52711332D02*
X198025937Y-52711332D01*
X197668794Y-52211332D02*
X197668794Y-53497046D01*
X197668794Y-53497046D02*
X197740223Y-53639904D01*
X197740223Y-53639904D02*
X197883080Y-53711332D01*
X197883080Y-53711332D02*
X198025937Y-53711332D01*
X199097366Y-53639904D02*
X198954509Y-53711332D01*
X198954509Y-53711332D02*
X198668795Y-53711332D01*
X198668795Y-53711332D02*
X198525937Y-53639904D01*
X198525937Y-53639904D02*
X198454509Y-53497046D01*
X198454509Y-53497046D02*
X198454509Y-52925618D01*
X198454509Y-52925618D02*
X198525937Y-52782761D01*
X198525937Y-52782761D02*
X198668795Y-52711332D01*
X198668795Y-52711332D02*
X198954509Y-52711332D01*
X198954509Y-52711332D02*
X199097366Y-52782761D01*
X199097366Y-52782761D02*
X199168795Y-52925618D01*
X199168795Y-52925618D02*
X199168795Y-53068475D01*
X199168795Y-53068475D02*
X198454509Y-53211332D01*
X200954508Y-52711332D02*
X200954508Y-54211332D01*
X200954508Y-52782761D02*
X201097366Y-52711332D01*
X201097366Y-52711332D02*
X201383080Y-52711332D01*
X201383080Y-52711332D02*
X201525937Y-52782761D01*
X201525937Y-52782761D02*
X201597366Y-52854189D01*
X201597366Y-52854189D02*
X201668794Y-52997046D01*
X201668794Y-52997046D02*
X201668794Y-53425618D01*
X201668794Y-53425618D02*
X201597366Y-53568475D01*
X201597366Y-53568475D02*
X201525937Y-53639904D01*
X201525937Y-53639904D02*
X201383080Y-53711332D01*
X201383080Y-53711332D02*
X201097366Y-53711332D01*
X201097366Y-53711332D02*
X200954508Y-53639904D01*
X202954509Y-52711332D02*
X202954509Y-53711332D01*
X202311651Y-52711332D02*
X202311651Y-53497046D01*
X202311651Y-53497046D02*
X202383080Y-53639904D01*
X202383080Y-53639904D02*
X202525937Y-53711332D01*
X202525937Y-53711332D02*
X202740223Y-53711332D01*
X202740223Y-53711332D02*
X202883080Y-53639904D01*
X202883080Y-53639904D02*
X202954509Y-53568475D01*
X203883080Y-53711332D02*
X203740223Y-53639904D01*
X203740223Y-53639904D02*
X203668794Y-53497046D01*
X203668794Y-53497046D02*
X203668794Y-52211332D01*
X204668794Y-53711332D02*
X204525937Y-53639904D01*
X204525937Y-53639904D02*
X204454508Y-53497046D01*
X204454508Y-53497046D02*
X204454508Y-52211332D01*
X205883080Y-52711332D02*
X205883080Y-53711332D01*
X205240222Y-52711332D02*
X205240222Y-53497046D01*
X205240222Y-53497046D02*
X205311651Y-53639904D01*
X205311651Y-53639904D02*
X205454508Y-53711332D01*
X205454508Y-53711332D02*
X205668794Y-53711332D01*
X205668794Y-53711332D02*
X205811651Y-53639904D01*
X205811651Y-53639904D02*
X205883080Y-53568475D01*
X206597365Y-52711332D02*
X206597365Y-54211332D01*
X206597365Y-52782761D02*
X206740223Y-52711332D01*
X206740223Y-52711332D02*
X207025937Y-52711332D01*
X207025937Y-52711332D02*
X207168794Y-52782761D01*
X207168794Y-52782761D02*
X207240223Y-52854189D01*
X207240223Y-52854189D02*
X207311651Y-52997046D01*
X207311651Y-52997046D02*
X207311651Y-53425618D01*
X207311651Y-53425618D02*
X207240223Y-53568475D01*
X207240223Y-53568475D02*
X207168794Y-53639904D01*
X207168794Y-53639904D02*
X207025937Y-53711332D01*
X207025937Y-53711332D02*
X206740223Y-53711332D01*
X206740223Y-53711332D02*
X206597365Y-53639904D01*
X209311651Y-53711332D02*
X209168794Y-53639904D01*
X209168794Y-53639904D02*
X209097365Y-53568475D01*
X209097365Y-53568475D02*
X209025937Y-53425618D01*
X209025937Y-53425618D02*
X209025937Y-52997046D01*
X209025937Y-52997046D02*
X209097365Y-52854189D01*
X209097365Y-52854189D02*
X209168794Y-52782761D01*
X209168794Y-52782761D02*
X209311651Y-52711332D01*
X209311651Y-52711332D02*
X209525937Y-52711332D01*
X209525937Y-52711332D02*
X209668794Y-52782761D01*
X209668794Y-52782761D02*
X209740223Y-52854189D01*
X209740223Y-52854189D02*
X209811651Y-52997046D01*
X209811651Y-52997046D02*
X209811651Y-53425618D01*
X209811651Y-53425618D02*
X209740223Y-53568475D01*
X209740223Y-53568475D02*
X209668794Y-53639904D01*
X209668794Y-53639904D02*
X209525937Y-53711332D01*
X209525937Y-53711332D02*
X209311651Y-53711332D01*
X210454508Y-52711332D02*
X210454508Y-53711332D01*
X210454508Y-52854189D02*
X210525937Y-52782761D01*
X210525937Y-52782761D02*
X210668794Y-52711332D01*
X210668794Y-52711332D02*
X210883080Y-52711332D01*
X210883080Y-52711332D02*
X211025937Y-52782761D01*
X211025937Y-52782761D02*
X211097366Y-52925618D01*
X211097366Y-52925618D02*
X211097366Y-53711332D01*
X212883080Y-53639904D02*
X213025937Y-53711332D01*
X213025937Y-53711332D02*
X213311651Y-53711332D01*
X213311651Y-53711332D02*
X213454508Y-53639904D01*
X213454508Y-53639904D02*
X213525937Y-53497046D01*
X213525937Y-53497046D02*
X213525937Y-53425618D01*
X213525937Y-53425618D02*
X213454508Y-53282761D01*
X213454508Y-53282761D02*
X213311651Y-53211332D01*
X213311651Y-53211332D02*
X213097366Y-53211332D01*
X213097366Y-53211332D02*
X212954508Y-53139904D01*
X212954508Y-53139904D02*
X212883080Y-52997046D01*
X212883080Y-52997046D02*
X212883080Y-52925618D01*
X212883080Y-52925618D02*
X212954508Y-52782761D01*
X212954508Y-52782761D02*
X213097366Y-52711332D01*
X213097366Y-52711332D02*
X213311651Y-52711332D01*
X213311651Y-52711332D02*
X213454508Y-52782761D01*
X214025937Y-52711332D02*
X214311652Y-53711332D01*
X214311652Y-53711332D02*
X214597366Y-52997046D01*
X214597366Y-52997046D02*
X214883080Y-53711332D01*
X214883080Y-53711332D02*
X215168794Y-52711332D01*
X215740223Y-53711332D02*
X215740223Y-52711332D01*
X215740223Y-52211332D02*
X215668795Y-52282761D01*
X215668795Y-52282761D02*
X215740223Y-52354189D01*
X215740223Y-52354189D02*
X215811652Y-52282761D01*
X215811652Y-52282761D02*
X215740223Y-52211332D01*
X215740223Y-52211332D02*
X215740223Y-52354189D01*
X216240224Y-52711332D02*
X216811652Y-52711332D01*
X216454509Y-52211332D02*
X216454509Y-53497046D01*
X216454509Y-53497046D02*
X216525938Y-53639904D01*
X216525938Y-53639904D02*
X216668795Y-53711332D01*
X216668795Y-53711332D02*
X216811652Y-53711332D01*
X217954510Y-53639904D02*
X217811652Y-53711332D01*
X217811652Y-53711332D02*
X217525938Y-53711332D01*
X217525938Y-53711332D02*
X217383081Y-53639904D01*
X217383081Y-53639904D02*
X217311652Y-53568475D01*
X217311652Y-53568475D02*
X217240224Y-53425618D01*
X217240224Y-53425618D02*
X217240224Y-52997046D01*
X217240224Y-52997046D02*
X217311652Y-52854189D01*
X217311652Y-52854189D02*
X217383081Y-52782761D01*
X217383081Y-52782761D02*
X217525938Y-52711332D01*
X217525938Y-52711332D02*
X217811652Y-52711332D01*
X217811652Y-52711332D02*
X217954510Y-52782761D01*
X218597366Y-53711332D02*
X218597366Y-52211332D01*
X219240224Y-53711332D02*
X219240224Y-52925618D01*
X219240224Y-52925618D02*
X219168795Y-52782761D01*
X219168795Y-52782761D02*
X219025938Y-52711332D01*
X219025938Y-52711332D02*
X218811652Y-52711332D01*
X218811652Y-52711332D02*
X218668795Y-52782761D01*
X218668795Y-52782761D02*
X218597366Y-52854189D01*
X183954510Y-54626248D02*
X184954510Y-56126248D01*
X184954510Y-54626248D02*
X183954510Y-56126248D01*
X186954510Y-54626248D02*
X187097367Y-54626248D01*
X187097367Y-54626248D02*
X187240224Y-54697677D01*
X187240224Y-54697677D02*
X187311653Y-54769105D01*
X187311653Y-54769105D02*
X187383081Y-54911962D01*
X187383081Y-54911962D02*
X187454510Y-55197677D01*
X187454510Y-55197677D02*
X187454510Y-55554820D01*
X187454510Y-55554820D02*
X187383081Y-55840534D01*
X187383081Y-55840534D02*
X187311653Y-55983391D01*
X187311653Y-55983391D02*
X187240224Y-56054820D01*
X187240224Y-56054820D02*
X187097367Y-56126248D01*
X187097367Y-56126248D02*
X186954510Y-56126248D01*
X186954510Y-56126248D02*
X186811653Y-56054820D01*
X186811653Y-56054820D02*
X186740224Y-55983391D01*
X186740224Y-55983391D02*
X186668795Y-55840534D01*
X186668795Y-55840534D02*
X186597367Y-55554820D01*
X186597367Y-55554820D02*
X186597367Y-55197677D01*
X186597367Y-55197677D02*
X186668795Y-54911962D01*
X186668795Y-54911962D02*
X186740224Y-54769105D01*
X186740224Y-54769105D02*
X186811653Y-54697677D01*
X186811653Y-54697677D02*
X186954510Y-54626248D01*
X188097366Y-55983391D02*
X188168795Y-56054820D01*
X188168795Y-56054820D02*
X188097366Y-56126248D01*
X188097366Y-56126248D02*
X188025938Y-56054820D01*
X188025938Y-56054820D02*
X188097366Y-55983391D01*
X188097366Y-55983391D02*
X188097366Y-56126248D01*
X189597367Y-56126248D02*
X188740224Y-56126248D01*
X189168795Y-56126248D02*
X189168795Y-54626248D01*
X189168795Y-54626248D02*
X189025938Y-54840534D01*
X189025938Y-54840534D02*
X188883081Y-54983391D01*
X188883081Y-54983391D02*
X188740224Y-55054820D01*
X190168795Y-56126248D02*
X191311652Y-54626248D01*
X190383081Y-54626248D02*
X190525938Y-54697677D01*
X190525938Y-54697677D02*
X190597366Y-54840534D01*
X190597366Y-54840534D02*
X190525938Y-54983391D01*
X190525938Y-54983391D02*
X190383081Y-55054820D01*
X190383081Y-55054820D02*
X190240223Y-54983391D01*
X190240223Y-54983391D02*
X190168795Y-54840534D01*
X190168795Y-54840534D02*
X190240223Y-54697677D01*
X190240223Y-54697677D02*
X190383081Y-54626248D01*
X191240223Y-56054820D02*
X191311652Y-55911962D01*
X191311652Y-55911962D02*
X191240223Y-55769105D01*
X191240223Y-55769105D02*
X191097366Y-55697677D01*
X191097366Y-55697677D02*
X190954509Y-55769105D01*
X190954509Y-55769105D02*
X190883081Y-55911962D01*
X190883081Y-55911962D02*
X190954509Y-56054820D01*
X190954509Y-56054820D02*
X191097366Y-56126248D01*
X191097366Y-56126248D02*
X191240223Y-56054820D01*
X193097366Y-56126248D02*
X193097366Y-55126248D01*
X193097366Y-55411962D02*
X193168795Y-55269105D01*
X193168795Y-55269105D02*
X193240224Y-55197677D01*
X193240224Y-55197677D02*
X193383081Y-55126248D01*
X193383081Y-55126248D02*
X193525938Y-55126248D01*
X194597366Y-56054820D02*
X194454509Y-56126248D01*
X194454509Y-56126248D02*
X194168795Y-56126248D01*
X194168795Y-56126248D02*
X194025937Y-56054820D01*
X194025937Y-56054820D02*
X193954509Y-55911962D01*
X193954509Y-55911962D02*
X193954509Y-55340534D01*
X193954509Y-55340534D02*
X194025937Y-55197677D01*
X194025937Y-55197677D02*
X194168795Y-55126248D01*
X194168795Y-55126248D02*
X194454509Y-55126248D01*
X194454509Y-55126248D02*
X194597366Y-55197677D01*
X194597366Y-55197677D02*
X194668795Y-55340534D01*
X194668795Y-55340534D02*
X194668795Y-55483391D01*
X194668795Y-55483391D02*
X193954509Y-55626248D01*
X195240223Y-56054820D02*
X195383080Y-56126248D01*
X195383080Y-56126248D02*
X195668794Y-56126248D01*
X195668794Y-56126248D02*
X195811651Y-56054820D01*
X195811651Y-56054820D02*
X195883080Y-55911962D01*
X195883080Y-55911962D02*
X195883080Y-55840534D01*
X195883080Y-55840534D02*
X195811651Y-55697677D01*
X195811651Y-55697677D02*
X195668794Y-55626248D01*
X195668794Y-55626248D02*
X195454509Y-55626248D01*
X195454509Y-55626248D02*
X195311651Y-55554820D01*
X195311651Y-55554820D02*
X195240223Y-55411962D01*
X195240223Y-55411962D02*
X195240223Y-55340534D01*
X195240223Y-55340534D02*
X195311651Y-55197677D01*
X195311651Y-55197677D02*
X195454509Y-55126248D01*
X195454509Y-55126248D02*
X195668794Y-55126248D01*
X195668794Y-55126248D02*
X195811651Y-55197677D01*
X196525937Y-56126248D02*
X196525937Y-55126248D01*
X196525937Y-54626248D02*
X196454509Y-54697677D01*
X196454509Y-54697677D02*
X196525937Y-54769105D01*
X196525937Y-54769105D02*
X196597366Y-54697677D01*
X196597366Y-54697677D02*
X196525937Y-54626248D01*
X196525937Y-54626248D02*
X196525937Y-54769105D01*
X197168795Y-56054820D02*
X197311652Y-56126248D01*
X197311652Y-56126248D02*
X197597366Y-56126248D01*
X197597366Y-56126248D02*
X197740223Y-56054820D01*
X197740223Y-56054820D02*
X197811652Y-55911962D01*
X197811652Y-55911962D02*
X197811652Y-55840534D01*
X197811652Y-55840534D02*
X197740223Y-55697677D01*
X197740223Y-55697677D02*
X197597366Y-55626248D01*
X197597366Y-55626248D02*
X197383081Y-55626248D01*
X197383081Y-55626248D02*
X197240223Y-55554820D01*
X197240223Y-55554820D02*
X197168795Y-55411962D01*
X197168795Y-55411962D02*
X197168795Y-55340534D01*
X197168795Y-55340534D02*
X197240223Y-55197677D01*
X197240223Y-55197677D02*
X197383081Y-55126248D01*
X197383081Y-55126248D02*
X197597366Y-55126248D01*
X197597366Y-55126248D02*
X197740223Y-55197677D01*
X198240224Y-55126248D02*
X198811652Y-55126248D01*
X198454509Y-54626248D02*
X198454509Y-55911962D01*
X198454509Y-55911962D02*
X198525938Y-56054820D01*
X198525938Y-56054820D02*
X198668795Y-56126248D01*
X198668795Y-56126248D02*
X198811652Y-56126248D01*
X199525938Y-56126248D02*
X199383081Y-56054820D01*
X199383081Y-56054820D02*
X199311652Y-55983391D01*
X199311652Y-55983391D02*
X199240224Y-55840534D01*
X199240224Y-55840534D02*
X199240224Y-55411962D01*
X199240224Y-55411962D02*
X199311652Y-55269105D01*
X199311652Y-55269105D02*
X199383081Y-55197677D01*
X199383081Y-55197677D02*
X199525938Y-55126248D01*
X199525938Y-55126248D02*
X199740224Y-55126248D01*
X199740224Y-55126248D02*
X199883081Y-55197677D01*
X199883081Y-55197677D02*
X199954510Y-55269105D01*
X199954510Y-55269105D02*
X200025938Y-55411962D01*
X200025938Y-55411962D02*
X200025938Y-55840534D01*
X200025938Y-55840534D02*
X199954510Y-55983391D01*
X199954510Y-55983391D02*
X199883081Y-56054820D01*
X199883081Y-56054820D02*
X199740224Y-56126248D01*
X199740224Y-56126248D02*
X199525938Y-56126248D01*
X200668795Y-56126248D02*
X200668795Y-55126248D01*
X200668795Y-55411962D02*
X200740224Y-55269105D01*
X200740224Y-55269105D02*
X200811653Y-55197677D01*
X200811653Y-55197677D02*
X200954510Y-55126248D01*
X200954510Y-55126248D02*
X201097367Y-55126248D01*
X201525938Y-56054820D02*
X201668795Y-56126248D01*
X201668795Y-56126248D02*
X201954509Y-56126248D01*
X201954509Y-56126248D02*
X202097366Y-56054820D01*
X202097366Y-56054820D02*
X202168795Y-55911962D01*
X202168795Y-55911962D02*
X202168795Y-55840534D01*
X202168795Y-55840534D02*
X202097366Y-55697677D01*
X202097366Y-55697677D02*
X201954509Y-55626248D01*
X201954509Y-55626248D02*
X201740224Y-55626248D01*
X201740224Y-55626248D02*
X201597366Y-55554820D01*
X201597366Y-55554820D02*
X201525938Y-55411962D01*
X201525938Y-55411962D02*
X201525938Y-55340534D01*
X201525938Y-55340534D02*
X201597366Y-55197677D01*
X201597366Y-55197677D02*
X201740224Y-55126248D01*
X201740224Y-55126248D02*
X201954509Y-55126248D01*
X201954509Y-55126248D02*
X202097366Y-55197677D01*
X203740224Y-55126248D02*
X204311652Y-55126248D01*
X203954509Y-56126248D02*
X203954509Y-54840534D01*
X203954509Y-54840534D02*
X204025938Y-54697677D01*
X204025938Y-54697677D02*
X204168795Y-54626248D01*
X204168795Y-54626248D02*
X204311652Y-54626248D01*
X205025938Y-56126248D02*
X204883081Y-56054820D01*
X204883081Y-56054820D02*
X204811652Y-55983391D01*
X204811652Y-55983391D02*
X204740224Y-55840534D01*
X204740224Y-55840534D02*
X204740224Y-55411962D01*
X204740224Y-55411962D02*
X204811652Y-55269105D01*
X204811652Y-55269105D02*
X204883081Y-55197677D01*
X204883081Y-55197677D02*
X205025938Y-55126248D01*
X205025938Y-55126248D02*
X205240224Y-55126248D01*
X205240224Y-55126248D02*
X205383081Y-55197677D01*
X205383081Y-55197677D02*
X205454510Y-55269105D01*
X205454510Y-55269105D02*
X205525938Y-55411962D01*
X205525938Y-55411962D02*
X205525938Y-55840534D01*
X205525938Y-55840534D02*
X205454510Y-55983391D01*
X205454510Y-55983391D02*
X205383081Y-56054820D01*
X205383081Y-56054820D02*
X205240224Y-56126248D01*
X205240224Y-56126248D02*
X205025938Y-56126248D01*
X206168795Y-56126248D02*
X206168795Y-55126248D01*
X206168795Y-55411962D02*
X206240224Y-55269105D01*
X206240224Y-55269105D02*
X206311653Y-55197677D01*
X206311653Y-55197677D02*
X206454510Y-55126248D01*
X206454510Y-55126248D02*
X206597367Y-55126248D01*
X208025938Y-55126248D02*
X208597366Y-55126248D01*
X208240223Y-54626248D02*
X208240223Y-55911962D01*
X208240223Y-55911962D02*
X208311652Y-56054820D01*
X208311652Y-56054820D02*
X208454509Y-56126248D01*
X208454509Y-56126248D02*
X208597366Y-56126248D01*
X209097366Y-56126248D02*
X209097366Y-54626248D01*
X209740224Y-56126248D02*
X209740224Y-55340534D01*
X209740224Y-55340534D02*
X209668795Y-55197677D01*
X209668795Y-55197677D02*
X209525938Y-55126248D01*
X209525938Y-55126248D02*
X209311652Y-55126248D01*
X209311652Y-55126248D02*
X209168795Y-55197677D01*
X209168795Y-55197677D02*
X209097366Y-55269105D01*
X211025938Y-56054820D02*
X210883081Y-56126248D01*
X210883081Y-56126248D02*
X210597367Y-56126248D01*
X210597367Y-56126248D02*
X210454509Y-56054820D01*
X210454509Y-56054820D02*
X210383081Y-55911962D01*
X210383081Y-55911962D02*
X210383081Y-55340534D01*
X210383081Y-55340534D02*
X210454509Y-55197677D01*
X210454509Y-55197677D02*
X210597367Y-55126248D01*
X210597367Y-55126248D02*
X210883081Y-55126248D01*
X210883081Y-55126248D02*
X211025938Y-55197677D01*
X211025938Y-55197677D02*
X211097367Y-55340534D01*
X211097367Y-55340534D02*
X211097367Y-55483391D01*
X211097367Y-55483391D02*
X210383081Y-55626248D01*
X212740223Y-55126248D02*
X213097366Y-56126248D01*
X213097366Y-56126248D02*
X213454509Y-55126248D01*
X214240223Y-56126248D02*
X214097366Y-56054820D01*
X214097366Y-56054820D02*
X214025937Y-55983391D01*
X214025937Y-55983391D02*
X213954509Y-55840534D01*
X213954509Y-55840534D02*
X213954509Y-55411962D01*
X213954509Y-55411962D02*
X214025937Y-55269105D01*
X214025937Y-55269105D02*
X214097366Y-55197677D01*
X214097366Y-55197677D02*
X214240223Y-55126248D01*
X214240223Y-55126248D02*
X214454509Y-55126248D01*
X214454509Y-55126248D02*
X214597366Y-55197677D01*
X214597366Y-55197677D02*
X214668795Y-55269105D01*
X214668795Y-55269105D02*
X214740223Y-55411962D01*
X214740223Y-55411962D02*
X214740223Y-55840534D01*
X214740223Y-55840534D02*
X214668795Y-55983391D01*
X214668795Y-55983391D02*
X214597366Y-56054820D01*
X214597366Y-56054820D02*
X214454509Y-56126248D01*
X214454509Y-56126248D02*
X214240223Y-56126248D01*
X215597366Y-56126248D02*
X215454509Y-56054820D01*
X215454509Y-56054820D02*
X215383080Y-55911962D01*
X215383080Y-55911962D02*
X215383080Y-54626248D01*
X215954509Y-55126248D02*
X216525937Y-55126248D01*
X216168794Y-54626248D02*
X216168794Y-55911962D01*
X216168794Y-55911962D02*
X216240223Y-56054820D01*
X216240223Y-56054820D02*
X216383080Y-56126248D01*
X216383080Y-56126248D02*
X216525937Y-56126248D01*
X217668795Y-56126248D02*
X217668795Y-55340534D01*
X217668795Y-55340534D02*
X217597366Y-55197677D01*
X217597366Y-55197677D02*
X217454509Y-55126248D01*
X217454509Y-55126248D02*
X217168795Y-55126248D01*
X217168795Y-55126248D02*
X217025937Y-55197677D01*
X217668795Y-56054820D02*
X217525937Y-56126248D01*
X217525937Y-56126248D02*
X217168795Y-56126248D01*
X217168795Y-56126248D02*
X217025937Y-56054820D01*
X217025937Y-56054820D02*
X216954509Y-55911962D01*
X216954509Y-55911962D02*
X216954509Y-55769105D01*
X216954509Y-55769105D02*
X217025937Y-55626248D01*
X217025937Y-55626248D02*
X217168795Y-55554820D01*
X217168795Y-55554820D02*
X217525937Y-55554820D01*
X217525937Y-55554820D02*
X217668795Y-55483391D01*
X219025938Y-55126248D02*
X219025938Y-56340534D01*
X219025938Y-56340534D02*
X218954509Y-56483391D01*
X218954509Y-56483391D02*
X218883080Y-56554820D01*
X218883080Y-56554820D02*
X218740223Y-56626248D01*
X218740223Y-56626248D02*
X218525938Y-56626248D01*
X218525938Y-56626248D02*
X218383080Y-56554820D01*
X219025938Y-56054820D02*
X218883080Y-56126248D01*
X218883080Y-56126248D02*
X218597366Y-56126248D01*
X218597366Y-56126248D02*
X218454509Y-56054820D01*
X218454509Y-56054820D02*
X218383080Y-55983391D01*
X218383080Y-55983391D02*
X218311652Y-55840534D01*
X218311652Y-55840534D02*
X218311652Y-55411962D01*
X218311652Y-55411962D02*
X218383080Y-55269105D01*
X218383080Y-55269105D02*
X218454509Y-55197677D01*
X218454509Y-55197677D02*
X218597366Y-55126248D01*
X218597366Y-55126248D02*
X218883080Y-55126248D01*
X218883080Y-55126248D02*
X219025938Y-55197677D01*
X220311652Y-56054820D02*
X220168795Y-56126248D01*
X220168795Y-56126248D02*
X219883081Y-56126248D01*
X219883081Y-56126248D02*
X219740223Y-56054820D01*
X219740223Y-56054820D02*
X219668795Y-55911962D01*
X219668795Y-55911962D02*
X219668795Y-55340534D01*
X219668795Y-55340534D02*
X219740223Y-55197677D01*
X219740223Y-55197677D02*
X219883081Y-55126248D01*
X219883081Y-55126248D02*
X220168795Y-55126248D01*
X220168795Y-55126248D02*
X220311652Y-55197677D01*
X220311652Y-55197677D02*
X220383081Y-55340534D01*
X220383081Y-55340534D02*
X220383081Y-55483391D01*
X220383081Y-55483391D02*
X219668795Y-55626248D01*
X222811652Y-56054820D02*
X222668794Y-56126248D01*
X222668794Y-56126248D02*
X222383080Y-56126248D01*
X222383080Y-56126248D02*
X222240223Y-56054820D01*
X222240223Y-56054820D02*
X222168794Y-55983391D01*
X222168794Y-55983391D02*
X222097366Y-55840534D01*
X222097366Y-55840534D02*
X222097366Y-55411962D01*
X222097366Y-55411962D02*
X222168794Y-55269105D01*
X222168794Y-55269105D02*
X222240223Y-55197677D01*
X222240223Y-55197677D02*
X222383080Y-55126248D01*
X222383080Y-55126248D02*
X222668794Y-55126248D01*
X222668794Y-55126248D02*
X222811652Y-55197677D01*
X224097366Y-56126248D02*
X224097366Y-55340534D01*
X224097366Y-55340534D02*
X224025937Y-55197677D01*
X224025937Y-55197677D02*
X223883080Y-55126248D01*
X223883080Y-55126248D02*
X223597366Y-55126248D01*
X223597366Y-55126248D02*
X223454508Y-55197677D01*
X224097366Y-56054820D02*
X223954508Y-56126248D01*
X223954508Y-56126248D02*
X223597366Y-56126248D01*
X223597366Y-56126248D02*
X223454508Y-56054820D01*
X223454508Y-56054820D02*
X223383080Y-55911962D01*
X223383080Y-55911962D02*
X223383080Y-55769105D01*
X223383080Y-55769105D02*
X223454508Y-55626248D01*
X223454508Y-55626248D02*
X223597366Y-55554820D01*
X223597366Y-55554820D02*
X223954508Y-55554820D01*
X223954508Y-55554820D02*
X224097366Y-55483391D01*
X225025937Y-56126248D02*
X224883080Y-56054820D01*
X224883080Y-56054820D02*
X224811651Y-55911962D01*
X224811651Y-55911962D02*
X224811651Y-54626248D01*
X226240223Y-56054820D02*
X226097365Y-56126248D01*
X226097365Y-56126248D02*
X225811651Y-56126248D01*
X225811651Y-56126248D02*
X225668794Y-56054820D01*
X225668794Y-56054820D02*
X225597365Y-55983391D01*
X225597365Y-55983391D02*
X225525937Y-55840534D01*
X225525937Y-55840534D02*
X225525937Y-55411962D01*
X225525937Y-55411962D02*
X225597365Y-55269105D01*
X225597365Y-55269105D02*
X225668794Y-55197677D01*
X225668794Y-55197677D02*
X225811651Y-55126248D01*
X225811651Y-55126248D02*
X226097365Y-55126248D01*
X226097365Y-55126248D02*
X226240223Y-55197677D01*
X227525937Y-55126248D02*
X227525937Y-56126248D01*
X226883079Y-55126248D02*
X226883079Y-55911962D01*
X226883079Y-55911962D02*
X226954508Y-56054820D01*
X226954508Y-56054820D02*
X227097365Y-56126248D01*
X227097365Y-56126248D02*
X227311651Y-56126248D01*
X227311651Y-56126248D02*
X227454508Y-56054820D01*
X227454508Y-56054820D02*
X227525937Y-55983391D01*
X228454508Y-56126248D02*
X228311651Y-56054820D01*
X228311651Y-56054820D02*
X228240222Y-55911962D01*
X228240222Y-55911962D02*
X228240222Y-54626248D01*
X229668794Y-56126248D02*
X229668794Y-55340534D01*
X229668794Y-55340534D02*
X229597365Y-55197677D01*
X229597365Y-55197677D02*
X229454508Y-55126248D01*
X229454508Y-55126248D02*
X229168794Y-55126248D01*
X229168794Y-55126248D02*
X229025936Y-55197677D01*
X229668794Y-56054820D02*
X229525936Y-56126248D01*
X229525936Y-56126248D02*
X229168794Y-56126248D01*
X229168794Y-56126248D02*
X229025936Y-56054820D01*
X229025936Y-56054820D02*
X228954508Y-55911962D01*
X228954508Y-55911962D02*
X228954508Y-55769105D01*
X228954508Y-55769105D02*
X229025936Y-55626248D01*
X229025936Y-55626248D02*
X229168794Y-55554820D01*
X229168794Y-55554820D02*
X229525936Y-55554820D01*
X229525936Y-55554820D02*
X229668794Y-55483391D01*
X230168794Y-55126248D02*
X230740222Y-55126248D01*
X230383079Y-54626248D02*
X230383079Y-55911962D01*
X230383079Y-55911962D02*
X230454508Y-56054820D01*
X230454508Y-56054820D02*
X230597365Y-56126248D01*
X230597365Y-56126248D02*
X230740222Y-56126248D01*
X231240222Y-56126248D02*
X231240222Y-55126248D01*
X231240222Y-54626248D02*
X231168794Y-54697677D01*
X231168794Y-54697677D02*
X231240222Y-54769105D01*
X231240222Y-54769105D02*
X231311651Y-54697677D01*
X231311651Y-54697677D02*
X231240222Y-54626248D01*
X231240222Y-54626248D02*
X231240222Y-54769105D01*
X232168794Y-56126248D02*
X232025937Y-56054820D01*
X232025937Y-56054820D02*
X231954508Y-55983391D01*
X231954508Y-55983391D02*
X231883080Y-55840534D01*
X231883080Y-55840534D02*
X231883080Y-55411962D01*
X231883080Y-55411962D02*
X231954508Y-55269105D01*
X231954508Y-55269105D02*
X232025937Y-55197677D01*
X232025937Y-55197677D02*
X232168794Y-55126248D01*
X232168794Y-55126248D02*
X232383080Y-55126248D01*
X232383080Y-55126248D02*
X232525937Y-55197677D01*
X232525937Y-55197677D02*
X232597366Y-55269105D01*
X232597366Y-55269105D02*
X232668794Y-55411962D01*
X232668794Y-55411962D02*
X232668794Y-55840534D01*
X232668794Y-55840534D02*
X232597366Y-55983391D01*
X232597366Y-55983391D02*
X232525937Y-56054820D01*
X232525937Y-56054820D02*
X232383080Y-56126248D01*
X232383080Y-56126248D02*
X232168794Y-56126248D01*
X233311651Y-55126248D02*
X233311651Y-56126248D01*
X233311651Y-55269105D02*
X233383080Y-55197677D01*
X233383080Y-55197677D02*
X233525937Y-55126248D01*
X233525937Y-55126248D02*
X233740223Y-55126248D01*
X233740223Y-55126248D02*
X233883080Y-55197677D01*
X233883080Y-55197677D02*
X233954509Y-55340534D01*
X233954509Y-55340534D02*
X233954509Y-56126248D01*
X234597366Y-56054820D02*
X234740223Y-56126248D01*
X234740223Y-56126248D02*
X235025937Y-56126248D01*
X235025937Y-56126248D02*
X235168794Y-56054820D01*
X235168794Y-56054820D02*
X235240223Y-55911962D01*
X235240223Y-55911962D02*
X235240223Y-55840534D01*
X235240223Y-55840534D02*
X235168794Y-55697677D01*
X235168794Y-55697677D02*
X235025937Y-55626248D01*
X235025937Y-55626248D02*
X234811652Y-55626248D01*
X234811652Y-55626248D02*
X234668794Y-55554820D01*
X234668794Y-55554820D02*
X234597366Y-55411962D01*
X234597366Y-55411962D02*
X234597366Y-55340534D01*
X234597366Y-55340534D02*
X234668794Y-55197677D01*
X234668794Y-55197677D02*
X234811652Y-55126248D01*
X234811652Y-55126248D02*
X235025937Y-55126248D01*
X235025937Y-55126248D02*
X235168794Y-55197677D01*
X183954510Y-57041164D02*
X184954510Y-58541164D01*
X184954510Y-57041164D02*
X183954510Y-58541164D01*
X186454510Y-57041164D02*
X187311653Y-57041164D01*
X186883081Y-58541164D02*
X186883081Y-57041164D01*
X187811652Y-58541164D02*
X187811652Y-57041164D01*
X187811652Y-57041164D02*
X188168795Y-57041164D01*
X188168795Y-57041164D02*
X188383081Y-57112593D01*
X188383081Y-57112593D02*
X188525938Y-57255450D01*
X188525938Y-57255450D02*
X188597367Y-57398307D01*
X188597367Y-57398307D02*
X188668795Y-57684021D01*
X188668795Y-57684021D02*
X188668795Y-57898307D01*
X188668795Y-57898307D02*
X188597367Y-58184021D01*
X188597367Y-58184021D02*
X188525938Y-58326878D01*
X188525938Y-58326878D02*
X188383081Y-58469736D01*
X188383081Y-58469736D02*
X188168795Y-58541164D01*
X188168795Y-58541164D02*
X187811652Y-58541164D01*
X189240224Y-58469736D02*
X189454510Y-58541164D01*
X189454510Y-58541164D02*
X189811652Y-58541164D01*
X189811652Y-58541164D02*
X189954510Y-58469736D01*
X189954510Y-58469736D02*
X190025938Y-58398307D01*
X190025938Y-58398307D02*
X190097367Y-58255450D01*
X190097367Y-58255450D02*
X190097367Y-58112593D01*
X190097367Y-58112593D02*
X190025938Y-57969736D01*
X190025938Y-57969736D02*
X189954510Y-57898307D01*
X189954510Y-57898307D02*
X189811652Y-57826878D01*
X189811652Y-57826878D02*
X189525938Y-57755450D01*
X189525938Y-57755450D02*
X189383081Y-57684021D01*
X189383081Y-57684021D02*
X189311652Y-57612593D01*
X189311652Y-57612593D02*
X189240224Y-57469736D01*
X189240224Y-57469736D02*
X189240224Y-57326878D01*
X189240224Y-57326878D02*
X189311652Y-57184021D01*
X189311652Y-57184021D02*
X189383081Y-57112593D01*
X189383081Y-57112593D02*
X189525938Y-57041164D01*
X189525938Y-57041164D02*
X189883081Y-57041164D01*
X189883081Y-57041164D02*
X190097367Y-57112593D01*
X192525938Y-58541164D02*
X192525938Y-57041164D01*
X192525938Y-58469736D02*
X192383080Y-58541164D01*
X192383080Y-58541164D02*
X192097366Y-58541164D01*
X192097366Y-58541164D02*
X191954509Y-58469736D01*
X191954509Y-58469736D02*
X191883080Y-58398307D01*
X191883080Y-58398307D02*
X191811652Y-58255450D01*
X191811652Y-58255450D02*
X191811652Y-57826878D01*
X191811652Y-57826878D02*
X191883080Y-57684021D01*
X191883080Y-57684021D02*
X191954509Y-57612593D01*
X191954509Y-57612593D02*
X192097366Y-57541164D01*
X192097366Y-57541164D02*
X192383080Y-57541164D01*
X192383080Y-57541164D02*
X192525938Y-57612593D01*
X193240223Y-58541164D02*
X193240223Y-57541164D01*
X193240223Y-57041164D02*
X193168795Y-57112593D01*
X193168795Y-57112593D02*
X193240223Y-57184021D01*
X193240223Y-57184021D02*
X193311652Y-57112593D01*
X193311652Y-57112593D02*
X193240223Y-57041164D01*
X193240223Y-57041164D02*
X193240223Y-57184021D01*
X194168795Y-58541164D02*
X194025938Y-58469736D01*
X194025938Y-58469736D02*
X193954509Y-58398307D01*
X193954509Y-58398307D02*
X193883081Y-58255450D01*
X193883081Y-58255450D02*
X193883081Y-57826878D01*
X193883081Y-57826878D02*
X193954509Y-57684021D01*
X193954509Y-57684021D02*
X194025938Y-57612593D01*
X194025938Y-57612593D02*
X194168795Y-57541164D01*
X194168795Y-57541164D02*
X194383081Y-57541164D01*
X194383081Y-57541164D02*
X194525938Y-57612593D01*
X194525938Y-57612593D02*
X194597367Y-57684021D01*
X194597367Y-57684021D02*
X194668795Y-57826878D01*
X194668795Y-57826878D02*
X194668795Y-58255450D01*
X194668795Y-58255450D02*
X194597367Y-58398307D01*
X194597367Y-58398307D02*
X194525938Y-58469736D01*
X194525938Y-58469736D02*
X194383081Y-58541164D01*
X194383081Y-58541164D02*
X194168795Y-58541164D01*
X195954510Y-58541164D02*
X195954510Y-57041164D01*
X195954510Y-58469736D02*
X195811652Y-58541164D01*
X195811652Y-58541164D02*
X195525938Y-58541164D01*
X195525938Y-58541164D02*
X195383081Y-58469736D01*
X195383081Y-58469736D02*
X195311652Y-58398307D01*
X195311652Y-58398307D02*
X195240224Y-58255450D01*
X195240224Y-58255450D02*
X195240224Y-57826878D01*
X195240224Y-57826878D02*
X195311652Y-57684021D01*
X195311652Y-57684021D02*
X195383081Y-57612593D01*
X195383081Y-57612593D02*
X195525938Y-57541164D01*
X195525938Y-57541164D02*
X195811652Y-57541164D01*
X195811652Y-57541164D02*
X195954510Y-57612593D01*
X197240224Y-58469736D02*
X197097367Y-58541164D01*
X197097367Y-58541164D02*
X196811653Y-58541164D01*
X196811653Y-58541164D02*
X196668795Y-58469736D01*
X196668795Y-58469736D02*
X196597367Y-58326878D01*
X196597367Y-58326878D02*
X196597367Y-57755450D01*
X196597367Y-57755450D02*
X196668795Y-57612593D01*
X196668795Y-57612593D02*
X196811653Y-57541164D01*
X196811653Y-57541164D02*
X197097367Y-57541164D01*
X197097367Y-57541164D02*
X197240224Y-57612593D01*
X197240224Y-57612593D02*
X197311653Y-57755450D01*
X197311653Y-57755450D02*
X197311653Y-57898307D01*
X197311653Y-57898307D02*
X196597367Y-58041164D01*
X199311652Y-58541164D02*
X199168795Y-58469736D01*
X199168795Y-58469736D02*
X199097366Y-58398307D01*
X199097366Y-58398307D02*
X199025938Y-58255450D01*
X199025938Y-58255450D02*
X199025938Y-57826878D01*
X199025938Y-57826878D02*
X199097366Y-57684021D01*
X199097366Y-57684021D02*
X199168795Y-57612593D01*
X199168795Y-57612593D02*
X199311652Y-57541164D01*
X199311652Y-57541164D02*
X199525938Y-57541164D01*
X199525938Y-57541164D02*
X199668795Y-57612593D01*
X199668795Y-57612593D02*
X199740224Y-57684021D01*
X199740224Y-57684021D02*
X199811652Y-57826878D01*
X199811652Y-57826878D02*
X199811652Y-58255450D01*
X199811652Y-58255450D02*
X199740224Y-58398307D01*
X199740224Y-58398307D02*
X199668795Y-58469736D01*
X199668795Y-58469736D02*
X199525938Y-58541164D01*
X199525938Y-58541164D02*
X199311652Y-58541164D01*
X200454509Y-57541164D02*
X200454509Y-58541164D01*
X200454509Y-57684021D02*
X200525938Y-57612593D01*
X200525938Y-57612593D02*
X200668795Y-57541164D01*
X200668795Y-57541164D02*
X200883081Y-57541164D01*
X200883081Y-57541164D02*
X201025938Y-57612593D01*
X201025938Y-57612593D02*
X201097367Y-57755450D01*
X201097367Y-57755450D02*
X201097367Y-58541164D01*
X202740224Y-57041164D02*
X203240224Y-58541164D01*
X203240224Y-58541164D02*
X203740224Y-57041164D01*
X204740223Y-57755450D02*
X204954509Y-57826878D01*
X204954509Y-57826878D02*
X205025938Y-57898307D01*
X205025938Y-57898307D02*
X205097366Y-58041164D01*
X205097366Y-58041164D02*
X205097366Y-58255450D01*
X205097366Y-58255450D02*
X205025938Y-58398307D01*
X205025938Y-58398307D02*
X204954509Y-58469736D01*
X204954509Y-58469736D02*
X204811652Y-58541164D01*
X204811652Y-58541164D02*
X204240223Y-58541164D01*
X204240223Y-58541164D02*
X204240223Y-57041164D01*
X204240223Y-57041164D02*
X204740223Y-57041164D01*
X204740223Y-57041164D02*
X204883081Y-57112593D01*
X204883081Y-57112593D02*
X204954509Y-57184021D01*
X204954509Y-57184021D02*
X205025938Y-57326878D01*
X205025938Y-57326878D02*
X205025938Y-57469736D01*
X205025938Y-57469736D02*
X204954509Y-57612593D01*
X204954509Y-57612593D02*
X204883081Y-57684021D01*
X204883081Y-57684021D02*
X204740223Y-57755450D01*
X204740223Y-57755450D02*
X204240223Y-57755450D01*
X205668795Y-58112593D02*
X206383081Y-58112593D01*
X205525938Y-58541164D02*
X206025938Y-57041164D01*
X206025938Y-57041164D02*
X206525938Y-58541164D01*
X206811652Y-57041164D02*
X207668795Y-57041164D01*
X207240223Y-58541164D02*
X207240223Y-57041164D01*
X207954509Y-57041164D02*
X208811652Y-57041164D01*
X208383080Y-58541164D02*
X208383080Y-57041164D01*
X183954510Y-59456080D02*
X184954510Y-60956080D01*
X184954510Y-59456080D02*
X183954510Y-60956080D01*
X187525938Y-60956080D02*
X187025938Y-60241794D01*
X186668795Y-60956080D02*
X186668795Y-59456080D01*
X186668795Y-59456080D02*
X187240224Y-59456080D01*
X187240224Y-59456080D02*
X187383081Y-59527509D01*
X187383081Y-59527509D02*
X187454510Y-59598937D01*
X187454510Y-59598937D02*
X187525938Y-59741794D01*
X187525938Y-59741794D02*
X187525938Y-59956080D01*
X187525938Y-59956080D02*
X187454510Y-60098937D01*
X187454510Y-60098937D02*
X187383081Y-60170366D01*
X187383081Y-60170366D02*
X187240224Y-60241794D01*
X187240224Y-60241794D02*
X186668795Y-60241794D01*
X188740224Y-60884652D02*
X188597367Y-60956080D01*
X188597367Y-60956080D02*
X188311653Y-60956080D01*
X188311653Y-60956080D02*
X188168795Y-60884652D01*
X188168795Y-60884652D02*
X188097367Y-60741794D01*
X188097367Y-60741794D02*
X188097367Y-60170366D01*
X188097367Y-60170366D02*
X188168795Y-60027509D01*
X188168795Y-60027509D02*
X188311653Y-59956080D01*
X188311653Y-59956080D02*
X188597367Y-59956080D01*
X188597367Y-59956080D02*
X188740224Y-60027509D01*
X188740224Y-60027509D02*
X188811653Y-60170366D01*
X188811653Y-60170366D02*
X188811653Y-60313223D01*
X188811653Y-60313223D02*
X188097367Y-60456080D01*
X190097367Y-60884652D02*
X189954509Y-60956080D01*
X189954509Y-60956080D02*
X189668795Y-60956080D01*
X189668795Y-60956080D02*
X189525938Y-60884652D01*
X189525938Y-60884652D02*
X189454509Y-60813223D01*
X189454509Y-60813223D02*
X189383081Y-60670366D01*
X189383081Y-60670366D02*
X189383081Y-60241794D01*
X189383081Y-60241794D02*
X189454509Y-60098937D01*
X189454509Y-60098937D02*
X189525938Y-60027509D01*
X189525938Y-60027509D02*
X189668795Y-59956080D01*
X189668795Y-59956080D02*
X189954509Y-59956080D01*
X189954509Y-59956080D02*
X190097367Y-60027509D01*
X191383081Y-60956080D02*
X191383081Y-60170366D01*
X191383081Y-60170366D02*
X191311652Y-60027509D01*
X191311652Y-60027509D02*
X191168795Y-59956080D01*
X191168795Y-59956080D02*
X190883081Y-59956080D01*
X190883081Y-59956080D02*
X190740223Y-60027509D01*
X191383081Y-60884652D02*
X191240223Y-60956080D01*
X191240223Y-60956080D02*
X190883081Y-60956080D01*
X190883081Y-60956080D02*
X190740223Y-60884652D01*
X190740223Y-60884652D02*
X190668795Y-60741794D01*
X190668795Y-60741794D02*
X190668795Y-60598937D01*
X190668795Y-60598937D02*
X190740223Y-60456080D01*
X190740223Y-60456080D02*
X190883081Y-60384652D01*
X190883081Y-60384652D02*
X191240223Y-60384652D01*
X191240223Y-60384652D02*
X191383081Y-60313223D01*
X192311652Y-60956080D02*
X192168795Y-60884652D01*
X192168795Y-60884652D02*
X192097366Y-60741794D01*
X192097366Y-60741794D02*
X192097366Y-59456080D01*
X193525938Y-60884652D02*
X193383080Y-60956080D01*
X193383080Y-60956080D02*
X193097366Y-60956080D01*
X193097366Y-60956080D02*
X192954509Y-60884652D01*
X192954509Y-60884652D02*
X192883080Y-60813223D01*
X192883080Y-60813223D02*
X192811652Y-60670366D01*
X192811652Y-60670366D02*
X192811652Y-60241794D01*
X192811652Y-60241794D02*
X192883080Y-60098937D01*
X192883080Y-60098937D02*
X192954509Y-60027509D01*
X192954509Y-60027509D02*
X193097366Y-59956080D01*
X193097366Y-59956080D02*
X193383080Y-59956080D01*
X193383080Y-59956080D02*
X193525938Y-60027509D01*
X194811652Y-59956080D02*
X194811652Y-60956080D01*
X194168794Y-59956080D02*
X194168794Y-60741794D01*
X194168794Y-60741794D02*
X194240223Y-60884652D01*
X194240223Y-60884652D02*
X194383080Y-60956080D01*
X194383080Y-60956080D02*
X194597366Y-60956080D01*
X194597366Y-60956080D02*
X194740223Y-60884652D01*
X194740223Y-60884652D02*
X194811652Y-60813223D01*
X195740223Y-60956080D02*
X195597366Y-60884652D01*
X195597366Y-60884652D02*
X195525937Y-60741794D01*
X195525937Y-60741794D02*
X195525937Y-59456080D01*
X196954509Y-60956080D02*
X196954509Y-60170366D01*
X196954509Y-60170366D02*
X196883080Y-60027509D01*
X196883080Y-60027509D02*
X196740223Y-59956080D01*
X196740223Y-59956080D02*
X196454509Y-59956080D01*
X196454509Y-59956080D02*
X196311651Y-60027509D01*
X196954509Y-60884652D02*
X196811651Y-60956080D01*
X196811651Y-60956080D02*
X196454509Y-60956080D01*
X196454509Y-60956080D02*
X196311651Y-60884652D01*
X196311651Y-60884652D02*
X196240223Y-60741794D01*
X196240223Y-60741794D02*
X196240223Y-60598937D01*
X196240223Y-60598937D02*
X196311651Y-60456080D01*
X196311651Y-60456080D02*
X196454509Y-60384652D01*
X196454509Y-60384652D02*
X196811651Y-60384652D01*
X196811651Y-60384652D02*
X196954509Y-60313223D01*
X197454509Y-59956080D02*
X198025937Y-59956080D01*
X197668794Y-59456080D02*
X197668794Y-60741794D01*
X197668794Y-60741794D02*
X197740223Y-60884652D01*
X197740223Y-60884652D02*
X197883080Y-60956080D01*
X197883080Y-60956080D02*
X198025937Y-60956080D01*
X199097366Y-60884652D02*
X198954509Y-60956080D01*
X198954509Y-60956080D02*
X198668795Y-60956080D01*
X198668795Y-60956080D02*
X198525937Y-60884652D01*
X198525937Y-60884652D02*
X198454509Y-60741794D01*
X198454509Y-60741794D02*
X198454509Y-60170366D01*
X198454509Y-60170366D02*
X198525937Y-60027509D01*
X198525937Y-60027509D02*
X198668795Y-59956080D01*
X198668795Y-59956080D02*
X198954509Y-59956080D01*
X198954509Y-59956080D02*
X199097366Y-60027509D01*
X199097366Y-60027509D02*
X199168795Y-60170366D01*
X199168795Y-60170366D02*
X199168795Y-60313223D01*
X199168795Y-60313223D02*
X198454509Y-60456080D01*
X201597366Y-60884652D02*
X201454508Y-60956080D01*
X201454508Y-60956080D02*
X201168794Y-60956080D01*
X201168794Y-60956080D02*
X201025937Y-60884652D01*
X201025937Y-60884652D02*
X200954508Y-60813223D01*
X200954508Y-60813223D02*
X200883080Y-60670366D01*
X200883080Y-60670366D02*
X200883080Y-60241794D01*
X200883080Y-60241794D02*
X200954508Y-60098937D01*
X200954508Y-60098937D02*
X201025937Y-60027509D01*
X201025937Y-60027509D02*
X201168794Y-59956080D01*
X201168794Y-59956080D02*
X201454508Y-59956080D01*
X201454508Y-59956080D02*
X201597366Y-60027509D01*
X202454508Y-60956080D02*
X202311651Y-60884652D01*
X202311651Y-60884652D02*
X202240222Y-60813223D01*
X202240222Y-60813223D02*
X202168794Y-60670366D01*
X202168794Y-60670366D02*
X202168794Y-60241794D01*
X202168794Y-60241794D02*
X202240222Y-60098937D01*
X202240222Y-60098937D02*
X202311651Y-60027509D01*
X202311651Y-60027509D02*
X202454508Y-59956080D01*
X202454508Y-59956080D02*
X202668794Y-59956080D01*
X202668794Y-59956080D02*
X202811651Y-60027509D01*
X202811651Y-60027509D02*
X202883080Y-60098937D01*
X202883080Y-60098937D02*
X202954508Y-60241794D01*
X202954508Y-60241794D02*
X202954508Y-60670366D01*
X202954508Y-60670366D02*
X202883080Y-60813223D01*
X202883080Y-60813223D02*
X202811651Y-60884652D01*
X202811651Y-60884652D02*
X202668794Y-60956080D01*
X202668794Y-60956080D02*
X202454508Y-60956080D01*
X203597365Y-60956080D02*
X203597365Y-59956080D01*
X203597365Y-60098937D02*
X203668794Y-60027509D01*
X203668794Y-60027509D02*
X203811651Y-59956080D01*
X203811651Y-59956080D02*
X204025937Y-59956080D01*
X204025937Y-59956080D02*
X204168794Y-60027509D01*
X204168794Y-60027509D02*
X204240223Y-60170366D01*
X204240223Y-60170366D02*
X204240223Y-60956080D01*
X204240223Y-60170366D02*
X204311651Y-60027509D01*
X204311651Y-60027509D02*
X204454508Y-59956080D01*
X204454508Y-59956080D02*
X204668794Y-59956080D01*
X204668794Y-59956080D02*
X204811651Y-60027509D01*
X204811651Y-60027509D02*
X204883080Y-60170366D01*
X204883080Y-60170366D02*
X204883080Y-60956080D01*
X205597365Y-59956080D02*
X205597365Y-61456080D01*
X205597365Y-60027509D02*
X205740223Y-59956080D01*
X205740223Y-59956080D02*
X206025937Y-59956080D01*
X206025937Y-59956080D02*
X206168794Y-60027509D01*
X206168794Y-60027509D02*
X206240223Y-60098937D01*
X206240223Y-60098937D02*
X206311651Y-60241794D01*
X206311651Y-60241794D02*
X206311651Y-60670366D01*
X206311651Y-60670366D02*
X206240223Y-60813223D01*
X206240223Y-60813223D02*
X206168794Y-60884652D01*
X206168794Y-60884652D02*
X206025937Y-60956080D01*
X206025937Y-60956080D02*
X205740223Y-60956080D01*
X205740223Y-60956080D02*
X205597365Y-60884652D01*
X207597366Y-60956080D02*
X207597366Y-60170366D01*
X207597366Y-60170366D02*
X207525937Y-60027509D01*
X207525937Y-60027509D02*
X207383080Y-59956080D01*
X207383080Y-59956080D02*
X207097366Y-59956080D01*
X207097366Y-59956080D02*
X206954508Y-60027509D01*
X207597366Y-60884652D02*
X207454508Y-60956080D01*
X207454508Y-60956080D02*
X207097366Y-60956080D01*
X207097366Y-60956080D02*
X206954508Y-60884652D01*
X206954508Y-60884652D02*
X206883080Y-60741794D01*
X206883080Y-60741794D02*
X206883080Y-60598937D01*
X206883080Y-60598937D02*
X206954508Y-60456080D01*
X206954508Y-60456080D02*
X207097366Y-60384652D01*
X207097366Y-60384652D02*
X207454508Y-60384652D01*
X207454508Y-60384652D02*
X207597366Y-60313223D01*
X208311651Y-60956080D02*
X208311651Y-59956080D01*
X208311651Y-60241794D02*
X208383080Y-60098937D01*
X208383080Y-60098937D02*
X208454509Y-60027509D01*
X208454509Y-60027509D02*
X208597366Y-59956080D01*
X208597366Y-59956080D02*
X208740223Y-59956080D01*
X209883080Y-60956080D02*
X209883080Y-60170366D01*
X209883080Y-60170366D02*
X209811651Y-60027509D01*
X209811651Y-60027509D02*
X209668794Y-59956080D01*
X209668794Y-59956080D02*
X209383080Y-59956080D01*
X209383080Y-59956080D02*
X209240222Y-60027509D01*
X209883080Y-60884652D02*
X209740222Y-60956080D01*
X209740222Y-60956080D02*
X209383080Y-60956080D01*
X209383080Y-60956080D02*
X209240222Y-60884652D01*
X209240222Y-60884652D02*
X209168794Y-60741794D01*
X209168794Y-60741794D02*
X209168794Y-60598937D01*
X209168794Y-60598937D02*
X209240222Y-60456080D01*
X209240222Y-60456080D02*
X209383080Y-60384652D01*
X209383080Y-60384652D02*
X209740222Y-60384652D01*
X209740222Y-60384652D02*
X209883080Y-60313223D01*
X210383080Y-59956080D02*
X210954508Y-59956080D01*
X210597365Y-59456080D02*
X210597365Y-60741794D01*
X210597365Y-60741794D02*
X210668794Y-60884652D01*
X210668794Y-60884652D02*
X210811651Y-60956080D01*
X210811651Y-60956080D02*
X210954508Y-60956080D01*
X211668794Y-60956080D02*
X211525937Y-60884652D01*
X211525937Y-60884652D02*
X211454508Y-60813223D01*
X211454508Y-60813223D02*
X211383080Y-60670366D01*
X211383080Y-60670366D02*
X211383080Y-60241794D01*
X211383080Y-60241794D02*
X211454508Y-60098937D01*
X211454508Y-60098937D02*
X211525937Y-60027509D01*
X211525937Y-60027509D02*
X211668794Y-59956080D01*
X211668794Y-59956080D02*
X211883080Y-59956080D01*
X211883080Y-59956080D02*
X212025937Y-60027509D01*
X212025937Y-60027509D02*
X212097366Y-60098937D01*
X212097366Y-60098937D02*
X212168794Y-60241794D01*
X212168794Y-60241794D02*
X212168794Y-60670366D01*
X212168794Y-60670366D02*
X212097366Y-60813223D01*
X212097366Y-60813223D02*
X212025937Y-60884652D01*
X212025937Y-60884652D02*
X211883080Y-60956080D01*
X211883080Y-60956080D02*
X211668794Y-60956080D01*
X212811651Y-60956080D02*
X212811651Y-59956080D01*
X212811651Y-60241794D02*
X212883080Y-60098937D01*
X212883080Y-60098937D02*
X212954509Y-60027509D01*
X212954509Y-60027509D02*
X213097366Y-59956080D01*
X213097366Y-59956080D02*
X213240223Y-59956080D01*
X215525937Y-60956080D02*
X215525937Y-59456080D01*
X215525937Y-60884652D02*
X215383079Y-60956080D01*
X215383079Y-60956080D02*
X215097365Y-60956080D01*
X215097365Y-60956080D02*
X214954508Y-60884652D01*
X214954508Y-60884652D02*
X214883079Y-60813223D01*
X214883079Y-60813223D02*
X214811651Y-60670366D01*
X214811651Y-60670366D02*
X214811651Y-60241794D01*
X214811651Y-60241794D02*
X214883079Y-60098937D01*
X214883079Y-60098937D02*
X214954508Y-60027509D01*
X214954508Y-60027509D02*
X215097365Y-59956080D01*
X215097365Y-59956080D02*
X215383079Y-59956080D01*
X215383079Y-59956080D02*
X215525937Y-60027509D01*
X216240222Y-60956080D02*
X216240222Y-59956080D01*
X216240222Y-59456080D02*
X216168794Y-59527509D01*
X216168794Y-59527509D02*
X216240222Y-59598937D01*
X216240222Y-59598937D02*
X216311651Y-59527509D01*
X216311651Y-59527509D02*
X216240222Y-59456080D01*
X216240222Y-59456080D02*
X216240222Y-59598937D01*
X216811651Y-59956080D02*
X217168794Y-60956080D01*
X217168794Y-60956080D02*
X217525937Y-59956080D01*
X218097365Y-60956080D02*
X218097365Y-59956080D01*
X218097365Y-59456080D02*
X218025937Y-59527509D01*
X218025937Y-59527509D02*
X218097365Y-59598937D01*
X218097365Y-59598937D02*
X218168794Y-59527509D01*
X218168794Y-59527509D02*
X218097365Y-59456080D01*
X218097365Y-59456080D02*
X218097365Y-59598937D01*
X219454509Y-60956080D02*
X219454509Y-59456080D01*
X219454509Y-60884652D02*
X219311651Y-60956080D01*
X219311651Y-60956080D02*
X219025937Y-60956080D01*
X219025937Y-60956080D02*
X218883080Y-60884652D01*
X218883080Y-60884652D02*
X218811651Y-60813223D01*
X218811651Y-60813223D02*
X218740223Y-60670366D01*
X218740223Y-60670366D02*
X218740223Y-60241794D01*
X218740223Y-60241794D02*
X218811651Y-60098937D01*
X218811651Y-60098937D02*
X218883080Y-60027509D01*
X218883080Y-60027509D02*
X219025937Y-59956080D01*
X219025937Y-59956080D02*
X219311651Y-59956080D01*
X219311651Y-59956080D02*
X219454509Y-60027509D01*
X220740223Y-60884652D02*
X220597366Y-60956080D01*
X220597366Y-60956080D02*
X220311652Y-60956080D01*
X220311652Y-60956080D02*
X220168794Y-60884652D01*
X220168794Y-60884652D02*
X220097366Y-60741794D01*
X220097366Y-60741794D02*
X220097366Y-60170366D01*
X220097366Y-60170366D02*
X220168794Y-60027509D01*
X220168794Y-60027509D02*
X220311652Y-59956080D01*
X220311652Y-59956080D02*
X220597366Y-59956080D01*
X220597366Y-59956080D02*
X220740223Y-60027509D01*
X220740223Y-60027509D02*
X220811652Y-60170366D01*
X220811652Y-60170366D02*
X220811652Y-60313223D01*
X220811652Y-60313223D02*
X220097366Y-60456080D01*
X221454508Y-60956080D02*
X221454508Y-59956080D01*
X221454508Y-60241794D02*
X221525937Y-60098937D01*
X221525937Y-60098937D02*
X221597366Y-60027509D01*
X221597366Y-60027509D02*
X221740223Y-59956080D01*
X221740223Y-59956080D02*
X221883080Y-59956080D01*
X184097367Y-62799568D02*
X185240225Y-62799568D01*
X187383082Y-61870996D02*
X187668796Y-61870996D01*
X187668796Y-61870996D02*
X187811653Y-61942425D01*
X187811653Y-61942425D02*
X187954510Y-62085282D01*
X187954510Y-62085282D02*
X188025939Y-62370996D01*
X188025939Y-62370996D02*
X188025939Y-62870996D01*
X188025939Y-62870996D02*
X187954510Y-63156710D01*
X187954510Y-63156710D02*
X187811653Y-63299568D01*
X187811653Y-63299568D02*
X187668796Y-63370996D01*
X187668796Y-63370996D02*
X187383082Y-63370996D01*
X187383082Y-63370996D02*
X187240225Y-63299568D01*
X187240225Y-63299568D02*
X187097367Y-63156710D01*
X187097367Y-63156710D02*
X187025939Y-62870996D01*
X187025939Y-62870996D02*
X187025939Y-62370996D01*
X187025939Y-62370996D02*
X187097367Y-62085282D01*
X187097367Y-62085282D02*
X187240225Y-61942425D01*
X187240225Y-61942425D02*
X187383082Y-61870996D01*
X188668796Y-63370996D02*
X188668796Y-62370996D01*
X188668796Y-62656710D02*
X188740225Y-62513853D01*
X188740225Y-62513853D02*
X188811654Y-62442425D01*
X188811654Y-62442425D02*
X188954511Y-62370996D01*
X188954511Y-62370996D02*
X189097368Y-62370996D01*
X190240225Y-63370996D02*
X190240225Y-61870996D01*
X190240225Y-63299568D02*
X190097367Y-63370996D01*
X190097367Y-63370996D02*
X189811653Y-63370996D01*
X189811653Y-63370996D02*
X189668796Y-63299568D01*
X189668796Y-63299568D02*
X189597367Y-63228139D01*
X189597367Y-63228139D02*
X189525939Y-63085282D01*
X189525939Y-63085282D02*
X189525939Y-62656710D01*
X189525939Y-62656710D02*
X189597367Y-62513853D01*
X189597367Y-62513853D02*
X189668796Y-62442425D01*
X189668796Y-62442425D02*
X189811653Y-62370996D01*
X189811653Y-62370996D02*
X190097367Y-62370996D01*
X190097367Y-62370996D02*
X190240225Y-62442425D01*
X191525939Y-63299568D02*
X191383082Y-63370996D01*
X191383082Y-63370996D02*
X191097368Y-63370996D01*
X191097368Y-63370996D02*
X190954510Y-63299568D01*
X190954510Y-63299568D02*
X190883082Y-63156710D01*
X190883082Y-63156710D02*
X190883082Y-62585282D01*
X190883082Y-62585282D02*
X190954510Y-62442425D01*
X190954510Y-62442425D02*
X191097368Y-62370996D01*
X191097368Y-62370996D02*
X191383082Y-62370996D01*
X191383082Y-62370996D02*
X191525939Y-62442425D01*
X191525939Y-62442425D02*
X191597368Y-62585282D01*
X191597368Y-62585282D02*
X191597368Y-62728139D01*
X191597368Y-62728139D02*
X190883082Y-62870996D01*
X192240224Y-63370996D02*
X192240224Y-62370996D01*
X192240224Y-62656710D02*
X192311653Y-62513853D01*
X192311653Y-62513853D02*
X192383082Y-62442425D01*
X192383082Y-62442425D02*
X192525939Y-62370996D01*
X192525939Y-62370996D02*
X192668796Y-62370996D01*
X193168795Y-63370996D02*
X193168795Y-62370996D01*
X193168795Y-61870996D02*
X193097367Y-61942425D01*
X193097367Y-61942425D02*
X193168795Y-62013853D01*
X193168795Y-62013853D02*
X193240224Y-61942425D01*
X193240224Y-61942425D02*
X193168795Y-61870996D01*
X193168795Y-61870996D02*
X193168795Y-62013853D01*
X193883081Y-62370996D02*
X193883081Y-63370996D01*
X193883081Y-62513853D02*
X193954510Y-62442425D01*
X193954510Y-62442425D02*
X194097367Y-62370996D01*
X194097367Y-62370996D02*
X194311653Y-62370996D01*
X194311653Y-62370996D02*
X194454510Y-62442425D01*
X194454510Y-62442425D02*
X194525939Y-62585282D01*
X194525939Y-62585282D02*
X194525939Y-63370996D01*
X195883082Y-62370996D02*
X195883082Y-63585282D01*
X195883082Y-63585282D02*
X195811653Y-63728139D01*
X195811653Y-63728139D02*
X195740224Y-63799568D01*
X195740224Y-63799568D02*
X195597367Y-63870996D01*
X195597367Y-63870996D02*
X195383082Y-63870996D01*
X195383082Y-63870996D02*
X195240224Y-63799568D01*
X195883082Y-63299568D02*
X195740224Y-63370996D01*
X195740224Y-63370996D02*
X195454510Y-63370996D01*
X195454510Y-63370996D02*
X195311653Y-63299568D01*
X195311653Y-63299568D02*
X195240224Y-63228139D01*
X195240224Y-63228139D02*
X195168796Y-63085282D01*
X195168796Y-63085282D02*
X195168796Y-62656710D01*
X195168796Y-62656710D02*
X195240224Y-62513853D01*
X195240224Y-62513853D02*
X195311653Y-62442425D01*
X195311653Y-62442425D02*
X195454510Y-62370996D01*
X195454510Y-62370996D02*
X195740224Y-62370996D01*
X195740224Y-62370996D02*
X195883082Y-62442425D01*
X197954510Y-63370996D02*
X197811653Y-63299568D01*
X197811653Y-63299568D02*
X197740224Y-63228139D01*
X197740224Y-63228139D02*
X197668796Y-63085282D01*
X197668796Y-63085282D02*
X197668796Y-62656710D01*
X197668796Y-62656710D02*
X197740224Y-62513853D01*
X197740224Y-62513853D02*
X197811653Y-62442425D01*
X197811653Y-62442425D02*
X197954510Y-62370996D01*
X197954510Y-62370996D02*
X198168796Y-62370996D01*
X198168796Y-62370996D02*
X198311653Y-62442425D01*
X198311653Y-62442425D02*
X198383082Y-62513853D01*
X198383082Y-62513853D02*
X198454510Y-62656710D01*
X198454510Y-62656710D02*
X198454510Y-63085282D01*
X198454510Y-63085282D02*
X198383082Y-63228139D01*
X198383082Y-63228139D02*
X198311653Y-63299568D01*
X198311653Y-63299568D02*
X198168796Y-63370996D01*
X198168796Y-63370996D02*
X197954510Y-63370996D01*
X199097367Y-62370996D02*
X199097367Y-63370996D01*
X199097367Y-62513853D02*
X199168796Y-62442425D01*
X199168796Y-62442425D02*
X199311653Y-62370996D01*
X199311653Y-62370996D02*
X199525939Y-62370996D01*
X199525939Y-62370996D02*
X199668796Y-62442425D01*
X199668796Y-62442425D02*
X199740225Y-62585282D01*
X199740225Y-62585282D02*
X199740225Y-63370996D01*
X201383082Y-62370996D02*
X201954510Y-62370996D01*
X201597367Y-61870996D02*
X201597367Y-63156710D01*
X201597367Y-63156710D02*
X201668796Y-63299568D01*
X201668796Y-63299568D02*
X201811653Y-63370996D01*
X201811653Y-63370996D02*
X201954510Y-63370996D01*
X202454510Y-63370996D02*
X202454510Y-61870996D01*
X203097368Y-63370996D02*
X203097368Y-62585282D01*
X203097368Y-62585282D02*
X203025939Y-62442425D01*
X203025939Y-62442425D02*
X202883082Y-62370996D01*
X202883082Y-62370996D02*
X202668796Y-62370996D01*
X202668796Y-62370996D02*
X202525939Y-62442425D01*
X202525939Y-62442425D02*
X202454510Y-62513853D01*
X204383082Y-63299568D02*
X204240225Y-63370996D01*
X204240225Y-63370996D02*
X203954511Y-63370996D01*
X203954511Y-63370996D02*
X203811653Y-63299568D01*
X203811653Y-63299568D02*
X203740225Y-63156710D01*
X203740225Y-63156710D02*
X203740225Y-62585282D01*
X203740225Y-62585282D02*
X203811653Y-62442425D01*
X203811653Y-62442425D02*
X203954511Y-62370996D01*
X203954511Y-62370996D02*
X204240225Y-62370996D01*
X204240225Y-62370996D02*
X204383082Y-62442425D01*
X204383082Y-62442425D02*
X204454511Y-62585282D01*
X204454511Y-62585282D02*
X204454511Y-62728139D01*
X204454511Y-62728139D02*
X203740225Y-62870996D01*
X206240224Y-63370996D02*
X206240224Y-61870996D01*
X206240224Y-62442425D02*
X206383082Y-62370996D01*
X206383082Y-62370996D02*
X206668796Y-62370996D01*
X206668796Y-62370996D02*
X206811653Y-62442425D01*
X206811653Y-62442425D02*
X206883082Y-62513853D01*
X206883082Y-62513853D02*
X206954510Y-62656710D01*
X206954510Y-62656710D02*
X206954510Y-63085282D01*
X206954510Y-63085282D02*
X206883082Y-63228139D01*
X206883082Y-63228139D02*
X206811653Y-63299568D01*
X206811653Y-63299568D02*
X206668796Y-63370996D01*
X206668796Y-63370996D02*
X206383082Y-63370996D01*
X206383082Y-63370996D02*
X206240224Y-63299568D01*
X208240225Y-63370996D02*
X208240225Y-62585282D01*
X208240225Y-62585282D02*
X208168796Y-62442425D01*
X208168796Y-62442425D02*
X208025939Y-62370996D01*
X208025939Y-62370996D02*
X207740225Y-62370996D01*
X207740225Y-62370996D02*
X207597367Y-62442425D01*
X208240225Y-63299568D02*
X208097367Y-63370996D01*
X208097367Y-63370996D02*
X207740225Y-63370996D01*
X207740225Y-63370996D02*
X207597367Y-63299568D01*
X207597367Y-63299568D02*
X207525939Y-63156710D01*
X207525939Y-63156710D02*
X207525939Y-63013853D01*
X207525939Y-63013853D02*
X207597367Y-62870996D01*
X207597367Y-62870996D02*
X207740225Y-62799568D01*
X207740225Y-62799568D02*
X208097367Y-62799568D01*
X208097367Y-62799568D02*
X208240225Y-62728139D01*
X209168796Y-63370996D02*
X209025939Y-63299568D01*
X209025939Y-63299568D02*
X208954510Y-63156710D01*
X208954510Y-63156710D02*
X208954510Y-61870996D01*
X210383082Y-63370996D02*
X210383082Y-62585282D01*
X210383082Y-62585282D02*
X210311653Y-62442425D01*
X210311653Y-62442425D02*
X210168796Y-62370996D01*
X210168796Y-62370996D02*
X209883082Y-62370996D01*
X209883082Y-62370996D02*
X209740224Y-62442425D01*
X210383082Y-63299568D02*
X210240224Y-63370996D01*
X210240224Y-63370996D02*
X209883082Y-63370996D01*
X209883082Y-63370996D02*
X209740224Y-63299568D01*
X209740224Y-63299568D02*
X209668796Y-63156710D01*
X209668796Y-63156710D02*
X209668796Y-63013853D01*
X209668796Y-63013853D02*
X209740224Y-62870996D01*
X209740224Y-62870996D02*
X209883082Y-62799568D01*
X209883082Y-62799568D02*
X210240224Y-62799568D01*
X210240224Y-62799568D02*
X210383082Y-62728139D01*
X211097367Y-62370996D02*
X211097367Y-63370996D01*
X211097367Y-62513853D02*
X211168796Y-62442425D01*
X211168796Y-62442425D02*
X211311653Y-62370996D01*
X211311653Y-62370996D02*
X211525939Y-62370996D01*
X211525939Y-62370996D02*
X211668796Y-62442425D01*
X211668796Y-62442425D02*
X211740225Y-62585282D01*
X211740225Y-62585282D02*
X211740225Y-63370996D01*
X213097368Y-63299568D02*
X212954510Y-63370996D01*
X212954510Y-63370996D02*
X212668796Y-63370996D01*
X212668796Y-63370996D02*
X212525939Y-63299568D01*
X212525939Y-63299568D02*
X212454510Y-63228139D01*
X212454510Y-63228139D02*
X212383082Y-63085282D01*
X212383082Y-63085282D02*
X212383082Y-62656710D01*
X212383082Y-62656710D02*
X212454510Y-62513853D01*
X212454510Y-62513853D02*
X212525939Y-62442425D01*
X212525939Y-62442425D02*
X212668796Y-62370996D01*
X212668796Y-62370996D02*
X212954510Y-62370996D01*
X212954510Y-62370996D02*
X213097368Y-62442425D01*
X214311653Y-63299568D02*
X214168796Y-63370996D01*
X214168796Y-63370996D02*
X213883082Y-63370996D01*
X213883082Y-63370996D02*
X213740224Y-63299568D01*
X213740224Y-63299568D02*
X213668796Y-63156710D01*
X213668796Y-63156710D02*
X213668796Y-62585282D01*
X213668796Y-62585282D02*
X213740224Y-62442425D01*
X213740224Y-62442425D02*
X213883082Y-62370996D01*
X213883082Y-62370996D02*
X214168796Y-62370996D01*
X214168796Y-62370996D02*
X214311653Y-62442425D01*
X214311653Y-62442425D02*
X214383082Y-62585282D01*
X214383082Y-62585282D02*
X214383082Y-62728139D01*
X214383082Y-62728139D02*
X213668796Y-62870996D01*
X216883081Y-63370996D02*
X216168795Y-63370996D01*
X216168795Y-63370996D02*
X216168795Y-61870996D01*
X217383081Y-62585282D02*
X217883081Y-62585282D01*
X218097367Y-63370996D02*
X217383081Y-63370996D01*
X217383081Y-63370996D02*
X217383081Y-61870996D01*
X217383081Y-61870996D02*
X218097367Y-61870996D01*
X218740224Y-63370996D02*
X218740224Y-61870996D01*
X218740224Y-61870996D02*
X219097367Y-61870996D01*
X219097367Y-61870996D02*
X219311653Y-61942425D01*
X219311653Y-61942425D02*
X219454510Y-62085282D01*
X219454510Y-62085282D02*
X219525939Y-62228139D01*
X219525939Y-62228139D02*
X219597367Y-62513853D01*
X219597367Y-62513853D02*
X219597367Y-62728139D01*
X219597367Y-62728139D02*
X219525939Y-63013853D01*
X219525939Y-63013853D02*
X219454510Y-63156710D01*
X219454510Y-63156710D02*
X219311653Y-63299568D01*
X219311653Y-63299568D02*
X219097367Y-63370996D01*
X219097367Y-63370996D02*
X218740224Y-63370996D01*
X220168796Y-63299568D02*
X220383082Y-63370996D01*
X220383082Y-63370996D02*
X220740224Y-63370996D01*
X220740224Y-63370996D02*
X220883082Y-63299568D01*
X220883082Y-63299568D02*
X220954510Y-63228139D01*
X220954510Y-63228139D02*
X221025939Y-63085282D01*
X221025939Y-63085282D02*
X221025939Y-62942425D01*
X221025939Y-62942425D02*
X220954510Y-62799568D01*
X220954510Y-62799568D02*
X220883082Y-62728139D01*
X220883082Y-62728139D02*
X220740224Y-62656710D01*
X220740224Y-62656710D02*
X220454510Y-62585282D01*
X220454510Y-62585282D02*
X220311653Y-62513853D01*
X220311653Y-62513853D02*
X220240224Y-62442425D01*
X220240224Y-62442425D02*
X220168796Y-62299568D01*
X220168796Y-62299568D02*
X220168796Y-62156710D01*
X220168796Y-62156710D02*
X220240224Y-62013853D01*
X220240224Y-62013853D02*
X220311653Y-61942425D01*
X220311653Y-61942425D02*
X220454510Y-61870996D01*
X220454510Y-61870996D02*
X220811653Y-61870996D01*
X220811653Y-61870996D02*
X221025939Y-61942425D01*
X184097367Y-65214484D02*
X185240225Y-65214484D01*
X187097367Y-65785912D02*
X187097367Y-64285912D01*
X187097367Y-64285912D02*
X187597367Y-65357341D01*
X187597367Y-65357341D02*
X188097367Y-64285912D01*
X188097367Y-64285912D02*
X188097367Y-65785912D01*
X189454511Y-64785912D02*
X189454511Y-65785912D01*
X188811653Y-64785912D02*
X188811653Y-65571626D01*
X188811653Y-65571626D02*
X188883082Y-65714484D01*
X188883082Y-65714484D02*
X189025939Y-65785912D01*
X189025939Y-65785912D02*
X189240225Y-65785912D01*
X189240225Y-65785912D02*
X189383082Y-65714484D01*
X189383082Y-65714484D02*
X189454511Y-65643055D01*
X190383082Y-65785912D02*
X190240225Y-65714484D01*
X190240225Y-65714484D02*
X190168796Y-65571626D01*
X190168796Y-65571626D02*
X190168796Y-64285912D01*
X190740225Y-64785912D02*
X191311653Y-64785912D01*
X190954510Y-64285912D02*
X190954510Y-65571626D01*
X190954510Y-65571626D02*
X191025939Y-65714484D01*
X191025939Y-65714484D02*
X191168796Y-65785912D01*
X191168796Y-65785912D02*
X191311653Y-65785912D01*
X191811653Y-65785912D02*
X191811653Y-64785912D01*
X191811653Y-64285912D02*
X191740225Y-64357341D01*
X191740225Y-64357341D02*
X191811653Y-64428769D01*
X191811653Y-64428769D02*
X191883082Y-64357341D01*
X191883082Y-64357341D02*
X191811653Y-64285912D01*
X191811653Y-64285912D02*
X191811653Y-64428769D01*
X192525939Y-64785912D02*
X192525939Y-66285912D01*
X192525939Y-64857341D02*
X192668797Y-64785912D01*
X192668797Y-64785912D02*
X192954511Y-64785912D01*
X192954511Y-64785912D02*
X193097368Y-64857341D01*
X193097368Y-64857341D02*
X193168797Y-64928769D01*
X193168797Y-64928769D02*
X193240225Y-65071626D01*
X193240225Y-65071626D02*
X193240225Y-65500198D01*
X193240225Y-65500198D02*
X193168797Y-65643055D01*
X193168797Y-65643055D02*
X193097368Y-65714484D01*
X193097368Y-65714484D02*
X192954511Y-65785912D01*
X192954511Y-65785912D02*
X192668797Y-65785912D01*
X192668797Y-65785912D02*
X192525939Y-65714484D01*
X194097368Y-65785912D02*
X193954511Y-65714484D01*
X193954511Y-65714484D02*
X193883082Y-65571626D01*
X193883082Y-65571626D02*
X193883082Y-64285912D01*
X195240225Y-65714484D02*
X195097368Y-65785912D01*
X195097368Y-65785912D02*
X194811654Y-65785912D01*
X194811654Y-65785912D02*
X194668796Y-65714484D01*
X194668796Y-65714484D02*
X194597368Y-65571626D01*
X194597368Y-65571626D02*
X194597368Y-65000198D01*
X194597368Y-65000198D02*
X194668796Y-64857341D01*
X194668796Y-64857341D02*
X194811654Y-64785912D01*
X194811654Y-64785912D02*
X195097368Y-64785912D01*
X195097368Y-64785912D02*
X195240225Y-64857341D01*
X195240225Y-64857341D02*
X195311654Y-65000198D01*
X195311654Y-65000198D02*
X195311654Y-65143055D01*
X195311654Y-65143055D02*
X194597368Y-65285912D01*
X195811653Y-65785912D02*
X196597368Y-64785912D01*
X195811653Y-64785912D02*
X196597368Y-65785912D01*
X197740225Y-65714484D02*
X197597368Y-65785912D01*
X197597368Y-65785912D02*
X197311654Y-65785912D01*
X197311654Y-65785912D02*
X197168796Y-65714484D01*
X197168796Y-65714484D02*
X197097368Y-65571626D01*
X197097368Y-65571626D02*
X197097368Y-65000198D01*
X197097368Y-65000198D02*
X197168796Y-64857341D01*
X197168796Y-64857341D02*
X197311654Y-64785912D01*
X197311654Y-64785912D02*
X197597368Y-64785912D01*
X197597368Y-64785912D02*
X197740225Y-64857341D01*
X197740225Y-64857341D02*
X197811654Y-65000198D01*
X197811654Y-65000198D02*
X197811654Y-65143055D01*
X197811654Y-65143055D02*
X197097368Y-65285912D01*
X198454510Y-65785912D02*
X198454510Y-64785912D01*
X198454510Y-65071626D02*
X198525939Y-64928769D01*
X198525939Y-64928769D02*
X198597368Y-64857341D01*
X198597368Y-64857341D02*
X198740225Y-64785912D01*
X198740225Y-64785912D02*
X198883082Y-64785912D01*
X200525938Y-65214484D02*
X201668796Y-65214484D01*
X202383081Y-64785912D02*
X203525939Y-65214484D01*
X203525939Y-65214484D02*
X202383081Y-65643055D01*
X206025939Y-64785912D02*
X206025939Y-65785912D01*
X205383081Y-64785912D02*
X205383081Y-65571626D01*
X205383081Y-65571626D02*
X205454510Y-65714484D01*
X205454510Y-65714484D02*
X205597367Y-65785912D01*
X205597367Y-65785912D02*
X205811653Y-65785912D01*
X205811653Y-65785912D02*
X205954510Y-65714484D01*
X205954510Y-65714484D02*
X206025939Y-65643055D01*
X206668796Y-65714484D02*
X206811653Y-65785912D01*
X206811653Y-65785912D02*
X207097367Y-65785912D01*
X207097367Y-65785912D02*
X207240224Y-65714484D01*
X207240224Y-65714484D02*
X207311653Y-65571626D01*
X207311653Y-65571626D02*
X207311653Y-65500198D01*
X207311653Y-65500198D02*
X207240224Y-65357341D01*
X207240224Y-65357341D02*
X207097367Y-65285912D01*
X207097367Y-65285912D02*
X206883082Y-65285912D01*
X206883082Y-65285912D02*
X206740224Y-65214484D01*
X206740224Y-65214484D02*
X206668796Y-65071626D01*
X206668796Y-65071626D02*
X206668796Y-65000198D01*
X206668796Y-65000198D02*
X206740224Y-64857341D01*
X206740224Y-64857341D02*
X206883082Y-64785912D01*
X206883082Y-64785912D02*
X207097367Y-64785912D01*
X207097367Y-64785912D02*
X207240224Y-64857341D01*
X208525939Y-65714484D02*
X208383082Y-65785912D01*
X208383082Y-65785912D02*
X208097368Y-65785912D01*
X208097368Y-65785912D02*
X207954510Y-65714484D01*
X207954510Y-65714484D02*
X207883082Y-65571626D01*
X207883082Y-65571626D02*
X207883082Y-65000198D01*
X207883082Y-65000198D02*
X207954510Y-64857341D01*
X207954510Y-64857341D02*
X208097368Y-64785912D01*
X208097368Y-64785912D02*
X208383082Y-64785912D01*
X208383082Y-64785912D02*
X208525939Y-64857341D01*
X208525939Y-64857341D02*
X208597368Y-65000198D01*
X208597368Y-65000198D02*
X208597368Y-65143055D01*
X208597368Y-65143055D02*
X207883082Y-65285912D01*
X211025939Y-65785912D02*
X211025939Y-65000198D01*
X211025939Y-65000198D02*
X210954510Y-64857341D01*
X210954510Y-64857341D02*
X210811653Y-64785912D01*
X210811653Y-64785912D02*
X210525939Y-64785912D01*
X210525939Y-64785912D02*
X210383081Y-64857341D01*
X211025939Y-65714484D02*
X210883081Y-65785912D01*
X210883081Y-65785912D02*
X210525939Y-65785912D01*
X210525939Y-65785912D02*
X210383081Y-65714484D01*
X210383081Y-65714484D02*
X210311653Y-65571626D01*
X210311653Y-65571626D02*
X210311653Y-65428769D01*
X210311653Y-65428769D02*
X210383081Y-65285912D01*
X210383081Y-65285912D02*
X210525939Y-65214484D01*
X210525939Y-65214484D02*
X210883081Y-65214484D01*
X210883081Y-65214484D02*
X211025939Y-65143055D01*
X213525939Y-65714484D02*
X213383081Y-65785912D01*
X213383081Y-65785912D02*
X213097367Y-65785912D01*
X213097367Y-65785912D02*
X212954510Y-65714484D01*
X212954510Y-65714484D02*
X212883081Y-65643055D01*
X212883081Y-65643055D02*
X212811653Y-65500198D01*
X212811653Y-65500198D02*
X212811653Y-65071626D01*
X212811653Y-65071626D02*
X212883081Y-64928769D01*
X212883081Y-64928769D02*
X212954510Y-64857341D01*
X212954510Y-64857341D02*
X213097367Y-64785912D01*
X213097367Y-64785912D02*
X213383081Y-64785912D01*
X213383081Y-64785912D02*
X213525939Y-64857341D01*
X214168795Y-65785912D02*
X214168795Y-64285912D01*
X214811653Y-65785912D02*
X214811653Y-65000198D01*
X214811653Y-65000198D02*
X214740224Y-64857341D01*
X214740224Y-64857341D02*
X214597367Y-64785912D01*
X214597367Y-64785912D02*
X214383081Y-64785912D01*
X214383081Y-64785912D02*
X214240224Y-64857341D01*
X214240224Y-64857341D02*
X214168795Y-64928769D01*
X215525938Y-65785912D02*
X215525938Y-64785912D01*
X215525938Y-64285912D02*
X215454510Y-64357341D01*
X215454510Y-64357341D02*
X215525938Y-64428769D01*
X215525938Y-64428769D02*
X215597367Y-64357341D01*
X215597367Y-64357341D02*
X215525938Y-64285912D01*
X215525938Y-64285912D02*
X215525938Y-64428769D01*
X216240224Y-64785912D02*
X216240224Y-66285912D01*
X216240224Y-64857341D02*
X216383082Y-64785912D01*
X216383082Y-64785912D02*
X216668796Y-64785912D01*
X216668796Y-64785912D02*
X216811653Y-64857341D01*
X216811653Y-64857341D02*
X216883082Y-64928769D01*
X216883082Y-64928769D02*
X216954510Y-65071626D01*
X216954510Y-65071626D02*
X216954510Y-65500198D01*
X216954510Y-65500198D02*
X216883082Y-65643055D01*
X216883082Y-65643055D02*
X216811653Y-65714484D01*
X216811653Y-65714484D02*
X216668796Y-65785912D01*
X216668796Y-65785912D02*
X216383082Y-65785912D01*
X216383082Y-65785912D02*
X216240224Y-65714484D01*
X217811653Y-65643055D02*
X217883082Y-65714484D01*
X217883082Y-65714484D02*
X217811653Y-65785912D01*
X217811653Y-65785912D02*
X217740225Y-65714484D01*
X217740225Y-65714484D02*
X217811653Y-65643055D01*
X217811653Y-65643055D02*
X217811653Y-65785912D01*
X217525939Y-64357341D02*
X217668796Y-64285912D01*
X217668796Y-64285912D02*
X218025939Y-64285912D01*
X218025939Y-64285912D02*
X218168796Y-64357341D01*
X218168796Y-64357341D02*
X218240225Y-64500198D01*
X218240225Y-64500198D02*
X218240225Y-64643055D01*
X218240225Y-64643055D02*
X218168796Y-64785912D01*
X218168796Y-64785912D02*
X218097367Y-64857341D01*
X218097367Y-64857341D02*
X217954510Y-64928769D01*
X217954510Y-64928769D02*
X217883082Y-65000198D01*
X217883082Y-65000198D02*
X217811653Y-65143055D01*
X217811653Y-65143055D02*
X217811653Y-65214484D01*
X186383081Y-67629400D02*
X187525939Y-67629400D01*
X189383081Y-68200828D02*
X189383081Y-66700828D01*
X190025939Y-68129400D02*
X190168796Y-68200828D01*
X190168796Y-68200828D02*
X190454510Y-68200828D01*
X190454510Y-68200828D02*
X190597367Y-68129400D01*
X190597367Y-68129400D02*
X190668796Y-67986542D01*
X190668796Y-67986542D02*
X190668796Y-67915114D01*
X190668796Y-67915114D02*
X190597367Y-67772257D01*
X190597367Y-67772257D02*
X190454510Y-67700828D01*
X190454510Y-67700828D02*
X190240225Y-67700828D01*
X190240225Y-67700828D02*
X190097367Y-67629400D01*
X190097367Y-67629400D02*
X190025939Y-67486542D01*
X190025939Y-67486542D02*
X190025939Y-67415114D01*
X190025939Y-67415114D02*
X190097367Y-67272257D01*
X190097367Y-67272257D02*
X190240225Y-67200828D01*
X190240225Y-67200828D02*
X190454510Y-67200828D01*
X190454510Y-67200828D02*
X190597367Y-67272257D01*
X191240225Y-68129400D02*
X191383082Y-68200828D01*
X191383082Y-68200828D02*
X191668796Y-68200828D01*
X191668796Y-68200828D02*
X191811653Y-68129400D01*
X191811653Y-68129400D02*
X191883082Y-67986542D01*
X191883082Y-67986542D02*
X191883082Y-67915114D01*
X191883082Y-67915114D02*
X191811653Y-67772257D01*
X191811653Y-67772257D02*
X191668796Y-67700828D01*
X191668796Y-67700828D02*
X191454511Y-67700828D01*
X191454511Y-67700828D02*
X191311653Y-67629400D01*
X191311653Y-67629400D02*
X191240225Y-67486542D01*
X191240225Y-67486542D02*
X191240225Y-67415114D01*
X191240225Y-67415114D02*
X191311653Y-67272257D01*
X191311653Y-67272257D02*
X191454511Y-67200828D01*
X191454511Y-67200828D02*
X191668796Y-67200828D01*
X191668796Y-67200828D02*
X191811653Y-67272257D01*
X193168797Y-67200828D02*
X193168797Y-68200828D01*
X192525939Y-67200828D02*
X192525939Y-67986542D01*
X192525939Y-67986542D02*
X192597368Y-68129400D01*
X192597368Y-68129400D02*
X192740225Y-68200828D01*
X192740225Y-68200828D02*
X192954511Y-68200828D01*
X192954511Y-68200828D02*
X193097368Y-68129400D01*
X193097368Y-68129400D02*
X193168797Y-68057971D01*
X194454511Y-68129400D02*
X194311654Y-68200828D01*
X194311654Y-68200828D02*
X194025940Y-68200828D01*
X194025940Y-68200828D02*
X193883082Y-68129400D01*
X193883082Y-68129400D02*
X193811654Y-67986542D01*
X193811654Y-67986542D02*
X193811654Y-67415114D01*
X193811654Y-67415114D02*
X193883082Y-67272257D01*
X193883082Y-67272257D02*
X194025940Y-67200828D01*
X194025940Y-67200828D02*
X194311654Y-67200828D01*
X194311654Y-67200828D02*
X194454511Y-67272257D01*
X194454511Y-67272257D02*
X194525940Y-67415114D01*
X194525940Y-67415114D02*
X194525940Y-67557971D01*
X194525940Y-67557971D02*
X193811654Y-67700828D01*
X196168796Y-67200828D02*
X196454511Y-68200828D01*
X196454511Y-68200828D02*
X196740225Y-67486542D01*
X196740225Y-67486542D02*
X197025939Y-68200828D01*
X197025939Y-68200828D02*
X197311653Y-67200828D01*
X197883082Y-68200828D02*
X197883082Y-67200828D01*
X197883082Y-66700828D02*
X197811654Y-66772257D01*
X197811654Y-66772257D02*
X197883082Y-66843685D01*
X197883082Y-66843685D02*
X197954511Y-66772257D01*
X197954511Y-66772257D02*
X197883082Y-66700828D01*
X197883082Y-66700828D02*
X197883082Y-66843685D01*
X198383083Y-67200828D02*
X198954511Y-67200828D01*
X198597368Y-66700828D02*
X198597368Y-67986542D01*
X198597368Y-67986542D02*
X198668797Y-68129400D01*
X198668797Y-68129400D02*
X198811654Y-68200828D01*
X198811654Y-68200828D02*
X198954511Y-68200828D01*
X199454511Y-68200828D02*
X199454511Y-66700828D01*
X200097369Y-68200828D02*
X200097369Y-67415114D01*
X200097369Y-67415114D02*
X200025940Y-67272257D01*
X200025940Y-67272257D02*
X199883083Y-67200828D01*
X199883083Y-67200828D02*
X199668797Y-67200828D01*
X199668797Y-67200828D02*
X199525940Y-67272257D01*
X199525940Y-67272257D02*
X199454511Y-67343685D01*
X202525940Y-68129400D02*
X202383083Y-68200828D01*
X202383083Y-68200828D02*
X202097369Y-68200828D01*
X202097369Y-68200828D02*
X201954511Y-68129400D01*
X201954511Y-68129400D02*
X201883083Y-67986542D01*
X201883083Y-67986542D02*
X201883083Y-67415114D01*
X201883083Y-67415114D02*
X201954511Y-67272257D01*
X201954511Y-67272257D02*
X202097369Y-67200828D01*
X202097369Y-67200828D02*
X202383083Y-67200828D01*
X202383083Y-67200828D02*
X202525940Y-67272257D01*
X202525940Y-67272257D02*
X202597369Y-67415114D01*
X202597369Y-67415114D02*
X202597369Y-67557971D01*
X202597369Y-67557971D02*
X201883083Y-67700828D01*
X203097368Y-68200828D02*
X203883083Y-67200828D01*
X203097368Y-67200828D02*
X203883083Y-68200828D01*
X205097369Y-68129400D02*
X204954511Y-68200828D01*
X204954511Y-68200828D02*
X204668797Y-68200828D01*
X204668797Y-68200828D02*
X204525940Y-68129400D01*
X204525940Y-68129400D02*
X204454511Y-68057971D01*
X204454511Y-68057971D02*
X204383083Y-67915114D01*
X204383083Y-67915114D02*
X204383083Y-67486542D01*
X204383083Y-67486542D02*
X204454511Y-67343685D01*
X204454511Y-67343685D02*
X204525940Y-67272257D01*
X204525940Y-67272257D02*
X204668797Y-67200828D01*
X204668797Y-67200828D02*
X204954511Y-67200828D01*
X204954511Y-67200828D02*
X205097369Y-67272257D01*
X206311654Y-68129400D02*
X206168797Y-68200828D01*
X206168797Y-68200828D02*
X205883083Y-68200828D01*
X205883083Y-68200828D02*
X205740225Y-68129400D01*
X205740225Y-68129400D02*
X205668797Y-67986542D01*
X205668797Y-67986542D02*
X205668797Y-67415114D01*
X205668797Y-67415114D02*
X205740225Y-67272257D01*
X205740225Y-67272257D02*
X205883083Y-67200828D01*
X205883083Y-67200828D02*
X206168797Y-67200828D01*
X206168797Y-67200828D02*
X206311654Y-67272257D01*
X206311654Y-67272257D02*
X206383083Y-67415114D01*
X206383083Y-67415114D02*
X206383083Y-67557971D01*
X206383083Y-67557971D02*
X205668797Y-67700828D01*
X207597368Y-68129400D02*
X207454511Y-68200828D01*
X207454511Y-68200828D02*
X207168797Y-68200828D01*
X207168797Y-68200828D02*
X207025939Y-68129400D01*
X207025939Y-68129400D02*
X206954511Y-67986542D01*
X206954511Y-67986542D02*
X206954511Y-67415114D01*
X206954511Y-67415114D02*
X207025939Y-67272257D01*
X207025939Y-67272257D02*
X207168797Y-67200828D01*
X207168797Y-67200828D02*
X207454511Y-67200828D01*
X207454511Y-67200828D02*
X207597368Y-67272257D01*
X207597368Y-67272257D02*
X207668797Y-67415114D01*
X207668797Y-67415114D02*
X207668797Y-67557971D01*
X207668797Y-67557971D02*
X206954511Y-67700828D01*
X208954511Y-68200828D02*
X208954511Y-66700828D01*
X208954511Y-68129400D02*
X208811653Y-68200828D01*
X208811653Y-68200828D02*
X208525939Y-68200828D01*
X208525939Y-68200828D02*
X208383082Y-68129400D01*
X208383082Y-68129400D02*
X208311653Y-68057971D01*
X208311653Y-68057971D02*
X208240225Y-67915114D01*
X208240225Y-67915114D02*
X208240225Y-67486542D01*
X208240225Y-67486542D02*
X208311653Y-67343685D01*
X208311653Y-67343685D02*
X208383082Y-67272257D01*
X208383082Y-67272257D02*
X208525939Y-67200828D01*
X208525939Y-67200828D02*
X208811653Y-67200828D01*
X208811653Y-67200828D02*
X208954511Y-67272257D01*
X209668796Y-68200828D02*
X209668796Y-67200828D01*
X209668796Y-66700828D02*
X209597368Y-66772257D01*
X209597368Y-66772257D02*
X209668796Y-66843685D01*
X209668796Y-66843685D02*
X209740225Y-66772257D01*
X209740225Y-66772257D02*
X209668796Y-66700828D01*
X209668796Y-66700828D02*
X209668796Y-66843685D01*
X210383082Y-67200828D02*
X210383082Y-68200828D01*
X210383082Y-67343685D02*
X210454511Y-67272257D01*
X210454511Y-67272257D02*
X210597368Y-67200828D01*
X210597368Y-67200828D02*
X210811654Y-67200828D01*
X210811654Y-67200828D02*
X210954511Y-67272257D01*
X210954511Y-67272257D02*
X211025940Y-67415114D01*
X211025940Y-67415114D02*
X211025940Y-68200828D01*
X212383083Y-67200828D02*
X212383083Y-68415114D01*
X212383083Y-68415114D02*
X212311654Y-68557971D01*
X212311654Y-68557971D02*
X212240225Y-68629400D01*
X212240225Y-68629400D02*
X212097368Y-68700828D01*
X212097368Y-68700828D02*
X211883083Y-68700828D01*
X211883083Y-68700828D02*
X211740225Y-68629400D01*
X212383083Y-68129400D02*
X212240225Y-68200828D01*
X212240225Y-68200828D02*
X211954511Y-68200828D01*
X211954511Y-68200828D02*
X211811654Y-68129400D01*
X211811654Y-68129400D02*
X211740225Y-68057971D01*
X211740225Y-68057971D02*
X211668797Y-67915114D01*
X211668797Y-67915114D02*
X211668797Y-67486542D01*
X211668797Y-67486542D02*
X211740225Y-67343685D01*
X211740225Y-67343685D02*
X211811654Y-67272257D01*
X211811654Y-67272257D02*
X211954511Y-67200828D01*
X211954511Y-67200828D02*
X212240225Y-67200828D01*
X212240225Y-67200828D02*
X212383083Y-67272257D01*
X214240225Y-67629400D02*
X215383083Y-67629400D01*
X214811654Y-68200828D02*
X214811654Y-67057971D01*
X216025940Y-66843685D02*
X216097368Y-66772257D01*
X216097368Y-66772257D02*
X216240226Y-66700828D01*
X216240226Y-66700828D02*
X216597368Y-66700828D01*
X216597368Y-66700828D02*
X216740226Y-66772257D01*
X216740226Y-66772257D02*
X216811654Y-66843685D01*
X216811654Y-66843685D02*
X216883083Y-66986542D01*
X216883083Y-66986542D02*
X216883083Y-67129400D01*
X216883083Y-67129400D02*
X216811654Y-67343685D01*
X216811654Y-67343685D02*
X215954511Y-68200828D01*
X215954511Y-68200828D02*
X216883083Y-68200828D01*
X217811654Y-66700828D02*
X217954511Y-66700828D01*
X217954511Y-66700828D02*
X218097368Y-66772257D01*
X218097368Y-66772257D02*
X218168797Y-66843685D01*
X218168797Y-66843685D02*
X218240225Y-66986542D01*
X218240225Y-66986542D02*
X218311654Y-67272257D01*
X218311654Y-67272257D02*
X218311654Y-67629400D01*
X218311654Y-67629400D02*
X218240225Y-67915114D01*
X218240225Y-67915114D02*
X218168797Y-68057971D01*
X218168797Y-68057971D02*
X218097368Y-68129400D01*
X218097368Y-68129400D02*
X217954511Y-68200828D01*
X217954511Y-68200828D02*
X217811654Y-68200828D01*
X217811654Y-68200828D02*
X217668797Y-68129400D01*
X217668797Y-68129400D02*
X217597368Y-68057971D01*
X217597368Y-68057971D02*
X217525939Y-67915114D01*
X217525939Y-67915114D02*
X217454511Y-67629400D01*
X217454511Y-67629400D02*
X217454511Y-67272257D01*
X217454511Y-67272257D02*
X217525939Y-66986542D01*
X217525939Y-66986542D02*
X217597368Y-66843685D01*
X217597368Y-66843685D02*
X217668797Y-66772257D01*
X217668797Y-66772257D02*
X217811654Y-66700828D01*
X218740225Y-66700828D02*
X219240225Y-68200828D01*
X219240225Y-68200828D02*
X219740225Y-66700828D01*
X222025939Y-68200828D02*
X222025939Y-66700828D01*
X222025939Y-68129400D02*
X221883081Y-68200828D01*
X221883081Y-68200828D02*
X221597367Y-68200828D01*
X221597367Y-68200828D02*
X221454510Y-68129400D01*
X221454510Y-68129400D02*
X221383081Y-68057971D01*
X221383081Y-68057971D02*
X221311653Y-67915114D01*
X221311653Y-67915114D02*
X221311653Y-67486542D01*
X221311653Y-67486542D02*
X221383081Y-67343685D01*
X221383081Y-67343685D02*
X221454510Y-67272257D01*
X221454510Y-67272257D02*
X221597367Y-67200828D01*
X221597367Y-67200828D02*
X221883081Y-67200828D01*
X221883081Y-67200828D02*
X222025939Y-67272257D01*
X222740224Y-68200828D02*
X222740224Y-67200828D01*
X222740224Y-67486542D02*
X222811653Y-67343685D01*
X222811653Y-67343685D02*
X222883082Y-67272257D01*
X222883082Y-67272257D02*
X223025939Y-67200828D01*
X223025939Y-67200828D02*
X223168796Y-67200828D01*
X224311653Y-68200828D02*
X224311653Y-67415114D01*
X224311653Y-67415114D02*
X224240224Y-67272257D01*
X224240224Y-67272257D02*
X224097367Y-67200828D01*
X224097367Y-67200828D02*
X223811653Y-67200828D01*
X223811653Y-67200828D02*
X223668795Y-67272257D01*
X224311653Y-68129400D02*
X224168795Y-68200828D01*
X224168795Y-68200828D02*
X223811653Y-68200828D01*
X223811653Y-68200828D02*
X223668795Y-68129400D01*
X223668795Y-68129400D02*
X223597367Y-67986542D01*
X223597367Y-67986542D02*
X223597367Y-67843685D01*
X223597367Y-67843685D02*
X223668795Y-67700828D01*
X223668795Y-67700828D02*
X223811653Y-67629400D01*
X223811653Y-67629400D02*
X224168795Y-67629400D01*
X224168795Y-67629400D02*
X224311653Y-67557971D01*
X225025938Y-68200828D02*
X225025938Y-67200828D01*
X225025938Y-66700828D02*
X224954510Y-66772257D01*
X224954510Y-66772257D02*
X225025938Y-66843685D01*
X225025938Y-66843685D02*
X225097367Y-66772257D01*
X225097367Y-66772257D02*
X225025938Y-66700828D01*
X225025938Y-66700828D02*
X225025938Y-66843685D01*
X225740224Y-67200828D02*
X225740224Y-68200828D01*
X225740224Y-67343685D02*
X225811653Y-67272257D01*
X225811653Y-67272257D02*
X225954510Y-67200828D01*
X225954510Y-67200828D02*
X226168796Y-67200828D01*
X226168796Y-67200828D02*
X226311653Y-67272257D01*
X226311653Y-67272257D02*
X226383082Y-67415114D01*
X226383082Y-67415114D02*
X226383082Y-68200828D01*
X227097367Y-67629400D02*
X228240225Y-67629400D01*
X228883082Y-68129400D02*
X229025939Y-68200828D01*
X229025939Y-68200828D02*
X229311653Y-68200828D01*
X229311653Y-68200828D02*
X229454510Y-68129400D01*
X229454510Y-68129400D02*
X229525939Y-67986542D01*
X229525939Y-67986542D02*
X229525939Y-67915114D01*
X229525939Y-67915114D02*
X229454510Y-67772257D01*
X229454510Y-67772257D02*
X229311653Y-67700828D01*
X229311653Y-67700828D02*
X229097368Y-67700828D01*
X229097368Y-67700828D02*
X228954510Y-67629400D01*
X228954510Y-67629400D02*
X228883082Y-67486542D01*
X228883082Y-67486542D02*
X228883082Y-67415114D01*
X228883082Y-67415114D02*
X228954510Y-67272257D01*
X228954510Y-67272257D02*
X229097368Y-67200828D01*
X229097368Y-67200828D02*
X229311653Y-67200828D01*
X229311653Y-67200828D02*
X229454510Y-67272257D01*
X230383082Y-68200828D02*
X230240225Y-68129400D01*
X230240225Y-68129400D02*
X230168796Y-68057971D01*
X230168796Y-68057971D02*
X230097368Y-67915114D01*
X230097368Y-67915114D02*
X230097368Y-67486542D01*
X230097368Y-67486542D02*
X230168796Y-67343685D01*
X230168796Y-67343685D02*
X230240225Y-67272257D01*
X230240225Y-67272257D02*
X230383082Y-67200828D01*
X230383082Y-67200828D02*
X230597368Y-67200828D01*
X230597368Y-67200828D02*
X230740225Y-67272257D01*
X230740225Y-67272257D02*
X230811654Y-67343685D01*
X230811654Y-67343685D02*
X230883082Y-67486542D01*
X230883082Y-67486542D02*
X230883082Y-67915114D01*
X230883082Y-67915114D02*
X230811654Y-68057971D01*
X230811654Y-68057971D02*
X230740225Y-68129400D01*
X230740225Y-68129400D02*
X230597368Y-68200828D01*
X230597368Y-68200828D02*
X230383082Y-68200828D01*
X232168797Y-67200828D02*
X232168797Y-68200828D01*
X231525939Y-67200828D02*
X231525939Y-67986542D01*
X231525939Y-67986542D02*
X231597368Y-68129400D01*
X231597368Y-68129400D02*
X231740225Y-68200828D01*
X231740225Y-68200828D02*
X231954511Y-68200828D01*
X231954511Y-68200828D02*
X232097368Y-68129400D01*
X232097368Y-68129400D02*
X232168797Y-68057971D01*
X232883082Y-68200828D02*
X232883082Y-67200828D01*
X232883082Y-67486542D02*
X232954511Y-67343685D01*
X232954511Y-67343685D02*
X233025940Y-67272257D01*
X233025940Y-67272257D02*
X233168797Y-67200828D01*
X233168797Y-67200828D02*
X233311654Y-67200828D01*
X234454511Y-68129400D02*
X234311653Y-68200828D01*
X234311653Y-68200828D02*
X234025939Y-68200828D01*
X234025939Y-68200828D02*
X233883082Y-68129400D01*
X233883082Y-68129400D02*
X233811653Y-68057971D01*
X233811653Y-68057971D02*
X233740225Y-67915114D01*
X233740225Y-67915114D02*
X233740225Y-67486542D01*
X233740225Y-67486542D02*
X233811653Y-67343685D01*
X233811653Y-67343685D02*
X233883082Y-67272257D01*
X233883082Y-67272257D02*
X234025939Y-67200828D01*
X234025939Y-67200828D02*
X234311653Y-67200828D01*
X234311653Y-67200828D02*
X234454511Y-67272257D01*
X235668796Y-68129400D02*
X235525939Y-68200828D01*
X235525939Y-68200828D02*
X235240225Y-68200828D01*
X235240225Y-68200828D02*
X235097367Y-68129400D01*
X235097367Y-68129400D02*
X235025939Y-67986542D01*
X235025939Y-67986542D02*
X235025939Y-67415114D01*
X235025939Y-67415114D02*
X235097367Y-67272257D01*
X235097367Y-67272257D02*
X235240225Y-67200828D01*
X235240225Y-67200828D02*
X235525939Y-67200828D01*
X235525939Y-67200828D02*
X235668796Y-67272257D01*
X235668796Y-67272257D02*
X235740225Y-67415114D01*
X235740225Y-67415114D02*
X235740225Y-67557971D01*
X235740225Y-67557971D02*
X235025939Y-67700828D01*
X237740224Y-68200828D02*
X237597367Y-68129400D01*
X237597367Y-68129400D02*
X237525938Y-68057971D01*
X237525938Y-68057971D02*
X237454510Y-67915114D01*
X237454510Y-67915114D02*
X237454510Y-67486542D01*
X237454510Y-67486542D02*
X237525938Y-67343685D01*
X237525938Y-67343685D02*
X237597367Y-67272257D01*
X237597367Y-67272257D02*
X237740224Y-67200828D01*
X237740224Y-67200828D02*
X237954510Y-67200828D01*
X237954510Y-67200828D02*
X238097367Y-67272257D01*
X238097367Y-67272257D02*
X238168796Y-67343685D01*
X238168796Y-67343685D02*
X238240224Y-67486542D01*
X238240224Y-67486542D02*
X238240224Y-67915114D01*
X238240224Y-67915114D02*
X238168796Y-68057971D01*
X238168796Y-68057971D02*
X238097367Y-68129400D01*
X238097367Y-68129400D02*
X237954510Y-68200828D01*
X237954510Y-68200828D02*
X237740224Y-68200828D01*
X238883081Y-68200828D02*
X238883081Y-67200828D01*
X238883081Y-67486542D02*
X238954510Y-67343685D01*
X238954510Y-67343685D02*
X239025939Y-67272257D01*
X239025939Y-67272257D02*
X239168796Y-67200828D01*
X239168796Y-67200828D02*
X239311653Y-67200828D01*
X240954509Y-67629400D02*
X242097367Y-67629400D01*
X243025938Y-67343685D02*
X242883081Y-67272257D01*
X242883081Y-67272257D02*
X242811652Y-67200828D01*
X242811652Y-67200828D02*
X242740224Y-67057971D01*
X242740224Y-67057971D02*
X242740224Y-66986542D01*
X242740224Y-66986542D02*
X242811652Y-66843685D01*
X242811652Y-66843685D02*
X242883081Y-66772257D01*
X242883081Y-66772257D02*
X243025938Y-66700828D01*
X243025938Y-66700828D02*
X243311652Y-66700828D01*
X243311652Y-66700828D02*
X243454510Y-66772257D01*
X243454510Y-66772257D02*
X243525938Y-66843685D01*
X243525938Y-66843685D02*
X243597367Y-66986542D01*
X243597367Y-66986542D02*
X243597367Y-67057971D01*
X243597367Y-67057971D02*
X243525938Y-67200828D01*
X243525938Y-67200828D02*
X243454510Y-67272257D01*
X243454510Y-67272257D02*
X243311652Y-67343685D01*
X243311652Y-67343685D02*
X243025938Y-67343685D01*
X243025938Y-67343685D02*
X242883081Y-67415114D01*
X242883081Y-67415114D02*
X242811652Y-67486542D01*
X242811652Y-67486542D02*
X242740224Y-67629400D01*
X242740224Y-67629400D02*
X242740224Y-67915114D01*
X242740224Y-67915114D02*
X242811652Y-68057971D01*
X242811652Y-68057971D02*
X242883081Y-68129400D01*
X242883081Y-68129400D02*
X243025938Y-68200828D01*
X243025938Y-68200828D02*
X243311652Y-68200828D01*
X243311652Y-68200828D02*
X243454510Y-68129400D01*
X243454510Y-68129400D02*
X243525938Y-68057971D01*
X243525938Y-68057971D02*
X243597367Y-67915114D01*
X243597367Y-67915114D02*
X243597367Y-67629400D01*
X243597367Y-67629400D02*
X243525938Y-67486542D01*
X243525938Y-67486542D02*
X243454510Y-67415114D01*
X243454510Y-67415114D02*
X243311652Y-67343685D01*
X244097366Y-67200828D02*
X244454509Y-68200828D01*
X244454509Y-68200828D02*
X244811652Y-67200828D01*
X247168795Y-67200828D02*
X247168795Y-68415114D01*
X247168795Y-68415114D02*
X247097366Y-68557971D01*
X247097366Y-68557971D02*
X247025937Y-68629400D01*
X247025937Y-68629400D02*
X246883080Y-68700828D01*
X246883080Y-68700828D02*
X246668795Y-68700828D01*
X246668795Y-68700828D02*
X246525937Y-68629400D01*
X247168795Y-68129400D02*
X247025937Y-68200828D01*
X247025937Y-68200828D02*
X246740223Y-68200828D01*
X246740223Y-68200828D02*
X246597366Y-68129400D01*
X246597366Y-68129400D02*
X246525937Y-68057971D01*
X246525937Y-68057971D02*
X246454509Y-67915114D01*
X246454509Y-67915114D02*
X246454509Y-67486542D01*
X246454509Y-67486542D02*
X246525937Y-67343685D01*
X246525937Y-67343685D02*
X246597366Y-67272257D01*
X246597366Y-67272257D02*
X246740223Y-67200828D01*
X246740223Y-67200828D02*
X247025937Y-67200828D01*
X247025937Y-67200828D02*
X247168795Y-67272257D01*
X248525938Y-68200828D02*
X248525938Y-67415114D01*
X248525938Y-67415114D02*
X248454509Y-67272257D01*
X248454509Y-67272257D02*
X248311652Y-67200828D01*
X248311652Y-67200828D02*
X248025938Y-67200828D01*
X248025938Y-67200828D02*
X247883080Y-67272257D01*
X248525938Y-68129400D02*
X248383080Y-68200828D01*
X248383080Y-68200828D02*
X248025938Y-68200828D01*
X248025938Y-68200828D02*
X247883080Y-68129400D01*
X247883080Y-68129400D02*
X247811652Y-67986542D01*
X247811652Y-67986542D02*
X247811652Y-67843685D01*
X247811652Y-67843685D02*
X247883080Y-67700828D01*
X247883080Y-67700828D02*
X248025938Y-67629400D01*
X248025938Y-67629400D02*
X248383080Y-67629400D01*
X248383080Y-67629400D02*
X248525938Y-67557971D01*
X249025938Y-67200828D02*
X249597366Y-67200828D01*
X249240223Y-66700828D02*
X249240223Y-67986542D01*
X249240223Y-67986542D02*
X249311652Y-68129400D01*
X249311652Y-68129400D02*
X249454509Y-68200828D01*
X249454509Y-68200828D02*
X249597366Y-68200828D01*
X250668795Y-68129400D02*
X250525938Y-68200828D01*
X250525938Y-68200828D02*
X250240224Y-68200828D01*
X250240224Y-68200828D02*
X250097366Y-68129400D01*
X250097366Y-68129400D02*
X250025938Y-67986542D01*
X250025938Y-67986542D02*
X250025938Y-67415114D01*
X250025938Y-67415114D02*
X250097366Y-67272257D01*
X250097366Y-67272257D02*
X250240224Y-67200828D01*
X250240224Y-67200828D02*
X250525938Y-67200828D01*
X250525938Y-67200828D02*
X250668795Y-67272257D01*
X250668795Y-67272257D02*
X250740224Y-67415114D01*
X250740224Y-67415114D02*
X250740224Y-67557971D01*
X250740224Y-67557971D02*
X250025938Y-67700828D01*
X252454509Y-68129400D02*
X252597366Y-68200828D01*
X252597366Y-68200828D02*
X252883080Y-68200828D01*
X252883080Y-68200828D02*
X253025937Y-68129400D01*
X253025937Y-68129400D02*
X253097366Y-67986542D01*
X253097366Y-67986542D02*
X253097366Y-67915114D01*
X253097366Y-67915114D02*
X253025937Y-67772257D01*
X253025937Y-67772257D02*
X252883080Y-67700828D01*
X252883080Y-67700828D02*
X252668795Y-67700828D01*
X252668795Y-67700828D02*
X252525937Y-67629400D01*
X252525937Y-67629400D02*
X252454509Y-67486542D01*
X252454509Y-67486542D02*
X252454509Y-67415114D01*
X252454509Y-67415114D02*
X252525937Y-67272257D01*
X252525937Y-67272257D02*
X252668795Y-67200828D01*
X252668795Y-67200828D02*
X252883080Y-67200828D01*
X252883080Y-67200828D02*
X253025937Y-67272257D01*
X253954509Y-68200828D02*
X253811652Y-68129400D01*
X253811652Y-68129400D02*
X253740223Y-68057971D01*
X253740223Y-68057971D02*
X253668795Y-67915114D01*
X253668795Y-67915114D02*
X253668795Y-67486542D01*
X253668795Y-67486542D02*
X253740223Y-67343685D01*
X253740223Y-67343685D02*
X253811652Y-67272257D01*
X253811652Y-67272257D02*
X253954509Y-67200828D01*
X253954509Y-67200828D02*
X254168795Y-67200828D01*
X254168795Y-67200828D02*
X254311652Y-67272257D01*
X254311652Y-67272257D02*
X254383081Y-67343685D01*
X254383081Y-67343685D02*
X254454509Y-67486542D01*
X254454509Y-67486542D02*
X254454509Y-67915114D01*
X254454509Y-67915114D02*
X254383081Y-68057971D01*
X254383081Y-68057971D02*
X254311652Y-68129400D01*
X254311652Y-68129400D02*
X254168795Y-68200828D01*
X254168795Y-68200828D02*
X253954509Y-68200828D01*
X255740224Y-67200828D02*
X255740224Y-68200828D01*
X255097366Y-67200828D02*
X255097366Y-67986542D01*
X255097366Y-67986542D02*
X255168795Y-68129400D01*
X255168795Y-68129400D02*
X255311652Y-68200828D01*
X255311652Y-68200828D02*
X255525938Y-68200828D01*
X255525938Y-68200828D02*
X255668795Y-68129400D01*
X255668795Y-68129400D02*
X255740224Y-68057971D01*
X256454509Y-68200828D02*
X256454509Y-67200828D01*
X256454509Y-67486542D02*
X256525938Y-67343685D01*
X256525938Y-67343685D02*
X256597367Y-67272257D01*
X256597367Y-67272257D02*
X256740224Y-67200828D01*
X256740224Y-67200828D02*
X256883081Y-67200828D01*
X258025938Y-68129400D02*
X257883080Y-68200828D01*
X257883080Y-68200828D02*
X257597366Y-68200828D01*
X257597366Y-68200828D02*
X257454509Y-68129400D01*
X257454509Y-68129400D02*
X257383080Y-68057971D01*
X257383080Y-68057971D02*
X257311652Y-67915114D01*
X257311652Y-67915114D02*
X257311652Y-67486542D01*
X257311652Y-67486542D02*
X257383080Y-67343685D01*
X257383080Y-67343685D02*
X257454509Y-67272257D01*
X257454509Y-67272257D02*
X257597366Y-67200828D01*
X257597366Y-67200828D02*
X257883080Y-67200828D01*
X257883080Y-67200828D02*
X258025938Y-67272257D01*
X259240223Y-68129400D02*
X259097366Y-68200828D01*
X259097366Y-68200828D02*
X258811652Y-68200828D01*
X258811652Y-68200828D02*
X258668794Y-68129400D01*
X258668794Y-68129400D02*
X258597366Y-67986542D01*
X258597366Y-67986542D02*
X258597366Y-67415114D01*
X258597366Y-67415114D02*
X258668794Y-67272257D01*
X258668794Y-67272257D02*
X258811652Y-67200828D01*
X258811652Y-67200828D02*
X259097366Y-67200828D01*
X259097366Y-67200828D02*
X259240223Y-67272257D01*
X259240223Y-67272257D02*
X259311652Y-67415114D01*
X259311652Y-67415114D02*
X259311652Y-67557971D01*
X259311652Y-67557971D02*
X258597366Y-67700828D01*
X261097365Y-68200828D02*
X261097365Y-67200828D01*
X261097365Y-66700828D02*
X261025937Y-66772257D01*
X261025937Y-66772257D02*
X261097365Y-66843685D01*
X261097365Y-66843685D02*
X261168794Y-66772257D01*
X261168794Y-66772257D02*
X261097365Y-66700828D01*
X261097365Y-66700828D02*
X261097365Y-66843685D01*
X261597366Y-67200828D02*
X262168794Y-67200828D01*
X261811651Y-68200828D02*
X261811651Y-66915114D01*
X261811651Y-66915114D02*
X261883080Y-66772257D01*
X261883080Y-66772257D02*
X262025937Y-66700828D01*
X262025937Y-66700828D02*
X262168794Y-66700828D01*
X263740223Y-68129400D02*
X263883080Y-68200828D01*
X263883080Y-68200828D02*
X264168794Y-68200828D01*
X264168794Y-68200828D02*
X264311651Y-68129400D01*
X264311651Y-68129400D02*
X264383080Y-67986542D01*
X264383080Y-67986542D02*
X264383080Y-67915114D01*
X264383080Y-67915114D02*
X264311651Y-67772257D01*
X264311651Y-67772257D02*
X264168794Y-67700828D01*
X264168794Y-67700828D02*
X263954509Y-67700828D01*
X263954509Y-67700828D02*
X263811651Y-67629400D01*
X263811651Y-67629400D02*
X263740223Y-67486542D01*
X263740223Y-67486542D02*
X263740223Y-67415114D01*
X263740223Y-67415114D02*
X263811651Y-67272257D01*
X263811651Y-67272257D02*
X263954509Y-67200828D01*
X263954509Y-67200828D02*
X264168794Y-67200828D01*
X264168794Y-67200828D02*
X264311651Y-67272257D01*
X265240223Y-68200828D02*
X265097366Y-68129400D01*
X265097366Y-68129400D02*
X265025937Y-68057971D01*
X265025937Y-68057971D02*
X264954509Y-67915114D01*
X264954509Y-67915114D02*
X264954509Y-67486542D01*
X264954509Y-67486542D02*
X265025937Y-67343685D01*
X265025937Y-67343685D02*
X265097366Y-67272257D01*
X265097366Y-67272257D02*
X265240223Y-67200828D01*
X265240223Y-67200828D02*
X265454509Y-67200828D01*
X265454509Y-67200828D02*
X265597366Y-67272257D01*
X265597366Y-67272257D02*
X265668795Y-67343685D01*
X265668795Y-67343685D02*
X265740223Y-67486542D01*
X265740223Y-67486542D02*
X265740223Y-67915114D01*
X265740223Y-67915114D02*
X265668795Y-68057971D01*
X265668795Y-68057971D02*
X265597366Y-68129400D01*
X265597366Y-68129400D02*
X265454509Y-68200828D01*
X265454509Y-68200828D02*
X265240223Y-68200828D01*
X266597366Y-68200828D02*
X266454509Y-68129400D01*
X266454509Y-68129400D02*
X266383080Y-67986542D01*
X266383080Y-67986542D02*
X266383080Y-66700828D01*
X267811652Y-68200828D02*
X267811652Y-67415114D01*
X267811652Y-67415114D02*
X267740223Y-67272257D01*
X267740223Y-67272257D02*
X267597366Y-67200828D01*
X267597366Y-67200828D02*
X267311652Y-67200828D01*
X267311652Y-67200828D02*
X267168794Y-67272257D01*
X267811652Y-68129400D02*
X267668794Y-68200828D01*
X267668794Y-68200828D02*
X267311652Y-68200828D01*
X267311652Y-68200828D02*
X267168794Y-68129400D01*
X267168794Y-68129400D02*
X267097366Y-67986542D01*
X267097366Y-67986542D02*
X267097366Y-67843685D01*
X267097366Y-67843685D02*
X267168794Y-67700828D01*
X267168794Y-67700828D02*
X267311652Y-67629400D01*
X267311652Y-67629400D02*
X267668794Y-67629400D01*
X267668794Y-67629400D02*
X267811652Y-67557971D01*
X268525937Y-68200828D02*
X268525937Y-67200828D01*
X268525937Y-67486542D02*
X268597366Y-67343685D01*
X268597366Y-67343685D02*
X268668795Y-67272257D01*
X268668795Y-67272257D02*
X268811652Y-67200828D01*
X268811652Y-67200828D02*
X268954509Y-67200828D01*
X271240223Y-67200828D02*
X271240223Y-68200828D01*
X270597365Y-67200828D02*
X270597365Y-67986542D01*
X270597365Y-67986542D02*
X270668794Y-68129400D01*
X270668794Y-68129400D02*
X270811651Y-68200828D01*
X270811651Y-68200828D02*
X271025937Y-68200828D01*
X271025937Y-68200828D02*
X271168794Y-68129400D01*
X271168794Y-68129400D02*
X271240223Y-68057971D01*
X271954508Y-67200828D02*
X271954508Y-68200828D01*
X271954508Y-67343685D02*
X272025937Y-67272257D01*
X272025937Y-67272257D02*
X272168794Y-67200828D01*
X272168794Y-67200828D02*
X272383080Y-67200828D01*
X272383080Y-67200828D02*
X272525937Y-67272257D01*
X272525937Y-67272257D02*
X272597366Y-67415114D01*
X272597366Y-67415114D02*
X272597366Y-68200828D01*
X273311651Y-67200828D02*
X273311651Y-68700828D01*
X273311651Y-67272257D02*
X273454509Y-67200828D01*
X273454509Y-67200828D02*
X273740223Y-67200828D01*
X273740223Y-67200828D02*
X273883080Y-67272257D01*
X273883080Y-67272257D02*
X273954509Y-67343685D01*
X273954509Y-67343685D02*
X274025937Y-67486542D01*
X274025937Y-67486542D02*
X274025937Y-67915114D01*
X274025937Y-67915114D02*
X273954509Y-68057971D01*
X273954509Y-68057971D02*
X273883080Y-68129400D01*
X273883080Y-68129400D02*
X273740223Y-68200828D01*
X273740223Y-68200828D02*
X273454509Y-68200828D01*
X273454509Y-68200828D02*
X273311651Y-68129400D01*
X274883080Y-68200828D02*
X274740223Y-68129400D01*
X274740223Y-68129400D02*
X274668794Y-67986542D01*
X274668794Y-67986542D02*
X274668794Y-66700828D01*
X276097366Y-67200828D02*
X276097366Y-68200828D01*
X275454508Y-67200828D02*
X275454508Y-67986542D01*
X275454508Y-67986542D02*
X275525937Y-68129400D01*
X275525937Y-68129400D02*
X275668794Y-68200828D01*
X275668794Y-68200828D02*
X275883080Y-68200828D01*
X275883080Y-68200828D02*
X276025937Y-68129400D01*
X276025937Y-68129400D02*
X276097366Y-68057971D01*
X277454509Y-67200828D02*
X277454509Y-68415114D01*
X277454509Y-68415114D02*
X277383080Y-68557971D01*
X277383080Y-68557971D02*
X277311651Y-68629400D01*
X277311651Y-68629400D02*
X277168794Y-68700828D01*
X277168794Y-68700828D02*
X276954509Y-68700828D01*
X276954509Y-68700828D02*
X276811651Y-68629400D01*
X277454509Y-68129400D02*
X277311651Y-68200828D01*
X277311651Y-68200828D02*
X277025937Y-68200828D01*
X277025937Y-68200828D02*
X276883080Y-68129400D01*
X276883080Y-68129400D02*
X276811651Y-68057971D01*
X276811651Y-68057971D02*
X276740223Y-67915114D01*
X276740223Y-67915114D02*
X276740223Y-67486542D01*
X276740223Y-67486542D02*
X276811651Y-67343685D01*
X276811651Y-67343685D02*
X276883080Y-67272257D01*
X276883080Y-67272257D02*
X277025937Y-67200828D01*
X277025937Y-67200828D02*
X277311651Y-67200828D01*
X277311651Y-67200828D02*
X277454509Y-67272257D01*
X278811652Y-67200828D02*
X278811652Y-68415114D01*
X278811652Y-68415114D02*
X278740223Y-68557971D01*
X278740223Y-68557971D02*
X278668794Y-68629400D01*
X278668794Y-68629400D02*
X278525937Y-68700828D01*
X278525937Y-68700828D02*
X278311652Y-68700828D01*
X278311652Y-68700828D02*
X278168794Y-68629400D01*
X278811652Y-68129400D02*
X278668794Y-68200828D01*
X278668794Y-68200828D02*
X278383080Y-68200828D01*
X278383080Y-68200828D02*
X278240223Y-68129400D01*
X278240223Y-68129400D02*
X278168794Y-68057971D01*
X278168794Y-68057971D02*
X278097366Y-67915114D01*
X278097366Y-67915114D02*
X278097366Y-67486542D01*
X278097366Y-67486542D02*
X278168794Y-67343685D01*
X278168794Y-67343685D02*
X278240223Y-67272257D01*
X278240223Y-67272257D02*
X278383080Y-67200828D01*
X278383080Y-67200828D02*
X278668794Y-67200828D01*
X278668794Y-67200828D02*
X278811652Y-67272257D01*
X280097366Y-68129400D02*
X279954509Y-68200828D01*
X279954509Y-68200828D02*
X279668795Y-68200828D01*
X279668795Y-68200828D02*
X279525937Y-68129400D01*
X279525937Y-68129400D02*
X279454509Y-67986542D01*
X279454509Y-67986542D02*
X279454509Y-67415114D01*
X279454509Y-67415114D02*
X279525937Y-67272257D01*
X279525937Y-67272257D02*
X279668795Y-67200828D01*
X279668795Y-67200828D02*
X279954509Y-67200828D01*
X279954509Y-67200828D02*
X280097366Y-67272257D01*
X280097366Y-67272257D02*
X280168795Y-67415114D01*
X280168795Y-67415114D02*
X280168795Y-67557971D01*
X280168795Y-67557971D02*
X279454509Y-67700828D01*
X281454509Y-68200828D02*
X281454509Y-66700828D01*
X281454509Y-68129400D02*
X281311651Y-68200828D01*
X281311651Y-68200828D02*
X281025937Y-68200828D01*
X281025937Y-68200828D02*
X280883080Y-68129400D01*
X280883080Y-68129400D02*
X280811651Y-68057971D01*
X280811651Y-68057971D02*
X280740223Y-67915114D01*
X280740223Y-67915114D02*
X280740223Y-67486542D01*
X280740223Y-67486542D02*
X280811651Y-67343685D01*
X280811651Y-67343685D02*
X280883080Y-67272257D01*
X280883080Y-67272257D02*
X281025937Y-67200828D01*
X281025937Y-67200828D02*
X281311651Y-67200828D01*
X281311651Y-67200828D02*
X281454509Y-67272257D01*
D12*
%TO.P,D9,1,A1*%
%TO.N,+BATT*%
X105124000Y-90678000D03*
%TO.P,D9,2,A2*%
%TO.N,GND*%
X101124000Y-90678000D03*
%TD*%
D13*
%TO.P,D4,1,K*%
%TO.N,GND*%
X154750000Y-64330000D03*
%TO.P,D4,2,A*%
%TO.N,Net-(D4-A)*%
X153175000Y-64330000D03*
%TD*%
D14*
%TO.P,U4,1,LIN*%
%TO.N,DD_BOT_B*%
X149930000Y-95948000D03*
%TO.P,U4,2,HIN*%
%TO.N,DD_TOP_B*%
X149930000Y-94678000D03*
%TO.P,U4,3,VCC*%
%TO.N,/BuckBoost/DRIVER_VCC*%
X149930000Y-93408000D03*
%TO.P,U4,4,GND*%
%TO.N,GND*%
X149930000Y-92138000D03*
%TO.P,U4,5,LVG*%
%TO.N,Net-(U4-LVG)*%
X144780000Y-92138000D03*
%TO.P,U4,6,OUT*%
%TO.N,/BuckBoost/VS_B*%
X144780000Y-93408000D03*
%TO.P,U4,7,HVG*%
%TO.N,Net-(U4-HVG)*%
X144780000Y-94678000D03*
%TO.P,U4,8,VBOOT*%
%TO.N,Net-(U4-VBOOT)*%
X144780000Y-95948000D03*
%TD*%
D15*
%TO.P,R9,1*%
%TO.N,/BuckBoost/GATE_TOP_A*%
X129414000Y-99060000D03*
%TO.P,R9,2*%
%TO.N,/BuckBoost/VS_A*%
X131064000Y-99060000D03*
%TD*%
D16*
%TO.P,C22,1*%
%TO.N,VBATT_ADC*%
X129032000Y-81534000D03*
%TO.P,C22,2*%
%TO.N,GND*%
X129032000Y-83084000D03*
%TD*%
D17*
%TO.P,C19,1*%
%TO.N,/BuckBoost/VS_A*%
X129553000Y-88900000D03*
%TO.P,C19,2*%
%TO.N,Net-(U6-VBOOT)*%
X128003000Y-88900000D03*
%TD*%
D18*
%TO.P,D2,1,A*%
%TO.N,GND*%
X135112000Y-76596000D03*
%TO.P,D2,2,K*%
%TO.N,VDD*%
X135112000Y-75296000D03*
%TO.P,D2,3,COM*%
%TO.N,COMP2_INP*%
X133112000Y-75946000D03*
%TD*%
D13*
%TO.P,D12,1,K*%
%TO.N,Net-(D12-K)*%
X106985000Y-97282000D03*
%TO.P,D12,2,A*%
%TO.N,Net-(D12-A)*%
X105410000Y-97282000D03*
%TD*%
D19*
%TO.P,U1,1,Vs+*%
%TO.N,/Power/Vs+*%
X146890500Y-86680000D03*
%TO.P,U1,2,Vs-*%
%TO.N,Net-(U1-Vs-)*%
X146890500Y-88580000D03*
%TO.P,U1,3,OUT*%
%TO.N,Net-(U1-OUT)*%
X148765500Y-87630000D03*
%TD*%
D20*
%TO.P,L1,1,1*%
%TO.N,/BuckBoost/VS_A*%
X132103000Y-94488000D03*
%TO.P,L1,2,2*%
%TO.N,/BuckBoost/VS_B*%
X138153000Y-94488000D03*
%TD*%
D15*
%TO.P,R19,1*%
%TO.N,+BATT*%
X109491294Y-81301110D03*
%TO.P,R19,2*%
%TO.N,Net-(Q5-G)*%
X111141294Y-81301110D03*
%TD*%
D21*
%TO.P,C15,1*%
%TO.N,GND*%
X118364000Y-95009000D03*
%TO.P,C15,2*%
%TO.N,/BuckBoost/DRIVER_VCC*%
X118364000Y-93459000D03*
%TD*%
D22*
%TO.P,F2,1*%
%TO.N,Net-(BAL1-Pin_2)*%
X102472496Y-80264000D03*
%TO.P,F2,2*%
%TO.N,CELL_8V*%
X105272496Y-80264000D03*
%TD*%
D13*
%TO.P,D6,1,K*%
%TO.N,GND*%
X154750000Y-68220000D03*
%TO.P,D6,2,A*%
%TO.N,Net-(D6-A)*%
X153175000Y-68220000D03*
%TD*%
D23*
%TO.P,R36,1*%
%TO.N,/BuckBoost/VS_A*%
X129984000Y-86995000D03*
%TO.P,R36,2*%
%TO.N,COMP2_INP*%
X128334000Y-86995000D03*
%TD*%
D24*
%TO.P,C4,1*%
%TO.N,+BATT*%
X107288000Y-73357000D03*
%TO.P,C4,2*%
%TO.N,GND*%
X107288000Y-70407000D03*
%TD*%
D15*
%TO.P,R15,1*%
%TO.N,Net-(U6-HVG)*%
X127445000Y-93980000D03*
%TO.P,R15,2*%
%TO.N,/BuckBoost/GATE_TOP_A*%
X129095000Y-93980000D03*
%TD*%
D18*
%TO.P,Q12,1,G*%
%TO.N,Net-(Q11-G)*%
X144002000Y-65166000D03*
%TO.P,Q12,2,S*%
%TO.N,Net-(Q11-S)*%
X144002000Y-63866000D03*
%TO.P,Q12,3,D*%
%TO.N,Net-(Q12-D)*%
X142002000Y-64516000D03*
%TD*%
D25*
%TO.P,J1,*%
%TO.N,*%
X163200000Y-76600000D03*
X163200000Y-87600000D03*
D26*
%TO.P,J1,1,Pin_1*%
%TO.N,GND*%
X153200000Y-84600000D03*
D27*
%TO.P,J1,2,Pin_2*%
%TO.N,/Power/Vs+*%
X153200000Y-79600000D03*
%TD*%
D28*
%TO.P,R41,1*%
%TO.N,CELL_8V*%
X109243500Y-95758000D03*
%TO.P,R41,2*%
%TO.N,Net-(D11-K)*%
X108223500Y-95758000D03*
%TD*%
D16*
%TO.P,C1,1*%
%TO.N,/Power/Vs+*%
X145158725Y-86878547D03*
%TO.P,C1,2*%
%TO.N,Net-(U1-Vs-)*%
X145158725Y-88428547D03*
%TD*%
D29*
%TO.P,J2,1,VCC*%
%TO.N,VDD*%
X101280000Y-66450000D03*
%TO.P,J2,2,SWDIO*%
%TO.N,/MCU/SWDIO*%
X101280000Y-67720000D03*
%TO.P,J2,3,~{RESET}*%
%TO.N,/MCU/NRST*%
X100010000Y-66450000D03*
%TO.P,J2,4,SWCLK*%
%TO.N,/MCU/SWCLK*%
X100010000Y-67720000D03*
%TO.P,J2,5,GND*%
%TO.N,GND*%
X98740000Y-66450000D03*
%TO.P,J2,6,SWO*%
%TO.N,unconnected-(J2-SWO-Pad6)*%
X98740000Y-67720000D03*
%TD*%
D18*
%TO.P,Q14,1,G*%
%TO.N,Net-(Q14-G)*%
X147558000Y-69992000D03*
%TO.P,Q14,2,S*%
%TO.N,Net-(Q14-S)*%
X147558000Y-68692000D03*
%TO.P,Q14,3,D*%
%TO.N,Net-(Q14-D)*%
X145558000Y-69342000D03*
%TD*%
D30*
%TO.P,BAL1,1,Pin_1*%
%TO.N,Net-(BAL1-Pin_1)*%
X99280000Y-77220000D03*
D31*
%TO.P,BAL1,2,Pin_2*%
%TO.N,Net-(BAL1-Pin_2)*%
X99280000Y-79720000D03*
%TO.P,BAL1,3,Pin_3*%
%TO.N,Net-(BAL1-Pin_3)*%
X99280000Y-82220000D03*
%TO.P,BAL1,4,Pin_4*%
%TO.N,GND*%
X99280000Y-84720000D03*
%TD*%
D16*
%TO.P,C12,1*%
%TO.N,VDD*%
X133731000Y-72377000D03*
%TO.P,C12,2*%
%TO.N,GND*%
X133731000Y-73927000D03*
%TD*%
D23*
%TO.P,R22,1*%
%TO.N,NBAL_3*%
X119443000Y-78994000D03*
%TO.P,R22,2*%
%TO.N,Net-(Q8-G)*%
X117793000Y-78994000D03*
%TD*%
D18*
%TO.P,Q10,1,G*%
%TO.N,Net-(Q10-G)*%
X116060500Y-91743000D03*
%TO.P,Q10,2,S*%
%TO.N,GND*%
X116060500Y-90443000D03*
%TO.P,Q10,3,D*%
%TO.N,Net-(Q10-D)*%
X114060500Y-91093000D03*
%TD*%
%TO.P,Q18,1,G*%
%TO.N,Net-(Q17-G)*%
X143986000Y-74056000D03*
%TO.P,Q18,2,S*%
%TO.N,Net-(Q17-S)*%
X143986000Y-72756000D03*
%TO.P,Q18,3,D*%
%TO.N,Net-(Q12-D)*%
X141986000Y-73406000D03*
%TD*%
D32*
%TO.P,R28,1*%
%TO.N,Net-(D11-A)*%
X113308159Y-77131006D03*
%TO.P,R28,2*%
%TO.N,CELL_8V*%
X116233159Y-77131006D03*
%TD*%
D33*
%TO.P,Q13,1,G*%
%TO.N,Net-(Q13-G)*%
X138446000Y-63866000D03*
%TO.P,Q13,2,S*%
%TO.N,GND*%
X138446000Y-65166000D03*
%TO.P,Q13,3,D*%
%TO.N,Net-(Q11-G)*%
X140446000Y-64516000D03*
%TD*%
D23*
%TO.P,R18,1*%
%TO.N,Net-(U4-LVG)*%
X147129000Y-99060000D03*
%TO.P,R18,2*%
%TO.N,/BuckBoost/GATE_BOT_B*%
X145479000Y-99060000D03*
%TD*%
D34*
%TO.P,R53,1*%
%TO.N,CELL4V_ADC_EN*%
X135382000Y-73977000D03*
%TO.P,R53,2*%
%TO.N,Net-(Q19-G)*%
X135382000Y-72327000D03*
%TD*%
D35*
%TO.P,R51,1*%
%TO.N,Net-(Q16-G)*%
X136906000Y-68517000D03*
%TO.P,R51,2*%
%TO.N,GND*%
X136906000Y-70167000D03*
%TD*%
D36*
%TO.P,R12,1*%
%TO.N,/MCU/LED_ON*%
X150874000Y-64330000D03*
%TO.P,R12,2*%
%TO.N,Net-(D4-A)*%
X151894000Y-64330000D03*
%TD*%
D28*
%TO.P,R42,1*%
%TO.N,CELL_4V*%
X109249500Y-97282000D03*
%TO.P,R42,2*%
%TO.N,Net-(D12-K)*%
X108229500Y-97282000D03*
%TD*%
D18*
%TO.P,Q15,1,G*%
%TO.N,Net-(Q14-G)*%
X144002000Y-69992000D03*
%TO.P,Q15,2,S*%
%TO.N,Net-(Q14-S)*%
X144002000Y-68692000D03*
%TO.P,Q15,3,D*%
%TO.N,Net-(Q12-D)*%
X142002000Y-69342000D03*
%TD*%
D34*
%TO.P,R4,1*%
%TO.N,GND*%
X124079000Y-82613000D03*
%TO.P,R4,2*%
%TO.N,VSOLAR_ADC*%
X124079000Y-80963000D03*
%TD*%
D13*
%TO.P,D13,1,K*%
%TO.N,Net-(D13-K)*%
X106985000Y-98806000D03*
%TO.P,D13,2,A*%
%TO.N,Net-(D13-A)*%
X105410000Y-98806000D03*
%TD*%
D37*
%TO.P,U2,1*%
%TO.N,unconnected-(U2-Pad1)*%
X111380500Y-70764500D03*
%TO.P,U2,2,GND*%
%TO.N,GND*%
X110430500Y-70764500D03*
%TO.P,U2,3*%
%TO.N,unconnected-(U2-Pad3)*%
X109480500Y-70764500D03*
%TO.P,U2,4,Vin*%
%TO.N,+BATT*%
X109480500Y-73039500D03*
%TO.P,U2,5,Vout*%
%TO.N,VDD*%
X111380500Y-73039500D03*
%TD*%
D38*
%TO.P,TP2,1,1*%
%TO.N,+BATT*%
X103886000Y-73406000D03*
%TD*%
D16*
%TO.P,C10,1*%
%TO.N,VDD*%
X133350000Y-65825000D03*
%TO.P,C10,2*%
%TO.N,GND*%
X133350000Y-67375000D03*
%TD*%
D39*
%TO.P,C3,1*%
%TO.N,GND*%
X143684073Y-78078677D03*
%TO.P,C3,2*%
%TO.N,VSOLAR*%
X143684073Y-81028677D03*
%TD*%
D24*
%TO.P,C8,1*%
%TO.N,VDD*%
X116336748Y-74689253D03*
%TO.P,C8,2*%
%TO.N,GND*%
X116336748Y-71739253D03*
%TD*%
D38*
%TO.P,TP6,1,1*%
%TO.N,/BuckBoost/VS_B*%
X137160000Y-88063000D03*
%TD*%
D23*
%TO.P,R8,1*%
%TO.N,/BuckBoost/GATE_BOT_A*%
X125793000Y-87884000D03*
%TO.P,R8,2*%
%TO.N,GND*%
X124143000Y-87884000D03*
%TD*%
D35*
%TO.P,R26,1*%
%TO.N,Net-(Q9-G)*%
X117629000Y-86664000D03*
%TO.P,R26,2*%
%TO.N,GND*%
X117629000Y-88314000D03*
%TD*%
D34*
%TO.P,R50,1*%
%TO.N,CELL8V_ADC_EN*%
X135382000Y-70167000D03*
%TO.P,R50,2*%
%TO.N,Net-(Q16-G)*%
X135382000Y-68517000D03*
%TD*%
D23*
%TO.P,R33,1*%
%TO.N,DRIVERS_EN*%
X121841500Y-85344000D03*
%TO.P,R33,2*%
%TO.N,Net-(Q20-G)*%
X120191500Y-85344000D03*
%TD*%
D28*
%TO.P,R43,1*%
%TO.N,GND*%
X109245500Y-98806000D03*
%TO.P,R43,2*%
%TO.N,Net-(D13-K)*%
X108225500Y-98806000D03*
%TD*%
D40*
%TO.P,D3,1,A*%
%TO.N,GND*%
X129017000Y-79994000D03*
%TO.P,D3,2,K*%
%TO.N,VDD*%
X130317000Y-79994000D03*
%TO.P,D3,3,COM*%
%TO.N,VSOLAR_ADC*%
X129667000Y-77994000D03*
%TD*%
D41*
%TO.P,Q7,1,G*%
%TO.N,Net-(Q10-D)*%
X111323000Y-90993000D03*
%TO.P,Q7,2,S*%
%TO.N,CELL_4V*%
X111323000Y-89093000D03*
%TO.P,Q7,3,D*%
%TO.N,Net-(D13-A)*%
X109448000Y-90043000D03*
%TD*%
D16*
%TO.P,C13,1*%
%TO.N,Net-(U3-VLCD)*%
X121920000Y-77711000D03*
%TO.P,C13,2*%
%TO.N,GND*%
X121920000Y-79261000D03*
%TD*%
D34*
%TO.P,R6,1*%
%TO.N,Net-(Q12-D)*%
X130556000Y-83121000D03*
%TO.P,R6,2*%
%TO.N,VBATT_ADC*%
X130556000Y-81471000D03*
%TD*%
D13*
%TO.P,D11,1,K*%
%TO.N,Net-(D11-K)*%
X106985000Y-95758000D03*
%TO.P,D11,2,A*%
%TO.N,Net-(D11-A)*%
X105410000Y-95758000D03*
%TD*%
D32*
%TO.P,R29,1*%
%TO.N,Net-(D12-A)*%
X113091500Y-83312000D03*
%TO.P,R29,2*%
%TO.N,CELL_4V*%
X116016500Y-83312000D03*
%TD*%
D42*
%TO.P,UART1,1,Pin_1*%
%TO.N,unconnected-(UART1-Pin_1-Pad1)*%
X109377000Y-63986000D03*
%TO.P,UART1,2,Pin_2*%
%TO.N,/MCU/USART1_RX*%
X110627000Y-63986000D03*
%TO.P,UART1,3,Pin_3*%
%TO.N,/MCU/USART1_TX*%
X111877000Y-63986000D03*
%TO.P,UART1,4,Pin_4*%
%TO.N,GND*%
X113127000Y-63986000D03*
D43*
%TO.P,UART1,MP*%
%TO.N,N/C*%
X106827000Y-66736000D03*
X115677000Y-66736000D03*
%TD*%
D13*
%TO.P,D5,1,K*%
%TO.N,GND*%
X154750000Y-66220000D03*
%TO.P,D5,2,A*%
%TO.N,Net-(D5-A)*%
X153175000Y-66220000D03*
%TD*%
D18*
%TO.P,Q8,1,G*%
%TO.N,Net-(Q8-G)*%
X116332000Y-80264000D03*
%TO.P,Q8,2,S*%
%TO.N,GND*%
X116332000Y-78964000D03*
%TO.P,Q8,3,D*%
%TO.N,Net-(Q5-G)*%
X114332000Y-79614000D03*
%TD*%
D21*
%TO.P,C11,1*%
%TO.N,VDD*%
X118280000Y-74435000D03*
%TO.P,C11,2*%
%TO.N,GND*%
X118280000Y-72885000D03*
%TD*%
D16*
%TO.P,C7,1*%
%TO.N,VSOLAR_ADC*%
X125603000Y-81013000D03*
%TO.P,C7,2*%
%TO.N,GND*%
X125603000Y-82563000D03*
%TD*%
D34*
%TO.P,R38,1*%
%TO.N,Net-(Q11-G)*%
X149098000Y-65341000D03*
%TO.P,R38,2*%
%TO.N,Net-(Q11-S)*%
X149098000Y-63691000D03*
%TD*%
D15*
%TO.P,R49,1*%
%TO.N,+BATT*%
X140272000Y-71374000D03*
%TO.P,R49,2*%
%TO.N,Net-(Q14-G)*%
X141922000Y-71374000D03*
%TD*%
D19*
%TO.P,Q21,1,G*%
%TO.N,Net-(Q20-D)*%
X117505000Y-96586000D03*
%TO.P,Q21,2,S*%
%TO.N,+BATT*%
X117505000Y-98486000D03*
%TO.P,Q21,3,D*%
%TO.N,/BuckBoost/DRIVER_VCC*%
X119380000Y-97536000D03*
%TD*%
D35*
%TO.P,R27,1*%
%TO.N,Net-(Q10-G)*%
X114173000Y-93155000D03*
%TO.P,R27,2*%
%TO.N,GND*%
X114173000Y-94805000D03*
%TD*%
D44*
%TO.P,R32,1*%
%TO.N,Net-(R31-Pad2)*%
X138811000Y-78107000D03*
%TO.P,R32,2*%
%TO.N,SOLAR_CURRENT_ADC*%
X138811000Y-77087000D03*
%TD*%
D34*
%TO.P,R44,1*%
%TO.N,Net-(Q17-G)*%
X149097946Y-74231000D03*
%TO.P,R44,2*%
%TO.N,Net-(Q17-S)*%
X149097946Y-72581000D03*
%TD*%
D23*
%TO.P,R37,1*%
%TO.N,COMP2_INP*%
X129984000Y-85471000D03*
%TO.P,R37,2*%
%TO.N,GND*%
X128334000Y-85471000D03*
%TD*%
D18*
%TO.P,Q9,1,G*%
%TO.N,Net-(Q9-G)*%
X116127417Y-86396222D03*
%TO.P,Q9,2,S*%
%TO.N,GND*%
X116127417Y-85096222D03*
%TO.P,Q9,3,D*%
%TO.N,Net-(Q6-G)*%
X114127417Y-85746222D03*
%TD*%
D40*
%TO.P,D1,1,A*%
%TO.N,GND*%
X134732000Y-79994000D03*
%TO.P,D1,2,K*%
%TO.N,VDD*%
X136032000Y-79994000D03*
%TO.P,D1,3,COM*%
%TO.N,SOLAR_CURRENT_ADC*%
X135382000Y-77994000D03*
%TD*%
D21*
%TO.P,C17,1*%
%TO.N,GND*%
X137541000Y-79007000D03*
%TO.P,C17,2*%
%TO.N,SOLAR_CURRENT_ADC*%
X137541000Y-77457000D03*
%TD*%
D34*
%TO.P,R46,1*%
%TO.N,VBATT_ADC_EN*%
X135382000Y-65595000D03*
%TO.P,R46,2*%
%TO.N,Net-(Q13-G)*%
X135382000Y-63945000D03*
%TD*%
D38*
%TO.P,TP1,1,1*%
%TO.N,GND*%
X104394000Y-86868000D03*
%TD*%
D16*
%TO.P,C14,1*%
%TO.N,/MCU/NRST*%
X124400000Y-77825000D03*
%TO.P,C14,2*%
%TO.N,GND*%
X124400000Y-79375000D03*
%TD*%
D35*
%TO.P,R1,1*%
%TO.N,Net-(U1-OUT)*%
X140335000Y-77661000D03*
%TO.P,R1,2*%
%TO.N,GND*%
X140335000Y-79311000D03*
%TD*%
D45*
%TO.P,D14,1,A1*%
%TO.N,GND*%
X149098000Y-84296000D03*
%TO.P,D14,2,A2*%
%TO.N,/Power/Vs+*%
X149098000Y-80296000D03*
%TD*%
D18*
%TO.P,Q17,1,G*%
%TO.N,Net-(Q17-G)*%
X147526000Y-74056000D03*
%TO.P,Q17,2,S*%
%TO.N,Net-(Q17-S)*%
X147526000Y-72756000D03*
%TO.P,Q17,3,D*%
%TO.N,Net-(Q17-D)*%
X145526000Y-73406000D03*
%TD*%
D24*
%TO.P,C5,1*%
%TO.N,VDD*%
X113538000Y-73357000D03*
%TO.P,C5,2*%
%TO.N,GND*%
X113538000Y-70407000D03*
%TD*%
D35*
%TO.P,R2,1*%
%TO.N,VSOLAR*%
X143632783Y-86828547D03*
%TO.P,R2,2*%
%TO.N,Net-(U1-Vs-)*%
X143632783Y-88478547D03*
%TD*%
D16*
%TO.P,C16,1*%
%TO.N,GND*%
X151892000Y-91935000D03*
%TO.P,C16,2*%
%TO.N,/BuckBoost/DRIVER_VCC*%
X151892000Y-93485000D03*
%TD*%
D15*
%TO.P,R16,1*%
%TO.N,Net-(U6-LVG)*%
X124143000Y-89408000D03*
%TO.P,R16,2*%
%TO.N,/BuckBoost/GATE_BOT_A*%
X125793000Y-89408000D03*
%TD*%
D38*
%TO.P,TP5,1,1*%
%TO.N,/BuckBoost/VS_A*%
X133096000Y-88063000D03*
%TD*%
D32*
%TO.P,R30,1*%
%TO.N,Net-(D13-A)*%
X113123000Y-88593000D03*
%TO.P,R30,2*%
%TO.N,GND*%
X116048000Y-88593000D03*
%TD*%
%TO.P,R3,1*%
%TO.N,VSOLAR*%
X143571500Y-83058000D03*
%TO.P,R3,2*%
%TO.N,/Power/Vs+*%
X146496500Y-83058000D03*
%TD*%
D15*
%TO.P,R52,1*%
%TO.N,+BATT*%
X140272000Y-75438000D03*
%TO.P,R52,2*%
%TO.N,Net-(Q17-G)*%
X141922000Y-75438000D03*
%TD*%
D35*
%TO.P,R47,1*%
%TO.N,Net-(Q13-G)*%
X136906000Y-63945000D03*
%TO.P,R47,2*%
%TO.N,GND*%
X136906000Y-65595000D03*
%TD*%
D15*
%TO.P,R25,1*%
%TO.N,Net-(Q8-G)*%
X117793000Y-80518000D03*
%TO.P,R25,2*%
%TO.N,GND*%
X119443000Y-80518000D03*
%TD*%
%TO.P,R21,1*%
%TO.N,CELL_4V*%
X109596500Y-92581000D03*
%TO.P,R21,2*%
%TO.N,Net-(Q10-D)*%
X111246500Y-92581000D03*
%TD*%
D34*
%TO.P,R40,1*%
%TO.N,Net-(Q14-G)*%
X149095387Y-70167000D03*
%TO.P,R40,2*%
%TO.N,Net-(Q14-S)*%
X149095387Y-68517000D03*
%TD*%
D46*
%TO.P,C20,1*%
%TO.N,/BuckBoost/VS_B*%
X144345525Y-97488936D03*
%TO.P,C20,2*%
%TO.N,Net-(U4-VBOOT)*%
X145895525Y-97488936D03*
%TD*%
D35*
%TO.P,R54,1*%
%TO.N,Net-(Q19-G)*%
X136906000Y-72327000D03*
%TO.P,R54,2*%
%TO.N,GND*%
X136906000Y-73977000D03*
%TD*%
D33*
%TO.P,Q19,1,G*%
%TO.N,Net-(Q19-G)*%
X138446000Y-72756000D03*
%TO.P,Q19,2,S*%
%TO.N,GND*%
X138446000Y-74056000D03*
%TO.P,Q19,3,D*%
%TO.N,Net-(Q17-G)*%
X140446000Y-73406000D03*
%TD*%
D39*
%TO.P,C2,1*%
%TO.N,GND*%
X146050000Y-78076000D03*
%TO.P,C2,2*%
%TO.N,VSOLAR*%
X146050000Y-81026000D03*
%TD*%
D22*
%TO.P,F1,1*%
%TO.N,Net-(BAL1-Pin_3)*%
X102486000Y-82804000D03*
%TO.P,F1,2*%
%TO.N,CELL_4V*%
X105286000Y-82804000D03*
%TD*%
D18*
%TO.P,Q11,1,G*%
%TO.N,Net-(Q11-G)*%
X147558000Y-65166000D03*
%TO.P,Q11,2,S*%
%TO.N,Net-(Q11-S)*%
X147558000Y-63866000D03*
%TO.P,Q11,3,D*%
%TO.N,Net-(Q11-D)*%
X145558000Y-64516000D03*
%TD*%
D16*
%TO.P,C21,1*%
%TO.N,VDD*%
X119795515Y-63814125D03*
%TO.P,C21,2*%
%TO.N,GND*%
X119795515Y-65364125D03*
%TD*%
D47*
%TO.P,D7,1,A1*%
%TO.N,/MCU/USART1_TX*%
X117856000Y-63912000D03*
%TO.P,D7,2,A2*%
%TO.N,GND*%
X117856000Y-64612000D03*
%TD*%
D15*
%TO.P,R20,1*%
%TO.N,CELL_8V*%
X109565000Y-87212000D03*
%TO.P,R20,2*%
%TO.N,Net-(Q6-G)*%
X111215000Y-87212000D03*
%TD*%
D35*
%TO.P,R5,1*%
%TO.N,VSOLAR_ADC*%
X127127000Y-80963000D03*
%TO.P,R5,2*%
%TO.N,VSOLAR*%
X127127000Y-82613000D03*
%TD*%
D34*
%TO.P,R10,1*%
%TO.N,/BuckBoost/GATE_TOP_B*%
X140462000Y-88963000D03*
%TO.P,R10,2*%
%TO.N,/BuckBoost/VS_B*%
X140462000Y-87313000D03*
%TD*%
D36*
%TO.P,R14,1*%
%TO.N,/MCU/LED_ERROR*%
X150874000Y-68220000D03*
%TO.P,R14,2*%
%TO.N,Net-(D6-A)*%
X151894000Y-68220000D03*
%TD*%
D41*
%TO.P,Q4,1,G*%
%TO.N,/BuckBoost/GATE_BOT_B*%
X142591000Y-97470000D03*
%TO.P,Q4,2,S*%
%TO.N,GND*%
X142591000Y-95570000D03*
%TO.P,Q4,3,D*%
%TO.N,/BuckBoost/VS_B*%
X140716000Y-96520000D03*
%TD*%
D17*
%TO.P,C9,1*%
%TO.N,VDD*%
X127521000Y-78000000D03*
%TO.P,C9,2*%
%TO.N,GND*%
X125971000Y-78000000D03*
%TD*%
D41*
%TO.P,Q1,1,G*%
%TO.N,/BuckBoost/GATE_TOP_A*%
X129637000Y-97470000D03*
%TO.P,Q1,2,S*%
%TO.N,/BuckBoost/VS_A*%
X129637000Y-95570000D03*
%TO.P,Q1,3,D*%
%TO.N,+BATT*%
X127762000Y-96520000D03*
%TD*%
%TO.P,Q5,1,G*%
%TO.N,Net-(Q5-G)*%
X111471794Y-79651110D03*
%TO.P,Q5,2,S*%
%TO.N,+BATT*%
X111471794Y-77751110D03*
%TO.P,Q5,3,D*%
%TO.N,Net-(D11-A)*%
X109596794Y-78701110D03*
%TD*%
D23*
%TO.P,R56,1*%
%TO.N,Net-(Q17-D)*%
X147129000Y-75438000D03*
%TO.P,R56,2*%
%TO.N,CELL_4V*%
X145479000Y-75438000D03*
%TD*%
D19*
%TO.P,Q3,1,G*%
%TO.N,/BuckBoost/GATE_BOT_A*%
X127757500Y-90490000D03*
%TO.P,Q3,2,S*%
%TO.N,GND*%
X127757500Y-92390000D03*
%TO.P,Q3,3,D*%
%TO.N,/BuckBoost/VS_A*%
X129632500Y-91440000D03*
%TD*%
D33*
%TO.P,Q20,1,G*%
%TO.N,Net-(Q20-G)*%
X120666000Y-86980000D03*
%TO.P,Q20,2,S*%
%TO.N,GND*%
X120666000Y-88280000D03*
%TO.P,Q20,3,D*%
%TO.N,Net-(Q20-D)*%
X122666000Y-87630000D03*
%TD*%
D35*
%TO.P,R24,1*%
%TO.N,NBAL_1*%
X115951000Y-93155000D03*
%TO.P,R24,2*%
%TO.N,Net-(Q10-G)*%
X115951000Y-94805000D03*
%TD*%
D40*
%TO.P,D18,1,A*%
%TO.N,GND*%
X131684000Y-79978000D03*
%TO.P,D18,2,K*%
%TO.N,VDD*%
X132984000Y-79978000D03*
%TO.P,D18,3,COM*%
%TO.N,VBATT_ADC*%
X132334000Y-77978000D03*
%TD*%
D41*
%TO.P,Q6,1,G*%
%TO.N,Net-(Q6-G)*%
X111291500Y-85462000D03*
%TO.P,Q6,2,S*%
%TO.N,CELL_8V*%
X111291500Y-83562000D03*
%TO.P,Q6,3,D*%
%TO.N,Net-(D12-A)*%
X109416500Y-84512000D03*
%TD*%
D35*
%TO.P,R23,1*%
%TO.N,NBAL_2*%
X117629000Y-83615000D03*
%TO.P,R23,2*%
%TO.N,Net-(Q9-G)*%
X117629000Y-85265000D03*
%TD*%
D22*
%TO.P,F3,1*%
%TO.N,Net-(BAL1-Pin_1)*%
X102486000Y-77724000D03*
%TO.P,F3,2*%
%TO.N,+BATT*%
X105286000Y-77724000D03*
%TD*%
D48*
%TO.P,U6,1,LIN*%
%TO.N,DD_BOT_A*%
X120361000Y-91059000D03*
%TO.P,U6,2,HIN*%
%TO.N,DD_TOP_A*%
X120361000Y-92329000D03*
%TO.P,U6,3,VCC*%
%TO.N,/BuckBoost/DRIVER_VCC*%
X120361000Y-93599000D03*
%TO.P,U6,4,GND*%
%TO.N,GND*%
X120361000Y-94869000D03*
%TO.P,U6,5,LVG*%
%TO.N,Net-(U6-LVG)*%
X125511000Y-94869000D03*
%TO.P,U6,6,OUT*%
%TO.N,/BuckBoost/VS_A*%
X125511000Y-93599000D03*
%TO.P,U6,7,HVG*%
%TO.N,Net-(U6-HVG)*%
X125511000Y-92329000D03*
%TO.P,U6,8,VBOOT*%
%TO.N,Net-(U6-VBOOT)*%
X125511000Y-91059000D03*
%TD*%
D15*
%TO.P,R45,1*%
%TO.N,+BATT*%
X140399000Y-66548000D03*
%TO.P,R45,2*%
%TO.N,Net-(Q11-G)*%
X142049000Y-66548000D03*
%TD*%
%TO.P,R34,1*%
%TO.N,Net-(Q20-G)*%
X123572000Y-85598000D03*
%TO.P,R34,2*%
%TO.N,GND*%
X125222000Y-85598000D03*
%TD*%
D34*
%TO.P,R7,1*%
%TO.N,GND*%
X132080000Y-83121000D03*
%TO.P,R7,2*%
%TO.N,VBATT_ADC*%
X132080000Y-81471000D03*
%TD*%
D47*
%TO.P,D8,1,A1*%
%TO.N,/MCU/USART1_RX*%
X117856000Y-65690000D03*
%TO.P,D8,2,A2*%
%TO.N,GND*%
X117856000Y-66390000D03*
%TD*%
D44*
%TO.P,R31,1*%
%TO.N,Net-(U1-OUT)*%
X138811000Y-80012000D03*
%TO.P,R31,2*%
%TO.N,Net-(R31-Pad2)*%
X138811000Y-78992000D03*
%TD*%
D34*
%TO.P,R39,1*%
%TO.N,GND*%
X133350000Y-70675000D03*
%TO.P,R39,2*%
%TO.N,/MCU/SWITCH*%
X133350000Y-69025000D03*
%TD*%
D15*
%TO.P,R11,1*%
%TO.N,/BuckBoost/GATE_BOT_B*%
X142494000Y-99060000D03*
%TO.P,R11,2*%
%TO.N,GND*%
X144144000Y-99060000D03*
%TD*%
D23*
%TO.P,R55,1*%
%TO.N,Net-(Q14-D)*%
X147129000Y-71374000D03*
%TO.P,R55,2*%
%TO.N,CELL_8V*%
X145479000Y-71374000D03*
%TD*%
D49*
%TO.P,U3,1,VLCD*%
%TO.N,Net-(U3-VLCD)*%
X122030000Y-75895000D03*
%TO.P,U3,2,PC13*%
%TO.N,unconnected-(U3-PC13-Pad2)*%
X122530000Y-75895000D03*
%TO.P,U3,3,PC14*%
%TO.N,unconnected-(U3-PC14-Pad3)*%
X123030000Y-75895000D03*
%TO.P,U3,4,PC15*%
%TO.N,unconnected-(U3-PC15-Pad4)*%
X123530000Y-75895000D03*
%TO.P,U3,5,PH0*%
%TO.N,unconnected-(U3-PH0-Pad5)*%
X124030000Y-75895000D03*
%TO.P,U3,6,PH1*%
%TO.N,unconnected-(U3-PH1-Pad6)*%
X124530000Y-75895000D03*
%TO.P,U3,7,NRST*%
%TO.N,/MCU/NRST*%
X125030000Y-75895000D03*
%TO.P,U3,8,PC0*%
%TO.N,unconnected-(U3-PC0-Pad8)*%
X125530000Y-75895000D03*
%TO.P,U3,9,PC1*%
%TO.N,unconnected-(U3-PC1-Pad9)*%
X126030000Y-75895000D03*
%TO.P,U3,10,PC2*%
%TO.N,unconnected-(U3-PC2-Pad10)*%
X126530000Y-75895000D03*
%TO.P,U3,11,PC3*%
%TO.N,unconnected-(U3-PC3-Pad11)*%
X127030000Y-75895000D03*
%TO.P,U3,12,VSSA*%
%TO.N,GND*%
X127530000Y-75895000D03*
%TO.P,U3,13,VDDA*%
%TO.N,VDD*%
X128030000Y-75895000D03*
%TO.P,U3,14,ADC_IN0*%
%TO.N,VSOLAR_ADC*%
X128530000Y-75895000D03*
%TO.P,U3,15,ADC_IN1*%
%TO.N,VBATT_ADC*%
X129030000Y-75895000D03*
%TO.P,U3,16,ADC_IN2*%
%TO.N,SOLAR_CURRENT_ADC*%
X129530000Y-75895000D03*
D50*
%TO.P,U3,17,COMP2_INP*%
%TO.N,COMP2_INP*%
X131455000Y-73970000D03*
%TO.P,U3,18,VSS*%
%TO.N,GND*%
X131455000Y-73470000D03*
%TO.P,U3,19,VDD*%
%TO.N,VDD*%
X131455000Y-72970000D03*
%TO.P,U3,20,PA4*%
%TO.N,unconnected-(U3-PA4-Pad20)*%
X131455000Y-72470000D03*
%TO.P,U3,21,PA5*%
%TO.N,CELL4V_ADC_EN*%
X131455000Y-71970000D03*
%TO.P,U3,22,PA6*%
%TO.N,CELL8V_ADC_EN*%
X131455000Y-71470000D03*
%TO.P,U3,23,PA7*%
%TO.N,VBATT_ADC_EN*%
X131455000Y-70970000D03*
%TO.P,U3,24,PC4*%
%TO.N,unconnected-(U3-PC4-Pad24)*%
X131455000Y-70470000D03*
%TO.P,U3,25,PC5*%
%TO.N,unconnected-(U3-PC5-Pad25)*%
X131455000Y-69970000D03*
%TO.P,U3,26,PB0*%
%TO.N,/MCU/SWITCH*%
X131455000Y-69470000D03*
%TO.P,U3,27,PB1*%
%TO.N,DRIVERS_EN*%
X131455000Y-68970000D03*
%TO.P,U3,28,PB2*%
%TO.N,unconnected-(U3-PB2-Pad28)*%
X131455000Y-68470000D03*
%TO.P,U3,29,TIM2_CH3*%
%TO.N,DD_TOP_B*%
X131455000Y-67970000D03*
%TO.P,U3,30,TIM2_CH4*%
%TO.N,DD_BOT_B*%
X131455000Y-67470000D03*
%TO.P,U3,31,VSS*%
%TO.N,GND*%
X131455000Y-66970000D03*
%TO.P,U3,32,VDD*%
%TO.N,VDD*%
X131455000Y-66470000D03*
D49*
%TO.P,U3,33,PB12*%
%TO.N,unconnected-(U3-PB12-Pad33)*%
X129530000Y-64545000D03*
%TO.P,U3,34,PB13*%
%TO.N,unconnected-(U3-PB13-Pad34)*%
X129030000Y-64545000D03*
%TO.P,U3,35,PB14*%
%TO.N,unconnected-(U3-PB14-Pad35)*%
X128530000Y-64545000D03*
%TO.P,U3,36,PB15*%
%TO.N,unconnected-(U3-PB15-Pad36)*%
X128030000Y-64545000D03*
%TO.P,U3,37,PC6*%
%TO.N,unconnected-(U3-PC6-Pad37)*%
X127530000Y-64545000D03*
%TO.P,U3,38,PC7*%
%TO.N,unconnected-(U3-PC7-Pad38)*%
X127030000Y-64545000D03*
%TO.P,U3,39,PC8*%
%TO.N,unconnected-(U3-PC8-Pad39)*%
X126530000Y-64545000D03*
%TO.P,U3,40,PC9*%
%TO.N,unconnected-(U3-PC9-Pad40)*%
X126030000Y-64545000D03*
%TO.P,U3,41,PA8*%
%TO.N,unconnected-(U3-PA8-Pad41)*%
X125530000Y-64545000D03*
%TO.P,U3,42,USART1_TX*%
%TO.N,/MCU/USART1_TX*%
X125030000Y-64545000D03*
%TO.P,U3,43,USART1_RX*%
%TO.N,/MCU/USART1_RX*%
X124530000Y-64545000D03*
%TO.P,U3,44,PA11*%
%TO.N,unconnected-(U3-PA11-Pad44)*%
X124030000Y-64545000D03*
%TO.P,U3,45,PA12*%
%TO.N,unconnected-(U3-PA12-Pad45)*%
X123530000Y-64545000D03*
%TO.P,U3,46,SYS_SWDIO*%
%TO.N,/MCU/SWDIO*%
X123030000Y-64545000D03*
%TO.P,U3,47,VSS*%
%TO.N,GND*%
X122530000Y-64545000D03*
%TO.P,U3,48,VDD_USB*%
%TO.N,VDD*%
X122030000Y-64545000D03*
D50*
%TO.P,U3,49,SYS_SWCLK*%
%TO.N,/MCU/SWCLK*%
X120105000Y-66470000D03*
%TO.P,U3,50,TIM2_CH1*%
%TO.N,DD_TOP_A*%
X120105000Y-66970000D03*
%TO.P,U3,51,PC10*%
%TO.N,unconnected-(U3-PC10-Pad51)*%
X120105000Y-67470000D03*
%TO.P,U3,52,PC11*%
%TO.N,unconnected-(U3-PC11-Pad52)*%
X120105000Y-67970000D03*
%TO.P,U3,53,PC12*%
%TO.N,unconnected-(U3-PC12-Pad53)*%
X120105000Y-68470000D03*
%TO.P,U3,54,PD2*%
%TO.N,unconnected-(U3-PD2-Pad54)*%
X120105000Y-68970000D03*
%TO.P,U3,55,TIM2_CH2*%
%TO.N,DD_BOT_A*%
X120105000Y-69470000D03*
%TO.P,U3,56,TIM22_CH1*%
%TO.N,/MCU/LED_ON*%
X120105000Y-69970000D03*
%TO.P,U3,57,TIM22_CH2*%
%TO.N,/MCU/LED_ACTIVE*%
X120105000Y-70470000D03*
%TO.P,U3,58,PB6*%
%TO.N,/MCU/LED_ERROR*%
X120105000Y-70970000D03*
%TO.P,U3,59,PB7*%
%TO.N,NBAL_1*%
X120105000Y-71470000D03*
%TO.P,U3,60,BOOT0*%
%TO.N,GND*%
X120105000Y-71970000D03*
%TO.P,U3,61,PB8*%
%TO.N,NBAL_2*%
X120105000Y-72470000D03*
%TO.P,U3,62,PB9*%
%TO.N,NBAL_3*%
X120105000Y-72970000D03*
%TO.P,U3,63,VSS*%
%TO.N,GND*%
X120105000Y-73470000D03*
%TO.P,U3,64,VDD*%
%TO.N,VDD*%
X120105000Y-73970000D03*
%TD*%
D36*
%TO.P,R13,1*%
%TO.N,/MCU/LED_ACTIVE*%
X150874000Y-66220000D03*
%TO.P,R13,2*%
%TO.N,Net-(D5-A)*%
X151894000Y-66220000D03*
%TD*%
D15*
%TO.P,R35,1*%
%TO.N,+BATT*%
X113983000Y-96774000D03*
%TO.P,R35,2*%
%TO.N,Net-(Q20-D)*%
X115633000Y-96774000D03*
%TD*%
D33*
%TO.P,Q16,1,G*%
%TO.N,Net-(Q16-G)*%
X138462000Y-68692000D03*
%TO.P,Q16,2,S*%
%TO.N,GND*%
X138462000Y-69992000D03*
%TO.P,Q16,3,D*%
%TO.N,Net-(Q14-G)*%
X140462000Y-69342000D03*
%TD*%
D23*
%TO.P,R17,1*%
%TO.N,Net-(U4-HVG)*%
X142303000Y-93980000D03*
%TO.P,R17,2*%
%TO.N,/BuckBoost/GATE_TOP_B*%
X140653000Y-93980000D03*
%TD*%
D19*
%TO.P,Q2,1,G*%
%TO.N,/BuckBoost/GATE_TOP_B*%
X140604651Y-90579350D03*
%TO.P,Q2,2,S*%
%TO.N,/BuckBoost/VS_B*%
X140604651Y-92479350D03*
%TO.P,Q2,3,D*%
%TO.N,VSOLAR*%
X142479651Y-91529350D03*
%TD*%
D23*
%TO.P,R48,1*%
%TO.N,Net-(Q11-D)*%
X147383000Y-66548000D03*
%TO.P,R48,2*%
%TO.N,+BATT*%
X145733000Y-66548000D03*
%TD*%
D51*
%TO.P,SW1,1,1*%
%TO.N,/MCU/SWITCH*%
X157800000Y-73875000D03*
X151800000Y-73875000D03*
%TO.P,SW1,2,2*%
%TO.N,VDD*%
X157800000Y-70125000D03*
X151800000Y-70125000D03*
%TD*%
D52*
%TO.N,GND*%
X110497345Y-91872239D03*
%TO.N,VDD*%
X133096000Y-64008000D03*
X157353001Y-63372999D03*
%TO.N,GND*%
X110354866Y-86466939D03*
X152908008Y-91935000D03*
X97409000Y-64643000D03*
X127127000Y-79756000D03*
X143002000Y-72517000D03*
X114910935Y-82811409D03*
X128270000Y-80772000D03*
X139827000Y-68199000D03*
X111506000Y-74295000D03*
X120904000Y-96393000D03*
X146050000Y-79121000D03*
X147828000Y-96266000D03*
X136906000Y-71120000D03*
X138430000Y-75438000D03*
X120777000Y-64516000D03*
X106172000Y-94996000D03*
X151892000Y-65278000D03*
X112776000Y-92075000D03*
X128778000Y-71882000D03*
X114808000Y-88773000D03*
X104013000Y-94615000D03*
X134588973Y-67300527D03*
X117348000Y-91567000D03*
X130683000Y-78105000D03*
X119968046Y-76112949D03*
X149352000Y-82550000D03*
X140716000Y-63325822D03*
X126238000Y-85598000D03*
X120269000Y-81153000D03*
X128143000Y-82550000D03*
X139246532Y-65489771D03*
X127889000Y-91567000D03*
X115189000Y-90551000D03*
X128865400Y-67343817D03*
X119368117Y-74766958D03*
X124462563Y-70427239D03*
X127343817Y-68770301D03*
X122555000Y-80137000D03*
X123395620Y-78407380D03*
X115592532Y-79575115D03*
X143256000Y-93853000D03*
X140335000Y-80391000D03*
X105664000Y-70485000D03*
X109951553Y-67607494D03*
X103378000Y-99441000D03*
X134493000Y-81026000D03*
X141287500Y-95440500D03*
X115443000Y-85725000D03*
X133731000Y-75057000D03*
X143383000Y-98298000D03*
X132969000Y-83185000D03*
X118338009Y-78109952D03*
X154686000Y-93599000D03*
X118872000Y-90043000D03*
X108966000Y-79883000D03*
X107950000Y-83185000D03*
X122936000Y-73406000D03*
X147320000Y-94234000D03*
X155956000Y-66167000D03*
X124018883Y-65927055D03*
X138430000Y-71247000D03*
X117906475Y-76504475D03*
X124310444Y-67055270D03*
X110236000Y-98806000D03*
X139192000Y-90424000D03*
X121856608Y-68152158D03*
X143637000Y-79121000D03*
X150368000Y-89154000D03*
X151400000Y-75800000D03*
X119507000Y-88265000D03*
X116336748Y-70616748D03*
X150600000Y-77800000D03*
X122936000Y-82550000D03*
X116713000Y-64262000D03*
X122428000Y-81026000D03*
X128143000Y-72898000D03*
X104737450Y-67437000D03*
X155956000Y-68199000D03*
X127127000Y-85598000D03*
X156014994Y-64404000D03*
X151638000Y-67183000D03*
X130192375Y-70268782D03*
X125984000Y-83566000D03*
X118237000Y-71247000D03*
X150495000Y-75057000D03*
X134239000Y-76073000D03*
X106045000Y-63754000D03*
X137287000Y-76327000D03*
X124206000Y-86741000D03*
X137541000Y-80137000D03*
X111252000Y-95758000D03*
X147955000Y-92329000D03*
X118745000Y-87757000D03*
X114278000Y-63866000D03*
X113411000Y-94107000D03*
X143129000Y-76200000D03*
X103675786Y-98057351D03*
X131191000Y-80518000D03*
X141478000Y-77597000D03*
X125984000Y-73152000D03*
X111252000Y-97409000D03*
X125476000Y-79248000D03*
X137414000Y-75311000D03*
X122700519Y-69064507D03*
X119126000Y-95885000D03*
X143002000Y-68453000D03*
X133858000Y-77724000D03*
X117856000Y-67183000D03*
X122428000Y-84074000D03*
X114554000Y-75819000D03*
X125984000Y-71628000D03*
%TO.N,VDD*%
X133858000Y-78867000D03*
X126325788Y-79267078D03*
X130810000Y-78994000D03*
X136271000Y-76581000D03*
%TO.N,/MCU/SWDIO*%
X123028803Y-65820000D03*
X104394000Y-65913000D03*
%TO.N,/MCU/SWCLK*%
X109093000Y-66929000D03*
X123317000Y-67183000D03*
%TO.N,/MCU/NRST*%
X125103281Y-71676500D03*
X125095000Y-73152000D03*
X125095000Y-74676000D03*
X115189000Y-68961000D03*
%TO.N,+BATT*%
X127600000Y-97400000D03*
X127600000Y-98800000D03*
X125200000Y-97400000D03*
X143764000Y-67564000D03*
X125200000Y-98800000D03*
X139558000Y-63316075D03*
X126400000Y-98200000D03*
X140399002Y-67499998D03*
%TO.N,CELL_4V*%
X144018000Y-75692000D03*
X112395000Y-93091000D03*
X114776875Y-83742264D03*
X110236000Y-97282000D03*
%TO.N,CELL_8V*%
X110490010Y-88138000D03*
X117645821Y-77313526D03*
X143891000Y-71501000D03*
X110236000Y-95758000D03*
%TO.N,VSOLAR*%
X143800000Y-91200000D03*
X142200000Y-90400000D03*
X143600000Y-89800000D03*
%TO.N,/MCU/LED_ACTIVE*%
X151003000Y-65278000D03*
X123452797Y-70318964D03*
%TO.N,/MCU/LED_ERROR*%
X150495000Y-67183000D03*
X122174000Y-70978000D03*
%TO.N,/BuckBoost/VS_A*%
X134000000Y-94000000D03*
X134000000Y-96000000D03*
X133000000Y-97000000D03*
X130000000Y-90000000D03*
X132000000Y-92000000D03*
X134000000Y-98000000D03*
X134000000Y-92000000D03*
X133000000Y-99000000D03*
X132000000Y-98000000D03*
%TO.N,/BuckBoost/VS_B*%
X139000000Y-97000000D03*
X136000000Y-96000000D03*
X140000000Y-98000000D03*
X137000000Y-97000000D03*
X139000000Y-99000000D03*
X136000000Y-92000000D03*
X136000000Y-94000000D03*
X138000000Y-98000000D03*
X139000000Y-92000000D03*
X136000000Y-98000000D03*
X137000000Y-99000000D03*
%TO.N,/BuckBoost/GATE_TOP_B*%
X140462000Y-91440000D03*
X141403000Y-93980000D03*
%TO.N,/BuckBoost/DRIVER_VCC*%
X120904000Y-97536000D03*
X153670000Y-93599000D03*
%TO.N,COMP2_INP*%
X121539000Y-81026000D03*
X120777000Y-77200000D03*
%TO.N,DD_TOP_A*%
X121539000Y-67120000D03*
X117983000Y-92202000D03*
%TO.N,DD_BOT_A*%
X121680158Y-69280675D03*
X118745000Y-91059000D03*
%TO.N,DD_BOT_B*%
X148082000Y-95123000D03*
X130082479Y-67191472D03*
%TO.N,DD_TOP_B*%
X148336000Y-93599000D03*
X127612863Y-67603353D03*
%TO.N,NBAL_3*%
X119380000Y-77978000D03*
X119165429Y-75876332D03*
%TO.N,NBAL_2*%
X118617999Y-81114710D03*
X120728838Y-75808633D03*
%TO.N,NBAL_1*%
X122936075Y-72405000D03*
X115189000Y-92456000D03*
X114554000Y-74930000D03*
X110998000Y-75057000D03*
%TO.N,Net-(D11-A)*%
X104140004Y-95758000D03*
X110109000Y-79883000D03*
%TO.N,Net-(D12-A)*%
X108966000Y-83566000D03*
X104267000Y-97282000D03*
%TO.N,Net-(D13-A)*%
X109586000Y-91440000D03*
X104267000Y-98806000D03*
%TO.N,Net-(U1-OUT)*%
X150600000Y-76708000D03*
X150749000Y-88138000D03*
X141351000Y-78486000D03*
X137541000Y-81026000D03*
%TO.N,/MCU/SWITCH*%
X150522946Y-74041000D03*
X126383318Y-69616681D03*
%TO.N,CELL8V_ADC_EN*%
X135255000Y-71374000D03*
X129782796Y-71483621D03*
%TO.N,CELL4V_ADC_EN*%
X136271000Y-75184000D03*
X129413000Y-72771000D03*
%TO.N,DRIVERS_EN*%
X128304316Y-69569132D03*
X121158000Y-84328000D03*
%TD*%
D53*
%TO.N,VDD*%
X133096000Y-65024000D02*
X133096000Y-64008000D01*
X133600000Y-65528000D02*
X133096000Y-65024000D01*
X133600000Y-65825000D02*
X133600000Y-65528000D01*
%TO.N,GND*%
X141417000Y-95570000D02*
X142591000Y-95570000D01*
X141287500Y-95440500D02*
X141417000Y-95570000D01*
%TO.N,VDD*%
X157353001Y-63372999D02*
X157800000Y-63819998D01*
X157800000Y-63819998D02*
X157800000Y-70125000D01*
%TO.N,GND*%
X155940994Y-64330000D02*
X156014994Y-64404000D01*
X154750000Y-64330000D02*
X155940994Y-64330000D01*
%TO.N,Net-(Q11-G)*%
X141320999Y-63991000D02*
X142827000Y-63991000D01*
X142827000Y-63991000D02*
X144002000Y-65166000D01*
X140795999Y-64516000D02*
X141320999Y-63991000D01*
X140446000Y-64516000D02*
X140795999Y-64516000D01*
%TO.N,+BATT*%
X139796000Y-63554075D02*
X139558000Y-63316075D01*
X140399000Y-66548000D02*
X140399000Y-65405480D01*
%TO.N,/MCU/LED_ON*%
X150874000Y-63121000D02*
X150874000Y-64330000D01*
X150419075Y-62666075D02*
X150874000Y-63121000D01*
X132953000Y-62666075D02*
X150419075Y-62666075D01*
%TO.N,+BATT*%
X140399000Y-65405480D02*
X139796000Y-64802480D01*
X139796000Y-64802480D02*
X139796000Y-63554075D01*
%TO.N,/MCU/LED_ON*%
X129999075Y-65620000D02*
X132953000Y-62666075D01*
X127297590Y-65620000D02*
X129999075Y-65620000D01*
X122847590Y-70070000D02*
X127297590Y-65620000D01*
X122750924Y-70070000D02*
X122847590Y-70070000D01*
X120147000Y-69928000D02*
X122608925Y-69928000D01*
X120105000Y-69970000D02*
X120147000Y-69928000D01*
X122608925Y-69928000D02*
X122750924Y-70070000D01*
%TO.N,VBATT_ADC_EN*%
X134000000Y-64213000D02*
X135382000Y-65595000D01*
X133619239Y-63358000D02*
X134000000Y-63738761D01*
X132826761Y-63358000D02*
X133619239Y-63358000D01*
X130164761Y-66020000D02*
X132826761Y-63358000D01*
X127782000Y-66020000D02*
X130164761Y-66020000D01*
X125609689Y-68192311D02*
X127782000Y-66020000D01*
X126646828Y-70866000D02*
X125609689Y-69828861D01*
X125609689Y-69828861D02*
X125609689Y-68192311D01*
X129991711Y-70866000D02*
X126646828Y-70866000D01*
X130095711Y-70970000D02*
X129991711Y-70866000D01*
X131455000Y-70970000D02*
X130095711Y-70970000D01*
X134000000Y-63738761D02*
X134000000Y-64213000D01*
%TO.N,VDD*%
X157800000Y-70125000D02*
X151800000Y-70125000D01*
D54*
%TO.N,GND*%
X101428000Y-86868000D02*
X104394000Y-86868000D01*
X101124000Y-86564000D02*
X101428000Y-86868000D01*
X101124000Y-86564000D02*
X99280000Y-84720000D01*
X101124000Y-90678000D02*
X101124000Y-86564000D01*
%TO.N,+BATT*%
X105124000Y-90678000D02*
X107442000Y-90678000D01*
X107442000Y-90678000D02*
X107442000Y-85882000D01*
X107442000Y-92179834D02*
X107442000Y-90678000D01*
D53*
%TO.N,CELL_8V*%
X107346448Y-81565448D02*
X107315000Y-81534000D01*
X109565000Y-86038552D02*
X107346448Y-83820000D01*
X107346448Y-83820000D02*
X107346448Y-81565448D01*
%TO.N,CELL_4V*%
X105563000Y-82804000D02*
X108865000Y-86106000D01*
X105286000Y-82804000D02*
X105563000Y-82804000D01*
X108865000Y-86106000D02*
X108865000Y-87783000D01*
%TO.N,CELL_8V*%
X106045000Y-80264000D02*
X105272496Y-80264000D01*
X108066496Y-81534000D02*
X107315000Y-81534000D01*
X110431752Y-82491752D02*
X109024248Y-82491752D01*
X111291500Y-83351500D02*
X110431752Y-82491752D01*
X109024248Y-82491752D02*
X108066496Y-81534000D01*
X107315000Y-81534000D02*
X106045000Y-80264000D01*
X111291500Y-83562000D02*
X111291500Y-83351500D01*
%TO.N,+BATT*%
X106745000Y-77659000D02*
X107823000Y-78737000D01*
X111471794Y-77751110D02*
X106837110Y-77751110D01*
X106837110Y-77751110D02*
X106745000Y-77659000D01*
X106302000Y-77216000D02*
X106745000Y-77659000D01*
X108987110Y-81301110D02*
X109491294Y-81301110D01*
X107823000Y-80137000D02*
X108987110Y-81301110D01*
X107823000Y-78737000D02*
X107823000Y-80137000D01*
X106302000Y-74343000D02*
X107288000Y-73357000D01*
X106302000Y-77216000D02*
X106302000Y-74343000D01*
X103886000Y-75686000D02*
X103886000Y-73406000D01*
X105286000Y-77086000D02*
X103886000Y-75686000D01*
X105286000Y-77724000D02*
X105286000Y-77086000D01*
X105794000Y-77216000D02*
X105286000Y-77724000D01*
X106302000Y-77216000D02*
X105794000Y-77216000D01*
D54*
X105939000Y-84379000D02*
X107442000Y-85882000D01*
X104510570Y-84379000D02*
X105939000Y-84379000D01*
X103947496Y-83815926D02*
X104510570Y-84379000D01*
X103947496Y-79062504D02*
X103947496Y-83815926D01*
X105286000Y-77724000D02*
X103947496Y-79062504D01*
%TO.N,Net-(BAL1-Pin_3)*%
X101902000Y-82220000D02*
X102486000Y-82804000D01*
X99280000Y-82220000D02*
X101902000Y-82220000D01*
%TO.N,Net-(BAL1-Pin_2)*%
X101928496Y-79720000D02*
X102472496Y-80264000D01*
X99280000Y-79720000D02*
X101928496Y-79720000D01*
%TO.N,Net-(BAL1-Pin_1)*%
X101982000Y-77220000D02*
X102486000Y-77724000D01*
X99280000Y-77220000D02*
X101982000Y-77220000D01*
D53*
%TO.N,GND*%
X149098000Y-84296000D02*
X149098000Y-82804000D01*
X143684073Y-79073927D02*
X143637000Y-79121000D01*
X118865000Y-73470000D02*
X120105000Y-73470000D01*
X120220000Y-65620000D02*
X122262410Y-65620000D01*
X125222000Y-85598000D02*
X126238000Y-85598000D01*
X125971000Y-78000000D02*
X126232410Y-78000000D01*
X112933000Y-69802000D02*
X110730501Y-69802000D01*
X155903000Y-66220000D02*
X155956000Y-66167000D01*
X116071778Y-85096222D02*
X115443000Y-85725000D01*
X121920000Y-79261000D02*
X121920000Y-79502000D01*
X133400000Y-73975000D02*
X132895000Y-73470000D01*
X107893000Y-69802000D02*
X110130499Y-69802000D01*
X116060500Y-90443000D02*
X115297000Y-90443000D01*
X138462000Y-69992000D02*
X138462000Y-71215000D01*
X113127000Y-63986000D02*
X114158000Y-63986000D01*
X118237000Y-71970000D02*
X120105000Y-71970000D01*
X125603000Y-83185000D02*
X125984000Y-83566000D01*
X118237000Y-71970000D02*
X118237000Y-71247000D01*
X125603000Y-82563000D02*
X125603000Y-83185000D01*
X107288000Y-70407000D02*
X105742000Y-70407000D01*
X134732000Y-80787000D02*
X134493000Y-81026000D01*
X116048000Y-88593000D02*
X114988000Y-88593000D01*
X138446000Y-75422000D02*
X138430000Y-75438000D01*
X117063000Y-64612000D02*
X116713000Y-64262000D01*
X128677000Y-83084000D02*
X128143000Y-82550000D01*
X126232410Y-78000000D02*
X127530000Y-76702410D01*
X125971000Y-78000000D02*
X125971000Y-78753000D01*
X116336748Y-71739253D02*
X116567495Y-71970000D01*
X128334000Y-85471000D02*
X127254000Y-85471000D01*
X98740000Y-66084283D02*
X97409000Y-64753283D01*
X119795515Y-65364125D02*
X119928875Y-65364125D01*
X136906000Y-74803000D02*
X137414000Y-75311000D01*
X138922761Y-65166000D02*
X139246532Y-65489771D01*
X154813000Y-68199000D02*
X155956000Y-68199000D01*
X119800000Y-65200000D02*
X120220000Y-65620000D01*
X115297000Y-90443000D02*
X115189000Y-90551000D01*
X118364000Y-95123000D02*
X119126000Y-95885000D01*
X154750000Y-68220000D02*
X154792000Y-68220000D01*
X110130499Y-69802000D02*
X110430500Y-70102001D01*
X138462000Y-71215000D02*
X138430000Y-71247000D01*
X116336748Y-71739253D02*
X117482495Y-72885000D01*
X119443000Y-80518000D02*
X119634000Y-80518000D01*
X117856000Y-64612000D02*
X117063000Y-64612000D01*
X124363240Y-79375000D02*
X123395620Y-78407380D01*
X132895000Y-73470000D02*
X131455000Y-73470000D01*
X129017000Y-80025000D02*
X128270000Y-80772000D01*
X118364000Y-95009000D02*
X120221000Y-95009000D01*
X119195000Y-71970000D02*
X120105000Y-71970000D01*
X149930000Y-92138000D02*
X151689000Y-92138000D01*
X127757500Y-92390000D02*
X127757500Y-91698500D01*
X146050000Y-78076000D02*
X146050000Y-79121000D01*
X143684073Y-78078677D02*
X143684073Y-79073927D01*
X151689000Y-92138000D02*
X151892000Y-91935000D01*
X109245500Y-98806000D02*
X110236000Y-98806000D01*
X144144000Y-99059000D02*
X143383000Y-98298000D01*
X122530000Y-65352410D02*
X122530000Y-64545000D01*
X154792000Y-68220000D02*
X154813000Y-68199000D01*
X110730501Y-69802000D02*
X110430500Y-70102001D01*
X118280000Y-72013000D02*
X118237000Y-71970000D01*
X119634000Y-80518000D02*
X120269000Y-81153000D01*
X138446000Y-74056000D02*
X138446000Y-75422000D01*
X140335000Y-79311000D02*
X140335000Y-80391000D01*
X116567495Y-71970000D02*
X118237000Y-71970000D01*
D54*
X149098000Y-84296000D02*
X152896000Y-84296000D01*
D53*
X114109000Y-94805000D02*
X113411000Y-94107000D01*
X116336748Y-71739253D02*
X116336748Y-70616748D01*
X124400000Y-79375000D02*
X124363240Y-79375000D01*
X121920000Y-79502000D02*
X122555000Y-80137000D01*
X118280000Y-72885000D02*
X118865000Y-73470000D01*
X129032000Y-83084000D02*
X128677000Y-83084000D01*
X114158000Y-63986000D02*
X114278000Y-63866000D01*
X107288000Y-70407000D02*
X107893000Y-69802000D01*
X136906000Y-73977000D02*
X136906000Y-74803000D01*
X136906000Y-70167000D02*
X136906000Y-71120000D01*
X98740000Y-66450000D02*
X98740000Y-66084283D01*
X124143000Y-87884000D02*
X124143000Y-86804000D01*
X116203647Y-78964000D02*
X115592532Y-79575115D01*
X132905000Y-83121000D02*
X132969000Y-83185000D01*
X114278000Y-63986000D02*
X114278000Y-63866000D01*
X129017000Y-79994000D02*
X129017000Y-80025000D01*
X132080000Y-83121000D02*
X132905000Y-83121000D01*
X105742000Y-70407000D02*
X105664000Y-70485000D01*
X122262410Y-65620000D02*
X122530000Y-65352410D01*
X134732000Y-79994000D02*
X134732000Y-80787000D01*
X122999000Y-82613000D02*
X122936000Y-82550000D01*
X110430500Y-70102001D02*
X110430500Y-70764500D01*
X149098000Y-82804000D02*
X149352000Y-82550000D01*
X134762000Y-76596000D02*
X134239000Y-76073000D01*
X135112000Y-76596000D02*
X134762000Y-76596000D01*
X120666000Y-88280000D02*
X119522000Y-88280000D01*
X124143000Y-86804000D02*
X124206000Y-86741000D01*
X137541000Y-79007000D02*
X137541000Y-80137000D01*
X116332000Y-78964000D02*
X116203647Y-78964000D01*
X120221000Y-95009000D02*
X120361000Y-94869000D01*
X117629000Y-88314000D02*
X118188000Y-88314000D01*
X119522000Y-88280000D02*
X119507000Y-88265000D01*
X97409000Y-64753283D02*
X97409000Y-64643000D01*
X124079000Y-82613000D02*
X122999000Y-82613000D01*
X118280000Y-72885000D02*
X119195000Y-71970000D01*
X138446000Y-65166000D02*
X138922761Y-65166000D01*
X127757500Y-91698500D02*
X127889000Y-91567000D01*
D54*
X152896000Y-84296000D02*
X153200000Y-84600000D01*
D53*
X117856000Y-66390000D02*
X117856000Y-67183000D01*
X151892000Y-91935000D02*
X152908008Y-91935000D01*
X131684000Y-79978000D02*
X131684000Y-80025000D01*
X116127417Y-85096222D02*
X116071778Y-85096222D01*
X118280000Y-72885000D02*
X118280000Y-72013000D01*
X117482495Y-72885000D02*
X118280000Y-72885000D01*
X144144000Y-99060000D02*
X144144000Y-99059000D01*
X138017000Y-65595000D02*
X138446000Y-65166000D01*
X114173000Y-94805000D02*
X114109000Y-94805000D01*
X114988000Y-88593000D02*
X114808000Y-88773000D01*
X113538000Y-70407000D02*
X112933000Y-69802000D01*
X127254000Y-85471000D02*
X127127000Y-85598000D01*
X154750000Y-66220000D02*
X155903000Y-66220000D01*
X118188000Y-88314000D02*
X118745000Y-87757000D01*
X119928875Y-65364125D02*
X120777000Y-64516000D01*
X136906000Y-65595000D02*
X138017000Y-65595000D01*
X125971000Y-78753000D02*
X125476000Y-79248000D01*
X133731000Y-73927000D02*
X133731000Y-75057000D01*
X118364000Y-95009000D02*
X118364000Y-95123000D01*
X131684000Y-80025000D02*
X131191000Y-80518000D01*
X127530000Y-76702410D02*
X127530000Y-75895000D01*
%TO.N,VDD*%
X130317000Y-79487000D02*
X130810000Y-78994000D01*
X132984000Y-79978000D02*
X132984000Y-79741000D01*
X113538000Y-73357000D02*
X115136748Y-71758252D01*
X126325788Y-79195212D02*
X126325788Y-79267078D01*
X134607000Y-73253000D02*
X133731000Y-72377000D01*
X117052887Y-74689253D02*
X120824634Y-78461000D01*
X118025747Y-74689253D02*
X118280000Y-74435000D01*
X115136748Y-71758252D02*
X115136748Y-70110996D01*
X115004495Y-73357000D02*
X116336748Y-74689253D01*
X131455000Y-66470000D02*
X132955000Y-66470000D01*
X123625000Y-79823696D02*
X123938304Y-80137000D01*
X132855000Y-72970000D02*
X131455000Y-72970000D01*
X121135000Y-63650000D02*
X122030000Y-64545000D01*
X120105000Y-73970000D02*
X118745000Y-73970000D01*
X118999000Y-64415578D02*
X119764578Y-63650000D01*
X128030000Y-77491000D02*
X128030000Y-75895000D01*
X120824634Y-78461000D02*
X122530000Y-78461000D01*
X134607000Y-74791000D02*
X134607000Y-73253000D01*
X118745000Y-73970000D02*
X118280000Y-74435000D01*
X135112000Y-75296000D02*
X136271000Y-76455000D01*
X127521000Y-78000000D02*
X126325788Y-79195212D01*
X103218771Y-66239700D02*
X104522471Y-64936000D01*
X116336748Y-74689253D02*
X117052887Y-74689253D01*
X115737872Y-69509872D02*
X117356000Y-67891744D01*
X119800000Y-63710360D02*
X119800000Y-63650000D01*
X118417256Y-67891744D02*
X118999000Y-67310000D01*
X101280000Y-66450000D02*
X101490300Y-66239700D01*
X113538000Y-73357000D02*
X115004495Y-73357000D01*
X119764578Y-63650000D02*
X119800000Y-63650000D01*
X114983261Y-69674500D02*
X115573244Y-69674500D01*
X112610314Y-69361000D02*
X114669761Y-69361000D01*
X133400000Y-72425000D02*
X132855000Y-72970000D01*
X123938304Y-80137000D02*
X125455866Y-80137000D01*
X130317000Y-79994000D02*
X130317000Y-79487000D01*
X101490300Y-66239700D02*
X103218771Y-66239700D01*
X123625000Y-79556000D02*
X123625000Y-79823696D01*
X132984000Y-79741000D02*
X133858000Y-78867000D01*
X136271000Y-76455000D02*
X136271000Y-76581000D01*
X119800000Y-63650000D02*
X121135000Y-63650000D01*
X132955000Y-66470000D02*
X133600000Y-65825000D01*
X134905000Y-78867000D02*
X133858000Y-78867000D01*
X115573244Y-69674500D02*
X115737872Y-69509872D01*
X127521000Y-78000000D02*
X128030000Y-77491000D01*
X104522471Y-64936000D02*
X108185314Y-64936000D01*
X111698000Y-73357000D02*
X113538000Y-73357000D01*
X111380500Y-73039500D02*
X111698000Y-73357000D01*
X114669761Y-69361000D02*
X114983261Y-69674500D01*
X115136748Y-70110996D02*
X115737872Y-69509872D01*
X108185314Y-64936000D02*
X112610314Y-69361000D01*
X116336748Y-74689253D02*
X118025747Y-74689253D01*
X122530000Y-78461000D02*
X123625000Y-79556000D01*
X117356000Y-67891744D02*
X118417256Y-67891744D01*
X135112000Y-75296000D02*
X134607000Y-74791000D01*
X136032000Y-79994000D02*
X134905000Y-78867000D01*
X125455866Y-80137000D02*
X126325788Y-79267078D01*
X118999000Y-67310000D02*
X118999000Y-64415578D01*
%TO.N,/MCU/SWDIO*%
X101280000Y-67720000D02*
X101490300Y-67930300D01*
X104394000Y-66436435D02*
X104394000Y-65913000D01*
X123030000Y-65818803D02*
X123028803Y-65820000D01*
X101490300Y-67930300D02*
X102900135Y-67930300D01*
X123030000Y-64545000D02*
X123030000Y-65818803D01*
X102900135Y-67930300D02*
X104394000Y-66436435D01*
%TO.N,/MCU/SWCLK*%
X120105000Y-66470000D02*
X122604000Y-66470000D01*
X101012550Y-68722550D02*
X101012550Y-70261833D01*
X105283000Y-69088000D02*
X107309744Y-69088000D01*
X103124000Y-71247000D02*
X105283000Y-69088000D01*
X109093000Y-67304744D02*
X109093000Y-66929000D01*
X107309744Y-69088000D02*
X109093000Y-67304744D01*
X101997717Y-71247000D02*
X103124000Y-71247000D01*
X122604000Y-66470000D02*
X123317000Y-67183000D01*
X101012550Y-70261833D02*
X101997717Y-71247000D01*
X100010000Y-67720000D02*
X101012550Y-68722550D01*
%TO.N,/MCU/NRST*%
X125030000Y-75895000D02*
X125030000Y-74741000D01*
X101330450Y-63007550D02*
X106822550Y-63007550D01*
X125095000Y-73152000D02*
X125095000Y-71684781D01*
X124400000Y-77825000D02*
X125030000Y-77195000D01*
X112776000Y-68961000D02*
X114935000Y-68961000D01*
X101012550Y-65447450D02*
X101012550Y-63325450D01*
X114935000Y-68961000D02*
X115189000Y-68961000D01*
X106822550Y-63007550D02*
X112776000Y-68961000D01*
X125030000Y-77195000D02*
X125030000Y-75895000D01*
X101012550Y-63325450D02*
X101330450Y-63007550D01*
X125095000Y-71684781D02*
X125103281Y-71676500D01*
X125030000Y-74741000D02*
X125095000Y-74676000D01*
X100010000Y-66450000D02*
X101012550Y-65447450D01*
%TO.N,/MCU/USART1_RX*%
X110627000Y-64636000D02*
X110927000Y-64936000D01*
X124530000Y-63737590D02*
X124530000Y-64545000D01*
X110627000Y-63986000D02*
X110627000Y-64636000D01*
X123792410Y-63000000D02*
X124530000Y-63737590D01*
X117506000Y-65690000D02*
X117856000Y-65690000D01*
X118599000Y-64947000D02*
X118599000Y-63627304D01*
X110927000Y-64936000D02*
X116752000Y-64936000D01*
X116752000Y-64936000D02*
X117506000Y-65690000D01*
X117856000Y-65690000D02*
X118599000Y-64947000D01*
X118599000Y-63627304D02*
X119226304Y-63000000D01*
X119226304Y-63000000D02*
X123792410Y-63000000D01*
%TO.N,+BATT*%
X139858000Y-71374000D02*
X139096000Y-72136000D01*
X139319000Y-67183000D02*
X139954000Y-66548000D01*
X140272000Y-75438000D02*
X139096000Y-74262000D01*
X139096000Y-74262000D02*
X139096000Y-72136000D01*
X143764000Y-67564000D02*
X144780000Y-66548000D01*
X140399000Y-67499996D02*
X140399002Y-67499998D01*
D54*
X117505000Y-98486000D02*
X117804999Y-98785999D01*
X112268000Y-98420000D02*
X112268000Y-94615666D01*
D53*
X140272000Y-71374000D02*
X140272000Y-70752038D01*
X139954000Y-66548000D02*
X140399000Y-66548000D01*
X113983000Y-96774000D02*
X113983000Y-98423000D01*
X140399000Y-66548000D02*
X140399000Y-67499996D01*
X139112000Y-67183000D02*
X139319000Y-67183000D01*
D54*
X109877832Y-94615666D02*
X107442000Y-92179834D01*
D53*
X140272000Y-71374000D02*
X139858000Y-71374000D01*
D54*
X112268000Y-94615666D02*
X109877832Y-94615666D01*
D53*
X139112000Y-69592038D02*
X139112000Y-67183000D01*
D54*
X114046000Y-98486000D02*
X112202000Y-98486000D01*
D53*
X113983000Y-98423000D02*
X114046000Y-98486000D01*
X140272000Y-70752038D02*
X139112000Y-69592038D01*
X107288000Y-73357000D02*
X109163000Y-73357000D01*
D54*
X123468666Y-96520000D02*
X127762000Y-96520000D01*
X112202000Y-98486000D02*
X112268000Y-98420000D01*
X117804999Y-98785999D02*
X121202667Y-98785999D01*
D53*
X109163000Y-73357000D02*
X109480500Y-73039500D01*
D54*
X114046000Y-98486000D02*
X117505000Y-98486000D01*
D53*
X144780000Y-66548000D02*
X145733000Y-66548000D01*
D54*
X121202667Y-98785999D02*
X123468666Y-96520000D01*
D53*
%TO.N,/MCU/USART1_TX*%
X112712000Y-63036000D02*
X116980000Y-63036000D01*
X111877000Y-63871000D02*
X112712000Y-63036000D01*
X111877000Y-63986000D02*
X111877000Y-63871000D01*
X117856000Y-63912000D02*
X117856000Y-63696314D01*
X116980000Y-63036000D02*
X117856000Y-63912000D01*
X125030000Y-63637590D02*
X125030000Y-64545000D01*
X123992410Y-62600000D02*
X125030000Y-63637590D01*
X117856000Y-63696314D02*
X118952314Y-62600000D01*
X118952314Y-62600000D02*
X123992410Y-62600000D01*
%TO.N,CELL_4V*%
X112130000Y-93356000D02*
X110371500Y-93356000D01*
X114793000Y-86248001D02*
X114793000Y-84535500D01*
X108410500Y-91395000D02*
X108410500Y-88237500D01*
X109249500Y-97282000D02*
X110236000Y-97282000D01*
X144018000Y-75692000D02*
X145225000Y-75692000D01*
X109596500Y-92581000D02*
X108410500Y-91395000D01*
X110371500Y-93356000D02*
X109596500Y-92581000D01*
X114769779Y-86271222D02*
X114793000Y-86248001D01*
X145225000Y-75692000D02*
X145479000Y-75438000D01*
X110175000Y-89093000D02*
X111323000Y-89093000D01*
X113722534Y-86271222D02*
X114769779Y-86271222D01*
X108410500Y-88237500D02*
X108865000Y-87783000D01*
X112395000Y-93091000D02*
X112130000Y-93356000D01*
X108865000Y-87783000D02*
X110175000Y-89093000D01*
X116016500Y-83312000D02*
X115586236Y-83742264D01*
X115586236Y-83742264D02*
X114776875Y-83742264D01*
X111323000Y-88670756D02*
X113722534Y-86271222D01*
X114793000Y-84535500D02*
X116016500Y-83312000D01*
X111323000Y-89093000D02*
X111323000Y-88670756D01*
%TO.N,CELL_8V*%
X117645821Y-77172179D02*
X117645821Y-77313526D01*
X117463301Y-77131006D02*
X117645821Y-77313526D01*
X112416501Y-82137000D02*
X111291500Y-83262001D01*
X111291500Y-83262001D02*
X111291500Y-83562000D01*
X114982000Y-80090000D02*
X112935000Y-82137000D01*
X110490010Y-88137010D02*
X109565000Y-87212000D01*
X116233159Y-77131006D02*
X117463301Y-77131006D01*
X114982000Y-78382165D02*
X114982000Y-80090000D01*
X116233159Y-77131006D02*
X114982000Y-78382165D01*
X112935000Y-82137000D02*
X112416501Y-82137000D01*
X145479000Y-71374000D02*
X144018000Y-71374000D01*
X110490010Y-88138000D02*
X110490010Y-88137010D01*
X144018000Y-71374000D02*
X143891000Y-71501000D01*
X109243500Y-95758000D02*
X110236000Y-95758000D01*
X109565000Y-87212000D02*
X109565000Y-86038552D01*
D54*
%TO.N,/Power/Vs+*%
X153200000Y-79600000D02*
X149794000Y-79600000D01*
D53*
X145158725Y-86878547D02*
X146691953Y-86878547D01*
D54*
X149098000Y-80456500D02*
X149098000Y-80296000D01*
X149794000Y-79600000D02*
X149098000Y-80296000D01*
D53*
X145669000Y-83885500D02*
X146496500Y-83058000D01*
X145669000Y-84188000D02*
X145669000Y-83885500D01*
X145158725Y-84698275D02*
X145158725Y-86878547D01*
D54*
X146496500Y-83058000D02*
X149098000Y-80456500D01*
D53*
X146691953Y-86878547D02*
X146890500Y-86680000D01*
X145669000Y-84188000D02*
X145158725Y-84698275D01*
D54*
%TO.N,VSOLAR*%
X143571500Y-83058000D02*
X142479651Y-84149849D01*
X142200000Y-90400000D02*
X142179652Y-90379652D01*
X142179652Y-90420348D02*
X142200000Y-90400000D01*
D53*
X144526000Y-84582000D02*
X143632783Y-85475217D01*
X141812651Y-84296000D02*
X142479651Y-84963000D01*
D54*
X143571500Y-83058000D02*
X143571500Y-81141250D01*
D53*
X143632783Y-85475217D02*
X143632783Y-86828547D01*
X144526000Y-84012500D02*
X144526000Y-84582000D01*
X143571500Y-83058000D02*
X144526000Y-84012500D01*
D54*
X142479651Y-84149849D02*
X142479651Y-84963000D01*
X143686750Y-81026000D02*
X143684073Y-81028677D01*
X143571500Y-81141250D02*
X143684073Y-81028677D01*
D53*
X128810000Y-84296000D02*
X141812651Y-84296000D01*
D54*
X146050000Y-81026000D02*
X143686750Y-81026000D01*
D53*
X127127000Y-82613000D02*
X128810000Y-84296000D01*
D54*
X142179652Y-85262999D02*
X142479651Y-84963000D01*
X142179652Y-90379652D02*
X142179652Y-85262999D01*
X142179652Y-91229351D02*
X142179652Y-90420348D01*
X142479651Y-91529350D02*
X142179652Y-91229351D01*
D53*
%TO.N,/MCU/LED_ACTIVE*%
X122443239Y-70328000D02*
X122585239Y-70470000D01*
X121904761Y-70328000D02*
X122443239Y-70328000D01*
X122585239Y-70470000D02*
X123301761Y-70470000D01*
X150874000Y-65407000D02*
X151003000Y-65278000D01*
X150874000Y-66220000D02*
X150874000Y-65407000D01*
X123301761Y-70470000D02*
X123452797Y-70318964D01*
X121762761Y-70470000D02*
X121904761Y-70328000D01*
X120105000Y-70470000D02*
X121762761Y-70470000D01*
%TO.N,/MCU/LED_ERROR*%
X150874000Y-67562000D02*
X150495000Y-67183000D01*
X122166000Y-70970000D02*
X122174000Y-70978000D01*
X120105000Y-70970000D02*
X122166000Y-70970000D01*
X150874000Y-68220000D02*
X150874000Y-67562000D01*
%TO.N,SOLAR_CURRENT_ADC*%
X135919000Y-77457000D02*
X135382000Y-77994000D01*
X129530000Y-76680000D02*
X129530000Y-75895000D01*
X137911000Y-77087000D02*
X137541000Y-77457000D01*
X138811000Y-77087000D02*
X137911000Y-77087000D01*
X134332000Y-76944000D02*
X129794000Y-76944000D01*
X137541000Y-77457000D02*
X135919000Y-77457000D01*
X135382000Y-77994000D02*
X134332000Y-76944000D01*
X129794000Y-76944000D02*
X129530000Y-76680000D01*
%TO.N,VBATT_ADC*%
X132334000Y-80264480D02*
X132334000Y-77978000D01*
X129414000Y-77344000D02*
X129030000Y-76960000D01*
X132080000Y-80769520D02*
X131954480Y-80644000D01*
X132080000Y-81471000D02*
X132080000Y-80769520D01*
X131700000Y-77344000D02*
X129414000Y-77344000D01*
X132334000Y-77978000D02*
X131700000Y-77344000D01*
X129032000Y-81534000D02*
X130493000Y-81534000D01*
X129030000Y-76960000D02*
X129030000Y-75895000D01*
X130556000Y-81471000D02*
X132080000Y-81471000D01*
X130493000Y-81534000D02*
X130556000Y-81471000D01*
X131954480Y-80644000D02*
X132334000Y-80264480D01*
%TO.N,VSOLAR_ADC*%
X125730000Y-81013000D02*
X127204000Y-81013000D01*
X129667000Y-77994000D02*
X128927000Y-77994000D01*
X128530000Y-75895000D02*
X128530000Y-77597000D01*
X125680000Y-80963000D02*
X125730000Y-81013000D01*
X128530000Y-79560000D02*
X127127000Y-80963000D01*
X124206000Y-80963000D02*
X125680000Y-80963000D01*
X128530000Y-77597000D02*
X128530000Y-79560000D01*
X128927000Y-77994000D02*
X128530000Y-77597000D01*
%TO.N,/BuckBoost/VS_A*%
X132028000Y-86995000D02*
X133096000Y-88063000D01*
X129984000Y-86995000D02*
X132028000Y-86995000D01*
X131064000Y-96997000D02*
X129637000Y-95570000D01*
X125511000Y-93599000D02*
X125876352Y-93599000D01*
X127032352Y-94755000D02*
X127857648Y-94755000D01*
X129553000Y-88900000D02*
X129553000Y-87426000D01*
X129553000Y-87426000D02*
X129984000Y-86995000D01*
X128145000Y-93380552D02*
X129632500Y-91893052D01*
D54*
X129637000Y-95570000D02*
X131021000Y-95570000D01*
D53*
X128145000Y-94467648D02*
X128145000Y-93380552D01*
X129632500Y-91893052D02*
X129632500Y-91440000D01*
D54*
X131021000Y-95570000D02*
X132103000Y-94488000D01*
D53*
X127857648Y-94755000D02*
X128145000Y-94467648D01*
X131064000Y-99060000D02*
X131064000Y-96997000D01*
X125876352Y-93599000D02*
X127032352Y-94755000D01*
%TO.N,/BuckBoost/GATE_TOP_A*%
X128599500Y-94475500D02*
X128599500Y-95979448D01*
X129095000Y-93980000D02*
X128599500Y-94475500D01*
X128599500Y-95979448D02*
X129637000Y-97016948D01*
X129414000Y-99060000D02*
X129414000Y-97693000D01*
X129637000Y-97016948D02*
X129637000Y-97470000D01*
X129414000Y-97693000D02*
X129637000Y-97470000D01*
%TO.N,/BuckBoost/VS_B*%
X139712000Y-88063000D02*
X140462000Y-87313000D01*
X138153000Y-89056000D02*
X137160000Y-88063000D01*
X137160000Y-88063000D02*
X139712000Y-88063000D01*
D54*
X140161650Y-92479350D02*
X140604651Y-92479350D01*
D53*
X143905001Y-93408000D02*
X144780000Y-93408000D01*
X144345525Y-97488936D02*
X143376589Y-96520000D01*
X143376589Y-96520000D02*
X140716000Y-96520000D01*
X140604651Y-92479350D02*
X142976351Y-92479350D01*
X142976351Y-92479350D02*
X143905001Y-93408000D01*
D54*
X138153000Y-94488000D02*
X140161650Y-92479350D01*
D53*
X138153000Y-94488000D02*
X138153000Y-89056000D01*
%TO.N,/BuckBoost/GATE_TOP_B*%
X140462000Y-90722001D02*
X140604651Y-90579350D01*
X140604651Y-89105651D02*
X140462000Y-88963000D01*
X140462000Y-91440000D02*
X140462000Y-90722001D01*
X140653000Y-93980000D02*
X141403000Y-93980000D01*
X140604651Y-90579350D02*
X140604651Y-89105651D01*
%TO.N,/BuckBoost/GATE_BOT_A*%
X125793000Y-89408000D02*
X125793000Y-87884000D01*
X126875000Y-90490000D02*
X125793000Y-89408000D01*
X127757500Y-90490000D02*
X126875000Y-90490000D01*
%TO.N,/BuckBoost/GATE_BOT_B*%
X143269000Y-99835000D02*
X142494000Y-99060000D01*
X144704000Y-99835000D02*
X143269000Y-99835000D01*
X142591000Y-97470000D02*
X142591000Y-98963000D01*
X145479000Y-99060000D02*
X144704000Y-99835000D01*
X142591000Y-98963000D02*
X142494000Y-99060000D01*
%TO.N,/BuckBoost/DRIVER_VCC*%
X120221000Y-93459000D02*
X120361000Y-93599000D01*
X151815000Y-93408000D02*
X151892000Y-93485000D01*
X152006000Y-93599000D02*
X151892000Y-93485000D01*
X119380000Y-97082948D02*
X118283052Y-95986000D01*
X117221000Y-93713000D02*
X117475000Y-93459000D01*
X118283052Y-95986000D02*
X117576000Y-95986000D01*
X117576000Y-95986000D02*
X117221000Y-95631000D01*
X117221000Y-95631000D02*
X117221000Y-93713000D01*
X117475000Y-93459000D02*
X118364000Y-93459000D01*
X119380000Y-97536000D02*
X120904000Y-97536000D01*
X153670000Y-93599000D02*
X152006000Y-93599000D01*
X118364000Y-93459000D02*
X120221000Y-93459000D01*
X119380000Y-97536000D02*
X119380000Y-97082948D01*
X149930000Y-93408000D02*
X151815000Y-93408000D01*
%TO.N,Net-(U4-VBOOT)*%
X145895525Y-97488936D02*
X145895525Y-97063525D01*
X145895525Y-97063525D02*
X144780000Y-95948000D01*
%TO.N,COMP2_INP*%
X121539000Y-81026000D02*
X121539000Y-82072239D01*
X121530996Y-75086594D02*
X122497590Y-74120000D01*
X129984000Y-85471000D02*
X129858000Y-85471000D01*
X129858000Y-85471000D02*
X128334000Y-86995000D01*
X124731761Y-74120000D02*
X124881761Y-73970000D01*
X124881761Y-73970000D02*
X131455000Y-73970000D01*
X129209000Y-84696000D02*
X129984000Y-85471000D01*
X122497590Y-74120000D02*
X124731761Y-74120000D01*
X121530996Y-76446004D02*
X121530996Y-75086594D01*
X124162761Y-84696000D02*
X129209000Y-84696000D01*
X131455000Y-73970000D02*
X133112000Y-75627000D01*
X121539000Y-82072239D02*
X124162761Y-84696000D01*
X133112000Y-75627000D02*
X133112000Y-75946000D01*
X120777000Y-77200000D02*
X121530996Y-76446004D01*
%TO.N,DD_TOP_A*%
X121389000Y-66970000D02*
X121539000Y-67120000D01*
X118110000Y-92329000D02*
X117983000Y-92202000D01*
X120361000Y-92329000D02*
X118110000Y-92329000D01*
X120105000Y-66970000D02*
X121389000Y-66970000D01*
%TO.N,DD_BOT_A*%
X120105000Y-69470000D02*
X121490833Y-69470000D01*
X121490833Y-69470000D02*
X121680158Y-69280675D01*
X120361000Y-91059000D02*
X118745000Y-91059000D01*
%TO.N,DD_BOT_B*%
X131455000Y-67470000D02*
X130361007Y-67470000D01*
X149930000Y-95948000D02*
X148907000Y-95948000D01*
X148907000Y-95948000D02*
X148082000Y-95123000D01*
X130361007Y-67470000D02*
X130082479Y-67191472D01*
%TO.N,DD_TOP_B*%
X127979510Y-67970000D02*
X131455000Y-67970000D01*
X148336000Y-93599000D02*
X149415000Y-94678000D01*
X149415000Y-94678000D02*
X149930000Y-94678000D01*
X127612863Y-67603353D02*
X127979510Y-67970000D01*
%TO.N,Net-(Q20-D)*%
X116713000Y-95794000D02*
X116726000Y-95781000D01*
X115821000Y-96586000D02*
X115633000Y-96774000D01*
X116713000Y-92729352D02*
X116713000Y-91059000D01*
X117505000Y-96586000D02*
X116713000Y-95794000D01*
X117505000Y-96586000D02*
X115821000Y-96586000D01*
X116726000Y-92742352D02*
X116713000Y-92729352D01*
X116726000Y-95781000D02*
X116726000Y-92742352D01*
X121015000Y-89281000D02*
X122666000Y-87630000D01*
X116713000Y-91059000D02*
X118491000Y-89281000D01*
X118491000Y-89281000D02*
X121015000Y-89281000D01*
%TO.N,Net-(Q10-G)*%
X115951000Y-94805000D02*
X115823000Y-94805000D01*
X114173000Y-93155000D02*
X114173000Y-92075000D01*
X114935000Y-91313000D02*
X115630500Y-91313000D01*
X115823000Y-94805000D02*
X114173000Y-93155000D01*
X115630500Y-91313000D02*
X116060500Y-91743000D01*
X114173000Y-92075000D02*
X114935000Y-91313000D01*
%TO.N,Net-(Q10-D)*%
X111323000Y-92504500D02*
X111246500Y-92581000D01*
X111323000Y-90993000D02*
X113960500Y-90993000D01*
X111323000Y-90993000D02*
X111323000Y-92504500D01*
X113960500Y-90993000D02*
X114060500Y-91093000D01*
%TO.N,NBAL_3*%
X121180000Y-74202410D02*
X121180000Y-73174000D01*
X119891761Y-75150000D02*
X120232410Y-75150000D01*
X121180000Y-73174000D02*
X120976000Y-72970000D01*
X120232410Y-75150000D02*
X121180000Y-74202410D01*
X119443000Y-78041000D02*
X119380000Y-77978000D01*
X119443000Y-78994000D02*
X119443000Y-78041000D01*
X119165429Y-75876332D02*
X119891761Y-75150000D01*
X120976000Y-72970000D02*
X120105000Y-72970000D01*
%TO.N,NBAL_2*%
X120105000Y-72470000D02*
X121123904Y-72470000D01*
X122301000Y-73647096D02*
X120728838Y-75219258D01*
X121123904Y-72470000D02*
X122301000Y-73647096D01*
X118617999Y-81114710D02*
X117629000Y-82103709D01*
X120728838Y-75219258D02*
X120728838Y-75808633D01*
X117629000Y-82103709D02*
X117629000Y-83615000D01*
%TO.N,NBAL_1*%
X120105000Y-71470000D02*
X120912410Y-71470000D01*
X121847410Y-72405000D02*
X122936075Y-72405000D01*
X115888000Y-93155000D02*
X115189000Y-92456000D01*
X111125000Y-74930000D02*
X110998000Y-75057000D01*
X114554000Y-74930000D02*
X111125000Y-74930000D01*
X120912410Y-71470000D02*
X121847410Y-72405000D01*
X115951000Y-93155000D02*
X115888000Y-93155000D01*
%TO.N,Net-(D11-K)*%
X106985000Y-95758000D02*
X108223500Y-95758000D01*
%TO.N,Net-(D11-A)*%
X105410000Y-95758000D02*
X104140004Y-95758000D01*
X110109000Y-79883000D02*
X110109000Y-79213316D01*
X113308159Y-78006006D02*
X113308159Y-77131006D01*
X109596794Y-78701110D02*
X112613055Y-78701110D01*
X112613055Y-78701110D02*
X113308159Y-78006006D01*
X110109000Y-79213316D02*
X109596794Y-78701110D01*
%TO.N,Net-(U1-Vs-)*%
X146739047Y-88428547D02*
X146890500Y-88580000D01*
X145158725Y-88428547D02*
X146739047Y-88428547D01*
X143682783Y-88428547D02*
X143632783Y-88478547D01*
X145158725Y-88428547D02*
X143682783Y-88428547D01*
%TO.N,Net-(U3-VLCD)*%
X122030000Y-77601000D02*
X122030000Y-75895000D01*
X121920000Y-77711000D02*
X122030000Y-77601000D01*
%TO.N,Net-(D4-A)*%
X151894000Y-64330000D02*
X153175000Y-64330000D01*
%TO.N,Net-(D5-A)*%
X151894000Y-66220000D02*
X153175000Y-66220000D01*
%TO.N,Net-(D6-A)*%
X151894000Y-68220000D02*
X153175000Y-68220000D01*
%TO.N,Net-(Q5-G)*%
X111471794Y-79651110D02*
X114294890Y-79651110D01*
X114294890Y-79651110D02*
X114332000Y-79614000D01*
X111141294Y-79981610D02*
X111471794Y-79651110D01*
X111141294Y-81301110D02*
X111141294Y-79981610D01*
%TO.N,Net-(D12-K)*%
X106985000Y-97282000D02*
X108229500Y-97282000D01*
%TO.N,Net-(Q8-G)*%
X116332000Y-80264000D02*
X117539000Y-80264000D01*
X117793000Y-80518000D02*
X117793000Y-78994000D01*
X117539000Y-80264000D02*
X117793000Y-80518000D01*
%TO.N,Net-(Q9-G)*%
X117361222Y-86396222D02*
X117629000Y-86664000D01*
X117629000Y-86664000D02*
X117629000Y-85265000D01*
X116127417Y-86396222D02*
X117361222Y-86396222D01*
%TO.N,Net-(Q20-G)*%
X123572000Y-85598000D02*
X122190000Y-86980000D01*
X120666000Y-86980000D02*
X120666000Y-85818500D01*
X122190000Y-86980000D02*
X120666000Y-86980000D01*
X120666000Y-85818500D02*
X120191500Y-85344000D01*
%TO.N,Net-(D12-A)*%
X109416500Y-84512000D02*
X111891500Y-84512000D01*
X105410000Y-97282000D02*
X104267000Y-97282000D01*
X109416500Y-84016500D02*
X108966000Y-83566000D01*
X109416500Y-84512000D02*
X109416500Y-84016500D01*
X111891500Y-84512000D02*
X113091500Y-83312000D01*
%TO.N,Net-(D13-K)*%
X106985000Y-98806000D02*
X108225500Y-98806000D01*
%TO.N,Net-(D13-A)*%
X112548000Y-90043000D02*
X113123000Y-89468000D01*
X105410000Y-98806000D02*
X104267000Y-98806000D01*
X109448000Y-90043000D02*
X109448000Y-91302000D01*
X109448000Y-90043000D02*
X112548000Y-90043000D01*
X109448000Y-91302000D02*
X109586000Y-91440000D01*
X113123000Y-89468000D02*
X113123000Y-88593000D01*
%TO.N,Net-(U1-OUT)*%
X138555000Y-80012000D02*
X137541000Y-81026000D01*
X148765500Y-87630000D02*
X150241000Y-87630000D01*
X150473000Y-76835000D02*
X141161000Y-76835000D01*
X150600000Y-76708000D02*
X150473000Y-76835000D01*
X150241000Y-87630000D02*
X150749000Y-88138000D01*
X141351000Y-78486000D02*
X141160000Y-78486000D01*
X141161000Y-76835000D02*
X140335000Y-77661000D01*
X141160000Y-78486000D02*
X140335000Y-77661000D01*
X138811000Y-80012000D02*
X138555000Y-80012000D01*
%TO.N,/MCU/SWITCH*%
X133604000Y-69025000D02*
X133159000Y-69470000D01*
X151800000Y-73875000D02*
X150688946Y-73875000D01*
X133159000Y-69470000D02*
X131455000Y-69470000D01*
X131455000Y-69470000D02*
X129294157Y-69470000D01*
X126957239Y-70190602D02*
X126383318Y-69616681D01*
X150688946Y-73875000D02*
X150522946Y-74041000D01*
X129294157Y-69470000D02*
X128573555Y-70190602D01*
X157800000Y-73875000D02*
X151800000Y-73875000D01*
X128573555Y-70190602D02*
X126957239Y-70190602D01*
%TO.N,Net-(Q11-G)*%
X144002000Y-65166000D02*
X147558000Y-65166000D01*
X142620000Y-66548000D02*
X144002000Y-65166000D01*
X148923000Y-65166000D02*
X149098000Y-65341000D01*
X142049000Y-66548000D02*
X142620000Y-66548000D01*
X147558000Y-65166000D02*
X148923000Y-65166000D01*
%TO.N,Net-(Q11-D)*%
X149479000Y-64516000D02*
X145558000Y-64516000D01*
X147383000Y-66548000D02*
X149078648Y-66548000D01*
X149078648Y-66548000D02*
X149987000Y-65639648D01*
X149987000Y-65024000D02*
X149479000Y-64516000D01*
X149987000Y-65639648D02*
X149987000Y-65024000D01*
%TO.N,Net-(Q11-S)*%
X148923000Y-63866000D02*
X149098000Y-63691000D01*
X147558000Y-63866000D02*
X148923000Y-63866000D01*
X144002000Y-63866000D02*
X147558000Y-63866000D01*
%TO.N,Net-(Q12-D)*%
X139431000Y-76977000D02*
X139431000Y-80406000D01*
X142002000Y-64516000D02*
X141349000Y-65169000D01*
X139431000Y-80406000D02*
X139192000Y-80645000D01*
X137325000Y-82321000D02*
X139001000Y-80645000D01*
X130556000Y-83121000D02*
X131356000Y-82321000D01*
X141477000Y-68817000D02*
X139844000Y-68817000D01*
X140589000Y-76835000D02*
X139573000Y-76835000D01*
X139573000Y-76835000D02*
X139431000Y-76977000D01*
X142002000Y-69342000D02*
X141477000Y-68817000D01*
X140970000Y-72881000D02*
X139971000Y-72881000D01*
X139700000Y-73678352D02*
X140972000Y-74950352D01*
X140972000Y-74950352D02*
X140972000Y-76452000D01*
X139844000Y-68817000D02*
X139700000Y-68961000D01*
X139700000Y-73152000D02*
X139700000Y-73678352D01*
X139001000Y-80645000D02*
X139192000Y-80645000D01*
X141349000Y-65169000D02*
X141349000Y-68689000D01*
X139700000Y-69614352D02*
X140972000Y-70886352D01*
X139700000Y-68961000D02*
X139700000Y-69614352D01*
X140972000Y-72879000D02*
X140970000Y-72881000D01*
X139971000Y-72881000D02*
X139700000Y-73152000D01*
X140970000Y-72881000D02*
X141461000Y-72881000D01*
X140972000Y-70886352D02*
X140972000Y-72879000D01*
X141986000Y-73406000D02*
X141461000Y-72881000D01*
X140972000Y-76452000D02*
X140589000Y-76835000D01*
X131356000Y-82321000D02*
X137325000Y-82321000D01*
%TO.N,Net-(Q13-G)*%
X135382000Y-63945000D02*
X138367000Y-63945000D01*
X138367000Y-63945000D02*
X138446000Y-63866000D01*
%TO.N,Net-(Q14-D)*%
X149870387Y-70579648D02*
X149870387Y-69733387D01*
X149479000Y-69342000D02*
X145558000Y-69342000D01*
X149076035Y-71374000D02*
X149870387Y-70579648D01*
X147129000Y-71374000D02*
X149076035Y-71374000D01*
X149870387Y-69733387D02*
X149479000Y-69342000D01*
%TO.N,Net-(Q14-S)*%
X147558000Y-68692000D02*
X144002000Y-68692000D01*
X148920387Y-68692000D02*
X149095387Y-68517000D01*
X147558000Y-68692000D02*
X148920387Y-68692000D01*
%TO.N,Net-(Q16-G)*%
X135557000Y-68692000D02*
X135382000Y-68517000D01*
X138462000Y-68692000D02*
X135557000Y-68692000D01*
%TO.N,Net-(Q17-D)*%
X149872946Y-73818352D02*
X149460594Y-73406000D01*
X149585594Y-74931000D02*
X149872946Y-74643648D01*
X149872946Y-74643648D02*
X149872946Y-73818352D01*
X147636000Y-74931000D02*
X149585594Y-74931000D01*
X147129000Y-75438000D02*
X147636000Y-74931000D01*
X149460594Y-73406000D02*
X145526000Y-73406000D01*
%TO.N,Net-(Q17-S)*%
X143986000Y-72756000D02*
X147526000Y-72756000D01*
X147526000Y-72756000D02*
X148922946Y-72756000D01*
X148922946Y-72756000D02*
X149097946Y-72581000D01*
%TO.N,Net-(Q19-G)*%
X135811000Y-72756000D02*
X135382000Y-72327000D01*
X138446000Y-72756000D02*
X135811000Y-72756000D01*
%TO.N,CELL8V_ADC_EN*%
X129796417Y-71470000D02*
X129782796Y-71483621D01*
X135255000Y-71374000D02*
X135255000Y-70294000D01*
X135255000Y-70294000D02*
X135382000Y-70167000D01*
X131455000Y-71470000D02*
X129796417Y-71470000D01*
%TO.N,CELL4V_ADC_EN*%
X136271000Y-75184000D02*
X136271000Y-74866000D01*
X136271000Y-74866000D02*
X135382000Y-73977000D01*
X130214000Y-71970000D02*
X129413000Y-72771000D01*
X131455000Y-71970000D02*
X130214000Y-71970000D01*
%TO.N,Net-(U4-HVG)*%
X143001000Y-94678000D02*
X142303000Y-93980000D01*
X144780000Y-94678000D02*
X143001000Y-94678000D01*
%TO.N,Net-(U4-LVG)*%
X146050000Y-92138000D02*
X144780000Y-92138000D01*
X146558000Y-96394000D02*
X146558000Y-92646000D01*
X146558000Y-92646000D02*
X146050000Y-92138000D01*
X147129000Y-99060000D02*
X147129000Y-96965000D01*
X147129000Y-96965000D02*
X146558000Y-96394000D01*
%TO.N,Net-(R31-Pad2)*%
X138811000Y-78992000D02*
X138811000Y-78107000D01*
%TO.N,DRIVERS_EN*%
X121841500Y-85011500D02*
X121158000Y-84328000D01*
X128903448Y-68970000D02*
X128304316Y-69569132D01*
X131455000Y-68970000D02*
X128903448Y-68970000D01*
X121841500Y-85344000D02*
X121841500Y-85011500D01*
%TO.N,Net-(U6-LVG)*%
X124143000Y-93746552D02*
X125265448Y-94869000D01*
X125265448Y-94869000D02*
X125511000Y-94869000D01*
X124143000Y-89408000D02*
X124143000Y-93746552D01*
%TO.N,Net-(Q17-G)*%
X147526000Y-74056000D02*
X148922946Y-74056000D01*
X140446000Y-73406000D02*
X141922000Y-74882000D01*
X141922000Y-74882000D02*
X141922000Y-75438000D01*
X148922946Y-74056000D02*
X149097946Y-74231000D01*
X143986000Y-74056000D02*
X147526000Y-74056000D01*
X142604000Y-75438000D02*
X143986000Y-74056000D01*
X141922000Y-75438000D02*
X142604000Y-75438000D01*
%TO.N,Net-(Q14-G)*%
X144002000Y-69992000D02*
X147558000Y-69992000D01*
X147558000Y-69992000D02*
X148920387Y-69992000D01*
X141922000Y-70802000D02*
X140462000Y-69342000D01*
X141922000Y-71374000D02*
X141922000Y-70802000D01*
X148920387Y-69992000D02*
X149095387Y-70167000D01*
X141922000Y-71374000D02*
X142620000Y-71374000D01*
X142620000Y-71374000D02*
X144002000Y-69992000D01*
%TO.N,Net-(U6-HVG)*%
X125511000Y-92329000D02*
X125794000Y-92329000D01*
X125794000Y-92329000D02*
X127445000Y-93980000D01*
%TO.N,Net-(U6-VBOOT)*%
X125494352Y-86995000D02*
X126098000Y-86995000D01*
X125093000Y-90641000D02*
X125093000Y-87396352D01*
X126098000Y-86995000D02*
X128003000Y-88900000D01*
X125093000Y-87396352D02*
X125494352Y-86995000D01*
X125511000Y-91059000D02*
X125093000Y-90641000D01*
%TO.N,Net-(Q6-G)*%
X111215000Y-85538500D02*
X111291500Y-85462000D01*
X111215000Y-87212000D02*
X111215000Y-85538500D01*
X114127417Y-85746222D02*
X111575722Y-85746222D01*
X111575722Y-85746222D02*
X111291500Y-85462000D01*
%TO.N,GND*%
X134588973Y-67300527D02*
X134514500Y-67375000D01*
X134514500Y-67375000D02*
X133600000Y-67375000D01*
X133195000Y-66970000D02*
X133600000Y-67375000D01*
X134207000Y-67682500D02*
X134588973Y-67300527D01*
X134207000Y-69818000D02*
X134207000Y-67682500D01*
X133350000Y-70675000D02*
X134207000Y-69818000D01*
%TO.N,VDD*%
X134894352Y-67817000D02*
X134607000Y-68104352D01*
X135637000Y-67817000D02*
X134894352Y-67817000D01*
X134607000Y-68104352D02*
X134607000Y-73253000D01*
X135890000Y-67564000D02*
X135637000Y-67817000D01*
%TO.N,GND*%
X131455000Y-66970000D02*
X133195000Y-66970000D01*
%TO.N,VDD*%
X134151000Y-65825000D02*
X135890000Y-67564000D01*
X133600000Y-65825000D02*
X134151000Y-65825000D01*
%TD*%
%TA.AperFunction,Conductor*%
%TO.N,/BuckBoost/VS_B*%
G36*
X139643039Y-90951685D02*
G01*
X139688794Y-91004489D01*
X139700000Y-91056000D01*
X139700000Y-95885000D01*
X141016992Y-95885000D01*
X141067926Y-95899956D01*
X141069382Y-95896770D01*
X141077449Y-95900454D01*
X141215536Y-95940999D01*
X141215538Y-95941000D01*
X141354000Y-95941000D01*
X141421039Y-95960685D01*
X141466794Y-96013489D01*
X141478000Y-96065000D01*
X141478000Y-99952000D01*
X141458315Y-100019039D01*
X141405511Y-100064794D01*
X141354000Y-100076000D01*
X135252000Y-100076000D01*
X135184961Y-100056315D01*
X135139206Y-100003511D01*
X135128000Y-99952000D01*
X135128000Y-91056000D01*
X135147685Y-90988961D01*
X135200489Y-90943206D01*
X135252000Y-90932000D01*
X139576000Y-90932000D01*
X139643039Y-90951685D01*
G37*
%TD.AperFunction*%
%TD*%
%TA.AperFunction,Conductor*%
%TO.N,/BuckBoost/VS_B*%
G36*
X139643039Y-90951685D02*
G01*
X139688794Y-91004489D01*
X139700000Y-91056000D01*
X139700000Y-95885000D01*
X141016992Y-95885000D01*
X141067926Y-95899956D01*
X141069382Y-95896770D01*
X141077449Y-95900454D01*
X141215536Y-95940999D01*
X141215538Y-95941000D01*
X141354000Y-95941000D01*
X141421039Y-95960685D01*
X141466794Y-96013489D01*
X141478000Y-96065000D01*
X141478000Y-99952000D01*
X141458315Y-100019039D01*
X141405511Y-100064794D01*
X141354000Y-100076000D01*
X135252000Y-100076000D01*
X135184961Y-100056315D01*
X135139206Y-100003511D01*
X135128000Y-99952000D01*
X135128000Y-91056000D01*
X135147685Y-90988961D01*
X135200489Y-90943206D01*
X135252000Y-90932000D01*
X139576000Y-90932000D01*
X139643039Y-90951685D01*
G37*
%TD.AperFunction*%
%TD*%
%TA.AperFunction,Conductor*%
%TO.N,/BuckBoost/VS_A*%
G36*
X131134039Y-88157685D02*
G01*
X131179794Y-88210489D01*
X131191000Y-88262000D01*
X131191000Y-90932000D01*
X134623000Y-90932000D01*
X134690039Y-90951685D01*
X134735794Y-91004489D01*
X134747000Y-91056000D01*
X134747000Y-99952000D01*
X134727315Y-100019039D01*
X134674511Y-100064794D01*
X134623000Y-100076000D01*
X130807000Y-100076000D01*
X130739961Y-100056315D01*
X130694206Y-100003511D01*
X130683000Y-99952000D01*
X130683000Y-93218000D01*
X128902000Y-93218000D01*
X128834961Y-93198315D01*
X128789206Y-93145511D01*
X128778000Y-93094000D01*
X128778000Y-88262000D01*
X128797685Y-88194961D01*
X128850489Y-88149206D01*
X128902000Y-88138000D01*
X131067000Y-88138000D01*
X131134039Y-88157685D01*
G37*
%TD.AperFunction*%
%TD*%
%TA.AperFunction,Conductor*%
%TO.N,VSOLAR*%
G36*
X144253039Y-89208685D02*
G01*
X144298794Y-89261489D01*
X144310000Y-89313000D01*
X144310000Y-91513500D01*
X144290315Y-91580539D01*
X144237511Y-91626294D01*
X144186000Y-91637500D01*
X144021739Y-91637500D01*
X143953608Y-91647426D01*
X143848514Y-91698803D01*
X143765803Y-91781514D01*
X143714426Y-91886608D01*
X143704500Y-91954739D01*
X143704500Y-92078000D01*
X143684815Y-92145039D01*
X143632011Y-92190794D01*
X143580500Y-92202000D01*
X143118633Y-92202000D01*
X143086541Y-92197775D01*
X143015913Y-92178850D01*
X143015911Y-92178850D01*
X141602000Y-92178850D01*
X141534961Y-92159165D01*
X141489206Y-92106361D01*
X141478000Y-92054850D01*
X141478000Y-90971371D01*
X141490599Y-90916911D01*
X141532724Y-90830743D01*
X141542651Y-90762610D01*
X141542651Y-90396090D01*
X141532724Y-90327957D01*
X141490599Y-90241788D01*
X141478000Y-90187328D01*
X141478000Y-89313000D01*
X141497685Y-89245961D01*
X141550489Y-89200206D01*
X141602000Y-89189000D01*
X144186000Y-89189000D01*
X144253039Y-89208685D01*
G37*
%TD.AperFunction*%
%TD*%
%TA.AperFunction,Conductor*%
%TO.N,+BATT*%
G36*
X128143039Y-95819685D02*
G01*
X128188794Y-95872489D01*
X128200000Y-95924000D01*
X128200000Y-99676000D01*
X128180315Y-99743039D01*
X128127511Y-99788794D01*
X128076000Y-99800000D01*
X124724000Y-99800000D01*
X124656961Y-99780315D01*
X124611206Y-99727511D01*
X124600000Y-99676000D01*
X124600000Y-95924000D01*
X124619685Y-95856961D01*
X124672489Y-95811206D01*
X124724000Y-95800000D01*
X128076000Y-95800000D01*
X128143039Y-95819685D01*
G37*
%TD.AperFunction*%
%TD*%
M02*
