M48
; DRILL file {KiCad 8.0.3} date 2024-07-07T18:19:15-0700
; FORMAT={-:-/ absolute / inch / decimal}
; #@! TF.CreationDate,2024-07-07T18:19:15-07:00
; #@! TF.GenerationSoftware,Kicad,Pcbnew,8.0.3
; #@! TF.FileFunction,Plated,1,4,PTH
FMAT,2
INCH
; #@! TA.AperFunction,Plated,PTH,ViaDrill
T1C0.0118
; #@! TA.AperFunction,Plated,PTH,ComponentDrill
T2C0.0374
; #@! TA.AperFunction,Plated,PTH,ComponentDrill
T3C0.0394
; #@! TA.AperFunction,Plated,PTH,ComponentDrill
T4C0.0630
; #@! TA.AperFunction,Plated,PTH,ComponentDrill
T5C0.0748
%
G90
G05
T1
X3.835Y-2.545
X4.07Y-3.915
X4.0817Y-3.8605
X4.095Y-3.725
X4.1Y-3.77
X4.105Y-3.83
X4.105Y-3.89
X4.11Y-2.595
X4.1235Y-2.655
X4.16Y-2.775
X4.175Y-2.51
X4.18Y-3.74
X4.25Y-3.275
X4.29Y-3.145
X4.29Y-3.29
X4.295Y-2.635
X4.3144Y-3.6
X4.3288Y-2.6617
X4.335Y-3.145
X4.34Y-3.77
X4.34Y-3.83
X4.34Y-3.89
X4.3447Y-3.4042
X4.35Y-3.47
X4.3503Y-3.617
X4.37Y-2.955
X4.38Y-3.77
X4.38Y-3.835
X4.39Y-2.925
X4.425Y-3.665
X4.44Y-3.625
X4.465Y-3.705
X4.4991Y-2.5144
X4.51Y-2.95
X4.51Y-2.985
X4.5188Y-3.2969
X4.52Y-3.495
X4.5241Y-3.2603
X4.535Y-2.715
X4.535Y-3.565
X4.535Y-3.64
X4.545Y-3.375
X4.5509Y-3.1329
X4.5802Y-2.7802
X4.595Y-2.53
X4.62Y-3.605
X4.6317Y-3.0438
X4.64Y-2.645
X4.642Y-3.012
X4.645Y-3.63
X4.655Y-2.805
X4.659Y-3.0752
X4.67Y-3.1935
X4.675Y-3.455
X4.675Y-3.585
X4.68Y-3.545
X4.69Y-3.775
X4.6916Y-2.9873
X4.6995Y-2.9436
X4.7Y-3.07
X4.705Y-3.475
X4.7232Y-2.9966
X4.735Y-3.195
X4.7531Y-2.9846
X4.755Y-2.54
X4.755Y-3.0394
X4.76Y-3.795
X4.76Y-3.84
X4.77Y-3.32
X4.785Y-2.6425
X4.785Y-3.19
X4.7906Y-2.7276
X4.7975Y-2.6832
X4.81Y-2.7944
X4.82Y-3.19
X4.82Y-3.31
X4.825Y-3.155
X4.8307Y-2.7191
X4.84Y-2.89
X4.84Y-3.25
X4.84Y-2.8506
X4.8437Y-2.5913
X4.855Y-2.645
X4.8581Y-3.0869
X4.8603Y-2.7685
X4.8826Y-2.5956
X4.89Y-3.415
X4.8941Y-2.64
X4.9001Y-2.7727
X4.925Y-2.88
X4.925Y-2.94
X4.9253Y-2.8219
X4.9291Y-3.8346
X4.9291Y-3.8898
X4.94Y-3.12
X4.96Y-2.82
X4.96Y-2.88
X4.96Y-3.29
X4.97Y-3.37
X4.9735Y-3.1208
X4.9757Y-2.7408
X4.9764Y-3.8661
X5.005Y-3.14
X5.005Y-3.37
X5.0135Y-2.7075
X5.0236Y-3.8346
X5.0236Y-3.8898
X5.0241Y-2.6615
X5.035Y-3.605
X5.045Y-2.87
X5.045Y-3.25
X5.05Y-3.18
X5.0514Y-2.7389
X5.07Y-2.83
X5.0734Y-2.6513
X5.095Y-2.865
X5.1096Y-2.8143
X5.1181Y-3.5433
X5.1214Y-2.6453
X5.1257Y-2.7665
X5.145Y-3.075
X5.15Y-3.11
X5.165Y-3.17
X5.1969Y-3.622
X5.1969Y-3.8583
X5.235Y-3.275
X5.2362Y-3.8189
X5.2362Y-3.8976
X5.24Y-2.52
X5.265Y-2.955
X5.27Y-3.06
X5.27Y-3.105
X5.2756Y-3.622
X5.2756Y-3.7008
X5.2756Y-3.7795
X5.2756Y-3.8583
X5.285Y-2.995
X5.295Y-3.19
X5.2988Y-2.6496
X5.325Y-2.81
X5.3543Y-3.622
X5.3543Y-3.7008
X5.3543Y-3.7795
X5.3543Y-3.8583
X5.365Y-2.96
X5.365Y-3.015
X5.39Y-2.8
X5.3937Y-3.8189
X5.3937Y-3.8976
X5.405Y-3.005
X5.41Y-2.965
X5.415Y-3.155
X5.415Y-3.19
X5.4331Y-3.8583
X5.45Y-2.805
X5.45Y-2.97
X5.4724Y-3.622
X5.4724Y-3.8189
X5.4724Y-3.8976
X5.48Y-3.56
X5.4821Y-2.5783
X5.4944Y-2.4928
X5.505Y-2.685
X5.5118Y-3.8583
X5.525Y-3.165
X5.5275Y-2.6575
X5.53Y-3.6
X5.54Y-2.4931
X5.5625Y-3.7575
X5.565Y-3.09
X5.567Y-3.7
X5.57Y-3.055
X5.5984Y-3.5591
X5.63Y-2.695
X5.63Y-2.855
X5.635Y-3.0
X5.64Y-3.695
X5.645Y-3.87
X5.6535Y-3.5354
X5.655Y-3.115
X5.66Y-2.66
X5.6614Y-3.5906
X5.665Y-2.815
X5.67Y-2.98
X5.75Y-3.115
X5.8Y-3.71
X5.82Y-3.79
X5.825Y-3.635
X5.83Y-3.745
X5.84Y-3.685
X5.88Y-3.25
X5.92Y-3.51
X5.925Y-2.645
X5.925Y-2.955
X5.9261Y-2.915
X5.9291Y-3.02
X5.9291Y-3.063
X5.935Y-3.47
X5.945Y-2.57
X5.9606Y-2.9843
X5.97Y-2.645
X5.98Y-2.57
X6.02Y-3.6195
X6.05Y-3.685
X6.09Y-3.685
X6.14Y-2.605
X6.14Y-2.685
X6.1423Y-2.5356
X6.195Y-2.495
T2
X3.9087Y-3.0402
X3.9087Y-3.1386
X3.9087Y-3.237
X3.9087Y-3.3354
T3
X6.4252Y-3.0157
X6.4252Y-3.4488
T4
X4.09Y-2.89
X4.11Y-3.42
X5.24Y-3.467
X5.4Y-3.467
T5
X6.0315Y-3.1339
X6.0315Y-3.3307
M30
