%TF.GenerationSoftware,KiCad,Pcbnew,8.0.2-8.0.2-0~ubuntu22.04.1*%
%TF.CreationDate,2024-05-15T13:15:59-07:00*%
%TF.ProjectId,JPBms2,4a50426d-7332-42e6-9b69-6361645f7063,rev?*%
%TF.SameCoordinates,Original*%
%TF.FileFunction,Soldermask,Top*%
%TF.FilePolarity,Negative*%
%FSLAX46Y46*%
G04 Gerber Fmt 4.6, Leading zero omitted, Abs format (unit mm)*
G04 Created by KiCad (PCBNEW 8.0.2-8.0.2-0~ubuntu22.04.1) date 2024-05-15 13:15:59*
%MOMM*%
%LPD*%
G01*
G04 APERTURE LIST*
G04 Aperture macros list*
%AMRoundRect*
0 Rectangle with rounded corners*
0 $1 Rounding radius*
0 $2 $3 $4 $5 $6 $7 $8 $9 X,Y pos of 4 corners*
0 Add a 4 corners polygon primitive as box body*
4,1,4,$2,$3,$4,$5,$6,$7,$8,$9,$2,$3,0*
0 Add four circle primitives for the rounded corners*
1,1,$1+$1,$2,$3*
1,1,$1+$1,$4,$5*
1,1,$1+$1,$6,$7*
1,1,$1+$1,$8,$9*
0 Add four rect primitives between the rounded corners*
20,1,$1+$1,$2,$3,$4,$5,0*
20,1,$1+$1,$4,$5,$6,$7,0*
20,1,$1+$1,$6,$7,$8,$9,0*
20,1,$1+$1,$8,$9,$2,$3,0*%
G04 Aperture macros list end*
%ADD10RoundRect,0.218750X0.218750X0.256250X-0.218750X0.256250X-0.218750X-0.256250X0.218750X-0.256250X0*%
%ADD11RoundRect,0.076000X-0.874000X-1.674000X0.874000X-1.674000X0.874000X1.674000X-0.874000X1.674000X0*%
%ADD12RoundRect,0.135000X0.185000X-0.135000X0.185000X0.135000X-0.185000X0.135000X-0.185000X-0.135000X0*%
%ADD13RoundRect,0.225000X0.250000X-0.225000X0.250000X0.225000X-0.250000X0.225000X-0.250000X-0.225000X0*%
%ADD14RoundRect,0.112500X-0.112500X-0.237500X0.112500X-0.237500X0.112500X0.237500X-0.112500X0.237500X0*%
%ADD15RoundRect,0.150000X-0.150000X0.587500X-0.150000X-0.587500X0.150000X-0.587500X0.150000X0.587500X0*%
%ADD16RoundRect,0.200000X-0.200000X-0.275000X0.200000X-0.275000X0.200000X0.275000X-0.200000X0.275000X0*%
%ADD17RoundRect,0.225000X0.225000X0.250000X-0.225000X0.250000X-0.225000X-0.250000X0.225000X-0.250000X0*%
%ADD18RoundRect,0.250000X-0.375000X-0.625000X0.375000X-0.625000X0.375000X0.625000X-0.375000X0.625000X0*%
%ADD19RoundRect,0.250000X0.650000X-0.325000X0.650000X0.325000X-0.650000X0.325000X-0.650000X-0.325000X0*%
%ADD20RoundRect,0.135000X-0.185000X0.135000X-0.185000X-0.135000X0.185000X-0.135000X0.185000X0.135000X0*%
%ADD21C,2.374900*%
%ADD22C,0.990600*%
%ADD23C,0.787400*%
%ADD24RoundRect,0.250000X-0.725000X0.600000X-0.725000X-0.600000X0.725000X-0.600000X0.725000X0.600000X0*%
%ADD25O,1.950000X1.700000*%
%ADD26RoundRect,0.225000X-0.250000X0.225000X-0.250000X-0.225000X0.250000X-0.225000X0.250000X0.225000X0*%
%ADD27RoundRect,0.200000X-0.275000X0.200000X-0.275000X-0.200000X0.275000X-0.200000X0.275000X0.200000X0*%
%ADD28RoundRect,0.112500X0.237500X-0.112500X0.237500X0.112500X-0.237500X0.112500X-0.237500X-0.112500X0*%
%ADD29C,3.200000*%
%ADD30RoundRect,0.250000X-0.312500X-0.625000X0.312500X-0.625000X0.312500X0.625000X-0.312500X0.625000X0*%
%ADD31RoundRect,0.200000X0.200000X0.275000X-0.200000X0.275000X-0.200000X-0.275000X0.200000X-0.275000X0*%
%ADD32RoundRect,0.150000X-0.150000X0.512500X-0.150000X-0.512500X0.150000X-0.512500X0.150000X0.512500X0*%
%ADD33C,3.000000*%
%ADD34RoundRect,0.250000X-0.650000X0.325000X-0.650000X-0.325000X0.650000X-0.325000X0.650000X0.325000X0*%
%ADD35RoundRect,0.112500X-0.187500X-0.112500X0.187500X-0.112500X0.187500X0.112500X-0.187500X0.112500X0*%
%ADD36RoundRect,0.150000X0.587500X0.150000X-0.587500X0.150000X-0.587500X-0.150000X0.587500X-0.150000X0*%
%ADD37RoundRect,0.200000X-0.200000X-0.450000X0.200000X-0.450000X0.200000X0.450000X-0.200000X0.450000X0*%
%ADD38RoundRect,0.250001X-0.799999X-1.249999X0.799999X-1.249999X0.799999X1.249999X-0.799999X1.249999X0*%
%ADD39R,3.500000X3.500000*%
%ADD40RoundRect,0.750000X0.750000X1.000000X-0.750000X1.000000X-0.750000X-1.000000X0.750000X-1.000000X0*%
%ADD41RoundRect,0.875000X0.875000X0.875000X-0.875000X0.875000X-0.875000X-0.875000X0.875000X-0.875000X0*%
%ADD42RoundRect,0.150000X-0.825000X-0.150000X0.825000X-0.150000X0.825000X0.150000X-0.825000X0.150000X0*%
%ADD43RoundRect,0.150000X-0.587500X-0.150000X0.587500X-0.150000X0.587500X0.150000X-0.587500X0.150000X0*%
%ADD44RoundRect,0.075000X0.075000X-0.700000X0.075000X0.700000X-0.075000X0.700000X-0.075000X-0.700000X0*%
%ADD45RoundRect,0.075000X0.700000X-0.075000X0.700000X0.075000X-0.700000X0.075000X-0.700000X-0.075000X0*%
G04 APERTURE END LIST*
D10*
%TO.C,D4*%
X154750000Y-64330000D03*
X153175000Y-64330000D03*
%TD*%
D11*
%TO.C,L1*%
X129755000Y-94220000D03*
X135255000Y-94220000D03*
%TD*%
D12*
%TO.C,R9*%
X134200000Y-84200000D03*
X134200000Y-83180000D03*
%TD*%
D13*
%TO.C,C19*%
X127800000Y-86575000D03*
X127800000Y-85025000D03*
%TD*%
D14*
%TO.C,D2*%
X129150000Y-80000000D03*
X130450000Y-80000000D03*
X129800000Y-78000000D03*
%TD*%
D15*
%TO.C,U1*%
X151498500Y-87082500D03*
X149598500Y-87082500D03*
X150548500Y-88957500D03*
%TD*%
D16*
%TO.C,R19*%
X109775000Y-94400000D03*
X111425000Y-94400000D03*
%TD*%
D17*
%TO.C,C15*%
X121975000Y-83200000D03*
X120425000Y-83200000D03*
%TD*%
D18*
%TO.C,F2*%
X103480000Y-82220000D03*
X106280000Y-82220000D03*
%TD*%
D10*
%TO.C,D6*%
X154750000Y-68220000D03*
X153175000Y-68220000D03*
%TD*%
D19*
%TO.C,C4*%
X107500000Y-72725000D03*
X107500000Y-69775000D03*
%TD*%
D16*
%TO.C,R15*%
X121350000Y-91000000D03*
X123000000Y-91000000D03*
%TD*%
D20*
%TO.C,R31*%
X138800000Y-70890000D03*
X138800000Y-71910000D03*
%TD*%
D17*
%TO.C,C1*%
X151211500Y-85128000D03*
X149661500Y-85128000D03*
%TD*%
D21*
%TO.C,J2*%
X102550000Y-69625000D03*
D22*
X102550000Y-67085000D03*
D21*
X102550000Y-64545000D03*
X99375000Y-69625000D03*
X99375000Y-64545000D03*
D22*
X97470000Y-68101000D03*
X97470000Y-66069000D03*
D23*
X101280000Y-66450000D03*
X101280000Y-67720000D03*
X100010000Y-66450000D03*
X100010000Y-67720000D03*
X98740000Y-66450000D03*
X98740000Y-67720000D03*
%TD*%
D24*
%TO.C,BAL1*%
X99280000Y-77220000D03*
D25*
X99280000Y-79720000D03*
X99280000Y-82220000D03*
X99280000Y-84720000D03*
%TD*%
D26*
%TO.C,C12*%
X133400000Y-72425000D03*
X133400000Y-73975000D03*
%TD*%
D27*
%TO.C,R22*%
X117729000Y-91590000D03*
X117729000Y-93240000D03*
%TD*%
D28*
%TO.C,Q10*%
X115875000Y-80950000D03*
X115875000Y-79650000D03*
X113875000Y-80300000D03*
%TD*%
D29*
%TO.C,H3*%
X161000000Y-97000000D03*
%TD*%
D30*
%TO.C,R28*%
X112937500Y-85000000D03*
X115862500Y-85000000D03*
%TD*%
D31*
%TO.C,R18*%
X144500000Y-97000000D03*
X142850000Y-97000000D03*
%TD*%
D29*
%TO.C,H2*%
X100000000Y-97000000D03*
%TD*%
D20*
%TO.C,R33*%
X143000000Y-70890000D03*
X143000000Y-71910000D03*
%TD*%
D16*
%TO.C,R12*%
X149675000Y-64330000D03*
X151325000Y-64330000D03*
%TD*%
D12*
%TO.C,R4*%
X129400000Y-84200000D03*
X129400000Y-83180000D03*
%TD*%
D32*
%TO.C,U2*%
X111592500Y-70132500D03*
X110642500Y-70132500D03*
X109692500Y-70132500D03*
X109692500Y-72407500D03*
X111592500Y-72407500D03*
%TD*%
D33*
%TO.C,TP2*%
X104200000Y-88000000D03*
%TD*%
D26*
%TO.C,C10*%
X133600000Y-65825000D03*
X133600000Y-67375000D03*
%TD*%
D34*
%TO.C,C3*%
X153500000Y-85025000D03*
X153500000Y-87975000D03*
%TD*%
D19*
%TO.C,C8*%
X116336748Y-74689253D03*
X116336748Y-71739253D03*
%TD*%
D33*
%TO.C,TP6*%
X134600000Y-88000000D03*
%TD*%
D12*
%TO.C,R8*%
X133200000Y-84200000D03*
X133200000Y-83180000D03*
%TD*%
D27*
%TO.C,R26*%
X117475000Y-88352000D03*
X117475000Y-90002000D03*
%TD*%
D14*
%TO.C,D3*%
X131950000Y-79978000D03*
X133250000Y-79978000D03*
X132600000Y-77978000D03*
%TD*%
D35*
%TO.C,D9*%
X124550000Y-83000000D03*
X126650000Y-83000000D03*
%TD*%
D36*
%TO.C,Q7*%
X111137500Y-80200000D03*
X111137500Y-78300000D03*
X109262500Y-79250000D03*
%TD*%
D26*
%TO.C,C13*%
X120650000Y-76441000D03*
X120650000Y-77991000D03*
%TD*%
D20*
%TO.C,R6*%
X130400000Y-81290000D03*
X130400000Y-82310000D03*
%TD*%
D30*
%TO.C,R29*%
X112937500Y-90200000D03*
X115862500Y-90200000D03*
%TD*%
D37*
%TO.C,UART1*%
X138557000Y-64262000D03*
X139807000Y-64262000D03*
X141057000Y-64262000D03*
X142307000Y-64262000D03*
D38*
X136007000Y-67012000D03*
X144857000Y-67012000D03*
%TD*%
D13*
%TO.C,C17*%
X141600000Y-72175000D03*
X141600000Y-70625000D03*
%TD*%
D10*
%TO.C,D5*%
X154750000Y-66220000D03*
X153175000Y-66220000D03*
%TD*%
D28*
%TO.C,Q8*%
X116062500Y-93360000D03*
X116062500Y-92060000D03*
X114062500Y-92710000D03*
%TD*%
D13*
%TO.C,C11*%
X118280000Y-74435000D03*
X118280000Y-72885000D03*
%TD*%
%TO.C,C7*%
X132000000Y-83175000D03*
X132000000Y-81625000D03*
%TD*%
D27*
%TO.C,R27*%
X117625000Y-79725000D03*
X117625000Y-81375000D03*
%TD*%
D28*
%TO.C,Q9*%
X115973417Y-88084222D03*
X115973417Y-86784222D03*
X113973417Y-87434222D03*
%TD*%
D14*
%TO.C,D1*%
X134732000Y-79994000D03*
X136032000Y-79994000D03*
X135382000Y-77994000D03*
%TD*%
D20*
%TO.C,R32*%
X139800000Y-70890000D03*
X139800000Y-71910000D03*
%TD*%
D28*
%TO.C,D8*%
X137523000Y-74679000D03*
X137523000Y-73379000D03*
X135523000Y-74029000D03*
%TD*%
D33*
%TO.C,TP3*%
X151750000Y-92720000D03*
%TD*%
%TO.C,TP1*%
X104200000Y-73800000D03*
%TD*%
%TO.C,TP4*%
X111000000Y-65024000D03*
%TD*%
D29*
%TO.C,H1*%
X161000000Y-66000000D03*
%TD*%
D26*
%TO.C,C14*%
X124400000Y-77825000D03*
X124400000Y-79375000D03*
%TD*%
D27*
%TO.C,R1*%
X137600000Y-78175000D03*
X137600000Y-79825000D03*
%TD*%
D19*
%TO.C,C5*%
X113750000Y-72725000D03*
X113750000Y-69775000D03*
%TD*%
D12*
%TO.C,R35*%
X139804089Y-74823670D03*
X139804089Y-73803670D03*
%TD*%
D27*
%TO.C,R2*%
X148048500Y-84520000D03*
X148048500Y-86170000D03*
%TD*%
D17*
%TO.C,C16*%
X139750000Y-83250000D03*
X138200000Y-83250000D03*
%TD*%
D16*
%TO.C,R16*%
X121350000Y-95000000D03*
X123000000Y-95000000D03*
%TD*%
D33*
%TO.C,TP5*%
X130600000Y-88000000D03*
%TD*%
D30*
%TO.C,R30*%
X112937500Y-77800000D03*
X115862500Y-77800000D03*
%TD*%
%TO.C,R3*%
X149159500Y-81915000D03*
X152084500Y-81915000D03*
%TD*%
D13*
%TO.C,C6*%
X128200000Y-83175000D03*
X128200000Y-81625000D03*
%TD*%
D27*
%TO.C,R25*%
X117729000Y-94575000D03*
X117729000Y-96225000D03*
%TD*%
D16*
%TO.C,R21*%
X109775000Y-81788000D03*
X111425000Y-81788000D03*
%TD*%
D13*
%TO.C,C20*%
X145600000Y-86175000D03*
X145600000Y-84625000D03*
%TD*%
D28*
%TO.C,D7*%
X137539000Y-72027000D03*
X137539000Y-70727000D03*
X135539000Y-71377000D03*
%TD*%
D13*
%TO.C,C18*%
X141600000Y-75175000D03*
X141600000Y-73625000D03*
%TD*%
D39*
%TO.C,J1*%
X156250000Y-81920000D03*
D40*
X162250000Y-81920000D03*
D41*
X159250000Y-77220000D03*
%TD*%
D42*
%TO.C,U4*%
X120525000Y-84815000D03*
X120525000Y-86085000D03*
X120525000Y-87355000D03*
X120525000Y-88625000D03*
X125475000Y-88625000D03*
X125475000Y-87355000D03*
X125475000Y-86085000D03*
X125475000Y-84815000D03*
%TD*%
D19*
%TO.C,C2*%
X153500000Y-78975000D03*
X153500000Y-76025000D03*
%TD*%
D18*
%TO.C,F1*%
X103480000Y-79720000D03*
X106280000Y-79720000D03*
%TD*%
D26*
%TO.C,C21*%
X119800000Y-63650000D03*
X119800000Y-65200000D03*
%TD*%
D16*
%TO.C,R20*%
X109775000Y-89000000D03*
X111425000Y-89000000D03*
%TD*%
D12*
%TO.C,R5*%
X130406216Y-84202550D03*
X130406216Y-83182550D03*
%TD*%
D20*
%TO.C,R10*%
X133200000Y-81290000D03*
X133200000Y-82310000D03*
%TD*%
D16*
%TO.C,R14*%
X149675000Y-68220000D03*
X151325000Y-68220000D03*
%TD*%
D36*
%TO.C,Q4*%
X139800000Y-97350000D03*
X139800000Y-95450000D03*
X137925000Y-96400000D03*
%TD*%
D17*
%TO.C,C9*%
X127521000Y-78000000D03*
X125971000Y-78000000D03*
%TD*%
D36*
%TO.C,Q1*%
X127000000Y-93150000D03*
X127000000Y-91250000D03*
X125125000Y-92200000D03*
%TD*%
D12*
%TO.C,R36*%
X138800000Y-74820000D03*
X138800000Y-73800000D03*
%TD*%
D36*
%TO.C,Q5*%
X111137500Y-92750000D03*
X111137500Y-90850000D03*
X109262500Y-91800000D03*
%TD*%
D43*
%TO.C,Q3*%
X125217500Y-95450000D03*
X125217500Y-97350000D03*
X127092500Y-96400000D03*
%TD*%
D35*
%TO.C,D10*%
X142100000Y-83000000D03*
X144200000Y-83000000D03*
%TD*%
D27*
%TO.C,R24*%
X117625000Y-76550000D03*
X117625000Y-78200000D03*
%TD*%
D36*
%TO.C,Q6*%
X111137500Y-87150000D03*
X111137500Y-85250000D03*
X109262500Y-86200000D03*
%TD*%
D27*
%TO.C,R23*%
X117475000Y-85303000D03*
X117475000Y-86953000D03*
%TD*%
D18*
%TO.C,F3*%
X103480000Y-84720000D03*
X106280000Y-84720000D03*
%TD*%
D42*
%TO.C,U5*%
X138655000Y-84815000D03*
X138655000Y-86085000D03*
X138655000Y-87355000D03*
X138655000Y-88625000D03*
X143605000Y-88625000D03*
X143605000Y-87355000D03*
X143605000Y-86085000D03*
X143605000Y-84815000D03*
%TD*%
D20*
%TO.C,R7*%
X129402725Y-81308650D03*
X129402725Y-82328650D03*
%TD*%
%TO.C,R11*%
X134194447Y-81292464D03*
X134194447Y-82312464D03*
%TD*%
%TO.C,R34*%
X144000000Y-70890000D03*
X144000000Y-71910000D03*
%TD*%
D44*
%TO.C,U3*%
X122030000Y-75895000D03*
X122530000Y-75895000D03*
X123030000Y-75895000D03*
X123530000Y-75895000D03*
X124030000Y-75895000D03*
X124530000Y-75895000D03*
X125030000Y-75895000D03*
X125530000Y-75895000D03*
X126030000Y-75895000D03*
X126530000Y-75895000D03*
X127030000Y-75895000D03*
X127530000Y-75895000D03*
X128030000Y-75895000D03*
X128530000Y-75895000D03*
X129030000Y-75895000D03*
X129530000Y-75895000D03*
D45*
X131455000Y-73970000D03*
X131455000Y-73470000D03*
X131455000Y-72970000D03*
X131455000Y-72470000D03*
X131455000Y-71970000D03*
X131455000Y-71470000D03*
X131455000Y-70970000D03*
X131455000Y-70470000D03*
X131455000Y-69970000D03*
X131455000Y-69470000D03*
X131455000Y-68970000D03*
X131455000Y-68470000D03*
X131455000Y-67970000D03*
X131455000Y-67470000D03*
X131455000Y-66970000D03*
X131455000Y-66470000D03*
D44*
X129530000Y-64545000D03*
X129030000Y-64545000D03*
X128530000Y-64545000D03*
X128030000Y-64545000D03*
X127530000Y-64545000D03*
X127030000Y-64545000D03*
X126530000Y-64545000D03*
X126030000Y-64545000D03*
X125530000Y-64545000D03*
X125030000Y-64545000D03*
X124530000Y-64545000D03*
X124030000Y-64545000D03*
X123530000Y-64545000D03*
X123030000Y-64545000D03*
X122530000Y-64545000D03*
X122030000Y-64545000D03*
D45*
X120105000Y-66470000D03*
X120105000Y-66970000D03*
X120105000Y-67470000D03*
X120105000Y-67970000D03*
X120105000Y-68470000D03*
X120105000Y-68970000D03*
X120105000Y-69470000D03*
X120105000Y-69970000D03*
X120105000Y-70470000D03*
X120105000Y-70970000D03*
X120105000Y-71470000D03*
X120105000Y-71970000D03*
X120105000Y-72470000D03*
X120105000Y-72970000D03*
X120105000Y-73470000D03*
X120105000Y-73970000D03*
%TD*%
D16*
%TO.C,R13*%
X149675000Y-66220000D03*
X151325000Y-66220000D03*
%TD*%
D31*
%TO.C,R17*%
X144500000Y-93000000D03*
X142850000Y-93000000D03*
%TD*%
D43*
%TO.C,Q2*%
X137925000Y-91450000D03*
X137925000Y-93350000D03*
X139800000Y-92400000D03*
%TD*%
D20*
%TO.C,R37*%
X144000000Y-73890000D03*
X144000000Y-74910000D03*
%TD*%
%TO.C,R38*%
X143000000Y-73890000D03*
X143000000Y-74910000D03*
%TD*%
M02*
