%TF.GenerationSoftware,KiCad,Pcbnew,8.0.2-8.0.2-0~ubuntu22.04.1*%
%TF.CreationDate,2024-05-15T13:16:06-07:00*%
%TF.ProjectId,JPBms2,4a50426d-7332-42e6-9b69-6361645f7063,rev?*%
%TF.SameCoordinates,Original*%
%TF.FileFunction,Drillmap*%
%TF.FilePolarity,Positive*%
%FSLAX45Y45*%
G04 Gerber Fmt 4.5, Leading zero omitted, Abs format (unit mm)*
G04 Created by KiCad (PCBNEW 8.0.2-8.0.2-0~ubuntu22.04.1) date 2024-05-15 13:16:06*
%MOMM*%
%LPD*%
G01*
G04 APERTURE LIST*
%ADD10C,0.050000*%
%ADD11C,0.200000*%
%ADD12C,0.100000*%
%ADD13C,0.237490*%
%ADD14C,0.320000*%
G04 APERTURE END LIST*
D10*
X9600000Y-6200000D02*
X16500000Y-6200000D01*
X16500000Y-10100000D01*
X9600000Y-10100000D01*
X9600000Y-6200000D01*
D11*
D12*
X9697470Y-6557370D02*
X9796530Y-6656430D01*
X9796530Y-6557370D02*
X9697470Y-6656430D01*
X9697470Y-6760570D02*
X9796530Y-6859630D01*
X9796530Y-6760570D02*
X9697470Y-6859630D01*
X10205470Y-6658970D02*
X10304530Y-6758030D01*
X10304530Y-6658970D02*
X10205470Y-6758030D01*
D13*
X10056245Y-6454500D02*
G75*
G02*
X9818755Y-6454500I-118745J0D01*
G01*
X9818755Y-6454500D02*
G75*
G02*
X10056245Y-6454500I118745J0D01*
G01*
X10056245Y-6962500D02*
G75*
G02*
X9818755Y-6962500I-118745J0D01*
G01*
X9818755Y-6962500D02*
G75*
G02*
X10056245Y-6962500I118745J0D01*
G01*
X10373745Y-6454500D02*
G75*
G02*
X10136255Y-6454500I-118745J0D01*
G01*
X10136255Y-6454500D02*
G75*
G02*
X10373745Y-6454500I118745J0D01*
G01*
X10373745Y-6962500D02*
G75*
G02*
X10136255Y-6962500I-118745J0D01*
G01*
X10136255Y-6962500D02*
G75*
G02*
X10373745Y-6962500I118745J0D01*
G01*
D14*
X10000000Y-9540000D02*
X10000000Y-9860000D01*
X9840000Y-9700000D02*
X10160000Y-9700000D01*
X16100000Y-6440000D02*
X16100000Y-6760000D01*
X15940000Y-6600000D02*
X16260000Y-6600000D01*
X16100000Y-9540000D02*
X16100000Y-9860000D01*
X15940000Y-9700000D02*
X16260000Y-9700000D01*
D11*
X9858277Y-10413984D02*
X9858277Y-10213984D01*
X9858277Y-10213984D02*
X9905896Y-10213984D01*
X9905896Y-10213984D02*
X9934467Y-10223508D01*
X9934467Y-10223508D02*
X9953515Y-10242555D01*
X9953515Y-10242555D02*
X9963039Y-10261603D01*
X9963039Y-10261603D02*
X9972563Y-10299698D01*
X9972563Y-10299698D02*
X9972563Y-10328270D01*
X9972563Y-10328270D02*
X9963039Y-10366365D01*
X9963039Y-10366365D02*
X9953515Y-10385412D01*
X9953515Y-10385412D02*
X9934467Y-10404460D01*
X9934467Y-10404460D02*
X9905896Y-10413984D01*
X9905896Y-10413984D02*
X9858277Y-10413984D01*
X10058277Y-10413984D02*
X10058277Y-10280650D01*
X10058277Y-10318746D02*
X10067801Y-10299698D01*
X10067801Y-10299698D02*
X10077324Y-10290174D01*
X10077324Y-10290174D02*
X10096372Y-10280650D01*
X10096372Y-10280650D02*
X10115420Y-10280650D01*
X10182086Y-10413984D02*
X10182086Y-10280650D01*
X10182086Y-10213984D02*
X10172563Y-10223508D01*
X10172563Y-10223508D02*
X10182086Y-10233031D01*
X10182086Y-10233031D02*
X10191610Y-10223508D01*
X10191610Y-10223508D02*
X10182086Y-10213984D01*
X10182086Y-10213984D02*
X10182086Y-10233031D01*
X10305896Y-10413984D02*
X10286848Y-10404460D01*
X10286848Y-10404460D02*
X10277324Y-10385412D01*
X10277324Y-10385412D02*
X10277324Y-10213984D01*
X10410658Y-10413984D02*
X10391610Y-10404460D01*
X10391610Y-10404460D02*
X10382086Y-10385412D01*
X10382086Y-10385412D02*
X10382086Y-10213984D01*
X10639229Y-10413984D02*
X10639229Y-10213984D01*
X10639229Y-10213984D02*
X10705896Y-10356841D01*
X10705896Y-10356841D02*
X10772563Y-10213984D01*
X10772563Y-10213984D02*
X10772563Y-10413984D01*
X10953515Y-10413984D02*
X10953515Y-10309222D01*
X10953515Y-10309222D02*
X10943991Y-10290174D01*
X10943991Y-10290174D02*
X10924944Y-10280650D01*
X10924944Y-10280650D02*
X10886848Y-10280650D01*
X10886848Y-10280650D02*
X10867801Y-10290174D01*
X10953515Y-10404460D02*
X10934467Y-10413984D01*
X10934467Y-10413984D02*
X10886848Y-10413984D01*
X10886848Y-10413984D02*
X10867801Y-10404460D01*
X10867801Y-10404460D02*
X10858277Y-10385412D01*
X10858277Y-10385412D02*
X10858277Y-10366365D01*
X10858277Y-10366365D02*
X10867801Y-10347317D01*
X10867801Y-10347317D02*
X10886848Y-10337793D01*
X10886848Y-10337793D02*
X10934467Y-10337793D01*
X10934467Y-10337793D02*
X10953515Y-10328270D01*
X11048753Y-10280650D02*
X11048753Y-10480650D01*
X11048753Y-10290174D02*
X11067801Y-10280650D01*
X11067801Y-10280650D02*
X11105896Y-10280650D01*
X11105896Y-10280650D02*
X11124944Y-10290174D01*
X11124944Y-10290174D02*
X11134467Y-10299698D01*
X11134467Y-10299698D02*
X11143991Y-10318746D01*
X11143991Y-10318746D02*
X11143991Y-10375889D01*
X11143991Y-10375889D02*
X11134467Y-10394936D01*
X11134467Y-10394936D02*
X11124944Y-10404460D01*
X11124944Y-10404460D02*
X11105896Y-10413984D01*
X11105896Y-10413984D02*
X11067801Y-10413984D01*
X11067801Y-10413984D02*
X11048753Y-10404460D01*
X11229705Y-10394936D02*
X11239229Y-10404460D01*
X11239229Y-10404460D02*
X11229705Y-10413984D01*
X11229705Y-10413984D02*
X11220182Y-10404460D01*
X11220182Y-10404460D02*
X11229705Y-10394936D01*
X11229705Y-10394936D02*
X11229705Y-10413984D01*
X11229705Y-10290174D02*
X11239229Y-10299698D01*
X11239229Y-10299698D02*
X11229705Y-10309222D01*
X11229705Y-10309222D02*
X11220182Y-10299698D01*
X11220182Y-10299698D02*
X11229705Y-10290174D01*
X11229705Y-10290174D02*
X11229705Y-10309222D01*
D12*
X9498440Y-10692970D02*
X9597500Y-10792030D01*
X9597500Y-10692970D02*
X9498440Y-10792030D01*
D11*
X9896372Y-10633984D02*
X9915420Y-10633984D01*
X9915420Y-10633984D02*
X9934467Y-10643508D01*
X9934467Y-10643508D02*
X9943991Y-10653031D01*
X9943991Y-10653031D02*
X9953515Y-10672079D01*
X9953515Y-10672079D02*
X9963039Y-10710174D01*
X9963039Y-10710174D02*
X9963039Y-10757793D01*
X9963039Y-10757793D02*
X9953515Y-10795889D01*
X9953515Y-10795889D02*
X9943991Y-10814936D01*
X9943991Y-10814936D02*
X9934467Y-10824460D01*
X9934467Y-10824460D02*
X9915420Y-10833984D01*
X9915420Y-10833984D02*
X9896372Y-10833984D01*
X9896372Y-10833984D02*
X9877324Y-10824460D01*
X9877324Y-10824460D02*
X9867801Y-10814936D01*
X9867801Y-10814936D02*
X9858277Y-10795889D01*
X9858277Y-10795889D02*
X9848753Y-10757793D01*
X9848753Y-10757793D02*
X9848753Y-10710174D01*
X9848753Y-10710174D02*
X9858277Y-10672079D01*
X9858277Y-10672079D02*
X9867801Y-10653031D01*
X9867801Y-10653031D02*
X9877324Y-10643508D01*
X9877324Y-10643508D02*
X9896372Y-10633984D01*
X10048753Y-10814936D02*
X10058277Y-10824460D01*
X10058277Y-10824460D02*
X10048753Y-10833984D01*
X10048753Y-10833984D02*
X10039229Y-10824460D01*
X10039229Y-10824460D02*
X10048753Y-10814936D01*
X10048753Y-10814936D02*
X10048753Y-10833984D01*
X10153515Y-10833984D02*
X10191610Y-10833984D01*
X10191610Y-10833984D02*
X10210658Y-10824460D01*
X10210658Y-10824460D02*
X10220182Y-10814936D01*
X10220182Y-10814936D02*
X10239229Y-10786365D01*
X10239229Y-10786365D02*
X10248753Y-10748270D01*
X10248753Y-10748270D02*
X10248753Y-10672079D01*
X10248753Y-10672079D02*
X10239229Y-10653031D01*
X10239229Y-10653031D02*
X10229705Y-10643508D01*
X10229705Y-10643508D02*
X10210658Y-10633984D01*
X10210658Y-10633984D02*
X10172563Y-10633984D01*
X10172563Y-10633984D02*
X10153515Y-10643508D01*
X10153515Y-10643508D02*
X10143991Y-10653031D01*
X10143991Y-10653031D02*
X10134467Y-10672079D01*
X10134467Y-10672079D02*
X10134467Y-10719698D01*
X10134467Y-10719698D02*
X10143991Y-10738746D01*
X10143991Y-10738746D02*
X10153515Y-10748270D01*
X10153515Y-10748270D02*
X10172563Y-10757793D01*
X10172563Y-10757793D02*
X10210658Y-10757793D01*
X10210658Y-10757793D02*
X10229705Y-10748270D01*
X10229705Y-10748270D02*
X10239229Y-10738746D01*
X10239229Y-10738746D02*
X10248753Y-10719698D01*
X10343991Y-10833984D02*
X10382086Y-10833984D01*
X10382086Y-10833984D02*
X10401134Y-10824460D01*
X10401134Y-10824460D02*
X10410658Y-10814936D01*
X10410658Y-10814936D02*
X10429705Y-10786365D01*
X10429705Y-10786365D02*
X10439229Y-10748270D01*
X10439229Y-10748270D02*
X10439229Y-10672079D01*
X10439229Y-10672079D02*
X10429705Y-10653031D01*
X10429705Y-10653031D02*
X10420182Y-10643508D01*
X10420182Y-10643508D02*
X10401134Y-10633984D01*
X10401134Y-10633984D02*
X10363039Y-10633984D01*
X10363039Y-10633984D02*
X10343991Y-10643508D01*
X10343991Y-10643508D02*
X10334467Y-10653031D01*
X10334467Y-10653031D02*
X10324944Y-10672079D01*
X10324944Y-10672079D02*
X10324944Y-10719698D01*
X10324944Y-10719698D02*
X10334467Y-10738746D01*
X10334467Y-10738746D02*
X10343991Y-10748270D01*
X10343991Y-10748270D02*
X10363039Y-10757793D01*
X10363039Y-10757793D02*
X10401134Y-10757793D01*
X10401134Y-10757793D02*
X10420182Y-10748270D01*
X10420182Y-10748270D02*
X10429705Y-10738746D01*
X10429705Y-10738746D02*
X10439229Y-10719698D01*
X10629705Y-10833984D02*
X10515420Y-10833984D01*
X10572563Y-10833984D02*
X10572563Y-10633984D01*
X10572563Y-10633984D02*
X10553515Y-10662555D01*
X10553515Y-10662555D02*
X10534467Y-10681603D01*
X10534467Y-10681603D02*
X10515420Y-10691127D01*
X10715420Y-10833984D02*
X10715420Y-10700650D01*
X10715420Y-10719698D02*
X10724944Y-10710174D01*
X10724944Y-10710174D02*
X10743991Y-10700650D01*
X10743991Y-10700650D02*
X10772563Y-10700650D01*
X10772563Y-10700650D02*
X10791610Y-10710174D01*
X10791610Y-10710174D02*
X10801134Y-10729222D01*
X10801134Y-10729222D02*
X10801134Y-10833984D01*
X10801134Y-10729222D02*
X10810658Y-10710174D01*
X10810658Y-10710174D02*
X10829705Y-10700650D01*
X10829705Y-10700650D02*
X10858277Y-10700650D01*
X10858277Y-10700650D02*
X10877325Y-10710174D01*
X10877325Y-10710174D02*
X10886848Y-10729222D01*
X10886848Y-10729222D02*
X10886848Y-10833984D01*
X10982086Y-10833984D02*
X10982086Y-10700650D01*
X10982086Y-10719698D02*
X10991610Y-10710174D01*
X10991610Y-10710174D02*
X11010658Y-10700650D01*
X11010658Y-10700650D02*
X11039229Y-10700650D01*
X11039229Y-10700650D02*
X11058277Y-10710174D01*
X11058277Y-10710174D02*
X11067801Y-10729222D01*
X11067801Y-10729222D02*
X11067801Y-10833984D01*
X11067801Y-10729222D02*
X11077325Y-10710174D01*
X11077325Y-10710174D02*
X11096372Y-10700650D01*
X11096372Y-10700650D02*
X11124944Y-10700650D01*
X11124944Y-10700650D02*
X11143991Y-10710174D01*
X11143991Y-10710174D02*
X11153515Y-10729222D01*
X11153515Y-10729222D02*
X11153515Y-10833984D01*
X11543991Y-10624460D02*
X11372563Y-10881603D01*
X11801134Y-10633984D02*
X11820182Y-10633984D01*
X11820182Y-10633984D02*
X11839229Y-10643508D01*
X11839229Y-10643508D02*
X11848753Y-10653031D01*
X11848753Y-10653031D02*
X11858277Y-10672079D01*
X11858277Y-10672079D02*
X11867801Y-10710174D01*
X11867801Y-10710174D02*
X11867801Y-10757793D01*
X11867801Y-10757793D02*
X11858277Y-10795889D01*
X11858277Y-10795889D02*
X11848753Y-10814936D01*
X11848753Y-10814936D02*
X11839229Y-10824460D01*
X11839229Y-10824460D02*
X11820182Y-10833984D01*
X11820182Y-10833984D02*
X11801134Y-10833984D01*
X11801134Y-10833984D02*
X11782086Y-10824460D01*
X11782086Y-10824460D02*
X11772563Y-10814936D01*
X11772563Y-10814936D02*
X11763039Y-10795889D01*
X11763039Y-10795889D02*
X11753515Y-10757793D01*
X11753515Y-10757793D02*
X11753515Y-10710174D01*
X11753515Y-10710174D02*
X11763039Y-10672079D01*
X11763039Y-10672079D02*
X11772563Y-10653031D01*
X11772563Y-10653031D02*
X11782086Y-10643508D01*
X11782086Y-10643508D02*
X11801134Y-10633984D01*
X11953515Y-10814936D02*
X11963039Y-10824460D01*
X11963039Y-10824460D02*
X11953515Y-10833984D01*
X11953515Y-10833984D02*
X11943991Y-10824460D01*
X11943991Y-10824460D02*
X11953515Y-10814936D01*
X11953515Y-10814936D02*
X11953515Y-10833984D01*
X12086848Y-10633984D02*
X12105896Y-10633984D01*
X12105896Y-10633984D02*
X12124944Y-10643508D01*
X12124944Y-10643508D02*
X12134467Y-10653031D01*
X12134467Y-10653031D02*
X12143991Y-10672079D01*
X12143991Y-10672079D02*
X12153515Y-10710174D01*
X12153515Y-10710174D02*
X12153515Y-10757793D01*
X12153515Y-10757793D02*
X12143991Y-10795889D01*
X12143991Y-10795889D02*
X12134467Y-10814936D01*
X12134467Y-10814936D02*
X12124944Y-10824460D01*
X12124944Y-10824460D02*
X12105896Y-10833984D01*
X12105896Y-10833984D02*
X12086848Y-10833984D01*
X12086848Y-10833984D02*
X12067801Y-10824460D01*
X12067801Y-10824460D02*
X12058277Y-10814936D01*
X12058277Y-10814936D02*
X12048753Y-10795889D01*
X12048753Y-10795889D02*
X12039229Y-10757793D01*
X12039229Y-10757793D02*
X12039229Y-10710174D01*
X12039229Y-10710174D02*
X12048753Y-10672079D01*
X12048753Y-10672079D02*
X12058277Y-10653031D01*
X12058277Y-10653031D02*
X12067801Y-10643508D01*
X12067801Y-10643508D02*
X12086848Y-10633984D01*
X12220182Y-10633984D02*
X12343991Y-10633984D01*
X12343991Y-10633984D02*
X12277325Y-10710174D01*
X12277325Y-10710174D02*
X12305896Y-10710174D01*
X12305896Y-10710174D02*
X12324944Y-10719698D01*
X12324944Y-10719698D02*
X12334467Y-10729222D01*
X12334467Y-10729222D02*
X12343991Y-10748270D01*
X12343991Y-10748270D02*
X12343991Y-10795889D01*
X12343991Y-10795889D02*
X12334467Y-10814936D01*
X12334467Y-10814936D02*
X12324944Y-10824460D01*
X12324944Y-10824460D02*
X12305896Y-10833984D01*
X12305896Y-10833984D02*
X12248753Y-10833984D01*
X12248753Y-10833984D02*
X12229706Y-10824460D01*
X12229706Y-10824460D02*
X12220182Y-10814936D01*
X12439229Y-10833984D02*
X12477325Y-10833984D01*
X12477325Y-10833984D02*
X12496372Y-10824460D01*
X12496372Y-10824460D02*
X12505896Y-10814936D01*
X12505896Y-10814936D02*
X12524944Y-10786365D01*
X12524944Y-10786365D02*
X12534467Y-10748270D01*
X12534467Y-10748270D02*
X12534467Y-10672079D01*
X12534467Y-10672079D02*
X12524944Y-10653031D01*
X12524944Y-10653031D02*
X12515420Y-10643508D01*
X12515420Y-10643508D02*
X12496372Y-10633984D01*
X12496372Y-10633984D02*
X12458277Y-10633984D01*
X12458277Y-10633984D02*
X12439229Y-10643508D01*
X12439229Y-10643508D02*
X12429706Y-10653031D01*
X12429706Y-10653031D02*
X12420182Y-10672079D01*
X12420182Y-10672079D02*
X12420182Y-10719698D01*
X12420182Y-10719698D02*
X12429706Y-10738746D01*
X12429706Y-10738746D02*
X12439229Y-10748270D01*
X12439229Y-10748270D02*
X12458277Y-10757793D01*
X12458277Y-10757793D02*
X12496372Y-10757793D01*
X12496372Y-10757793D02*
X12515420Y-10748270D01*
X12515420Y-10748270D02*
X12524944Y-10738746D01*
X12524944Y-10738746D02*
X12534467Y-10719698D01*
X12658277Y-10633984D02*
X12677325Y-10633984D01*
X12677325Y-10633984D02*
X12696372Y-10643508D01*
X12696372Y-10643508D02*
X12705896Y-10653031D01*
X12705896Y-10653031D02*
X12715420Y-10672079D01*
X12715420Y-10672079D02*
X12724944Y-10710174D01*
X12724944Y-10710174D02*
X12724944Y-10757793D01*
X12724944Y-10757793D02*
X12715420Y-10795889D01*
X12715420Y-10795889D02*
X12705896Y-10814936D01*
X12705896Y-10814936D02*
X12696372Y-10824460D01*
X12696372Y-10824460D02*
X12677325Y-10833984D01*
X12677325Y-10833984D02*
X12658277Y-10833984D01*
X12658277Y-10833984D02*
X12639229Y-10824460D01*
X12639229Y-10824460D02*
X12629706Y-10814936D01*
X12629706Y-10814936D02*
X12620182Y-10795889D01*
X12620182Y-10795889D02*
X12610658Y-10757793D01*
X12610658Y-10757793D02*
X12610658Y-10710174D01*
X12610658Y-10710174D02*
X12620182Y-10672079D01*
X12620182Y-10672079D02*
X12629706Y-10653031D01*
X12629706Y-10653031D02*
X12639229Y-10643508D01*
X12639229Y-10643508D02*
X12658277Y-10633984D01*
X12801134Y-10633984D02*
X12801134Y-10672079D01*
X12877325Y-10633984D02*
X12877325Y-10672079D01*
X13172563Y-10910174D02*
X13163039Y-10900650D01*
X13163039Y-10900650D02*
X13143991Y-10872079D01*
X13143991Y-10872079D02*
X13134468Y-10853031D01*
X13134468Y-10853031D02*
X13124944Y-10824460D01*
X13124944Y-10824460D02*
X13115420Y-10776841D01*
X13115420Y-10776841D02*
X13115420Y-10738746D01*
X13115420Y-10738746D02*
X13124944Y-10691127D01*
X13124944Y-10691127D02*
X13134468Y-10662555D01*
X13134468Y-10662555D02*
X13143991Y-10643508D01*
X13143991Y-10643508D02*
X13163039Y-10614936D01*
X13163039Y-10614936D02*
X13172563Y-10605412D01*
X13229706Y-10633984D02*
X13353515Y-10633984D01*
X13353515Y-10633984D02*
X13286848Y-10710174D01*
X13286848Y-10710174D02*
X13315420Y-10710174D01*
X13315420Y-10710174D02*
X13334468Y-10719698D01*
X13334468Y-10719698D02*
X13343991Y-10729222D01*
X13343991Y-10729222D02*
X13353515Y-10748270D01*
X13353515Y-10748270D02*
X13353515Y-10795889D01*
X13353515Y-10795889D02*
X13343991Y-10814936D01*
X13343991Y-10814936D02*
X13334468Y-10824460D01*
X13334468Y-10824460D02*
X13315420Y-10833984D01*
X13315420Y-10833984D02*
X13258277Y-10833984D01*
X13258277Y-10833984D02*
X13239229Y-10824460D01*
X13239229Y-10824460D02*
X13229706Y-10814936D01*
X13591610Y-10833984D02*
X13591610Y-10633984D01*
X13677325Y-10833984D02*
X13677325Y-10729222D01*
X13677325Y-10729222D02*
X13667801Y-10710174D01*
X13667801Y-10710174D02*
X13648753Y-10700650D01*
X13648753Y-10700650D02*
X13620182Y-10700650D01*
X13620182Y-10700650D02*
X13601134Y-10710174D01*
X13601134Y-10710174D02*
X13591610Y-10719698D01*
X13801134Y-10833984D02*
X13782087Y-10824460D01*
X13782087Y-10824460D02*
X13772563Y-10814936D01*
X13772563Y-10814936D02*
X13763039Y-10795889D01*
X13763039Y-10795889D02*
X13763039Y-10738746D01*
X13763039Y-10738746D02*
X13772563Y-10719698D01*
X13772563Y-10719698D02*
X13782087Y-10710174D01*
X13782087Y-10710174D02*
X13801134Y-10700650D01*
X13801134Y-10700650D02*
X13829706Y-10700650D01*
X13829706Y-10700650D02*
X13848753Y-10710174D01*
X13848753Y-10710174D02*
X13858277Y-10719698D01*
X13858277Y-10719698D02*
X13867801Y-10738746D01*
X13867801Y-10738746D02*
X13867801Y-10795889D01*
X13867801Y-10795889D02*
X13858277Y-10814936D01*
X13858277Y-10814936D02*
X13848753Y-10824460D01*
X13848753Y-10824460D02*
X13829706Y-10833984D01*
X13829706Y-10833984D02*
X13801134Y-10833984D01*
X13982087Y-10833984D02*
X13963039Y-10824460D01*
X13963039Y-10824460D02*
X13953515Y-10805412D01*
X13953515Y-10805412D02*
X13953515Y-10633984D01*
X14134468Y-10824460D02*
X14115420Y-10833984D01*
X14115420Y-10833984D02*
X14077325Y-10833984D01*
X14077325Y-10833984D02*
X14058277Y-10824460D01*
X14058277Y-10824460D02*
X14048753Y-10805412D01*
X14048753Y-10805412D02*
X14048753Y-10729222D01*
X14048753Y-10729222D02*
X14058277Y-10710174D01*
X14058277Y-10710174D02*
X14077325Y-10700650D01*
X14077325Y-10700650D02*
X14115420Y-10700650D01*
X14115420Y-10700650D02*
X14134468Y-10710174D01*
X14134468Y-10710174D02*
X14143991Y-10729222D01*
X14143991Y-10729222D02*
X14143991Y-10748270D01*
X14143991Y-10748270D02*
X14048753Y-10767317D01*
X14220182Y-10824460D02*
X14239230Y-10833984D01*
X14239230Y-10833984D02*
X14277325Y-10833984D01*
X14277325Y-10833984D02*
X14296372Y-10824460D01*
X14296372Y-10824460D02*
X14305896Y-10805412D01*
X14305896Y-10805412D02*
X14305896Y-10795889D01*
X14305896Y-10795889D02*
X14296372Y-10776841D01*
X14296372Y-10776841D02*
X14277325Y-10767317D01*
X14277325Y-10767317D02*
X14248753Y-10767317D01*
X14248753Y-10767317D02*
X14229706Y-10757793D01*
X14229706Y-10757793D02*
X14220182Y-10738746D01*
X14220182Y-10738746D02*
X14220182Y-10729222D01*
X14220182Y-10729222D02*
X14229706Y-10710174D01*
X14229706Y-10710174D02*
X14248753Y-10700650D01*
X14248753Y-10700650D02*
X14277325Y-10700650D01*
X14277325Y-10700650D02*
X14296372Y-10710174D01*
X14372563Y-10910174D02*
X14382087Y-10900650D01*
X14382087Y-10900650D02*
X14401134Y-10872079D01*
X14401134Y-10872079D02*
X14410658Y-10853031D01*
X14410658Y-10853031D02*
X14420182Y-10824460D01*
X14420182Y-10824460D02*
X14429706Y-10776841D01*
X14429706Y-10776841D02*
X14429706Y-10738746D01*
X14429706Y-10738746D02*
X14420182Y-10691127D01*
X14420182Y-10691127D02*
X14410658Y-10662555D01*
X14410658Y-10662555D02*
X14401134Y-10643508D01*
X14401134Y-10643508D02*
X14382087Y-10614936D01*
X14382087Y-10614936D02*
X14372563Y-10605412D01*
X14734468Y-10910174D02*
X14724944Y-10900650D01*
X14724944Y-10900650D02*
X14705896Y-10872079D01*
X14705896Y-10872079D02*
X14696372Y-10853031D01*
X14696372Y-10853031D02*
X14686849Y-10824460D01*
X14686849Y-10824460D02*
X14677325Y-10776841D01*
X14677325Y-10776841D02*
X14677325Y-10738746D01*
X14677325Y-10738746D02*
X14686849Y-10691127D01*
X14686849Y-10691127D02*
X14696372Y-10662555D01*
X14696372Y-10662555D02*
X14705896Y-10643508D01*
X14705896Y-10643508D02*
X14724944Y-10614936D01*
X14724944Y-10614936D02*
X14734468Y-10605412D01*
X14810658Y-10700650D02*
X14810658Y-10833984D01*
X14810658Y-10719698D02*
X14820182Y-10710174D01*
X14820182Y-10710174D02*
X14839230Y-10700650D01*
X14839230Y-10700650D02*
X14867801Y-10700650D01*
X14867801Y-10700650D02*
X14886849Y-10710174D01*
X14886849Y-10710174D02*
X14896372Y-10729222D01*
X14896372Y-10729222D02*
X14896372Y-10833984D01*
X15020182Y-10833984D02*
X15001134Y-10824460D01*
X15001134Y-10824460D02*
X14991611Y-10814936D01*
X14991611Y-10814936D02*
X14982087Y-10795889D01*
X14982087Y-10795889D02*
X14982087Y-10738746D01*
X14982087Y-10738746D02*
X14991611Y-10719698D01*
X14991611Y-10719698D02*
X15001134Y-10710174D01*
X15001134Y-10710174D02*
X15020182Y-10700650D01*
X15020182Y-10700650D02*
X15048753Y-10700650D01*
X15048753Y-10700650D02*
X15067801Y-10710174D01*
X15067801Y-10710174D02*
X15077325Y-10719698D01*
X15077325Y-10719698D02*
X15086849Y-10738746D01*
X15086849Y-10738746D02*
X15086849Y-10795889D01*
X15086849Y-10795889D02*
X15077325Y-10814936D01*
X15077325Y-10814936D02*
X15067801Y-10824460D01*
X15067801Y-10824460D02*
X15048753Y-10833984D01*
X15048753Y-10833984D02*
X15020182Y-10833984D01*
X15143992Y-10700650D02*
X15220182Y-10700650D01*
X15172563Y-10633984D02*
X15172563Y-10805412D01*
X15172563Y-10805412D02*
X15182087Y-10824460D01*
X15182087Y-10824460D02*
X15201134Y-10833984D01*
X15201134Y-10833984D02*
X15220182Y-10833984D01*
X15439230Y-10700650D02*
X15439230Y-10900650D01*
X15439230Y-10710174D02*
X15458277Y-10700650D01*
X15458277Y-10700650D02*
X15496373Y-10700650D01*
X15496373Y-10700650D02*
X15515420Y-10710174D01*
X15515420Y-10710174D02*
X15524944Y-10719698D01*
X15524944Y-10719698D02*
X15534468Y-10738746D01*
X15534468Y-10738746D02*
X15534468Y-10795889D01*
X15534468Y-10795889D02*
X15524944Y-10814936D01*
X15524944Y-10814936D02*
X15515420Y-10824460D01*
X15515420Y-10824460D02*
X15496373Y-10833984D01*
X15496373Y-10833984D02*
X15458277Y-10833984D01*
X15458277Y-10833984D02*
X15439230Y-10824460D01*
X15648753Y-10833984D02*
X15629706Y-10824460D01*
X15629706Y-10824460D02*
X15620182Y-10805412D01*
X15620182Y-10805412D02*
X15620182Y-10633984D01*
X15810658Y-10833984D02*
X15810658Y-10729222D01*
X15810658Y-10729222D02*
X15801134Y-10710174D01*
X15801134Y-10710174D02*
X15782087Y-10700650D01*
X15782087Y-10700650D02*
X15743992Y-10700650D01*
X15743992Y-10700650D02*
X15724944Y-10710174D01*
X15810658Y-10824460D02*
X15791611Y-10833984D01*
X15791611Y-10833984D02*
X15743992Y-10833984D01*
X15743992Y-10833984D02*
X15724944Y-10824460D01*
X15724944Y-10824460D02*
X15715420Y-10805412D01*
X15715420Y-10805412D02*
X15715420Y-10786365D01*
X15715420Y-10786365D02*
X15724944Y-10767317D01*
X15724944Y-10767317D02*
X15743992Y-10757793D01*
X15743992Y-10757793D02*
X15791611Y-10757793D01*
X15791611Y-10757793D02*
X15810658Y-10748270D01*
X15877325Y-10700650D02*
X15953515Y-10700650D01*
X15905896Y-10633984D02*
X15905896Y-10805412D01*
X15905896Y-10805412D02*
X15915420Y-10824460D01*
X15915420Y-10824460D02*
X15934468Y-10833984D01*
X15934468Y-10833984D02*
X15953515Y-10833984D01*
X16096373Y-10824460D02*
X16077325Y-10833984D01*
X16077325Y-10833984D02*
X16039230Y-10833984D01*
X16039230Y-10833984D02*
X16020182Y-10824460D01*
X16020182Y-10824460D02*
X16010658Y-10805412D01*
X16010658Y-10805412D02*
X16010658Y-10729222D01*
X16010658Y-10729222D02*
X16020182Y-10710174D01*
X16020182Y-10710174D02*
X16039230Y-10700650D01*
X16039230Y-10700650D02*
X16077325Y-10700650D01*
X16077325Y-10700650D02*
X16096373Y-10710174D01*
X16096373Y-10710174D02*
X16105896Y-10729222D01*
X16105896Y-10729222D02*
X16105896Y-10748270D01*
X16105896Y-10748270D02*
X16010658Y-10767317D01*
X16277325Y-10833984D02*
X16277325Y-10633984D01*
X16277325Y-10824460D02*
X16258277Y-10833984D01*
X16258277Y-10833984D02*
X16220182Y-10833984D01*
X16220182Y-10833984D02*
X16201134Y-10824460D01*
X16201134Y-10824460D02*
X16191611Y-10814936D01*
X16191611Y-10814936D02*
X16182087Y-10795889D01*
X16182087Y-10795889D02*
X16182087Y-10738746D01*
X16182087Y-10738746D02*
X16191611Y-10719698D01*
X16191611Y-10719698D02*
X16201134Y-10710174D01*
X16201134Y-10710174D02*
X16220182Y-10700650D01*
X16220182Y-10700650D02*
X16258277Y-10700650D01*
X16258277Y-10700650D02*
X16277325Y-10710174D01*
X16353515Y-10910174D02*
X16363039Y-10900650D01*
X16363039Y-10900650D02*
X16382087Y-10872079D01*
X16382087Y-10872079D02*
X16391611Y-10853031D01*
X16391611Y-10853031D02*
X16401134Y-10824460D01*
X16401134Y-10824460D02*
X16410658Y-10776841D01*
X16410658Y-10776841D02*
X16410658Y-10738746D01*
X16410658Y-10738746D02*
X16401134Y-10691127D01*
X16401134Y-10691127D02*
X16391611Y-10662555D01*
X16391611Y-10662555D02*
X16382087Y-10643508D01*
X16382087Y-10643508D02*
X16363039Y-10614936D01*
X16363039Y-10614936D02*
X16353515Y-10605412D01*
X9597500Y-11006500D02*
G75*
G02*
X9397500Y-11006500I-100000J0D01*
G01*
X9397500Y-11006500D02*
G75*
G02*
X9597500Y-11006500I100000J0D01*
G01*
X9848753Y-10917031D02*
X9858277Y-10907508D01*
X9858277Y-10907508D02*
X9877324Y-10897984D01*
X9877324Y-10897984D02*
X9924944Y-10897984D01*
X9924944Y-10897984D02*
X9943991Y-10907508D01*
X9943991Y-10907508D02*
X9953515Y-10917031D01*
X9953515Y-10917031D02*
X9963039Y-10936079D01*
X9963039Y-10936079D02*
X9963039Y-10955127D01*
X9963039Y-10955127D02*
X9953515Y-10983698D01*
X9953515Y-10983698D02*
X9839229Y-11097984D01*
X9839229Y-11097984D02*
X9963039Y-11097984D01*
X10048753Y-11078936D02*
X10058277Y-11088460D01*
X10058277Y-11088460D02*
X10048753Y-11097984D01*
X10048753Y-11097984D02*
X10039229Y-11088460D01*
X10039229Y-11088460D02*
X10048753Y-11078936D01*
X10048753Y-11078936D02*
X10048753Y-11097984D01*
X10124944Y-10897984D02*
X10248753Y-10897984D01*
X10248753Y-10897984D02*
X10182086Y-10974174D01*
X10182086Y-10974174D02*
X10210658Y-10974174D01*
X10210658Y-10974174D02*
X10229705Y-10983698D01*
X10229705Y-10983698D02*
X10239229Y-10993222D01*
X10239229Y-10993222D02*
X10248753Y-11012270D01*
X10248753Y-11012270D02*
X10248753Y-11059889D01*
X10248753Y-11059889D02*
X10239229Y-11078936D01*
X10239229Y-11078936D02*
X10229705Y-11088460D01*
X10229705Y-11088460D02*
X10210658Y-11097984D01*
X10210658Y-11097984D02*
X10153515Y-11097984D01*
X10153515Y-11097984D02*
X10134467Y-11088460D01*
X10134467Y-11088460D02*
X10124944Y-11078936D01*
X10315420Y-10897984D02*
X10448753Y-10897984D01*
X10448753Y-10897984D02*
X10363039Y-11097984D01*
X10620182Y-10897984D02*
X10524944Y-10897984D01*
X10524944Y-10897984D02*
X10515420Y-10993222D01*
X10515420Y-10993222D02*
X10524944Y-10983698D01*
X10524944Y-10983698D02*
X10543991Y-10974174D01*
X10543991Y-10974174D02*
X10591610Y-10974174D01*
X10591610Y-10974174D02*
X10610658Y-10983698D01*
X10610658Y-10983698D02*
X10620182Y-10993222D01*
X10620182Y-10993222D02*
X10629705Y-11012270D01*
X10629705Y-11012270D02*
X10629705Y-11059889D01*
X10629705Y-11059889D02*
X10620182Y-11078936D01*
X10620182Y-11078936D02*
X10610658Y-11088460D01*
X10610658Y-11088460D02*
X10591610Y-11097984D01*
X10591610Y-11097984D02*
X10543991Y-11097984D01*
X10543991Y-11097984D02*
X10524944Y-11088460D01*
X10524944Y-11088460D02*
X10515420Y-11078936D01*
X10715420Y-11097984D02*
X10715420Y-10964650D01*
X10715420Y-10983698D02*
X10724944Y-10974174D01*
X10724944Y-10974174D02*
X10743991Y-10964650D01*
X10743991Y-10964650D02*
X10772563Y-10964650D01*
X10772563Y-10964650D02*
X10791610Y-10974174D01*
X10791610Y-10974174D02*
X10801134Y-10993222D01*
X10801134Y-10993222D02*
X10801134Y-11097984D01*
X10801134Y-10993222D02*
X10810658Y-10974174D01*
X10810658Y-10974174D02*
X10829705Y-10964650D01*
X10829705Y-10964650D02*
X10858277Y-10964650D01*
X10858277Y-10964650D02*
X10877325Y-10974174D01*
X10877325Y-10974174D02*
X10886848Y-10993222D01*
X10886848Y-10993222D02*
X10886848Y-11097984D01*
X10982086Y-11097984D02*
X10982086Y-10964650D01*
X10982086Y-10983698D02*
X10991610Y-10974174D01*
X10991610Y-10974174D02*
X11010658Y-10964650D01*
X11010658Y-10964650D02*
X11039229Y-10964650D01*
X11039229Y-10964650D02*
X11058277Y-10974174D01*
X11058277Y-10974174D02*
X11067801Y-10993222D01*
X11067801Y-10993222D02*
X11067801Y-11097984D01*
X11067801Y-10993222D02*
X11077325Y-10974174D01*
X11077325Y-10974174D02*
X11096372Y-10964650D01*
X11096372Y-10964650D02*
X11124944Y-10964650D01*
X11124944Y-10964650D02*
X11143991Y-10974174D01*
X11143991Y-10974174D02*
X11153515Y-10993222D01*
X11153515Y-10993222D02*
X11153515Y-11097984D01*
X11543991Y-10888460D02*
X11372563Y-11145603D01*
X11801134Y-10897984D02*
X11820182Y-10897984D01*
X11820182Y-10897984D02*
X11839229Y-10907508D01*
X11839229Y-10907508D02*
X11848753Y-10917031D01*
X11848753Y-10917031D02*
X11858277Y-10936079D01*
X11858277Y-10936079D02*
X11867801Y-10974174D01*
X11867801Y-10974174D02*
X11867801Y-11021793D01*
X11867801Y-11021793D02*
X11858277Y-11059889D01*
X11858277Y-11059889D02*
X11848753Y-11078936D01*
X11848753Y-11078936D02*
X11839229Y-11088460D01*
X11839229Y-11088460D02*
X11820182Y-11097984D01*
X11820182Y-11097984D02*
X11801134Y-11097984D01*
X11801134Y-11097984D02*
X11782086Y-11088460D01*
X11782086Y-11088460D02*
X11772563Y-11078936D01*
X11772563Y-11078936D02*
X11763039Y-11059889D01*
X11763039Y-11059889D02*
X11753515Y-11021793D01*
X11753515Y-11021793D02*
X11753515Y-10974174D01*
X11753515Y-10974174D02*
X11763039Y-10936079D01*
X11763039Y-10936079D02*
X11772563Y-10917031D01*
X11772563Y-10917031D02*
X11782086Y-10907508D01*
X11782086Y-10907508D02*
X11801134Y-10897984D01*
X11953515Y-11078936D02*
X11963039Y-11088460D01*
X11963039Y-11088460D02*
X11953515Y-11097984D01*
X11953515Y-11097984D02*
X11943991Y-11088460D01*
X11943991Y-11088460D02*
X11953515Y-11078936D01*
X11953515Y-11078936D02*
X11953515Y-11097984D01*
X12086848Y-10897984D02*
X12105896Y-10897984D01*
X12105896Y-10897984D02*
X12124944Y-10907508D01*
X12124944Y-10907508D02*
X12134467Y-10917031D01*
X12134467Y-10917031D02*
X12143991Y-10936079D01*
X12143991Y-10936079D02*
X12153515Y-10974174D01*
X12153515Y-10974174D02*
X12153515Y-11021793D01*
X12153515Y-11021793D02*
X12143991Y-11059889D01*
X12143991Y-11059889D02*
X12134467Y-11078936D01*
X12134467Y-11078936D02*
X12124944Y-11088460D01*
X12124944Y-11088460D02*
X12105896Y-11097984D01*
X12105896Y-11097984D02*
X12086848Y-11097984D01*
X12086848Y-11097984D02*
X12067801Y-11088460D01*
X12067801Y-11088460D02*
X12058277Y-11078936D01*
X12058277Y-11078936D02*
X12048753Y-11059889D01*
X12048753Y-11059889D02*
X12039229Y-11021793D01*
X12039229Y-11021793D02*
X12039229Y-10974174D01*
X12039229Y-10974174D02*
X12048753Y-10936079D01*
X12048753Y-10936079D02*
X12058277Y-10917031D01*
X12058277Y-10917031D02*
X12067801Y-10907508D01*
X12067801Y-10907508D02*
X12086848Y-10897984D01*
X12248753Y-11097984D02*
X12286848Y-11097984D01*
X12286848Y-11097984D02*
X12305896Y-11088460D01*
X12305896Y-11088460D02*
X12315420Y-11078936D01*
X12315420Y-11078936D02*
X12334467Y-11050365D01*
X12334467Y-11050365D02*
X12343991Y-11012270D01*
X12343991Y-11012270D02*
X12343991Y-10936079D01*
X12343991Y-10936079D02*
X12334467Y-10917031D01*
X12334467Y-10917031D02*
X12324944Y-10907508D01*
X12324944Y-10907508D02*
X12305896Y-10897984D01*
X12305896Y-10897984D02*
X12267801Y-10897984D01*
X12267801Y-10897984D02*
X12248753Y-10907508D01*
X12248753Y-10907508D02*
X12239229Y-10917031D01*
X12239229Y-10917031D02*
X12229706Y-10936079D01*
X12229706Y-10936079D02*
X12229706Y-10983698D01*
X12229706Y-10983698D02*
X12239229Y-11002746D01*
X12239229Y-11002746D02*
X12248753Y-11012270D01*
X12248753Y-11012270D02*
X12267801Y-11021793D01*
X12267801Y-11021793D02*
X12305896Y-11021793D01*
X12305896Y-11021793D02*
X12324944Y-11012270D01*
X12324944Y-11012270D02*
X12334467Y-11002746D01*
X12334467Y-11002746D02*
X12343991Y-10983698D01*
X12410658Y-10897984D02*
X12534467Y-10897984D01*
X12534467Y-10897984D02*
X12467801Y-10974174D01*
X12467801Y-10974174D02*
X12496372Y-10974174D01*
X12496372Y-10974174D02*
X12515420Y-10983698D01*
X12515420Y-10983698D02*
X12524944Y-10993222D01*
X12524944Y-10993222D02*
X12534467Y-11012270D01*
X12534467Y-11012270D02*
X12534467Y-11059889D01*
X12534467Y-11059889D02*
X12524944Y-11078936D01*
X12524944Y-11078936D02*
X12515420Y-11088460D01*
X12515420Y-11088460D02*
X12496372Y-11097984D01*
X12496372Y-11097984D02*
X12439229Y-11097984D01*
X12439229Y-11097984D02*
X12420182Y-11088460D01*
X12420182Y-11088460D02*
X12410658Y-11078936D01*
X12715420Y-10897984D02*
X12620182Y-10897984D01*
X12620182Y-10897984D02*
X12610658Y-10993222D01*
X12610658Y-10993222D02*
X12620182Y-10983698D01*
X12620182Y-10983698D02*
X12639229Y-10974174D01*
X12639229Y-10974174D02*
X12686848Y-10974174D01*
X12686848Y-10974174D02*
X12705896Y-10983698D01*
X12705896Y-10983698D02*
X12715420Y-10993222D01*
X12715420Y-10993222D02*
X12724944Y-11012270D01*
X12724944Y-11012270D02*
X12724944Y-11059889D01*
X12724944Y-11059889D02*
X12715420Y-11078936D01*
X12715420Y-11078936D02*
X12705896Y-11088460D01*
X12705896Y-11088460D02*
X12686848Y-11097984D01*
X12686848Y-11097984D02*
X12639229Y-11097984D01*
X12639229Y-11097984D02*
X12620182Y-11088460D01*
X12620182Y-11088460D02*
X12610658Y-11078936D01*
X12801134Y-10897984D02*
X12801134Y-10936079D01*
X12877325Y-10897984D02*
X12877325Y-10936079D01*
X13172563Y-11174174D02*
X13163039Y-11164650D01*
X13163039Y-11164650D02*
X13143991Y-11136079D01*
X13143991Y-11136079D02*
X13134468Y-11117031D01*
X13134468Y-11117031D02*
X13124944Y-11088460D01*
X13124944Y-11088460D02*
X13115420Y-11040841D01*
X13115420Y-11040841D02*
X13115420Y-11002746D01*
X13115420Y-11002746D02*
X13124944Y-10955127D01*
X13124944Y-10955127D02*
X13134468Y-10926555D01*
X13134468Y-10926555D02*
X13143991Y-10907508D01*
X13143991Y-10907508D02*
X13163039Y-10878936D01*
X13163039Y-10878936D02*
X13172563Y-10869412D01*
X13334468Y-10964650D02*
X13334468Y-11097984D01*
X13286848Y-10888460D02*
X13239229Y-11031317D01*
X13239229Y-11031317D02*
X13363039Y-11031317D01*
X13591610Y-11097984D02*
X13591610Y-10897984D01*
X13677325Y-11097984D02*
X13677325Y-10993222D01*
X13677325Y-10993222D02*
X13667801Y-10974174D01*
X13667801Y-10974174D02*
X13648753Y-10964650D01*
X13648753Y-10964650D02*
X13620182Y-10964650D01*
X13620182Y-10964650D02*
X13601134Y-10974174D01*
X13601134Y-10974174D02*
X13591610Y-10983698D01*
X13801134Y-11097984D02*
X13782087Y-11088460D01*
X13782087Y-11088460D02*
X13772563Y-11078936D01*
X13772563Y-11078936D02*
X13763039Y-11059889D01*
X13763039Y-11059889D02*
X13763039Y-11002746D01*
X13763039Y-11002746D02*
X13772563Y-10983698D01*
X13772563Y-10983698D02*
X13782087Y-10974174D01*
X13782087Y-10974174D02*
X13801134Y-10964650D01*
X13801134Y-10964650D02*
X13829706Y-10964650D01*
X13829706Y-10964650D02*
X13848753Y-10974174D01*
X13848753Y-10974174D02*
X13858277Y-10983698D01*
X13858277Y-10983698D02*
X13867801Y-11002746D01*
X13867801Y-11002746D02*
X13867801Y-11059889D01*
X13867801Y-11059889D02*
X13858277Y-11078936D01*
X13858277Y-11078936D02*
X13848753Y-11088460D01*
X13848753Y-11088460D02*
X13829706Y-11097984D01*
X13829706Y-11097984D02*
X13801134Y-11097984D01*
X13982087Y-11097984D02*
X13963039Y-11088460D01*
X13963039Y-11088460D02*
X13953515Y-11069412D01*
X13953515Y-11069412D02*
X13953515Y-10897984D01*
X14134468Y-11088460D02*
X14115420Y-11097984D01*
X14115420Y-11097984D02*
X14077325Y-11097984D01*
X14077325Y-11097984D02*
X14058277Y-11088460D01*
X14058277Y-11088460D02*
X14048753Y-11069412D01*
X14048753Y-11069412D02*
X14048753Y-10993222D01*
X14048753Y-10993222D02*
X14058277Y-10974174D01*
X14058277Y-10974174D02*
X14077325Y-10964650D01*
X14077325Y-10964650D02*
X14115420Y-10964650D01*
X14115420Y-10964650D02*
X14134468Y-10974174D01*
X14134468Y-10974174D02*
X14143991Y-10993222D01*
X14143991Y-10993222D02*
X14143991Y-11012270D01*
X14143991Y-11012270D02*
X14048753Y-11031317D01*
X14220182Y-11088460D02*
X14239230Y-11097984D01*
X14239230Y-11097984D02*
X14277325Y-11097984D01*
X14277325Y-11097984D02*
X14296372Y-11088460D01*
X14296372Y-11088460D02*
X14305896Y-11069412D01*
X14305896Y-11069412D02*
X14305896Y-11059889D01*
X14305896Y-11059889D02*
X14296372Y-11040841D01*
X14296372Y-11040841D02*
X14277325Y-11031317D01*
X14277325Y-11031317D02*
X14248753Y-11031317D01*
X14248753Y-11031317D02*
X14229706Y-11021793D01*
X14229706Y-11021793D02*
X14220182Y-11002746D01*
X14220182Y-11002746D02*
X14220182Y-10993222D01*
X14220182Y-10993222D02*
X14229706Y-10974174D01*
X14229706Y-10974174D02*
X14248753Y-10964650D01*
X14248753Y-10964650D02*
X14277325Y-10964650D01*
X14277325Y-10964650D02*
X14296372Y-10974174D01*
X14372563Y-11174174D02*
X14382087Y-11164650D01*
X14382087Y-11164650D02*
X14401134Y-11136079D01*
X14401134Y-11136079D02*
X14410658Y-11117031D01*
X14410658Y-11117031D02*
X14420182Y-11088460D01*
X14420182Y-11088460D02*
X14429706Y-11040841D01*
X14429706Y-11040841D02*
X14429706Y-11002746D01*
X14429706Y-11002746D02*
X14420182Y-10955127D01*
X14420182Y-10955127D02*
X14410658Y-10926555D01*
X14410658Y-10926555D02*
X14401134Y-10907508D01*
X14401134Y-10907508D02*
X14382087Y-10878936D01*
X14382087Y-10878936D02*
X14372563Y-10869412D01*
X14734468Y-11174174D02*
X14724944Y-11164650D01*
X14724944Y-11164650D02*
X14705896Y-11136079D01*
X14705896Y-11136079D02*
X14696372Y-11117031D01*
X14696372Y-11117031D02*
X14686849Y-11088460D01*
X14686849Y-11088460D02*
X14677325Y-11040841D01*
X14677325Y-11040841D02*
X14677325Y-11002746D01*
X14677325Y-11002746D02*
X14686849Y-10955127D01*
X14686849Y-10955127D02*
X14696372Y-10926555D01*
X14696372Y-10926555D02*
X14705896Y-10907508D01*
X14705896Y-10907508D02*
X14724944Y-10878936D01*
X14724944Y-10878936D02*
X14734468Y-10869412D01*
X14810658Y-10964650D02*
X14810658Y-11097984D01*
X14810658Y-10983698D02*
X14820182Y-10974174D01*
X14820182Y-10974174D02*
X14839230Y-10964650D01*
X14839230Y-10964650D02*
X14867801Y-10964650D01*
X14867801Y-10964650D02*
X14886849Y-10974174D01*
X14886849Y-10974174D02*
X14896372Y-10993222D01*
X14896372Y-10993222D02*
X14896372Y-11097984D01*
X15020182Y-11097984D02*
X15001134Y-11088460D01*
X15001134Y-11088460D02*
X14991611Y-11078936D01*
X14991611Y-11078936D02*
X14982087Y-11059889D01*
X14982087Y-11059889D02*
X14982087Y-11002746D01*
X14982087Y-11002746D02*
X14991611Y-10983698D01*
X14991611Y-10983698D02*
X15001134Y-10974174D01*
X15001134Y-10974174D02*
X15020182Y-10964650D01*
X15020182Y-10964650D02*
X15048753Y-10964650D01*
X15048753Y-10964650D02*
X15067801Y-10974174D01*
X15067801Y-10974174D02*
X15077325Y-10983698D01*
X15077325Y-10983698D02*
X15086849Y-11002746D01*
X15086849Y-11002746D02*
X15086849Y-11059889D01*
X15086849Y-11059889D02*
X15077325Y-11078936D01*
X15077325Y-11078936D02*
X15067801Y-11088460D01*
X15067801Y-11088460D02*
X15048753Y-11097984D01*
X15048753Y-11097984D02*
X15020182Y-11097984D01*
X15143992Y-10964650D02*
X15220182Y-10964650D01*
X15172563Y-10897984D02*
X15172563Y-11069412D01*
X15172563Y-11069412D02*
X15182087Y-11088460D01*
X15182087Y-11088460D02*
X15201134Y-11097984D01*
X15201134Y-11097984D02*
X15220182Y-11097984D01*
X15439230Y-10964650D02*
X15439230Y-11164650D01*
X15439230Y-10974174D02*
X15458277Y-10964650D01*
X15458277Y-10964650D02*
X15496373Y-10964650D01*
X15496373Y-10964650D02*
X15515420Y-10974174D01*
X15515420Y-10974174D02*
X15524944Y-10983698D01*
X15524944Y-10983698D02*
X15534468Y-11002746D01*
X15534468Y-11002746D02*
X15534468Y-11059889D01*
X15534468Y-11059889D02*
X15524944Y-11078936D01*
X15524944Y-11078936D02*
X15515420Y-11088460D01*
X15515420Y-11088460D02*
X15496373Y-11097984D01*
X15496373Y-11097984D02*
X15458277Y-11097984D01*
X15458277Y-11097984D02*
X15439230Y-11088460D01*
X15648753Y-11097984D02*
X15629706Y-11088460D01*
X15629706Y-11088460D02*
X15620182Y-11069412D01*
X15620182Y-11069412D02*
X15620182Y-10897984D01*
X15810658Y-11097984D02*
X15810658Y-10993222D01*
X15810658Y-10993222D02*
X15801134Y-10974174D01*
X15801134Y-10974174D02*
X15782087Y-10964650D01*
X15782087Y-10964650D02*
X15743992Y-10964650D01*
X15743992Y-10964650D02*
X15724944Y-10974174D01*
X15810658Y-11088460D02*
X15791611Y-11097984D01*
X15791611Y-11097984D02*
X15743992Y-11097984D01*
X15743992Y-11097984D02*
X15724944Y-11088460D01*
X15724944Y-11088460D02*
X15715420Y-11069412D01*
X15715420Y-11069412D02*
X15715420Y-11050365D01*
X15715420Y-11050365D02*
X15724944Y-11031317D01*
X15724944Y-11031317D02*
X15743992Y-11021793D01*
X15743992Y-11021793D02*
X15791611Y-11021793D01*
X15791611Y-11021793D02*
X15810658Y-11012270D01*
X15877325Y-10964650D02*
X15953515Y-10964650D01*
X15905896Y-10897984D02*
X15905896Y-11069412D01*
X15905896Y-11069412D02*
X15915420Y-11088460D01*
X15915420Y-11088460D02*
X15934468Y-11097984D01*
X15934468Y-11097984D02*
X15953515Y-11097984D01*
X16096373Y-11088460D02*
X16077325Y-11097984D01*
X16077325Y-11097984D02*
X16039230Y-11097984D01*
X16039230Y-11097984D02*
X16020182Y-11088460D01*
X16020182Y-11088460D02*
X16010658Y-11069412D01*
X16010658Y-11069412D02*
X16010658Y-10993222D01*
X16010658Y-10993222D02*
X16020182Y-10974174D01*
X16020182Y-10974174D02*
X16039230Y-10964650D01*
X16039230Y-10964650D02*
X16077325Y-10964650D01*
X16077325Y-10964650D02*
X16096373Y-10974174D01*
X16096373Y-10974174D02*
X16105896Y-10993222D01*
X16105896Y-10993222D02*
X16105896Y-11012270D01*
X16105896Y-11012270D02*
X16010658Y-11031317D01*
X16277325Y-11097984D02*
X16277325Y-10897984D01*
X16277325Y-11088460D02*
X16258277Y-11097984D01*
X16258277Y-11097984D02*
X16220182Y-11097984D01*
X16220182Y-11097984D02*
X16201134Y-11088460D01*
X16201134Y-11088460D02*
X16191611Y-11078936D01*
X16191611Y-11078936D02*
X16182087Y-11059889D01*
X16182087Y-11059889D02*
X16182087Y-11002746D01*
X16182087Y-11002746D02*
X16191611Y-10983698D01*
X16191611Y-10983698D02*
X16201134Y-10974174D01*
X16201134Y-10974174D02*
X16220182Y-10964650D01*
X16220182Y-10964650D02*
X16258277Y-10964650D01*
X16258277Y-10964650D02*
X16277325Y-10974174D01*
X16353515Y-11174174D02*
X16363039Y-11164650D01*
X16363039Y-11164650D02*
X16382087Y-11136079D01*
X16382087Y-11136079D02*
X16391611Y-11117031D01*
X16391611Y-11117031D02*
X16401134Y-11088460D01*
X16401134Y-11088460D02*
X16410658Y-11040841D01*
X16410658Y-11040841D02*
X16410658Y-11002746D01*
X16410658Y-11002746D02*
X16401134Y-10955127D01*
X16401134Y-10955127D02*
X16391611Y-10926555D01*
X16391611Y-10926555D02*
X16382087Y-10907508D01*
X16382087Y-10907508D02*
X16363039Y-10878936D01*
X16363039Y-10878936D02*
X16353515Y-10869412D01*
X9497500Y-11226500D02*
X9497500Y-11426500D01*
X9397500Y-11326500D02*
X9597500Y-11326500D01*
X9839229Y-11217984D02*
X9963039Y-11217984D01*
X9963039Y-11217984D02*
X9896372Y-11294174D01*
X9896372Y-11294174D02*
X9924944Y-11294174D01*
X9924944Y-11294174D02*
X9943991Y-11303698D01*
X9943991Y-11303698D02*
X9953515Y-11313222D01*
X9953515Y-11313222D02*
X9963039Y-11332269D01*
X9963039Y-11332269D02*
X9963039Y-11379888D01*
X9963039Y-11379888D02*
X9953515Y-11398936D01*
X9953515Y-11398936D02*
X9943991Y-11408460D01*
X9943991Y-11408460D02*
X9924944Y-11417984D01*
X9924944Y-11417984D02*
X9867801Y-11417984D01*
X9867801Y-11417984D02*
X9848753Y-11408460D01*
X9848753Y-11408460D02*
X9839229Y-11398936D01*
X10048753Y-11398936D02*
X10058277Y-11408460D01*
X10058277Y-11408460D02*
X10048753Y-11417984D01*
X10048753Y-11417984D02*
X10039229Y-11408460D01*
X10039229Y-11408460D02*
X10048753Y-11398936D01*
X10048753Y-11398936D02*
X10048753Y-11417984D01*
X10134467Y-11237031D02*
X10143991Y-11227508D01*
X10143991Y-11227508D02*
X10163039Y-11217984D01*
X10163039Y-11217984D02*
X10210658Y-11217984D01*
X10210658Y-11217984D02*
X10229705Y-11227508D01*
X10229705Y-11227508D02*
X10239229Y-11237031D01*
X10239229Y-11237031D02*
X10248753Y-11256079D01*
X10248753Y-11256079D02*
X10248753Y-11275127D01*
X10248753Y-11275127D02*
X10239229Y-11303698D01*
X10239229Y-11303698D02*
X10124944Y-11417984D01*
X10124944Y-11417984D02*
X10248753Y-11417984D01*
X10372563Y-11217984D02*
X10391610Y-11217984D01*
X10391610Y-11217984D02*
X10410658Y-11227508D01*
X10410658Y-11227508D02*
X10420182Y-11237031D01*
X10420182Y-11237031D02*
X10429705Y-11256079D01*
X10429705Y-11256079D02*
X10439229Y-11294174D01*
X10439229Y-11294174D02*
X10439229Y-11341793D01*
X10439229Y-11341793D02*
X10429705Y-11379888D01*
X10429705Y-11379888D02*
X10420182Y-11398936D01*
X10420182Y-11398936D02*
X10410658Y-11408460D01*
X10410658Y-11408460D02*
X10391610Y-11417984D01*
X10391610Y-11417984D02*
X10372563Y-11417984D01*
X10372563Y-11417984D02*
X10353515Y-11408460D01*
X10353515Y-11408460D02*
X10343991Y-11398936D01*
X10343991Y-11398936D02*
X10334467Y-11379888D01*
X10334467Y-11379888D02*
X10324944Y-11341793D01*
X10324944Y-11341793D02*
X10324944Y-11294174D01*
X10324944Y-11294174D02*
X10334467Y-11256079D01*
X10334467Y-11256079D02*
X10343991Y-11237031D01*
X10343991Y-11237031D02*
X10353515Y-11227508D01*
X10353515Y-11227508D02*
X10372563Y-11217984D01*
X10563039Y-11217984D02*
X10582086Y-11217984D01*
X10582086Y-11217984D02*
X10601134Y-11227508D01*
X10601134Y-11227508D02*
X10610658Y-11237031D01*
X10610658Y-11237031D02*
X10620182Y-11256079D01*
X10620182Y-11256079D02*
X10629705Y-11294174D01*
X10629705Y-11294174D02*
X10629705Y-11341793D01*
X10629705Y-11341793D02*
X10620182Y-11379888D01*
X10620182Y-11379888D02*
X10610658Y-11398936D01*
X10610658Y-11398936D02*
X10601134Y-11408460D01*
X10601134Y-11408460D02*
X10582086Y-11417984D01*
X10582086Y-11417984D02*
X10563039Y-11417984D01*
X10563039Y-11417984D02*
X10543991Y-11408460D01*
X10543991Y-11408460D02*
X10534467Y-11398936D01*
X10534467Y-11398936D02*
X10524944Y-11379888D01*
X10524944Y-11379888D02*
X10515420Y-11341793D01*
X10515420Y-11341793D02*
X10515420Y-11294174D01*
X10515420Y-11294174D02*
X10524944Y-11256079D01*
X10524944Y-11256079D02*
X10534467Y-11237031D01*
X10534467Y-11237031D02*
X10543991Y-11227508D01*
X10543991Y-11227508D02*
X10563039Y-11217984D01*
X10715420Y-11417984D02*
X10715420Y-11284650D01*
X10715420Y-11303698D02*
X10724944Y-11294174D01*
X10724944Y-11294174D02*
X10743991Y-11284650D01*
X10743991Y-11284650D02*
X10772563Y-11284650D01*
X10772563Y-11284650D02*
X10791610Y-11294174D01*
X10791610Y-11294174D02*
X10801134Y-11313222D01*
X10801134Y-11313222D02*
X10801134Y-11417984D01*
X10801134Y-11313222D02*
X10810658Y-11294174D01*
X10810658Y-11294174D02*
X10829705Y-11284650D01*
X10829705Y-11284650D02*
X10858277Y-11284650D01*
X10858277Y-11284650D02*
X10877325Y-11294174D01*
X10877325Y-11294174D02*
X10886848Y-11313222D01*
X10886848Y-11313222D02*
X10886848Y-11417984D01*
X10982086Y-11417984D02*
X10982086Y-11284650D01*
X10982086Y-11303698D02*
X10991610Y-11294174D01*
X10991610Y-11294174D02*
X11010658Y-11284650D01*
X11010658Y-11284650D02*
X11039229Y-11284650D01*
X11039229Y-11284650D02*
X11058277Y-11294174D01*
X11058277Y-11294174D02*
X11067801Y-11313222D01*
X11067801Y-11313222D02*
X11067801Y-11417984D01*
X11067801Y-11313222D02*
X11077325Y-11294174D01*
X11077325Y-11294174D02*
X11096372Y-11284650D01*
X11096372Y-11284650D02*
X11124944Y-11284650D01*
X11124944Y-11284650D02*
X11143991Y-11294174D01*
X11143991Y-11294174D02*
X11153515Y-11313222D01*
X11153515Y-11313222D02*
X11153515Y-11417984D01*
X11543991Y-11208460D02*
X11372563Y-11465603D01*
X11801134Y-11217984D02*
X11820182Y-11217984D01*
X11820182Y-11217984D02*
X11839229Y-11227508D01*
X11839229Y-11227508D02*
X11848753Y-11237031D01*
X11848753Y-11237031D02*
X11858277Y-11256079D01*
X11858277Y-11256079D02*
X11867801Y-11294174D01*
X11867801Y-11294174D02*
X11867801Y-11341793D01*
X11867801Y-11341793D02*
X11858277Y-11379888D01*
X11858277Y-11379888D02*
X11848753Y-11398936D01*
X11848753Y-11398936D02*
X11839229Y-11408460D01*
X11839229Y-11408460D02*
X11820182Y-11417984D01*
X11820182Y-11417984D02*
X11801134Y-11417984D01*
X11801134Y-11417984D02*
X11782086Y-11408460D01*
X11782086Y-11408460D02*
X11772563Y-11398936D01*
X11772563Y-11398936D02*
X11763039Y-11379888D01*
X11763039Y-11379888D02*
X11753515Y-11341793D01*
X11753515Y-11341793D02*
X11753515Y-11294174D01*
X11753515Y-11294174D02*
X11763039Y-11256079D01*
X11763039Y-11256079D02*
X11772563Y-11237031D01*
X11772563Y-11237031D02*
X11782086Y-11227508D01*
X11782086Y-11227508D02*
X11801134Y-11217984D01*
X11953515Y-11398936D02*
X11963039Y-11408460D01*
X11963039Y-11408460D02*
X11953515Y-11417984D01*
X11953515Y-11417984D02*
X11943991Y-11408460D01*
X11943991Y-11408460D02*
X11953515Y-11398936D01*
X11953515Y-11398936D02*
X11953515Y-11417984D01*
X12153515Y-11417984D02*
X12039229Y-11417984D01*
X12096372Y-11417984D02*
X12096372Y-11217984D01*
X12096372Y-11217984D02*
X12077325Y-11246555D01*
X12077325Y-11246555D02*
X12058277Y-11265603D01*
X12058277Y-11265603D02*
X12039229Y-11275127D01*
X12229706Y-11237031D02*
X12239229Y-11227508D01*
X12239229Y-11227508D02*
X12258277Y-11217984D01*
X12258277Y-11217984D02*
X12305896Y-11217984D01*
X12305896Y-11217984D02*
X12324944Y-11227508D01*
X12324944Y-11227508D02*
X12334467Y-11237031D01*
X12334467Y-11237031D02*
X12343991Y-11256079D01*
X12343991Y-11256079D02*
X12343991Y-11275127D01*
X12343991Y-11275127D02*
X12334467Y-11303698D01*
X12334467Y-11303698D02*
X12220182Y-11417984D01*
X12220182Y-11417984D02*
X12343991Y-11417984D01*
X12515420Y-11217984D02*
X12477325Y-11217984D01*
X12477325Y-11217984D02*
X12458277Y-11227508D01*
X12458277Y-11227508D02*
X12448753Y-11237031D01*
X12448753Y-11237031D02*
X12429706Y-11265603D01*
X12429706Y-11265603D02*
X12420182Y-11303698D01*
X12420182Y-11303698D02*
X12420182Y-11379888D01*
X12420182Y-11379888D02*
X12429706Y-11398936D01*
X12429706Y-11398936D02*
X12439229Y-11408460D01*
X12439229Y-11408460D02*
X12458277Y-11417984D01*
X12458277Y-11417984D02*
X12496372Y-11417984D01*
X12496372Y-11417984D02*
X12515420Y-11408460D01*
X12515420Y-11408460D02*
X12524944Y-11398936D01*
X12524944Y-11398936D02*
X12534467Y-11379888D01*
X12534467Y-11379888D02*
X12534467Y-11332269D01*
X12534467Y-11332269D02*
X12524944Y-11313222D01*
X12524944Y-11313222D02*
X12515420Y-11303698D01*
X12515420Y-11303698D02*
X12496372Y-11294174D01*
X12496372Y-11294174D02*
X12458277Y-11294174D01*
X12458277Y-11294174D02*
X12439229Y-11303698D01*
X12439229Y-11303698D02*
X12429706Y-11313222D01*
X12429706Y-11313222D02*
X12420182Y-11332269D01*
X12658277Y-11217984D02*
X12677325Y-11217984D01*
X12677325Y-11217984D02*
X12696372Y-11227508D01*
X12696372Y-11227508D02*
X12705896Y-11237031D01*
X12705896Y-11237031D02*
X12715420Y-11256079D01*
X12715420Y-11256079D02*
X12724944Y-11294174D01*
X12724944Y-11294174D02*
X12724944Y-11341793D01*
X12724944Y-11341793D02*
X12715420Y-11379888D01*
X12715420Y-11379888D02*
X12705896Y-11398936D01*
X12705896Y-11398936D02*
X12696372Y-11408460D01*
X12696372Y-11408460D02*
X12677325Y-11417984D01*
X12677325Y-11417984D02*
X12658277Y-11417984D01*
X12658277Y-11417984D02*
X12639229Y-11408460D01*
X12639229Y-11408460D02*
X12629706Y-11398936D01*
X12629706Y-11398936D02*
X12620182Y-11379888D01*
X12620182Y-11379888D02*
X12610658Y-11341793D01*
X12610658Y-11341793D02*
X12610658Y-11294174D01*
X12610658Y-11294174D02*
X12620182Y-11256079D01*
X12620182Y-11256079D02*
X12629706Y-11237031D01*
X12629706Y-11237031D02*
X12639229Y-11227508D01*
X12639229Y-11227508D02*
X12658277Y-11217984D01*
X12801134Y-11217984D02*
X12801134Y-11256079D01*
X12877325Y-11217984D02*
X12877325Y-11256079D01*
X13172563Y-11494174D02*
X13163039Y-11484650D01*
X13163039Y-11484650D02*
X13143991Y-11456079D01*
X13143991Y-11456079D02*
X13134468Y-11437031D01*
X13134468Y-11437031D02*
X13124944Y-11408460D01*
X13124944Y-11408460D02*
X13115420Y-11360841D01*
X13115420Y-11360841D02*
X13115420Y-11322746D01*
X13115420Y-11322746D02*
X13124944Y-11275127D01*
X13124944Y-11275127D02*
X13134468Y-11246555D01*
X13134468Y-11246555D02*
X13143991Y-11227508D01*
X13143991Y-11227508D02*
X13163039Y-11198936D01*
X13163039Y-11198936D02*
X13172563Y-11189412D01*
X13229706Y-11217984D02*
X13353515Y-11217984D01*
X13353515Y-11217984D02*
X13286848Y-11294174D01*
X13286848Y-11294174D02*
X13315420Y-11294174D01*
X13315420Y-11294174D02*
X13334468Y-11303698D01*
X13334468Y-11303698D02*
X13343991Y-11313222D01*
X13343991Y-11313222D02*
X13353515Y-11332269D01*
X13353515Y-11332269D02*
X13353515Y-11379888D01*
X13353515Y-11379888D02*
X13343991Y-11398936D01*
X13343991Y-11398936D02*
X13334468Y-11408460D01*
X13334468Y-11408460D02*
X13315420Y-11417984D01*
X13315420Y-11417984D02*
X13258277Y-11417984D01*
X13258277Y-11417984D02*
X13239229Y-11408460D01*
X13239229Y-11408460D02*
X13229706Y-11398936D01*
X13591610Y-11417984D02*
X13591610Y-11217984D01*
X13677325Y-11417984D02*
X13677325Y-11313222D01*
X13677325Y-11313222D02*
X13667801Y-11294174D01*
X13667801Y-11294174D02*
X13648753Y-11284650D01*
X13648753Y-11284650D02*
X13620182Y-11284650D01*
X13620182Y-11284650D02*
X13601134Y-11294174D01*
X13601134Y-11294174D02*
X13591610Y-11303698D01*
X13801134Y-11417984D02*
X13782087Y-11408460D01*
X13782087Y-11408460D02*
X13772563Y-11398936D01*
X13772563Y-11398936D02*
X13763039Y-11379888D01*
X13763039Y-11379888D02*
X13763039Y-11322746D01*
X13763039Y-11322746D02*
X13772563Y-11303698D01*
X13772563Y-11303698D02*
X13782087Y-11294174D01*
X13782087Y-11294174D02*
X13801134Y-11284650D01*
X13801134Y-11284650D02*
X13829706Y-11284650D01*
X13829706Y-11284650D02*
X13848753Y-11294174D01*
X13848753Y-11294174D02*
X13858277Y-11303698D01*
X13858277Y-11303698D02*
X13867801Y-11322746D01*
X13867801Y-11322746D02*
X13867801Y-11379888D01*
X13867801Y-11379888D02*
X13858277Y-11398936D01*
X13858277Y-11398936D02*
X13848753Y-11408460D01*
X13848753Y-11408460D02*
X13829706Y-11417984D01*
X13829706Y-11417984D02*
X13801134Y-11417984D01*
X13982087Y-11417984D02*
X13963039Y-11408460D01*
X13963039Y-11408460D02*
X13953515Y-11389412D01*
X13953515Y-11389412D02*
X13953515Y-11217984D01*
X14134468Y-11408460D02*
X14115420Y-11417984D01*
X14115420Y-11417984D02*
X14077325Y-11417984D01*
X14077325Y-11417984D02*
X14058277Y-11408460D01*
X14058277Y-11408460D02*
X14048753Y-11389412D01*
X14048753Y-11389412D02*
X14048753Y-11313222D01*
X14048753Y-11313222D02*
X14058277Y-11294174D01*
X14058277Y-11294174D02*
X14077325Y-11284650D01*
X14077325Y-11284650D02*
X14115420Y-11284650D01*
X14115420Y-11284650D02*
X14134468Y-11294174D01*
X14134468Y-11294174D02*
X14143991Y-11313222D01*
X14143991Y-11313222D02*
X14143991Y-11332269D01*
X14143991Y-11332269D02*
X14048753Y-11351317D01*
X14220182Y-11408460D02*
X14239230Y-11417984D01*
X14239230Y-11417984D02*
X14277325Y-11417984D01*
X14277325Y-11417984D02*
X14296372Y-11408460D01*
X14296372Y-11408460D02*
X14305896Y-11389412D01*
X14305896Y-11389412D02*
X14305896Y-11379888D01*
X14305896Y-11379888D02*
X14296372Y-11360841D01*
X14296372Y-11360841D02*
X14277325Y-11351317D01*
X14277325Y-11351317D02*
X14248753Y-11351317D01*
X14248753Y-11351317D02*
X14229706Y-11341793D01*
X14229706Y-11341793D02*
X14220182Y-11322746D01*
X14220182Y-11322746D02*
X14220182Y-11313222D01*
X14220182Y-11313222D02*
X14229706Y-11294174D01*
X14229706Y-11294174D02*
X14248753Y-11284650D01*
X14248753Y-11284650D02*
X14277325Y-11284650D01*
X14277325Y-11284650D02*
X14296372Y-11294174D01*
X14372563Y-11494174D02*
X14382087Y-11484650D01*
X14382087Y-11484650D02*
X14401134Y-11456079D01*
X14401134Y-11456079D02*
X14410658Y-11437031D01*
X14410658Y-11437031D02*
X14420182Y-11408460D01*
X14420182Y-11408460D02*
X14429706Y-11360841D01*
X14429706Y-11360841D02*
X14429706Y-11322746D01*
X14429706Y-11322746D02*
X14420182Y-11275127D01*
X14420182Y-11275127D02*
X14410658Y-11246555D01*
X14410658Y-11246555D02*
X14401134Y-11227508D01*
X14401134Y-11227508D02*
X14382087Y-11198936D01*
X14382087Y-11198936D02*
X14372563Y-11189412D01*
X14734468Y-11494174D02*
X14724944Y-11484650D01*
X14724944Y-11484650D02*
X14705896Y-11456079D01*
X14705896Y-11456079D02*
X14696372Y-11437031D01*
X14696372Y-11437031D02*
X14686849Y-11408460D01*
X14686849Y-11408460D02*
X14677325Y-11360841D01*
X14677325Y-11360841D02*
X14677325Y-11322746D01*
X14677325Y-11322746D02*
X14686849Y-11275127D01*
X14686849Y-11275127D02*
X14696372Y-11246555D01*
X14696372Y-11246555D02*
X14705896Y-11227508D01*
X14705896Y-11227508D02*
X14724944Y-11198936D01*
X14724944Y-11198936D02*
X14734468Y-11189412D01*
X14810658Y-11284650D02*
X14810658Y-11417984D01*
X14810658Y-11303698D02*
X14820182Y-11294174D01*
X14820182Y-11294174D02*
X14839230Y-11284650D01*
X14839230Y-11284650D02*
X14867801Y-11284650D01*
X14867801Y-11284650D02*
X14886849Y-11294174D01*
X14886849Y-11294174D02*
X14896372Y-11313222D01*
X14896372Y-11313222D02*
X14896372Y-11417984D01*
X15020182Y-11417984D02*
X15001134Y-11408460D01*
X15001134Y-11408460D02*
X14991611Y-11398936D01*
X14991611Y-11398936D02*
X14982087Y-11379888D01*
X14982087Y-11379888D02*
X14982087Y-11322746D01*
X14982087Y-11322746D02*
X14991611Y-11303698D01*
X14991611Y-11303698D02*
X15001134Y-11294174D01*
X15001134Y-11294174D02*
X15020182Y-11284650D01*
X15020182Y-11284650D02*
X15048753Y-11284650D01*
X15048753Y-11284650D02*
X15067801Y-11294174D01*
X15067801Y-11294174D02*
X15077325Y-11303698D01*
X15077325Y-11303698D02*
X15086849Y-11322746D01*
X15086849Y-11322746D02*
X15086849Y-11379888D01*
X15086849Y-11379888D02*
X15077325Y-11398936D01*
X15077325Y-11398936D02*
X15067801Y-11408460D01*
X15067801Y-11408460D02*
X15048753Y-11417984D01*
X15048753Y-11417984D02*
X15020182Y-11417984D01*
X15143992Y-11284650D02*
X15220182Y-11284650D01*
X15172563Y-11217984D02*
X15172563Y-11389412D01*
X15172563Y-11389412D02*
X15182087Y-11408460D01*
X15182087Y-11408460D02*
X15201134Y-11417984D01*
X15201134Y-11417984D02*
X15220182Y-11417984D01*
X15439230Y-11284650D02*
X15439230Y-11484650D01*
X15439230Y-11294174D02*
X15458277Y-11284650D01*
X15458277Y-11284650D02*
X15496373Y-11284650D01*
X15496373Y-11284650D02*
X15515420Y-11294174D01*
X15515420Y-11294174D02*
X15524944Y-11303698D01*
X15524944Y-11303698D02*
X15534468Y-11322746D01*
X15534468Y-11322746D02*
X15534468Y-11379888D01*
X15534468Y-11379888D02*
X15524944Y-11398936D01*
X15524944Y-11398936D02*
X15515420Y-11408460D01*
X15515420Y-11408460D02*
X15496373Y-11417984D01*
X15496373Y-11417984D02*
X15458277Y-11417984D01*
X15458277Y-11417984D02*
X15439230Y-11408460D01*
X15648753Y-11417984D02*
X15629706Y-11408460D01*
X15629706Y-11408460D02*
X15620182Y-11389412D01*
X15620182Y-11389412D02*
X15620182Y-11217984D01*
X15810658Y-11417984D02*
X15810658Y-11313222D01*
X15810658Y-11313222D02*
X15801134Y-11294174D01*
X15801134Y-11294174D02*
X15782087Y-11284650D01*
X15782087Y-11284650D02*
X15743992Y-11284650D01*
X15743992Y-11284650D02*
X15724944Y-11294174D01*
X15810658Y-11408460D02*
X15791611Y-11417984D01*
X15791611Y-11417984D02*
X15743992Y-11417984D01*
X15743992Y-11417984D02*
X15724944Y-11408460D01*
X15724944Y-11408460D02*
X15715420Y-11389412D01*
X15715420Y-11389412D02*
X15715420Y-11370365D01*
X15715420Y-11370365D02*
X15724944Y-11351317D01*
X15724944Y-11351317D02*
X15743992Y-11341793D01*
X15743992Y-11341793D02*
X15791611Y-11341793D01*
X15791611Y-11341793D02*
X15810658Y-11332269D01*
X15877325Y-11284650D02*
X15953515Y-11284650D01*
X15905896Y-11217984D02*
X15905896Y-11389412D01*
X15905896Y-11389412D02*
X15915420Y-11408460D01*
X15915420Y-11408460D02*
X15934468Y-11417984D01*
X15934468Y-11417984D02*
X15953515Y-11417984D01*
X16096373Y-11408460D02*
X16077325Y-11417984D01*
X16077325Y-11417984D02*
X16039230Y-11417984D01*
X16039230Y-11417984D02*
X16020182Y-11408460D01*
X16020182Y-11408460D02*
X16010658Y-11389412D01*
X16010658Y-11389412D02*
X16010658Y-11313222D01*
X16010658Y-11313222D02*
X16020182Y-11294174D01*
X16020182Y-11294174D02*
X16039230Y-11284650D01*
X16039230Y-11284650D02*
X16077325Y-11284650D01*
X16077325Y-11284650D02*
X16096373Y-11294174D01*
X16096373Y-11294174D02*
X16105896Y-11313222D01*
X16105896Y-11313222D02*
X16105896Y-11332269D01*
X16105896Y-11332269D02*
X16010658Y-11351317D01*
X16277325Y-11417984D02*
X16277325Y-11217984D01*
X16277325Y-11408460D02*
X16258277Y-11417984D01*
X16258277Y-11417984D02*
X16220182Y-11417984D01*
X16220182Y-11417984D02*
X16201134Y-11408460D01*
X16201134Y-11408460D02*
X16191611Y-11398936D01*
X16191611Y-11398936D02*
X16182087Y-11379888D01*
X16182087Y-11379888D02*
X16182087Y-11322746D01*
X16182087Y-11322746D02*
X16191611Y-11303698D01*
X16191611Y-11303698D02*
X16201134Y-11294174D01*
X16201134Y-11294174D02*
X16220182Y-11284650D01*
X16220182Y-11284650D02*
X16258277Y-11284650D01*
X16258277Y-11284650D02*
X16277325Y-11294174D01*
X16353515Y-11494174D02*
X16363039Y-11484650D01*
X16363039Y-11484650D02*
X16382087Y-11456079D01*
X16382087Y-11456079D02*
X16391611Y-11437031D01*
X16391611Y-11437031D02*
X16401134Y-11408460D01*
X16401134Y-11408460D02*
X16410658Y-11360841D01*
X16410658Y-11360841D02*
X16410658Y-11322746D01*
X16410658Y-11322746D02*
X16401134Y-11275127D01*
X16401134Y-11275127D02*
X16391611Y-11246555D01*
X16391611Y-11246555D02*
X16382087Y-11227508D01*
X16382087Y-11227508D02*
X16363039Y-11198936D01*
X16363039Y-11198936D02*
X16353515Y-11189412D01*
M02*
