%TF.GenerationSoftware,KiCad,Pcbnew,8.0.2-8.0.2-0~ubuntu22.04.1*%
%TF.CreationDate,2024-05-15T13:15:59-07:00*%
%TF.ProjectId,JPBms2,4a50426d-7332-42e6-9b69-6361645f7063,rev?*%
%TF.SameCoordinates,Original*%
%TF.FileFunction,Copper,L4,Bot*%
%TF.FilePolarity,Positive*%
%FSLAX46Y46*%
G04 Gerber Fmt 4.6, Leading zero omitted, Abs format (unit mm)*
G04 Created by KiCad (PCBNEW 8.0.2-8.0.2-0~ubuntu22.04.1) date 2024-05-15 13:15:59*
%MOMM*%
%LPD*%
G01*
G04 APERTURE LIST*
G04 Aperture macros list*
%AMRoundRect*
0 Rectangle with rounded corners*
0 $1 Rounding radius*
0 $2 $3 $4 $5 $6 $7 $8 $9 X,Y pos of 4 corners*
0 Add a 4 corners polygon primitive as box body*
4,1,4,$2,$3,$4,$5,$6,$7,$8,$9,$2,$3,0*
0 Add four circle primitives for the rounded corners*
1,1,$1+$1,$2,$3*
1,1,$1+$1,$4,$5*
1,1,$1+$1,$6,$7*
1,1,$1+$1,$8,$9*
0 Add four rect primitives between the rounded corners*
20,1,$1+$1,$2,$3,$4,$5,0*
20,1,$1+$1,$4,$5,$6,$7,0*
20,1,$1+$1,$6,$7,$8,$9,0*
20,1,$1+$1,$8,$9,$2,$3,0*%
G04 Aperture macros list end*
%TA.AperFunction,ComponentPad*%
%ADD10RoundRect,0.250000X-0.725000X0.600000X-0.725000X-0.600000X0.725000X-0.600000X0.725000X0.600000X0*%
%TD*%
%TA.AperFunction,ComponentPad*%
%ADD11O,1.950000X1.700000*%
%TD*%
%TA.AperFunction,ComponentPad*%
%ADD12C,3.000000*%
%TD*%
%TA.AperFunction,ComponentPad*%
%ADD13R,3.500000X3.500000*%
%TD*%
%TA.AperFunction,ComponentPad*%
%ADD14RoundRect,0.750000X0.750000X1.000000X-0.750000X1.000000X-0.750000X-1.000000X0.750000X-1.000000X0*%
%TD*%
%TA.AperFunction,ComponentPad*%
%ADD15RoundRect,0.875000X0.875000X0.875000X-0.875000X0.875000X-0.875000X-0.875000X0.875000X-0.875000X0*%
%TD*%
%TA.AperFunction,ViaPad*%
%ADD16C,0.600000*%
%TD*%
%TA.AperFunction,Conductor*%
%ADD17C,0.200000*%
%TD*%
G04 APERTURE END LIST*
D10*
%TO.P,BAL1,1,Pin_1*%
%TO.N,GND*%
X99280000Y-77220000D03*
D11*
%TO.P,BAL1,2,Pin_2*%
%TO.N,Net-(BAL1-Pin_2)*%
X99280000Y-79720000D03*
%TO.P,BAL1,3,Pin_3*%
%TO.N,Net-(BAL1-Pin_3)*%
X99280000Y-82220000D03*
%TO.P,BAL1,4,Pin_4*%
%TO.N,Net-(BAL1-Pin_4)*%
X99280000Y-84720000D03*
%TD*%
D12*
%TO.P,TP2,1,1*%
%TO.N,+BATT*%
X104200000Y-88000000D03*
%TD*%
%TO.P,TP6,1,1*%
%TO.N,/BuckBoost/VS_B*%
X134600000Y-88000000D03*
%TD*%
%TO.P,TP3,1,1*%
%TO.N,SOLAR_CURRENT_ADC*%
X151750000Y-92720000D03*
%TD*%
%TO.P,TP1,1,1*%
%TO.N,GND*%
X104200000Y-73800000D03*
%TD*%
%TO.P,TP4,1,1*%
%TO.N,VDD*%
X111000000Y-65024000D03*
%TD*%
%TO.P,TP5,1,1*%
%TO.N,/BuckBoost/VS_A*%
X130600000Y-88000000D03*
%TD*%
D13*
%TO.P,J1,1*%
%TO.N,Net-(U1-Vs+)*%
X156250000Y-81920000D03*
D14*
%TO.P,J1,2*%
%TO.N,GND*%
X162250000Y-81920000D03*
D15*
%TO.P,J1,3*%
%TO.N,N/C*%
X159250000Y-77220000D03*
%TD*%
D16*
%TO.N,GND*%
X113800000Y-68600000D03*
X106000000Y-69800000D03*
X126600000Y-89800000D03*
X116511304Y-87436549D03*
X142600000Y-94200000D03*
X134600000Y-79000000D03*
X110350000Y-68618622D03*
X118200000Y-71800000D03*
X121400000Y-73800000D03*
X115199997Y-80200003D03*
X140800000Y-83200000D03*
X128400000Y-79000000D03*
X117600000Y-68600000D03*
X125600000Y-81200000D03*
X118600000Y-65400000D03*
X107000000Y-64600000D03*
X138800000Y-76200000D03*
X156000000Y-64400000D03*
X134400000Y-74000000D03*
X141200000Y-95450000D03*
X144200000Y-73200000D03*
X123200000Y-83200000D03*
X109800000Y-75600000D03*
X129200000Y-72000000D03*
X115200000Y-67000000D03*
X137600000Y-80800000D03*
X132135355Y-64450000D03*
X120600000Y-79200000D03*
X132600000Y-80600000D03*
X122400000Y-87200000D03*
X118800000Y-81400000D03*
X119000000Y-93600000D03*
X122600000Y-66000000D03*
X128200000Y-80600000D03*
X144000000Y-70200000D03*
X156000000Y-68200000D03*
X146800000Y-92600000D03*
X140600000Y-73200000D03*
X134457001Y-67400000D03*
X133000000Y-69600000D03*
X117800000Y-97400000D03*
X124400000Y-80600000D03*
X123800000Y-85800000D03*
X131600000Y-78600000D03*
X125800000Y-72000000D03*
X111400000Y-76000000D03*
X129400000Y-68400000D03*
X120400000Y-89400000D03*
X117240380Y-70040380D03*
X111800000Y-73800000D03*
X134200000Y-63400000D03*
X114800000Y-89600000D03*
X115200000Y-92200000D03*
X156000000Y-66200000D03*
X141400000Y-90200000D03*
X126000000Y-79200000D03*
X123800000Y-97400000D03*
X145200000Y-95600000D03*
X136400000Y-72000000D03*
X138600000Y-89800000D03*
X97400000Y-64400000D03*
X141600000Y-69600000D03*
X137400000Y-69800000D03*
X116000000Y-73200000D03*
X108600000Y-81188000D03*
X136400000Y-74800000D03*
X155200000Y-88000000D03*
X141800000Y-85800000D03*
X120800000Y-93800000D03*
X127200000Y-73000000D03*
X114600000Y-84800000D03*
X153600000Y-74800000D03*
X115800000Y-76400000D03*
X137000000Y-90400000D03*
X142400000Y-63000000D03*
%TO.N,VDD*%
X136000000Y-79000000D03*
X116400000Y-66000000D03*
X128000000Y-74000000D03*
X132600000Y-79200000D03*
X136400000Y-70400000D03*
X130000000Y-67200000D03*
X136400000Y-73200000D03*
X129800000Y-79200000D03*
X130000000Y-73000000D03*
X110600000Y-72400000D03*
X119800000Y-74650000D03*
%TO.N,/MCU/NRST*%
X124600000Y-72200000D03*
X107000000Y-63200000D03*
%TO.N,/MCU/USART1_TX*%
X132800000Y-62800000D03*
X130593614Y-63931213D03*
%TO.N,CELL_4V*%
X115100000Y-88500000D03*
X108200000Y-82800000D03*
X140000000Y-76000000D03*
X125000000Y-82200000D03*
%TO.N,CELL_8V*%
X117600000Y-83925008D03*
X140200000Y-70000000D03*
%TO.N,/BuckBoost/GATE_TOP_B*%
X136200000Y-91400000D03*
X141600000Y-93400000D03*
%TO.N,Net-(U4-LO)*%
X125400000Y-89800000D03*
X122000000Y-93800000D03*
%TO.N,Net-(U5-HO)*%
X145600000Y-92600000D03*
X140000000Y-89600000D03*
%TO.N,Net-(U5-LO)*%
X143800000Y-95600000D03*
X142800000Y-89800000D03*
%TO.N,DD_TOP_A*%
X117800000Y-67400000D03*
X122199994Y-85800000D03*
%TO.N,DD_BOT_A*%
X118600000Y-69600000D03*
X122600000Y-88400000D03*
%TO.N,DD_BOT_B*%
X141506012Y-87356012D03*
X134200000Y-68800000D03*
%TO.N,DD_TOP_B*%
X140399991Y-85799991D03*
X134200000Y-69650003D03*
%TO.N,NBAL_3*%
X119000000Y-92400000D03*
X114936748Y-74675589D03*
X122000008Y-72800000D03*
X110600000Y-74600000D03*
%TO.N,NBAL_2*%
X116790458Y-86184764D03*
X112557476Y-75400000D03*
%TD*%
D17*
%TO.N,VDD*%
X111000000Y-65024000D02*
X115424000Y-65024000D01*
X115424000Y-65024000D02*
X116400000Y-66000000D01*
%TO.N,DD_BOT_A*%
X118600000Y-69600000D02*
X114000000Y-74200000D01*
%TO.N,DD_TOP_A*%
X113600000Y-82765686D02*
X116034314Y-85200000D01*
%TO.N,DD_BOT_A*%
X123200000Y-87800000D02*
X122600000Y-88400000D01*
%TO.N,DD_TOP_A*%
X113600000Y-74034314D02*
X113600000Y-82765686D01*
%TO.N,DD_BOT_A*%
X122800000Y-84800000D02*
X123200000Y-85200000D01*
%TO.N,DD_TOP_A*%
X121599994Y-85200000D02*
X122199994Y-85800000D01*
X113886748Y-71313252D02*
X113886748Y-73747566D01*
%TO.N,DD_BOT_A*%
X123200000Y-85200000D02*
X123200000Y-87800000D01*
%TO.N,DD_TOP_A*%
X113886748Y-73747566D02*
X113600000Y-74034314D01*
X117800000Y-67400000D02*
X113886748Y-71313252D01*
%TO.N,DD_BOT_A*%
X114000000Y-82600000D02*
X116200000Y-84800000D01*
%TO.N,DD_TOP_A*%
X116034314Y-85200000D02*
X121599994Y-85200000D01*
%TO.N,DD_BOT_A*%
X116200000Y-84800000D02*
X122800000Y-84800000D01*
X114000000Y-74200000D02*
X114000000Y-82600000D01*
%TO.N,VDD*%
X129000000Y-74000000D02*
X129200000Y-73800000D01*
X130000000Y-70400000D02*
X136400000Y-70400000D01*
X127600000Y-74400000D02*
X128000000Y-74000000D01*
X130000000Y-70400000D02*
X130000000Y-67200000D01*
X130000000Y-73000000D02*
X130000000Y-70400000D01*
X128000000Y-74000000D02*
X129000000Y-74000000D01*
X129800000Y-74400000D02*
X129800000Y-79200000D01*
X120050000Y-74400000D02*
X127600000Y-74400000D01*
X129200000Y-73800000D02*
X132600000Y-77200000D01*
X129200000Y-73800000D02*
X130000000Y-73000000D01*
X111000000Y-72000000D02*
X111000000Y-65024000D01*
X129200000Y-73800000D02*
X130800000Y-73800000D01*
X129200000Y-73800000D02*
X129800000Y-74400000D01*
X130000000Y-73000000D02*
X136200000Y-73000000D01*
X119800000Y-74650000D02*
X120050000Y-74400000D01*
X110600000Y-72400000D02*
X111000000Y-72000000D01*
X136200000Y-73000000D02*
X136400000Y-73200000D01*
X130800000Y-73800000D02*
X136000000Y-79000000D01*
X132600000Y-77200000D02*
X132600000Y-79200000D01*
%TO.N,/MCU/NRST*%
X124600000Y-69200000D02*
X124600000Y-72200000D01*
X107000000Y-63200000D02*
X107400000Y-62800000D01*
X107400000Y-62800000D02*
X118200000Y-62800000D01*
X118200000Y-62800000D02*
X124600000Y-69200000D01*
%TO.N,/MCU/USART1_TX*%
X131668787Y-63931213D02*
X130593614Y-63931213D01*
X132800000Y-62800000D02*
X131668787Y-63931213D01*
%TO.N,CELL_4V*%
X109400000Y-82800000D02*
X115100000Y-88500000D01*
X137200000Y-83000000D02*
X140800000Y-79400000D01*
X108200000Y-82800000D02*
X109400000Y-82800000D01*
X140800000Y-79400000D02*
X140800000Y-76800000D01*
X125200000Y-82400000D02*
X125200000Y-83000000D01*
X140800000Y-76800000D02*
X140000000Y-76000000D01*
X125000000Y-82200000D02*
X125200000Y-82400000D01*
X125200000Y-83000000D02*
X137200000Y-83000000D01*
%TO.N,CELL_8V*%
X142000000Y-79400000D02*
X137474992Y-83925008D01*
X137474992Y-83925008D02*
X117600000Y-83925008D01*
X140200000Y-70000000D02*
X142000000Y-71800000D01*
X142000000Y-71800000D02*
X142000000Y-79400000D01*
%TO.N,/BuckBoost/GATE_TOP_B*%
X138200000Y-93400000D02*
X136200000Y-91400000D01*
X141600000Y-93400000D02*
X138200000Y-93400000D01*
%TO.N,Net-(U4-LO)*%
X125400000Y-90400000D02*
X125400000Y-89800000D01*
X122000000Y-93800000D02*
X125400000Y-90400000D01*
%TO.N,Net-(U5-HO)*%
X140000000Y-89600000D02*
X141400000Y-89600000D01*
X145600000Y-90600000D02*
X145600000Y-92600000D01*
X142800000Y-88200000D02*
X143200000Y-88200000D01*
X141400000Y-89600000D02*
X142800000Y-88200000D01*
X143200000Y-88200000D02*
X145600000Y-90600000D01*
%TO.N,Net-(U5-LO)*%
X142800000Y-89800000D02*
X143800000Y-90800000D01*
X143800000Y-90800000D02*
X143800000Y-95600000D01*
%TO.N,DD_BOT_B*%
X134200000Y-68800000D02*
X134400000Y-68600000D01*
X141643978Y-87356012D02*
X141506012Y-87356012D01*
X146400000Y-69600000D02*
X146400000Y-82599990D01*
X145400000Y-68600000D02*
X146400000Y-69600000D01*
X134400000Y-68600000D02*
X145400000Y-68600000D01*
X146400000Y-82599990D02*
X141643978Y-87356012D01*
%TO.N,DD_TOP_B*%
X145400000Y-70000000D02*
X145400000Y-80799982D01*
X144400000Y-69000000D02*
X145400000Y-70000000D01*
X134200000Y-69650003D02*
X134850003Y-69000000D01*
X145400000Y-80799982D02*
X140399991Y-85799991D01*
X134850003Y-69000000D02*
X144400000Y-69000000D01*
%TO.N,NBAL_3*%
X119000000Y-92400000D02*
X119000000Y-91000000D01*
X111600000Y-77600000D02*
X110600000Y-76600000D01*
X111600000Y-83600000D02*
X111600000Y-77600000D01*
X117600000Y-72600000D02*
X121800008Y-72600000D01*
X110600000Y-76600000D02*
X110600000Y-74600000D01*
X115524411Y-74675589D02*
X117600000Y-72600000D01*
X114936748Y-74675589D02*
X115524411Y-74675589D01*
X121800008Y-72600000D02*
X122000008Y-72800000D01*
X119000000Y-91000000D02*
X111600000Y-83600000D01*
%TO.N,NBAL_2*%
X112557476Y-83757476D02*
X112557476Y-75400000D01*
X116790458Y-86184764D02*
X114984764Y-86184764D01*
X114984764Y-86184764D02*
X112557476Y-83757476D01*
%TD*%
M02*
