%TF.GenerationSoftware,KiCad,Pcbnew,8.0.2-8.0.2-0~ubuntu22.04.1*%
%TF.CreationDate,2024-05-15T13:15:59-07:00*%
%TF.ProjectId,JPBms2,4a50426d-7332-42e6-9b69-6361645f7063,rev?*%
%TF.SameCoordinates,Original*%
%TF.FileFunction,Copper,L2,Inr*%
%TF.FilePolarity,Positive*%
%FSLAX46Y46*%
G04 Gerber Fmt 4.6, Leading zero omitted, Abs format (unit mm)*
G04 Created by KiCad (PCBNEW 8.0.2-8.0.2-0~ubuntu22.04.1) date 2024-05-15 13:15:59*
%MOMM*%
%LPD*%
G01*
G04 APERTURE LIST*
G04 Aperture macros list*
%AMRoundRect*
0 Rectangle with rounded corners*
0 $1 Rounding radius*
0 $2 $3 $4 $5 $6 $7 $8 $9 X,Y pos of 4 corners*
0 Add a 4 corners polygon primitive as box body*
4,1,4,$2,$3,$4,$5,$6,$7,$8,$9,$2,$3,0*
0 Add four circle primitives for the rounded corners*
1,1,$1+$1,$2,$3*
1,1,$1+$1,$4,$5*
1,1,$1+$1,$6,$7*
1,1,$1+$1,$8,$9*
0 Add four rect primitives between the rounded corners*
20,1,$1+$1,$2,$3,$4,$5,0*
20,1,$1+$1,$4,$5,$6,$7,0*
20,1,$1+$1,$6,$7,$8,$9,0*
20,1,$1+$1,$8,$9,$2,$3,0*%
G04 Aperture macros list end*
%TA.AperFunction,ComponentPad*%
%ADD10RoundRect,0.250000X-0.725000X0.600000X-0.725000X-0.600000X0.725000X-0.600000X0.725000X0.600000X0*%
%TD*%
%TA.AperFunction,ComponentPad*%
%ADD11O,1.950000X1.700000*%
%TD*%
%TA.AperFunction,ComponentPad*%
%ADD12C,3.000000*%
%TD*%
%TA.AperFunction,ComponentPad*%
%ADD13R,3.500000X3.500000*%
%TD*%
%TA.AperFunction,ComponentPad*%
%ADD14RoundRect,0.750000X0.750000X1.000000X-0.750000X1.000000X-0.750000X-1.000000X0.750000X-1.000000X0*%
%TD*%
%TA.AperFunction,ComponentPad*%
%ADD15RoundRect,0.875000X0.875000X0.875000X-0.875000X0.875000X-0.875000X-0.875000X0.875000X-0.875000X0*%
%TD*%
%TA.AperFunction,ViaPad*%
%ADD16C,0.600000*%
%TD*%
G04 APERTURE END LIST*
D10*
%TO.N,GND*%
%TO.C,BAL1*%
X99280000Y-77220000D03*
D11*
%TO.N,Net-(BAL1-Pin_2)*%
X99280000Y-79720000D03*
%TO.N,Net-(BAL1-Pin_3)*%
X99280000Y-82220000D03*
%TO.N,Net-(BAL1-Pin_4)*%
X99280000Y-84720000D03*
%TD*%
D12*
%TO.N,+BATT*%
%TO.C,TP2*%
X104200000Y-88000000D03*
%TD*%
%TO.N,/BuckBoost/VS_B*%
%TO.C,TP6*%
X134600000Y-88000000D03*
%TD*%
%TO.N,SOLAR_CURRENT_ADC*%
%TO.C,TP3*%
X151750000Y-92720000D03*
%TD*%
%TO.N,GND*%
%TO.C,TP1*%
X104200000Y-73800000D03*
%TD*%
%TO.N,VDD*%
%TO.C,TP4*%
X111000000Y-65024000D03*
%TD*%
%TO.N,/BuckBoost/VS_A*%
%TO.C,TP5*%
X130600000Y-88000000D03*
%TD*%
D13*
%TO.N,Net-(U1-Vs+)*%
%TO.C,J1*%
X156250000Y-81920000D03*
D14*
%TO.N,GND*%
X162250000Y-81920000D03*
D15*
%TO.N,N/C*%
X159250000Y-77220000D03*
%TD*%
D16*
%TO.N,GND*%
X113800000Y-68600000D03*
X106000000Y-69800000D03*
X126600000Y-89800000D03*
X116511304Y-87436549D03*
X142600000Y-94200000D03*
X134600000Y-79000000D03*
X110350000Y-68618622D03*
X118200000Y-71800000D03*
X121400000Y-73800000D03*
X115199997Y-80200003D03*
X140800000Y-83200000D03*
X128400000Y-79000000D03*
X117600000Y-68600000D03*
X125600000Y-81200000D03*
X118600000Y-65400000D03*
X107000000Y-64600000D03*
X138800000Y-76200000D03*
X156000000Y-64400000D03*
X134400000Y-74000000D03*
X141200000Y-95450000D03*
X144200000Y-73200000D03*
X123200000Y-83200000D03*
X109800000Y-75600000D03*
X129200000Y-72000000D03*
X115200000Y-67000000D03*
X137600000Y-80800000D03*
X132135355Y-64450000D03*
X120600000Y-79200000D03*
X132600000Y-80600000D03*
X122400000Y-87200000D03*
X118800000Y-81400000D03*
X119000000Y-93600000D03*
X122600000Y-66000000D03*
X128200000Y-80600000D03*
X144000000Y-70200000D03*
X156000000Y-68200000D03*
X146800000Y-92600000D03*
X140600000Y-73200000D03*
X134457001Y-67400000D03*
X133000000Y-69600000D03*
X117800000Y-97400000D03*
X124400000Y-80600000D03*
X123800000Y-85800000D03*
X131600000Y-78600000D03*
X125800000Y-72000000D03*
X111400000Y-76000000D03*
X129400000Y-68400000D03*
X120400000Y-89400000D03*
X117240380Y-70040380D03*
X111800000Y-73800000D03*
X134200000Y-63400000D03*
X114800000Y-89600000D03*
X115200000Y-92200000D03*
X156000000Y-66200000D03*
X141400000Y-90200000D03*
X126000000Y-79200000D03*
X123800000Y-97400000D03*
X145200000Y-95600000D03*
X136400000Y-72000000D03*
X138600000Y-89800000D03*
X97400000Y-64400000D03*
X141600000Y-69600000D03*
X137400000Y-69800000D03*
X116000000Y-73200000D03*
X108600000Y-81188000D03*
X136400000Y-74800000D03*
X155200000Y-88000000D03*
X141800000Y-85800000D03*
X120800000Y-93800000D03*
X127200000Y-73000000D03*
X114600000Y-84800000D03*
X153600000Y-74800000D03*
X115800000Y-76400000D03*
X137000000Y-90400000D03*
X142400000Y-63000000D03*
%TO.N,VDD*%
X136000000Y-79000000D03*
X116400000Y-66000000D03*
X128000000Y-74000000D03*
X132600000Y-79200000D03*
X136400000Y-70400000D03*
X130000000Y-67200000D03*
X136400000Y-73200000D03*
X129800000Y-79200000D03*
X130000000Y-73000000D03*
X110600000Y-72400000D03*
X119800000Y-74650000D03*
%TO.N,/MCU/NRST*%
X124600000Y-72200000D03*
X107000000Y-63200000D03*
%TO.N,/MCU/USART1_TX*%
X132800000Y-62800000D03*
X130593614Y-63931213D03*
%TO.N,CELL_4V*%
X115100000Y-88500000D03*
X108200000Y-82800000D03*
X140000000Y-76000000D03*
X125000000Y-82200000D03*
%TO.N,CELL_8V*%
X117600000Y-83925008D03*
X140200000Y-70000000D03*
%TO.N,/BuckBoost/GATE_TOP_B*%
X136200000Y-91400000D03*
X141600000Y-93400000D03*
%TO.N,Net-(U4-LO)*%
X125400000Y-89800000D03*
X122000000Y-93800000D03*
%TO.N,Net-(U5-HO)*%
X145600000Y-92600000D03*
X140000000Y-89600000D03*
%TO.N,Net-(U5-LO)*%
X143800000Y-95600000D03*
X142800000Y-89800000D03*
%TO.N,DD_TOP_A*%
X117800000Y-67400000D03*
X122199994Y-85800000D03*
%TO.N,DD_BOT_A*%
X118600000Y-69600000D03*
X122600000Y-88400000D03*
%TO.N,DD_BOT_B*%
X141506012Y-87356012D03*
X134200000Y-68800000D03*
%TO.N,DD_TOP_B*%
X140399991Y-85799991D03*
X134200000Y-69650003D03*
%TO.N,NBAL_3*%
X119000000Y-92400000D03*
X114936748Y-74675589D03*
X122000008Y-72800000D03*
X110600000Y-74600000D03*
%TO.N,NBAL_2*%
X116790458Y-86184764D03*
X112557476Y-75400000D03*
%TD*%
%TA.AperFunction,Conductor*%
%TO.N,GND*%
G36*
X106337027Y-62520185D02*
G01*
X106382782Y-62572989D01*
X106392726Y-62642147D01*
X106371805Y-62690532D01*
X106373889Y-62691842D01*
X106274211Y-62850476D01*
X106214631Y-63020745D01*
X106214631Y-63020747D01*
X106194435Y-63199996D01*
X106194435Y-63200003D01*
X106214630Y-63379249D01*
X106214631Y-63379254D01*
X106274211Y-63549523D01*
X106296735Y-63585369D01*
X106370184Y-63702262D01*
X106497738Y-63829816D01*
X106650478Y-63925789D01*
X106690205Y-63939690D01*
X106820745Y-63985368D01*
X106820750Y-63985369D01*
X106999996Y-64005565D01*
X107000000Y-64005565D01*
X107000004Y-64005565D01*
X107179249Y-63985369D01*
X107179252Y-63985368D01*
X107179255Y-63985368D01*
X107349522Y-63925789D01*
X107502262Y-63829816D01*
X107629816Y-63702262D01*
X107725789Y-63549522D01*
X107785368Y-63379255D01*
X107785369Y-63379249D01*
X107805565Y-63200003D01*
X107805565Y-63199996D01*
X107785369Y-63020747D01*
X107785368Y-63020745D01*
X107725788Y-62850476D01*
X107626111Y-62691842D01*
X107628409Y-62690397D01*
X107606659Y-62637151D01*
X107619401Y-62568453D01*
X107667261Y-62517550D01*
X107730012Y-62500500D01*
X131889424Y-62500500D01*
X131956463Y-62520185D01*
X132002218Y-62572989D01*
X132012644Y-62638383D01*
X131994435Y-62799996D01*
X131994435Y-62800003D01*
X132014630Y-62979249D01*
X132014631Y-62979254D01*
X132074211Y-63149523D01*
X132113720Y-63212400D01*
X132170184Y-63302262D01*
X132297738Y-63429816D01*
X132326985Y-63448193D01*
X132422596Y-63508270D01*
X132450478Y-63525789D01*
X132518306Y-63549523D01*
X132620745Y-63585368D01*
X132620750Y-63585369D01*
X132799996Y-63605565D01*
X132800000Y-63605565D01*
X132800004Y-63605565D01*
X132979249Y-63585369D01*
X132979252Y-63585368D01*
X132979255Y-63585368D01*
X133149522Y-63525789D01*
X133302262Y-63429816D01*
X133429816Y-63302262D01*
X133525789Y-63149522D01*
X133585368Y-62979255D01*
X133605565Y-62800000D01*
X133605565Y-62799996D01*
X133587356Y-62638383D01*
X133599411Y-62569561D01*
X133646760Y-62518182D01*
X133710576Y-62500500D01*
X164375500Y-62500500D01*
X164442539Y-62520185D01*
X164488294Y-62572989D01*
X164499500Y-62624500D01*
X164499500Y-100375500D01*
X164479815Y-100442539D01*
X164427011Y-100488294D01*
X164375500Y-100499500D01*
X96624500Y-100499500D01*
X96557461Y-100479815D01*
X96511706Y-100427011D01*
X96500500Y-100375500D01*
X96500500Y-96878711D01*
X98149500Y-96878711D01*
X98149500Y-97121288D01*
X98181161Y-97361785D01*
X98243947Y-97596104D01*
X98336773Y-97820205D01*
X98336776Y-97820212D01*
X98458064Y-98030289D01*
X98458066Y-98030292D01*
X98458067Y-98030293D01*
X98605733Y-98222736D01*
X98605739Y-98222743D01*
X98777256Y-98394260D01*
X98777262Y-98394265D01*
X98969711Y-98541936D01*
X99179788Y-98663224D01*
X99403900Y-98756054D01*
X99638211Y-98818838D01*
X99818586Y-98842584D01*
X99878711Y-98850500D01*
X99878712Y-98850500D01*
X100121289Y-98850500D01*
X100169388Y-98844167D01*
X100361789Y-98818838D01*
X100596100Y-98756054D01*
X100820212Y-98663224D01*
X101030289Y-98541936D01*
X101222738Y-98394265D01*
X101394265Y-98222738D01*
X101541936Y-98030289D01*
X101663224Y-97820212D01*
X101756054Y-97596100D01*
X101818838Y-97361789D01*
X101850500Y-97121288D01*
X101850500Y-96878712D01*
X101850500Y-96878711D01*
X159149500Y-96878711D01*
X159149500Y-97121288D01*
X159181161Y-97361785D01*
X159243947Y-97596104D01*
X159336773Y-97820205D01*
X159336776Y-97820212D01*
X159458064Y-98030289D01*
X159458066Y-98030292D01*
X159458067Y-98030293D01*
X159605733Y-98222736D01*
X159605739Y-98222743D01*
X159777256Y-98394260D01*
X159777262Y-98394265D01*
X159969711Y-98541936D01*
X160179788Y-98663224D01*
X160403900Y-98756054D01*
X160638211Y-98818838D01*
X160818586Y-98842584D01*
X160878711Y-98850500D01*
X160878712Y-98850500D01*
X161121289Y-98850500D01*
X161169388Y-98844167D01*
X161361789Y-98818838D01*
X161596100Y-98756054D01*
X161820212Y-98663224D01*
X162030289Y-98541936D01*
X162222738Y-98394265D01*
X162394265Y-98222738D01*
X162541936Y-98030289D01*
X162663224Y-97820212D01*
X162756054Y-97596100D01*
X162818838Y-97361789D01*
X162850500Y-97121288D01*
X162850500Y-96878712D01*
X162818838Y-96638211D01*
X162756054Y-96403900D01*
X162663224Y-96179788D01*
X162541936Y-95969711D01*
X162481018Y-95890321D01*
X162394266Y-95777263D01*
X162394260Y-95777256D01*
X162222743Y-95605739D01*
X162222736Y-95605733D01*
X162030293Y-95458067D01*
X162030292Y-95458066D01*
X162030289Y-95458064D01*
X161820212Y-95336776D01*
X161820205Y-95336773D01*
X161596104Y-95243947D01*
X161361785Y-95181161D01*
X161121289Y-95149500D01*
X161121288Y-95149500D01*
X160878712Y-95149500D01*
X160878711Y-95149500D01*
X160638214Y-95181161D01*
X160403895Y-95243947D01*
X160179794Y-95336773D01*
X160179785Y-95336777D01*
X159969706Y-95458067D01*
X159777263Y-95605733D01*
X159777256Y-95605739D01*
X159605739Y-95777256D01*
X159605733Y-95777263D01*
X159458067Y-95969706D01*
X159336777Y-96179785D01*
X159336773Y-96179794D01*
X159243947Y-96403895D01*
X159181161Y-96638214D01*
X159149500Y-96878711D01*
X101850500Y-96878711D01*
X101818838Y-96638211D01*
X101756054Y-96403900D01*
X101663224Y-96179788D01*
X101541936Y-95969711D01*
X101481018Y-95890321D01*
X101394266Y-95777263D01*
X101394260Y-95777256D01*
X101222743Y-95605739D01*
X101222736Y-95605733D01*
X101215259Y-95599996D01*
X142994435Y-95599996D01*
X142994435Y-95600003D01*
X143014630Y-95779249D01*
X143014631Y-95779254D01*
X143074211Y-95949523D01*
X143170184Y-96102262D01*
X143297738Y-96229816D01*
X143450478Y-96325789D01*
X143620745Y-96385368D01*
X143620750Y-96385369D01*
X143799996Y-96405565D01*
X143800000Y-96405565D01*
X143800004Y-96405565D01*
X143979249Y-96385369D01*
X143979252Y-96385368D01*
X143979255Y-96385368D01*
X144149522Y-96325789D01*
X144302262Y-96229816D01*
X144429816Y-96102262D01*
X144525789Y-95949522D01*
X144585368Y-95779255D01*
X144585369Y-95779249D01*
X144605565Y-95600003D01*
X144605565Y-95599996D01*
X144585369Y-95420750D01*
X144585368Y-95420745D01*
X144525788Y-95250476D01*
X144429815Y-95097737D01*
X144302262Y-94970184D01*
X144149523Y-94874211D01*
X143979254Y-94814631D01*
X143979249Y-94814630D01*
X143800004Y-94794435D01*
X143799996Y-94794435D01*
X143620750Y-94814630D01*
X143620745Y-94814631D01*
X143450476Y-94874211D01*
X143297737Y-94970184D01*
X143170184Y-95097737D01*
X143074211Y-95250476D01*
X143014631Y-95420745D01*
X143014630Y-95420750D01*
X142994435Y-95599996D01*
X101215259Y-95599996D01*
X101030293Y-95458067D01*
X101030292Y-95458066D01*
X101030289Y-95458064D01*
X100820212Y-95336776D01*
X100820205Y-95336773D01*
X100596104Y-95243947D01*
X100361785Y-95181161D01*
X100121289Y-95149500D01*
X100121288Y-95149500D01*
X99878712Y-95149500D01*
X99878711Y-95149500D01*
X99638214Y-95181161D01*
X99403895Y-95243947D01*
X99179794Y-95336773D01*
X99179785Y-95336777D01*
X98969706Y-95458067D01*
X98777263Y-95605733D01*
X98777256Y-95605739D01*
X98605739Y-95777256D01*
X98605733Y-95777263D01*
X98458067Y-95969706D01*
X98336777Y-96179785D01*
X98336773Y-96179794D01*
X98243947Y-96403895D01*
X98181161Y-96638214D01*
X98149500Y-96878711D01*
X96500500Y-96878711D01*
X96500500Y-93799996D01*
X121194435Y-93799996D01*
X121194435Y-93800003D01*
X121214630Y-93979249D01*
X121214631Y-93979254D01*
X121274211Y-94149523D01*
X121370184Y-94302262D01*
X121497738Y-94429816D01*
X121650478Y-94525789D01*
X121703571Y-94544367D01*
X121820745Y-94585368D01*
X121820750Y-94585369D01*
X121999996Y-94605565D01*
X122000000Y-94605565D01*
X122000004Y-94605565D01*
X122179249Y-94585369D01*
X122179252Y-94585368D01*
X122179255Y-94585368D01*
X122349522Y-94525789D01*
X122502262Y-94429816D01*
X122629816Y-94302262D01*
X122725789Y-94149522D01*
X122785368Y-93979255D01*
X122805079Y-93804315D01*
X122805565Y-93800003D01*
X122805565Y-93799996D01*
X122785369Y-93620750D01*
X122785368Y-93620745D01*
X122725788Y-93450476D01*
X122694069Y-93399996D01*
X140794435Y-93399996D01*
X140794435Y-93400003D01*
X140814630Y-93579249D01*
X140814631Y-93579254D01*
X140874211Y-93749523D01*
X140908641Y-93804317D01*
X140970184Y-93902262D01*
X141097738Y-94029816D01*
X141250478Y-94125789D01*
X141318306Y-94149523D01*
X141420745Y-94185368D01*
X141420750Y-94185369D01*
X141599996Y-94205565D01*
X141600000Y-94205565D01*
X141600004Y-94205565D01*
X141779249Y-94185369D01*
X141779252Y-94185368D01*
X141779255Y-94185368D01*
X141949522Y-94125789D01*
X142102262Y-94029816D01*
X142229816Y-93902262D01*
X142325789Y-93749522D01*
X142385368Y-93579255D01*
X142385369Y-93579249D01*
X142405565Y-93400003D01*
X142405565Y-93399996D01*
X142385369Y-93220750D01*
X142385368Y-93220745D01*
X142343909Y-93102262D01*
X142325789Y-93050478D01*
X142303265Y-93014632D01*
X142262354Y-92949522D01*
X142229816Y-92897738D01*
X142102262Y-92770184D01*
X142069379Y-92749522D01*
X141949523Y-92674211D01*
X141779254Y-92614631D01*
X141779249Y-92614630D01*
X141649362Y-92599996D01*
X144794435Y-92599996D01*
X144794435Y-92600003D01*
X144814630Y-92779249D01*
X144814631Y-92779254D01*
X144874211Y-92949523D01*
X144937646Y-93050478D01*
X144970184Y-93102262D01*
X145097738Y-93229816D01*
X145185622Y-93285037D01*
X145205833Y-93297737D01*
X145250478Y-93325789D01*
X145420745Y-93385368D01*
X145420750Y-93385369D01*
X145599996Y-93405565D01*
X145600000Y-93405565D01*
X145600004Y-93405565D01*
X145779249Y-93385369D01*
X145779252Y-93385368D01*
X145779255Y-93385368D01*
X145949522Y-93325789D01*
X146102262Y-93229816D01*
X146229816Y-93102262D01*
X146325789Y-92949522D01*
X146385368Y-92779255D01*
X146388718Y-92749522D01*
X146392045Y-92719998D01*
X149744390Y-92719998D01*
X149744390Y-92720001D01*
X149764804Y-93005433D01*
X149825628Y-93285037D01*
X149825630Y-93285043D01*
X149825631Y-93285046D01*
X149887334Y-93450478D01*
X149925635Y-93553166D01*
X150062770Y-93804309D01*
X150062775Y-93804317D01*
X150234254Y-94033387D01*
X150234270Y-94033405D01*
X150436594Y-94235729D01*
X150436612Y-94235745D01*
X150665682Y-94407224D01*
X150665690Y-94407229D01*
X150916833Y-94544364D01*
X150916832Y-94544364D01*
X150916836Y-94544365D01*
X150916839Y-94544367D01*
X151184954Y-94644369D01*
X151184960Y-94644370D01*
X151184962Y-94644371D01*
X151464566Y-94705195D01*
X151464568Y-94705195D01*
X151464572Y-94705196D01*
X151718220Y-94723337D01*
X151749999Y-94725610D01*
X151750000Y-94725610D01*
X151750001Y-94725610D01*
X151778595Y-94723564D01*
X152035428Y-94705196D01*
X152315046Y-94644369D01*
X152583161Y-94544367D01*
X152834315Y-94407226D01*
X153063395Y-94235739D01*
X153265739Y-94033395D01*
X153437226Y-93804315D01*
X153574367Y-93553161D01*
X153674369Y-93285046D01*
X153725396Y-93050478D01*
X153735195Y-93005433D01*
X153735195Y-93005432D01*
X153735196Y-93005428D01*
X153755610Y-92720000D01*
X153735196Y-92434572D01*
X153732189Y-92420750D01*
X153674371Y-92154962D01*
X153674370Y-92154960D01*
X153674369Y-92154954D01*
X153574367Y-91886839D01*
X153534938Y-91814631D01*
X153437229Y-91635690D01*
X153437224Y-91635682D01*
X153265745Y-91406612D01*
X153265729Y-91406594D01*
X153063405Y-91204270D01*
X153063387Y-91204254D01*
X152834317Y-91032775D01*
X152834309Y-91032770D01*
X152583166Y-90895635D01*
X152583167Y-90895635D01*
X152475915Y-90855632D01*
X152315046Y-90795631D01*
X152315043Y-90795630D01*
X152315037Y-90795628D01*
X152035433Y-90734804D01*
X151750001Y-90714390D01*
X151749999Y-90714390D01*
X151464566Y-90734804D01*
X151184962Y-90795628D01*
X150916833Y-90895635D01*
X150665690Y-91032770D01*
X150665682Y-91032775D01*
X150436612Y-91204254D01*
X150436594Y-91204270D01*
X150234270Y-91406594D01*
X150234254Y-91406612D01*
X150062775Y-91635682D01*
X150062770Y-91635690D01*
X149925635Y-91886833D01*
X149825628Y-92154962D01*
X149764804Y-92434566D01*
X149744390Y-92719998D01*
X146392045Y-92719998D01*
X146405565Y-92600003D01*
X146405565Y-92599996D01*
X146385369Y-92420750D01*
X146385368Y-92420745D01*
X146325788Y-92250476D01*
X146265767Y-92154954D01*
X146229816Y-92097738D01*
X146102262Y-91970184D01*
X145949523Y-91874211D01*
X145779254Y-91814631D01*
X145779249Y-91814630D01*
X145600004Y-91794435D01*
X145599996Y-91794435D01*
X145420750Y-91814630D01*
X145420745Y-91814631D01*
X145250476Y-91874211D01*
X145097737Y-91970184D01*
X144970184Y-92097737D01*
X144874211Y-92250476D01*
X144814631Y-92420745D01*
X144814630Y-92420750D01*
X144794435Y-92599996D01*
X141649362Y-92599996D01*
X141600004Y-92594435D01*
X141599996Y-92594435D01*
X141420750Y-92614630D01*
X141420745Y-92614631D01*
X141250476Y-92674211D01*
X141097737Y-92770184D01*
X140970184Y-92897737D01*
X140874211Y-93050476D01*
X140814631Y-93220745D01*
X140814630Y-93220750D01*
X140794435Y-93399996D01*
X122694069Y-93399996D01*
X122684878Y-93385368D01*
X122629816Y-93297738D01*
X122502262Y-93170184D01*
X122431608Y-93125789D01*
X122349523Y-93074211D01*
X122179254Y-93014631D01*
X122179249Y-93014630D01*
X122000004Y-92994435D01*
X121999996Y-92994435D01*
X121820750Y-93014630D01*
X121820745Y-93014631D01*
X121650476Y-93074211D01*
X121497737Y-93170184D01*
X121370184Y-93297737D01*
X121274211Y-93450476D01*
X121214631Y-93620745D01*
X121214630Y-93620750D01*
X121194435Y-93799996D01*
X96500500Y-93799996D01*
X96500500Y-92399996D01*
X118194435Y-92399996D01*
X118194435Y-92400003D01*
X118214630Y-92579249D01*
X118214631Y-92579254D01*
X118274211Y-92749523D01*
X118367341Y-92897737D01*
X118370184Y-92902262D01*
X118497738Y-93029816D01*
X118650478Y-93125789D01*
X118777352Y-93170184D01*
X118820745Y-93185368D01*
X118820750Y-93185369D01*
X118999996Y-93205565D01*
X119000000Y-93205565D01*
X119000004Y-93205565D01*
X119179249Y-93185369D01*
X119179252Y-93185368D01*
X119179255Y-93185368D01*
X119349522Y-93125789D01*
X119502262Y-93029816D01*
X119629816Y-92902262D01*
X119725789Y-92749522D01*
X119785368Y-92579255D01*
X119801670Y-92434572D01*
X119805565Y-92400003D01*
X119805565Y-92399996D01*
X119785369Y-92220750D01*
X119785368Y-92220745D01*
X119772989Y-92185368D01*
X119725789Y-92050478D01*
X119629816Y-91897738D01*
X119502262Y-91770184D01*
X119469379Y-91749522D01*
X119349523Y-91674211D01*
X119179254Y-91614631D01*
X119179249Y-91614630D01*
X119000004Y-91594435D01*
X118999996Y-91594435D01*
X118820750Y-91614630D01*
X118820745Y-91614631D01*
X118650476Y-91674211D01*
X118497737Y-91770184D01*
X118370184Y-91897737D01*
X118274211Y-92050476D01*
X118214631Y-92220745D01*
X118214630Y-92220750D01*
X118194435Y-92399996D01*
X96500500Y-92399996D01*
X96500500Y-91399996D01*
X135394435Y-91399996D01*
X135394435Y-91400003D01*
X135414630Y-91579249D01*
X135414631Y-91579254D01*
X135474211Y-91749523D01*
X135515122Y-91814632D01*
X135570184Y-91902262D01*
X135697738Y-92029816D01*
X135788080Y-92086582D01*
X135805833Y-92097737D01*
X135850478Y-92125789D01*
X135933827Y-92154954D01*
X136020745Y-92185368D01*
X136020750Y-92185369D01*
X136199996Y-92205565D01*
X136200000Y-92205565D01*
X136200004Y-92205565D01*
X136379249Y-92185369D01*
X136379252Y-92185368D01*
X136379255Y-92185368D01*
X136549522Y-92125789D01*
X136702262Y-92029816D01*
X136829816Y-91902262D01*
X136925789Y-91749522D01*
X136985368Y-91579255D01*
X137005565Y-91400000D01*
X136985368Y-91220745D01*
X136925789Y-91050478D01*
X136914665Y-91032775D01*
X136829815Y-90897737D01*
X136702262Y-90770184D01*
X136549523Y-90674211D01*
X136379254Y-90614631D01*
X136379249Y-90614630D01*
X136200004Y-90594435D01*
X136199996Y-90594435D01*
X136020750Y-90614630D01*
X136020745Y-90614631D01*
X135850476Y-90674211D01*
X135697737Y-90770184D01*
X135570184Y-90897737D01*
X135474211Y-91050476D01*
X135414631Y-91220745D01*
X135414630Y-91220750D01*
X135394435Y-91399996D01*
X96500500Y-91399996D01*
X96500500Y-87999998D01*
X102194390Y-87999998D01*
X102194390Y-88000001D01*
X102214804Y-88285433D01*
X102275628Y-88565037D01*
X102275630Y-88565043D01*
X102275631Y-88565046D01*
X102318229Y-88679255D01*
X102375635Y-88833166D01*
X102512770Y-89084309D01*
X102512775Y-89084317D01*
X102684254Y-89313387D01*
X102684270Y-89313405D01*
X102886594Y-89515729D01*
X102886612Y-89515745D01*
X103115682Y-89687224D01*
X103115690Y-89687229D01*
X103366833Y-89824364D01*
X103366832Y-89824364D01*
X103366836Y-89824365D01*
X103366839Y-89824367D01*
X103634954Y-89924369D01*
X103634960Y-89924370D01*
X103634962Y-89924371D01*
X103914566Y-89985195D01*
X103914568Y-89985195D01*
X103914572Y-89985196D01*
X104168220Y-90003337D01*
X104199999Y-90005610D01*
X104200000Y-90005610D01*
X104200001Y-90005610D01*
X104228595Y-90003564D01*
X104485428Y-89985196D01*
X104512739Y-89979255D01*
X104765037Y-89924371D01*
X104765037Y-89924370D01*
X104765046Y-89924369D01*
X105033161Y-89824367D01*
X105077793Y-89799996D01*
X124594435Y-89799996D01*
X124594435Y-89800003D01*
X124614630Y-89979249D01*
X124614631Y-89979254D01*
X124674211Y-90149523D01*
X124724662Y-90229815D01*
X124770184Y-90302262D01*
X124897738Y-90429816D01*
X125050478Y-90525789D01*
X125220745Y-90585368D01*
X125220750Y-90585369D01*
X125399996Y-90605565D01*
X125400000Y-90605565D01*
X125400004Y-90605565D01*
X125579249Y-90585369D01*
X125579252Y-90585368D01*
X125579255Y-90585368D01*
X125749522Y-90525789D01*
X125902262Y-90429816D01*
X126029816Y-90302262D01*
X126125789Y-90149522D01*
X126185368Y-89979255D01*
X126205565Y-89800000D01*
X126192858Y-89687224D01*
X126185369Y-89620750D01*
X126185368Y-89620745D01*
X126125788Y-89450476D01*
X126029815Y-89297737D01*
X125902262Y-89170184D01*
X125749523Y-89074211D01*
X125579254Y-89014631D01*
X125579249Y-89014630D01*
X125400004Y-88994435D01*
X125399996Y-88994435D01*
X125220750Y-89014630D01*
X125220745Y-89014631D01*
X125050476Y-89074211D01*
X124897737Y-89170184D01*
X124770184Y-89297737D01*
X124674211Y-89450476D01*
X124614631Y-89620745D01*
X124614630Y-89620750D01*
X124594435Y-89799996D01*
X105077793Y-89799996D01*
X105284315Y-89687226D01*
X105513395Y-89515739D01*
X105715739Y-89313395D01*
X105887226Y-89084315D01*
X106024367Y-88833161D01*
X106124369Y-88565046D01*
X106138520Y-88499996D01*
X114294435Y-88499996D01*
X114294435Y-88500003D01*
X114314630Y-88679249D01*
X114314631Y-88679254D01*
X114374211Y-88849523D01*
X114450028Y-88970184D01*
X114470184Y-89002262D01*
X114597738Y-89129816D01*
X114750478Y-89225789D01*
X114920745Y-89285368D01*
X114920750Y-89285369D01*
X115099996Y-89305565D01*
X115100000Y-89305565D01*
X115100004Y-89305565D01*
X115279249Y-89285369D01*
X115279252Y-89285368D01*
X115279255Y-89285368D01*
X115449522Y-89225789D01*
X115602262Y-89129816D01*
X115729816Y-89002262D01*
X115825789Y-88849522D01*
X115885368Y-88679255D01*
X115885369Y-88679249D01*
X115905565Y-88500003D01*
X115905565Y-88499996D01*
X115894298Y-88399996D01*
X121794435Y-88399996D01*
X121794435Y-88400003D01*
X121814630Y-88579249D01*
X121814631Y-88579254D01*
X121874211Y-88749523D01*
X121926768Y-88833166D01*
X121970184Y-88902262D01*
X122097738Y-89029816D01*
X122168392Y-89074211D01*
X122205833Y-89097737D01*
X122250478Y-89125789D01*
X122261984Y-89129815D01*
X122420745Y-89185368D01*
X122420750Y-89185369D01*
X122599996Y-89205565D01*
X122600000Y-89205565D01*
X122600004Y-89205565D01*
X122779249Y-89185369D01*
X122779252Y-89185368D01*
X122779255Y-89185368D01*
X122949522Y-89125789D01*
X123102262Y-89029816D01*
X123229816Y-88902262D01*
X123325789Y-88749522D01*
X123385368Y-88579255D01*
X123386970Y-88565037D01*
X123405565Y-88400003D01*
X123405565Y-88399996D01*
X123385369Y-88220750D01*
X123385368Y-88220745D01*
X123364664Y-88161577D01*
X123325789Y-88050478D01*
X123294070Y-87999998D01*
X128594390Y-87999998D01*
X128594390Y-88000001D01*
X128614804Y-88285433D01*
X128675628Y-88565037D01*
X128675630Y-88565043D01*
X128675631Y-88565046D01*
X128718229Y-88679255D01*
X128775635Y-88833166D01*
X128912770Y-89084309D01*
X128912775Y-89084317D01*
X129084254Y-89313387D01*
X129084270Y-89313405D01*
X129286594Y-89515729D01*
X129286612Y-89515745D01*
X129515682Y-89687224D01*
X129515690Y-89687229D01*
X129766833Y-89824364D01*
X129766832Y-89824364D01*
X129766836Y-89824365D01*
X129766839Y-89824367D01*
X130034954Y-89924369D01*
X130034960Y-89924370D01*
X130034962Y-89924371D01*
X130314566Y-89985195D01*
X130314568Y-89985195D01*
X130314572Y-89985196D01*
X130568220Y-90003337D01*
X130599999Y-90005610D01*
X130600000Y-90005610D01*
X130600001Y-90005610D01*
X130628595Y-90003564D01*
X130885428Y-89985196D01*
X130912739Y-89979255D01*
X131165037Y-89924371D01*
X131165037Y-89924370D01*
X131165046Y-89924369D01*
X131433161Y-89824367D01*
X131684315Y-89687226D01*
X131913395Y-89515739D01*
X132115739Y-89313395D01*
X132287226Y-89084315D01*
X132424367Y-88833161D01*
X132483818Y-88673764D01*
X132525689Y-88617832D01*
X132591154Y-88593415D01*
X132659427Y-88608267D01*
X132708832Y-88657672D01*
X132716179Y-88673760D01*
X132718229Y-88679255D01*
X132775633Y-88833162D01*
X132775635Y-88833166D01*
X132912770Y-89084309D01*
X132912775Y-89084317D01*
X133084254Y-89313387D01*
X133084270Y-89313405D01*
X133286594Y-89515729D01*
X133286612Y-89515745D01*
X133515682Y-89687224D01*
X133515690Y-89687229D01*
X133766833Y-89824364D01*
X133766832Y-89824364D01*
X133766836Y-89824365D01*
X133766839Y-89824367D01*
X134034954Y-89924369D01*
X134034960Y-89924370D01*
X134034962Y-89924371D01*
X134314566Y-89985195D01*
X134314568Y-89985195D01*
X134314572Y-89985196D01*
X134568220Y-90003337D01*
X134599999Y-90005610D01*
X134600000Y-90005610D01*
X134600001Y-90005610D01*
X134628595Y-90003564D01*
X134885428Y-89985196D01*
X134912739Y-89979255D01*
X135165037Y-89924371D01*
X135165037Y-89924370D01*
X135165046Y-89924369D01*
X135433161Y-89824367D01*
X135684315Y-89687226D01*
X135800841Y-89599996D01*
X139194435Y-89599996D01*
X139194435Y-89600003D01*
X139214630Y-89779249D01*
X139214631Y-89779254D01*
X139274211Y-89949523D01*
X139296626Y-89985196D01*
X139370184Y-90102262D01*
X139497738Y-90229816D01*
X139650478Y-90325789D01*
X139820745Y-90385368D01*
X139820750Y-90385369D01*
X139999996Y-90405565D01*
X140000000Y-90405565D01*
X140000004Y-90405565D01*
X140179249Y-90385369D01*
X140179252Y-90385368D01*
X140179255Y-90385368D01*
X140349522Y-90325789D01*
X140502262Y-90229816D01*
X140629816Y-90102262D01*
X140725789Y-89949522D01*
X140778110Y-89799996D01*
X141994435Y-89799996D01*
X141994435Y-89800003D01*
X142014630Y-89979249D01*
X142014631Y-89979254D01*
X142074211Y-90149523D01*
X142124662Y-90229815D01*
X142170184Y-90302262D01*
X142297738Y-90429816D01*
X142450478Y-90525789D01*
X142620745Y-90585368D01*
X142620750Y-90585369D01*
X142799996Y-90605565D01*
X142800000Y-90605565D01*
X142800004Y-90605565D01*
X142979249Y-90585369D01*
X142979252Y-90585368D01*
X142979255Y-90585368D01*
X143149522Y-90525789D01*
X143302262Y-90429816D01*
X143429816Y-90302262D01*
X143525789Y-90149522D01*
X143585368Y-89979255D01*
X143605565Y-89800000D01*
X143592858Y-89687224D01*
X143585369Y-89620750D01*
X143585368Y-89620745D01*
X143525788Y-89450476D01*
X143429815Y-89297737D01*
X143302262Y-89170184D01*
X143149523Y-89074211D01*
X142979254Y-89014631D01*
X142979249Y-89014630D01*
X142800004Y-88994435D01*
X142799996Y-88994435D01*
X142620750Y-89014630D01*
X142620745Y-89014631D01*
X142450476Y-89074211D01*
X142297737Y-89170184D01*
X142170184Y-89297737D01*
X142074211Y-89450476D01*
X142014631Y-89620745D01*
X142014630Y-89620750D01*
X141994435Y-89799996D01*
X140778110Y-89799996D01*
X140785368Y-89779255D01*
X140795737Y-89687226D01*
X140805565Y-89600003D01*
X140805565Y-89599996D01*
X140785369Y-89420750D01*
X140785368Y-89420745D01*
X140747808Y-89313405D01*
X140725789Y-89250478D01*
X140629816Y-89097738D01*
X140502262Y-88970184D01*
X140349523Y-88874211D01*
X140179254Y-88814631D01*
X140179249Y-88814630D01*
X140000004Y-88794435D01*
X139999996Y-88794435D01*
X139820750Y-88814630D01*
X139820745Y-88814631D01*
X139650476Y-88874211D01*
X139497737Y-88970184D01*
X139370184Y-89097737D01*
X139274211Y-89250476D01*
X139214631Y-89420745D01*
X139214630Y-89420750D01*
X139194435Y-89599996D01*
X135800841Y-89599996D01*
X135913395Y-89515739D01*
X136115739Y-89313395D01*
X136287226Y-89084315D01*
X136424367Y-88833161D01*
X136524369Y-88565046D01*
X136560272Y-88400003D01*
X136585195Y-88285433D01*
X136585195Y-88285432D01*
X136585196Y-88285428D01*
X136605610Y-88000000D01*
X136604596Y-87985828D01*
X136596325Y-87870184D01*
X136585196Y-87714572D01*
X136580815Y-87694435D01*
X136524371Y-87434962D01*
X136524370Y-87434960D01*
X136524369Y-87434954D01*
X136494924Y-87356008D01*
X140700447Y-87356008D01*
X140700447Y-87356015D01*
X140720642Y-87535261D01*
X140720643Y-87535266D01*
X140780223Y-87705535D01*
X140876196Y-87858274D01*
X141003750Y-87985828D01*
X141094092Y-88042594D01*
X141151137Y-88078438D01*
X141156490Y-88081801D01*
X141326757Y-88141380D01*
X141326762Y-88141381D01*
X141506008Y-88161577D01*
X141506012Y-88161577D01*
X141506016Y-88161577D01*
X141685261Y-88141381D01*
X141685264Y-88141380D01*
X141685267Y-88141380D01*
X141855534Y-88081801D01*
X142008274Y-87985828D01*
X142135828Y-87858274D01*
X142231801Y-87705534D01*
X142291380Y-87535267D01*
X142302682Y-87434962D01*
X142311577Y-87356015D01*
X142311577Y-87356008D01*
X142291381Y-87176762D01*
X142291380Y-87176757D01*
X142231800Y-87006488D01*
X142192594Y-86944092D01*
X142135828Y-86853750D01*
X142008274Y-86726196D01*
X141855535Y-86630223D01*
X141685266Y-86570643D01*
X141685261Y-86570642D01*
X141506016Y-86550447D01*
X141506008Y-86550447D01*
X141326762Y-86570642D01*
X141326757Y-86570643D01*
X141156488Y-86630223D01*
X141003749Y-86726196D01*
X140876196Y-86853749D01*
X140780223Y-87006488D01*
X140720643Y-87176757D01*
X140720642Y-87176762D01*
X140700447Y-87356008D01*
X136494924Y-87356008D01*
X136424367Y-87166839D01*
X136336809Y-87006490D01*
X136287229Y-86915690D01*
X136287224Y-86915682D01*
X136115745Y-86686612D01*
X136115729Y-86686594D01*
X135913405Y-86484270D01*
X135913387Y-86484254D01*
X135684317Y-86312775D01*
X135684309Y-86312770D01*
X135433166Y-86175635D01*
X135433167Y-86175635D01*
X135325915Y-86135632D01*
X135165046Y-86075631D01*
X135165043Y-86075630D01*
X135165037Y-86075628D01*
X134885433Y-86014804D01*
X134600001Y-85994390D01*
X134599999Y-85994390D01*
X134314566Y-86014804D01*
X134034962Y-86075628D01*
X133766833Y-86175635D01*
X133515690Y-86312770D01*
X133515682Y-86312775D01*
X133286612Y-86484254D01*
X133286594Y-86484270D01*
X133084270Y-86686594D01*
X133084254Y-86686612D01*
X132912775Y-86915682D01*
X132912770Y-86915690D01*
X132775635Y-87166833D01*
X132716182Y-87326234D01*
X132674310Y-87382167D01*
X132608846Y-87406584D01*
X132540573Y-87391732D01*
X132491168Y-87342327D01*
X132483818Y-87326234D01*
X132424367Y-87166839D01*
X132336809Y-87006490D01*
X132287229Y-86915690D01*
X132287224Y-86915682D01*
X132115745Y-86686612D01*
X132115729Y-86686594D01*
X131913405Y-86484270D01*
X131913387Y-86484254D01*
X131684317Y-86312775D01*
X131684309Y-86312770D01*
X131433166Y-86175635D01*
X131433167Y-86175635D01*
X131325915Y-86135632D01*
X131165046Y-86075631D01*
X131165043Y-86075630D01*
X131165037Y-86075628D01*
X130885433Y-86014804D01*
X130600001Y-85994390D01*
X130599999Y-85994390D01*
X130314566Y-86014804D01*
X130034962Y-86075628D01*
X129766833Y-86175635D01*
X129515690Y-86312770D01*
X129515682Y-86312775D01*
X129286612Y-86484254D01*
X129286594Y-86484270D01*
X129084270Y-86686594D01*
X129084254Y-86686612D01*
X128912775Y-86915682D01*
X128912770Y-86915690D01*
X128775635Y-87166833D01*
X128675628Y-87434962D01*
X128614804Y-87714566D01*
X128594390Y-87999998D01*
X123294070Y-87999998D01*
X123229816Y-87897738D01*
X123102262Y-87770184D01*
X123013852Y-87714632D01*
X122949523Y-87674211D01*
X122779254Y-87614631D01*
X122779249Y-87614630D01*
X122600004Y-87594435D01*
X122599996Y-87594435D01*
X122420750Y-87614630D01*
X122420745Y-87614631D01*
X122250476Y-87674211D01*
X122097737Y-87770184D01*
X121970184Y-87897737D01*
X121874211Y-88050476D01*
X121814631Y-88220745D01*
X121814630Y-88220750D01*
X121794435Y-88399996D01*
X115894298Y-88399996D01*
X115885369Y-88320750D01*
X115885368Y-88320745D01*
X115850376Y-88220745D01*
X115825789Y-88150478D01*
X115820072Y-88141380D01*
X115762955Y-88050478D01*
X115729816Y-87997738D01*
X115602262Y-87870184D01*
X115583307Y-87858274D01*
X115449523Y-87774211D01*
X115279254Y-87714631D01*
X115279249Y-87714630D01*
X115100004Y-87694435D01*
X115099996Y-87694435D01*
X114920750Y-87714630D01*
X114920745Y-87714631D01*
X114750476Y-87774211D01*
X114597737Y-87870184D01*
X114470184Y-87997737D01*
X114374211Y-88150476D01*
X114314631Y-88320745D01*
X114314630Y-88320750D01*
X114294435Y-88499996D01*
X106138520Y-88499996D01*
X106160272Y-88400003D01*
X106185195Y-88285433D01*
X106185195Y-88285432D01*
X106185196Y-88285428D01*
X106205610Y-88000000D01*
X106204596Y-87985828D01*
X106196325Y-87870184D01*
X106185196Y-87714572D01*
X106180815Y-87694435D01*
X106124371Y-87434962D01*
X106124370Y-87434960D01*
X106124369Y-87434954D01*
X106024367Y-87166839D01*
X105936809Y-87006490D01*
X105887229Y-86915690D01*
X105887224Y-86915682D01*
X105715745Y-86686612D01*
X105715729Y-86686594D01*
X105513405Y-86484270D01*
X105513387Y-86484254D01*
X105284317Y-86312775D01*
X105284309Y-86312770D01*
X105049877Y-86184760D01*
X115984893Y-86184760D01*
X115984893Y-86184767D01*
X116005088Y-86364013D01*
X116005089Y-86364018D01*
X116064669Y-86534287D01*
X116124950Y-86630223D01*
X116160642Y-86687026D01*
X116288196Y-86814580D01*
X116440936Y-86910553D01*
X116455617Y-86915690D01*
X116611203Y-86970132D01*
X116611208Y-86970133D01*
X116790454Y-86990329D01*
X116790458Y-86990329D01*
X116790462Y-86990329D01*
X116969707Y-86970133D01*
X116969710Y-86970132D01*
X116969713Y-86970132D01*
X117139980Y-86910553D01*
X117292720Y-86814580D01*
X117420274Y-86687026D01*
X117516247Y-86534286D01*
X117575826Y-86364019D01*
X117581600Y-86312774D01*
X117596023Y-86184767D01*
X117596023Y-86184760D01*
X117575827Y-86005514D01*
X117575826Y-86005509D01*
X117530177Y-85875051D01*
X117516247Y-85835242D01*
X117494100Y-85799996D01*
X121394429Y-85799996D01*
X121394429Y-85800003D01*
X121414624Y-85979249D01*
X121414625Y-85979254D01*
X121474205Y-86149523D01*
X121570172Y-86302253D01*
X121570178Y-86302262D01*
X121697732Y-86429816D01*
X121784381Y-86484261D01*
X121850457Y-86525780D01*
X121850472Y-86525789D01*
X121978660Y-86570644D01*
X122020739Y-86585368D01*
X122020744Y-86585369D01*
X122199990Y-86605565D01*
X122199994Y-86605565D01*
X122199998Y-86605565D01*
X122379243Y-86585369D01*
X122379246Y-86585368D01*
X122379249Y-86585368D01*
X122549516Y-86525789D01*
X122702256Y-86429816D01*
X122829810Y-86302262D01*
X122925783Y-86149522D01*
X122985362Y-85979255D01*
X122985364Y-85979240D01*
X123005559Y-85800003D01*
X123005559Y-85799996D01*
X123005558Y-85799987D01*
X139594426Y-85799987D01*
X139594426Y-85799994D01*
X139614621Y-85979240D01*
X139614622Y-85979245D01*
X139674202Y-86149514D01*
X139770175Y-86302253D01*
X139897729Y-86429807D01*
X140050469Y-86525780D01*
X140178677Y-86570642D01*
X140220736Y-86585359D01*
X140220741Y-86585360D01*
X140399987Y-86605556D01*
X140399991Y-86605556D01*
X140399995Y-86605556D01*
X140579240Y-86585360D01*
X140579243Y-86585359D01*
X140579246Y-86585359D01*
X140749513Y-86525780D01*
X140902253Y-86429807D01*
X141029807Y-86302253D01*
X141125780Y-86149513D01*
X141185359Y-85979246D01*
X141185360Y-85979240D01*
X141205556Y-85799994D01*
X141205556Y-85799987D01*
X141185360Y-85620741D01*
X141185359Y-85620736D01*
X141125779Y-85450467D01*
X141080998Y-85379199D01*
X141029807Y-85297729D01*
X140902253Y-85170175D01*
X140749514Y-85074202D01*
X140579245Y-85014622D01*
X140579240Y-85014621D01*
X140399995Y-84994426D01*
X140399987Y-84994426D01*
X140220741Y-85014621D01*
X140220736Y-85014622D01*
X140050467Y-85074202D01*
X139897728Y-85170175D01*
X139770175Y-85297728D01*
X139674202Y-85450467D01*
X139614622Y-85620736D01*
X139614621Y-85620741D01*
X139594426Y-85799987D01*
X123005558Y-85799987D01*
X122985363Y-85620750D01*
X122985362Y-85620745D01*
X122925782Y-85450476D01*
X122829809Y-85297737D01*
X122702256Y-85170184D01*
X122549517Y-85074211D01*
X122379248Y-85014631D01*
X122379243Y-85014630D01*
X122199998Y-84994435D01*
X122199990Y-84994435D01*
X122020744Y-85014630D01*
X122020739Y-85014631D01*
X121850470Y-85074211D01*
X121697731Y-85170184D01*
X121570178Y-85297737D01*
X121474205Y-85450476D01*
X121414625Y-85620745D01*
X121414624Y-85620750D01*
X121394429Y-85799996D01*
X117494100Y-85799996D01*
X117420273Y-85682501D01*
X117292720Y-85554948D01*
X117139981Y-85458975D01*
X116969712Y-85399395D01*
X116969707Y-85399394D01*
X116790462Y-85379199D01*
X116790454Y-85379199D01*
X116611208Y-85399394D01*
X116611203Y-85399395D01*
X116440934Y-85458975D01*
X116288195Y-85554948D01*
X116160642Y-85682501D01*
X116064669Y-85835240D01*
X116005089Y-86005509D01*
X116005088Y-86005514D01*
X115984893Y-86184760D01*
X105049877Y-86184760D01*
X105033166Y-86175635D01*
X105033167Y-86175635D01*
X104925915Y-86135632D01*
X104765046Y-86075631D01*
X104765043Y-86075630D01*
X104765037Y-86075628D01*
X104485433Y-86014804D01*
X104200001Y-85994390D01*
X104199999Y-85994390D01*
X103914566Y-86014804D01*
X103634962Y-86075628D01*
X103366833Y-86175635D01*
X103115690Y-86312770D01*
X103115682Y-86312775D01*
X102886612Y-86484254D01*
X102886594Y-86484270D01*
X102684270Y-86686594D01*
X102684254Y-86686612D01*
X102512775Y-86915682D01*
X102512770Y-86915690D01*
X102375635Y-87166833D01*
X102275628Y-87434962D01*
X102214804Y-87714566D01*
X102194390Y-87999998D01*
X96500500Y-87999998D01*
X96500500Y-79613713D01*
X97804500Y-79613713D01*
X97804500Y-79826286D01*
X97820259Y-79925788D01*
X97837754Y-80036243D01*
X97865660Y-80122129D01*
X97903444Y-80238414D01*
X97999951Y-80427820D01*
X98124890Y-80599786D01*
X98275209Y-80750105D01*
X98275214Y-80750109D01*
X98439793Y-80869682D01*
X98482459Y-80925011D01*
X98488438Y-80994625D01*
X98455833Y-81056420D01*
X98439793Y-81070318D01*
X98275214Y-81189890D01*
X98275209Y-81189894D01*
X98124890Y-81340213D01*
X97999951Y-81512179D01*
X97903444Y-81701585D01*
X97837753Y-81903760D01*
X97804500Y-82113713D01*
X97804500Y-82326287D01*
X97837754Y-82536243D01*
X97865210Y-82620745D01*
X97903444Y-82738414D01*
X97999951Y-82927820D01*
X98124890Y-83099786D01*
X98275209Y-83250105D01*
X98275214Y-83250109D01*
X98439793Y-83369682D01*
X98482459Y-83425011D01*
X98488438Y-83494625D01*
X98455833Y-83556420D01*
X98439793Y-83570318D01*
X98275214Y-83689890D01*
X98275209Y-83689894D01*
X98124890Y-83840213D01*
X97999951Y-84012179D01*
X97903444Y-84201585D01*
X97837753Y-84403760D01*
X97804500Y-84613713D01*
X97804500Y-84826286D01*
X97834329Y-85014623D01*
X97837754Y-85036243D01*
X97881274Y-85170184D01*
X97903444Y-85238414D01*
X97999951Y-85427820D01*
X98124890Y-85599786D01*
X98275213Y-85750109D01*
X98447179Y-85875048D01*
X98447181Y-85875049D01*
X98447184Y-85875051D01*
X98636588Y-85971557D01*
X98838757Y-86037246D01*
X99048713Y-86070500D01*
X99048714Y-86070500D01*
X99511286Y-86070500D01*
X99511287Y-86070500D01*
X99721243Y-86037246D01*
X99923412Y-85971557D01*
X100112816Y-85875051D01*
X100167612Y-85835240D01*
X100284786Y-85750109D01*
X100284788Y-85750106D01*
X100284792Y-85750104D01*
X100435104Y-85599792D01*
X100435106Y-85599788D01*
X100435109Y-85599786D01*
X100560048Y-85427820D01*
X100560047Y-85427820D01*
X100560051Y-85427816D01*
X100656557Y-85238412D01*
X100722246Y-85036243D01*
X100755500Y-84826287D01*
X100755500Y-84613713D01*
X100722246Y-84403757D01*
X100656557Y-84201588D01*
X100560051Y-84012184D01*
X100560049Y-84012181D01*
X100560048Y-84012179D01*
X100496712Y-83925004D01*
X116794435Y-83925004D01*
X116794435Y-83925011D01*
X116814630Y-84104257D01*
X116814631Y-84104262D01*
X116874211Y-84274531D01*
X116955410Y-84403757D01*
X116970184Y-84427270D01*
X117097738Y-84554824D01*
X117250478Y-84650797D01*
X117420745Y-84710376D01*
X117420750Y-84710377D01*
X117599996Y-84730573D01*
X117600000Y-84730573D01*
X117600004Y-84730573D01*
X117779249Y-84710377D01*
X117779252Y-84710376D01*
X117779255Y-84710376D01*
X117949522Y-84650797D01*
X118102262Y-84554824D01*
X118229816Y-84427270D01*
X118325789Y-84274530D01*
X118385368Y-84104263D01*
X118395743Y-84012184D01*
X118405565Y-83925011D01*
X118405565Y-83925004D01*
X118385369Y-83745758D01*
X118385368Y-83745753D01*
X118325789Y-83575486D01*
X118322542Y-83570319D01*
X118234258Y-83429816D01*
X118229816Y-83422746D01*
X118102262Y-83295192D01*
X118030505Y-83250104D01*
X117949523Y-83199219D01*
X117779254Y-83139639D01*
X117779249Y-83139638D01*
X117600004Y-83119443D01*
X117599996Y-83119443D01*
X117420750Y-83139638D01*
X117420745Y-83139639D01*
X117250476Y-83199219D01*
X117097737Y-83295192D01*
X116970184Y-83422745D01*
X116874211Y-83575484D01*
X116814631Y-83745753D01*
X116814630Y-83745758D01*
X116794435Y-83925004D01*
X100496712Y-83925004D01*
X100435109Y-83840213D01*
X100284792Y-83689896D01*
X100284784Y-83689890D01*
X100120204Y-83570316D01*
X100077540Y-83514989D01*
X100071561Y-83445376D01*
X100104166Y-83383580D01*
X100120199Y-83369686D01*
X100284792Y-83250104D01*
X100435104Y-83099792D01*
X100435106Y-83099788D01*
X100435109Y-83099786D01*
X100560048Y-82927820D01*
X100560047Y-82927820D01*
X100560051Y-82927816D01*
X100625178Y-82799996D01*
X107394435Y-82799996D01*
X107394435Y-82800003D01*
X107414630Y-82979249D01*
X107414631Y-82979254D01*
X107474211Y-83149523D01*
X107537414Y-83250109D01*
X107570184Y-83302262D01*
X107697738Y-83429816D01*
X107850478Y-83525789D01*
X107992498Y-83575484D01*
X108020745Y-83585368D01*
X108020750Y-83585369D01*
X108199996Y-83605565D01*
X108200000Y-83605565D01*
X108200004Y-83605565D01*
X108379249Y-83585369D01*
X108379252Y-83585368D01*
X108379255Y-83585368D01*
X108549522Y-83525789D01*
X108702262Y-83429816D01*
X108829816Y-83302262D01*
X108925789Y-83149522D01*
X108985368Y-82979255D01*
X108985369Y-82979249D01*
X109005565Y-82800003D01*
X109005565Y-82799996D01*
X108985369Y-82620750D01*
X108985368Y-82620745D01*
X108925788Y-82450476D01*
X108881033Y-82379249D01*
X108829816Y-82297738D01*
X108732074Y-82199996D01*
X124194435Y-82199996D01*
X124194435Y-82200003D01*
X124214630Y-82379249D01*
X124214631Y-82379254D01*
X124274211Y-82549523D01*
X124370184Y-82702262D01*
X124497738Y-82829816D01*
X124650478Y-82925789D01*
X124803258Y-82979249D01*
X124820745Y-82985368D01*
X124820750Y-82985369D01*
X124999996Y-83005565D01*
X125000000Y-83005565D01*
X125000004Y-83005565D01*
X125179249Y-82985369D01*
X125179252Y-82985368D01*
X125179255Y-82985368D01*
X125349522Y-82925789D01*
X125502262Y-82829816D01*
X125629816Y-82702262D01*
X125725789Y-82549522D01*
X125785368Y-82379255D01*
X125805565Y-82200000D01*
X125791392Y-82074211D01*
X125785369Y-82020750D01*
X125785368Y-82020745D01*
X125725788Y-81850476D01*
X125629815Y-81697737D01*
X125502262Y-81570184D01*
X125349523Y-81474211D01*
X125179254Y-81414631D01*
X125179249Y-81414630D01*
X125000004Y-81394435D01*
X124999996Y-81394435D01*
X124820750Y-81414630D01*
X124820745Y-81414631D01*
X124650476Y-81474211D01*
X124497737Y-81570184D01*
X124370184Y-81697737D01*
X124274211Y-81850476D01*
X124214631Y-82020745D01*
X124214630Y-82020750D01*
X124194435Y-82199996D01*
X108732074Y-82199996D01*
X108702262Y-82170184D01*
X108701969Y-82170000D01*
X108549523Y-82074211D01*
X108379254Y-82014631D01*
X108379249Y-82014630D01*
X108200004Y-81994435D01*
X108199996Y-81994435D01*
X108020750Y-82014630D01*
X108020745Y-82014631D01*
X107850476Y-82074211D01*
X107697737Y-82170184D01*
X107570184Y-82297737D01*
X107474211Y-82450476D01*
X107414631Y-82620745D01*
X107414630Y-82620750D01*
X107394435Y-82799996D01*
X100625178Y-82799996D01*
X100656557Y-82738412D01*
X100722246Y-82536243D01*
X100755500Y-82326287D01*
X100755500Y-82113713D01*
X100722246Y-81903757D01*
X100656557Y-81701588D01*
X100560051Y-81512184D01*
X100560049Y-81512181D01*
X100560048Y-81512179D01*
X100435109Y-81340213D01*
X100284792Y-81189896D01*
X100284784Y-81189890D01*
X100120204Y-81070316D01*
X100077540Y-81014989D01*
X100071561Y-80945376D01*
X100104166Y-80883580D01*
X100120199Y-80869686D01*
X100284792Y-80750104D01*
X100435104Y-80599792D01*
X100435106Y-80599788D01*
X100435109Y-80599786D01*
X100560048Y-80427820D01*
X100560047Y-80427820D01*
X100560051Y-80427816D01*
X100656557Y-80238412D01*
X100694338Y-80122135D01*
X153999500Y-80122135D01*
X153999500Y-83717870D01*
X153999501Y-83717876D01*
X154005908Y-83777483D01*
X154056202Y-83912328D01*
X154056206Y-83912335D01*
X154142452Y-84027544D01*
X154142455Y-84027547D01*
X154257664Y-84113793D01*
X154257671Y-84113797D01*
X154392517Y-84164091D01*
X154392516Y-84164091D01*
X154399444Y-84164835D01*
X154452127Y-84170500D01*
X158047872Y-84170499D01*
X158107483Y-84164091D01*
X158242331Y-84113796D01*
X158357546Y-84027546D01*
X158443796Y-83912331D01*
X158494091Y-83777483D01*
X158500500Y-83717873D01*
X158500499Y-80855803D01*
X160250000Y-80855803D01*
X160250000Y-81670000D01*
X161750000Y-81670000D01*
X161750000Y-82170000D01*
X160250001Y-82170000D01*
X160250001Y-82984197D01*
X160260400Y-83116332D01*
X160315377Y-83334519D01*
X160408428Y-83539374D01*
X160408431Y-83539380D01*
X160536559Y-83724323D01*
X160536569Y-83724335D01*
X160695664Y-83883430D01*
X160695676Y-83883440D01*
X160880619Y-84011568D01*
X160880625Y-84011571D01*
X161085480Y-84104622D01*
X161303667Y-84159599D01*
X161435810Y-84169999D01*
X161999999Y-84169999D01*
X162000000Y-84169998D01*
X162000000Y-83353012D01*
X162057007Y-83385925D01*
X162184174Y-83420000D01*
X162315826Y-83420000D01*
X162442993Y-83385925D01*
X162500000Y-83353012D01*
X162500000Y-84169999D01*
X163064182Y-84169999D01*
X163064197Y-84169998D01*
X163196332Y-84159599D01*
X163414519Y-84104622D01*
X163619374Y-84011571D01*
X163619380Y-84011568D01*
X163804323Y-83883440D01*
X163804335Y-83883430D01*
X163963430Y-83724335D01*
X163963440Y-83724323D01*
X164091568Y-83539380D01*
X164091571Y-83539374D01*
X164184622Y-83334519D01*
X164239599Y-83116332D01*
X164249999Y-82984196D01*
X164250000Y-82984184D01*
X164250000Y-82170000D01*
X162750000Y-82170000D01*
X162750000Y-81670000D01*
X164249999Y-81670000D01*
X164249999Y-80855817D01*
X164249998Y-80855802D01*
X164239599Y-80723667D01*
X164184622Y-80505480D01*
X164091571Y-80300625D01*
X164091568Y-80300619D01*
X163963440Y-80115676D01*
X163963430Y-80115664D01*
X163804335Y-79956569D01*
X163804323Y-79956559D01*
X163619380Y-79828431D01*
X163619374Y-79828428D01*
X163414519Y-79735377D01*
X163196332Y-79680400D01*
X163064196Y-79670000D01*
X162500000Y-79670000D01*
X162500000Y-80486988D01*
X162442993Y-80454075D01*
X162315826Y-80420000D01*
X162184174Y-80420000D01*
X162057007Y-80454075D01*
X162000000Y-80486988D01*
X162000000Y-79670000D01*
X161435817Y-79670000D01*
X161435802Y-79670001D01*
X161303667Y-79680400D01*
X161085480Y-79735377D01*
X160880625Y-79828428D01*
X160880619Y-79828431D01*
X160695676Y-79956559D01*
X160695664Y-79956569D01*
X160536569Y-80115664D01*
X160536559Y-80115676D01*
X160408431Y-80300619D01*
X160408428Y-80300625D01*
X160315377Y-80505480D01*
X160260400Y-80723667D01*
X160250000Y-80855803D01*
X158500499Y-80855803D01*
X158500499Y-80122128D01*
X158494091Y-80062517D01*
X158484291Y-80036243D01*
X158443797Y-79927671D01*
X158443793Y-79927664D01*
X158357547Y-79812455D01*
X158357544Y-79812452D01*
X158242335Y-79726206D01*
X158242328Y-79726202D01*
X158195061Y-79708573D01*
X158139127Y-79666702D01*
X158114710Y-79601238D01*
X158129562Y-79532965D01*
X158178967Y-79483559D01*
X158244972Y-79468566D01*
X158258053Y-79469261D01*
X158281349Y-79470499D01*
X158281369Y-79470499D01*
X158281378Y-79470500D01*
X158281386Y-79470500D01*
X160218614Y-79470500D01*
X160218622Y-79470500D01*
X160271241Y-79467705D01*
X160501126Y-79423245D01*
X160720190Y-79340574D01*
X160922132Y-79222070D01*
X160946425Y-79201588D01*
X161101141Y-79071143D01*
X161101143Y-79071141D01*
X161252065Y-78892138D01*
X161252065Y-78892137D01*
X161252070Y-78892132D01*
X161370574Y-78690190D01*
X161453245Y-78471126D01*
X161497705Y-78241241D01*
X161500500Y-78188622D01*
X161500500Y-76251378D01*
X161497705Y-76198759D01*
X161453245Y-75968874D01*
X161370574Y-75749810D01*
X161252070Y-75547868D01*
X161252065Y-75547861D01*
X161101143Y-75368858D01*
X161101141Y-75368856D01*
X160922138Y-75217934D01*
X160922131Y-75217929D01*
X160720189Y-75099425D01*
X160629832Y-75065326D01*
X160501126Y-75016755D01*
X160501121Y-75016754D01*
X160271243Y-74972295D01*
X160218652Y-74969501D01*
X160218629Y-74969500D01*
X160218622Y-74969500D01*
X158281378Y-74969500D01*
X158281370Y-74969500D01*
X158281347Y-74969501D01*
X158228756Y-74972295D01*
X158228755Y-74972295D01*
X157998878Y-75016754D01*
X157998876Y-75016754D01*
X157998874Y-75016755D01*
X157924933Y-75044659D01*
X157779810Y-75099425D01*
X157577868Y-75217929D01*
X157577861Y-75217934D01*
X157398858Y-75368856D01*
X157398856Y-75368858D01*
X157247934Y-75547861D01*
X157247929Y-75547868D01*
X157129425Y-75749810D01*
X157102656Y-75820745D01*
X157046755Y-75968874D01*
X157046754Y-75968876D01*
X157046754Y-75968878D01*
X157002295Y-76198755D01*
X157002295Y-76198756D01*
X156999501Y-76251347D01*
X156999500Y-76251386D01*
X156999500Y-78188613D01*
X156999501Y-78188652D01*
X157002295Y-78241243D01*
X157002295Y-78241244D01*
X157035829Y-78414631D01*
X157046755Y-78471126D01*
X157060601Y-78507815D01*
X157129425Y-78690189D01*
X157247929Y-78892131D01*
X157247934Y-78892138D01*
X157398856Y-79071141D01*
X157398858Y-79071143D01*
X157577861Y-79222065D01*
X157577868Y-79222070D01*
X157779810Y-79340574D01*
X157998874Y-79423245D01*
X158001517Y-79423756D01*
X158002537Y-79424282D01*
X158003950Y-79424683D01*
X158003868Y-79424970D01*
X158063598Y-79455814D01*
X158098493Y-79516346D01*
X158095122Y-79586134D01*
X158054556Y-79643021D01*
X157989674Y-79668946D01*
X157977969Y-79669500D01*
X154452129Y-79669500D01*
X154452123Y-79669501D01*
X154392516Y-79675908D01*
X154257671Y-79726202D01*
X154257664Y-79726206D01*
X154142455Y-79812452D01*
X154142452Y-79812455D01*
X154056206Y-79927664D01*
X154056202Y-79927671D01*
X154005908Y-80062517D01*
X153999501Y-80122116D01*
X153999501Y-80122123D01*
X153999500Y-80122135D01*
X100694338Y-80122135D01*
X100722246Y-80036243D01*
X100755500Y-79826287D01*
X100755500Y-79613713D01*
X100722246Y-79403757D01*
X100656557Y-79201588D01*
X100655746Y-79199996D01*
X128994435Y-79199996D01*
X128994435Y-79200003D01*
X129014630Y-79379249D01*
X129014631Y-79379254D01*
X129074211Y-79549523D01*
X129106706Y-79601238D01*
X129170184Y-79702262D01*
X129297738Y-79829816D01*
X129450478Y-79925789D01*
X129620745Y-79985368D01*
X129620750Y-79985369D01*
X129799996Y-80005565D01*
X129800000Y-80005565D01*
X129800004Y-80005565D01*
X129979249Y-79985369D01*
X129979252Y-79985368D01*
X129979255Y-79985368D01*
X130149522Y-79925789D01*
X130302262Y-79829816D01*
X130429816Y-79702262D01*
X130525789Y-79549522D01*
X130585368Y-79379255D01*
X130588718Y-79349522D01*
X130605565Y-79200003D01*
X130605565Y-79199996D01*
X131794435Y-79199996D01*
X131794435Y-79200003D01*
X131814630Y-79379249D01*
X131814631Y-79379254D01*
X131874211Y-79549523D01*
X131906706Y-79601238D01*
X131970184Y-79702262D01*
X132097738Y-79829816D01*
X132250478Y-79925789D01*
X132420745Y-79985368D01*
X132420750Y-79985369D01*
X132599996Y-80005565D01*
X132600000Y-80005565D01*
X132600004Y-80005565D01*
X132779249Y-79985369D01*
X132779252Y-79985368D01*
X132779255Y-79985368D01*
X132949522Y-79925789D01*
X133102262Y-79829816D01*
X133229816Y-79702262D01*
X133325789Y-79549522D01*
X133385368Y-79379255D01*
X133388718Y-79349522D01*
X133405565Y-79200003D01*
X133405565Y-79199996D01*
X133385369Y-79020750D01*
X133385368Y-79020745D01*
X133378108Y-78999996D01*
X135194435Y-78999996D01*
X135194435Y-79000003D01*
X135214630Y-79179249D01*
X135214631Y-79179254D01*
X135274211Y-79349523D01*
X135358432Y-79483559D01*
X135370184Y-79502262D01*
X135497738Y-79629816D01*
X135650478Y-79725789D01*
X135820745Y-79785368D01*
X135820750Y-79785369D01*
X135999996Y-79805565D01*
X136000000Y-79805565D01*
X136000004Y-79805565D01*
X136179249Y-79785369D01*
X136179252Y-79785368D01*
X136179255Y-79785368D01*
X136349522Y-79725789D01*
X136502262Y-79629816D01*
X136629816Y-79502262D01*
X136725789Y-79349522D01*
X136785368Y-79179255D01*
X136785369Y-79179249D01*
X136805565Y-79000003D01*
X136805565Y-78999996D01*
X136785369Y-78820750D01*
X136785368Y-78820745D01*
X136725789Y-78650478D01*
X136629816Y-78497738D01*
X136502262Y-78370184D01*
X136501173Y-78369500D01*
X136349523Y-78274211D01*
X136179254Y-78214631D01*
X136179249Y-78214630D01*
X136000004Y-78194435D01*
X135999996Y-78194435D01*
X135820750Y-78214630D01*
X135820745Y-78214631D01*
X135650476Y-78274211D01*
X135497737Y-78370184D01*
X135370184Y-78497737D01*
X135274211Y-78650476D01*
X135214631Y-78820745D01*
X135214630Y-78820750D01*
X135194435Y-78999996D01*
X133378108Y-78999996D01*
X133325788Y-78850476D01*
X133286582Y-78788080D01*
X133229816Y-78697738D01*
X133102262Y-78570184D01*
X133085677Y-78559763D01*
X132949523Y-78474211D01*
X132779254Y-78414631D01*
X132779249Y-78414630D01*
X132600004Y-78394435D01*
X132599996Y-78394435D01*
X132420750Y-78414630D01*
X132420745Y-78414631D01*
X132250476Y-78474211D01*
X132097737Y-78570184D01*
X131970184Y-78697737D01*
X131874211Y-78850476D01*
X131814631Y-79020745D01*
X131814630Y-79020750D01*
X131794435Y-79199996D01*
X130605565Y-79199996D01*
X130585369Y-79020750D01*
X130585368Y-79020745D01*
X130525788Y-78850476D01*
X130486582Y-78788080D01*
X130429816Y-78697738D01*
X130302262Y-78570184D01*
X130285677Y-78559763D01*
X130149523Y-78474211D01*
X129979254Y-78414631D01*
X129979249Y-78414630D01*
X129800004Y-78394435D01*
X129799996Y-78394435D01*
X129620750Y-78414630D01*
X129620745Y-78414631D01*
X129450476Y-78474211D01*
X129297737Y-78570184D01*
X129170184Y-78697737D01*
X129074211Y-78850476D01*
X129014631Y-79020745D01*
X129014630Y-79020750D01*
X128994435Y-79199996D01*
X100655746Y-79199996D01*
X100560051Y-79012184D01*
X100560049Y-79012181D01*
X100560048Y-79012179D01*
X100435109Y-78840213D01*
X100295931Y-78701035D01*
X100262446Y-78639712D01*
X100267430Y-78570020D01*
X100309302Y-78514087D01*
X100318516Y-78507815D01*
X100473343Y-78412317D01*
X100597315Y-78288345D01*
X100689356Y-78139124D01*
X100689358Y-78139119D01*
X100744505Y-77972697D01*
X100744506Y-77972690D01*
X100754999Y-77869986D01*
X100755000Y-77869973D01*
X100755000Y-77470000D01*
X99684146Y-77470000D01*
X99722630Y-77403343D01*
X99755000Y-77282535D01*
X99755000Y-77157465D01*
X99722630Y-77036657D01*
X99684146Y-76970000D01*
X100754999Y-76970000D01*
X100754999Y-76570028D01*
X100754998Y-76570013D01*
X100744505Y-76467302D01*
X100689358Y-76300880D01*
X100689356Y-76300875D01*
X100597315Y-76151654D01*
X100473345Y-76027684D01*
X100324124Y-75935643D01*
X100324119Y-75935641D01*
X100157697Y-75880494D01*
X100157690Y-75880493D01*
X100054986Y-75870000D01*
X99530000Y-75870000D01*
X99530000Y-76815854D01*
X99463343Y-76777370D01*
X99342535Y-76745000D01*
X99217465Y-76745000D01*
X99096657Y-76777370D01*
X99030000Y-76815854D01*
X99030000Y-75870000D01*
X98505028Y-75870000D01*
X98505012Y-75870001D01*
X98402302Y-75880494D01*
X98235880Y-75935641D01*
X98235875Y-75935643D01*
X98086654Y-76027684D01*
X97962684Y-76151654D01*
X97870643Y-76300875D01*
X97870641Y-76300880D01*
X97815494Y-76467302D01*
X97815493Y-76467309D01*
X97805000Y-76570013D01*
X97805000Y-76970000D01*
X98875854Y-76970000D01*
X98837370Y-77036657D01*
X98805000Y-77157465D01*
X98805000Y-77282535D01*
X98837370Y-77403343D01*
X98875854Y-77470000D01*
X97805001Y-77470000D01*
X97805001Y-77869986D01*
X97815494Y-77972697D01*
X97870641Y-78139119D01*
X97870643Y-78139124D01*
X97962684Y-78288345D01*
X98086654Y-78412315D01*
X98241484Y-78507815D01*
X98288208Y-78559763D01*
X98299431Y-78628726D01*
X98271587Y-78692808D01*
X98264069Y-78701035D01*
X98124889Y-78840215D01*
X97999951Y-79012179D01*
X97903444Y-79201585D01*
X97837753Y-79403760D01*
X97804500Y-79613713D01*
X96500500Y-79613713D01*
X96500500Y-73799998D01*
X102194891Y-73799998D01*
X102194891Y-73800001D01*
X102215300Y-74085362D01*
X102276109Y-74364895D01*
X102376091Y-74632958D01*
X102513191Y-74884038D01*
X102513196Y-74884046D01*
X102619882Y-75026561D01*
X102619883Y-75026562D01*
X103484152Y-74162292D01*
X103491049Y-74178942D01*
X103578599Y-74309970D01*
X103690030Y-74421401D01*
X103821058Y-74508951D01*
X103837705Y-74515846D01*
X102973436Y-75380115D01*
X103115960Y-75486807D01*
X103115961Y-75486808D01*
X103367042Y-75623908D01*
X103367041Y-75623908D01*
X103635104Y-75723890D01*
X103914637Y-75784699D01*
X104199999Y-75805109D01*
X104200001Y-75805109D01*
X104485362Y-75784699D01*
X104764895Y-75723890D01*
X105032958Y-75623908D01*
X105284047Y-75486803D01*
X105426561Y-75380116D01*
X105426562Y-75380115D01*
X104562294Y-74515846D01*
X104578942Y-74508951D01*
X104709970Y-74421401D01*
X104821401Y-74309970D01*
X104908951Y-74178942D01*
X104915846Y-74162293D01*
X105780115Y-75026562D01*
X105780116Y-75026561D01*
X105886803Y-74884047D01*
X106023908Y-74632958D01*
X106036202Y-74599996D01*
X109794435Y-74599996D01*
X109794435Y-74600003D01*
X109814630Y-74779249D01*
X109814631Y-74779254D01*
X109874211Y-74949523D01*
X109937646Y-75050478D01*
X109970184Y-75102262D01*
X110097738Y-75229816D01*
X110250478Y-75325789D01*
X110373562Y-75368858D01*
X110420745Y-75385368D01*
X110420750Y-75385369D01*
X110599996Y-75405565D01*
X110600000Y-75405565D01*
X110600004Y-75405565D01*
X110649430Y-75399996D01*
X111751911Y-75399996D01*
X111751911Y-75400003D01*
X111772106Y-75579249D01*
X111772107Y-75579254D01*
X111831687Y-75749523D01*
X111907388Y-75870000D01*
X111927660Y-75902262D01*
X112055214Y-76029816D01*
X112207954Y-76125789D01*
X112281872Y-76151654D01*
X112378221Y-76185368D01*
X112378226Y-76185369D01*
X112557472Y-76205565D01*
X112557476Y-76205565D01*
X112557480Y-76205565D01*
X112736725Y-76185369D01*
X112736728Y-76185368D01*
X112736731Y-76185368D01*
X112906998Y-76125789D01*
X113059738Y-76029816D01*
X113089558Y-75999996D01*
X139194435Y-75999996D01*
X139194435Y-76000003D01*
X139214630Y-76179249D01*
X139214631Y-76179254D01*
X139274211Y-76349523D01*
X139370184Y-76502262D01*
X139497738Y-76629816D01*
X139650478Y-76725789D01*
X139705380Y-76745000D01*
X139820745Y-76785368D01*
X139820750Y-76785369D01*
X139999996Y-76805565D01*
X140000000Y-76805565D01*
X140000004Y-76805565D01*
X140179249Y-76785369D01*
X140179252Y-76785368D01*
X140179255Y-76785368D01*
X140349522Y-76725789D01*
X140502262Y-76629816D01*
X140629816Y-76502262D01*
X140725789Y-76349522D01*
X140785368Y-76179255D01*
X140791392Y-76125789D01*
X140805565Y-76000003D01*
X140805565Y-75999996D01*
X140785369Y-75820750D01*
X140785368Y-75820745D01*
X140725788Y-75650476D01*
X140629815Y-75497737D01*
X140502262Y-75370184D01*
X140349523Y-75274211D01*
X140179254Y-75214631D01*
X140179249Y-75214630D01*
X140000004Y-75194435D01*
X139999996Y-75194435D01*
X139820750Y-75214630D01*
X139820745Y-75214631D01*
X139650476Y-75274211D01*
X139497737Y-75370184D01*
X139370184Y-75497737D01*
X139274211Y-75650476D01*
X139214631Y-75820745D01*
X139214630Y-75820750D01*
X139194435Y-75999996D01*
X113089558Y-75999996D01*
X113187292Y-75902262D01*
X113283265Y-75749522D01*
X113342844Y-75579255D01*
X113342845Y-75579249D01*
X113363041Y-75400003D01*
X113363041Y-75399996D01*
X113342845Y-75220750D01*
X113342844Y-75220745D01*
X113301385Y-75102262D01*
X113283265Y-75050478D01*
X113267326Y-75025112D01*
X113187291Y-74897737D01*
X113059738Y-74770184D01*
X112909186Y-74675585D01*
X114131183Y-74675585D01*
X114131183Y-74675592D01*
X114151378Y-74854838D01*
X114151379Y-74854843D01*
X114210959Y-75025112D01*
X114257654Y-75099426D01*
X114306932Y-75177851D01*
X114434486Y-75305405D01*
X114466927Y-75325789D01*
X114585037Y-75400003D01*
X114587226Y-75401378D01*
X114684364Y-75435368D01*
X114757493Y-75460957D01*
X114757498Y-75460958D01*
X114936744Y-75481154D01*
X114936748Y-75481154D01*
X114936752Y-75481154D01*
X115115997Y-75460958D01*
X115116000Y-75460957D01*
X115116003Y-75460957D01*
X115286270Y-75401378D01*
X115439010Y-75305405D01*
X115566564Y-75177851D01*
X115662537Y-75025111D01*
X115722116Y-74854844D01*
X115724999Y-74829255D01*
X115742313Y-74675592D01*
X115742313Y-74675585D01*
X115739430Y-74649996D01*
X118994435Y-74649996D01*
X118994435Y-74650003D01*
X119014630Y-74829249D01*
X119014631Y-74829254D01*
X119074211Y-74999523D01*
X119136984Y-75099425D01*
X119170184Y-75152262D01*
X119297738Y-75279816D01*
X119338461Y-75305404D01*
X119441557Y-75370184D01*
X119450478Y-75375789D01*
X119535573Y-75405565D01*
X119620745Y-75435368D01*
X119620750Y-75435369D01*
X119799996Y-75455565D01*
X119800000Y-75455565D01*
X119800004Y-75455565D01*
X119979249Y-75435369D01*
X119979252Y-75435368D01*
X119979255Y-75435368D01*
X120149522Y-75375789D01*
X120302262Y-75279816D01*
X120429816Y-75152262D01*
X120525789Y-74999522D01*
X120585368Y-74829255D01*
X120585369Y-74829249D01*
X120605565Y-74650003D01*
X120605565Y-74649996D01*
X120585369Y-74470750D01*
X120585368Y-74470745D01*
X120548329Y-74364895D01*
X120525789Y-74300478D01*
X120429816Y-74147738D01*
X120302262Y-74020184D01*
X120270144Y-74000003D01*
X120270133Y-73999996D01*
X127194435Y-73999996D01*
X127194435Y-74000003D01*
X127214630Y-74179249D01*
X127214631Y-74179254D01*
X127274211Y-74349523D01*
X127350384Y-74470750D01*
X127370184Y-74502262D01*
X127497738Y-74629816D01*
X127650478Y-74725789D01*
X127777352Y-74770184D01*
X127820745Y-74785368D01*
X127820750Y-74785369D01*
X127999996Y-74805565D01*
X128000000Y-74805565D01*
X128000004Y-74805565D01*
X128179249Y-74785369D01*
X128179252Y-74785368D01*
X128179255Y-74785368D01*
X128349522Y-74725789D01*
X128502262Y-74629816D01*
X128629816Y-74502262D01*
X128725789Y-74349522D01*
X128785368Y-74179255D01*
X128785369Y-74179249D01*
X128805565Y-74000003D01*
X128805565Y-73999996D01*
X128785369Y-73820750D01*
X128785368Y-73820745D01*
X128725788Y-73650476D01*
X128662354Y-73549522D01*
X128629816Y-73497738D01*
X128502262Y-73370184D01*
X128469379Y-73349522D01*
X128349523Y-73274211D01*
X128179254Y-73214631D01*
X128179249Y-73214630D01*
X128000004Y-73194435D01*
X127999996Y-73194435D01*
X127820750Y-73214630D01*
X127820745Y-73214631D01*
X127650476Y-73274211D01*
X127497737Y-73370184D01*
X127370184Y-73497737D01*
X127274211Y-73650476D01*
X127214631Y-73820745D01*
X127214630Y-73820750D01*
X127194435Y-73999996D01*
X120270133Y-73999996D01*
X120149523Y-73924211D01*
X119979254Y-73864631D01*
X119979249Y-73864630D01*
X119800004Y-73844435D01*
X119799996Y-73844435D01*
X119620750Y-73864630D01*
X119620745Y-73864631D01*
X119450476Y-73924211D01*
X119297737Y-74020184D01*
X119170184Y-74147737D01*
X119074211Y-74300476D01*
X119014631Y-74470745D01*
X119014630Y-74470750D01*
X118994435Y-74649996D01*
X115739430Y-74649996D01*
X115722117Y-74496339D01*
X115722116Y-74496334D01*
X115695666Y-74420745D01*
X115662537Y-74326067D01*
X115646458Y-74300478D01*
X115615040Y-74250476D01*
X115566564Y-74173327D01*
X115439010Y-74045773D01*
X115419241Y-74033351D01*
X115286271Y-73949800D01*
X115116002Y-73890220D01*
X115115997Y-73890219D01*
X114936752Y-73870024D01*
X114936744Y-73870024D01*
X114757498Y-73890219D01*
X114757493Y-73890220D01*
X114587224Y-73949800D01*
X114434485Y-74045773D01*
X114306932Y-74173326D01*
X114210959Y-74326065D01*
X114151379Y-74496334D01*
X114151378Y-74496339D01*
X114131183Y-74675585D01*
X112909186Y-74675585D01*
X112906999Y-74674211D01*
X112736730Y-74614631D01*
X112736725Y-74614630D01*
X112557480Y-74594435D01*
X112557472Y-74594435D01*
X112378226Y-74614630D01*
X112378221Y-74614631D01*
X112207952Y-74674211D01*
X112055213Y-74770184D01*
X111927660Y-74897737D01*
X111831687Y-75050476D01*
X111772107Y-75220745D01*
X111772106Y-75220750D01*
X111751911Y-75399996D01*
X110649430Y-75399996D01*
X110779249Y-75385369D01*
X110779252Y-75385368D01*
X110779255Y-75385368D01*
X110949522Y-75325789D01*
X111102262Y-75229816D01*
X111229816Y-75102262D01*
X111325789Y-74949522D01*
X111385368Y-74779255D01*
X111391392Y-74725789D01*
X111405565Y-74600003D01*
X111405565Y-74599996D01*
X111385369Y-74420750D01*
X111385368Y-74420745D01*
X111325788Y-74250476D01*
X111229815Y-74097737D01*
X111102262Y-73970184D01*
X110949523Y-73874211D01*
X110779254Y-73814631D01*
X110779249Y-73814630D01*
X110600004Y-73794435D01*
X110599996Y-73794435D01*
X110420750Y-73814630D01*
X110420745Y-73814631D01*
X110250476Y-73874211D01*
X110097737Y-73970184D01*
X109970184Y-74097737D01*
X109874211Y-74250476D01*
X109814631Y-74420745D01*
X109814630Y-74420750D01*
X109794435Y-74599996D01*
X106036202Y-74599996D01*
X106123890Y-74364895D01*
X106184699Y-74085362D01*
X106205109Y-73800001D01*
X106205109Y-73799998D01*
X106184699Y-73514637D01*
X106123890Y-73235104D01*
X106023908Y-72967041D01*
X105886808Y-72715961D01*
X105886807Y-72715960D01*
X105780115Y-72573436D01*
X104915846Y-73437705D01*
X104908951Y-73421058D01*
X104821401Y-73290030D01*
X104709970Y-73178599D01*
X104578942Y-73091049D01*
X104562293Y-73084152D01*
X105246449Y-72399996D01*
X109794435Y-72399996D01*
X109794435Y-72400003D01*
X109814630Y-72579249D01*
X109814631Y-72579254D01*
X109874211Y-72749523D01*
X109937646Y-72850478D01*
X109970184Y-72902262D01*
X110097738Y-73029816D01*
X110250478Y-73125789D01*
X110318306Y-73149523D01*
X110420745Y-73185368D01*
X110420750Y-73185369D01*
X110599996Y-73205565D01*
X110600000Y-73205565D01*
X110600004Y-73205565D01*
X110779249Y-73185369D01*
X110779252Y-73185368D01*
X110779255Y-73185368D01*
X110949522Y-73125789D01*
X111102262Y-73029816D01*
X111229816Y-72902262D01*
X111294074Y-72799996D01*
X121194443Y-72799996D01*
X121194443Y-72800003D01*
X121214638Y-72979249D01*
X121214639Y-72979254D01*
X121274219Y-73149523D01*
X121315130Y-73214632D01*
X121370192Y-73302262D01*
X121497746Y-73429816D01*
X121588088Y-73486582D01*
X121632737Y-73514637D01*
X121650486Y-73525789D01*
X121718314Y-73549523D01*
X121820753Y-73585368D01*
X121820758Y-73585369D01*
X122000004Y-73605565D01*
X122000008Y-73605565D01*
X122000012Y-73605565D01*
X122179257Y-73585369D01*
X122179260Y-73585368D01*
X122179263Y-73585368D01*
X122349530Y-73525789D01*
X122502270Y-73429816D01*
X122629824Y-73302262D01*
X122725797Y-73149522D01*
X122785376Y-72979255D01*
X122791400Y-72925789D01*
X122805573Y-72800003D01*
X122805573Y-72799996D01*
X122785377Y-72620750D01*
X122785376Y-72620745D01*
X122742334Y-72497738D01*
X122725797Y-72450478D01*
X122703273Y-72414632D01*
X122629823Y-72297737D01*
X122532082Y-72199996D01*
X123794435Y-72199996D01*
X123794435Y-72200003D01*
X123814630Y-72379249D01*
X123814631Y-72379254D01*
X123874211Y-72549523D01*
X123937646Y-72650478D01*
X123970184Y-72702262D01*
X124097738Y-72829816D01*
X124250478Y-72925789D01*
X124403258Y-72979249D01*
X124420745Y-72985368D01*
X124420750Y-72985369D01*
X124599996Y-73005565D01*
X124600000Y-73005565D01*
X124600004Y-73005565D01*
X124649430Y-72999996D01*
X129194435Y-72999996D01*
X129194435Y-73000003D01*
X129214630Y-73179249D01*
X129214631Y-73179254D01*
X129274211Y-73349523D01*
X129319160Y-73421058D01*
X129370184Y-73502262D01*
X129497738Y-73629816D01*
X129588080Y-73686582D01*
X129643185Y-73721207D01*
X129650478Y-73725789D01*
X129820745Y-73785368D01*
X129820750Y-73785369D01*
X129999996Y-73805565D01*
X130000000Y-73805565D01*
X130000004Y-73805565D01*
X130179249Y-73785369D01*
X130179252Y-73785368D01*
X130179255Y-73785368D01*
X130349522Y-73725789D01*
X130502262Y-73629816D01*
X130629816Y-73502262D01*
X130725789Y-73349522D01*
X130778110Y-73199996D01*
X135594435Y-73199996D01*
X135594435Y-73200003D01*
X135614630Y-73379249D01*
X135614631Y-73379254D01*
X135674211Y-73549523D01*
X135737646Y-73650478D01*
X135770184Y-73702262D01*
X135897738Y-73829816D01*
X135961729Y-73870024D01*
X136047966Y-73924211D01*
X136050478Y-73925789D01*
X136177352Y-73970184D01*
X136220745Y-73985368D01*
X136220750Y-73985369D01*
X136399996Y-74005565D01*
X136400000Y-74005565D01*
X136400004Y-74005565D01*
X136579249Y-73985369D01*
X136579252Y-73985368D01*
X136579255Y-73985368D01*
X136749522Y-73925789D01*
X136902262Y-73829816D01*
X137029816Y-73702262D01*
X137125789Y-73549522D01*
X137185368Y-73379255D01*
X137201610Y-73235104D01*
X137205565Y-73200003D01*
X137205565Y-73199996D01*
X137185369Y-73020750D01*
X137185368Y-73020745D01*
X137125788Y-72850476D01*
X137041266Y-72715961D01*
X137029816Y-72697738D01*
X136902262Y-72570184D01*
X136869379Y-72549522D01*
X136749523Y-72474211D01*
X136579254Y-72414631D01*
X136579249Y-72414630D01*
X136400004Y-72394435D01*
X136399996Y-72394435D01*
X136220750Y-72414630D01*
X136220745Y-72414631D01*
X136050476Y-72474211D01*
X135897737Y-72570184D01*
X135770184Y-72697737D01*
X135674211Y-72850476D01*
X135614631Y-73020745D01*
X135614630Y-73020750D01*
X135594435Y-73199996D01*
X130778110Y-73199996D01*
X130785368Y-73179255D01*
X130791392Y-73125789D01*
X130805565Y-73000003D01*
X130805565Y-72999996D01*
X130785369Y-72820750D01*
X130785368Y-72820745D01*
X130742326Y-72697738D01*
X130725789Y-72650478D01*
X130707106Y-72620745D01*
X130629815Y-72497737D01*
X130502262Y-72370184D01*
X130349523Y-72274211D01*
X130179254Y-72214631D01*
X130179249Y-72214630D01*
X130000004Y-72194435D01*
X129999996Y-72194435D01*
X129820750Y-72214630D01*
X129820745Y-72214631D01*
X129650476Y-72274211D01*
X129497737Y-72370184D01*
X129370184Y-72497737D01*
X129274211Y-72650476D01*
X129214631Y-72820745D01*
X129214630Y-72820750D01*
X129194435Y-72999996D01*
X124649430Y-72999996D01*
X124779249Y-72985369D01*
X124779252Y-72985368D01*
X124779255Y-72985368D01*
X124949522Y-72925789D01*
X125102262Y-72829816D01*
X125229816Y-72702262D01*
X125325789Y-72549522D01*
X125385368Y-72379255D01*
X125403325Y-72219882D01*
X125405565Y-72200003D01*
X125405565Y-72199996D01*
X125385369Y-72020750D01*
X125385368Y-72020745D01*
X125342326Y-71897738D01*
X125325789Y-71850478D01*
X125229816Y-71697738D01*
X125102262Y-71570184D01*
X124949523Y-71474211D01*
X124779254Y-71414631D01*
X124779249Y-71414630D01*
X124600004Y-71394435D01*
X124599996Y-71394435D01*
X124420750Y-71414630D01*
X124420745Y-71414631D01*
X124250476Y-71474211D01*
X124097737Y-71570184D01*
X123970184Y-71697737D01*
X123874211Y-71850476D01*
X123814631Y-72020745D01*
X123814630Y-72020750D01*
X123794435Y-72199996D01*
X122532082Y-72199996D01*
X122502270Y-72170184D01*
X122349531Y-72074211D01*
X122179262Y-72014631D01*
X122179257Y-72014630D01*
X122000012Y-71994435D01*
X122000004Y-71994435D01*
X121820758Y-72014630D01*
X121820753Y-72014631D01*
X121650484Y-72074211D01*
X121497745Y-72170184D01*
X121370192Y-72297737D01*
X121274219Y-72450476D01*
X121214639Y-72620745D01*
X121214638Y-72620750D01*
X121194443Y-72799996D01*
X111294074Y-72799996D01*
X111325789Y-72749522D01*
X111385368Y-72579255D01*
X111399878Y-72450476D01*
X111405565Y-72400003D01*
X111405565Y-72399996D01*
X111385369Y-72220750D01*
X111385368Y-72220745D01*
X111347733Y-72113191D01*
X111325789Y-72050478D01*
X111307106Y-72020745D01*
X111286582Y-71988080D01*
X111229816Y-71897738D01*
X111102262Y-71770184D01*
X110949523Y-71674211D01*
X110779254Y-71614631D01*
X110779249Y-71614630D01*
X110600004Y-71594435D01*
X110599996Y-71594435D01*
X110420750Y-71614630D01*
X110420745Y-71614631D01*
X110250476Y-71674211D01*
X110097737Y-71770184D01*
X109970184Y-71897737D01*
X109874211Y-72050476D01*
X109814631Y-72220745D01*
X109814630Y-72220750D01*
X109794435Y-72399996D01*
X105246449Y-72399996D01*
X105426562Y-72219883D01*
X105426561Y-72219882D01*
X105284046Y-72113196D01*
X105284038Y-72113191D01*
X105032957Y-71976091D01*
X105032958Y-71976091D01*
X104764895Y-71876109D01*
X104485362Y-71815300D01*
X104200001Y-71794891D01*
X104199999Y-71794891D01*
X103914637Y-71815300D01*
X103635104Y-71876109D01*
X103367041Y-71976091D01*
X103115961Y-72113191D01*
X103115953Y-72113196D01*
X102973437Y-72219882D01*
X102973436Y-72219883D01*
X103837706Y-73084152D01*
X103821058Y-73091049D01*
X103690030Y-73178599D01*
X103578599Y-73290030D01*
X103491049Y-73421058D01*
X103484153Y-73437706D01*
X102619883Y-72573436D01*
X102619882Y-72573437D01*
X102513196Y-72715953D01*
X102513191Y-72715961D01*
X102376091Y-72967041D01*
X102276109Y-73235104D01*
X102215300Y-73514637D01*
X102194891Y-73799998D01*
X96500500Y-73799998D01*
X96500500Y-69511831D01*
X97937050Y-69511831D01*
X97937050Y-69738169D01*
X97951477Y-69829257D01*
X97972458Y-69961722D01*
X97972458Y-69961725D01*
X98042398Y-70176978D01*
X98042400Y-70176981D01*
X98145155Y-70378650D01*
X98278193Y-70561761D01*
X98438239Y-70721807D01*
X98621350Y-70854845D01*
X98823019Y-70957600D01*
X98823021Y-70957601D01*
X99023801Y-71022837D01*
X99038279Y-71027542D01*
X99261831Y-71062950D01*
X99261832Y-71062950D01*
X99488168Y-71062950D01*
X99488169Y-71062950D01*
X99711721Y-71027542D01*
X99711724Y-71027541D01*
X99711725Y-71027541D01*
X99926978Y-70957601D01*
X99926978Y-70957600D01*
X99926981Y-70957600D01*
X100128650Y-70854845D01*
X100311761Y-70721807D01*
X100471807Y-70561761D01*
X100604845Y-70378650D01*
X100707600Y-70176981D01*
X100748704Y-70050476D01*
X100777541Y-69961725D01*
X100777541Y-69961724D01*
X100777542Y-69961721D01*
X100812950Y-69738169D01*
X100812950Y-69511831D01*
X101112050Y-69511831D01*
X101112050Y-69738169D01*
X101126477Y-69829257D01*
X101147458Y-69961722D01*
X101147458Y-69961725D01*
X101217398Y-70176978D01*
X101217400Y-70176981D01*
X101320155Y-70378650D01*
X101453193Y-70561761D01*
X101613239Y-70721807D01*
X101796350Y-70854845D01*
X101998019Y-70957600D01*
X101998021Y-70957601D01*
X102198801Y-71022837D01*
X102213279Y-71027542D01*
X102436831Y-71062950D01*
X102436832Y-71062950D01*
X102663168Y-71062950D01*
X102663169Y-71062950D01*
X102886721Y-71027542D01*
X102886724Y-71027541D01*
X102886725Y-71027541D01*
X103101978Y-70957601D01*
X103101978Y-70957600D01*
X103101981Y-70957600D01*
X103303650Y-70854845D01*
X103486761Y-70721807D01*
X103646807Y-70561761D01*
X103779845Y-70378650D01*
X103882600Y-70176981D01*
X103923704Y-70050476D01*
X103952541Y-69961725D01*
X103952541Y-69961724D01*
X103952542Y-69961721D01*
X103987950Y-69738169D01*
X103987950Y-69599996D01*
X117794435Y-69599996D01*
X117794435Y-69600003D01*
X117814630Y-69779249D01*
X117814631Y-69779254D01*
X117874211Y-69949523D01*
X117937646Y-70050478D01*
X117970184Y-70102262D01*
X118097738Y-70229816D01*
X118250478Y-70325789D01*
X118401546Y-70378650D01*
X118420745Y-70385368D01*
X118420750Y-70385369D01*
X118599996Y-70405565D01*
X118600000Y-70405565D01*
X118600004Y-70405565D01*
X118779249Y-70385369D01*
X118779252Y-70385368D01*
X118779255Y-70385368D01*
X118949522Y-70325789D01*
X119102262Y-70229816D01*
X119229816Y-70102262D01*
X119325789Y-69949522D01*
X119385368Y-69779255D01*
X119386390Y-69770184D01*
X119405565Y-69600003D01*
X119405565Y-69599996D01*
X119385369Y-69420750D01*
X119385368Y-69420745D01*
X119339014Y-69288274D01*
X119325789Y-69250478D01*
X119303265Y-69214632D01*
X119262354Y-69149522D01*
X119229816Y-69097738D01*
X119102262Y-68970184D01*
X118949523Y-68874211D01*
X118779254Y-68814631D01*
X118779249Y-68814630D01*
X118649362Y-68799996D01*
X133394435Y-68799996D01*
X133394435Y-68800003D01*
X133414630Y-68979249D01*
X133414633Y-68979262D01*
X133474209Y-69149518D01*
X133474210Y-69149520D01*
X133474211Y-69149522D01*
X133480183Y-69159026D01*
X133480185Y-69159029D01*
X133499185Y-69226266D01*
X133480187Y-69290970D01*
X133474209Y-69300484D01*
X133414633Y-69470740D01*
X133414630Y-69470753D01*
X133394435Y-69649999D01*
X133394435Y-69650006D01*
X133414630Y-69829252D01*
X133414631Y-69829257D01*
X133474211Y-69999526D01*
X133506227Y-70050478D01*
X133570184Y-70152265D01*
X133697738Y-70279819D01*
X133770897Y-70325788D01*
X133808669Y-70349522D01*
X133850478Y-70375792D01*
X134020745Y-70435371D01*
X134020750Y-70435372D01*
X134199996Y-70455568D01*
X134200000Y-70455568D01*
X134200004Y-70455568D01*
X134379249Y-70435372D01*
X134379252Y-70435371D01*
X134379255Y-70435371D01*
X134480351Y-70399996D01*
X135594435Y-70399996D01*
X135594435Y-70400003D01*
X135614630Y-70579249D01*
X135614631Y-70579254D01*
X135674211Y-70749523D01*
X135696735Y-70785369D01*
X135770184Y-70902262D01*
X135897738Y-71029816D01*
X136050478Y-71125789D01*
X136220745Y-71185368D01*
X136220750Y-71185369D01*
X136399996Y-71205565D01*
X136400000Y-71205565D01*
X136400004Y-71205565D01*
X136579249Y-71185369D01*
X136579252Y-71185368D01*
X136579255Y-71185368D01*
X136749522Y-71125789D01*
X136902262Y-71029816D01*
X137029816Y-70902262D01*
X137125789Y-70749522D01*
X137185368Y-70579255D01*
X137205565Y-70400000D01*
X137203916Y-70385369D01*
X137185369Y-70220750D01*
X137185368Y-70220745D01*
X137125788Y-70050476D01*
X137094069Y-69999996D01*
X139394435Y-69999996D01*
X139394435Y-70000003D01*
X139414630Y-70179249D01*
X139414631Y-70179254D01*
X139474211Y-70349523D01*
X139528154Y-70435372D01*
X139570184Y-70502262D01*
X139697738Y-70629816D01*
X139788080Y-70686582D01*
X139844140Y-70721807D01*
X139850478Y-70725789D01*
X139918306Y-70749523D01*
X140020745Y-70785368D01*
X140020750Y-70785369D01*
X140199996Y-70805565D01*
X140200000Y-70805565D01*
X140200004Y-70805565D01*
X140379249Y-70785369D01*
X140379252Y-70785368D01*
X140379255Y-70785368D01*
X140549522Y-70725789D01*
X140702262Y-70629816D01*
X140829816Y-70502262D01*
X140925789Y-70349522D01*
X140985368Y-70179255D01*
X140985369Y-70179249D01*
X141005565Y-70000003D01*
X141005565Y-69999996D01*
X140985369Y-69820750D01*
X140985368Y-69820745D01*
X140956473Y-69738168D01*
X140925789Y-69650478D01*
X140925492Y-69650006D01*
X140829815Y-69497737D01*
X140702262Y-69370184D01*
X140549523Y-69274211D01*
X140379254Y-69214631D01*
X140379249Y-69214630D01*
X140200004Y-69194435D01*
X140199996Y-69194435D01*
X140020750Y-69214630D01*
X140020745Y-69214631D01*
X139850476Y-69274211D01*
X139697737Y-69370184D01*
X139570184Y-69497737D01*
X139474211Y-69650476D01*
X139414631Y-69820745D01*
X139414630Y-69820750D01*
X139394435Y-69999996D01*
X137094069Y-69999996D01*
X137029815Y-69897737D01*
X136902262Y-69770184D01*
X136749523Y-69674211D01*
X136579254Y-69614631D01*
X136579249Y-69614630D01*
X136400004Y-69594435D01*
X136399996Y-69594435D01*
X136220750Y-69614630D01*
X136220745Y-69614631D01*
X136050476Y-69674211D01*
X135897737Y-69770184D01*
X135770184Y-69897737D01*
X135674211Y-70050476D01*
X135614631Y-70220745D01*
X135614630Y-70220750D01*
X135594435Y-70399996D01*
X134480351Y-70399996D01*
X134549522Y-70375792D01*
X134702262Y-70279819D01*
X134829816Y-70152265D01*
X134925789Y-69999525D01*
X134985368Y-69829258D01*
X134986327Y-69820750D01*
X135005565Y-69650006D01*
X135005565Y-69649999D01*
X134985369Y-69470753D01*
X134985366Y-69470740D01*
X134925790Y-69300484D01*
X134925789Y-69300481D01*
X134919813Y-69290970D01*
X134900815Y-69223733D01*
X134919817Y-69159026D01*
X134925789Y-69149522D01*
X134985368Y-68979255D01*
X135003521Y-68818140D01*
X135005565Y-68800003D01*
X135005565Y-68799996D01*
X134985369Y-68620750D01*
X134985368Y-68620745D01*
X134952983Y-68528195D01*
X134925789Y-68450478D01*
X134829816Y-68297738D01*
X134702262Y-68170184D01*
X134631608Y-68125789D01*
X134549523Y-68074211D01*
X134379254Y-68014631D01*
X134379249Y-68014630D01*
X134200004Y-67994435D01*
X134199996Y-67994435D01*
X134020750Y-68014630D01*
X134020745Y-68014631D01*
X133850476Y-68074211D01*
X133697737Y-68170184D01*
X133570184Y-68297737D01*
X133474211Y-68450476D01*
X133414631Y-68620745D01*
X133414630Y-68620750D01*
X133394435Y-68799996D01*
X118649362Y-68799996D01*
X118600004Y-68794435D01*
X118599996Y-68794435D01*
X118420750Y-68814630D01*
X118420745Y-68814631D01*
X118250476Y-68874211D01*
X118097737Y-68970184D01*
X117970184Y-69097737D01*
X117874211Y-69250476D01*
X117814631Y-69420745D01*
X117814630Y-69420750D01*
X117794435Y-69599996D01*
X103987950Y-69599996D01*
X103987950Y-69511831D01*
X103952542Y-69288279D01*
X103952541Y-69288275D01*
X103952541Y-69288274D01*
X103882601Y-69073021D01*
X103882599Y-69073018D01*
X103834829Y-68979262D01*
X103779845Y-68871350D01*
X103646807Y-68688239D01*
X103486761Y-68528193D01*
X103303650Y-68395155D01*
X103101981Y-68292400D01*
X103101978Y-68292398D01*
X102886723Y-68222458D01*
X102719928Y-68196040D01*
X102663169Y-68187050D01*
X102436831Y-68187050D01*
X102380072Y-68196040D01*
X102213277Y-68222458D01*
X102213274Y-68222458D01*
X101998021Y-68292398D01*
X101998018Y-68292400D01*
X101796349Y-68395155D01*
X101714978Y-68454275D01*
X101613239Y-68528193D01*
X101613237Y-68528195D01*
X101613236Y-68528195D01*
X101453195Y-68688236D01*
X101453195Y-68688237D01*
X101453193Y-68688239D01*
X101399661Y-68761920D01*
X101320155Y-68871349D01*
X101217400Y-69073018D01*
X101217398Y-69073021D01*
X101147458Y-69288274D01*
X101147458Y-69288277D01*
X101145525Y-69300481D01*
X101112050Y-69511831D01*
X100812950Y-69511831D01*
X100777542Y-69288279D01*
X100777541Y-69288275D01*
X100777541Y-69288274D01*
X100707601Y-69073021D01*
X100707599Y-69073018D01*
X100659829Y-68979262D01*
X100604845Y-68871350D01*
X100471807Y-68688239D01*
X100311761Y-68528193D01*
X100128650Y-68395155D01*
X99926981Y-68292400D01*
X99926978Y-68292398D01*
X99711723Y-68222458D01*
X99544928Y-68196040D01*
X99488169Y-68187050D01*
X99261831Y-68187050D01*
X99205072Y-68196040D01*
X99038277Y-68222458D01*
X99038274Y-68222458D01*
X98823021Y-68292398D01*
X98823018Y-68292400D01*
X98621349Y-68395155D01*
X98539978Y-68454275D01*
X98438239Y-68528193D01*
X98438237Y-68528195D01*
X98438236Y-68528195D01*
X98278195Y-68688236D01*
X98278195Y-68688237D01*
X98278193Y-68688239D01*
X98224661Y-68761920D01*
X98145155Y-68871349D01*
X98042400Y-69073018D01*
X98042398Y-69073021D01*
X97972458Y-69288274D01*
X97972458Y-69288277D01*
X97970525Y-69300481D01*
X97937050Y-69511831D01*
X96500500Y-69511831D01*
X96500500Y-68308834D01*
X96520185Y-68241795D01*
X96572989Y-68196040D01*
X96642147Y-68186096D01*
X96705703Y-68215121D01*
X96743477Y-68273899D01*
X96746113Y-68284626D01*
X96752860Y-68318542D01*
X96752861Y-68318544D01*
X96809078Y-68454266D01*
X96809083Y-68454275D01*
X96890698Y-68576419D01*
X96890701Y-68576423D01*
X96994576Y-68680298D01*
X96994580Y-68680301D01*
X97116724Y-68761916D01*
X97116730Y-68761919D01*
X97116731Y-68761920D01*
X97252458Y-68818140D01*
X97396540Y-68846799D01*
X97396544Y-68846800D01*
X97396545Y-68846800D01*
X97543456Y-68846800D01*
X97543457Y-68846799D01*
X97687542Y-68818140D01*
X97823269Y-68761920D01*
X97945420Y-68680301D01*
X98049301Y-68576420D01*
X98130920Y-68454269D01*
X98187140Y-68318542D01*
X98215800Y-68174455D01*
X98215800Y-68027545D01*
X98187140Y-67883458D01*
X98130920Y-67747731D01*
X98130919Y-67747730D01*
X98130916Y-67747724D01*
X98049301Y-67625580D01*
X98049298Y-67625576D01*
X97945423Y-67521701D01*
X97945419Y-67521698D01*
X97823275Y-67440083D01*
X97823266Y-67440078D01*
X97687544Y-67383861D01*
X97687545Y-67383861D01*
X97687542Y-67383860D01*
X97687538Y-67383859D01*
X97687534Y-67383858D01*
X97543459Y-67355200D01*
X97543455Y-67355200D01*
X97396545Y-67355200D01*
X97396540Y-67355200D01*
X97252465Y-67383858D01*
X97252455Y-67383861D01*
X97116733Y-67440078D01*
X97116724Y-67440083D01*
X96994580Y-67521698D01*
X96994576Y-67521701D01*
X96890701Y-67625576D01*
X96890698Y-67625580D01*
X96809083Y-67747724D01*
X96809078Y-67747733D01*
X96752861Y-67883455D01*
X96752858Y-67883465D01*
X96746117Y-67917356D01*
X96713732Y-67979267D01*
X96653017Y-68013841D01*
X96583247Y-68010102D01*
X96526575Y-67969235D01*
X96500994Y-67904217D01*
X96500500Y-67893165D01*
X96500500Y-67011540D01*
X101804200Y-67011540D01*
X101804200Y-67158459D01*
X101832858Y-67302534D01*
X101832861Y-67302544D01*
X101889078Y-67438266D01*
X101889083Y-67438275D01*
X101970698Y-67560419D01*
X101970701Y-67560423D01*
X102074576Y-67664298D01*
X102074580Y-67664301D01*
X102196724Y-67745916D01*
X102196730Y-67745919D01*
X102196731Y-67745920D01*
X102332458Y-67802140D01*
X102416407Y-67818838D01*
X102476540Y-67830799D01*
X102476544Y-67830800D01*
X102476545Y-67830800D01*
X102623456Y-67830800D01*
X102623457Y-67830799D01*
X102767542Y-67802140D01*
X102903269Y-67745920D01*
X103025420Y-67664301D01*
X103129301Y-67560420D01*
X103210920Y-67438269D01*
X103226773Y-67399996D01*
X116994435Y-67399996D01*
X116994435Y-67400003D01*
X117014630Y-67579249D01*
X117014631Y-67579254D01*
X117074211Y-67749523D01*
X117125281Y-67830800D01*
X117170184Y-67902262D01*
X117297738Y-68029816D01*
X117450478Y-68125789D01*
X117589560Y-68174456D01*
X117620745Y-68185368D01*
X117620750Y-68185369D01*
X117799996Y-68205565D01*
X117800000Y-68205565D01*
X117800004Y-68205565D01*
X117979249Y-68185369D01*
X117979252Y-68185368D01*
X117979255Y-68185368D01*
X118149522Y-68125789D01*
X118302262Y-68029816D01*
X118429816Y-67902262D01*
X118525789Y-67749522D01*
X118585368Y-67579255D01*
X118587490Y-67560423D01*
X118605565Y-67400003D01*
X118605565Y-67399996D01*
X118585369Y-67220750D01*
X118585368Y-67220745D01*
X118578108Y-67199996D01*
X129194435Y-67199996D01*
X129194435Y-67200003D01*
X129214630Y-67379249D01*
X129214631Y-67379254D01*
X129274211Y-67549523D01*
X129346331Y-67664301D01*
X129370184Y-67702262D01*
X129497738Y-67829816D01*
X129650478Y-67925789D01*
X129774640Y-67969235D01*
X129820745Y-67985368D01*
X129820750Y-67985369D01*
X129999996Y-68005565D01*
X130000000Y-68005565D01*
X130000004Y-68005565D01*
X130179249Y-67985369D01*
X130179252Y-67985368D01*
X130179255Y-67985368D01*
X130349522Y-67925789D01*
X130502262Y-67829816D01*
X130629816Y-67702262D01*
X130725789Y-67549522D01*
X130785368Y-67379255D01*
X130785369Y-67379249D01*
X130805565Y-67200003D01*
X130805565Y-67199996D01*
X130785369Y-67020750D01*
X130785368Y-67020745D01*
X130760043Y-66948371D01*
X130725789Y-66850478D01*
X130629816Y-66697738D01*
X130502262Y-66570184D01*
X130461259Y-66544420D01*
X130349523Y-66474211D01*
X130179254Y-66414631D01*
X130179249Y-66414630D01*
X130000004Y-66394435D01*
X129999996Y-66394435D01*
X129820750Y-66414630D01*
X129820745Y-66414631D01*
X129650476Y-66474211D01*
X129497737Y-66570184D01*
X129370184Y-66697737D01*
X129274211Y-66850476D01*
X129214631Y-67020745D01*
X129214630Y-67020750D01*
X129194435Y-67199996D01*
X118578108Y-67199996D01*
X118525788Y-67050476D01*
X118461631Y-66948371D01*
X118429816Y-66897738D01*
X118302262Y-66770184D01*
X118241068Y-66731733D01*
X118149523Y-66674211D01*
X117979254Y-66614631D01*
X117979249Y-66614630D01*
X117800004Y-66594435D01*
X117799996Y-66594435D01*
X117620750Y-66614630D01*
X117620745Y-66614631D01*
X117450476Y-66674211D01*
X117297737Y-66770184D01*
X117170184Y-66897737D01*
X117074211Y-67050476D01*
X117014631Y-67220745D01*
X117014630Y-67220750D01*
X116994435Y-67399996D01*
X103226773Y-67399996D01*
X103267140Y-67302542D01*
X103295800Y-67158455D01*
X103295800Y-67011545D01*
X103267140Y-66867458D01*
X103210920Y-66731731D01*
X103210919Y-66731730D01*
X103210916Y-66731724D01*
X103129301Y-66609580D01*
X103129298Y-66609576D01*
X103025423Y-66505701D01*
X103025419Y-66505698D01*
X102903275Y-66424083D01*
X102903266Y-66424078D01*
X102767544Y-66367861D01*
X102767545Y-66367861D01*
X102767542Y-66367860D01*
X102767538Y-66367859D01*
X102767534Y-66367858D01*
X102623459Y-66339200D01*
X102623455Y-66339200D01*
X102476545Y-66339200D01*
X102476540Y-66339200D01*
X102332465Y-66367858D01*
X102332455Y-66367861D01*
X102196733Y-66424078D01*
X102196724Y-66424083D01*
X102074580Y-66505698D01*
X102074576Y-66505701D01*
X101970701Y-66609576D01*
X101970698Y-66609580D01*
X101889083Y-66731724D01*
X101889078Y-66731733D01*
X101832861Y-66867455D01*
X101832858Y-66867465D01*
X101804200Y-67011540D01*
X96500500Y-67011540D01*
X96500500Y-66276834D01*
X96520185Y-66209795D01*
X96572989Y-66164040D01*
X96642147Y-66154096D01*
X96705703Y-66183121D01*
X96743477Y-66241899D01*
X96746113Y-66252626D01*
X96752860Y-66286542D01*
X96752861Y-66286544D01*
X96809078Y-66422266D01*
X96809083Y-66422275D01*
X96890698Y-66544419D01*
X96890701Y-66544423D01*
X96994576Y-66648298D01*
X96994580Y-66648301D01*
X97116724Y-66729916D01*
X97116730Y-66729919D01*
X97116731Y-66729920D01*
X97252458Y-66786140D01*
X97396540Y-66814799D01*
X97396544Y-66814800D01*
X97396545Y-66814800D01*
X97543456Y-66814800D01*
X97543457Y-66814799D01*
X97687542Y-66786140D01*
X97823269Y-66729920D01*
X97945420Y-66648301D01*
X98049301Y-66544420D01*
X98130920Y-66422269D01*
X98187140Y-66286542D01*
X98215800Y-66142455D01*
X98215800Y-65995545D01*
X98187140Y-65851458D01*
X98130920Y-65715731D01*
X98130919Y-65715730D01*
X98130916Y-65715724D01*
X98049301Y-65593580D01*
X98049298Y-65593576D01*
X97945423Y-65489701D01*
X97945419Y-65489698D01*
X97823275Y-65408083D01*
X97823266Y-65408078D01*
X97687544Y-65351861D01*
X97687545Y-65351861D01*
X97687542Y-65351860D01*
X97687538Y-65351859D01*
X97687534Y-65351858D01*
X97543459Y-65323200D01*
X97543455Y-65323200D01*
X97396545Y-65323200D01*
X97396540Y-65323200D01*
X97252465Y-65351858D01*
X97252455Y-65351861D01*
X97116733Y-65408078D01*
X97116724Y-65408083D01*
X96994580Y-65489698D01*
X96994576Y-65489701D01*
X96890701Y-65593576D01*
X96890698Y-65593580D01*
X96809083Y-65715724D01*
X96809078Y-65715733D01*
X96752861Y-65851455D01*
X96752858Y-65851465D01*
X96746117Y-65885356D01*
X96713732Y-65947267D01*
X96653017Y-65981841D01*
X96583247Y-65978102D01*
X96526575Y-65937235D01*
X96500994Y-65872217D01*
X96500500Y-65861165D01*
X96500500Y-64431831D01*
X97937050Y-64431831D01*
X97937050Y-64658168D01*
X97972458Y-64881722D01*
X97972458Y-64881725D01*
X98042398Y-65096978D01*
X98042400Y-65096981D01*
X98145155Y-65298650D01*
X98278193Y-65481761D01*
X98438239Y-65641807D01*
X98621350Y-65774845D01*
X98823019Y-65877600D01*
X98823021Y-65877601D01*
X99006557Y-65937235D01*
X99038279Y-65947542D01*
X99261831Y-65982950D01*
X99261832Y-65982950D01*
X99488168Y-65982950D01*
X99488169Y-65982950D01*
X99711721Y-65947542D01*
X99711724Y-65947541D01*
X99711725Y-65947541D01*
X99926978Y-65877601D01*
X99926978Y-65877600D01*
X99926981Y-65877600D01*
X100128650Y-65774845D01*
X100311761Y-65641807D01*
X100471807Y-65481761D01*
X100604845Y-65298650D01*
X100707600Y-65096981D01*
X100731314Y-65023998D01*
X100777541Y-64881725D01*
X100777541Y-64881724D01*
X100777542Y-64881721D01*
X100812950Y-64658169D01*
X100812950Y-64431831D01*
X101112050Y-64431831D01*
X101112050Y-64658168D01*
X101147458Y-64881722D01*
X101147458Y-64881725D01*
X101217398Y-65096978D01*
X101217400Y-65096981D01*
X101320155Y-65298650D01*
X101453193Y-65481761D01*
X101613239Y-65641807D01*
X101796350Y-65774845D01*
X101998019Y-65877600D01*
X101998021Y-65877601D01*
X102181557Y-65937235D01*
X102213279Y-65947542D01*
X102436831Y-65982950D01*
X102436832Y-65982950D01*
X102663168Y-65982950D01*
X102663169Y-65982950D01*
X102886721Y-65947542D01*
X102886724Y-65947541D01*
X102886725Y-65947541D01*
X103101978Y-65877601D01*
X103101978Y-65877600D01*
X103101981Y-65877600D01*
X103303650Y-65774845D01*
X103486761Y-65641807D01*
X103646807Y-65481761D01*
X103779845Y-65298650D01*
X103882600Y-65096981D01*
X103906314Y-65023998D01*
X108994390Y-65023998D01*
X108994390Y-65024001D01*
X109014804Y-65309433D01*
X109075628Y-65589037D01*
X109075630Y-65589043D01*
X109075631Y-65589046D01*
X109175633Y-65857161D01*
X109175635Y-65857166D01*
X109312770Y-66108309D01*
X109312775Y-66108317D01*
X109484254Y-66337387D01*
X109484270Y-66337405D01*
X109686594Y-66539729D01*
X109686612Y-66539745D01*
X109915682Y-66711224D01*
X109915690Y-66711229D01*
X110166833Y-66848364D01*
X110166832Y-66848364D01*
X110166836Y-66848365D01*
X110166839Y-66848367D01*
X110434954Y-66948369D01*
X110434960Y-66948370D01*
X110434962Y-66948371D01*
X110714566Y-67009195D01*
X110714568Y-67009195D01*
X110714572Y-67009196D01*
X110968220Y-67027337D01*
X110999999Y-67029610D01*
X111000000Y-67029610D01*
X111000001Y-67029610D01*
X111028595Y-67027564D01*
X111285428Y-67009196D01*
X111565046Y-66948369D01*
X111833161Y-66848367D01*
X112084315Y-66711226D01*
X112313395Y-66539739D01*
X112515739Y-66337395D01*
X112687226Y-66108315D01*
X112746373Y-65999996D01*
X115594435Y-65999996D01*
X115594435Y-66000003D01*
X115614630Y-66179249D01*
X115614631Y-66179254D01*
X115674211Y-66349523D01*
X115721059Y-66424080D01*
X115770184Y-66502262D01*
X115897738Y-66629816D01*
X115927152Y-66648298D01*
X116005833Y-66697737D01*
X116050478Y-66725789D01*
X116177352Y-66770184D01*
X116220745Y-66785368D01*
X116220750Y-66785369D01*
X116399996Y-66805565D01*
X116400000Y-66805565D01*
X116400004Y-66805565D01*
X116579249Y-66785369D01*
X116579252Y-66785368D01*
X116579255Y-66785368D01*
X116749522Y-66725789D01*
X116902262Y-66629816D01*
X117029816Y-66502262D01*
X117125789Y-66349522D01*
X117185368Y-66179255D01*
X117185369Y-66179249D01*
X117205565Y-66000003D01*
X117205565Y-65999996D01*
X117191900Y-65878711D01*
X159149500Y-65878711D01*
X159149500Y-66121288D01*
X159181161Y-66361785D01*
X159243947Y-66596104D01*
X159322662Y-66786138D01*
X159336776Y-66820212D01*
X159458064Y-67030289D01*
X159458066Y-67030292D01*
X159458067Y-67030293D01*
X159605733Y-67222736D01*
X159605739Y-67222743D01*
X159777256Y-67394260D01*
X159777262Y-67394265D01*
X159969711Y-67541936D01*
X160179788Y-67663224D01*
X160403900Y-67756054D01*
X160638211Y-67818838D01*
X160818586Y-67842584D01*
X160878711Y-67850500D01*
X160878712Y-67850500D01*
X161121289Y-67850500D01*
X161169388Y-67844167D01*
X161361789Y-67818838D01*
X161596100Y-67756054D01*
X161820212Y-67663224D01*
X162030289Y-67541936D01*
X162222738Y-67394265D01*
X162394265Y-67222738D01*
X162541936Y-67030289D01*
X162663224Y-66820212D01*
X162756054Y-66596100D01*
X162818838Y-66361789D01*
X162850500Y-66121288D01*
X162850500Y-65878712D01*
X162850353Y-65877599D01*
X162829044Y-65715733D01*
X162818838Y-65638211D01*
X162756054Y-65403900D01*
X162663224Y-65179788D01*
X162541936Y-64969711D01*
X162394265Y-64777262D01*
X162394260Y-64777256D01*
X162222743Y-64605739D01*
X162222736Y-64605733D01*
X162030293Y-64458067D01*
X162030292Y-64458066D01*
X162030289Y-64458064D01*
X161820212Y-64336776D01*
X161820205Y-64336773D01*
X161596104Y-64243947D01*
X161361785Y-64181161D01*
X161121289Y-64149500D01*
X161121288Y-64149500D01*
X160878712Y-64149500D01*
X160878711Y-64149500D01*
X160638214Y-64181161D01*
X160403895Y-64243947D01*
X160179794Y-64336773D01*
X160179785Y-64336777D01*
X159969706Y-64458067D01*
X159777263Y-64605733D01*
X159777256Y-64605739D01*
X159605739Y-64777256D01*
X159605733Y-64777263D01*
X159458067Y-64969706D01*
X159336777Y-65179785D01*
X159336773Y-65179794D01*
X159243947Y-65403895D01*
X159181161Y-65638214D01*
X159149500Y-65878711D01*
X117191900Y-65878711D01*
X117185369Y-65820750D01*
X117185368Y-65820745D01*
X117169307Y-65774845D01*
X117125789Y-65650478D01*
X117029816Y-65497738D01*
X116902262Y-65370184D01*
X116873100Y-65351860D01*
X116749523Y-65274211D01*
X116579254Y-65214631D01*
X116579249Y-65214630D01*
X116400004Y-65194435D01*
X116399996Y-65194435D01*
X116220750Y-65214630D01*
X116220745Y-65214631D01*
X116050476Y-65274211D01*
X115897737Y-65370184D01*
X115770184Y-65497737D01*
X115674211Y-65650476D01*
X115614631Y-65820745D01*
X115614630Y-65820750D01*
X115594435Y-65999996D01*
X112746373Y-65999996D01*
X112824367Y-65857161D01*
X112924369Y-65589046D01*
X112985196Y-65309428D01*
X113005610Y-65024000D01*
X112985196Y-64738572D01*
X112980412Y-64716582D01*
X112924371Y-64458962D01*
X112924370Y-64458960D01*
X112924369Y-64458954D01*
X112824367Y-64190839D01*
X112819082Y-64181161D01*
X112687229Y-63939690D01*
X112687224Y-63939682D01*
X112680881Y-63931209D01*
X129788049Y-63931209D01*
X129788049Y-63931216D01*
X129808244Y-64110462D01*
X129808245Y-64110467D01*
X129867825Y-64280736D01*
X129962765Y-64431831D01*
X129963798Y-64433475D01*
X130091352Y-64561029D01*
X130244092Y-64657002D01*
X130414359Y-64716581D01*
X130414364Y-64716582D01*
X130593610Y-64736778D01*
X130593614Y-64736778D01*
X130593618Y-64736778D01*
X130772863Y-64716582D01*
X130772866Y-64716581D01*
X130772869Y-64716581D01*
X130943136Y-64657002D01*
X131095876Y-64561029D01*
X131223430Y-64433475D01*
X131319403Y-64280735D01*
X131378982Y-64110468D01*
X131392215Y-63993021D01*
X131399179Y-63931216D01*
X131399179Y-63931209D01*
X131378983Y-63751963D01*
X131378982Y-63751958D01*
X131361593Y-63702262D01*
X131319403Y-63581691D01*
X131299190Y-63549523D01*
X131235522Y-63448195D01*
X131223430Y-63428951D01*
X131095876Y-63301397D01*
X130943137Y-63205424D01*
X130772868Y-63145844D01*
X130772863Y-63145843D01*
X130593618Y-63125648D01*
X130593610Y-63125648D01*
X130414364Y-63145843D01*
X130414359Y-63145844D01*
X130244090Y-63205424D01*
X130091351Y-63301397D01*
X129963798Y-63428950D01*
X129867825Y-63581689D01*
X129808245Y-63751958D01*
X129808244Y-63751963D01*
X129788049Y-63931209D01*
X112680881Y-63931209D01*
X112515745Y-63710612D01*
X112515729Y-63710594D01*
X112313405Y-63508270D01*
X112313387Y-63508254D01*
X112084317Y-63336775D01*
X112084309Y-63336770D01*
X111833166Y-63199635D01*
X111833167Y-63199635D01*
X111698811Y-63149523D01*
X111565046Y-63099631D01*
X111565043Y-63099630D01*
X111565037Y-63099628D01*
X111285433Y-63038804D01*
X111000001Y-63018390D01*
X110999999Y-63018390D01*
X110714566Y-63038804D01*
X110434962Y-63099628D01*
X110166833Y-63199635D01*
X109915690Y-63336770D01*
X109915682Y-63336775D01*
X109686612Y-63508254D01*
X109686594Y-63508270D01*
X109484270Y-63710594D01*
X109484254Y-63710612D01*
X109312775Y-63939682D01*
X109312770Y-63939690D01*
X109175635Y-64190833D01*
X109075628Y-64458962D01*
X109014804Y-64738566D01*
X108994390Y-65023998D01*
X103906314Y-65023998D01*
X103952541Y-64881725D01*
X103952541Y-64881724D01*
X103952542Y-64881721D01*
X103987950Y-64658169D01*
X103987950Y-64431831D01*
X103952542Y-64208279D01*
X103952541Y-64208275D01*
X103952541Y-64208274D01*
X103882601Y-63993021D01*
X103882599Y-63993018D01*
X103878702Y-63985368D01*
X103779845Y-63791350D01*
X103646807Y-63608239D01*
X103486761Y-63448193D01*
X103303650Y-63315155D01*
X103101981Y-63212400D01*
X103101978Y-63212398D01*
X102886723Y-63142458D01*
X102737686Y-63118852D01*
X102663169Y-63107050D01*
X102436831Y-63107050D01*
X102362313Y-63118852D01*
X102213277Y-63142458D01*
X102213274Y-63142458D01*
X101998021Y-63212398D01*
X101998018Y-63212400D01*
X101796349Y-63315155D01*
X101708132Y-63379249D01*
X101613239Y-63448193D01*
X101613237Y-63448195D01*
X101613236Y-63448195D01*
X101453195Y-63608236D01*
X101453195Y-63608237D01*
X101453193Y-63608239D01*
X101396058Y-63686878D01*
X101320155Y-63791349D01*
X101217400Y-63993018D01*
X101217398Y-63993021D01*
X101147458Y-64208274D01*
X101147458Y-64208277D01*
X101112050Y-64431831D01*
X100812950Y-64431831D01*
X100777542Y-64208279D01*
X100777541Y-64208275D01*
X100777541Y-64208274D01*
X100707601Y-63993021D01*
X100707599Y-63993018D01*
X100703702Y-63985368D01*
X100604845Y-63791350D01*
X100471807Y-63608239D01*
X100311761Y-63448193D01*
X100128650Y-63315155D01*
X99926981Y-63212400D01*
X99926978Y-63212398D01*
X99711723Y-63142458D01*
X99562686Y-63118852D01*
X99488169Y-63107050D01*
X99261831Y-63107050D01*
X99187313Y-63118852D01*
X99038277Y-63142458D01*
X99038274Y-63142458D01*
X98823021Y-63212398D01*
X98823018Y-63212400D01*
X98621349Y-63315155D01*
X98533132Y-63379249D01*
X98438239Y-63448193D01*
X98438237Y-63448195D01*
X98438236Y-63448195D01*
X98278195Y-63608236D01*
X98278195Y-63608237D01*
X98278193Y-63608239D01*
X98221058Y-63686878D01*
X98145155Y-63791349D01*
X98042400Y-63993018D01*
X98042398Y-63993021D01*
X97972458Y-64208274D01*
X97972458Y-64208277D01*
X97937050Y-64431831D01*
X96500500Y-64431831D01*
X96500500Y-62624500D01*
X96520185Y-62557461D01*
X96572989Y-62511706D01*
X96624500Y-62500500D01*
X106269988Y-62500500D01*
X106337027Y-62520185D01*
G37*
%TD.AperFunction*%
%TD*%
M02*
