%TF.GenerationSoftware,KiCad,Pcbnew,8.0.2-8.0.2-0~ubuntu22.04.1*%
%TF.CreationDate,2024-05-15T13:15:59-07:00*%
%TF.ProjectId,JPBms2,4a50426d-7332-42e6-9b69-6361645f7063,rev?*%
%TF.SameCoordinates,Original*%
%TF.FileFunction,Legend,Top*%
%TF.FilePolarity,Positive*%
%FSLAX46Y46*%
G04 Gerber Fmt 4.6, Leading zero omitted, Abs format (unit mm)*
G04 Created by KiCad (PCBNEW 8.0.2-8.0.2-0~ubuntu22.04.1) date 2024-05-15 13:15:59*
%MOMM*%
%LPD*%
G01*
G04 APERTURE LIST*
G04 Aperture macros list*
%AMRoundRect*
0 Rectangle with rounded corners*
0 $1 Rounding radius*
0 $2 $3 $4 $5 $6 $7 $8 $9 X,Y pos of 4 corners*
0 Add a 4 corners polygon primitive as box body*
4,1,4,$2,$3,$4,$5,$6,$7,$8,$9,$2,$3,0*
0 Add four circle primitives for the rounded corners*
1,1,$1+$1,$2,$3*
1,1,$1+$1,$4,$5*
1,1,$1+$1,$6,$7*
1,1,$1+$1,$8,$9*
0 Add four rect primitives between the rounded corners*
20,1,$1+$1,$2,$3,$4,$5,0*
20,1,$1+$1,$4,$5,$6,$7,0*
20,1,$1+$1,$6,$7,$8,$9,0*
20,1,$1+$1,$8,$9,$2,$3,0*%
G04 Aperture macros list end*
%ADD10C,0.100000*%
%ADD11C,0.150000*%
%ADD12C,0.120000*%
%ADD13C,0.200000*%
%ADD14RoundRect,0.218750X0.218750X0.256250X-0.218750X0.256250X-0.218750X-0.256250X0.218750X-0.256250X0*%
%ADD15RoundRect,0.076000X-0.874000X-1.674000X0.874000X-1.674000X0.874000X1.674000X-0.874000X1.674000X0*%
%ADD16RoundRect,0.135000X0.185000X-0.135000X0.185000X0.135000X-0.185000X0.135000X-0.185000X-0.135000X0*%
%ADD17RoundRect,0.225000X0.250000X-0.225000X0.250000X0.225000X-0.250000X0.225000X-0.250000X-0.225000X0*%
%ADD18RoundRect,0.112500X-0.112500X-0.237500X0.112500X-0.237500X0.112500X0.237500X-0.112500X0.237500X0*%
%ADD19RoundRect,0.150000X-0.150000X0.587500X-0.150000X-0.587500X0.150000X-0.587500X0.150000X0.587500X0*%
%ADD20RoundRect,0.200000X-0.200000X-0.275000X0.200000X-0.275000X0.200000X0.275000X-0.200000X0.275000X0*%
%ADD21RoundRect,0.225000X0.225000X0.250000X-0.225000X0.250000X-0.225000X-0.250000X0.225000X-0.250000X0*%
%ADD22RoundRect,0.250000X-0.375000X-0.625000X0.375000X-0.625000X0.375000X0.625000X-0.375000X0.625000X0*%
%ADD23RoundRect,0.250000X0.650000X-0.325000X0.650000X0.325000X-0.650000X0.325000X-0.650000X-0.325000X0*%
%ADD24RoundRect,0.135000X-0.185000X0.135000X-0.185000X-0.135000X0.185000X-0.135000X0.185000X0.135000X0*%
%ADD25C,2.374900*%
%ADD26C,0.990600*%
%ADD27C,0.787400*%
%ADD28RoundRect,0.250000X-0.725000X0.600000X-0.725000X-0.600000X0.725000X-0.600000X0.725000X0.600000X0*%
%ADD29O,1.950000X1.700000*%
%ADD30RoundRect,0.225000X-0.250000X0.225000X-0.250000X-0.225000X0.250000X-0.225000X0.250000X0.225000X0*%
%ADD31RoundRect,0.200000X-0.275000X0.200000X-0.275000X-0.200000X0.275000X-0.200000X0.275000X0.200000X0*%
%ADD32RoundRect,0.112500X0.237500X-0.112500X0.237500X0.112500X-0.237500X0.112500X-0.237500X-0.112500X0*%
%ADD33C,3.200000*%
%ADD34RoundRect,0.250000X-0.312500X-0.625000X0.312500X-0.625000X0.312500X0.625000X-0.312500X0.625000X0*%
%ADD35RoundRect,0.200000X0.200000X0.275000X-0.200000X0.275000X-0.200000X-0.275000X0.200000X-0.275000X0*%
%ADD36RoundRect,0.150000X-0.150000X0.512500X-0.150000X-0.512500X0.150000X-0.512500X0.150000X0.512500X0*%
%ADD37C,3.000000*%
%ADD38RoundRect,0.250000X-0.650000X0.325000X-0.650000X-0.325000X0.650000X-0.325000X0.650000X0.325000X0*%
%ADD39RoundRect,0.112500X-0.187500X-0.112500X0.187500X-0.112500X0.187500X0.112500X-0.187500X0.112500X0*%
%ADD40RoundRect,0.150000X0.587500X0.150000X-0.587500X0.150000X-0.587500X-0.150000X0.587500X-0.150000X0*%
%ADD41RoundRect,0.200000X-0.200000X-0.450000X0.200000X-0.450000X0.200000X0.450000X-0.200000X0.450000X0*%
%ADD42RoundRect,0.250001X-0.799999X-1.249999X0.799999X-1.249999X0.799999X1.249999X-0.799999X1.249999X0*%
%ADD43R,3.500000X3.500000*%
%ADD44RoundRect,0.750000X0.750000X1.000000X-0.750000X1.000000X-0.750000X-1.000000X0.750000X-1.000000X0*%
%ADD45RoundRect,0.875000X0.875000X0.875000X-0.875000X0.875000X-0.875000X-0.875000X0.875000X-0.875000X0*%
%ADD46RoundRect,0.150000X-0.825000X-0.150000X0.825000X-0.150000X0.825000X0.150000X-0.825000X0.150000X0*%
%ADD47RoundRect,0.150000X-0.587500X-0.150000X0.587500X-0.150000X0.587500X0.150000X-0.587500X0.150000X0*%
%ADD48RoundRect,0.075000X0.075000X-0.700000X0.075000X0.700000X-0.075000X0.700000X-0.075000X-0.700000X0*%
%ADD49RoundRect,0.075000X0.700000X-0.075000X0.700000X0.075000X-0.700000X0.075000X-0.700000X-0.075000X0*%
G04 APERTURE END LIST*
D10*
X113456265Y-64367657D02*
X113503884Y-64320038D01*
X113503884Y-64320038D02*
X113599122Y-64272419D01*
X113599122Y-64272419D02*
X113837217Y-64272419D01*
X113837217Y-64272419D02*
X113932455Y-64320038D01*
X113932455Y-64320038D02*
X113980074Y-64367657D01*
X113980074Y-64367657D02*
X114027693Y-64462895D01*
X114027693Y-64462895D02*
X114027693Y-64558133D01*
X114027693Y-64558133D02*
X113980074Y-64700990D01*
X113980074Y-64700990D02*
X113408646Y-65272419D01*
X113408646Y-65272419D02*
X114027693Y-65272419D01*
X114456265Y-65177180D02*
X114503884Y-65224800D01*
X114503884Y-65224800D02*
X114456265Y-65272419D01*
X114456265Y-65272419D02*
X114408646Y-65224800D01*
X114408646Y-65224800D02*
X114456265Y-65177180D01*
X114456265Y-65177180D02*
X114456265Y-65272419D01*
X115408645Y-64272419D02*
X114932455Y-64272419D01*
X114932455Y-64272419D02*
X114884836Y-64748609D01*
X114884836Y-64748609D02*
X114932455Y-64700990D01*
X114932455Y-64700990D02*
X115027693Y-64653371D01*
X115027693Y-64653371D02*
X115265788Y-64653371D01*
X115265788Y-64653371D02*
X115361026Y-64700990D01*
X115361026Y-64700990D02*
X115408645Y-64748609D01*
X115408645Y-64748609D02*
X115456264Y-64843847D01*
X115456264Y-64843847D02*
X115456264Y-65081942D01*
X115456264Y-65081942D02*
X115408645Y-65177180D01*
X115408645Y-65177180D02*
X115361026Y-65224800D01*
X115361026Y-65224800D02*
X115265788Y-65272419D01*
X115265788Y-65272419D02*
X115027693Y-65272419D01*
X115027693Y-65272419D02*
X114932455Y-65224800D01*
X114932455Y-65224800D02*
X114884836Y-65177180D01*
X115741979Y-64272419D02*
X116075312Y-65272419D01*
X116075312Y-65272419D02*
X116408645Y-64272419D01*
X103427693Y-76120038D02*
X103332455Y-76072419D01*
X103332455Y-76072419D02*
X103189598Y-76072419D01*
X103189598Y-76072419D02*
X103046741Y-76120038D01*
X103046741Y-76120038D02*
X102951503Y-76215276D01*
X102951503Y-76215276D02*
X102903884Y-76310514D01*
X102903884Y-76310514D02*
X102856265Y-76500990D01*
X102856265Y-76500990D02*
X102856265Y-76643847D01*
X102856265Y-76643847D02*
X102903884Y-76834323D01*
X102903884Y-76834323D02*
X102951503Y-76929561D01*
X102951503Y-76929561D02*
X103046741Y-77024800D01*
X103046741Y-77024800D02*
X103189598Y-77072419D01*
X103189598Y-77072419D02*
X103284836Y-77072419D01*
X103284836Y-77072419D02*
X103427693Y-77024800D01*
X103427693Y-77024800D02*
X103475312Y-76977180D01*
X103475312Y-76977180D02*
X103475312Y-76643847D01*
X103475312Y-76643847D02*
X103284836Y-76643847D01*
X103903884Y-77072419D02*
X103903884Y-76072419D01*
X103903884Y-76072419D02*
X104475312Y-77072419D01*
X104475312Y-77072419D02*
X104475312Y-76072419D01*
X104951503Y-77072419D02*
X104951503Y-76072419D01*
X104951503Y-76072419D02*
X105189598Y-76072419D01*
X105189598Y-76072419D02*
X105332455Y-76120038D01*
X105332455Y-76120038D02*
X105427693Y-76215276D01*
X105427693Y-76215276D02*
X105475312Y-76310514D01*
X105475312Y-76310514D02*
X105522931Y-76500990D01*
X105522931Y-76500990D02*
X105522931Y-76643847D01*
X105522931Y-76643847D02*
X105475312Y-76834323D01*
X105475312Y-76834323D02*
X105427693Y-76929561D01*
X105427693Y-76929561D02*
X105332455Y-77024800D01*
X105332455Y-77024800D02*
X105189598Y-77072419D01*
X105189598Y-77072419D02*
X104951503Y-77072419D01*
X147856265Y-95824800D02*
X147999122Y-95872419D01*
X147999122Y-95872419D02*
X148237217Y-95872419D01*
X148237217Y-95872419D02*
X148332455Y-95824800D01*
X148332455Y-95824800D02*
X148380074Y-95777180D01*
X148380074Y-95777180D02*
X148427693Y-95681942D01*
X148427693Y-95681942D02*
X148427693Y-95586704D01*
X148427693Y-95586704D02*
X148380074Y-95491466D01*
X148380074Y-95491466D02*
X148332455Y-95443847D01*
X148332455Y-95443847D02*
X148237217Y-95396228D01*
X148237217Y-95396228D02*
X148046741Y-95348609D01*
X148046741Y-95348609D02*
X147951503Y-95300990D01*
X147951503Y-95300990D02*
X147903884Y-95253371D01*
X147903884Y-95253371D02*
X147856265Y-95158133D01*
X147856265Y-95158133D02*
X147856265Y-95062895D01*
X147856265Y-95062895D02*
X147903884Y-94967657D01*
X147903884Y-94967657D02*
X147951503Y-94920038D01*
X147951503Y-94920038D02*
X148046741Y-94872419D01*
X148046741Y-94872419D02*
X148284836Y-94872419D01*
X148284836Y-94872419D02*
X148427693Y-94920038D01*
X149046741Y-94872419D02*
X149237217Y-94872419D01*
X149237217Y-94872419D02*
X149332455Y-94920038D01*
X149332455Y-94920038D02*
X149427693Y-95015276D01*
X149427693Y-95015276D02*
X149475312Y-95205752D01*
X149475312Y-95205752D02*
X149475312Y-95539085D01*
X149475312Y-95539085D02*
X149427693Y-95729561D01*
X149427693Y-95729561D02*
X149332455Y-95824800D01*
X149332455Y-95824800D02*
X149237217Y-95872419D01*
X149237217Y-95872419D02*
X149046741Y-95872419D01*
X149046741Y-95872419D02*
X148951503Y-95824800D01*
X148951503Y-95824800D02*
X148856265Y-95729561D01*
X148856265Y-95729561D02*
X148808646Y-95539085D01*
X148808646Y-95539085D02*
X148808646Y-95205752D01*
X148808646Y-95205752D02*
X148856265Y-95015276D01*
X148856265Y-95015276D02*
X148951503Y-94920038D01*
X148951503Y-94920038D02*
X149046741Y-94872419D01*
X150380074Y-95872419D02*
X149903884Y-95872419D01*
X149903884Y-95872419D02*
X149903884Y-94872419D01*
X150665789Y-95586704D02*
X151141979Y-95586704D01*
X150570551Y-95872419D02*
X150903884Y-94872419D01*
X150903884Y-94872419D02*
X151237217Y-95872419D01*
X152141979Y-95872419D02*
X151808646Y-95396228D01*
X151570551Y-95872419D02*
X151570551Y-94872419D01*
X151570551Y-94872419D02*
X151951503Y-94872419D01*
X151951503Y-94872419D02*
X152046741Y-94920038D01*
X152046741Y-94920038D02*
X152094360Y-94967657D01*
X152094360Y-94967657D02*
X152141979Y-95062895D01*
X152141979Y-95062895D02*
X152141979Y-95205752D01*
X152141979Y-95205752D02*
X152094360Y-95300990D01*
X152094360Y-95300990D02*
X152046741Y-95348609D01*
X152046741Y-95348609D02*
X151951503Y-95396228D01*
X151951503Y-95396228D02*
X151570551Y-95396228D01*
X152332456Y-95967657D02*
X153094360Y-95967657D01*
X153903884Y-95777180D02*
X153856265Y-95824800D01*
X153856265Y-95824800D02*
X153713408Y-95872419D01*
X153713408Y-95872419D02*
X153618170Y-95872419D01*
X153618170Y-95872419D02*
X153475313Y-95824800D01*
X153475313Y-95824800D02*
X153380075Y-95729561D01*
X153380075Y-95729561D02*
X153332456Y-95634323D01*
X153332456Y-95634323D02*
X153284837Y-95443847D01*
X153284837Y-95443847D02*
X153284837Y-95300990D01*
X153284837Y-95300990D02*
X153332456Y-95110514D01*
X153332456Y-95110514D02*
X153380075Y-95015276D01*
X153380075Y-95015276D02*
X153475313Y-94920038D01*
X153475313Y-94920038D02*
X153618170Y-94872419D01*
X153618170Y-94872419D02*
X153713408Y-94872419D01*
X153713408Y-94872419D02*
X153856265Y-94920038D01*
X153856265Y-94920038D02*
X153903884Y-94967657D01*
X154332456Y-94872419D02*
X154332456Y-95681942D01*
X154332456Y-95681942D02*
X154380075Y-95777180D01*
X154380075Y-95777180D02*
X154427694Y-95824800D01*
X154427694Y-95824800D02*
X154522932Y-95872419D01*
X154522932Y-95872419D02*
X154713408Y-95872419D01*
X154713408Y-95872419D02*
X154808646Y-95824800D01*
X154808646Y-95824800D02*
X154856265Y-95777180D01*
X154856265Y-95777180D02*
X154903884Y-95681942D01*
X154903884Y-95681942D02*
X154903884Y-94872419D01*
X155951503Y-95872419D02*
X155618170Y-95396228D01*
X155380075Y-95872419D02*
X155380075Y-94872419D01*
X155380075Y-94872419D02*
X155761027Y-94872419D01*
X155761027Y-94872419D02*
X155856265Y-94920038D01*
X155856265Y-94920038D02*
X155903884Y-94967657D01*
X155903884Y-94967657D02*
X155951503Y-95062895D01*
X155951503Y-95062895D02*
X155951503Y-95205752D01*
X155951503Y-95205752D02*
X155903884Y-95300990D01*
X155903884Y-95300990D02*
X155856265Y-95348609D01*
X155856265Y-95348609D02*
X155761027Y-95396228D01*
X155761027Y-95396228D02*
X155380075Y-95396228D01*
X101703884Y-90891466D02*
X102465789Y-90891466D01*
X102084836Y-91272419D02*
X102084836Y-90510514D01*
X103275312Y-90748609D02*
X103418169Y-90796228D01*
X103418169Y-90796228D02*
X103465788Y-90843847D01*
X103465788Y-90843847D02*
X103513407Y-90939085D01*
X103513407Y-90939085D02*
X103513407Y-91081942D01*
X103513407Y-91081942D02*
X103465788Y-91177180D01*
X103465788Y-91177180D02*
X103418169Y-91224800D01*
X103418169Y-91224800D02*
X103322931Y-91272419D01*
X103322931Y-91272419D02*
X102941979Y-91272419D01*
X102941979Y-91272419D02*
X102941979Y-90272419D01*
X102941979Y-90272419D02*
X103275312Y-90272419D01*
X103275312Y-90272419D02*
X103370550Y-90320038D01*
X103370550Y-90320038D02*
X103418169Y-90367657D01*
X103418169Y-90367657D02*
X103465788Y-90462895D01*
X103465788Y-90462895D02*
X103465788Y-90558133D01*
X103465788Y-90558133D02*
X103418169Y-90653371D01*
X103418169Y-90653371D02*
X103370550Y-90700990D01*
X103370550Y-90700990D02*
X103275312Y-90748609D01*
X103275312Y-90748609D02*
X102941979Y-90748609D01*
X103894360Y-90986704D02*
X104370550Y-90986704D01*
X103799122Y-91272419D02*
X104132455Y-90272419D01*
X104132455Y-90272419D02*
X104465788Y-91272419D01*
X104656265Y-90272419D02*
X105227693Y-90272419D01*
X104941979Y-91272419D02*
X104941979Y-90272419D01*
X105418170Y-90272419D02*
X105989598Y-90272419D01*
X105703884Y-91272419D02*
X105703884Y-90272419D01*
D11*
X106127779Y-99056819D02*
X106127779Y-98056819D01*
X106127779Y-98056819D02*
X106508731Y-98056819D01*
X106508731Y-98056819D02*
X106603969Y-98104438D01*
X106603969Y-98104438D02*
X106651588Y-98152057D01*
X106651588Y-98152057D02*
X106699207Y-98247295D01*
X106699207Y-98247295D02*
X106699207Y-98390152D01*
X106699207Y-98390152D02*
X106651588Y-98485390D01*
X106651588Y-98485390D02*
X106603969Y-98533009D01*
X106603969Y-98533009D02*
X106508731Y-98580628D01*
X106508731Y-98580628D02*
X106127779Y-98580628D01*
X107270636Y-99056819D02*
X107175398Y-99009200D01*
X107175398Y-99009200D02*
X107127779Y-98961580D01*
X107127779Y-98961580D02*
X107080160Y-98866342D01*
X107080160Y-98866342D02*
X107080160Y-98580628D01*
X107080160Y-98580628D02*
X107127779Y-98485390D01*
X107127779Y-98485390D02*
X107175398Y-98437771D01*
X107175398Y-98437771D02*
X107270636Y-98390152D01*
X107270636Y-98390152D02*
X107413493Y-98390152D01*
X107413493Y-98390152D02*
X107508731Y-98437771D01*
X107508731Y-98437771D02*
X107556350Y-98485390D01*
X107556350Y-98485390D02*
X107603969Y-98580628D01*
X107603969Y-98580628D02*
X107603969Y-98866342D01*
X107603969Y-98866342D02*
X107556350Y-98961580D01*
X107556350Y-98961580D02*
X107508731Y-99009200D01*
X107508731Y-99009200D02*
X107413493Y-99056819D01*
X107413493Y-99056819D02*
X107270636Y-99056819D01*
X107937303Y-98390152D02*
X108461112Y-98390152D01*
X108461112Y-98390152D02*
X107937303Y-99056819D01*
X107937303Y-99056819D02*
X108461112Y-99056819D01*
X108794446Y-99009200D02*
X108937303Y-99056819D01*
X108937303Y-99056819D02*
X109175398Y-99056819D01*
X109175398Y-99056819D02*
X109270636Y-99009200D01*
X109270636Y-99009200D02*
X109318255Y-98961580D01*
X109318255Y-98961580D02*
X109365874Y-98866342D01*
X109365874Y-98866342D02*
X109365874Y-98771104D01*
X109365874Y-98771104D02*
X109318255Y-98675866D01*
X109318255Y-98675866D02*
X109270636Y-98628247D01*
X109270636Y-98628247D02*
X109175398Y-98580628D01*
X109175398Y-98580628D02*
X108984922Y-98533009D01*
X108984922Y-98533009D02*
X108889684Y-98485390D01*
X108889684Y-98485390D02*
X108842065Y-98437771D01*
X108842065Y-98437771D02*
X108794446Y-98342533D01*
X108794446Y-98342533D02*
X108794446Y-98247295D01*
X108794446Y-98247295D02*
X108842065Y-98152057D01*
X108842065Y-98152057D02*
X108889684Y-98104438D01*
X108889684Y-98104438D02*
X108984922Y-98056819D01*
X108984922Y-98056819D02*
X109223017Y-98056819D01*
X109223017Y-98056819D02*
X109365874Y-98104438D01*
X109937303Y-99056819D02*
X109842065Y-99009200D01*
X109842065Y-99009200D02*
X109794446Y-98961580D01*
X109794446Y-98961580D02*
X109746827Y-98866342D01*
X109746827Y-98866342D02*
X109746827Y-98580628D01*
X109746827Y-98580628D02*
X109794446Y-98485390D01*
X109794446Y-98485390D02*
X109842065Y-98437771D01*
X109842065Y-98437771D02*
X109937303Y-98390152D01*
X109937303Y-98390152D02*
X110080160Y-98390152D01*
X110080160Y-98390152D02*
X110175398Y-98437771D01*
X110175398Y-98437771D02*
X110223017Y-98485390D01*
X110223017Y-98485390D02*
X110270636Y-98580628D01*
X110270636Y-98580628D02*
X110270636Y-98866342D01*
X110270636Y-98866342D02*
X110223017Y-98961580D01*
X110223017Y-98961580D02*
X110175398Y-99009200D01*
X110175398Y-99009200D02*
X110080160Y-99056819D01*
X110080160Y-99056819D02*
X109937303Y-99056819D01*
X110842065Y-99056819D02*
X110746827Y-99009200D01*
X110746827Y-99009200D02*
X110699208Y-98913961D01*
X110699208Y-98913961D02*
X110699208Y-98056819D01*
X111651589Y-99056819D02*
X111651589Y-98533009D01*
X111651589Y-98533009D02*
X111603970Y-98437771D01*
X111603970Y-98437771D02*
X111508732Y-98390152D01*
X111508732Y-98390152D02*
X111318256Y-98390152D01*
X111318256Y-98390152D02*
X111223018Y-98437771D01*
X111651589Y-99009200D02*
X111556351Y-99056819D01*
X111556351Y-99056819D02*
X111318256Y-99056819D01*
X111318256Y-99056819D02*
X111223018Y-99009200D01*
X111223018Y-99009200D02*
X111175399Y-98913961D01*
X111175399Y-98913961D02*
X111175399Y-98818723D01*
X111175399Y-98818723D02*
X111223018Y-98723485D01*
X111223018Y-98723485D02*
X111318256Y-98675866D01*
X111318256Y-98675866D02*
X111556351Y-98675866D01*
X111556351Y-98675866D02*
X111651589Y-98628247D01*
X112127780Y-99056819D02*
X112127780Y-98390152D01*
X112127780Y-98580628D02*
X112175399Y-98485390D01*
X112175399Y-98485390D02*
X112223018Y-98437771D01*
X112223018Y-98437771D02*
X112318256Y-98390152D01*
X112318256Y-98390152D02*
X112413494Y-98390152D01*
X113318256Y-98961580D02*
X113270637Y-99009200D01*
X113270637Y-99009200D02*
X113127780Y-99056819D01*
X113127780Y-99056819D02*
X113032542Y-99056819D01*
X113032542Y-99056819D02*
X112889685Y-99009200D01*
X112889685Y-99009200D02*
X112794447Y-98913961D01*
X112794447Y-98913961D02*
X112746828Y-98818723D01*
X112746828Y-98818723D02*
X112699209Y-98628247D01*
X112699209Y-98628247D02*
X112699209Y-98485390D01*
X112699209Y-98485390D02*
X112746828Y-98294914D01*
X112746828Y-98294914D02*
X112794447Y-98199676D01*
X112794447Y-98199676D02*
X112889685Y-98104438D01*
X112889685Y-98104438D02*
X113032542Y-98056819D01*
X113032542Y-98056819D02*
X113127780Y-98056819D01*
X113127780Y-98056819D02*
X113270637Y-98104438D01*
X113270637Y-98104438D02*
X113318256Y-98152057D01*
X113746828Y-99056819D02*
X113746828Y-98056819D01*
X114175399Y-99056819D02*
X114175399Y-98533009D01*
X114175399Y-98533009D02*
X114127780Y-98437771D01*
X114127780Y-98437771D02*
X114032542Y-98390152D01*
X114032542Y-98390152D02*
X113889685Y-98390152D01*
X113889685Y-98390152D02*
X113794447Y-98437771D01*
X113794447Y-98437771D02*
X113746828Y-98485390D01*
X115080161Y-98390152D02*
X115080161Y-99199676D01*
X115080161Y-99199676D02*
X115032542Y-99294914D01*
X115032542Y-99294914D02*
X114984923Y-99342533D01*
X114984923Y-99342533D02*
X114889685Y-99390152D01*
X114889685Y-99390152D02*
X114746828Y-99390152D01*
X114746828Y-99390152D02*
X114651590Y-99342533D01*
X115080161Y-99009200D02*
X114984923Y-99056819D01*
X114984923Y-99056819D02*
X114794447Y-99056819D01*
X114794447Y-99056819D02*
X114699209Y-99009200D01*
X114699209Y-99009200D02*
X114651590Y-98961580D01*
X114651590Y-98961580D02*
X114603971Y-98866342D01*
X114603971Y-98866342D02*
X114603971Y-98580628D01*
X114603971Y-98580628D02*
X114651590Y-98485390D01*
X114651590Y-98485390D02*
X114699209Y-98437771D01*
X114699209Y-98437771D02*
X114794447Y-98390152D01*
X114794447Y-98390152D02*
X114984923Y-98390152D01*
X114984923Y-98390152D02*
X115080161Y-98437771D01*
X116223019Y-98390152D02*
X116461114Y-99056819D01*
X116461114Y-99056819D02*
X116699209Y-98390152D01*
X117603971Y-99056819D02*
X117032543Y-99056819D01*
X117318257Y-99056819D02*
X117318257Y-98056819D01*
X117318257Y-98056819D02*
X117223019Y-98199676D01*
X117223019Y-98199676D02*
X117127781Y-98294914D01*
X117127781Y-98294914D02*
X117032543Y-98342533D01*
X118032543Y-98961580D02*
X118080162Y-99009200D01*
X118080162Y-99009200D02*
X118032543Y-99056819D01*
X118032543Y-99056819D02*
X117984924Y-99009200D01*
X117984924Y-99009200D02*
X118032543Y-98961580D01*
X118032543Y-98961580D02*
X118032543Y-99056819D01*
X119032542Y-99056819D02*
X118461114Y-99056819D01*
X118746828Y-99056819D02*
X118746828Y-98056819D01*
X118746828Y-98056819D02*
X118651590Y-98199676D01*
X118651590Y-98199676D02*
X118556352Y-98294914D01*
X118556352Y-98294914D02*
X118461114Y-98342533D01*
D10*
X128716027Y-89642419D02*
X129049360Y-90642419D01*
X129049360Y-90642419D02*
X129382693Y-89642419D01*
X129668408Y-90594800D02*
X129811265Y-90642419D01*
X129811265Y-90642419D02*
X130049360Y-90642419D01*
X130049360Y-90642419D02*
X130144598Y-90594800D01*
X130144598Y-90594800D02*
X130192217Y-90547180D01*
X130192217Y-90547180D02*
X130239836Y-90451942D01*
X130239836Y-90451942D02*
X130239836Y-90356704D01*
X130239836Y-90356704D02*
X130192217Y-90261466D01*
X130192217Y-90261466D02*
X130144598Y-90213847D01*
X130144598Y-90213847D02*
X130049360Y-90166228D01*
X130049360Y-90166228D02*
X129858884Y-90118609D01*
X129858884Y-90118609D02*
X129763646Y-90070990D01*
X129763646Y-90070990D02*
X129716027Y-90023371D01*
X129716027Y-90023371D02*
X129668408Y-89928133D01*
X129668408Y-89928133D02*
X129668408Y-89832895D01*
X129668408Y-89832895D02*
X129716027Y-89737657D01*
X129716027Y-89737657D02*
X129763646Y-89690038D01*
X129763646Y-89690038D02*
X129858884Y-89642419D01*
X129858884Y-89642419D02*
X130096979Y-89642419D01*
X130096979Y-89642419D02*
X130239836Y-89690038D01*
X130430313Y-90737657D02*
X131192217Y-90737657D01*
X131382694Y-90356704D02*
X131858884Y-90356704D01*
X131287456Y-90642419D02*
X131620789Y-89642419D01*
X131620789Y-89642419D02*
X131954122Y-90642419D01*
X133361027Y-89672419D02*
X133694360Y-90672419D01*
X133694360Y-90672419D02*
X134027693Y-89672419D01*
X134313408Y-90624800D02*
X134456265Y-90672419D01*
X134456265Y-90672419D02*
X134694360Y-90672419D01*
X134694360Y-90672419D02*
X134789598Y-90624800D01*
X134789598Y-90624800D02*
X134837217Y-90577180D01*
X134837217Y-90577180D02*
X134884836Y-90481942D01*
X134884836Y-90481942D02*
X134884836Y-90386704D01*
X134884836Y-90386704D02*
X134837217Y-90291466D01*
X134837217Y-90291466D02*
X134789598Y-90243847D01*
X134789598Y-90243847D02*
X134694360Y-90196228D01*
X134694360Y-90196228D02*
X134503884Y-90148609D01*
X134503884Y-90148609D02*
X134408646Y-90100990D01*
X134408646Y-90100990D02*
X134361027Y-90053371D01*
X134361027Y-90053371D02*
X134313408Y-89958133D01*
X134313408Y-89958133D02*
X134313408Y-89862895D01*
X134313408Y-89862895D02*
X134361027Y-89767657D01*
X134361027Y-89767657D02*
X134408646Y-89720038D01*
X134408646Y-89720038D02*
X134503884Y-89672419D01*
X134503884Y-89672419D02*
X134741979Y-89672419D01*
X134741979Y-89672419D02*
X134884836Y-89720038D01*
X135075313Y-90767657D02*
X135837217Y-90767657D01*
X136408646Y-90148609D02*
X136551503Y-90196228D01*
X136551503Y-90196228D02*
X136599122Y-90243847D01*
X136599122Y-90243847D02*
X136646741Y-90339085D01*
X136646741Y-90339085D02*
X136646741Y-90481942D01*
X136646741Y-90481942D02*
X136599122Y-90577180D01*
X136599122Y-90577180D02*
X136551503Y-90624800D01*
X136551503Y-90624800D02*
X136456265Y-90672419D01*
X136456265Y-90672419D02*
X136075313Y-90672419D01*
X136075313Y-90672419D02*
X136075313Y-89672419D01*
X136075313Y-89672419D02*
X136408646Y-89672419D01*
X136408646Y-89672419D02*
X136503884Y-89720038D01*
X136503884Y-89720038D02*
X136551503Y-89767657D01*
X136551503Y-89767657D02*
X136599122Y-89862895D01*
X136599122Y-89862895D02*
X136599122Y-89958133D01*
X136599122Y-89958133D02*
X136551503Y-90053371D01*
X136551503Y-90053371D02*
X136503884Y-90100990D01*
X136503884Y-90100990D02*
X136408646Y-90148609D01*
X136408646Y-90148609D02*
X136075313Y-90148609D01*
D11*
X155661905Y-64854819D02*
X155661905Y-63854819D01*
X155661905Y-63854819D02*
X155900000Y-63854819D01*
X155900000Y-63854819D02*
X156042857Y-63902438D01*
X156042857Y-63902438D02*
X156138095Y-63997676D01*
X156138095Y-63997676D02*
X156185714Y-64092914D01*
X156185714Y-64092914D02*
X156233333Y-64283390D01*
X156233333Y-64283390D02*
X156233333Y-64426247D01*
X156233333Y-64426247D02*
X156185714Y-64616723D01*
X156185714Y-64616723D02*
X156138095Y-64711961D01*
X156138095Y-64711961D02*
X156042857Y-64807200D01*
X156042857Y-64807200D02*
X155900000Y-64854819D01*
X155900000Y-64854819D02*
X155661905Y-64854819D01*
X157090476Y-64188152D02*
X157090476Y-64854819D01*
X156852381Y-63807200D02*
X156614286Y-64521485D01*
X156614286Y-64521485D02*
X157233333Y-64521485D01*
X132833333Y-99454819D02*
X132357143Y-99454819D01*
X132357143Y-99454819D02*
X132357143Y-98454819D01*
X133690476Y-99454819D02*
X133119048Y-99454819D01*
X133404762Y-99454819D02*
X133404762Y-98454819D01*
X133404762Y-98454819D02*
X133309524Y-98597676D01*
X133309524Y-98597676D02*
X133214286Y-98692914D01*
X133214286Y-98692914D02*
X133119048Y-98740533D01*
X133054819Y-84966666D02*
X132578628Y-85299999D01*
X133054819Y-85538094D02*
X132054819Y-85538094D01*
X132054819Y-85538094D02*
X132054819Y-85157142D01*
X132054819Y-85157142D02*
X132102438Y-85061904D01*
X132102438Y-85061904D02*
X132150057Y-85014285D01*
X132150057Y-85014285D02*
X132245295Y-84966666D01*
X132245295Y-84966666D02*
X132388152Y-84966666D01*
X132388152Y-84966666D02*
X132483390Y-85014285D01*
X132483390Y-85014285D02*
X132531009Y-85061904D01*
X132531009Y-85061904D02*
X132578628Y-85157142D01*
X132578628Y-85157142D02*
X132578628Y-85538094D01*
X133054819Y-84490475D02*
X133054819Y-84299999D01*
X133054819Y-84299999D02*
X133007200Y-84204761D01*
X133007200Y-84204761D02*
X132959580Y-84157142D01*
X132959580Y-84157142D02*
X132816723Y-84061904D01*
X132816723Y-84061904D02*
X132626247Y-84014285D01*
X132626247Y-84014285D02*
X132245295Y-84014285D01*
X132245295Y-84014285D02*
X132150057Y-84061904D01*
X132150057Y-84061904D02*
X132102438Y-84109523D01*
X132102438Y-84109523D02*
X132054819Y-84204761D01*
X132054819Y-84204761D02*
X132054819Y-84395237D01*
X132054819Y-84395237D02*
X132102438Y-84490475D01*
X132102438Y-84490475D02*
X132150057Y-84538094D01*
X132150057Y-84538094D02*
X132245295Y-84585713D01*
X132245295Y-84585713D02*
X132483390Y-84585713D01*
X132483390Y-84585713D02*
X132578628Y-84538094D01*
X132578628Y-84538094D02*
X132626247Y-84490475D01*
X132626247Y-84490475D02*
X132673866Y-84395237D01*
X132673866Y-84395237D02*
X132673866Y-84204761D01*
X132673866Y-84204761D02*
X132626247Y-84109523D01*
X132626247Y-84109523D02*
X132578628Y-84061904D01*
X132578628Y-84061904D02*
X132483390Y-84014285D01*
X127357142Y-88359580D02*
X127309523Y-88407200D01*
X127309523Y-88407200D02*
X127166666Y-88454819D01*
X127166666Y-88454819D02*
X127071428Y-88454819D01*
X127071428Y-88454819D02*
X126928571Y-88407200D01*
X126928571Y-88407200D02*
X126833333Y-88311961D01*
X126833333Y-88311961D02*
X126785714Y-88216723D01*
X126785714Y-88216723D02*
X126738095Y-88026247D01*
X126738095Y-88026247D02*
X126738095Y-87883390D01*
X126738095Y-87883390D02*
X126785714Y-87692914D01*
X126785714Y-87692914D02*
X126833333Y-87597676D01*
X126833333Y-87597676D02*
X126928571Y-87502438D01*
X126928571Y-87502438D02*
X127071428Y-87454819D01*
X127071428Y-87454819D02*
X127166666Y-87454819D01*
X127166666Y-87454819D02*
X127309523Y-87502438D01*
X127309523Y-87502438D02*
X127357142Y-87550057D01*
X128309523Y-88454819D02*
X127738095Y-88454819D01*
X128023809Y-88454819D02*
X128023809Y-87454819D01*
X128023809Y-87454819D02*
X127928571Y-87597676D01*
X127928571Y-87597676D02*
X127833333Y-87692914D01*
X127833333Y-87692914D02*
X127738095Y-87740533D01*
X128785714Y-88454819D02*
X128976190Y-88454819D01*
X128976190Y-88454819D02*
X129071428Y-88407200D01*
X129071428Y-88407200D02*
X129119047Y-88359580D01*
X129119047Y-88359580D02*
X129214285Y-88216723D01*
X129214285Y-88216723D02*
X129261904Y-88026247D01*
X129261904Y-88026247D02*
X129261904Y-87645295D01*
X129261904Y-87645295D02*
X129214285Y-87550057D01*
X129214285Y-87550057D02*
X129166666Y-87502438D01*
X129166666Y-87502438D02*
X129071428Y-87454819D01*
X129071428Y-87454819D02*
X128880952Y-87454819D01*
X128880952Y-87454819D02*
X128785714Y-87502438D01*
X128785714Y-87502438D02*
X128738095Y-87550057D01*
X128738095Y-87550057D02*
X128690476Y-87645295D01*
X128690476Y-87645295D02*
X128690476Y-87883390D01*
X128690476Y-87883390D02*
X128738095Y-87978628D01*
X128738095Y-87978628D02*
X128785714Y-88026247D01*
X128785714Y-88026247D02*
X128880952Y-88073866D01*
X128880952Y-88073866D02*
X129071428Y-88073866D01*
X129071428Y-88073866D02*
X129166666Y-88026247D01*
X129166666Y-88026247D02*
X129214285Y-87978628D01*
X129214285Y-87978628D02*
X129261904Y-87883390D01*
X130061905Y-77254819D02*
X130061905Y-76254819D01*
X130061905Y-76254819D02*
X130300000Y-76254819D01*
X130300000Y-76254819D02*
X130442857Y-76302438D01*
X130442857Y-76302438D02*
X130538095Y-76397676D01*
X130538095Y-76397676D02*
X130585714Y-76492914D01*
X130585714Y-76492914D02*
X130633333Y-76683390D01*
X130633333Y-76683390D02*
X130633333Y-76826247D01*
X130633333Y-76826247D02*
X130585714Y-77016723D01*
X130585714Y-77016723D02*
X130538095Y-77111961D01*
X130538095Y-77111961D02*
X130442857Y-77207200D01*
X130442857Y-77207200D02*
X130300000Y-77254819D01*
X130300000Y-77254819D02*
X130061905Y-77254819D01*
X131014286Y-76350057D02*
X131061905Y-76302438D01*
X131061905Y-76302438D02*
X131157143Y-76254819D01*
X131157143Y-76254819D02*
X131395238Y-76254819D01*
X131395238Y-76254819D02*
X131490476Y-76302438D01*
X131490476Y-76302438D02*
X131538095Y-76350057D01*
X131538095Y-76350057D02*
X131585714Y-76445295D01*
X131585714Y-76445295D02*
X131585714Y-76540533D01*
X131585714Y-76540533D02*
X131538095Y-76683390D01*
X131538095Y-76683390D02*
X130966667Y-77254819D01*
X130966667Y-77254819D02*
X131585714Y-77254819D01*
X148934546Y-90153994D02*
X148934546Y-90963517D01*
X148934546Y-90963517D02*
X148982165Y-91058755D01*
X148982165Y-91058755D02*
X149029784Y-91106375D01*
X149029784Y-91106375D02*
X149125022Y-91153994D01*
X149125022Y-91153994D02*
X149315498Y-91153994D01*
X149315498Y-91153994D02*
X149410736Y-91106375D01*
X149410736Y-91106375D02*
X149458355Y-91058755D01*
X149458355Y-91058755D02*
X149505974Y-90963517D01*
X149505974Y-90963517D02*
X149505974Y-90153994D01*
X150505974Y-91153994D02*
X149934546Y-91153994D01*
X150220260Y-91153994D02*
X150220260Y-90153994D01*
X150220260Y-90153994D02*
X150125022Y-90296851D01*
X150125022Y-90296851D02*
X150029784Y-90392089D01*
X150029784Y-90392089D02*
X149934546Y-90439708D01*
X106957142Y-95054819D02*
X106623809Y-94578628D01*
X106385714Y-95054819D02*
X106385714Y-94054819D01*
X106385714Y-94054819D02*
X106766666Y-94054819D01*
X106766666Y-94054819D02*
X106861904Y-94102438D01*
X106861904Y-94102438D02*
X106909523Y-94150057D01*
X106909523Y-94150057D02*
X106957142Y-94245295D01*
X106957142Y-94245295D02*
X106957142Y-94388152D01*
X106957142Y-94388152D02*
X106909523Y-94483390D01*
X106909523Y-94483390D02*
X106861904Y-94531009D01*
X106861904Y-94531009D02*
X106766666Y-94578628D01*
X106766666Y-94578628D02*
X106385714Y-94578628D01*
X107909523Y-95054819D02*
X107338095Y-95054819D01*
X107623809Y-95054819D02*
X107623809Y-94054819D01*
X107623809Y-94054819D02*
X107528571Y-94197676D01*
X107528571Y-94197676D02*
X107433333Y-94292914D01*
X107433333Y-94292914D02*
X107338095Y-94340533D01*
X108385714Y-95054819D02*
X108576190Y-95054819D01*
X108576190Y-95054819D02*
X108671428Y-95007200D01*
X108671428Y-95007200D02*
X108719047Y-94959580D01*
X108719047Y-94959580D02*
X108814285Y-94816723D01*
X108814285Y-94816723D02*
X108861904Y-94626247D01*
X108861904Y-94626247D02*
X108861904Y-94245295D01*
X108861904Y-94245295D02*
X108814285Y-94150057D01*
X108814285Y-94150057D02*
X108766666Y-94102438D01*
X108766666Y-94102438D02*
X108671428Y-94054819D01*
X108671428Y-94054819D02*
X108480952Y-94054819D01*
X108480952Y-94054819D02*
X108385714Y-94102438D01*
X108385714Y-94102438D02*
X108338095Y-94150057D01*
X108338095Y-94150057D02*
X108290476Y-94245295D01*
X108290476Y-94245295D02*
X108290476Y-94483390D01*
X108290476Y-94483390D02*
X108338095Y-94578628D01*
X108338095Y-94578628D02*
X108385714Y-94626247D01*
X108385714Y-94626247D02*
X108480952Y-94673866D01*
X108480952Y-94673866D02*
X108671428Y-94673866D01*
X108671428Y-94673866D02*
X108766666Y-94626247D01*
X108766666Y-94626247D02*
X108814285Y-94578628D01*
X108814285Y-94578628D02*
X108861904Y-94483390D01*
X120557142Y-82159580D02*
X120509523Y-82207200D01*
X120509523Y-82207200D02*
X120366666Y-82254819D01*
X120366666Y-82254819D02*
X120271428Y-82254819D01*
X120271428Y-82254819D02*
X120128571Y-82207200D01*
X120128571Y-82207200D02*
X120033333Y-82111961D01*
X120033333Y-82111961D02*
X119985714Y-82016723D01*
X119985714Y-82016723D02*
X119938095Y-81826247D01*
X119938095Y-81826247D02*
X119938095Y-81683390D01*
X119938095Y-81683390D02*
X119985714Y-81492914D01*
X119985714Y-81492914D02*
X120033333Y-81397676D01*
X120033333Y-81397676D02*
X120128571Y-81302438D01*
X120128571Y-81302438D02*
X120271428Y-81254819D01*
X120271428Y-81254819D02*
X120366666Y-81254819D01*
X120366666Y-81254819D02*
X120509523Y-81302438D01*
X120509523Y-81302438D02*
X120557142Y-81350057D01*
X121509523Y-82254819D02*
X120938095Y-82254819D01*
X121223809Y-82254819D02*
X121223809Y-81254819D01*
X121223809Y-81254819D02*
X121128571Y-81397676D01*
X121128571Y-81397676D02*
X121033333Y-81492914D01*
X121033333Y-81492914D02*
X120938095Y-81540533D01*
X122414285Y-81254819D02*
X121938095Y-81254819D01*
X121938095Y-81254819D02*
X121890476Y-81731009D01*
X121890476Y-81731009D02*
X121938095Y-81683390D01*
X121938095Y-81683390D02*
X122033333Y-81635771D01*
X122033333Y-81635771D02*
X122271428Y-81635771D01*
X122271428Y-81635771D02*
X122366666Y-81683390D01*
X122366666Y-81683390D02*
X122414285Y-81731009D01*
X122414285Y-81731009D02*
X122461904Y-81826247D01*
X122461904Y-81826247D02*
X122461904Y-82064342D01*
X122461904Y-82064342D02*
X122414285Y-82159580D01*
X122414285Y-82159580D02*
X122366666Y-82207200D01*
X122366666Y-82207200D02*
X122271428Y-82254819D01*
X122271428Y-82254819D02*
X122033333Y-82254819D01*
X122033333Y-82254819D02*
X121938095Y-82207200D01*
X121938095Y-82207200D02*
X121890476Y-82159580D01*
X101166666Y-82431009D02*
X100833333Y-82431009D01*
X100833333Y-82954819D02*
X100833333Y-81954819D01*
X100833333Y-81954819D02*
X101309523Y-81954819D01*
X101642857Y-82050057D02*
X101690476Y-82002438D01*
X101690476Y-82002438D02*
X101785714Y-81954819D01*
X101785714Y-81954819D02*
X102023809Y-81954819D01*
X102023809Y-81954819D02*
X102119047Y-82002438D01*
X102119047Y-82002438D02*
X102166666Y-82050057D01*
X102166666Y-82050057D02*
X102214285Y-82145295D01*
X102214285Y-82145295D02*
X102214285Y-82240533D01*
X102214285Y-82240533D02*
X102166666Y-82383390D01*
X102166666Y-82383390D02*
X101595238Y-82954819D01*
X101595238Y-82954819D02*
X102214285Y-82954819D01*
X155661905Y-68674819D02*
X155661905Y-67674819D01*
X155661905Y-67674819D02*
X155900000Y-67674819D01*
X155900000Y-67674819D02*
X156042857Y-67722438D01*
X156042857Y-67722438D02*
X156138095Y-67817676D01*
X156138095Y-67817676D02*
X156185714Y-67912914D01*
X156185714Y-67912914D02*
X156233333Y-68103390D01*
X156233333Y-68103390D02*
X156233333Y-68246247D01*
X156233333Y-68246247D02*
X156185714Y-68436723D01*
X156185714Y-68436723D02*
X156138095Y-68531961D01*
X156138095Y-68531961D02*
X156042857Y-68627200D01*
X156042857Y-68627200D02*
X155900000Y-68674819D01*
X155900000Y-68674819D02*
X155661905Y-68674819D01*
X157090476Y-67674819D02*
X156900000Y-67674819D01*
X156900000Y-67674819D02*
X156804762Y-67722438D01*
X156804762Y-67722438D02*
X156757143Y-67770057D01*
X156757143Y-67770057D02*
X156661905Y-67912914D01*
X156661905Y-67912914D02*
X156614286Y-68103390D01*
X156614286Y-68103390D02*
X156614286Y-68484342D01*
X156614286Y-68484342D02*
X156661905Y-68579580D01*
X156661905Y-68579580D02*
X156709524Y-68627200D01*
X156709524Y-68627200D02*
X156804762Y-68674819D01*
X156804762Y-68674819D02*
X156995238Y-68674819D01*
X156995238Y-68674819D02*
X157090476Y-68627200D01*
X157090476Y-68627200D02*
X157138095Y-68579580D01*
X157138095Y-68579580D02*
X157185714Y-68484342D01*
X157185714Y-68484342D02*
X157185714Y-68246247D01*
X157185714Y-68246247D02*
X157138095Y-68151009D01*
X157138095Y-68151009D02*
X157090476Y-68103390D01*
X157090476Y-68103390D02*
X156995238Y-68055771D01*
X156995238Y-68055771D02*
X156804762Y-68055771D01*
X156804762Y-68055771D02*
X156709524Y-68103390D01*
X156709524Y-68103390D02*
X156661905Y-68151009D01*
X156661905Y-68151009D02*
X156614286Y-68246247D01*
X106833333Y-68859580D02*
X106785714Y-68907200D01*
X106785714Y-68907200D02*
X106642857Y-68954819D01*
X106642857Y-68954819D02*
X106547619Y-68954819D01*
X106547619Y-68954819D02*
X106404762Y-68907200D01*
X106404762Y-68907200D02*
X106309524Y-68811961D01*
X106309524Y-68811961D02*
X106261905Y-68716723D01*
X106261905Y-68716723D02*
X106214286Y-68526247D01*
X106214286Y-68526247D02*
X106214286Y-68383390D01*
X106214286Y-68383390D02*
X106261905Y-68192914D01*
X106261905Y-68192914D02*
X106309524Y-68097676D01*
X106309524Y-68097676D02*
X106404762Y-68002438D01*
X106404762Y-68002438D02*
X106547619Y-67954819D01*
X106547619Y-67954819D02*
X106642857Y-67954819D01*
X106642857Y-67954819D02*
X106785714Y-68002438D01*
X106785714Y-68002438D02*
X106833333Y-68050057D01*
X107690476Y-68288152D02*
X107690476Y-68954819D01*
X107452381Y-67907200D02*
X107214286Y-68621485D01*
X107214286Y-68621485D02*
X107833333Y-68621485D01*
X121557142Y-92654819D02*
X121223809Y-92178628D01*
X120985714Y-92654819D02*
X120985714Y-91654819D01*
X120985714Y-91654819D02*
X121366666Y-91654819D01*
X121366666Y-91654819D02*
X121461904Y-91702438D01*
X121461904Y-91702438D02*
X121509523Y-91750057D01*
X121509523Y-91750057D02*
X121557142Y-91845295D01*
X121557142Y-91845295D02*
X121557142Y-91988152D01*
X121557142Y-91988152D02*
X121509523Y-92083390D01*
X121509523Y-92083390D02*
X121461904Y-92131009D01*
X121461904Y-92131009D02*
X121366666Y-92178628D01*
X121366666Y-92178628D02*
X120985714Y-92178628D01*
X122509523Y-92654819D02*
X121938095Y-92654819D01*
X122223809Y-92654819D02*
X122223809Y-91654819D01*
X122223809Y-91654819D02*
X122128571Y-91797676D01*
X122128571Y-91797676D02*
X122033333Y-91892914D01*
X122033333Y-91892914D02*
X121938095Y-91940533D01*
X123414285Y-91654819D02*
X122938095Y-91654819D01*
X122938095Y-91654819D02*
X122890476Y-92131009D01*
X122890476Y-92131009D02*
X122938095Y-92083390D01*
X122938095Y-92083390D02*
X123033333Y-92035771D01*
X123033333Y-92035771D02*
X123271428Y-92035771D01*
X123271428Y-92035771D02*
X123366666Y-92083390D01*
X123366666Y-92083390D02*
X123414285Y-92131009D01*
X123414285Y-92131009D02*
X123461904Y-92226247D01*
X123461904Y-92226247D02*
X123461904Y-92464342D01*
X123461904Y-92464342D02*
X123414285Y-92559580D01*
X123414285Y-92559580D02*
X123366666Y-92607200D01*
X123366666Y-92607200D02*
X123271428Y-92654819D01*
X123271428Y-92654819D02*
X123033333Y-92654819D01*
X123033333Y-92654819D02*
X122938095Y-92607200D01*
X122938095Y-92607200D02*
X122890476Y-92559580D01*
X139254819Y-69842857D02*
X138778628Y-70176190D01*
X139254819Y-70414285D02*
X138254819Y-70414285D01*
X138254819Y-70414285D02*
X138254819Y-70033333D01*
X138254819Y-70033333D02*
X138302438Y-69938095D01*
X138302438Y-69938095D02*
X138350057Y-69890476D01*
X138350057Y-69890476D02*
X138445295Y-69842857D01*
X138445295Y-69842857D02*
X138588152Y-69842857D01*
X138588152Y-69842857D02*
X138683390Y-69890476D01*
X138683390Y-69890476D02*
X138731009Y-69938095D01*
X138731009Y-69938095D02*
X138778628Y-70033333D01*
X138778628Y-70033333D02*
X138778628Y-70414285D01*
X138254819Y-69509523D02*
X138254819Y-68890476D01*
X138254819Y-68890476D02*
X138635771Y-69223809D01*
X138635771Y-69223809D02*
X138635771Y-69080952D01*
X138635771Y-69080952D02*
X138683390Y-68985714D01*
X138683390Y-68985714D02*
X138731009Y-68938095D01*
X138731009Y-68938095D02*
X138826247Y-68890476D01*
X138826247Y-68890476D02*
X139064342Y-68890476D01*
X139064342Y-68890476D02*
X139159580Y-68938095D01*
X139159580Y-68938095D02*
X139207200Y-68985714D01*
X139207200Y-68985714D02*
X139254819Y-69080952D01*
X139254819Y-69080952D02*
X139254819Y-69366666D01*
X139254819Y-69366666D02*
X139207200Y-69461904D01*
X139207200Y-69461904D02*
X139159580Y-69509523D01*
X139254819Y-67938095D02*
X139254819Y-68509523D01*
X139254819Y-68223809D02*
X138254819Y-68223809D01*
X138254819Y-68223809D02*
X138397676Y-68319047D01*
X138397676Y-68319047D02*
X138492914Y-68414285D01*
X138492914Y-68414285D02*
X138540533Y-68509523D01*
X150287476Y-84125294D02*
X150239857Y-84172914D01*
X150239857Y-84172914D02*
X150097000Y-84220533D01*
X150097000Y-84220533D02*
X150001762Y-84220533D01*
X150001762Y-84220533D02*
X149858905Y-84172914D01*
X149858905Y-84172914D02*
X149763667Y-84077675D01*
X149763667Y-84077675D02*
X149716048Y-83982437D01*
X149716048Y-83982437D02*
X149668429Y-83791961D01*
X149668429Y-83791961D02*
X149668429Y-83649104D01*
X149668429Y-83649104D02*
X149716048Y-83458628D01*
X149716048Y-83458628D02*
X149763667Y-83363390D01*
X149763667Y-83363390D02*
X149858905Y-83268152D01*
X149858905Y-83268152D02*
X150001762Y-83220533D01*
X150001762Y-83220533D02*
X150097000Y-83220533D01*
X150097000Y-83220533D02*
X150239857Y-83268152D01*
X150239857Y-83268152D02*
X150287476Y-83315771D01*
X151239857Y-84220533D02*
X150668429Y-84220533D01*
X150954143Y-84220533D02*
X150954143Y-83220533D01*
X150954143Y-83220533D02*
X150858905Y-83363390D01*
X150858905Y-83363390D02*
X150763667Y-83458628D01*
X150763667Y-83458628D02*
X150668429Y-83506247D01*
X104666666Y-63954819D02*
X104666666Y-64669104D01*
X104666666Y-64669104D02*
X104619047Y-64811961D01*
X104619047Y-64811961D02*
X104523809Y-64907200D01*
X104523809Y-64907200D02*
X104380952Y-64954819D01*
X104380952Y-64954819D02*
X104285714Y-64954819D01*
X105095238Y-64050057D02*
X105142857Y-64002438D01*
X105142857Y-64002438D02*
X105238095Y-63954819D01*
X105238095Y-63954819D02*
X105476190Y-63954819D01*
X105476190Y-63954819D02*
X105571428Y-64002438D01*
X105571428Y-64002438D02*
X105619047Y-64050057D01*
X105619047Y-64050057D02*
X105666666Y-64145295D01*
X105666666Y-64145295D02*
X105666666Y-64240533D01*
X105666666Y-64240533D02*
X105619047Y-64383390D01*
X105619047Y-64383390D02*
X105047619Y-64954819D01*
X105047619Y-64954819D02*
X105666666Y-64954819D01*
X97541904Y-73151009D02*
X97684761Y-73198628D01*
X97684761Y-73198628D02*
X97732380Y-73246247D01*
X97732380Y-73246247D02*
X97779999Y-73341485D01*
X97779999Y-73341485D02*
X97779999Y-73484342D01*
X97779999Y-73484342D02*
X97732380Y-73579580D01*
X97732380Y-73579580D02*
X97684761Y-73627200D01*
X97684761Y-73627200D02*
X97589523Y-73674819D01*
X97589523Y-73674819D02*
X97208571Y-73674819D01*
X97208571Y-73674819D02*
X97208571Y-72674819D01*
X97208571Y-72674819D02*
X97541904Y-72674819D01*
X97541904Y-72674819D02*
X97637142Y-72722438D01*
X97637142Y-72722438D02*
X97684761Y-72770057D01*
X97684761Y-72770057D02*
X97732380Y-72865295D01*
X97732380Y-72865295D02*
X97732380Y-72960533D01*
X97732380Y-72960533D02*
X97684761Y-73055771D01*
X97684761Y-73055771D02*
X97637142Y-73103390D01*
X97637142Y-73103390D02*
X97541904Y-73151009D01*
X97541904Y-73151009D02*
X97208571Y-73151009D01*
X98160952Y-73389104D02*
X98637142Y-73389104D01*
X98065714Y-73674819D02*
X98399047Y-72674819D01*
X98399047Y-72674819D02*
X98732380Y-73674819D01*
X99541904Y-73674819D02*
X99065714Y-73674819D01*
X99065714Y-73674819D02*
X99065714Y-72674819D01*
X100399047Y-73674819D02*
X99827619Y-73674819D01*
X100113333Y-73674819D02*
X100113333Y-72674819D01*
X100113333Y-72674819D02*
X100018095Y-72817676D01*
X100018095Y-72817676D02*
X99922857Y-72912914D01*
X99922857Y-72912914D02*
X99827619Y-72960533D01*
X132757142Y-75578122D02*
X132709523Y-75625742D01*
X132709523Y-75625742D02*
X132566666Y-75673361D01*
X132566666Y-75673361D02*
X132471428Y-75673361D01*
X132471428Y-75673361D02*
X132328571Y-75625742D01*
X132328571Y-75625742D02*
X132233333Y-75530503D01*
X132233333Y-75530503D02*
X132185714Y-75435265D01*
X132185714Y-75435265D02*
X132138095Y-75244789D01*
X132138095Y-75244789D02*
X132138095Y-75101932D01*
X132138095Y-75101932D02*
X132185714Y-74911456D01*
X132185714Y-74911456D02*
X132233333Y-74816218D01*
X132233333Y-74816218D02*
X132328571Y-74720980D01*
X132328571Y-74720980D02*
X132471428Y-74673361D01*
X132471428Y-74673361D02*
X132566666Y-74673361D01*
X132566666Y-74673361D02*
X132709523Y-74720980D01*
X132709523Y-74720980D02*
X132757142Y-74768599D01*
X133709523Y-75673361D02*
X133138095Y-75673361D01*
X133423809Y-75673361D02*
X133423809Y-74673361D01*
X133423809Y-74673361D02*
X133328571Y-74816218D01*
X133328571Y-74816218D02*
X133233333Y-74911456D01*
X133233333Y-74911456D02*
X133138095Y-74959075D01*
X134090476Y-74768599D02*
X134138095Y-74720980D01*
X134138095Y-74720980D02*
X134233333Y-74673361D01*
X134233333Y-74673361D02*
X134471428Y-74673361D01*
X134471428Y-74673361D02*
X134566666Y-74720980D01*
X134566666Y-74720980D02*
X134614285Y-74768599D01*
X134614285Y-74768599D02*
X134661904Y-74863837D01*
X134661904Y-74863837D02*
X134661904Y-74959075D01*
X134661904Y-74959075D02*
X134614285Y-75101932D01*
X134614285Y-75101932D02*
X134042857Y-75673361D01*
X134042857Y-75673361D02*
X134661904Y-75673361D01*
X119613819Y-93057857D02*
X119137628Y-93391190D01*
X119613819Y-93629285D02*
X118613819Y-93629285D01*
X118613819Y-93629285D02*
X118613819Y-93248333D01*
X118613819Y-93248333D02*
X118661438Y-93153095D01*
X118661438Y-93153095D02*
X118709057Y-93105476D01*
X118709057Y-93105476D02*
X118804295Y-93057857D01*
X118804295Y-93057857D02*
X118947152Y-93057857D01*
X118947152Y-93057857D02*
X119042390Y-93105476D01*
X119042390Y-93105476D02*
X119090009Y-93153095D01*
X119090009Y-93153095D02*
X119137628Y-93248333D01*
X119137628Y-93248333D02*
X119137628Y-93629285D01*
X118709057Y-92676904D02*
X118661438Y-92629285D01*
X118661438Y-92629285D02*
X118613819Y-92534047D01*
X118613819Y-92534047D02*
X118613819Y-92295952D01*
X118613819Y-92295952D02*
X118661438Y-92200714D01*
X118661438Y-92200714D02*
X118709057Y-92153095D01*
X118709057Y-92153095D02*
X118804295Y-92105476D01*
X118804295Y-92105476D02*
X118899533Y-92105476D01*
X118899533Y-92105476D02*
X119042390Y-92153095D01*
X119042390Y-92153095D02*
X119613819Y-92724523D01*
X119613819Y-92724523D02*
X119613819Y-92105476D01*
X118709057Y-91724523D02*
X118661438Y-91676904D01*
X118661438Y-91676904D02*
X118613819Y-91581666D01*
X118613819Y-91581666D02*
X118613819Y-91343571D01*
X118613819Y-91343571D02*
X118661438Y-91248333D01*
X118661438Y-91248333D02*
X118709057Y-91200714D01*
X118709057Y-91200714D02*
X118804295Y-91153095D01*
X118804295Y-91153095D02*
X118899533Y-91153095D01*
X118899533Y-91153095D02*
X119042390Y-91200714D01*
X119042390Y-91200714D02*
X119613819Y-91772142D01*
X119613819Y-91772142D02*
X119613819Y-91153095D01*
X114144877Y-82803100D02*
X114049639Y-82755481D01*
X114049639Y-82755481D02*
X113954401Y-82660243D01*
X113954401Y-82660243D02*
X113811544Y-82517385D01*
X113811544Y-82517385D02*
X113716306Y-82469766D01*
X113716306Y-82469766D02*
X113621068Y-82469766D01*
X113668687Y-82707862D02*
X113573449Y-82660243D01*
X113573449Y-82660243D02*
X113478211Y-82565004D01*
X113478211Y-82565004D02*
X113430592Y-82374528D01*
X113430592Y-82374528D02*
X113430592Y-82041195D01*
X113430592Y-82041195D02*
X113478211Y-81850719D01*
X113478211Y-81850719D02*
X113573449Y-81755481D01*
X113573449Y-81755481D02*
X113668687Y-81707862D01*
X113668687Y-81707862D02*
X113859163Y-81707862D01*
X113859163Y-81707862D02*
X113954401Y-81755481D01*
X113954401Y-81755481D02*
X114049639Y-81850719D01*
X114049639Y-81850719D02*
X114097258Y-82041195D01*
X114097258Y-82041195D02*
X114097258Y-82374528D01*
X114097258Y-82374528D02*
X114049639Y-82565004D01*
X114049639Y-82565004D02*
X113954401Y-82660243D01*
X113954401Y-82660243D02*
X113859163Y-82707862D01*
X113859163Y-82707862D02*
X113668687Y-82707862D01*
X115049639Y-82707862D02*
X114478211Y-82707862D01*
X114763925Y-82707862D02*
X114763925Y-81707862D01*
X114763925Y-81707862D02*
X114668687Y-81850719D01*
X114668687Y-81850719D02*
X114573449Y-81945957D01*
X114573449Y-81945957D02*
X114478211Y-81993576D01*
X115668687Y-81707862D02*
X115763925Y-81707862D01*
X115763925Y-81707862D02*
X115859163Y-81755481D01*
X115859163Y-81755481D02*
X115906782Y-81803100D01*
X115906782Y-81803100D02*
X115954401Y-81898338D01*
X115954401Y-81898338D02*
X116002020Y-82088814D01*
X116002020Y-82088814D02*
X116002020Y-82326909D01*
X116002020Y-82326909D02*
X115954401Y-82517385D01*
X115954401Y-82517385D02*
X115906782Y-82612623D01*
X115906782Y-82612623D02*
X115859163Y-82660243D01*
X115859163Y-82660243D02*
X115763925Y-82707862D01*
X115763925Y-82707862D02*
X115668687Y-82707862D01*
X115668687Y-82707862D02*
X115573449Y-82660243D01*
X115573449Y-82660243D02*
X115525830Y-82612623D01*
X115525830Y-82612623D02*
X115478211Y-82517385D01*
X115478211Y-82517385D02*
X115430592Y-82326909D01*
X115430592Y-82326909D02*
X115430592Y-82088814D01*
X115430592Y-82088814D02*
X115478211Y-81898338D01*
X115478211Y-81898338D02*
X115525830Y-81803100D01*
X115525830Y-81803100D02*
X115573449Y-81755481D01*
X115573449Y-81755481D02*
X115668687Y-81707862D01*
X113054819Y-88042857D02*
X112578628Y-88376190D01*
X113054819Y-88614285D02*
X112054819Y-88614285D01*
X112054819Y-88614285D02*
X112054819Y-88233333D01*
X112054819Y-88233333D02*
X112102438Y-88138095D01*
X112102438Y-88138095D02*
X112150057Y-88090476D01*
X112150057Y-88090476D02*
X112245295Y-88042857D01*
X112245295Y-88042857D02*
X112388152Y-88042857D01*
X112388152Y-88042857D02*
X112483390Y-88090476D01*
X112483390Y-88090476D02*
X112531009Y-88138095D01*
X112531009Y-88138095D02*
X112578628Y-88233333D01*
X112578628Y-88233333D02*
X112578628Y-88614285D01*
X112150057Y-87661904D02*
X112102438Y-87614285D01*
X112102438Y-87614285D02*
X112054819Y-87519047D01*
X112054819Y-87519047D02*
X112054819Y-87280952D01*
X112054819Y-87280952D02*
X112102438Y-87185714D01*
X112102438Y-87185714D02*
X112150057Y-87138095D01*
X112150057Y-87138095D02*
X112245295Y-87090476D01*
X112245295Y-87090476D02*
X112340533Y-87090476D01*
X112340533Y-87090476D02*
X112483390Y-87138095D01*
X112483390Y-87138095D02*
X113054819Y-87709523D01*
X113054819Y-87709523D02*
X113054819Y-87090476D01*
X112483390Y-86519047D02*
X112435771Y-86614285D01*
X112435771Y-86614285D02*
X112388152Y-86661904D01*
X112388152Y-86661904D02*
X112292914Y-86709523D01*
X112292914Y-86709523D02*
X112245295Y-86709523D01*
X112245295Y-86709523D02*
X112150057Y-86661904D01*
X112150057Y-86661904D02*
X112102438Y-86614285D01*
X112102438Y-86614285D02*
X112054819Y-86519047D01*
X112054819Y-86519047D02*
X112054819Y-86328571D01*
X112054819Y-86328571D02*
X112102438Y-86233333D01*
X112102438Y-86233333D02*
X112150057Y-86185714D01*
X112150057Y-86185714D02*
X112245295Y-86138095D01*
X112245295Y-86138095D02*
X112292914Y-86138095D01*
X112292914Y-86138095D02*
X112388152Y-86185714D01*
X112388152Y-86185714D02*
X112435771Y-86233333D01*
X112435771Y-86233333D02*
X112483390Y-86328571D01*
X112483390Y-86328571D02*
X112483390Y-86519047D01*
X112483390Y-86519047D02*
X112531009Y-86614285D01*
X112531009Y-86614285D02*
X112578628Y-86661904D01*
X112578628Y-86661904D02*
X112673866Y-86709523D01*
X112673866Y-86709523D02*
X112864342Y-86709523D01*
X112864342Y-86709523D02*
X112959580Y-86661904D01*
X112959580Y-86661904D02*
X113007200Y-86614285D01*
X113007200Y-86614285D02*
X113054819Y-86519047D01*
X113054819Y-86519047D02*
X113054819Y-86328571D01*
X113054819Y-86328571D02*
X113007200Y-86233333D01*
X113007200Y-86233333D02*
X112959580Y-86185714D01*
X112959580Y-86185714D02*
X112864342Y-86138095D01*
X112864342Y-86138095D02*
X112673866Y-86138095D01*
X112673866Y-86138095D02*
X112578628Y-86185714D01*
X112578628Y-86185714D02*
X112531009Y-86233333D01*
X112531009Y-86233333D02*
X112483390Y-86328571D01*
X143032142Y-98884819D02*
X142698809Y-98408628D01*
X142460714Y-98884819D02*
X142460714Y-97884819D01*
X142460714Y-97884819D02*
X142841666Y-97884819D01*
X142841666Y-97884819D02*
X142936904Y-97932438D01*
X142936904Y-97932438D02*
X142984523Y-97980057D01*
X142984523Y-97980057D02*
X143032142Y-98075295D01*
X143032142Y-98075295D02*
X143032142Y-98218152D01*
X143032142Y-98218152D02*
X142984523Y-98313390D01*
X142984523Y-98313390D02*
X142936904Y-98361009D01*
X142936904Y-98361009D02*
X142841666Y-98408628D01*
X142841666Y-98408628D02*
X142460714Y-98408628D01*
X143984523Y-98884819D02*
X143413095Y-98884819D01*
X143698809Y-98884819D02*
X143698809Y-97884819D01*
X143698809Y-97884819D02*
X143603571Y-98027676D01*
X143603571Y-98027676D02*
X143508333Y-98122914D01*
X143508333Y-98122914D02*
X143413095Y-98170533D01*
X144555952Y-98313390D02*
X144460714Y-98265771D01*
X144460714Y-98265771D02*
X144413095Y-98218152D01*
X144413095Y-98218152D02*
X144365476Y-98122914D01*
X144365476Y-98122914D02*
X144365476Y-98075295D01*
X144365476Y-98075295D02*
X144413095Y-97980057D01*
X144413095Y-97980057D02*
X144460714Y-97932438D01*
X144460714Y-97932438D02*
X144555952Y-97884819D01*
X144555952Y-97884819D02*
X144746428Y-97884819D01*
X144746428Y-97884819D02*
X144841666Y-97932438D01*
X144841666Y-97932438D02*
X144889285Y-97980057D01*
X144889285Y-97980057D02*
X144936904Y-98075295D01*
X144936904Y-98075295D02*
X144936904Y-98122914D01*
X144936904Y-98122914D02*
X144889285Y-98218152D01*
X144889285Y-98218152D02*
X144841666Y-98265771D01*
X144841666Y-98265771D02*
X144746428Y-98313390D01*
X144746428Y-98313390D02*
X144555952Y-98313390D01*
X144555952Y-98313390D02*
X144460714Y-98361009D01*
X144460714Y-98361009D02*
X144413095Y-98408628D01*
X144413095Y-98408628D02*
X144365476Y-98503866D01*
X144365476Y-98503866D02*
X144365476Y-98694342D01*
X144365476Y-98694342D02*
X144413095Y-98789580D01*
X144413095Y-98789580D02*
X144460714Y-98837200D01*
X144460714Y-98837200D02*
X144555952Y-98884819D01*
X144555952Y-98884819D02*
X144746428Y-98884819D01*
X144746428Y-98884819D02*
X144841666Y-98837200D01*
X144841666Y-98837200D02*
X144889285Y-98789580D01*
X144889285Y-98789580D02*
X144936904Y-98694342D01*
X144936904Y-98694342D02*
X144936904Y-98503866D01*
X144936904Y-98503866D02*
X144889285Y-98408628D01*
X144889285Y-98408628D02*
X144841666Y-98361009D01*
X144841666Y-98361009D02*
X144746428Y-98313390D01*
X146854819Y-72842857D02*
X146378628Y-73176190D01*
X146854819Y-73414285D02*
X145854819Y-73414285D01*
X145854819Y-73414285D02*
X145854819Y-73033333D01*
X145854819Y-73033333D02*
X145902438Y-72938095D01*
X145902438Y-72938095D02*
X145950057Y-72890476D01*
X145950057Y-72890476D02*
X146045295Y-72842857D01*
X146045295Y-72842857D02*
X146188152Y-72842857D01*
X146188152Y-72842857D02*
X146283390Y-72890476D01*
X146283390Y-72890476D02*
X146331009Y-72938095D01*
X146331009Y-72938095D02*
X146378628Y-73033333D01*
X146378628Y-73033333D02*
X146378628Y-73414285D01*
X145854819Y-72509523D02*
X145854819Y-71890476D01*
X145854819Y-71890476D02*
X146235771Y-72223809D01*
X146235771Y-72223809D02*
X146235771Y-72080952D01*
X146235771Y-72080952D02*
X146283390Y-71985714D01*
X146283390Y-71985714D02*
X146331009Y-71938095D01*
X146331009Y-71938095D02*
X146426247Y-71890476D01*
X146426247Y-71890476D02*
X146664342Y-71890476D01*
X146664342Y-71890476D02*
X146759580Y-71938095D01*
X146759580Y-71938095D02*
X146807200Y-71985714D01*
X146807200Y-71985714D02*
X146854819Y-72080952D01*
X146854819Y-72080952D02*
X146854819Y-72366666D01*
X146854819Y-72366666D02*
X146807200Y-72461904D01*
X146807200Y-72461904D02*
X146759580Y-72509523D01*
X145854819Y-71557142D02*
X145854819Y-70938095D01*
X145854819Y-70938095D02*
X146235771Y-71271428D01*
X146235771Y-71271428D02*
X146235771Y-71128571D01*
X146235771Y-71128571D02*
X146283390Y-71033333D01*
X146283390Y-71033333D02*
X146331009Y-70985714D01*
X146331009Y-70985714D02*
X146426247Y-70938095D01*
X146426247Y-70938095D02*
X146664342Y-70938095D01*
X146664342Y-70938095D02*
X146759580Y-70985714D01*
X146759580Y-70985714D02*
X146807200Y-71033333D01*
X146807200Y-71033333D02*
X146854819Y-71128571D01*
X146854819Y-71128571D02*
X146854819Y-71414285D01*
X146854819Y-71414285D02*
X146807200Y-71509523D01*
X146807200Y-71509523D02*
X146759580Y-71557142D01*
X146857142Y-64674819D02*
X146523809Y-64198628D01*
X146285714Y-64674819D02*
X146285714Y-63674819D01*
X146285714Y-63674819D02*
X146666666Y-63674819D01*
X146666666Y-63674819D02*
X146761904Y-63722438D01*
X146761904Y-63722438D02*
X146809523Y-63770057D01*
X146809523Y-63770057D02*
X146857142Y-63865295D01*
X146857142Y-63865295D02*
X146857142Y-64008152D01*
X146857142Y-64008152D02*
X146809523Y-64103390D01*
X146809523Y-64103390D02*
X146761904Y-64151009D01*
X146761904Y-64151009D02*
X146666666Y-64198628D01*
X146666666Y-64198628D02*
X146285714Y-64198628D01*
X147809523Y-64674819D02*
X147238095Y-64674819D01*
X147523809Y-64674819D02*
X147523809Y-63674819D01*
X147523809Y-63674819D02*
X147428571Y-63817676D01*
X147428571Y-63817676D02*
X147333333Y-63912914D01*
X147333333Y-63912914D02*
X147238095Y-63960533D01*
X148190476Y-63770057D02*
X148238095Y-63722438D01*
X148238095Y-63722438D02*
X148333333Y-63674819D01*
X148333333Y-63674819D02*
X148571428Y-63674819D01*
X148571428Y-63674819D02*
X148666666Y-63722438D01*
X148666666Y-63722438D02*
X148714285Y-63770057D01*
X148714285Y-63770057D02*
X148761904Y-63865295D01*
X148761904Y-63865295D02*
X148761904Y-63960533D01*
X148761904Y-63960533D02*
X148714285Y-64103390D01*
X148714285Y-64103390D02*
X148142857Y-64674819D01*
X148142857Y-64674819D02*
X148761904Y-64674819D01*
X109738095Y-73454819D02*
X109738095Y-74264342D01*
X109738095Y-74264342D02*
X109785714Y-74359580D01*
X109785714Y-74359580D02*
X109833333Y-74407200D01*
X109833333Y-74407200D02*
X109928571Y-74454819D01*
X109928571Y-74454819D02*
X110119047Y-74454819D01*
X110119047Y-74454819D02*
X110214285Y-74407200D01*
X110214285Y-74407200D02*
X110261904Y-74359580D01*
X110261904Y-74359580D02*
X110309523Y-74264342D01*
X110309523Y-74264342D02*
X110309523Y-73454819D01*
X110738095Y-73550057D02*
X110785714Y-73502438D01*
X110785714Y-73502438D02*
X110880952Y-73454819D01*
X110880952Y-73454819D02*
X111119047Y-73454819D01*
X111119047Y-73454819D02*
X111214285Y-73502438D01*
X111214285Y-73502438D02*
X111261904Y-73550057D01*
X111261904Y-73550057D02*
X111309523Y-73645295D01*
X111309523Y-73645295D02*
X111309523Y-73740533D01*
X111309523Y-73740533D02*
X111261904Y-73883390D01*
X111261904Y-73883390D02*
X110690476Y-74454819D01*
X110690476Y-74454819D02*
X111309523Y-74454819D01*
X132734142Y-64797580D02*
X132686523Y-64845200D01*
X132686523Y-64845200D02*
X132543666Y-64892819D01*
X132543666Y-64892819D02*
X132448428Y-64892819D01*
X132448428Y-64892819D02*
X132305571Y-64845200D01*
X132305571Y-64845200D02*
X132210333Y-64749961D01*
X132210333Y-64749961D02*
X132162714Y-64654723D01*
X132162714Y-64654723D02*
X132115095Y-64464247D01*
X132115095Y-64464247D02*
X132115095Y-64321390D01*
X132115095Y-64321390D02*
X132162714Y-64130914D01*
X132162714Y-64130914D02*
X132210333Y-64035676D01*
X132210333Y-64035676D02*
X132305571Y-63940438D01*
X132305571Y-63940438D02*
X132448428Y-63892819D01*
X132448428Y-63892819D02*
X132543666Y-63892819D01*
X132543666Y-63892819D02*
X132686523Y-63940438D01*
X132686523Y-63940438D02*
X132734142Y-63988057D01*
X133686523Y-64892819D02*
X133115095Y-64892819D01*
X133400809Y-64892819D02*
X133400809Y-63892819D01*
X133400809Y-63892819D02*
X133305571Y-64035676D01*
X133305571Y-64035676D02*
X133210333Y-64130914D01*
X133210333Y-64130914D02*
X133115095Y-64178533D01*
X134305571Y-63892819D02*
X134400809Y-63892819D01*
X134400809Y-63892819D02*
X134496047Y-63940438D01*
X134496047Y-63940438D02*
X134543666Y-63988057D01*
X134543666Y-63988057D02*
X134591285Y-64083295D01*
X134591285Y-64083295D02*
X134638904Y-64273771D01*
X134638904Y-64273771D02*
X134638904Y-64511866D01*
X134638904Y-64511866D02*
X134591285Y-64702342D01*
X134591285Y-64702342D02*
X134543666Y-64797580D01*
X134543666Y-64797580D02*
X134496047Y-64845200D01*
X134496047Y-64845200D02*
X134400809Y-64892819D01*
X134400809Y-64892819D02*
X134305571Y-64892819D01*
X134305571Y-64892819D02*
X134210333Y-64845200D01*
X134210333Y-64845200D02*
X134162714Y-64797580D01*
X134162714Y-64797580D02*
X134115095Y-64702342D01*
X134115095Y-64702342D02*
X134067476Y-64511866D01*
X134067476Y-64511866D02*
X134067476Y-64273771D01*
X134067476Y-64273771D02*
X134115095Y-64083295D01*
X134115095Y-64083295D02*
X134162714Y-63988057D01*
X134162714Y-63988057D02*
X134210333Y-63940438D01*
X134210333Y-63940438D02*
X134305571Y-63892819D01*
X153409333Y-89794580D02*
X153361714Y-89842200D01*
X153361714Y-89842200D02*
X153218857Y-89889819D01*
X153218857Y-89889819D02*
X153123619Y-89889819D01*
X153123619Y-89889819D02*
X152980762Y-89842200D01*
X152980762Y-89842200D02*
X152885524Y-89746961D01*
X152885524Y-89746961D02*
X152837905Y-89651723D01*
X152837905Y-89651723D02*
X152790286Y-89461247D01*
X152790286Y-89461247D02*
X152790286Y-89318390D01*
X152790286Y-89318390D02*
X152837905Y-89127914D01*
X152837905Y-89127914D02*
X152885524Y-89032676D01*
X152885524Y-89032676D02*
X152980762Y-88937438D01*
X152980762Y-88937438D02*
X153123619Y-88889819D01*
X153123619Y-88889819D02*
X153218857Y-88889819D01*
X153218857Y-88889819D02*
X153361714Y-88937438D01*
X153361714Y-88937438D02*
X153409333Y-88985057D01*
X153742667Y-88889819D02*
X154361714Y-88889819D01*
X154361714Y-88889819D02*
X154028381Y-89270771D01*
X154028381Y-89270771D02*
X154171238Y-89270771D01*
X154171238Y-89270771D02*
X154266476Y-89318390D01*
X154266476Y-89318390D02*
X154314095Y-89366009D01*
X154314095Y-89366009D02*
X154361714Y-89461247D01*
X154361714Y-89461247D02*
X154361714Y-89699342D01*
X154361714Y-89699342D02*
X154314095Y-89794580D01*
X154314095Y-89794580D02*
X154266476Y-89842200D01*
X154266476Y-89842200D02*
X154171238Y-89889819D01*
X154171238Y-89889819D02*
X153885524Y-89889819D01*
X153885524Y-89889819D02*
X153790286Y-89842200D01*
X153790286Y-89842200D02*
X153742667Y-89794580D01*
X116211081Y-70347833D02*
X116163462Y-70395453D01*
X116163462Y-70395453D02*
X116020605Y-70443072D01*
X116020605Y-70443072D02*
X115925367Y-70443072D01*
X115925367Y-70443072D02*
X115782510Y-70395453D01*
X115782510Y-70395453D02*
X115687272Y-70300214D01*
X115687272Y-70300214D02*
X115639653Y-70204976D01*
X115639653Y-70204976D02*
X115592034Y-70014500D01*
X115592034Y-70014500D02*
X115592034Y-69871643D01*
X115592034Y-69871643D02*
X115639653Y-69681167D01*
X115639653Y-69681167D02*
X115687272Y-69585929D01*
X115687272Y-69585929D02*
X115782510Y-69490691D01*
X115782510Y-69490691D02*
X115925367Y-69443072D01*
X115925367Y-69443072D02*
X116020605Y-69443072D01*
X116020605Y-69443072D02*
X116163462Y-69490691D01*
X116163462Y-69490691D02*
X116211081Y-69538310D01*
X116782510Y-69871643D02*
X116687272Y-69824024D01*
X116687272Y-69824024D02*
X116639653Y-69776405D01*
X116639653Y-69776405D02*
X116592034Y-69681167D01*
X116592034Y-69681167D02*
X116592034Y-69633548D01*
X116592034Y-69633548D02*
X116639653Y-69538310D01*
X116639653Y-69538310D02*
X116687272Y-69490691D01*
X116687272Y-69490691D02*
X116782510Y-69443072D01*
X116782510Y-69443072D02*
X116972986Y-69443072D01*
X116972986Y-69443072D02*
X117068224Y-69490691D01*
X117068224Y-69490691D02*
X117115843Y-69538310D01*
X117115843Y-69538310D02*
X117163462Y-69633548D01*
X117163462Y-69633548D02*
X117163462Y-69681167D01*
X117163462Y-69681167D02*
X117115843Y-69776405D01*
X117115843Y-69776405D02*
X117068224Y-69824024D01*
X117068224Y-69824024D02*
X116972986Y-69871643D01*
X116972986Y-69871643D02*
X116782510Y-69871643D01*
X116782510Y-69871643D02*
X116687272Y-69919262D01*
X116687272Y-69919262D02*
X116639653Y-69966881D01*
X116639653Y-69966881D02*
X116592034Y-70062119D01*
X116592034Y-70062119D02*
X116592034Y-70252595D01*
X116592034Y-70252595D02*
X116639653Y-70347833D01*
X116639653Y-70347833D02*
X116687272Y-70395453D01*
X116687272Y-70395453D02*
X116782510Y-70443072D01*
X116782510Y-70443072D02*
X116972986Y-70443072D01*
X116972986Y-70443072D02*
X117068224Y-70395453D01*
X117068224Y-70395453D02*
X117115843Y-70347833D01*
X117115843Y-70347833D02*
X117163462Y-70252595D01*
X117163462Y-70252595D02*
X117163462Y-70062119D01*
X117163462Y-70062119D02*
X117115843Y-69966881D01*
X117115843Y-69966881D02*
X117068224Y-69919262D01*
X117068224Y-69919262D02*
X116972986Y-69871643D01*
X131854819Y-84966666D02*
X131378628Y-85299999D01*
X131854819Y-85538094D02*
X130854819Y-85538094D01*
X130854819Y-85538094D02*
X130854819Y-85157142D01*
X130854819Y-85157142D02*
X130902438Y-85061904D01*
X130902438Y-85061904D02*
X130950057Y-85014285D01*
X130950057Y-85014285D02*
X131045295Y-84966666D01*
X131045295Y-84966666D02*
X131188152Y-84966666D01*
X131188152Y-84966666D02*
X131283390Y-85014285D01*
X131283390Y-85014285D02*
X131331009Y-85061904D01*
X131331009Y-85061904D02*
X131378628Y-85157142D01*
X131378628Y-85157142D02*
X131378628Y-85538094D01*
X131283390Y-84395237D02*
X131235771Y-84490475D01*
X131235771Y-84490475D02*
X131188152Y-84538094D01*
X131188152Y-84538094D02*
X131092914Y-84585713D01*
X131092914Y-84585713D02*
X131045295Y-84585713D01*
X131045295Y-84585713D02*
X130950057Y-84538094D01*
X130950057Y-84538094D02*
X130902438Y-84490475D01*
X130902438Y-84490475D02*
X130854819Y-84395237D01*
X130854819Y-84395237D02*
X130854819Y-84204761D01*
X130854819Y-84204761D02*
X130902438Y-84109523D01*
X130902438Y-84109523D02*
X130950057Y-84061904D01*
X130950057Y-84061904D02*
X131045295Y-84014285D01*
X131045295Y-84014285D02*
X131092914Y-84014285D01*
X131092914Y-84014285D02*
X131188152Y-84061904D01*
X131188152Y-84061904D02*
X131235771Y-84109523D01*
X131235771Y-84109523D02*
X131283390Y-84204761D01*
X131283390Y-84204761D02*
X131283390Y-84395237D01*
X131283390Y-84395237D02*
X131331009Y-84490475D01*
X131331009Y-84490475D02*
X131378628Y-84538094D01*
X131378628Y-84538094D02*
X131473866Y-84585713D01*
X131473866Y-84585713D02*
X131664342Y-84585713D01*
X131664342Y-84585713D02*
X131759580Y-84538094D01*
X131759580Y-84538094D02*
X131807200Y-84490475D01*
X131807200Y-84490475D02*
X131854819Y-84395237D01*
X131854819Y-84395237D02*
X131854819Y-84204761D01*
X131854819Y-84204761D02*
X131807200Y-84109523D01*
X131807200Y-84109523D02*
X131759580Y-84061904D01*
X131759580Y-84061904D02*
X131664342Y-84014285D01*
X131664342Y-84014285D02*
X131473866Y-84014285D01*
X131473866Y-84014285D02*
X131378628Y-84061904D01*
X131378628Y-84061904D02*
X131331009Y-84109523D01*
X131331009Y-84109523D02*
X131283390Y-84204761D01*
X119359819Y-89819857D02*
X118883628Y-90153190D01*
X119359819Y-90391285D02*
X118359819Y-90391285D01*
X118359819Y-90391285D02*
X118359819Y-90010333D01*
X118359819Y-90010333D02*
X118407438Y-89915095D01*
X118407438Y-89915095D02*
X118455057Y-89867476D01*
X118455057Y-89867476D02*
X118550295Y-89819857D01*
X118550295Y-89819857D02*
X118693152Y-89819857D01*
X118693152Y-89819857D02*
X118788390Y-89867476D01*
X118788390Y-89867476D02*
X118836009Y-89915095D01*
X118836009Y-89915095D02*
X118883628Y-90010333D01*
X118883628Y-90010333D02*
X118883628Y-90391285D01*
X118455057Y-89438904D02*
X118407438Y-89391285D01*
X118407438Y-89391285D02*
X118359819Y-89296047D01*
X118359819Y-89296047D02*
X118359819Y-89057952D01*
X118359819Y-89057952D02*
X118407438Y-88962714D01*
X118407438Y-88962714D02*
X118455057Y-88915095D01*
X118455057Y-88915095D02*
X118550295Y-88867476D01*
X118550295Y-88867476D02*
X118645533Y-88867476D01*
X118645533Y-88867476D02*
X118788390Y-88915095D01*
X118788390Y-88915095D02*
X119359819Y-89486523D01*
X119359819Y-89486523D02*
X119359819Y-88867476D01*
X118359819Y-88010333D02*
X118359819Y-88200809D01*
X118359819Y-88200809D02*
X118407438Y-88296047D01*
X118407438Y-88296047D02*
X118455057Y-88343666D01*
X118455057Y-88343666D02*
X118597914Y-88438904D01*
X118597914Y-88438904D02*
X118788390Y-88486523D01*
X118788390Y-88486523D02*
X119169342Y-88486523D01*
X119169342Y-88486523D02*
X119264580Y-88438904D01*
X119264580Y-88438904D02*
X119312200Y-88391285D01*
X119312200Y-88391285D02*
X119359819Y-88296047D01*
X119359819Y-88296047D02*
X119359819Y-88105571D01*
X119359819Y-88105571D02*
X119312200Y-88010333D01*
X119312200Y-88010333D02*
X119264580Y-87962714D01*
X119264580Y-87962714D02*
X119169342Y-87915095D01*
X119169342Y-87915095D02*
X118931247Y-87915095D01*
X118931247Y-87915095D02*
X118836009Y-87962714D01*
X118836009Y-87962714D02*
X118788390Y-88010333D01*
X118788390Y-88010333D02*
X118740771Y-88105571D01*
X118740771Y-88105571D02*
X118740771Y-88296047D01*
X118740771Y-88296047D02*
X118788390Y-88391285D01*
X118788390Y-88391285D02*
X118836009Y-88438904D01*
X118836009Y-88438904D02*
X118931247Y-88486523D01*
X132061905Y-77254819D02*
X132061905Y-76254819D01*
X132061905Y-76254819D02*
X132300000Y-76254819D01*
X132300000Y-76254819D02*
X132442857Y-76302438D01*
X132442857Y-76302438D02*
X132538095Y-76397676D01*
X132538095Y-76397676D02*
X132585714Y-76492914D01*
X132585714Y-76492914D02*
X132633333Y-76683390D01*
X132633333Y-76683390D02*
X132633333Y-76826247D01*
X132633333Y-76826247D02*
X132585714Y-77016723D01*
X132585714Y-77016723D02*
X132538095Y-77111961D01*
X132538095Y-77111961D02*
X132442857Y-77207200D01*
X132442857Y-77207200D02*
X132300000Y-77254819D01*
X132300000Y-77254819D02*
X132061905Y-77254819D01*
X132966667Y-76254819D02*
X133585714Y-76254819D01*
X133585714Y-76254819D02*
X133252381Y-76635771D01*
X133252381Y-76635771D02*
X133395238Y-76635771D01*
X133395238Y-76635771D02*
X133490476Y-76683390D01*
X133490476Y-76683390D02*
X133538095Y-76731009D01*
X133538095Y-76731009D02*
X133585714Y-76826247D01*
X133585714Y-76826247D02*
X133585714Y-77064342D01*
X133585714Y-77064342D02*
X133538095Y-77159580D01*
X133538095Y-77159580D02*
X133490476Y-77207200D01*
X133490476Y-77207200D02*
X133395238Y-77254819D01*
X133395238Y-77254819D02*
X133109524Y-77254819D01*
X133109524Y-77254819D02*
X133014286Y-77207200D01*
X133014286Y-77207200D02*
X132966667Y-77159580D01*
X123861905Y-81854819D02*
X123861905Y-80854819D01*
X123861905Y-80854819D02*
X124100000Y-80854819D01*
X124100000Y-80854819D02*
X124242857Y-80902438D01*
X124242857Y-80902438D02*
X124338095Y-80997676D01*
X124338095Y-80997676D02*
X124385714Y-81092914D01*
X124385714Y-81092914D02*
X124433333Y-81283390D01*
X124433333Y-81283390D02*
X124433333Y-81426247D01*
X124433333Y-81426247D02*
X124385714Y-81616723D01*
X124385714Y-81616723D02*
X124338095Y-81711961D01*
X124338095Y-81711961D02*
X124242857Y-81807200D01*
X124242857Y-81807200D02*
X124100000Y-81854819D01*
X124100000Y-81854819D02*
X123861905Y-81854819D01*
X124909524Y-81854819D02*
X125100000Y-81854819D01*
X125100000Y-81854819D02*
X125195238Y-81807200D01*
X125195238Y-81807200D02*
X125242857Y-81759580D01*
X125242857Y-81759580D02*
X125338095Y-81616723D01*
X125338095Y-81616723D02*
X125385714Y-81426247D01*
X125385714Y-81426247D02*
X125385714Y-81045295D01*
X125385714Y-81045295D02*
X125338095Y-80950057D01*
X125338095Y-80950057D02*
X125290476Y-80902438D01*
X125290476Y-80902438D02*
X125195238Y-80854819D01*
X125195238Y-80854819D02*
X125004762Y-80854819D01*
X125004762Y-80854819D02*
X124909524Y-80902438D01*
X124909524Y-80902438D02*
X124861905Y-80950057D01*
X124861905Y-80950057D02*
X124814286Y-81045295D01*
X124814286Y-81045295D02*
X124814286Y-81283390D01*
X124814286Y-81283390D02*
X124861905Y-81378628D01*
X124861905Y-81378628D02*
X124909524Y-81426247D01*
X124909524Y-81426247D02*
X125004762Y-81473866D01*
X125004762Y-81473866D02*
X125195238Y-81473866D01*
X125195238Y-81473866D02*
X125290476Y-81426247D01*
X125290476Y-81426247D02*
X125338095Y-81378628D01*
X125338095Y-81378628D02*
X125385714Y-81283390D01*
X108304761Y-78150057D02*
X108209523Y-78102438D01*
X108209523Y-78102438D02*
X108114285Y-78007200D01*
X108114285Y-78007200D02*
X107971428Y-77864342D01*
X107971428Y-77864342D02*
X107876190Y-77816723D01*
X107876190Y-77816723D02*
X107780952Y-77816723D01*
X107828571Y-78054819D02*
X107733333Y-78007200D01*
X107733333Y-78007200D02*
X107638095Y-77911961D01*
X107638095Y-77911961D02*
X107590476Y-77721485D01*
X107590476Y-77721485D02*
X107590476Y-77388152D01*
X107590476Y-77388152D02*
X107638095Y-77197676D01*
X107638095Y-77197676D02*
X107733333Y-77102438D01*
X107733333Y-77102438D02*
X107828571Y-77054819D01*
X107828571Y-77054819D02*
X108019047Y-77054819D01*
X108019047Y-77054819D02*
X108114285Y-77102438D01*
X108114285Y-77102438D02*
X108209523Y-77197676D01*
X108209523Y-77197676D02*
X108257142Y-77388152D01*
X108257142Y-77388152D02*
X108257142Y-77721485D01*
X108257142Y-77721485D02*
X108209523Y-77911961D01*
X108209523Y-77911961D02*
X108114285Y-78007200D01*
X108114285Y-78007200D02*
X108019047Y-78054819D01*
X108019047Y-78054819D02*
X107828571Y-78054819D01*
X108590476Y-77054819D02*
X109257142Y-77054819D01*
X109257142Y-77054819D02*
X108828571Y-78054819D01*
X119857142Y-79859580D02*
X119809523Y-79907200D01*
X119809523Y-79907200D02*
X119666666Y-79954819D01*
X119666666Y-79954819D02*
X119571428Y-79954819D01*
X119571428Y-79954819D02*
X119428571Y-79907200D01*
X119428571Y-79907200D02*
X119333333Y-79811961D01*
X119333333Y-79811961D02*
X119285714Y-79716723D01*
X119285714Y-79716723D02*
X119238095Y-79526247D01*
X119238095Y-79526247D02*
X119238095Y-79383390D01*
X119238095Y-79383390D02*
X119285714Y-79192914D01*
X119285714Y-79192914D02*
X119333333Y-79097676D01*
X119333333Y-79097676D02*
X119428571Y-79002438D01*
X119428571Y-79002438D02*
X119571428Y-78954819D01*
X119571428Y-78954819D02*
X119666666Y-78954819D01*
X119666666Y-78954819D02*
X119809523Y-79002438D01*
X119809523Y-79002438D02*
X119857142Y-79050057D01*
X120809523Y-79954819D02*
X120238095Y-79954819D01*
X120523809Y-79954819D02*
X120523809Y-78954819D01*
X120523809Y-78954819D02*
X120428571Y-79097676D01*
X120428571Y-79097676D02*
X120333333Y-79192914D01*
X120333333Y-79192914D02*
X120238095Y-79240533D01*
X121142857Y-78954819D02*
X121761904Y-78954819D01*
X121761904Y-78954819D02*
X121428571Y-79335771D01*
X121428571Y-79335771D02*
X121571428Y-79335771D01*
X121571428Y-79335771D02*
X121666666Y-79383390D01*
X121666666Y-79383390D02*
X121714285Y-79431009D01*
X121714285Y-79431009D02*
X121761904Y-79526247D01*
X121761904Y-79526247D02*
X121761904Y-79764342D01*
X121761904Y-79764342D02*
X121714285Y-79859580D01*
X121714285Y-79859580D02*
X121666666Y-79907200D01*
X121666666Y-79907200D02*
X121571428Y-79954819D01*
X121571428Y-79954819D02*
X121285714Y-79954819D01*
X121285714Y-79954819D02*
X121190476Y-79907200D01*
X121190476Y-79907200D02*
X121142857Y-79859580D01*
X113254819Y-93442857D02*
X112778628Y-93776190D01*
X113254819Y-94014285D02*
X112254819Y-94014285D01*
X112254819Y-94014285D02*
X112254819Y-93633333D01*
X112254819Y-93633333D02*
X112302438Y-93538095D01*
X112302438Y-93538095D02*
X112350057Y-93490476D01*
X112350057Y-93490476D02*
X112445295Y-93442857D01*
X112445295Y-93442857D02*
X112588152Y-93442857D01*
X112588152Y-93442857D02*
X112683390Y-93490476D01*
X112683390Y-93490476D02*
X112731009Y-93538095D01*
X112731009Y-93538095D02*
X112778628Y-93633333D01*
X112778628Y-93633333D02*
X112778628Y-94014285D01*
X112350057Y-93061904D02*
X112302438Y-93014285D01*
X112302438Y-93014285D02*
X112254819Y-92919047D01*
X112254819Y-92919047D02*
X112254819Y-92680952D01*
X112254819Y-92680952D02*
X112302438Y-92585714D01*
X112302438Y-92585714D02*
X112350057Y-92538095D01*
X112350057Y-92538095D02*
X112445295Y-92490476D01*
X112445295Y-92490476D02*
X112540533Y-92490476D01*
X112540533Y-92490476D02*
X112683390Y-92538095D01*
X112683390Y-92538095D02*
X113254819Y-93109523D01*
X113254819Y-93109523D02*
X113254819Y-92490476D01*
X113254819Y-92014285D02*
X113254819Y-91823809D01*
X113254819Y-91823809D02*
X113207200Y-91728571D01*
X113207200Y-91728571D02*
X113159580Y-91680952D01*
X113159580Y-91680952D02*
X113016723Y-91585714D01*
X113016723Y-91585714D02*
X112826247Y-91538095D01*
X112826247Y-91538095D02*
X112445295Y-91538095D01*
X112445295Y-91538095D02*
X112350057Y-91585714D01*
X112350057Y-91585714D02*
X112302438Y-91633333D01*
X112302438Y-91633333D02*
X112254819Y-91728571D01*
X112254819Y-91728571D02*
X112254819Y-91919047D01*
X112254819Y-91919047D02*
X112302438Y-92014285D01*
X112302438Y-92014285D02*
X112350057Y-92061904D01*
X112350057Y-92061904D02*
X112445295Y-92109523D01*
X112445295Y-92109523D02*
X112683390Y-92109523D01*
X112683390Y-92109523D02*
X112778628Y-92061904D01*
X112778628Y-92061904D02*
X112826247Y-92014285D01*
X112826247Y-92014285D02*
X112873866Y-91919047D01*
X112873866Y-91919047D02*
X112873866Y-91728571D01*
X112873866Y-91728571D02*
X112826247Y-91633333D01*
X112826247Y-91633333D02*
X112778628Y-91585714D01*
X112778628Y-91585714D02*
X112683390Y-91538095D01*
X141328571Y-69177819D02*
X141328571Y-69987342D01*
X141328571Y-69987342D02*
X141376190Y-70082580D01*
X141376190Y-70082580D02*
X141423809Y-70130200D01*
X141423809Y-70130200D02*
X141519047Y-70177819D01*
X141519047Y-70177819D02*
X141709523Y-70177819D01*
X141709523Y-70177819D02*
X141804761Y-70130200D01*
X141804761Y-70130200D02*
X141852380Y-70082580D01*
X141852380Y-70082580D02*
X141899999Y-69987342D01*
X141899999Y-69987342D02*
X141899999Y-69177819D01*
X142328571Y-69892104D02*
X142804761Y-69892104D01*
X142233333Y-70177819D02*
X142566666Y-69177819D01*
X142566666Y-69177819D02*
X142899999Y-70177819D01*
X143804761Y-70177819D02*
X143471428Y-69701628D01*
X143233333Y-70177819D02*
X143233333Y-69177819D01*
X143233333Y-69177819D02*
X143614285Y-69177819D01*
X143614285Y-69177819D02*
X143709523Y-69225438D01*
X143709523Y-69225438D02*
X143757142Y-69273057D01*
X143757142Y-69273057D02*
X143804761Y-69368295D01*
X143804761Y-69368295D02*
X143804761Y-69511152D01*
X143804761Y-69511152D02*
X143757142Y-69606390D01*
X143757142Y-69606390D02*
X143709523Y-69654009D01*
X143709523Y-69654009D02*
X143614285Y-69701628D01*
X143614285Y-69701628D02*
X143233333Y-69701628D01*
X144090476Y-69177819D02*
X144661904Y-69177819D01*
X144376190Y-70177819D02*
X144376190Y-69177819D01*
X145519047Y-70177819D02*
X144947619Y-70177819D01*
X145233333Y-70177819D02*
X145233333Y-69177819D01*
X145233333Y-69177819D02*
X145138095Y-69320676D01*
X145138095Y-69320676D02*
X145042857Y-69415914D01*
X145042857Y-69415914D02*
X144947619Y-69463533D01*
X145559580Y-72842857D02*
X145607200Y-72890476D01*
X145607200Y-72890476D02*
X145654819Y-73033333D01*
X145654819Y-73033333D02*
X145654819Y-73128571D01*
X145654819Y-73128571D02*
X145607200Y-73271428D01*
X145607200Y-73271428D02*
X145511961Y-73366666D01*
X145511961Y-73366666D02*
X145416723Y-73414285D01*
X145416723Y-73414285D02*
X145226247Y-73461904D01*
X145226247Y-73461904D02*
X145083390Y-73461904D01*
X145083390Y-73461904D02*
X144892914Y-73414285D01*
X144892914Y-73414285D02*
X144797676Y-73366666D01*
X144797676Y-73366666D02*
X144702438Y-73271428D01*
X144702438Y-73271428D02*
X144654819Y-73128571D01*
X144654819Y-73128571D02*
X144654819Y-73033333D01*
X144654819Y-73033333D02*
X144702438Y-72890476D01*
X144702438Y-72890476D02*
X144750057Y-72842857D01*
X145654819Y-71890476D02*
X145654819Y-72461904D01*
X145654819Y-72176190D02*
X144654819Y-72176190D01*
X144654819Y-72176190D02*
X144797676Y-72271428D01*
X144797676Y-72271428D02*
X144892914Y-72366666D01*
X144892914Y-72366666D02*
X144940533Y-72461904D01*
X144654819Y-71557142D02*
X144654819Y-70890476D01*
X144654819Y-70890476D02*
X145654819Y-71319047D01*
X155661905Y-66729819D02*
X155661905Y-65729819D01*
X155661905Y-65729819D02*
X155900000Y-65729819D01*
X155900000Y-65729819D02*
X156042857Y-65777438D01*
X156042857Y-65777438D02*
X156138095Y-65872676D01*
X156138095Y-65872676D02*
X156185714Y-65967914D01*
X156185714Y-65967914D02*
X156233333Y-66158390D01*
X156233333Y-66158390D02*
X156233333Y-66301247D01*
X156233333Y-66301247D02*
X156185714Y-66491723D01*
X156185714Y-66491723D02*
X156138095Y-66586961D01*
X156138095Y-66586961D02*
X156042857Y-66682200D01*
X156042857Y-66682200D02*
X155900000Y-66729819D01*
X155900000Y-66729819D02*
X155661905Y-66729819D01*
X157138095Y-65729819D02*
X156661905Y-65729819D01*
X156661905Y-65729819D02*
X156614286Y-66206009D01*
X156614286Y-66206009D02*
X156661905Y-66158390D01*
X156661905Y-66158390D02*
X156757143Y-66110771D01*
X156757143Y-66110771D02*
X156995238Y-66110771D01*
X156995238Y-66110771D02*
X157090476Y-66158390D01*
X157090476Y-66158390D02*
X157138095Y-66206009D01*
X157138095Y-66206009D02*
X157185714Y-66301247D01*
X157185714Y-66301247D02*
X157185714Y-66539342D01*
X157185714Y-66539342D02*
X157138095Y-66634580D01*
X157138095Y-66634580D02*
X157090476Y-66682200D01*
X157090476Y-66682200D02*
X156995238Y-66729819D01*
X156995238Y-66729819D02*
X156757143Y-66729819D01*
X156757143Y-66729819D02*
X156661905Y-66682200D01*
X156661905Y-66682200D02*
X156614286Y-66634580D01*
X114904761Y-95550057D02*
X114809523Y-95502438D01*
X114809523Y-95502438D02*
X114714285Y-95407200D01*
X114714285Y-95407200D02*
X114571428Y-95264342D01*
X114571428Y-95264342D02*
X114476190Y-95216723D01*
X114476190Y-95216723D02*
X114380952Y-95216723D01*
X114428571Y-95454819D02*
X114333333Y-95407200D01*
X114333333Y-95407200D02*
X114238095Y-95311961D01*
X114238095Y-95311961D02*
X114190476Y-95121485D01*
X114190476Y-95121485D02*
X114190476Y-94788152D01*
X114190476Y-94788152D02*
X114238095Y-94597676D01*
X114238095Y-94597676D02*
X114333333Y-94502438D01*
X114333333Y-94502438D02*
X114428571Y-94454819D01*
X114428571Y-94454819D02*
X114619047Y-94454819D01*
X114619047Y-94454819D02*
X114714285Y-94502438D01*
X114714285Y-94502438D02*
X114809523Y-94597676D01*
X114809523Y-94597676D02*
X114857142Y-94788152D01*
X114857142Y-94788152D02*
X114857142Y-95121485D01*
X114857142Y-95121485D02*
X114809523Y-95311961D01*
X114809523Y-95311961D02*
X114714285Y-95407200D01*
X114714285Y-95407200D02*
X114619047Y-95454819D01*
X114619047Y-95454819D02*
X114428571Y-95454819D01*
X115428571Y-94883390D02*
X115333333Y-94835771D01*
X115333333Y-94835771D02*
X115285714Y-94788152D01*
X115285714Y-94788152D02*
X115238095Y-94692914D01*
X115238095Y-94692914D02*
X115238095Y-94645295D01*
X115238095Y-94645295D02*
X115285714Y-94550057D01*
X115285714Y-94550057D02*
X115333333Y-94502438D01*
X115333333Y-94502438D02*
X115428571Y-94454819D01*
X115428571Y-94454819D02*
X115619047Y-94454819D01*
X115619047Y-94454819D02*
X115714285Y-94502438D01*
X115714285Y-94502438D02*
X115761904Y-94550057D01*
X115761904Y-94550057D02*
X115809523Y-94645295D01*
X115809523Y-94645295D02*
X115809523Y-94692914D01*
X115809523Y-94692914D02*
X115761904Y-94788152D01*
X115761904Y-94788152D02*
X115714285Y-94835771D01*
X115714285Y-94835771D02*
X115619047Y-94883390D01*
X115619047Y-94883390D02*
X115428571Y-94883390D01*
X115428571Y-94883390D02*
X115333333Y-94931009D01*
X115333333Y-94931009D02*
X115285714Y-94978628D01*
X115285714Y-94978628D02*
X115238095Y-95073866D01*
X115238095Y-95073866D02*
X115238095Y-95264342D01*
X115238095Y-95264342D02*
X115285714Y-95359580D01*
X115285714Y-95359580D02*
X115333333Y-95407200D01*
X115333333Y-95407200D02*
X115428571Y-95454819D01*
X115428571Y-95454819D02*
X115619047Y-95454819D01*
X115619047Y-95454819D02*
X115714285Y-95407200D01*
X115714285Y-95407200D02*
X115761904Y-95359580D01*
X115761904Y-95359580D02*
X115809523Y-95264342D01*
X115809523Y-95264342D02*
X115809523Y-95073866D01*
X115809523Y-95073866D02*
X115761904Y-94978628D01*
X115761904Y-94978628D02*
X115714285Y-94931009D01*
X115714285Y-94931009D02*
X115619047Y-94883390D01*
X118859580Y-71642857D02*
X118907200Y-71690476D01*
X118907200Y-71690476D02*
X118954819Y-71833333D01*
X118954819Y-71833333D02*
X118954819Y-71928571D01*
X118954819Y-71928571D02*
X118907200Y-72071428D01*
X118907200Y-72071428D02*
X118811961Y-72166666D01*
X118811961Y-72166666D02*
X118716723Y-72214285D01*
X118716723Y-72214285D02*
X118526247Y-72261904D01*
X118526247Y-72261904D02*
X118383390Y-72261904D01*
X118383390Y-72261904D02*
X118192914Y-72214285D01*
X118192914Y-72214285D02*
X118097676Y-72166666D01*
X118097676Y-72166666D02*
X118002438Y-72071428D01*
X118002438Y-72071428D02*
X117954819Y-71928571D01*
X117954819Y-71928571D02*
X117954819Y-71833333D01*
X117954819Y-71833333D02*
X118002438Y-71690476D01*
X118002438Y-71690476D02*
X118050057Y-71642857D01*
X118954819Y-70690476D02*
X118954819Y-71261904D01*
X118954819Y-70976190D02*
X117954819Y-70976190D01*
X117954819Y-70976190D02*
X118097676Y-71071428D01*
X118097676Y-71071428D02*
X118192914Y-71166666D01*
X118192914Y-71166666D02*
X118240533Y-71261904D01*
X118954819Y-69738095D02*
X118954819Y-70309523D01*
X118954819Y-70023809D02*
X117954819Y-70023809D01*
X117954819Y-70023809D02*
X118097676Y-70119047D01*
X118097676Y-70119047D02*
X118192914Y-70214285D01*
X118192914Y-70214285D02*
X118240533Y-70309523D01*
X132121580Y-79040666D02*
X132169200Y-79088285D01*
X132169200Y-79088285D02*
X132216819Y-79231142D01*
X132216819Y-79231142D02*
X132216819Y-79326380D01*
X132216819Y-79326380D02*
X132169200Y-79469237D01*
X132169200Y-79469237D02*
X132073961Y-79564475D01*
X132073961Y-79564475D02*
X131978723Y-79612094D01*
X131978723Y-79612094D02*
X131788247Y-79659713D01*
X131788247Y-79659713D02*
X131645390Y-79659713D01*
X131645390Y-79659713D02*
X131454914Y-79612094D01*
X131454914Y-79612094D02*
X131359676Y-79564475D01*
X131359676Y-79564475D02*
X131264438Y-79469237D01*
X131264438Y-79469237D02*
X131216819Y-79326380D01*
X131216819Y-79326380D02*
X131216819Y-79231142D01*
X131216819Y-79231142D02*
X131264438Y-79088285D01*
X131264438Y-79088285D02*
X131312057Y-79040666D01*
X131216819Y-78707332D02*
X131216819Y-78040666D01*
X131216819Y-78040666D02*
X132216819Y-78469237D01*
X119509819Y-81192857D02*
X119033628Y-81526190D01*
X119509819Y-81764285D02*
X118509819Y-81764285D01*
X118509819Y-81764285D02*
X118509819Y-81383333D01*
X118509819Y-81383333D02*
X118557438Y-81288095D01*
X118557438Y-81288095D02*
X118605057Y-81240476D01*
X118605057Y-81240476D02*
X118700295Y-81192857D01*
X118700295Y-81192857D02*
X118843152Y-81192857D01*
X118843152Y-81192857D02*
X118938390Y-81240476D01*
X118938390Y-81240476D02*
X118986009Y-81288095D01*
X118986009Y-81288095D02*
X119033628Y-81383333D01*
X119033628Y-81383333D02*
X119033628Y-81764285D01*
X118605057Y-80811904D02*
X118557438Y-80764285D01*
X118557438Y-80764285D02*
X118509819Y-80669047D01*
X118509819Y-80669047D02*
X118509819Y-80430952D01*
X118509819Y-80430952D02*
X118557438Y-80335714D01*
X118557438Y-80335714D02*
X118605057Y-80288095D01*
X118605057Y-80288095D02*
X118700295Y-80240476D01*
X118700295Y-80240476D02*
X118795533Y-80240476D01*
X118795533Y-80240476D02*
X118938390Y-80288095D01*
X118938390Y-80288095D02*
X119509819Y-80859523D01*
X119509819Y-80859523D02*
X119509819Y-80240476D01*
X118509819Y-79907142D02*
X118509819Y-79240476D01*
X118509819Y-79240476D02*
X119509819Y-79669047D01*
X134261905Y-77254819D02*
X134261905Y-76254819D01*
X134261905Y-76254819D02*
X134500000Y-76254819D01*
X134500000Y-76254819D02*
X134642857Y-76302438D01*
X134642857Y-76302438D02*
X134738095Y-76397676D01*
X134738095Y-76397676D02*
X134785714Y-76492914D01*
X134785714Y-76492914D02*
X134833333Y-76683390D01*
X134833333Y-76683390D02*
X134833333Y-76826247D01*
X134833333Y-76826247D02*
X134785714Y-77016723D01*
X134785714Y-77016723D02*
X134738095Y-77111961D01*
X134738095Y-77111961D02*
X134642857Y-77207200D01*
X134642857Y-77207200D02*
X134500000Y-77254819D01*
X134500000Y-77254819D02*
X134261905Y-77254819D01*
X135785714Y-77254819D02*
X135214286Y-77254819D01*
X135500000Y-77254819D02*
X135500000Y-76254819D01*
X135500000Y-76254819D02*
X135404762Y-76397676D01*
X135404762Y-76397676D02*
X135309524Y-76492914D01*
X135309524Y-76492914D02*
X135214286Y-76540533D01*
X140454819Y-69842857D02*
X139978628Y-70176190D01*
X140454819Y-70414285D02*
X139454819Y-70414285D01*
X139454819Y-70414285D02*
X139454819Y-70033333D01*
X139454819Y-70033333D02*
X139502438Y-69938095D01*
X139502438Y-69938095D02*
X139550057Y-69890476D01*
X139550057Y-69890476D02*
X139645295Y-69842857D01*
X139645295Y-69842857D02*
X139788152Y-69842857D01*
X139788152Y-69842857D02*
X139883390Y-69890476D01*
X139883390Y-69890476D02*
X139931009Y-69938095D01*
X139931009Y-69938095D02*
X139978628Y-70033333D01*
X139978628Y-70033333D02*
X139978628Y-70414285D01*
X139454819Y-69509523D02*
X139454819Y-68890476D01*
X139454819Y-68890476D02*
X139835771Y-69223809D01*
X139835771Y-69223809D02*
X139835771Y-69080952D01*
X139835771Y-69080952D02*
X139883390Y-68985714D01*
X139883390Y-68985714D02*
X139931009Y-68938095D01*
X139931009Y-68938095D02*
X140026247Y-68890476D01*
X140026247Y-68890476D02*
X140264342Y-68890476D01*
X140264342Y-68890476D02*
X140359580Y-68938095D01*
X140359580Y-68938095D02*
X140407200Y-68985714D01*
X140407200Y-68985714D02*
X140454819Y-69080952D01*
X140454819Y-69080952D02*
X140454819Y-69366666D01*
X140454819Y-69366666D02*
X140407200Y-69461904D01*
X140407200Y-69461904D02*
X140359580Y-69509523D01*
X139550057Y-68509523D02*
X139502438Y-68461904D01*
X139502438Y-68461904D02*
X139454819Y-68366666D01*
X139454819Y-68366666D02*
X139454819Y-68128571D01*
X139454819Y-68128571D02*
X139502438Y-68033333D01*
X139502438Y-68033333D02*
X139550057Y-67985714D01*
X139550057Y-67985714D02*
X139645295Y-67938095D01*
X139645295Y-67938095D02*
X139740533Y-67938095D01*
X139740533Y-67938095D02*
X139883390Y-67985714D01*
X139883390Y-67985714D02*
X140454819Y-68557142D01*
X140454819Y-68557142D02*
X140454819Y-67938095D01*
X135861905Y-76454819D02*
X135861905Y-75454819D01*
X135861905Y-75454819D02*
X136100000Y-75454819D01*
X136100000Y-75454819D02*
X136242857Y-75502438D01*
X136242857Y-75502438D02*
X136338095Y-75597676D01*
X136338095Y-75597676D02*
X136385714Y-75692914D01*
X136385714Y-75692914D02*
X136433333Y-75883390D01*
X136433333Y-75883390D02*
X136433333Y-76026247D01*
X136433333Y-76026247D02*
X136385714Y-76216723D01*
X136385714Y-76216723D02*
X136338095Y-76311961D01*
X136338095Y-76311961D02*
X136242857Y-76407200D01*
X136242857Y-76407200D02*
X136100000Y-76454819D01*
X136100000Y-76454819D02*
X135861905Y-76454819D01*
X137004762Y-75883390D02*
X136909524Y-75835771D01*
X136909524Y-75835771D02*
X136861905Y-75788152D01*
X136861905Y-75788152D02*
X136814286Y-75692914D01*
X136814286Y-75692914D02*
X136814286Y-75645295D01*
X136814286Y-75645295D02*
X136861905Y-75550057D01*
X136861905Y-75550057D02*
X136909524Y-75502438D01*
X136909524Y-75502438D02*
X137004762Y-75454819D01*
X137004762Y-75454819D02*
X137195238Y-75454819D01*
X137195238Y-75454819D02*
X137290476Y-75502438D01*
X137290476Y-75502438D02*
X137338095Y-75550057D01*
X137338095Y-75550057D02*
X137385714Y-75645295D01*
X137385714Y-75645295D02*
X137385714Y-75692914D01*
X137385714Y-75692914D02*
X137338095Y-75788152D01*
X137338095Y-75788152D02*
X137290476Y-75835771D01*
X137290476Y-75835771D02*
X137195238Y-75883390D01*
X137195238Y-75883390D02*
X137004762Y-75883390D01*
X137004762Y-75883390D02*
X136909524Y-75931009D01*
X136909524Y-75931009D02*
X136861905Y-75978628D01*
X136861905Y-75978628D02*
X136814286Y-76073866D01*
X136814286Y-76073866D02*
X136814286Y-76264342D01*
X136814286Y-76264342D02*
X136861905Y-76359580D01*
X136861905Y-76359580D02*
X136909524Y-76407200D01*
X136909524Y-76407200D02*
X137004762Y-76454819D01*
X137004762Y-76454819D02*
X137195238Y-76454819D01*
X137195238Y-76454819D02*
X137290476Y-76407200D01*
X137290476Y-76407200D02*
X137338095Y-76359580D01*
X137338095Y-76359580D02*
X137385714Y-76264342D01*
X137385714Y-76264342D02*
X137385714Y-76073866D01*
X137385714Y-76073866D02*
X137338095Y-75978628D01*
X137338095Y-75978628D02*
X137290476Y-75931009D01*
X137290476Y-75931009D02*
X137195238Y-75883390D01*
X123259580Y-79967857D02*
X123307200Y-80015476D01*
X123307200Y-80015476D02*
X123354819Y-80158333D01*
X123354819Y-80158333D02*
X123354819Y-80253571D01*
X123354819Y-80253571D02*
X123307200Y-80396428D01*
X123307200Y-80396428D02*
X123211961Y-80491666D01*
X123211961Y-80491666D02*
X123116723Y-80539285D01*
X123116723Y-80539285D02*
X122926247Y-80586904D01*
X122926247Y-80586904D02*
X122783390Y-80586904D01*
X122783390Y-80586904D02*
X122592914Y-80539285D01*
X122592914Y-80539285D02*
X122497676Y-80491666D01*
X122497676Y-80491666D02*
X122402438Y-80396428D01*
X122402438Y-80396428D02*
X122354819Y-80253571D01*
X122354819Y-80253571D02*
X122354819Y-80158333D01*
X122354819Y-80158333D02*
X122402438Y-80015476D01*
X122402438Y-80015476D02*
X122450057Y-79967857D01*
X123354819Y-79015476D02*
X123354819Y-79586904D01*
X123354819Y-79301190D02*
X122354819Y-79301190D01*
X122354819Y-79301190D02*
X122497676Y-79396428D01*
X122497676Y-79396428D02*
X122592914Y-79491666D01*
X122592914Y-79491666D02*
X122640533Y-79586904D01*
X122688152Y-78158333D02*
X123354819Y-78158333D01*
X122307200Y-78396428D02*
X123021485Y-78634523D01*
X123021485Y-78634523D02*
X123021485Y-78015476D01*
X139484819Y-79966666D02*
X139008628Y-80299999D01*
X139484819Y-80538094D02*
X138484819Y-80538094D01*
X138484819Y-80538094D02*
X138484819Y-80157142D01*
X138484819Y-80157142D02*
X138532438Y-80061904D01*
X138532438Y-80061904D02*
X138580057Y-80014285D01*
X138580057Y-80014285D02*
X138675295Y-79966666D01*
X138675295Y-79966666D02*
X138818152Y-79966666D01*
X138818152Y-79966666D02*
X138913390Y-80014285D01*
X138913390Y-80014285D02*
X138961009Y-80061904D01*
X138961009Y-80061904D02*
X139008628Y-80157142D01*
X139008628Y-80157142D02*
X139008628Y-80538094D01*
X139484819Y-79014285D02*
X139484819Y-79585713D01*
X139484819Y-79299999D02*
X138484819Y-79299999D01*
X138484819Y-79299999D02*
X138627676Y-79395237D01*
X138627676Y-79395237D02*
X138722914Y-79490475D01*
X138722914Y-79490475D02*
X138770533Y-79585713D01*
X114448525Y-68760728D02*
X114400906Y-68808348D01*
X114400906Y-68808348D02*
X114258049Y-68855967D01*
X114258049Y-68855967D02*
X114162811Y-68855967D01*
X114162811Y-68855967D02*
X114019954Y-68808348D01*
X114019954Y-68808348D02*
X113924716Y-68713109D01*
X113924716Y-68713109D02*
X113877097Y-68617871D01*
X113877097Y-68617871D02*
X113829478Y-68427395D01*
X113829478Y-68427395D02*
X113829478Y-68284538D01*
X113829478Y-68284538D02*
X113877097Y-68094062D01*
X113877097Y-68094062D02*
X113924716Y-67998824D01*
X113924716Y-67998824D02*
X114019954Y-67903586D01*
X114019954Y-67903586D02*
X114162811Y-67855967D01*
X114162811Y-67855967D02*
X114258049Y-67855967D01*
X114258049Y-67855967D02*
X114400906Y-67903586D01*
X114400906Y-67903586D02*
X114448525Y-67951205D01*
X115353287Y-67855967D02*
X114877097Y-67855967D01*
X114877097Y-67855967D02*
X114829478Y-68332157D01*
X114829478Y-68332157D02*
X114877097Y-68284538D01*
X114877097Y-68284538D02*
X114972335Y-68236919D01*
X114972335Y-68236919D02*
X115210430Y-68236919D01*
X115210430Y-68236919D02*
X115305668Y-68284538D01*
X115305668Y-68284538D02*
X115353287Y-68332157D01*
X115353287Y-68332157D02*
X115400906Y-68427395D01*
X115400906Y-68427395D02*
X115400906Y-68665490D01*
X115400906Y-68665490D02*
X115353287Y-68760728D01*
X115353287Y-68760728D02*
X115305668Y-68808348D01*
X115305668Y-68808348D02*
X115210430Y-68855967D01*
X115210430Y-68855967D02*
X114972335Y-68855967D01*
X114972335Y-68855967D02*
X114877097Y-68808348D01*
X114877097Y-68808348D02*
X114829478Y-68760728D01*
X140254819Y-77242857D02*
X139778628Y-77576190D01*
X140254819Y-77814285D02*
X139254819Y-77814285D01*
X139254819Y-77814285D02*
X139254819Y-77433333D01*
X139254819Y-77433333D02*
X139302438Y-77338095D01*
X139302438Y-77338095D02*
X139350057Y-77290476D01*
X139350057Y-77290476D02*
X139445295Y-77242857D01*
X139445295Y-77242857D02*
X139588152Y-77242857D01*
X139588152Y-77242857D02*
X139683390Y-77290476D01*
X139683390Y-77290476D02*
X139731009Y-77338095D01*
X139731009Y-77338095D02*
X139778628Y-77433333D01*
X139778628Y-77433333D02*
X139778628Y-77814285D01*
X139254819Y-76909523D02*
X139254819Y-76290476D01*
X139254819Y-76290476D02*
X139635771Y-76623809D01*
X139635771Y-76623809D02*
X139635771Y-76480952D01*
X139635771Y-76480952D02*
X139683390Y-76385714D01*
X139683390Y-76385714D02*
X139731009Y-76338095D01*
X139731009Y-76338095D02*
X139826247Y-76290476D01*
X139826247Y-76290476D02*
X140064342Y-76290476D01*
X140064342Y-76290476D02*
X140159580Y-76338095D01*
X140159580Y-76338095D02*
X140207200Y-76385714D01*
X140207200Y-76385714D02*
X140254819Y-76480952D01*
X140254819Y-76480952D02*
X140254819Y-76766666D01*
X140254819Y-76766666D02*
X140207200Y-76861904D01*
X140207200Y-76861904D02*
X140159580Y-76909523D01*
X139254819Y-75385714D02*
X139254819Y-75861904D01*
X139254819Y-75861904D02*
X139731009Y-75909523D01*
X139731009Y-75909523D02*
X139683390Y-75861904D01*
X139683390Y-75861904D02*
X139635771Y-75766666D01*
X139635771Y-75766666D02*
X139635771Y-75528571D01*
X139635771Y-75528571D02*
X139683390Y-75433333D01*
X139683390Y-75433333D02*
X139731009Y-75385714D01*
X139731009Y-75385714D02*
X139826247Y-75338095D01*
X139826247Y-75338095D02*
X140064342Y-75338095D01*
X140064342Y-75338095D02*
X140159580Y-75385714D01*
X140159580Y-75385714D02*
X140207200Y-75433333D01*
X140207200Y-75433333D02*
X140254819Y-75528571D01*
X140254819Y-75528571D02*
X140254819Y-75766666D01*
X140254819Y-75766666D02*
X140207200Y-75861904D01*
X140207200Y-75861904D02*
X140159580Y-75909523D01*
X148454819Y-87966666D02*
X147978628Y-88299999D01*
X148454819Y-88538094D02*
X147454819Y-88538094D01*
X147454819Y-88538094D02*
X147454819Y-88157142D01*
X147454819Y-88157142D02*
X147502438Y-88061904D01*
X147502438Y-88061904D02*
X147550057Y-88014285D01*
X147550057Y-88014285D02*
X147645295Y-87966666D01*
X147645295Y-87966666D02*
X147788152Y-87966666D01*
X147788152Y-87966666D02*
X147883390Y-88014285D01*
X147883390Y-88014285D02*
X147931009Y-88061904D01*
X147931009Y-88061904D02*
X147978628Y-88157142D01*
X147978628Y-88157142D02*
X147978628Y-88538094D01*
X147550057Y-87585713D02*
X147502438Y-87538094D01*
X147502438Y-87538094D02*
X147454819Y-87442856D01*
X147454819Y-87442856D02*
X147454819Y-87204761D01*
X147454819Y-87204761D02*
X147502438Y-87109523D01*
X147502438Y-87109523D02*
X147550057Y-87061904D01*
X147550057Y-87061904D02*
X147645295Y-87014285D01*
X147645295Y-87014285D02*
X147740533Y-87014285D01*
X147740533Y-87014285D02*
X147883390Y-87061904D01*
X147883390Y-87061904D02*
X148454819Y-87633332D01*
X148454819Y-87633332D02*
X148454819Y-87014285D01*
X138357142Y-82359580D02*
X138309523Y-82407200D01*
X138309523Y-82407200D02*
X138166666Y-82454819D01*
X138166666Y-82454819D02*
X138071428Y-82454819D01*
X138071428Y-82454819D02*
X137928571Y-82407200D01*
X137928571Y-82407200D02*
X137833333Y-82311961D01*
X137833333Y-82311961D02*
X137785714Y-82216723D01*
X137785714Y-82216723D02*
X137738095Y-82026247D01*
X137738095Y-82026247D02*
X137738095Y-81883390D01*
X137738095Y-81883390D02*
X137785714Y-81692914D01*
X137785714Y-81692914D02*
X137833333Y-81597676D01*
X137833333Y-81597676D02*
X137928571Y-81502438D01*
X137928571Y-81502438D02*
X138071428Y-81454819D01*
X138071428Y-81454819D02*
X138166666Y-81454819D01*
X138166666Y-81454819D02*
X138309523Y-81502438D01*
X138309523Y-81502438D02*
X138357142Y-81550057D01*
X139309523Y-82454819D02*
X138738095Y-82454819D01*
X139023809Y-82454819D02*
X139023809Y-81454819D01*
X139023809Y-81454819D02*
X138928571Y-81597676D01*
X138928571Y-81597676D02*
X138833333Y-81692914D01*
X138833333Y-81692914D02*
X138738095Y-81740533D01*
X140166666Y-81454819D02*
X139976190Y-81454819D01*
X139976190Y-81454819D02*
X139880952Y-81502438D01*
X139880952Y-81502438D02*
X139833333Y-81550057D01*
X139833333Y-81550057D02*
X139738095Y-81692914D01*
X139738095Y-81692914D02*
X139690476Y-81883390D01*
X139690476Y-81883390D02*
X139690476Y-82264342D01*
X139690476Y-82264342D02*
X139738095Y-82359580D01*
X139738095Y-82359580D02*
X139785714Y-82407200D01*
X139785714Y-82407200D02*
X139880952Y-82454819D01*
X139880952Y-82454819D02*
X140071428Y-82454819D01*
X140071428Y-82454819D02*
X140166666Y-82407200D01*
X140166666Y-82407200D02*
X140214285Y-82359580D01*
X140214285Y-82359580D02*
X140261904Y-82264342D01*
X140261904Y-82264342D02*
X140261904Y-82026247D01*
X140261904Y-82026247D02*
X140214285Y-81931009D01*
X140214285Y-81931009D02*
X140166666Y-81883390D01*
X140166666Y-81883390D02*
X140071428Y-81835771D01*
X140071428Y-81835771D02*
X139880952Y-81835771D01*
X139880952Y-81835771D02*
X139785714Y-81883390D01*
X139785714Y-81883390D02*
X139738095Y-81931009D01*
X139738095Y-81931009D02*
X139690476Y-82026247D01*
X121557142Y-96854819D02*
X121223809Y-96378628D01*
X120985714Y-96854819D02*
X120985714Y-95854819D01*
X120985714Y-95854819D02*
X121366666Y-95854819D01*
X121366666Y-95854819D02*
X121461904Y-95902438D01*
X121461904Y-95902438D02*
X121509523Y-95950057D01*
X121509523Y-95950057D02*
X121557142Y-96045295D01*
X121557142Y-96045295D02*
X121557142Y-96188152D01*
X121557142Y-96188152D02*
X121509523Y-96283390D01*
X121509523Y-96283390D02*
X121461904Y-96331009D01*
X121461904Y-96331009D02*
X121366666Y-96378628D01*
X121366666Y-96378628D02*
X120985714Y-96378628D01*
X122509523Y-96854819D02*
X121938095Y-96854819D01*
X122223809Y-96854819D02*
X122223809Y-95854819D01*
X122223809Y-95854819D02*
X122128571Y-95997676D01*
X122128571Y-95997676D02*
X122033333Y-96092914D01*
X122033333Y-96092914D02*
X121938095Y-96140533D01*
X123366666Y-95854819D02*
X123176190Y-95854819D01*
X123176190Y-95854819D02*
X123080952Y-95902438D01*
X123080952Y-95902438D02*
X123033333Y-95950057D01*
X123033333Y-95950057D02*
X122938095Y-96092914D01*
X122938095Y-96092914D02*
X122890476Y-96283390D01*
X122890476Y-96283390D02*
X122890476Y-96664342D01*
X122890476Y-96664342D02*
X122938095Y-96759580D01*
X122938095Y-96759580D02*
X122985714Y-96807200D01*
X122985714Y-96807200D02*
X123080952Y-96854819D01*
X123080952Y-96854819D02*
X123271428Y-96854819D01*
X123271428Y-96854819D02*
X123366666Y-96807200D01*
X123366666Y-96807200D02*
X123414285Y-96759580D01*
X123414285Y-96759580D02*
X123461904Y-96664342D01*
X123461904Y-96664342D02*
X123461904Y-96426247D01*
X123461904Y-96426247D02*
X123414285Y-96331009D01*
X123414285Y-96331009D02*
X123366666Y-96283390D01*
X123366666Y-96283390D02*
X123271428Y-96235771D01*
X123271428Y-96235771D02*
X123080952Y-96235771D01*
X123080952Y-96235771D02*
X122985714Y-96283390D01*
X122985714Y-96283390D02*
X122938095Y-96331009D01*
X122938095Y-96331009D02*
X122890476Y-96426247D01*
X113254819Y-80842857D02*
X112778628Y-81176190D01*
X113254819Y-81414285D02*
X112254819Y-81414285D01*
X112254819Y-81414285D02*
X112254819Y-81033333D01*
X112254819Y-81033333D02*
X112302438Y-80938095D01*
X112302438Y-80938095D02*
X112350057Y-80890476D01*
X112350057Y-80890476D02*
X112445295Y-80842857D01*
X112445295Y-80842857D02*
X112588152Y-80842857D01*
X112588152Y-80842857D02*
X112683390Y-80890476D01*
X112683390Y-80890476D02*
X112731009Y-80938095D01*
X112731009Y-80938095D02*
X112778628Y-81033333D01*
X112778628Y-81033333D02*
X112778628Y-81414285D01*
X112254819Y-80509523D02*
X112254819Y-79890476D01*
X112254819Y-79890476D02*
X112635771Y-80223809D01*
X112635771Y-80223809D02*
X112635771Y-80080952D01*
X112635771Y-80080952D02*
X112683390Y-79985714D01*
X112683390Y-79985714D02*
X112731009Y-79938095D01*
X112731009Y-79938095D02*
X112826247Y-79890476D01*
X112826247Y-79890476D02*
X113064342Y-79890476D01*
X113064342Y-79890476D02*
X113159580Y-79938095D01*
X113159580Y-79938095D02*
X113207200Y-79985714D01*
X113207200Y-79985714D02*
X113254819Y-80080952D01*
X113254819Y-80080952D02*
X113254819Y-80366666D01*
X113254819Y-80366666D02*
X113207200Y-80461904D01*
X113207200Y-80461904D02*
X113159580Y-80509523D01*
X112254819Y-79271428D02*
X112254819Y-79176190D01*
X112254819Y-79176190D02*
X112302438Y-79080952D01*
X112302438Y-79080952D02*
X112350057Y-79033333D01*
X112350057Y-79033333D02*
X112445295Y-78985714D01*
X112445295Y-78985714D02*
X112635771Y-78938095D01*
X112635771Y-78938095D02*
X112873866Y-78938095D01*
X112873866Y-78938095D02*
X113064342Y-78985714D01*
X113064342Y-78985714D02*
X113159580Y-79033333D01*
X113159580Y-79033333D02*
X113207200Y-79080952D01*
X113207200Y-79080952D02*
X113254819Y-79176190D01*
X113254819Y-79176190D02*
X113254819Y-79271428D01*
X113254819Y-79271428D02*
X113207200Y-79366666D01*
X113207200Y-79366666D02*
X113159580Y-79414285D01*
X113159580Y-79414285D02*
X113064342Y-79461904D01*
X113064342Y-79461904D02*
X112873866Y-79509523D01*
X112873866Y-79509523D02*
X112635771Y-79509523D01*
X112635771Y-79509523D02*
X112445295Y-79461904D01*
X112445295Y-79461904D02*
X112350057Y-79414285D01*
X112350057Y-79414285D02*
X112302438Y-79366666D01*
X112302438Y-79366666D02*
X112254819Y-79271428D01*
X150455333Y-80549819D02*
X150122000Y-80073628D01*
X149883905Y-80549819D02*
X149883905Y-79549819D01*
X149883905Y-79549819D02*
X150264857Y-79549819D01*
X150264857Y-79549819D02*
X150360095Y-79597438D01*
X150360095Y-79597438D02*
X150407714Y-79645057D01*
X150407714Y-79645057D02*
X150455333Y-79740295D01*
X150455333Y-79740295D02*
X150455333Y-79883152D01*
X150455333Y-79883152D02*
X150407714Y-79978390D01*
X150407714Y-79978390D02*
X150360095Y-80026009D01*
X150360095Y-80026009D02*
X150264857Y-80073628D01*
X150264857Y-80073628D02*
X149883905Y-80073628D01*
X150788667Y-79549819D02*
X151407714Y-79549819D01*
X151407714Y-79549819D02*
X151074381Y-79930771D01*
X151074381Y-79930771D02*
X151217238Y-79930771D01*
X151217238Y-79930771D02*
X151312476Y-79978390D01*
X151312476Y-79978390D02*
X151360095Y-80026009D01*
X151360095Y-80026009D02*
X151407714Y-80121247D01*
X151407714Y-80121247D02*
X151407714Y-80359342D01*
X151407714Y-80359342D02*
X151360095Y-80454580D01*
X151360095Y-80454580D02*
X151312476Y-80502200D01*
X151312476Y-80502200D02*
X151217238Y-80549819D01*
X151217238Y-80549819D02*
X150931524Y-80549819D01*
X150931524Y-80549819D02*
X150836286Y-80502200D01*
X150836286Y-80502200D02*
X150788667Y-80454580D01*
X127359580Y-81366666D02*
X127407200Y-81414285D01*
X127407200Y-81414285D02*
X127454819Y-81557142D01*
X127454819Y-81557142D02*
X127454819Y-81652380D01*
X127454819Y-81652380D02*
X127407200Y-81795237D01*
X127407200Y-81795237D02*
X127311961Y-81890475D01*
X127311961Y-81890475D02*
X127216723Y-81938094D01*
X127216723Y-81938094D02*
X127026247Y-81985713D01*
X127026247Y-81985713D02*
X126883390Y-81985713D01*
X126883390Y-81985713D02*
X126692914Y-81938094D01*
X126692914Y-81938094D02*
X126597676Y-81890475D01*
X126597676Y-81890475D02*
X126502438Y-81795237D01*
X126502438Y-81795237D02*
X126454819Y-81652380D01*
X126454819Y-81652380D02*
X126454819Y-81557142D01*
X126454819Y-81557142D02*
X126502438Y-81414285D01*
X126502438Y-81414285D02*
X126550057Y-81366666D01*
X126454819Y-80509523D02*
X126454819Y-80699999D01*
X126454819Y-80699999D02*
X126502438Y-80795237D01*
X126502438Y-80795237D02*
X126550057Y-80842856D01*
X126550057Y-80842856D02*
X126692914Y-80938094D01*
X126692914Y-80938094D02*
X126883390Y-80985713D01*
X126883390Y-80985713D02*
X127264342Y-80985713D01*
X127264342Y-80985713D02*
X127359580Y-80938094D01*
X127359580Y-80938094D02*
X127407200Y-80890475D01*
X127407200Y-80890475D02*
X127454819Y-80795237D01*
X127454819Y-80795237D02*
X127454819Y-80604761D01*
X127454819Y-80604761D02*
X127407200Y-80509523D01*
X127407200Y-80509523D02*
X127359580Y-80461904D01*
X127359580Y-80461904D02*
X127264342Y-80414285D01*
X127264342Y-80414285D02*
X127026247Y-80414285D01*
X127026247Y-80414285D02*
X126931009Y-80461904D01*
X126931009Y-80461904D02*
X126883390Y-80509523D01*
X126883390Y-80509523D02*
X126835771Y-80604761D01*
X126835771Y-80604761D02*
X126835771Y-80795237D01*
X126835771Y-80795237D02*
X126883390Y-80890475D01*
X126883390Y-80890475D02*
X126931009Y-80938094D01*
X126931009Y-80938094D02*
X127026247Y-80985713D01*
X119613819Y-96042857D02*
X119137628Y-96376190D01*
X119613819Y-96614285D02*
X118613819Y-96614285D01*
X118613819Y-96614285D02*
X118613819Y-96233333D01*
X118613819Y-96233333D02*
X118661438Y-96138095D01*
X118661438Y-96138095D02*
X118709057Y-96090476D01*
X118709057Y-96090476D02*
X118804295Y-96042857D01*
X118804295Y-96042857D02*
X118947152Y-96042857D01*
X118947152Y-96042857D02*
X119042390Y-96090476D01*
X119042390Y-96090476D02*
X119090009Y-96138095D01*
X119090009Y-96138095D02*
X119137628Y-96233333D01*
X119137628Y-96233333D02*
X119137628Y-96614285D01*
X118709057Y-95661904D02*
X118661438Y-95614285D01*
X118661438Y-95614285D02*
X118613819Y-95519047D01*
X118613819Y-95519047D02*
X118613819Y-95280952D01*
X118613819Y-95280952D02*
X118661438Y-95185714D01*
X118661438Y-95185714D02*
X118709057Y-95138095D01*
X118709057Y-95138095D02*
X118804295Y-95090476D01*
X118804295Y-95090476D02*
X118899533Y-95090476D01*
X118899533Y-95090476D02*
X119042390Y-95138095D01*
X119042390Y-95138095D02*
X119613819Y-95709523D01*
X119613819Y-95709523D02*
X119613819Y-95090476D01*
X118613819Y-94185714D02*
X118613819Y-94661904D01*
X118613819Y-94661904D02*
X119090009Y-94709523D01*
X119090009Y-94709523D02*
X119042390Y-94661904D01*
X119042390Y-94661904D02*
X118994771Y-94566666D01*
X118994771Y-94566666D02*
X118994771Y-94328571D01*
X118994771Y-94328571D02*
X119042390Y-94233333D01*
X119042390Y-94233333D02*
X119090009Y-94185714D01*
X119090009Y-94185714D02*
X119185247Y-94138095D01*
X119185247Y-94138095D02*
X119423342Y-94138095D01*
X119423342Y-94138095D02*
X119518580Y-94185714D01*
X119518580Y-94185714D02*
X119566200Y-94233333D01*
X119566200Y-94233333D02*
X119613819Y-94328571D01*
X119613819Y-94328571D02*
X119613819Y-94566666D01*
X119613819Y-94566666D02*
X119566200Y-94661904D01*
X119566200Y-94661904D02*
X119518580Y-94709523D01*
X109957142Y-83654819D02*
X109623809Y-83178628D01*
X109385714Y-83654819D02*
X109385714Y-82654819D01*
X109385714Y-82654819D02*
X109766666Y-82654819D01*
X109766666Y-82654819D02*
X109861904Y-82702438D01*
X109861904Y-82702438D02*
X109909523Y-82750057D01*
X109909523Y-82750057D02*
X109957142Y-82845295D01*
X109957142Y-82845295D02*
X109957142Y-82988152D01*
X109957142Y-82988152D02*
X109909523Y-83083390D01*
X109909523Y-83083390D02*
X109861904Y-83131009D01*
X109861904Y-83131009D02*
X109766666Y-83178628D01*
X109766666Y-83178628D02*
X109385714Y-83178628D01*
X110338095Y-82750057D02*
X110385714Y-82702438D01*
X110385714Y-82702438D02*
X110480952Y-82654819D01*
X110480952Y-82654819D02*
X110719047Y-82654819D01*
X110719047Y-82654819D02*
X110814285Y-82702438D01*
X110814285Y-82702438D02*
X110861904Y-82750057D01*
X110861904Y-82750057D02*
X110909523Y-82845295D01*
X110909523Y-82845295D02*
X110909523Y-82940533D01*
X110909523Y-82940533D02*
X110861904Y-83083390D01*
X110861904Y-83083390D02*
X110290476Y-83654819D01*
X110290476Y-83654819D02*
X110909523Y-83654819D01*
X111861904Y-83654819D02*
X111290476Y-83654819D01*
X111576190Y-83654819D02*
X111576190Y-82654819D01*
X111576190Y-82654819D02*
X111480952Y-82797676D01*
X111480952Y-82797676D02*
X111385714Y-82892914D01*
X111385714Y-82892914D02*
X111290476Y-82940533D01*
X146159580Y-89042857D02*
X146207200Y-89090476D01*
X146207200Y-89090476D02*
X146254819Y-89233333D01*
X146254819Y-89233333D02*
X146254819Y-89328571D01*
X146254819Y-89328571D02*
X146207200Y-89471428D01*
X146207200Y-89471428D02*
X146111961Y-89566666D01*
X146111961Y-89566666D02*
X146016723Y-89614285D01*
X146016723Y-89614285D02*
X145826247Y-89661904D01*
X145826247Y-89661904D02*
X145683390Y-89661904D01*
X145683390Y-89661904D02*
X145492914Y-89614285D01*
X145492914Y-89614285D02*
X145397676Y-89566666D01*
X145397676Y-89566666D02*
X145302438Y-89471428D01*
X145302438Y-89471428D02*
X145254819Y-89328571D01*
X145254819Y-89328571D02*
X145254819Y-89233333D01*
X145254819Y-89233333D02*
X145302438Y-89090476D01*
X145302438Y-89090476D02*
X145350057Y-89042857D01*
X145350057Y-88661904D02*
X145302438Y-88614285D01*
X145302438Y-88614285D02*
X145254819Y-88519047D01*
X145254819Y-88519047D02*
X145254819Y-88280952D01*
X145254819Y-88280952D02*
X145302438Y-88185714D01*
X145302438Y-88185714D02*
X145350057Y-88138095D01*
X145350057Y-88138095D02*
X145445295Y-88090476D01*
X145445295Y-88090476D02*
X145540533Y-88090476D01*
X145540533Y-88090476D02*
X145683390Y-88138095D01*
X145683390Y-88138095D02*
X146254819Y-88709523D01*
X146254819Y-88709523D02*
X146254819Y-88090476D01*
X145254819Y-87471428D02*
X145254819Y-87376190D01*
X145254819Y-87376190D02*
X145302438Y-87280952D01*
X145302438Y-87280952D02*
X145350057Y-87233333D01*
X145350057Y-87233333D02*
X145445295Y-87185714D01*
X145445295Y-87185714D02*
X145635771Y-87138095D01*
X145635771Y-87138095D02*
X145873866Y-87138095D01*
X145873866Y-87138095D02*
X146064342Y-87185714D01*
X146064342Y-87185714D02*
X146159580Y-87233333D01*
X146159580Y-87233333D02*
X146207200Y-87280952D01*
X146207200Y-87280952D02*
X146254819Y-87376190D01*
X146254819Y-87376190D02*
X146254819Y-87471428D01*
X146254819Y-87471428D02*
X146207200Y-87566666D01*
X146207200Y-87566666D02*
X146159580Y-87614285D01*
X146159580Y-87614285D02*
X146064342Y-87661904D01*
X146064342Y-87661904D02*
X145873866Y-87709523D01*
X145873866Y-87709523D02*
X145635771Y-87709523D01*
X145635771Y-87709523D02*
X145445295Y-87661904D01*
X145445295Y-87661904D02*
X145350057Y-87614285D01*
X145350057Y-87614285D02*
X145302438Y-87566666D01*
X145302438Y-87566666D02*
X145254819Y-87471428D01*
X135861905Y-69983819D02*
X135861905Y-68983819D01*
X135861905Y-68983819D02*
X136100000Y-68983819D01*
X136100000Y-68983819D02*
X136242857Y-69031438D01*
X136242857Y-69031438D02*
X136338095Y-69126676D01*
X136338095Y-69126676D02*
X136385714Y-69221914D01*
X136385714Y-69221914D02*
X136433333Y-69412390D01*
X136433333Y-69412390D02*
X136433333Y-69555247D01*
X136433333Y-69555247D02*
X136385714Y-69745723D01*
X136385714Y-69745723D02*
X136338095Y-69840961D01*
X136338095Y-69840961D02*
X136242857Y-69936200D01*
X136242857Y-69936200D02*
X136100000Y-69983819D01*
X136100000Y-69983819D02*
X135861905Y-69983819D01*
X136766667Y-68983819D02*
X137433333Y-68983819D01*
X137433333Y-68983819D02*
X137004762Y-69983819D01*
X141959580Y-78042857D02*
X142007200Y-78090476D01*
X142007200Y-78090476D02*
X142054819Y-78233333D01*
X142054819Y-78233333D02*
X142054819Y-78328571D01*
X142054819Y-78328571D02*
X142007200Y-78471428D01*
X142007200Y-78471428D02*
X141911961Y-78566666D01*
X141911961Y-78566666D02*
X141816723Y-78614285D01*
X141816723Y-78614285D02*
X141626247Y-78661904D01*
X141626247Y-78661904D02*
X141483390Y-78661904D01*
X141483390Y-78661904D02*
X141292914Y-78614285D01*
X141292914Y-78614285D02*
X141197676Y-78566666D01*
X141197676Y-78566666D02*
X141102438Y-78471428D01*
X141102438Y-78471428D02*
X141054819Y-78328571D01*
X141054819Y-78328571D02*
X141054819Y-78233333D01*
X141054819Y-78233333D02*
X141102438Y-78090476D01*
X141102438Y-78090476D02*
X141150057Y-78042857D01*
X142054819Y-77090476D02*
X142054819Y-77661904D01*
X142054819Y-77376190D02*
X141054819Y-77376190D01*
X141054819Y-77376190D02*
X141197676Y-77471428D01*
X141197676Y-77471428D02*
X141292914Y-77566666D01*
X141292914Y-77566666D02*
X141340533Y-77661904D01*
X141483390Y-76519047D02*
X141435771Y-76614285D01*
X141435771Y-76614285D02*
X141388152Y-76661904D01*
X141388152Y-76661904D02*
X141292914Y-76709523D01*
X141292914Y-76709523D02*
X141245295Y-76709523D01*
X141245295Y-76709523D02*
X141150057Y-76661904D01*
X141150057Y-76661904D02*
X141102438Y-76614285D01*
X141102438Y-76614285D02*
X141054819Y-76519047D01*
X141054819Y-76519047D02*
X141054819Y-76328571D01*
X141054819Y-76328571D02*
X141102438Y-76233333D01*
X141102438Y-76233333D02*
X141150057Y-76185714D01*
X141150057Y-76185714D02*
X141245295Y-76138095D01*
X141245295Y-76138095D02*
X141292914Y-76138095D01*
X141292914Y-76138095D02*
X141388152Y-76185714D01*
X141388152Y-76185714D02*
X141435771Y-76233333D01*
X141435771Y-76233333D02*
X141483390Y-76328571D01*
X141483390Y-76328571D02*
X141483390Y-76519047D01*
X141483390Y-76519047D02*
X141531009Y-76614285D01*
X141531009Y-76614285D02*
X141578628Y-76661904D01*
X141578628Y-76661904D02*
X141673866Y-76709523D01*
X141673866Y-76709523D02*
X141864342Y-76709523D01*
X141864342Y-76709523D02*
X141959580Y-76661904D01*
X141959580Y-76661904D02*
X142007200Y-76614285D01*
X142007200Y-76614285D02*
X142054819Y-76519047D01*
X142054819Y-76519047D02*
X142054819Y-76328571D01*
X142054819Y-76328571D02*
X142007200Y-76233333D01*
X142007200Y-76233333D02*
X141959580Y-76185714D01*
X141959580Y-76185714D02*
X141864342Y-76138095D01*
X141864342Y-76138095D02*
X141673866Y-76138095D01*
X141673866Y-76138095D02*
X141578628Y-76185714D01*
X141578628Y-76185714D02*
X141531009Y-76233333D01*
X141531009Y-76233333D02*
X141483390Y-76328571D01*
X162666666Y-75624819D02*
X162666666Y-76339104D01*
X162666666Y-76339104D02*
X162619047Y-76481961D01*
X162619047Y-76481961D02*
X162523809Y-76577200D01*
X162523809Y-76577200D02*
X162380952Y-76624819D01*
X162380952Y-76624819D02*
X162285714Y-76624819D01*
X163666666Y-76624819D02*
X163095238Y-76624819D01*
X163380952Y-76624819D02*
X163380952Y-75624819D01*
X163380952Y-75624819D02*
X163285714Y-75767676D01*
X163285714Y-75767676D02*
X163190476Y-75862914D01*
X163190476Y-75862914D02*
X163095238Y-75910533D01*
X122638095Y-82854819D02*
X122638095Y-83664342D01*
X122638095Y-83664342D02*
X122685714Y-83759580D01*
X122685714Y-83759580D02*
X122733333Y-83807200D01*
X122733333Y-83807200D02*
X122828571Y-83854819D01*
X122828571Y-83854819D02*
X123019047Y-83854819D01*
X123019047Y-83854819D02*
X123114285Y-83807200D01*
X123114285Y-83807200D02*
X123161904Y-83759580D01*
X123161904Y-83759580D02*
X123209523Y-83664342D01*
X123209523Y-83664342D02*
X123209523Y-82854819D01*
X124114285Y-83188152D02*
X124114285Y-83854819D01*
X123876190Y-82807200D02*
X123638095Y-83521485D01*
X123638095Y-83521485D02*
X124257142Y-83521485D01*
X153433333Y-74759580D02*
X153385714Y-74807200D01*
X153385714Y-74807200D02*
X153242857Y-74854819D01*
X153242857Y-74854819D02*
X153147619Y-74854819D01*
X153147619Y-74854819D02*
X153004762Y-74807200D01*
X153004762Y-74807200D02*
X152909524Y-74711961D01*
X152909524Y-74711961D02*
X152861905Y-74616723D01*
X152861905Y-74616723D02*
X152814286Y-74426247D01*
X152814286Y-74426247D02*
X152814286Y-74283390D01*
X152814286Y-74283390D02*
X152861905Y-74092914D01*
X152861905Y-74092914D02*
X152909524Y-73997676D01*
X152909524Y-73997676D02*
X153004762Y-73902438D01*
X153004762Y-73902438D02*
X153147619Y-73854819D01*
X153147619Y-73854819D02*
X153242857Y-73854819D01*
X153242857Y-73854819D02*
X153385714Y-73902438D01*
X153385714Y-73902438D02*
X153433333Y-73950057D01*
X153814286Y-73950057D02*
X153861905Y-73902438D01*
X153861905Y-73902438D02*
X153957143Y-73854819D01*
X153957143Y-73854819D02*
X154195238Y-73854819D01*
X154195238Y-73854819D02*
X154290476Y-73902438D01*
X154290476Y-73902438D02*
X154338095Y-73950057D01*
X154338095Y-73950057D02*
X154385714Y-74045295D01*
X154385714Y-74045295D02*
X154385714Y-74140533D01*
X154385714Y-74140533D02*
X154338095Y-74283390D01*
X154338095Y-74283390D02*
X153766667Y-74854819D01*
X153766667Y-74854819D02*
X154385714Y-74854819D01*
X101166666Y-79931009D02*
X100833333Y-79931009D01*
X100833333Y-80454819D02*
X100833333Y-79454819D01*
X100833333Y-79454819D02*
X101309523Y-79454819D01*
X102214285Y-80454819D02*
X101642857Y-80454819D01*
X101928571Y-80454819D02*
X101928571Y-79454819D01*
X101928571Y-79454819D02*
X101833333Y-79597676D01*
X101833333Y-79597676D02*
X101738095Y-79692914D01*
X101738095Y-79692914D02*
X101642857Y-79740533D01*
X118759580Y-65067857D02*
X118807200Y-65115476D01*
X118807200Y-65115476D02*
X118854819Y-65258333D01*
X118854819Y-65258333D02*
X118854819Y-65353571D01*
X118854819Y-65353571D02*
X118807200Y-65496428D01*
X118807200Y-65496428D02*
X118711961Y-65591666D01*
X118711961Y-65591666D02*
X118616723Y-65639285D01*
X118616723Y-65639285D02*
X118426247Y-65686904D01*
X118426247Y-65686904D02*
X118283390Y-65686904D01*
X118283390Y-65686904D02*
X118092914Y-65639285D01*
X118092914Y-65639285D02*
X117997676Y-65591666D01*
X117997676Y-65591666D02*
X117902438Y-65496428D01*
X117902438Y-65496428D02*
X117854819Y-65353571D01*
X117854819Y-65353571D02*
X117854819Y-65258333D01*
X117854819Y-65258333D02*
X117902438Y-65115476D01*
X117902438Y-65115476D02*
X117950057Y-65067857D01*
X117950057Y-64686904D02*
X117902438Y-64639285D01*
X117902438Y-64639285D02*
X117854819Y-64544047D01*
X117854819Y-64544047D02*
X117854819Y-64305952D01*
X117854819Y-64305952D02*
X117902438Y-64210714D01*
X117902438Y-64210714D02*
X117950057Y-64163095D01*
X117950057Y-64163095D02*
X118045295Y-64115476D01*
X118045295Y-64115476D02*
X118140533Y-64115476D01*
X118140533Y-64115476D02*
X118283390Y-64163095D01*
X118283390Y-64163095D02*
X118854819Y-64734523D01*
X118854819Y-64734523D02*
X118854819Y-64115476D01*
X118854819Y-63163095D02*
X118854819Y-63734523D01*
X118854819Y-63448809D02*
X117854819Y-63448809D01*
X117854819Y-63448809D02*
X117997676Y-63544047D01*
X117997676Y-63544047D02*
X118092914Y-63639285D01*
X118092914Y-63639285D02*
X118140533Y-63734523D01*
X107157142Y-89454819D02*
X106823809Y-88978628D01*
X106585714Y-89454819D02*
X106585714Y-88454819D01*
X106585714Y-88454819D02*
X106966666Y-88454819D01*
X106966666Y-88454819D02*
X107061904Y-88502438D01*
X107061904Y-88502438D02*
X107109523Y-88550057D01*
X107109523Y-88550057D02*
X107157142Y-88645295D01*
X107157142Y-88645295D02*
X107157142Y-88788152D01*
X107157142Y-88788152D02*
X107109523Y-88883390D01*
X107109523Y-88883390D02*
X107061904Y-88931009D01*
X107061904Y-88931009D02*
X106966666Y-88978628D01*
X106966666Y-88978628D02*
X106585714Y-88978628D01*
X107538095Y-88550057D02*
X107585714Y-88502438D01*
X107585714Y-88502438D02*
X107680952Y-88454819D01*
X107680952Y-88454819D02*
X107919047Y-88454819D01*
X107919047Y-88454819D02*
X108014285Y-88502438D01*
X108014285Y-88502438D02*
X108061904Y-88550057D01*
X108061904Y-88550057D02*
X108109523Y-88645295D01*
X108109523Y-88645295D02*
X108109523Y-88740533D01*
X108109523Y-88740533D02*
X108061904Y-88883390D01*
X108061904Y-88883390D02*
X107490476Y-89454819D01*
X107490476Y-89454819D02*
X108109523Y-89454819D01*
X108728571Y-88454819D02*
X108823809Y-88454819D01*
X108823809Y-88454819D02*
X108919047Y-88502438D01*
X108919047Y-88502438D02*
X108966666Y-88550057D01*
X108966666Y-88550057D02*
X109014285Y-88645295D01*
X109014285Y-88645295D02*
X109061904Y-88835771D01*
X109061904Y-88835771D02*
X109061904Y-89073866D01*
X109061904Y-89073866D02*
X109014285Y-89264342D01*
X109014285Y-89264342D02*
X108966666Y-89359580D01*
X108966666Y-89359580D02*
X108919047Y-89407200D01*
X108919047Y-89407200D02*
X108823809Y-89454819D01*
X108823809Y-89454819D02*
X108728571Y-89454819D01*
X108728571Y-89454819D02*
X108633333Y-89407200D01*
X108633333Y-89407200D02*
X108585714Y-89359580D01*
X108585714Y-89359580D02*
X108538095Y-89264342D01*
X108538095Y-89264342D02*
X108490476Y-89073866D01*
X108490476Y-89073866D02*
X108490476Y-88835771D01*
X108490476Y-88835771D02*
X108538095Y-88645295D01*
X108538095Y-88645295D02*
X108585714Y-88550057D01*
X108585714Y-88550057D02*
X108633333Y-88502438D01*
X108633333Y-88502438D02*
X108728571Y-88454819D01*
X135860372Y-82640393D02*
X135384181Y-82973726D01*
X135860372Y-83211821D02*
X134860372Y-83211821D01*
X134860372Y-83211821D02*
X134860372Y-82830869D01*
X134860372Y-82830869D02*
X134907991Y-82735631D01*
X134907991Y-82735631D02*
X134955610Y-82688012D01*
X134955610Y-82688012D02*
X135050848Y-82640393D01*
X135050848Y-82640393D02*
X135193705Y-82640393D01*
X135193705Y-82640393D02*
X135288943Y-82688012D01*
X135288943Y-82688012D02*
X135336562Y-82735631D01*
X135336562Y-82735631D02*
X135384181Y-82830869D01*
X135384181Y-82830869D02*
X135384181Y-83211821D01*
X135860372Y-81688012D02*
X135860372Y-82259440D01*
X135860372Y-81973726D02*
X134860372Y-81973726D01*
X134860372Y-81973726D02*
X135003229Y-82068964D01*
X135003229Y-82068964D02*
X135098467Y-82164202D01*
X135098467Y-82164202D02*
X135146086Y-82259440D01*
X134860372Y-81068964D02*
X134860372Y-80973726D01*
X134860372Y-80973726D02*
X134907991Y-80878488D01*
X134907991Y-80878488D02*
X134955610Y-80830869D01*
X134955610Y-80830869D02*
X135050848Y-80783250D01*
X135050848Y-80783250D02*
X135241324Y-80735631D01*
X135241324Y-80735631D02*
X135479419Y-80735631D01*
X135479419Y-80735631D02*
X135669895Y-80783250D01*
X135669895Y-80783250D02*
X135765133Y-80830869D01*
X135765133Y-80830869D02*
X135812753Y-80878488D01*
X135812753Y-80878488D02*
X135860372Y-80973726D01*
X135860372Y-80973726D02*
X135860372Y-81068964D01*
X135860372Y-81068964D02*
X135812753Y-81164202D01*
X135812753Y-81164202D02*
X135765133Y-81211821D01*
X135765133Y-81211821D02*
X135669895Y-81259440D01*
X135669895Y-81259440D02*
X135479419Y-81307059D01*
X135479419Y-81307059D02*
X135241324Y-81307059D01*
X135241324Y-81307059D02*
X135050848Y-81259440D01*
X135050848Y-81259440D02*
X134955610Y-81211821D01*
X134955610Y-81211821D02*
X134907991Y-81164202D01*
X134907991Y-81164202D02*
X134860372Y-81068964D01*
X146857142Y-68674819D02*
X146523809Y-68198628D01*
X146285714Y-68674819D02*
X146285714Y-67674819D01*
X146285714Y-67674819D02*
X146666666Y-67674819D01*
X146666666Y-67674819D02*
X146761904Y-67722438D01*
X146761904Y-67722438D02*
X146809523Y-67770057D01*
X146809523Y-67770057D02*
X146857142Y-67865295D01*
X146857142Y-67865295D02*
X146857142Y-68008152D01*
X146857142Y-68008152D02*
X146809523Y-68103390D01*
X146809523Y-68103390D02*
X146761904Y-68151009D01*
X146761904Y-68151009D02*
X146666666Y-68198628D01*
X146666666Y-68198628D02*
X146285714Y-68198628D01*
X147809523Y-68674819D02*
X147238095Y-68674819D01*
X147523809Y-68674819D02*
X147523809Y-67674819D01*
X147523809Y-67674819D02*
X147428571Y-67817676D01*
X147428571Y-67817676D02*
X147333333Y-67912914D01*
X147333333Y-67912914D02*
X147238095Y-67960533D01*
X148666666Y-68008152D02*
X148666666Y-68674819D01*
X148428571Y-67627200D02*
X148190476Y-68341485D01*
X148190476Y-68341485D02*
X148809523Y-68341485D01*
X140704761Y-99550057D02*
X140609523Y-99502438D01*
X140609523Y-99502438D02*
X140514285Y-99407200D01*
X140514285Y-99407200D02*
X140371428Y-99264342D01*
X140371428Y-99264342D02*
X140276190Y-99216723D01*
X140276190Y-99216723D02*
X140180952Y-99216723D01*
X140228571Y-99454819D02*
X140133333Y-99407200D01*
X140133333Y-99407200D02*
X140038095Y-99311961D01*
X140038095Y-99311961D02*
X139990476Y-99121485D01*
X139990476Y-99121485D02*
X139990476Y-98788152D01*
X139990476Y-98788152D02*
X140038095Y-98597676D01*
X140038095Y-98597676D02*
X140133333Y-98502438D01*
X140133333Y-98502438D02*
X140228571Y-98454819D01*
X140228571Y-98454819D02*
X140419047Y-98454819D01*
X140419047Y-98454819D02*
X140514285Y-98502438D01*
X140514285Y-98502438D02*
X140609523Y-98597676D01*
X140609523Y-98597676D02*
X140657142Y-98788152D01*
X140657142Y-98788152D02*
X140657142Y-99121485D01*
X140657142Y-99121485D02*
X140609523Y-99311961D01*
X140609523Y-99311961D02*
X140514285Y-99407200D01*
X140514285Y-99407200D02*
X140419047Y-99454819D01*
X140419047Y-99454819D02*
X140228571Y-99454819D01*
X141514285Y-98788152D02*
X141514285Y-99454819D01*
X141276190Y-98407200D02*
X141038095Y-99121485D01*
X141038095Y-99121485D02*
X141657142Y-99121485D01*
X126633333Y-79759580D02*
X126585714Y-79807200D01*
X126585714Y-79807200D02*
X126442857Y-79854819D01*
X126442857Y-79854819D02*
X126347619Y-79854819D01*
X126347619Y-79854819D02*
X126204762Y-79807200D01*
X126204762Y-79807200D02*
X126109524Y-79711961D01*
X126109524Y-79711961D02*
X126061905Y-79616723D01*
X126061905Y-79616723D02*
X126014286Y-79426247D01*
X126014286Y-79426247D02*
X126014286Y-79283390D01*
X126014286Y-79283390D02*
X126061905Y-79092914D01*
X126061905Y-79092914D02*
X126109524Y-78997676D01*
X126109524Y-78997676D02*
X126204762Y-78902438D01*
X126204762Y-78902438D02*
X126347619Y-78854819D01*
X126347619Y-78854819D02*
X126442857Y-78854819D01*
X126442857Y-78854819D02*
X126585714Y-78902438D01*
X126585714Y-78902438D02*
X126633333Y-78950057D01*
X127109524Y-79854819D02*
X127300000Y-79854819D01*
X127300000Y-79854819D02*
X127395238Y-79807200D01*
X127395238Y-79807200D02*
X127442857Y-79759580D01*
X127442857Y-79759580D02*
X127538095Y-79616723D01*
X127538095Y-79616723D02*
X127585714Y-79426247D01*
X127585714Y-79426247D02*
X127585714Y-79045295D01*
X127585714Y-79045295D02*
X127538095Y-78950057D01*
X127538095Y-78950057D02*
X127490476Y-78902438D01*
X127490476Y-78902438D02*
X127395238Y-78854819D01*
X127395238Y-78854819D02*
X127204762Y-78854819D01*
X127204762Y-78854819D02*
X127109524Y-78902438D01*
X127109524Y-78902438D02*
X127061905Y-78950057D01*
X127061905Y-78950057D02*
X127014286Y-79045295D01*
X127014286Y-79045295D02*
X127014286Y-79283390D01*
X127014286Y-79283390D02*
X127061905Y-79378628D01*
X127061905Y-79378628D02*
X127109524Y-79426247D01*
X127109524Y-79426247D02*
X127204762Y-79473866D01*
X127204762Y-79473866D02*
X127395238Y-79473866D01*
X127395238Y-79473866D02*
X127490476Y-79426247D01*
X127490476Y-79426247D02*
X127538095Y-79378628D01*
X127538095Y-79378628D02*
X127585714Y-79283390D01*
X127304761Y-90550057D02*
X127209523Y-90502438D01*
X127209523Y-90502438D02*
X127114285Y-90407200D01*
X127114285Y-90407200D02*
X126971428Y-90264342D01*
X126971428Y-90264342D02*
X126876190Y-90216723D01*
X126876190Y-90216723D02*
X126780952Y-90216723D01*
X126828571Y-90454819D02*
X126733333Y-90407200D01*
X126733333Y-90407200D02*
X126638095Y-90311961D01*
X126638095Y-90311961D02*
X126590476Y-90121485D01*
X126590476Y-90121485D02*
X126590476Y-89788152D01*
X126590476Y-89788152D02*
X126638095Y-89597676D01*
X126638095Y-89597676D02*
X126733333Y-89502438D01*
X126733333Y-89502438D02*
X126828571Y-89454819D01*
X126828571Y-89454819D02*
X127019047Y-89454819D01*
X127019047Y-89454819D02*
X127114285Y-89502438D01*
X127114285Y-89502438D02*
X127209523Y-89597676D01*
X127209523Y-89597676D02*
X127257142Y-89788152D01*
X127257142Y-89788152D02*
X127257142Y-90121485D01*
X127257142Y-90121485D02*
X127209523Y-90311961D01*
X127209523Y-90311961D02*
X127114285Y-90407200D01*
X127114285Y-90407200D02*
X127019047Y-90454819D01*
X127019047Y-90454819D02*
X126828571Y-90454819D01*
X128209523Y-90454819D02*
X127638095Y-90454819D01*
X127923809Y-90454819D02*
X127923809Y-89454819D01*
X127923809Y-89454819D02*
X127828571Y-89597676D01*
X127828571Y-89597676D02*
X127733333Y-89692914D01*
X127733333Y-89692914D02*
X127638095Y-89740533D01*
X139254819Y-77242857D02*
X138778628Y-77576190D01*
X139254819Y-77814285D02*
X138254819Y-77814285D01*
X138254819Y-77814285D02*
X138254819Y-77433333D01*
X138254819Y-77433333D02*
X138302438Y-77338095D01*
X138302438Y-77338095D02*
X138350057Y-77290476D01*
X138350057Y-77290476D02*
X138445295Y-77242857D01*
X138445295Y-77242857D02*
X138588152Y-77242857D01*
X138588152Y-77242857D02*
X138683390Y-77290476D01*
X138683390Y-77290476D02*
X138731009Y-77338095D01*
X138731009Y-77338095D02*
X138778628Y-77433333D01*
X138778628Y-77433333D02*
X138778628Y-77814285D01*
X138254819Y-76909523D02*
X138254819Y-76290476D01*
X138254819Y-76290476D02*
X138635771Y-76623809D01*
X138635771Y-76623809D02*
X138635771Y-76480952D01*
X138635771Y-76480952D02*
X138683390Y-76385714D01*
X138683390Y-76385714D02*
X138731009Y-76338095D01*
X138731009Y-76338095D02*
X138826247Y-76290476D01*
X138826247Y-76290476D02*
X139064342Y-76290476D01*
X139064342Y-76290476D02*
X139159580Y-76338095D01*
X139159580Y-76338095D02*
X139207200Y-76385714D01*
X139207200Y-76385714D02*
X139254819Y-76480952D01*
X139254819Y-76480952D02*
X139254819Y-76766666D01*
X139254819Y-76766666D02*
X139207200Y-76861904D01*
X139207200Y-76861904D02*
X139159580Y-76909523D01*
X138254819Y-75433333D02*
X138254819Y-75623809D01*
X138254819Y-75623809D02*
X138302438Y-75719047D01*
X138302438Y-75719047D02*
X138350057Y-75766666D01*
X138350057Y-75766666D02*
X138492914Y-75861904D01*
X138492914Y-75861904D02*
X138683390Y-75909523D01*
X138683390Y-75909523D02*
X139064342Y-75909523D01*
X139064342Y-75909523D02*
X139159580Y-75861904D01*
X139159580Y-75861904D02*
X139207200Y-75814285D01*
X139207200Y-75814285D02*
X139254819Y-75719047D01*
X139254819Y-75719047D02*
X139254819Y-75528571D01*
X139254819Y-75528571D02*
X139207200Y-75433333D01*
X139207200Y-75433333D02*
X139159580Y-75385714D01*
X139159580Y-75385714D02*
X139064342Y-75338095D01*
X139064342Y-75338095D02*
X138826247Y-75338095D01*
X138826247Y-75338095D02*
X138731009Y-75385714D01*
X138731009Y-75385714D02*
X138683390Y-75433333D01*
X138683390Y-75433333D02*
X138635771Y-75528571D01*
X138635771Y-75528571D02*
X138635771Y-75719047D01*
X138635771Y-75719047D02*
X138683390Y-75814285D01*
X138683390Y-75814285D02*
X138731009Y-75861904D01*
X138731009Y-75861904D02*
X138826247Y-75909523D01*
X108104761Y-91150057D02*
X108009523Y-91102438D01*
X108009523Y-91102438D02*
X107914285Y-91007200D01*
X107914285Y-91007200D02*
X107771428Y-90864342D01*
X107771428Y-90864342D02*
X107676190Y-90816723D01*
X107676190Y-90816723D02*
X107580952Y-90816723D01*
X107628571Y-91054819D02*
X107533333Y-91007200D01*
X107533333Y-91007200D02*
X107438095Y-90911961D01*
X107438095Y-90911961D02*
X107390476Y-90721485D01*
X107390476Y-90721485D02*
X107390476Y-90388152D01*
X107390476Y-90388152D02*
X107438095Y-90197676D01*
X107438095Y-90197676D02*
X107533333Y-90102438D01*
X107533333Y-90102438D02*
X107628571Y-90054819D01*
X107628571Y-90054819D02*
X107819047Y-90054819D01*
X107819047Y-90054819D02*
X107914285Y-90102438D01*
X107914285Y-90102438D02*
X108009523Y-90197676D01*
X108009523Y-90197676D02*
X108057142Y-90388152D01*
X108057142Y-90388152D02*
X108057142Y-90721485D01*
X108057142Y-90721485D02*
X108009523Y-90911961D01*
X108009523Y-90911961D02*
X107914285Y-91007200D01*
X107914285Y-91007200D02*
X107819047Y-91054819D01*
X107819047Y-91054819D02*
X107628571Y-91054819D01*
X108961904Y-90054819D02*
X108485714Y-90054819D01*
X108485714Y-90054819D02*
X108438095Y-90531009D01*
X108438095Y-90531009D02*
X108485714Y-90483390D01*
X108485714Y-90483390D02*
X108580952Y-90435771D01*
X108580952Y-90435771D02*
X108819047Y-90435771D01*
X108819047Y-90435771D02*
X108914285Y-90483390D01*
X108914285Y-90483390D02*
X108961904Y-90531009D01*
X108961904Y-90531009D02*
X109009523Y-90626247D01*
X109009523Y-90626247D02*
X109009523Y-90864342D01*
X109009523Y-90864342D02*
X108961904Y-90959580D01*
X108961904Y-90959580D02*
X108914285Y-91007200D01*
X108914285Y-91007200D02*
X108819047Y-91054819D01*
X108819047Y-91054819D02*
X108580952Y-91054819D01*
X108580952Y-91054819D02*
X108485714Y-91007200D01*
X108485714Y-91007200D02*
X108438095Y-90959580D01*
X127504761Y-99350057D02*
X127409523Y-99302438D01*
X127409523Y-99302438D02*
X127314285Y-99207200D01*
X127314285Y-99207200D02*
X127171428Y-99064342D01*
X127171428Y-99064342D02*
X127076190Y-99016723D01*
X127076190Y-99016723D02*
X126980952Y-99016723D01*
X127028571Y-99254819D02*
X126933333Y-99207200D01*
X126933333Y-99207200D02*
X126838095Y-99111961D01*
X126838095Y-99111961D02*
X126790476Y-98921485D01*
X126790476Y-98921485D02*
X126790476Y-98588152D01*
X126790476Y-98588152D02*
X126838095Y-98397676D01*
X126838095Y-98397676D02*
X126933333Y-98302438D01*
X126933333Y-98302438D02*
X127028571Y-98254819D01*
X127028571Y-98254819D02*
X127219047Y-98254819D01*
X127219047Y-98254819D02*
X127314285Y-98302438D01*
X127314285Y-98302438D02*
X127409523Y-98397676D01*
X127409523Y-98397676D02*
X127457142Y-98588152D01*
X127457142Y-98588152D02*
X127457142Y-98921485D01*
X127457142Y-98921485D02*
X127409523Y-99111961D01*
X127409523Y-99111961D02*
X127314285Y-99207200D01*
X127314285Y-99207200D02*
X127219047Y-99254819D01*
X127219047Y-99254819D02*
X127028571Y-99254819D01*
X127790476Y-98254819D02*
X128409523Y-98254819D01*
X128409523Y-98254819D02*
X128076190Y-98635771D01*
X128076190Y-98635771D02*
X128219047Y-98635771D01*
X128219047Y-98635771D02*
X128314285Y-98683390D01*
X128314285Y-98683390D02*
X128361904Y-98731009D01*
X128361904Y-98731009D02*
X128409523Y-98826247D01*
X128409523Y-98826247D02*
X128409523Y-99064342D01*
X128409523Y-99064342D02*
X128361904Y-99159580D01*
X128361904Y-99159580D02*
X128314285Y-99207200D01*
X128314285Y-99207200D02*
X128219047Y-99254819D01*
X128219047Y-99254819D02*
X127933333Y-99254819D01*
X127933333Y-99254819D02*
X127838095Y-99207200D01*
X127838095Y-99207200D02*
X127790476Y-99159580D01*
X141935714Y-81604819D02*
X141935714Y-80604819D01*
X141935714Y-80604819D02*
X142173809Y-80604819D01*
X142173809Y-80604819D02*
X142316666Y-80652438D01*
X142316666Y-80652438D02*
X142411904Y-80747676D01*
X142411904Y-80747676D02*
X142459523Y-80842914D01*
X142459523Y-80842914D02*
X142507142Y-81033390D01*
X142507142Y-81033390D02*
X142507142Y-81176247D01*
X142507142Y-81176247D02*
X142459523Y-81366723D01*
X142459523Y-81366723D02*
X142411904Y-81461961D01*
X142411904Y-81461961D02*
X142316666Y-81557200D01*
X142316666Y-81557200D02*
X142173809Y-81604819D01*
X142173809Y-81604819D02*
X141935714Y-81604819D01*
X143459523Y-81604819D02*
X142888095Y-81604819D01*
X143173809Y-81604819D02*
X143173809Y-80604819D01*
X143173809Y-80604819D02*
X143078571Y-80747676D01*
X143078571Y-80747676D02*
X142983333Y-80842914D01*
X142983333Y-80842914D02*
X142888095Y-80890533D01*
X144078571Y-80604819D02*
X144173809Y-80604819D01*
X144173809Y-80604819D02*
X144269047Y-80652438D01*
X144269047Y-80652438D02*
X144316666Y-80700057D01*
X144316666Y-80700057D02*
X144364285Y-80795295D01*
X144364285Y-80795295D02*
X144411904Y-80985771D01*
X144411904Y-80985771D02*
X144411904Y-81223866D01*
X144411904Y-81223866D02*
X144364285Y-81414342D01*
X144364285Y-81414342D02*
X144316666Y-81509580D01*
X144316666Y-81509580D02*
X144269047Y-81557200D01*
X144269047Y-81557200D02*
X144173809Y-81604819D01*
X144173809Y-81604819D02*
X144078571Y-81604819D01*
X144078571Y-81604819D02*
X143983333Y-81557200D01*
X143983333Y-81557200D02*
X143935714Y-81509580D01*
X143935714Y-81509580D02*
X143888095Y-81414342D01*
X143888095Y-81414342D02*
X143840476Y-81223866D01*
X143840476Y-81223866D02*
X143840476Y-80985771D01*
X143840476Y-80985771D02*
X143888095Y-80795295D01*
X143888095Y-80795295D02*
X143935714Y-80700057D01*
X143935714Y-80700057D02*
X143983333Y-80652438D01*
X143983333Y-80652438D02*
X144078571Y-80604819D01*
X119509819Y-78017857D02*
X119033628Y-78351190D01*
X119509819Y-78589285D02*
X118509819Y-78589285D01*
X118509819Y-78589285D02*
X118509819Y-78208333D01*
X118509819Y-78208333D02*
X118557438Y-78113095D01*
X118557438Y-78113095D02*
X118605057Y-78065476D01*
X118605057Y-78065476D02*
X118700295Y-78017857D01*
X118700295Y-78017857D02*
X118843152Y-78017857D01*
X118843152Y-78017857D02*
X118938390Y-78065476D01*
X118938390Y-78065476D02*
X118986009Y-78113095D01*
X118986009Y-78113095D02*
X119033628Y-78208333D01*
X119033628Y-78208333D02*
X119033628Y-78589285D01*
X118605057Y-77636904D02*
X118557438Y-77589285D01*
X118557438Y-77589285D02*
X118509819Y-77494047D01*
X118509819Y-77494047D02*
X118509819Y-77255952D01*
X118509819Y-77255952D02*
X118557438Y-77160714D01*
X118557438Y-77160714D02*
X118605057Y-77113095D01*
X118605057Y-77113095D02*
X118700295Y-77065476D01*
X118700295Y-77065476D02*
X118795533Y-77065476D01*
X118795533Y-77065476D02*
X118938390Y-77113095D01*
X118938390Y-77113095D02*
X119509819Y-77684523D01*
X119509819Y-77684523D02*
X119509819Y-77065476D01*
X118843152Y-76208333D02*
X119509819Y-76208333D01*
X118462200Y-76446428D02*
X119176485Y-76684523D01*
X119176485Y-76684523D02*
X119176485Y-76065476D01*
X108304761Y-85550057D02*
X108209523Y-85502438D01*
X108209523Y-85502438D02*
X108114285Y-85407200D01*
X108114285Y-85407200D02*
X107971428Y-85264342D01*
X107971428Y-85264342D02*
X107876190Y-85216723D01*
X107876190Y-85216723D02*
X107780952Y-85216723D01*
X107828571Y-85454819D02*
X107733333Y-85407200D01*
X107733333Y-85407200D02*
X107638095Y-85311961D01*
X107638095Y-85311961D02*
X107590476Y-85121485D01*
X107590476Y-85121485D02*
X107590476Y-84788152D01*
X107590476Y-84788152D02*
X107638095Y-84597676D01*
X107638095Y-84597676D02*
X107733333Y-84502438D01*
X107733333Y-84502438D02*
X107828571Y-84454819D01*
X107828571Y-84454819D02*
X108019047Y-84454819D01*
X108019047Y-84454819D02*
X108114285Y-84502438D01*
X108114285Y-84502438D02*
X108209523Y-84597676D01*
X108209523Y-84597676D02*
X108257142Y-84788152D01*
X108257142Y-84788152D02*
X108257142Y-85121485D01*
X108257142Y-85121485D02*
X108209523Y-85311961D01*
X108209523Y-85311961D02*
X108114285Y-85407200D01*
X108114285Y-85407200D02*
X108019047Y-85454819D01*
X108019047Y-85454819D02*
X107828571Y-85454819D01*
X109114285Y-84454819D02*
X108923809Y-84454819D01*
X108923809Y-84454819D02*
X108828571Y-84502438D01*
X108828571Y-84502438D02*
X108780952Y-84550057D01*
X108780952Y-84550057D02*
X108685714Y-84692914D01*
X108685714Y-84692914D02*
X108638095Y-84883390D01*
X108638095Y-84883390D02*
X108638095Y-85264342D01*
X108638095Y-85264342D02*
X108685714Y-85359580D01*
X108685714Y-85359580D02*
X108733333Y-85407200D01*
X108733333Y-85407200D02*
X108828571Y-85454819D01*
X108828571Y-85454819D02*
X109019047Y-85454819D01*
X109019047Y-85454819D02*
X109114285Y-85407200D01*
X109114285Y-85407200D02*
X109161904Y-85359580D01*
X109161904Y-85359580D02*
X109209523Y-85264342D01*
X109209523Y-85264342D02*
X109209523Y-85026247D01*
X109209523Y-85026247D02*
X109161904Y-84931009D01*
X109161904Y-84931009D02*
X109114285Y-84883390D01*
X109114285Y-84883390D02*
X109019047Y-84835771D01*
X109019047Y-84835771D02*
X108828571Y-84835771D01*
X108828571Y-84835771D02*
X108733333Y-84883390D01*
X108733333Y-84883390D02*
X108685714Y-84931009D01*
X108685714Y-84931009D02*
X108638095Y-85026247D01*
X119359819Y-86770857D02*
X118883628Y-87104190D01*
X119359819Y-87342285D02*
X118359819Y-87342285D01*
X118359819Y-87342285D02*
X118359819Y-86961333D01*
X118359819Y-86961333D02*
X118407438Y-86866095D01*
X118407438Y-86866095D02*
X118455057Y-86818476D01*
X118455057Y-86818476D02*
X118550295Y-86770857D01*
X118550295Y-86770857D02*
X118693152Y-86770857D01*
X118693152Y-86770857D02*
X118788390Y-86818476D01*
X118788390Y-86818476D02*
X118836009Y-86866095D01*
X118836009Y-86866095D02*
X118883628Y-86961333D01*
X118883628Y-86961333D02*
X118883628Y-87342285D01*
X118455057Y-86389904D02*
X118407438Y-86342285D01*
X118407438Y-86342285D02*
X118359819Y-86247047D01*
X118359819Y-86247047D02*
X118359819Y-86008952D01*
X118359819Y-86008952D02*
X118407438Y-85913714D01*
X118407438Y-85913714D02*
X118455057Y-85866095D01*
X118455057Y-85866095D02*
X118550295Y-85818476D01*
X118550295Y-85818476D02*
X118645533Y-85818476D01*
X118645533Y-85818476D02*
X118788390Y-85866095D01*
X118788390Y-85866095D02*
X119359819Y-86437523D01*
X119359819Y-86437523D02*
X119359819Y-85818476D01*
X118359819Y-85485142D02*
X118359819Y-84866095D01*
X118359819Y-84866095D02*
X118740771Y-85199428D01*
X118740771Y-85199428D02*
X118740771Y-85056571D01*
X118740771Y-85056571D02*
X118788390Y-84961333D01*
X118788390Y-84961333D02*
X118836009Y-84913714D01*
X118836009Y-84913714D02*
X118931247Y-84866095D01*
X118931247Y-84866095D02*
X119169342Y-84866095D01*
X119169342Y-84866095D02*
X119264580Y-84913714D01*
X119264580Y-84913714D02*
X119312200Y-84961333D01*
X119312200Y-84961333D02*
X119359819Y-85056571D01*
X119359819Y-85056571D02*
X119359819Y-85342285D01*
X119359819Y-85342285D02*
X119312200Y-85437523D01*
X119312200Y-85437523D02*
X119264580Y-85485142D01*
X101166666Y-84931009D02*
X100833333Y-84931009D01*
X100833333Y-85454819D02*
X100833333Y-84454819D01*
X100833333Y-84454819D02*
X101309523Y-84454819D01*
X101595238Y-84454819D02*
X102214285Y-84454819D01*
X102214285Y-84454819D02*
X101880952Y-84835771D01*
X101880952Y-84835771D02*
X102023809Y-84835771D01*
X102023809Y-84835771D02*
X102119047Y-84883390D01*
X102119047Y-84883390D02*
X102166666Y-84931009D01*
X102166666Y-84931009D02*
X102214285Y-85026247D01*
X102214285Y-85026247D02*
X102214285Y-85264342D01*
X102214285Y-85264342D02*
X102166666Y-85359580D01*
X102166666Y-85359580D02*
X102119047Y-85407200D01*
X102119047Y-85407200D02*
X102023809Y-85454819D01*
X102023809Y-85454819D02*
X101738095Y-85454819D01*
X101738095Y-85454819D02*
X101642857Y-85407200D01*
X101642857Y-85407200D02*
X101595238Y-85359580D01*
X135638095Y-85054819D02*
X135638095Y-85864342D01*
X135638095Y-85864342D02*
X135685714Y-85959580D01*
X135685714Y-85959580D02*
X135733333Y-86007200D01*
X135733333Y-86007200D02*
X135828571Y-86054819D01*
X135828571Y-86054819D02*
X136019047Y-86054819D01*
X136019047Y-86054819D02*
X136114285Y-86007200D01*
X136114285Y-86007200D02*
X136161904Y-85959580D01*
X136161904Y-85959580D02*
X136209523Y-85864342D01*
X136209523Y-85864342D02*
X136209523Y-85054819D01*
X137161904Y-85054819D02*
X136685714Y-85054819D01*
X136685714Y-85054819D02*
X136638095Y-85531009D01*
X136638095Y-85531009D02*
X136685714Y-85483390D01*
X136685714Y-85483390D02*
X136780952Y-85435771D01*
X136780952Y-85435771D02*
X137019047Y-85435771D01*
X137019047Y-85435771D02*
X137114285Y-85483390D01*
X137114285Y-85483390D02*
X137161904Y-85531009D01*
X137161904Y-85531009D02*
X137209523Y-85626247D01*
X137209523Y-85626247D02*
X137209523Y-85864342D01*
X137209523Y-85864342D02*
X137161904Y-85959580D01*
X137161904Y-85959580D02*
X137114285Y-86007200D01*
X137114285Y-86007200D02*
X137019047Y-86054819D01*
X137019047Y-86054819D02*
X136780952Y-86054819D01*
X136780952Y-86054819D02*
X136685714Y-86007200D01*
X136685714Y-86007200D02*
X136638095Y-85959580D01*
X137054819Y-82642857D02*
X136578628Y-82976190D01*
X137054819Y-83214285D02*
X136054819Y-83214285D01*
X136054819Y-83214285D02*
X136054819Y-82833333D01*
X136054819Y-82833333D02*
X136102438Y-82738095D01*
X136102438Y-82738095D02*
X136150057Y-82690476D01*
X136150057Y-82690476D02*
X136245295Y-82642857D01*
X136245295Y-82642857D02*
X136388152Y-82642857D01*
X136388152Y-82642857D02*
X136483390Y-82690476D01*
X136483390Y-82690476D02*
X136531009Y-82738095D01*
X136531009Y-82738095D02*
X136578628Y-82833333D01*
X136578628Y-82833333D02*
X136578628Y-83214285D01*
X137054819Y-81690476D02*
X137054819Y-82261904D01*
X137054819Y-81976190D02*
X136054819Y-81976190D01*
X136054819Y-81976190D02*
X136197676Y-82071428D01*
X136197676Y-82071428D02*
X136292914Y-82166666D01*
X136292914Y-82166666D02*
X136340533Y-82261904D01*
X137054819Y-80738095D02*
X137054819Y-81309523D01*
X137054819Y-81023809D02*
X136054819Y-81023809D01*
X136054819Y-81023809D02*
X136197676Y-81119047D01*
X136197676Y-81119047D02*
X136292914Y-81214285D01*
X136292914Y-81214285D02*
X136340533Y-81309523D01*
X148054819Y-72842857D02*
X147578628Y-73176190D01*
X148054819Y-73414285D02*
X147054819Y-73414285D01*
X147054819Y-73414285D02*
X147054819Y-73033333D01*
X147054819Y-73033333D02*
X147102438Y-72938095D01*
X147102438Y-72938095D02*
X147150057Y-72890476D01*
X147150057Y-72890476D02*
X147245295Y-72842857D01*
X147245295Y-72842857D02*
X147388152Y-72842857D01*
X147388152Y-72842857D02*
X147483390Y-72890476D01*
X147483390Y-72890476D02*
X147531009Y-72938095D01*
X147531009Y-72938095D02*
X147578628Y-73033333D01*
X147578628Y-73033333D02*
X147578628Y-73414285D01*
X147054819Y-72509523D02*
X147054819Y-71890476D01*
X147054819Y-71890476D02*
X147435771Y-72223809D01*
X147435771Y-72223809D02*
X147435771Y-72080952D01*
X147435771Y-72080952D02*
X147483390Y-71985714D01*
X147483390Y-71985714D02*
X147531009Y-71938095D01*
X147531009Y-71938095D02*
X147626247Y-71890476D01*
X147626247Y-71890476D02*
X147864342Y-71890476D01*
X147864342Y-71890476D02*
X147959580Y-71938095D01*
X147959580Y-71938095D02*
X148007200Y-71985714D01*
X148007200Y-71985714D02*
X148054819Y-72080952D01*
X148054819Y-72080952D02*
X148054819Y-72366666D01*
X148054819Y-72366666D02*
X148007200Y-72461904D01*
X148007200Y-72461904D02*
X147959580Y-72509523D01*
X147388152Y-71033333D02*
X148054819Y-71033333D01*
X147007200Y-71271428D02*
X147721485Y-71509523D01*
X147721485Y-71509523D02*
X147721485Y-70890476D01*
X121838095Y-62254819D02*
X121838095Y-63064342D01*
X121838095Y-63064342D02*
X121885714Y-63159580D01*
X121885714Y-63159580D02*
X121933333Y-63207200D01*
X121933333Y-63207200D02*
X122028571Y-63254819D01*
X122028571Y-63254819D02*
X122219047Y-63254819D01*
X122219047Y-63254819D02*
X122314285Y-63207200D01*
X122314285Y-63207200D02*
X122361904Y-63159580D01*
X122361904Y-63159580D02*
X122409523Y-63064342D01*
X122409523Y-63064342D02*
X122409523Y-62254819D01*
X122790476Y-62254819D02*
X123409523Y-62254819D01*
X123409523Y-62254819D02*
X123076190Y-62635771D01*
X123076190Y-62635771D02*
X123219047Y-62635771D01*
X123219047Y-62635771D02*
X123314285Y-62683390D01*
X123314285Y-62683390D02*
X123361904Y-62731009D01*
X123361904Y-62731009D02*
X123409523Y-62826247D01*
X123409523Y-62826247D02*
X123409523Y-63064342D01*
X123409523Y-63064342D02*
X123361904Y-63159580D01*
X123361904Y-63159580D02*
X123314285Y-63207200D01*
X123314285Y-63207200D02*
X123219047Y-63254819D01*
X123219047Y-63254819D02*
X122933333Y-63254819D01*
X122933333Y-63254819D02*
X122838095Y-63207200D01*
X122838095Y-63207200D02*
X122790476Y-63159580D01*
X146857142Y-66674819D02*
X146523809Y-66198628D01*
X146285714Y-66674819D02*
X146285714Y-65674819D01*
X146285714Y-65674819D02*
X146666666Y-65674819D01*
X146666666Y-65674819D02*
X146761904Y-65722438D01*
X146761904Y-65722438D02*
X146809523Y-65770057D01*
X146809523Y-65770057D02*
X146857142Y-65865295D01*
X146857142Y-65865295D02*
X146857142Y-66008152D01*
X146857142Y-66008152D02*
X146809523Y-66103390D01*
X146809523Y-66103390D02*
X146761904Y-66151009D01*
X146761904Y-66151009D02*
X146666666Y-66198628D01*
X146666666Y-66198628D02*
X146285714Y-66198628D01*
X147809523Y-66674819D02*
X147238095Y-66674819D01*
X147523809Y-66674819D02*
X147523809Y-65674819D01*
X147523809Y-65674819D02*
X147428571Y-65817676D01*
X147428571Y-65817676D02*
X147333333Y-65912914D01*
X147333333Y-65912914D02*
X147238095Y-65960533D01*
X148142857Y-65674819D02*
X148761904Y-65674819D01*
X148761904Y-65674819D02*
X148428571Y-66055771D01*
X148428571Y-66055771D02*
X148571428Y-66055771D01*
X148571428Y-66055771D02*
X148666666Y-66103390D01*
X148666666Y-66103390D02*
X148714285Y-66151009D01*
X148714285Y-66151009D02*
X148761904Y-66246247D01*
X148761904Y-66246247D02*
X148761904Y-66484342D01*
X148761904Y-66484342D02*
X148714285Y-66579580D01*
X148714285Y-66579580D02*
X148666666Y-66627200D01*
X148666666Y-66627200D02*
X148571428Y-66674819D01*
X148571428Y-66674819D02*
X148285714Y-66674819D01*
X148285714Y-66674819D02*
X148190476Y-66627200D01*
X148190476Y-66627200D02*
X148142857Y-66579580D01*
X143032142Y-94884819D02*
X142698809Y-94408628D01*
X142460714Y-94884819D02*
X142460714Y-93884819D01*
X142460714Y-93884819D02*
X142841666Y-93884819D01*
X142841666Y-93884819D02*
X142936904Y-93932438D01*
X142936904Y-93932438D02*
X142984523Y-93980057D01*
X142984523Y-93980057D02*
X143032142Y-94075295D01*
X143032142Y-94075295D02*
X143032142Y-94218152D01*
X143032142Y-94218152D02*
X142984523Y-94313390D01*
X142984523Y-94313390D02*
X142936904Y-94361009D01*
X142936904Y-94361009D02*
X142841666Y-94408628D01*
X142841666Y-94408628D02*
X142460714Y-94408628D01*
X143984523Y-94884819D02*
X143413095Y-94884819D01*
X143698809Y-94884819D02*
X143698809Y-93884819D01*
X143698809Y-93884819D02*
X143603571Y-94027676D01*
X143603571Y-94027676D02*
X143508333Y-94122914D01*
X143508333Y-94122914D02*
X143413095Y-94170533D01*
X144317857Y-93884819D02*
X144984523Y-93884819D01*
X144984523Y-93884819D02*
X144555952Y-94884819D01*
X140704761Y-91750057D02*
X140609523Y-91702438D01*
X140609523Y-91702438D02*
X140514285Y-91607200D01*
X140514285Y-91607200D02*
X140371428Y-91464342D01*
X140371428Y-91464342D02*
X140276190Y-91416723D01*
X140276190Y-91416723D02*
X140180952Y-91416723D01*
X140228571Y-91654819D02*
X140133333Y-91607200D01*
X140133333Y-91607200D02*
X140038095Y-91511961D01*
X140038095Y-91511961D02*
X139990476Y-91321485D01*
X139990476Y-91321485D02*
X139990476Y-90988152D01*
X139990476Y-90988152D02*
X140038095Y-90797676D01*
X140038095Y-90797676D02*
X140133333Y-90702438D01*
X140133333Y-90702438D02*
X140228571Y-90654819D01*
X140228571Y-90654819D02*
X140419047Y-90654819D01*
X140419047Y-90654819D02*
X140514285Y-90702438D01*
X140514285Y-90702438D02*
X140609523Y-90797676D01*
X140609523Y-90797676D02*
X140657142Y-90988152D01*
X140657142Y-90988152D02*
X140657142Y-91321485D01*
X140657142Y-91321485D02*
X140609523Y-91511961D01*
X140609523Y-91511961D02*
X140514285Y-91607200D01*
X140514285Y-91607200D02*
X140419047Y-91654819D01*
X140419047Y-91654819D02*
X140228571Y-91654819D01*
X141038095Y-90750057D02*
X141085714Y-90702438D01*
X141085714Y-90702438D02*
X141180952Y-90654819D01*
X141180952Y-90654819D02*
X141419047Y-90654819D01*
X141419047Y-90654819D02*
X141514285Y-90702438D01*
X141514285Y-90702438D02*
X141561904Y-90750057D01*
X141561904Y-90750057D02*
X141609523Y-90845295D01*
X141609523Y-90845295D02*
X141609523Y-90940533D01*
X141609523Y-90940533D02*
X141561904Y-91083390D01*
X141561904Y-91083390D02*
X140990476Y-91654819D01*
X140990476Y-91654819D02*
X141609523Y-91654819D01*
X144854819Y-77442857D02*
X144378628Y-77776190D01*
X144854819Y-78014285D02*
X143854819Y-78014285D01*
X143854819Y-78014285D02*
X143854819Y-77633333D01*
X143854819Y-77633333D02*
X143902438Y-77538095D01*
X143902438Y-77538095D02*
X143950057Y-77490476D01*
X143950057Y-77490476D02*
X144045295Y-77442857D01*
X144045295Y-77442857D02*
X144188152Y-77442857D01*
X144188152Y-77442857D02*
X144283390Y-77490476D01*
X144283390Y-77490476D02*
X144331009Y-77538095D01*
X144331009Y-77538095D02*
X144378628Y-77633333D01*
X144378628Y-77633333D02*
X144378628Y-78014285D01*
X143854819Y-77109523D02*
X143854819Y-76490476D01*
X143854819Y-76490476D02*
X144235771Y-76823809D01*
X144235771Y-76823809D02*
X144235771Y-76680952D01*
X144235771Y-76680952D02*
X144283390Y-76585714D01*
X144283390Y-76585714D02*
X144331009Y-76538095D01*
X144331009Y-76538095D02*
X144426247Y-76490476D01*
X144426247Y-76490476D02*
X144664342Y-76490476D01*
X144664342Y-76490476D02*
X144759580Y-76538095D01*
X144759580Y-76538095D02*
X144807200Y-76585714D01*
X144807200Y-76585714D02*
X144854819Y-76680952D01*
X144854819Y-76680952D02*
X144854819Y-76966666D01*
X144854819Y-76966666D02*
X144807200Y-77061904D01*
X144807200Y-77061904D02*
X144759580Y-77109523D01*
X143854819Y-76157142D02*
X143854819Y-75490476D01*
X143854819Y-75490476D02*
X144854819Y-75919047D01*
X143654819Y-77442857D02*
X143178628Y-77776190D01*
X143654819Y-78014285D02*
X142654819Y-78014285D01*
X142654819Y-78014285D02*
X142654819Y-77633333D01*
X142654819Y-77633333D02*
X142702438Y-77538095D01*
X142702438Y-77538095D02*
X142750057Y-77490476D01*
X142750057Y-77490476D02*
X142845295Y-77442857D01*
X142845295Y-77442857D02*
X142988152Y-77442857D01*
X142988152Y-77442857D02*
X143083390Y-77490476D01*
X143083390Y-77490476D02*
X143131009Y-77538095D01*
X143131009Y-77538095D02*
X143178628Y-77633333D01*
X143178628Y-77633333D02*
X143178628Y-78014285D01*
X142654819Y-77109523D02*
X142654819Y-76490476D01*
X142654819Y-76490476D02*
X143035771Y-76823809D01*
X143035771Y-76823809D02*
X143035771Y-76680952D01*
X143035771Y-76680952D02*
X143083390Y-76585714D01*
X143083390Y-76585714D02*
X143131009Y-76538095D01*
X143131009Y-76538095D02*
X143226247Y-76490476D01*
X143226247Y-76490476D02*
X143464342Y-76490476D01*
X143464342Y-76490476D02*
X143559580Y-76538095D01*
X143559580Y-76538095D02*
X143607200Y-76585714D01*
X143607200Y-76585714D02*
X143654819Y-76680952D01*
X143654819Y-76680952D02*
X143654819Y-76966666D01*
X143654819Y-76966666D02*
X143607200Y-77061904D01*
X143607200Y-77061904D02*
X143559580Y-77109523D01*
X143083390Y-75919047D02*
X143035771Y-76014285D01*
X143035771Y-76014285D02*
X142988152Y-76061904D01*
X142988152Y-76061904D02*
X142892914Y-76109523D01*
X142892914Y-76109523D02*
X142845295Y-76109523D01*
X142845295Y-76109523D02*
X142750057Y-76061904D01*
X142750057Y-76061904D02*
X142702438Y-76014285D01*
X142702438Y-76014285D02*
X142654819Y-75919047D01*
X142654819Y-75919047D02*
X142654819Y-75728571D01*
X142654819Y-75728571D02*
X142702438Y-75633333D01*
X142702438Y-75633333D02*
X142750057Y-75585714D01*
X142750057Y-75585714D02*
X142845295Y-75538095D01*
X142845295Y-75538095D02*
X142892914Y-75538095D01*
X142892914Y-75538095D02*
X142988152Y-75585714D01*
X142988152Y-75585714D02*
X143035771Y-75633333D01*
X143035771Y-75633333D02*
X143083390Y-75728571D01*
X143083390Y-75728571D02*
X143083390Y-75919047D01*
X143083390Y-75919047D02*
X143131009Y-76014285D01*
X143131009Y-76014285D02*
X143178628Y-76061904D01*
X143178628Y-76061904D02*
X143273866Y-76109523D01*
X143273866Y-76109523D02*
X143464342Y-76109523D01*
X143464342Y-76109523D02*
X143559580Y-76061904D01*
X143559580Y-76061904D02*
X143607200Y-76014285D01*
X143607200Y-76014285D02*
X143654819Y-75919047D01*
X143654819Y-75919047D02*
X143654819Y-75728571D01*
X143654819Y-75728571D02*
X143607200Y-75633333D01*
X143607200Y-75633333D02*
X143559580Y-75585714D01*
X143559580Y-75585714D02*
X143464342Y-75538095D01*
X143464342Y-75538095D02*
X143273866Y-75538095D01*
X143273866Y-75538095D02*
X143178628Y-75585714D01*
X143178628Y-75585714D02*
X143131009Y-75633333D01*
X143131009Y-75633333D02*
X143083390Y-75728571D01*
D12*
%TO.C,D4*%
X153162500Y-65065000D02*
X155447500Y-65065000D01*
X155447500Y-63595000D02*
X153162500Y-63595000D01*
X155447500Y-65065000D02*
X155447500Y-63595000D01*
%TO.C,L1*%
D13*
X128555000Y-90770000D02*
X136505000Y-90770000D01*
X136505000Y-97670000D01*
X128555000Y-97670000D01*
X128555000Y-90770000D01*
D12*
%TO.C,R9*%
X133820000Y-83843641D02*
X133820000Y-83536359D01*
X134580000Y-83843641D02*
X134580000Y-83536359D01*
%TO.C,C19*%
X127290000Y-85940580D02*
X127290000Y-85659420D01*
X128310000Y-85940580D02*
X128310000Y-85659420D01*
%TO.C,D2*%
X128640000Y-78270000D02*
X129300000Y-78270000D01*
X128640000Y-79680000D02*
X128640000Y-78270000D01*
X130300000Y-78270000D02*
X130960000Y-78270000D01*
X130960000Y-79680000D02*
X130960000Y-78270000D01*
X128660000Y-80050000D02*
X128330000Y-80290000D01*
X128330000Y-79810000D01*
X128660000Y-80050000D01*
G36*
X128660000Y-80050000D02*
G01*
X128330000Y-80290000D01*
X128330000Y-79810000D01*
X128660000Y-80050000D01*
G37*
%TO.C,U1*%
X148988500Y-88020000D02*
X148988500Y-87370000D01*
X148988500Y-88020000D02*
X148988500Y-88670000D01*
X152108500Y-88020000D02*
X152108500Y-87370000D01*
X152108500Y-88020000D02*
X152108500Y-88670000D01*
X152388500Y-87097500D02*
X152058500Y-86857500D01*
X152388500Y-86617500D01*
X152388500Y-87097500D01*
G36*
X152388500Y-87097500D02*
G01*
X152058500Y-86857500D01*
X152388500Y-86617500D01*
X152388500Y-87097500D01*
G37*
%TO.C,R19*%
X110362742Y-93877500D02*
X110837258Y-93877500D01*
X110362742Y-94922500D02*
X110837258Y-94922500D01*
%TO.C,C15*%
X121340580Y-82690000D02*
X121059420Y-82690000D01*
X121340580Y-83710000D02*
X121059420Y-83710000D01*
%TO.C,F2*%
X104277936Y-81310000D02*
X105482064Y-81310000D01*
X104277936Y-83130000D02*
X105482064Y-83130000D01*
%TO.C,D6*%
X153162500Y-68955000D02*
X155447500Y-68955000D01*
X155447500Y-67485000D02*
X153162500Y-67485000D01*
X155447500Y-68955000D02*
X155447500Y-67485000D01*
%TO.C,C4*%
X106590000Y-71961252D02*
X106590000Y-70538748D01*
X108410000Y-71961252D02*
X108410000Y-70538748D01*
%TO.C,R15*%
X121937742Y-90477500D02*
X122412258Y-90477500D01*
X121937742Y-91522500D02*
X122412258Y-91522500D01*
%TO.C,R31*%
X138420000Y-71246359D02*
X138420000Y-71553641D01*
X139180000Y-71246359D02*
X139180000Y-71553641D01*
%TO.C,C1*%
X150577080Y-84618000D02*
X150295920Y-84618000D01*
X150577080Y-85638000D02*
X150295920Y-85638000D01*
%TO.C,J2*%
X101280000Y-65815000D02*
X101915000Y-65815000D01*
X101915000Y-65815000D02*
X101915000Y-66450000D01*
%TO.C,BAL1*%
X89970000Y-74660000D02*
X101690000Y-74660000D01*
X89970000Y-80970000D02*
X89970000Y-74660000D01*
X89970000Y-80970000D02*
X89970000Y-87280000D01*
X89970000Y-87280000D02*
X101690000Y-87280000D01*
X90580000Y-76970000D02*
X90580000Y-77470000D01*
X90580000Y-77470000D02*
X96080000Y-77470000D01*
X90580000Y-79470000D02*
X90580000Y-79970000D01*
X90580000Y-79970000D02*
X96080000Y-79970000D01*
X90580000Y-81970000D02*
X90580000Y-82470000D01*
X90580000Y-82470000D02*
X96080000Y-82470000D01*
X90580000Y-84470000D02*
X90580000Y-84970000D01*
X90580000Y-84970000D02*
X96080000Y-84970000D01*
X96080000Y-76970000D02*
X90580000Y-76970000D01*
X96080000Y-77470000D02*
X96080000Y-76970000D01*
X96080000Y-79470000D02*
X90580000Y-79470000D01*
X96080000Y-79970000D02*
X96080000Y-79470000D01*
X96080000Y-81970000D02*
X90580000Y-81970000D01*
X96080000Y-82470000D02*
X96080000Y-81970000D01*
X96080000Y-84470000D02*
X90580000Y-84470000D01*
X96080000Y-84970000D02*
X96080000Y-84470000D01*
X97190000Y-76080000D02*
X97190000Y-80970000D01*
X97190000Y-85860000D02*
X97190000Y-80970000D01*
X100780000Y-77220000D02*
X101380000Y-76920000D01*
X101380000Y-76920000D02*
X101380000Y-77520000D01*
X101380000Y-77520000D02*
X100780000Y-77220000D01*
X101690000Y-74660000D02*
X101690000Y-76080000D01*
X101690000Y-76080000D02*
X97190000Y-76080000D01*
X101690000Y-85860000D02*
X97190000Y-85860000D01*
X101690000Y-87280000D02*
X101690000Y-85860000D01*
%TO.C,C12*%
X132890000Y-73059420D02*
X132890000Y-73340580D01*
X133910000Y-73059420D02*
X133910000Y-73340580D01*
%TO.C,R22*%
X117206500Y-92177742D02*
X117206500Y-92652258D01*
X118251500Y-92177742D02*
X118251500Y-92652258D01*
%TO.C,Q10*%
X114145000Y-79800000D02*
X114145000Y-79140000D01*
X114145000Y-81460000D02*
X114145000Y-80800000D01*
X115555000Y-79140000D02*
X114145000Y-79140000D01*
X115555000Y-81460000D02*
X114145000Y-81460000D01*
X116165000Y-81770000D02*
X115685000Y-81770000D01*
X115925000Y-81440000D01*
X116165000Y-81770000D01*
G36*
X116165000Y-81770000D02*
G01*
X115685000Y-81770000D01*
X115925000Y-81440000D01*
X116165000Y-81770000D01*
G37*
%TO.C,R28*%
X113672936Y-84090000D02*
X115127064Y-84090000D01*
X113672936Y-85910000D02*
X115127064Y-85910000D01*
%TO.C,R18*%
X143912258Y-96477500D02*
X143437742Y-96477500D01*
X143912258Y-97522500D02*
X143437742Y-97522500D01*
%TO.C,R33*%
X142620000Y-71246359D02*
X142620000Y-71553641D01*
X143380000Y-71246359D02*
X143380000Y-71553641D01*
%TO.C,R12*%
X150262742Y-63807500D02*
X150737258Y-63807500D01*
X150262742Y-64852500D02*
X150737258Y-64852500D01*
%TO.C,R4*%
X129020000Y-83843641D02*
X129020000Y-83536359D01*
X129780000Y-83843641D02*
X129780000Y-83536359D01*
%TO.C,U2*%
X109082500Y-71270000D02*
X109082500Y-70470000D01*
X109082500Y-71270000D02*
X109082500Y-72070000D01*
X112202500Y-71270000D02*
X112202500Y-70470000D01*
X112202500Y-71270000D02*
X112202500Y-72070000D01*
X112482500Y-70210000D02*
X112152500Y-69970000D01*
X112482500Y-69730000D01*
X112482500Y-70210000D01*
G36*
X112482500Y-70210000D02*
G01*
X112152500Y-69970000D01*
X112482500Y-69730000D01*
X112482500Y-70210000D01*
G37*
%TO.C,TP2*%
X105900000Y-88000000D02*
G75*
G02*
X102500000Y-88000000I-1700000J0D01*
G01*
X102500000Y-88000000D02*
G75*
G02*
X105900000Y-88000000I1700000J0D01*
G01*
%TO.C,C10*%
X133090000Y-66459420D02*
X133090000Y-66740580D01*
X134110000Y-66459420D02*
X134110000Y-66740580D01*
%TO.C,C3*%
X152590000Y-85788748D02*
X152590000Y-87211252D01*
X154410000Y-85788748D02*
X154410000Y-87211252D01*
%TO.C,C8*%
X115426748Y-73925505D02*
X115426748Y-72503001D01*
X117246748Y-73925505D02*
X117246748Y-72503001D01*
%TO.C,TP6*%
X136300000Y-88000000D02*
G75*
G02*
X132900000Y-88000000I-1700000J0D01*
G01*
X132900000Y-88000000D02*
G75*
G02*
X136300000Y-88000000I1700000J0D01*
G01*
%TO.C,R8*%
X132820000Y-83843641D02*
X132820000Y-83536359D01*
X133580000Y-83843641D02*
X133580000Y-83536359D01*
%TO.C,R26*%
X116952500Y-88939742D02*
X116952500Y-89414258D01*
X117997500Y-88939742D02*
X117997500Y-89414258D01*
%TO.C,D3*%
X131440000Y-78248000D02*
X132100000Y-78248000D01*
X131440000Y-79658000D02*
X131440000Y-78248000D01*
X133100000Y-78248000D02*
X133760000Y-78248000D01*
X133760000Y-79658000D02*
X133760000Y-78248000D01*
X131460000Y-80028000D02*
X131130000Y-80268000D01*
X131130000Y-79788000D01*
X131460000Y-80028000D01*
G36*
X131460000Y-80028000D02*
G01*
X131130000Y-80268000D01*
X131130000Y-79788000D01*
X131460000Y-80028000D01*
G37*
%TO.C,D9*%
X123990000Y-82150000D02*
X123990000Y-83850000D01*
X123990000Y-82150000D02*
X126650000Y-82150000D01*
X123990000Y-83850000D02*
X126650000Y-83850000D01*
%TO.C,Q7*%
X110200000Y-77690000D02*
X109550000Y-77690000D01*
X110200000Y-77690000D02*
X110850000Y-77690000D01*
X110200000Y-80810000D02*
X109550000Y-80810000D01*
X110200000Y-80810000D02*
X110850000Y-80810000D01*
X111602500Y-81090000D02*
X111122500Y-81090000D01*
X111362500Y-80760000D01*
X111602500Y-81090000D01*
G36*
X111602500Y-81090000D02*
G01*
X111122500Y-81090000D01*
X111362500Y-80760000D01*
X111602500Y-81090000D01*
G37*
%TO.C,C13*%
X120140000Y-77075420D02*
X120140000Y-77356580D01*
X121160000Y-77075420D02*
X121160000Y-77356580D01*
%TO.C,R6*%
X130020000Y-81646359D02*
X130020000Y-81953641D01*
X130780000Y-81646359D02*
X130780000Y-81953641D01*
%TO.C,R29*%
X113672936Y-89290000D02*
X115127064Y-89290000D01*
X113672936Y-91110000D02*
X115127064Y-91110000D01*
%TO.C,UART1*%
X136947000Y-64302000D02*
X137897000Y-64302000D01*
X136947000Y-65252000D02*
X136947000Y-64302000D01*
X137317000Y-68222000D02*
X143547000Y-68222000D01*
X137897000Y-64302000D02*
X137897000Y-63612000D01*
X143917000Y-64302000D02*
X142967000Y-64302000D01*
X143917000Y-65252000D02*
X143917000Y-64302000D01*
%TO.C,C17*%
X141090000Y-71540580D02*
X141090000Y-71259420D01*
X142110000Y-71540580D02*
X142110000Y-71259420D01*
%TO.C,D5*%
X153162500Y-66955000D02*
X155447500Y-66955000D01*
X155447500Y-65485000D02*
X153162500Y-65485000D01*
X155447500Y-66955000D02*
X155447500Y-65485000D01*
%TO.C,Q8*%
X114332500Y-92210000D02*
X114332500Y-91550000D01*
X114332500Y-93870000D02*
X114332500Y-93210000D01*
X115742500Y-91550000D02*
X114332500Y-91550000D01*
X115742500Y-93870000D02*
X114332500Y-93870000D01*
X116352500Y-94180000D02*
X115872500Y-94180000D01*
X116112500Y-93850000D01*
X116352500Y-94180000D01*
G36*
X116352500Y-94180000D02*
G01*
X115872500Y-94180000D01*
X116112500Y-93850000D01*
X116352500Y-94180000D01*
G37*
%TO.C,C11*%
X117770000Y-73800580D02*
X117770000Y-73519420D01*
X118790000Y-73800580D02*
X118790000Y-73519420D01*
%TO.C,C7*%
X131490000Y-82540580D02*
X131490000Y-82259420D01*
X132510000Y-82540580D02*
X132510000Y-82259420D01*
%TO.C,R27*%
X117102500Y-80312742D02*
X117102500Y-80787258D01*
X118147500Y-80312742D02*
X118147500Y-80787258D01*
%TO.C,Q9*%
X114243417Y-86934222D02*
X114243417Y-86274222D01*
X114243417Y-88594222D02*
X114243417Y-87934222D01*
X115653417Y-86274222D02*
X114243417Y-86274222D01*
X115653417Y-88594222D02*
X114243417Y-88594222D01*
X116263417Y-88904222D02*
X115783417Y-88904222D01*
X116023417Y-88574222D01*
X116263417Y-88904222D01*
G36*
X116263417Y-88904222D02*
G01*
X115783417Y-88904222D01*
X116023417Y-88574222D01*
X116263417Y-88904222D01*
G37*
%TO.C,D1*%
X134222000Y-78264000D02*
X134882000Y-78264000D01*
X134222000Y-79674000D02*
X134222000Y-78264000D01*
X135882000Y-78264000D02*
X136542000Y-78264000D01*
X136542000Y-79674000D02*
X136542000Y-78264000D01*
X134242000Y-80044000D02*
X133912000Y-80284000D01*
X133912000Y-79804000D01*
X134242000Y-80044000D01*
G36*
X134242000Y-80044000D02*
G01*
X133912000Y-80284000D01*
X133912000Y-79804000D01*
X134242000Y-80044000D01*
G37*
%TO.C,R32*%
X139420000Y-71246359D02*
X139420000Y-71553641D01*
X140180000Y-71246359D02*
X140180000Y-71553641D01*
%TO.C,D8*%
X135793000Y-73529000D02*
X135793000Y-72869000D01*
X135793000Y-75189000D02*
X135793000Y-74529000D01*
X137203000Y-72869000D02*
X135793000Y-72869000D01*
X137203000Y-75189000D02*
X135793000Y-75189000D01*
X137813000Y-75499000D02*
X137333000Y-75499000D01*
X137573000Y-75169000D01*
X137813000Y-75499000D01*
G36*
X137813000Y-75499000D02*
G01*
X137333000Y-75499000D01*
X137573000Y-75169000D01*
X137813000Y-75499000D01*
G37*
%TO.C,TP3*%
X153450000Y-92720000D02*
G75*
G02*
X150050000Y-92720000I-1700000J0D01*
G01*
X150050000Y-92720000D02*
G75*
G02*
X153450000Y-92720000I1700000J0D01*
G01*
%TO.C,TP1*%
X105900000Y-73800000D02*
G75*
G02*
X102500000Y-73800000I-1700000J0D01*
G01*
X102500000Y-73800000D02*
G75*
G02*
X105900000Y-73800000I1700000J0D01*
G01*
%TO.C,TP4*%
X112700000Y-65024000D02*
G75*
G02*
X109300000Y-65024000I-1700000J0D01*
G01*
X109300000Y-65024000D02*
G75*
G02*
X112700000Y-65024000I1700000J0D01*
G01*
%TO.C,C14*%
X123890000Y-78459420D02*
X123890000Y-78740580D01*
X124910000Y-78459420D02*
X124910000Y-78740580D01*
%TO.C,R1*%
X137077500Y-78762742D02*
X137077500Y-79237258D01*
X138122500Y-78762742D02*
X138122500Y-79237258D01*
%TO.C,C5*%
X112840000Y-71961252D02*
X112840000Y-70538748D01*
X114660000Y-71961252D02*
X114660000Y-70538748D01*
%TO.C,R35*%
X139424089Y-74467311D02*
X139424089Y-74160029D01*
X140184089Y-74467311D02*
X140184089Y-74160029D01*
%TO.C,R2*%
X147526000Y-85107742D02*
X147526000Y-85582258D01*
X148571000Y-85107742D02*
X148571000Y-85582258D01*
%TO.C,C16*%
X139115580Y-82740000D02*
X138834420Y-82740000D01*
X139115580Y-83760000D02*
X138834420Y-83760000D01*
%TO.C,R16*%
X121937742Y-94477500D02*
X122412258Y-94477500D01*
X121937742Y-95522500D02*
X122412258Y-95522500D01*
%TO.C,TP5*%
X132300000Y-88000000D02*
G75*
G02*
X128900000Y-88000000I-1700000J0D01*
G01*
X128900000Y-88000000D02*
G75*
G02*
X132300000Y-88000000I1700000J0D01*
G01*
%TO.C,R30*%
X113672936Y-76890000D02*
X115127064Y-76890000D01*
X113672936Y-78710000D02*
X115127064Y-78710000D01*
%TO.C,R3*%
X149894936Y-81005000D02*
X151349064Y-81005000D01*
X149894936Y-82825000D02*
X151349064Y-82825000D01*
%TO.C,C6*%
X127690000Y-82540580D02*
X127690000Y-82259420D01*
X128710000Y-82540580D02*
X128710000Y-82259420D01*
%TO.C,R25*%
X117206500Y-95162742D02*
X117206500Y-95637258D01*
X118251500Y-95162742D02*
X118251500Y-95637258D01*
%TO.C,R21*%
X110362742Y-81265500D02*
X110837258Y-81265500D01*
X110362742Y-82310500D02*
X110837258Y-82310500D01*
%TO.C,C20*%
X145090000Y-85540580D02*
X145090000Y-85259420D01*
X146110000Y-85540580D02*
X146110000Y-85259420D01*
%TO.C,D7*%
X135809000Y-70877000D02*
X135809000Y-70217000D01*
X135809000Y-72537000D02*
X135809000Y-71877000D01*
X137219000Y-70217000D02*
X135809000Y-70217000D01*
X137219000Y-72537000D02*
X135809000Y-72537000D01*
X137829000Y-72847000D02*
X137349000Y-72847000D01*
X137589000Y-72517000D01*
X137829000Y-72847000D01*
G36*
X137829000Y-72847000D02*
G01*
X137349000Y-72847000D01*
X137589000Y-72517000D01*
X137829000Y-72847000D01*
G37*
%TO.C,C18*%
X141090000Y-74540580D02*
X141090000Y-74259420D01*
X142110000Y-74540580D02*
X142110000Y-74259420D01*
%TO.C,J1*%
X155150000Y-85670000D02*
X155150000Y-86720000D01*
X155350000Y-77320000D02*
X157250000Y-77320000D01*
X155350000Y-80020000D02*
X155350000Y-77320000D01*
X155350000Y-86520000D02*
X155350000Y-83920000D01*
X156200000Y-86720000D02*
X155150000Y-86720000D01*
X161250000Y-77320000D02*
X170050000Y-77320000D01*
X170050000Y-77320000D02*
X170050000Y-86520000D01*
X170050000Y-86520000D02*
X155350000Y-86520000D01*
%TO.C,U4*%
X123000000Y-84160000D02*
X121050000Y-84160000D01*
X123000000Y-84160000D02*
X124950000Y-84160000D01*
X123000000Y-89280000D02*
X121050000Y-89280000D01*
X123000000Y-89280000D02*
X124950000Y-89280000D01*
X120300000Y-84255000D02*
X120060000Y-83925000D01*
X120540000Y-83925000D01*
X120300000Y-84255000D01*
G36*
X120300000Y-84255000D02*
G01*
X120060000Y-83925000D01*
X120540000Y-83925000D01*
X120300000Y-84255000D01*
G37*
%TO.C,C2*%
X152590000Y-78211252D02*
X152590000Y-76788748D01*
X154410000Y-78211252D02*
X154410000Y-76788748D01*
%TO.C,F1*%
X104277936Y-78810000D02*
X105482064Y-78810000D01*
X104277936Y-80630000D02*
X105482064Y-80630000D01*
%TO.C,C21*%
X119290000Y-64284420D02*
X119290000Y-64565580D01*
X120310000Y-64284420D02*
X120310000Y-64565580D01*
%TO.C,R20*%
X110362742Y-88477500D02*
X110837258Y-88477500D01*
X110362742Y-89522500D02*
X110837258Y-89522500D01*
%TO.C,R5*%
X130026216Y-83846191D02*
X130026216Y-83538909D01*
X130786216Y-83846191D02*
X130786216Y-83538909D01*
%TO.C,R10*%
X132820000Y-81646359D02*
X132820000Y-81953641D01*
X133580000Y-81646359D02*
X133580000Y-81953641D01*
%TO.C,R14*%
X150262742Y-67697500D02*
X150737258Y-67697500D01*
X150262742Y-68742500D02*
X150737258Y-68742500D01*
%TO.C,Q4*%
X138862500Y-94840000D02*
X138212500Y-94840000D01*
X138862500Y-94840000D02*
X139512500Y-94840000D01*
X138862500Y-97960000D02*
X138212500Y-97960000D01*
X138862500Y-97960000D02*
X139512500Y-97960000D01*
X140265000Y-98240000D02*
X139785000Y-98240000D01*
X140025000Y-97910000D01*
X140265000Y-98240000D01*
G36*
X140265000Y-98240000D02*
G01*
X139785000Y-98240000D01*
X140025000Y-97910000D01*
X140265000Y-98240000D01*
G37*
%TO.C,C9*%
X126886580Y-77490000D02*
X126605420Y-77490000D01*
X126886580Y-78510000D02*
X126605420Y-78510000D01*
%TO.C,Q1*%
X126062500Y-90640000D02*
X125412500Y-90640000D01*
X126062500Y-90640000D02*
X126712500Y-90640000D01*
X126062500Y-93760000D02*
X125412500Y-93760000D01*
X126062500Y-93760000D02*
X126712500Y-93760000D01*
X127465000Y-94040000D02*
X126985000Y-94040000D01*
X127225000Y-93710000D01*
X127465000Y-94040000D01*
G36*
X127465000Y-94040000D02*
G01*
X126985000Y-94040000D01*
X127225000Y-93710000D01*
X127465000Y-94040000D01*
G37*
%TO.C,R36*%
X138420000Y-74463641D02*
X138420000Y-74156359D01*
X139180000Y-74463641D02*
X139180000Y-74156359D01*
%TO.C,Q5*%
X110200000Y-90240000D02*
X109550000Y-90240000D01*
X110200000Y-90240000D02*
X110850000Y-90240000D01*
X110200000Y-93360000D02*
X109550000Y-93360000D01*
X110200000Y-93360000D02*
X110850000Y-93360000D01*
X111602500Y-93640000D02*
X111122500Y-93640000D01*
X111362500Y-93310000D01*
X111602500Y-93640000D01*
G36*
X111602500Y-93640000D02*
G01*
X111122500Y-93640000D01*
X111362500Y-93310000D01*
X111602500Y-93640000D01*
G37*
%TO.C,Q3*%
X126155000Y-94840000D02*
X125505000Y-94840000D01*
X126155000Y-94840000D02*
X126805000Y-94840000D01*
X126155000Y-97960000D02*
X125505000Y-97960000D01*
X126155000Y-97960000D02*
X126805000Y-97960000D01*
X124992500Y-94890000D02*
X124752500Y-94560000D01*
X125232500Y-94560000D01*
X124992500Y-94890000D01*
G36*
X124992500Y-94890000D02*
G01*
X124752500Y-94560000D01*
X125232500Y-94560000D01*
X124992500Y-94890000D01*
G37*
%TO.C,D10*%
X141540000Y-82150000D02*
X141540000Y-83850000D01*
X141540000Y-82150000D02*
X144200000Y-82150000D01*
X141540000Y-83850000D02*
X144200000Y-83850000D01*
%TO.C,R24*%
X117102500Y-77137742D02*
X117102500Y-77612258D01*
X118147500Y-77137742D02*
X118147500Y-77612258D01*
%TO.C,Q6*%
X110200000Y-84640000D02*
X109550000Y-84640000D01*
X110200000Y-84640000D02*
X110850000Y-84640000D01*
X110200000Y-87760000D02*
X109550000Y-87760000D01*
X110200000Y-87760000D02*
X110850000Y-87760000D01*
X111602500Y-88040000D02*
X111122500Y-88040000D01*
X111362500Y-87710000D01*
X111602500Y-88040000D01*
G36*
X111602500Y-88040000D02*
G01*
X111122500Y-88040000D01*
X111362500Y-87710000D01*
X111602500Y-88040000D01*
G37*
%TO.C,R23*%
X116952500Y-85890742D02*
X116952500Y-86365258D01*
X117997500Y-85890742D02*
X117997500Y-86365258D01*
%TO.C,F3*%
X104277936Y-83810000D02*
X105482064Y-83810000D01*
X104277936Y-85630000D02*
X105482064Y-85630000D01*
%TO.C,U5*%
X141130000Y-84160000D02*
X139180000Y-84160000D01*
X141130000Y-84160000D02*
X143080000Y-84160000D01*
X141130000Y-89280000D02*
X139180000Y-89280000D01*
X141130000Y-89280000D02*
X143080000Y-89280000D01*
X138430000Y-84255000D02*
X138190000Y-83925000D01*
X138670000Y-83925000D01*
X138430000Y-84255000D01*
G36*
X138430000Y-84255000D02*
G01*
X138190000Y-83925000D01*
X138670000Y-83925000D01*
X138430000Y-84255000D01*
G37*
%TO.C,R7*%
X129022725Y-81665009D02*
X129022725Y-81972291D01*
X129782725Y-81665009D02*
X129782725Y-81972291D01*
%TO.C,R11*%
X133814447Y-81648823D02*
X133814447Y-81956105D01*
X134574447Y-81648823D02*
X134574447Y-81956105D01*
%TO.C,R34*%
X143620000Y-71246359D02*
X143620000Y-71553641D01*
X144380000Y-71246359D02*
X144380000Y-71553641D01*
%TO.C,U3*%
X120670000Y-65110000D02*
X121620000Y-65110000D01*
X120670000Y-66060000D02*
X120670000Y-65110000D01*
X120670000Y-74380000D02*
X120670000Y-75330000D01*
X120670000Y-75330000D02*
X121620000Y-75330000D01*
X130890000Y-65110000D02*
X129940000Y-65110000D01*
X130890000Y-66060000D02*
X130890000Y-65110000D01*
X130890000Y-74380000D02*
X130890000Y-75330000D01*
X130890000Y-75330000D02*
X129940000Y-75330000D01*
X121620000Y-75945000D02*
X121150000Y-76285000D01*
X121150000Y-75605000D01*
X121620000Y-75945000D01*
G36*
X121620000Y-75945000D02*
G01*
X121150000Y-76285000D01*
X121150000Y-75605000D01*
X121620000Y-75945000D01*
G37*
%TO.C,R13*%
X150262742Y-65697500D02*
X150737258Y-65697500D01*
X150262742Y-66742500D02*
X150737258Y-66742500D01*
%TO.C,R17*%
X143912258Y-92477500D02*
X143437742Y-92477500D01*
X143912258Y-93522500D02*
X143437742Y-93522500D01*
%TO.C,Q2*%
X138862500Y-90840000D02*
X138212500Y-90840000D01*
X138862500Y-90840000D02*
X139512500Y-90840000D01*
X138862500Y-93960000D02*
X138212500Y-93960000D01*
X138862500Y-93960000D02*
X139512500Y-93960000D01*
X137700000Y-90890000D02*
X137460000Y-90560000D01*
X137940000Y-90560000D01*
X137700000Y-90890000D01*
G36*
X137700000Y-90890000D02*
G01*
X137460000Y-90560000D01*
X137940000Y-90560000D01*
X137700000Y-90890000D01*
G37*
%TO.C,R37*%
X143620000Y-74246359D02*
X143620000Y-74553641D01*
X144380000Y-74246359D02*
X144380000Y-74553641D01*
%TO.C,R38*%
X142620000Y-74246359D02*
X142620000Y-74553641D01*
X143380000Y-74246359D02*
X143380000Y-74553641D01*
%TD*%
%LPC*%
D14*
%TO.C,D4*%
X154750000Y-64330000D03*
X153175000Y-64330000D03*
%TD*%
D15*
%TO.C,L1*%
X129755000Y-94220000D03*
X135255000Y-94220000D03*
%TD*%
D16*
%TO.C,R9*%
X134200000Y-84200000D03*
X134200000Y-83180000D03*
%TD*%
D17*
%TO.C,C19*%
X127800000Y-86575000D03*
X127800000Y-85025000D03*
%TD*%
D18*
%TO.C,D2*%
X129150000Y-80000000D03*
X130450000Y-80000000D03*
X129800000Y-78000000D03*
%TD*%
D19*
%TO.C,U1*%
X151498500Y-87082500D03*
X149598500Y-87082500D03*
X150548500Y-88957500D03*
%TD*%
D20*
%TO.C,R19*%
X109775000Y-94400000D03*
X111425000Y-94400000D03*
%TD*%
D21*
%TO.C,C15*%
X121975000Y-83200000D03*
X120425000Y-83200000D03*
%TD*%
D22*
%TO.C,F2*%
X103480000Y-82220000D03*
X106280000Y-82220000D03*
%TD*%
D14*
%TO.C,D6*%
X154750000Y-68220000D03*
X153175000Y-68220000D03*
%TD*%
D23*
%TO.C,C4*%
X107500000Y-72725000D03*
X107500000Y-69775000D03*
%TD*%
D20*
%TO.C,R15*%
X121350000Y-91000000D03*
X123000000Y-91000000D03*
%TD*%
D24*
%TO.C,R31*%
X138800000Y-70890000D03*
X138800000Y-71910000D03*
%TD*%
D21*
%TO.C,C1*%
X151211500Y-85128000D03*
X149661500Y-85128000D03*
%TD*%
D25*
%TO.C,J2*%
X102550000Y-69625000D03*
D26*
X102550000Y-67085000D03*
D25*
X102550000Y-64545000D03*
X99375000Y-69625000D03*
X99375000Y-64545000D03*
D26*
X97470000Y-68101000D03*
X97470000Y-66069000D03*
D27*
X101280000Y-66450000D03*
X101280000Y-67720000D03*
X100010000Y-66450000D03*
X100010000Y-67720000D03*
X98740000Y-66450000D03*
X98740000Y-67720000D03*
%TD*%
D28*
%TO.C,BAL1*%
X99280000Y-77220000D03*
D29*
X99280000Y-79720000D03*
X99280000Y-82220000D03*
X99280000Y-84720000D03*
%TD*%
D30*
%TO.C,C12*%
X133400000Y-72425000D03*
X133400000Y-73975000D03*
%TD*%
D31*
%TO.C,R22*%
X117729000Y-91590000D03*
X117729000Y-93240000D03*
%TD*%
D32*
%TO.C,Q10*%
X115875000Y-80950000D03*
X115875000Y-79650000D03*
X113875000Y-80300000D03*
%TD*%
D33*
%TO.C,H3*%
X161000000Y-97000000D03*
%TD*%
D34*
%TO.C,R28*%
X112937500Y-85000000D03*
X115862500Y-85000000D03*
%TD*%
D35*
%TO.C,R18*%
X144500000Y-97000000D03*
X142850000Y-97000000D03*
%TD*%
D33*
%TO.C,H2*%
X100000000Y-97000000D03*
%TD*%
D24*
%TO.C,R33*%
X143000000Y-70890000D03*
X143000000Y-71910000D03*
%TD*%
D20*
%TO.C,R12*%
X149675000Y-64330000D03*
X151325000Y-64330000D03*
%TD*%
D16*
%TO.C,R4*%
X129400000Y-84200000D03*
X129400000Y-83180000D03*
%TD*%
D36*
%TO.C,U2*%
X111592500Y-70132500D03*
X110642500Y-70132500D03*
X109692500Y-70132500D03*
X109692500Y-72407500D03*
X111592500Y-72407500D03*
%TD*%
D37*
%TO.C,TP2*%
X104200000Y-88000000D03*
%TD*%
D30*
%TO.C,C10*%
X133600000Y-65825000D03*
X133600000Y-67375000D03*
%TD*%
D38*
%TO.C,C3*%
X153500000Y-85025000D03*
X153500000Y-87975000D03*
%TD*%
D23*
%TO.C,C8*%
X116336748Y-74689253D03*
X116336748Y-71739253D03*
%TD*%
D37*
%TO.C,TP6*%
X134600000Y-88000000D03*
%TD*%
D16*
%TO.C,R8*%
X133200000Y-84200000D03*
X133200000Y-83180000D03*
%TD*%
D31*
%TO.C,R26*%
X117475000Y-88352000D03*
X117475000Y-90002000D03*
%TD*%
D18*
%TO.C,D3*%
X131950000Y-79978000D03*
X133250000Y-79978000D03*
X132600000Y-77978000D03*
%TD*%
D39*
%TO.C,D9*%
X124550000Y-83000000D03*
X126650000Y-83000000D03*
%TD*%
D40*
%TO.C,Q7*%
X111137500Y-80200000D03*
X111137500Y-78300000D03*
X109262500Y-79250000D03*
%TD*%
D30*
%TO.C,C13*%
X120650000Y-76441000D03*
X120650000Y-77991000D03*
%TD*%
D24*
%TO.C,R6*%
X130400000Y-81290000D03*
X130400000Y-82310000D03*
%TD*%
D34*
%TO.C,R29*%
X112937500Y-90200000D03*
X115862500Y-90200000D03*
%TD*%
D41*
%TO.C,UART1*%
X138557000Y-64262000D03*
X139807000Y-64262000D03*
X141057000Y-64262000D03*
X142307000Y-64262000D03*
D42*
X136007000Y-67012000D03*
X144857000Y-67012000D03*
%TD*%
D17*
%TO.C,C17*%
X141600000Y-72175000D03*
X141600000Y-70625000D03*
%TD*%
D14*
%TO.C,D5*%
X154750000Y-66220000D03*
X153175000Y-66220000D03*
%TD*%
D32*
%TO.C,Q8*%
X116062500Y-93360000D03*
X116062500Y-92060000D03*
X114062500Y-92710000D03*
%TD*%
D17*
%TO.C,C11*%
X118280000Y-74435000D03*
X118280000Y-72885000D03*
%TD*%
%TO.C,C7*%
X132000000Y-83175000D03*
X132000000Y-81625000D03*
%TD*%
D31*
%TO.C,R27*%
X117625000Y-79725000D03*
X117625000Y-81375000D03*
%TD*%
D32*
%TO.C,Q9*%
X115973417Y-88084222D03*
X115973417Y-86784222D03*
X113973417Y-87434222D03*
%TD*%
D18*
%TO.C,D1*%
X134732000Y-79994000D03*
X136032000Y-79994000D03*
X135382000Y-77994000D03*
%TD*%
D24*
%TO.C,R32*%
X139800000Y-70890000D03*
X139800000Y-71910000D03*
%TD*%
D32*
%TO.C,D8*%
X137523000Y-74679000D03*
X137523000Y-73379000D03*
X135523000Y-74029000D03*
%TD*%
D37*
%TO.C,TP3*%
X151750000Y-92720000D03*
%TD*%
%TO.C,TP1*%
X104200000Y-73800000D03*
%TD*%
%TO.C,TP4*%
X111000000Y-65024000D03*
%TD*%
D33*
%TO.C,H1*%
X161000000Y-66000000D03*
%TD*%
D30*
%TO.C,C14*%
X124400000Y-77825000D03*
X124400000Y-79375000D03*
%TD*%
D31*
%TO.C,R1*%
X137600000Y-78175000D03*
X137600000Y-79825000D03*
%TD*%
D23*
%TO.C,C5*%
X113750000Y-72725000D03*
X113750000Y-69775000D03*
%TD*%
D16*
%TO.C,R35*%
X139804089Y-74823670D03*
X139804089Y-73803670D03*
%TD*%
D31*
%TO.C,R2*%
X148048500Y-84520000D03*
X148048500Y-86170000D03*
%TD*%
D21*
%TO.C,C16*%
X139750000Y-83250000D03*
X138200000Y-83250000D03*
%TD*%
D20*
%TO.C,R16*%
X121350000Y-95000000D03*
X123000000Y-95000000D03*
%TD*%
D37*
%TO.C,TP5*%
X130600000Y-88000000D03*
%TD*%
D34*
%TO.C,R30*%
X112937500Y-77800000D03*
X115862500Y-77800000D03*
%TD*%
%TO.C,R3*%
X149159500Y-81915000D03*
X152084500Y-81915000D03*
%TD*%
D17*
%TO.C,C6*%
X128200000Y-83175000D03*
X128200000Y-81625000D03*
%TD*%
D31*
%TO.C,R25*%
X117729000Y-94575000D03*
X117729000Y-96225000D03*
%TD*%
D20*
%TO.C,R21*%
X109775000Y-81788000D03*
X111425000Y-81788000D03*
%TD*%
D17*
%TO.C,C20*%
X145600000Y-86175000D03*
X145600000Y-84625000D03*
%TD*%
D32*
%TO.C,D7*%
X137539000Y-72027000D03*
X137539000Y-70727000D03*
X135539000Y-71377000D03*
%TD*%
D17*
%TO.C,C18*%
X141600000Y-75175000D03*
X141600000Y-73625000D03*
%TD*%
D43*
%TO.C,J1*%
X156250000Y-81920000D03*
D44*
X162250000Y-81920000D03*
D45*
X159250000Y-77220000D03*
%TD*%
D46*
%TO.C,U4*%
X120525000Y-84815000D03*
X120525000Y-86085000D03*
X120525000Y-87355000D03*
X120525000Y-88625000D03*
X125475000Y-88625000D03*
X125475000Y-87355000D03*
X125475000Y-86085000D03*
X125475000Y-84815000D03*
%TD*%
D23*
%TO.C,C2*%
X153500000Y-78975000D03*
X153500000Y-76025000D03*
%TD*%
D22*
%TO.C,F1*%
X103480000Y-79720000D03*
X106280000Y-79720000D03*
%TD*%
D30*
%TO.C,C21*%
X119800000Y-63650000D03*
X119800000Y-65200000D03*
%TD*%
D20*
%TO.C,R20*%
X109775000Y-89000000D03*
X111425000Y-89000000D03*
%TD*%
D16*
%TO.C,R5*%
X130406216Y-84202550D03*
X130406216Y-83182550D03*
%TD*%
D24*
%TO.C,R10*%
X133200000Y-81290000D03*
X133200000Y-82310000D03*
%TD*%
D20*
%TO.C,R14*%
X149675000Y-68220000D03*
X151325000Y-68220000D03*
%TD*%
D40*
%TO.C,Q4*%
X139800000Y-97350000D03*
X139800000Y-95450000D03*
X137925000Y-96400000D03*
%TD*%
D21*
%TO.C,C9*%
X127521000Y-78000000D03*
X125971000Y-78000000D03*
%TD*%
D40*
%TO.C,Q1*%
X127000000Y-93150000D03*
X127000000Y-91250000D03*
X125125000Y-92200000D03*
%TD*%
D16*
%TO.C,R36*%
X138800000Y-74820000D03*
X138800000Y-73800000D03*
%TD*%
D40*
%TO.C,Q5*%
X111137500Y-92750000D03*
X111137500Y-90850000D03*
X109262500Y-91800000D03*
%TD*%
D47*
%TO.C,Q3*%
X125217500Y-95450000D03*
X125217500Y-97350000D03*
X127092500Y-96400000D03*
%TD*%
D39*
%TO.C,D10*%
X142100000Y-83000000D03*
X144200000Y-83000000D03*
%TD*%
D31*
%TO.C,R24*%
X117625000Y-76550000D03*
X117625000Y-78200000D03*
%TD*%
D40*
%TO.C,Q6*%
X111137500Y-87150000D03*
X111137500Y-85250000D03*
X109262500Y-86200000D03*
%TD*%
D31*
%TO.C,R23*%
X117475000Y-85303000D03*
X117475000Y-86953000D03*
%TD*%
D22*
%TO.C,F3*%
X103480000Y-84720000D03*
X106280000Y-84720000D03*
%TD*%
D46*
%TO.C,U5*%
X138655000Y-84815000D03*
X138655000Y-86085000D03*
X138655000Y-87355000D03*
X138655000Y-88625000D03*
X143605000Y-88625000D03*
X143605000Y-87355000D03*
X143605000Y-86085000D03*
X143605000Y-84815000D03*
%TD*%
D24*
%TO.C,R7*%
X129402725Y-81308650D03*
X129402725Y-82328650D03*
%TD*%
%TO.C,R11*%
X134194447Y-81292464D03*
X134194447Y-82312464D03*
%TD*%
%TO.C,R34*%
X144000000Y-70890000D03*
X144000000Y-71910000D03*
%TD*%
D48*
%TO.C,U3*%
X122030000Y-75895000D03*
X122530000Y-75895000D03*
X123030000Y-75895000D03*
X123530000Y-75895000D03*
X124030000Y-75895000D03*
X124530000Y-75895000D03*
X125030000Y-75895000D03*
X125530000Y-75895000D03*
X126030000Y-75895000D03*
X126530000Y-75895000D03*
X127030000Y-75895000D03*
X127530000Y-75895000D03*
X128030000Y-75895000D03*
X128530000Y-75895000D03*
X129030000Y-75895000D03*
X129530000Y-75895000D03*
D49*
X131455000Y-73970000D03*
X131455000Y-73470000D03*
X131455000Y-72970000D03*
X131455000Y-72470000D03*
X131455000Y-71970000D03*
X131455000Y-71470000D03*
X131455000Y-70970000D03*
X131455000Y-70470000D03*
X131455000Y-69970000D03*
X131455000Y-69470000D03*
X131455000Y-68970000D03*
X131455000Y-68470000D03*
X131455000Y-67970000D03*
X131455000Y-67470000D03*
X131455000Y-66970000D03*
X131455000Y-66470000D03*
D48*
X129530000Y-64545000D03*
X129030000Y-64545000D03*
X128530000Y-64545000D03*
X128030000Y-64545000D03*
X127530000Y-64545000D03*
X127030000Y-64545000D03*
X126530000Y-64545000D03*
X126030000Y-64545000D03*
X125530000Y-64545000D03*
X125030000Y-64545000D03*
X124530000Y-64545000D03*
X124030000Y-64545000D03*
X123530000Y-64545000D03*
X123030000Y-64545000D03*
X122530000Y-64545000D03*
X122030000Y-64545000D03*
D49*
X120105000Y-66470000D03*
X120105000Y-66970000D03*
X120105000Y-67470000D03*
X120105000Y-67970000D03*
X120105000Y-68470000D03*
X120105000Y-68970000D03*
X120105000Y-69470000D03*
X120105000Y-69970000D03*
X120105000Y-70470000D03*
X120105000Y-70970000D03*
X120105000Y-71470000D03*
X120105000Y-71970000D03*
X120105000Y-72470000D03*
X120105000Y-72970000D03*
X120105000Y-73470000D03*
X120105000Y-73970000D03*
%TD*%
D20*
%TO.C,R13*%
X149675000Y-66220000D03*
X151325000Y-66220000D03*
%TD*%
D35*
%TO.C,R17*%
X144500000Y-93000000D03*
X142850000Y-93000000D03*
%TD*%
D47*
%TO.C,Q2*%
X137925000Y-91450000D03*
X137925000Y-93350000D03*
X139800000Y-92400000D03*
%TD*%
D24*
%TO.C,R37*%
X144000000Y-73890000D03*
X144000000Y-74910000D03*
%TD*%
%TO.C,R38*%
X143000000Y-73890000D03*
X143000000Y-74910000D03*
%TD*%
%LPD*%
M02*
