M48
; DRILL file {KiCad 8.0.2-8.0.2-0~ubuntu22.04.1} date 2024-05-15T13:16:02-0700
; FORMAT={-:-/ absolute / metric / decimal}
; #@! TF.CreationDate,2024-05-15T13:16:02-07:00
; #@! TF.GenerationSoftware,Kicad,Pcbnew,8.0.2-8.0.2-0~ubuntu22.04.1
; #@! TF.FileFunction,Plated,1,4,PTH
FMAT,2
METRIC
; #@! TA.AperFunction,Plated,PTH,ViaDrill
T1C0.300
; #@! TA.AperFunction,Plated,PTH,ComponentDrill
T2C0.950
; #@! TA.AperFunction,Plated,PTH,ComponentDrill
T3C1.000
; #@! TA.AperFunction,Plated,PTH,ComponentDrill
T4C1.600
%
G90
G05
T1
X97.4Y-64.4
X106.0Y-69.8
X107.0Y-63.2
X107.0Y-64.6
X108.2Y-82.8
X108.6Y-81.188
X109.8Y-75.6
X110.35Y-68.619
X110.6Y-72.4
X110.6Y-74.6
X111.4Y-76.0
X111.8Y-73.8
X112.557Y-75.4
X113.8Y-68.6
X114.6Y-84.8
X114.8Y-89.6
X114.937Y-74.676
X115.1Y-88.5
X115.2Y-80.2
X115.2Y-67.0
X115.2Y-92.2
X115.8Y-76.4
X116.0Y-73.2
X116.4Y-66.0
X116.511Y-87.437
X116.79Y-86.185
X117.24Y-70.04
X117.6Y-68.6
X117.6Y-83.925
X117.8Y-67.4
X117.8Y-97.4
X118.2Y-71.8
X118.6Y-65.4
X118.6Y-69.6
X118.8Y-81.4
X119.0Y-92.4
X119.0Y-93.6
X119.8Y-74.65
X120.4Y-89.4
X120.6Y-79.2
X120.8Y-93.8
X121.4Y-73.8
X122.0Y-93.8
X122.0Y-72.8
X122.2Y-85.8
X122.4Y-87.2
X122.6Y-66.0
X122.6Y-88.4
X123.2Y-83.2
X123.8Y-85.8
X123.8Y-97.4
X124.4Y-80.6
X124.6Y-72.2
X125.0Y-82.2
X125.4Y-89.8
X125.6Y-81.2
X125.8Y-72.0
X126.0Y-79.2
X126.6Y-89.8
X127.2Y-73.0
X128.0Y-74.0
X128.2Y-80.6
X128.4Y-79.0
X129.2Y-72.0
X129.4Y-68.4
X129.8Y-79.2
X130.0Y-67.2
X130.0Y-73.0
X130.594Y-63.931
X131.6Y-78.6
X132.135Y-64.45
X132.6Y-79.2
X132.6Y-80.6
X132.8Y-62.8
X133.0Y-69.6
X134.2Y-63.4
X134.2Y-68.8
X134.2Y-69.65
X134.4Y-74.0
X134.457Y-67.4
X134.6Y-79.0
X136.0Y-79.0
X136.2Y-91.4
X136.4Y-70.4
X136.4Y-72.0
X136.4Y-73.2
X136.4Y-74.8
X137.0Y-90.4
X137.4Y-69.8
X137.6Y-80.8
X138.6Y-89.8
X138.8Y-76.2
X140.0Y-76.0
X140.0Y-89.6
X140.2Y-70.0
X140.4Y-85.8
X140.6Y-73.2
X140.8Y-83.2
X141.2Y-95.45
X141.4Y-90.2
X141.506Y-87.356
X141.6Y-69.6
X141.6Y-93.4
X141.8Y-85.8
X142.4Y-63.0
X142.6Y-94.2
X142.8Y-89.8
X143.8Y-95.6
X144.0Y-70.2
X144.2Y-73.2
X145.2Y-95.6
X145.6Y-92.6
X146.8Y-92.6
X153.6Y-74.8
X155.2Y-88.0
X156.0Y-64.4
X156.0Y-66.2
X156.0Y-68.2
T2
X99.28Y-77.22
X99.28Y-79.72
X99.28Y-82.22
X99.28Y-84.72
T4
X104.2Y-73.8
X104.2Y-88.0
X111.0Y-65.024
X130.6Y-88.0
X134.6Y-88.0
X151.75Y-92.72
T3
X156.25Y-82.92G85X156.25Y-80.92
G05
X160.25Y-77.22G85X158.25Y-77.22
G05
X162.25Y-82.92G85X162.25Y-80.92
G05
M30
